%TF.GenerationSoftware,KiCad,Pcbnew,5.1.10*%
%TF.CreationDate,2021-05-04T20:33:21-04:00*%
%TF.ProjectId,CANalog,43414e61-6c6f-4672-9e6b-696361645f70,rev?*%
%TF.SameCoordinates,PX5b8d800PY848f8c0*%
%TF.FileFunction,Copper,L1,Top*%
%TF.FilePolarity,Positive*%
%FSLAX46Y46*%
G04 Gerber Fmt 4.6, Leading zero omitted, Abs format (unit mm)*
G04 Created by KiCad (PCBNEW 5.1.10) date 2021-05-04 20:33:21*
%MOMM*%
%LPD*%
G01*
G04 APERTURE LIST*
%TA.AperFunction,EtchedComponent*%
%ADD10C,0.100000*%
%TD*%
%TA.AperFunction,SMDPad,CuDef*%
%ADD11R,2.500000X1.100000*%
%TD*%
%TA.AperFunction,SMDPad,CuDef*%
%ADD12R,1.100000X2.500000*%
%TD*%
%TA.AperFunction,ConnectorPad*%
%ADD13C,0.787400*%
%TD*%
%TA.AperFunction,SMDPad,CuDef*%
%ADD14R,1.900000X0.400000*%
%TD*%
%TA.AperFunction,SMDPad,CuDef*%
%ADD15R,0.400000X0.650000*%
%TD*%
%TA.AperFunction,SMDPad,CuDef*%
%ADD16R,1.060000X0.650000*%
%TD*%
%TA.AperFunction,SMDPad,CuDef*%
%ADD17R,0.650000X1.060000*%
%TD*%
%TA.AperFunction,SMDPad,CuDef*%
%ADD18C,1.000000*%
%TD*%
%TA.AperFunction,SMDPad,CuDef*%
%ADD19R,1.500000X1.500000*%
%TD*%
%TA.AperFunction,SMDPad,CuDef*%
%ADD20R,0.800000X0.900000*%
%TD*%
%TA.AperFunction,SMDPad,CuDef*%
%ADD21R,3.500000X1.600000*%
%TD*%
%TA.AperFunction,SMDPad,CuDef*%
%ADD22R,1.500000X1.000000*%
%TD*%
%TA.AperFunction,ComponentPad*%
%ADD23O,1.700000X1.700000*%
%TD*%
%TA.AperFunction,ComponentPad*%
%ADD24R,1.700000X1.700000*%
%TD*%
%TA.AperFunction,ComponentPad*%
%ADD25C,1.800000*%
%TD*%
%TA.AperFunction,SMDPad,CuDef*%
%ADD26R,1.200000X0.900000*%
%TD*%
%TA.AperFunction,SMDPad,CuDef*%
%ADD27R,1.600000X1.800000*%
%TD*%
%TA.AperFunction,SMDPad,CuDef*%
%ADD28R,0.900000X1.200000*%
%TD*%
%TA.AperFunction,SMDPad,CuDef*%
%ADD29R,1.000000X1.700000*%
%TD*%
%TA.AperFunction,ViaPad*%
%ADD30C,0.800000*%
%TD*%
%TA.AperFunction,Conductor*%
%ADD31C,0.500000*%
%TD*%
%TA.AperFunction,Conductor*%
%ADD32C,0.300000*%
%TD*%
%TA.AperFunction,Conductor*%
%ADD33C,0.250000*%
%TD*%
%TA.AperFunction,Conductor*%
%ADD34C,0.254000*%
%TD*%
%TA.AperFunction,Conductor*%
%ADD35C,0.100000*%
%TD*%
G04 APERTURE END LIST*
D10*
%TO.C,JP3*%
G36*
X-35950000Y-19175000D02*
G01*
X-35950000Y-18675000D01*
X-35550000Y-18675000D01*
X-35550000Y-19175000D01*
X-35950000Y-19175000D01*
G37*
G36*
X-35150000Y-19175000D02*
G01*
X-35150000Y-18675000D01*
X-34750000Y-18675000D01*
X-34750000Y-19175000D01*
X-35150000Y-19175000D01*
G37*
%TD*%
D11*
%TO.P,U4,22*%
%TO.N,Net-(U4-Pad22)*%
X-47550000Y-25060000D03*
%TO.P,U4,21*%
%TO.N,Net-(U4-Pad21)*%
X-47550000Y-27060000D03*
%TO.P,U4,20*%
%TO.N,Net-(U4-Pad20)*%
X-47550000Y-29060000D03*
%TO.P,U4,19*%
%TO.N,Net-(U4-Pad19)*%
X-47550000Y-31060000D03*
%TO.P,U4,18*%
%TO.N,Net-(U4-Pad18)*%
X-47550000Y-33060000D03*
%TO.P,U4,17*%
%TO.N,Net-(U4-Pad17)*%
X-47550000Y-35060000D03*
D12*
%TO.P,U4,16*%
%TO.N,/TXD*%
X-63250000Y-22350000D03*
%TO.P,U4,15*%
%TO.N,/RXD*%
X-61250000Y-22350000D03*
%TO.P,U4,14*%
%TO.N,STM_RESET*%
X-59250000Y-22350000D03*
%TO.P,U4,13*%
%TO.N,STM_RDY*%
X-57250000Y-22350000D03*
%TO.P,U4,12*%
%TO.N,GPIO0*%
X-55250000Y-22350000D03*
%TO.P,U4,11*%
%TO.N,GPIO2*%
X-53250000Y-22350000D03*
%TO.P,U4,10*%
%TO.N,STM_CS*%
X-51250000Y-22350000D03*
%TO.P,U4,9*%
%TO.N,GND*%
X-49250000Y-22350000D03*
%TO.P,U4,8*%
%TO.N,+3V3*%
X-49250000Y-37750000D03*
%TO.P,U4,7*%
%TO.N,MOSI*%
X-51250000Y-37750000D03*
%TO.P,U4,6*%
%TO.N,MISO*%
X-53250000Y-37750000D03*
%TO.P,U4,5*%
%TO.N,SCLK*%
X-55250000Y-37750000D03*
%TO.P,U4,4*%
%TO.N,Net-(U4-Pad4)*%
X-57250000Y-37750000D03*
%TO.P,U4,3*%
%TO.N,CH_PD*%
X-59250000Y-37750000D03*
%TO.P,U4,2*%
%TO.N,Net-(U4-Pad2)*%
X-61250000Y-37750000D03*
%TO.P,U4,1*%
%TO.N,ESP_RESET*%
X-63250000Y-37750000D03*
%TD*%
%TO.P,R14,2*%
%TO.N,Net-(R14-Pad2)*%
%TA.AperFunction,SMDPad,CuDef*%
G36*
G01*
X-10575000Y-32525000D02*
X-10575000Y-31975000D01*
G75*
G02*
X-10375000Y-31775000I200000J0D01*
G01*
X-9975000Y-31775000D01*
G75*
G02*
X-9775000Y-31975000I0J-200000D01*
G01*
X-9775000Y-32525000D01*
G75*
G02*
X-9975000Y-32725000I-200000J0D01*
G01*
X-10375000Y-32725000D01*
G75*
G02*
X-10575000Y-32525000I0J200000D01*
G01*
G37*
%TD.AperFunction*%
%TO.P,R14,1*%
%TO.N,/XOUT*%
%TA.AperFunction,SMDPad,CuDef*%
G36*
G01*
X-12225000Y-32525000D02*
X-12225000Y-31975000D01*
G75*
G02*
X-12025000Y-31775000I200000J0D01*
G01*
X-11625000Y-31775000D01*
G75*
G02*
X-11425000Y-31975000I0J-200000D01*
G01*
X-11425000Y-32525000D01*
G75*
G02*
X-11625000Y-32725000I-200000J0D01*
G01*
X-12025000Y-32725000D01*
G75*
G02*
X-12225000Y-32525000I0J200000D01*
G01*
G37*
%TD.AperFunction*%
%TD*%
D13*
%TO.P,J4,6*%
%TO.N,Net-(J4-Pad6)*%
X-32980000Y-36165000D03*
%TO.P,J4,5*%
%TO.N,GND*%
X-32980000Y-37435000D03*
%TO.P,J4,4*%
%TO.N,/SWCLK*%
X-34250000Y-36165000D03*
%TO.P,J4,3*%
%TO.N,STM_RESET*%
X-34250000Y-37435000D03*
%TO.P,J4,2*%
%TO.N,/SWDIO*%
X-35520000Y-36165000D03*
%TO.P,J4,1*%
%TO.N,Net-(J4-Pad1)*%
X-35520000Y-37435000D03*
%TD*%
%TO.P,U3,48*%
%TO.N,+3V3*%
%TA.AperFunction,SMDPad,CuDef*%
G36*
G01*
X-16300000Y-35000000D02*
X-16300000Y-36325000D01*
G75*
G02*
X-16375000Y-36400000I-75000J0D01*
G01*
X-16525000Y-36400000D01*
G75*
G02*
X-16600000Y-36325000I0J75000D01*
G01*
X-16600000Y-35000000D01*
G75*
G02*
X-16525000Y-34925000I75000J0D01*
G01*
X-16375000Y-34925000D01*
G75*
G02*
X-16300000Y-35000000I0J-75000D01*
G01*
G37*
%TD.AperFunction*%
%TO.P,U3,47*%
%TO.N,GND*%
%TA.AperFunction,SMDPad,CuDef*%
G36*
G01*
X-16800000Y-35000000D02*
X-16800000Y-36325000D01*
G75*
G02*
X-16875000Y-36400000I-75000J0D01*
G01*
X-17025000Y-36400000D01*
G75*
G02*
X-17100000Y-36325000I0J75000D01*
G01*
X-17100000Y-35000000D01*
G75*
G02*
X-17025000Y-34925000I75000J0D01*
G01*
X-16875000Y-34925000D01*
G75*
G02*
X-16800000Y-35000000I0J-75000D01*
G01*
G37*
%TD.AperFunction*%
%TO.P,U3,46*%
%TO.N,Net-(U3-Pad46)*%
%TA.AperFunction,SMDPad,CuDef*%
G36*
G01*
X-17300000Y-35000000D02*
X-17300000Y-36325000D01*
G75*
G02*
X-17375000Y-36400000I-75000J0D01*
G01*
X-17525000Y-36400000D01*
G75*
G02*
X-17600000Y-36325000I0J75000D01*
G01*
X-17600000Y-35000000D01*
G75*
G02*
X-17525000Y-34925000I75000J0D01*
G01*
X-17375000Y-34925000D01*
G75*
G02*
X-17300000Y-35000000I0J-75000D01*
G01*
G37*
%TD.AperFunction*%
%TO.P,U3,45*%
%TO.N,Net-(U3-Pad45)*%
%TA.AperFunction,SMDPad,CuDef*%
G36*
G01*
X-17800000Y-35000000D02*
X-17800000Y-36325000D01*
G75*
G02*
X-17875000Y-36400000I-75000J0D01*
G01*
X-18025000Y-36400000D01*
G75*
G02*
X-18100000Y-36325000I0J75000D01*
G01*
X-18100000Y-35000000D01*
G75*
G02*
X-18025000Y-34925000I75000J0D01*
G01*
X-17875000Y-34925000D01*
G75*
G02*
X-17800000Y-35000000I0J-75000D01*
G01*
G37*
%TD.AperFunction*%
%TO.P,U3,44*%
%TO.N,/BOOT0*%
%TA.AperFunction,SMDPad,CuDef*%
G36*
G01*
X-18300000Y-35000000D02*
X-18300000Y-36325000D01*
G75*
G02*
X-18375000Y-36400000I-75000J0D01*
G01*
X-18525000Y-36400000D01*
G75*
G02*
X-18600000Y-36325000I0J75000D01*
G01*
X-18600000Y-35000000D01*
G75*
G02*
X-18525000Y-34925000I75000J0D01*
G01*
X-18375000Y-34925000D01*
G75*
G02*
X-18300000Y-35000000I0J-75000D01*
G01*
G37*
%TD.AperFunction*%
%TO.P,U3,43*%
%TO.N,Net-(U3-Pad43)*%
%TA.AperFunction,SMDPad,CuDef*%
G36*
G01*
X-18800000Y-35000000D02*
X-18800000Y-36325000D01*
G75*
G02*
X-18875000Y-36400000I-75000J0D01*
G01*
X-19025000Y-36400000D01*
G75*
G02*
X-19100000Y-36325000I0J75000D01*
G01*
X-19100000Y-35000000D01*
G75*
G02*
X-19025000Y-34925000I75000J0D01*
G01*
X-18875000Y-34925000D01*
G75*
G02*
X-18800000Y-35000000I0J-75000D01*
G01*
G37*
%TD.AperFunction*%
%TO.P,U3,42*%
%TO.N,Net-(U3-Pad42)*%
%TA.AperFunction,SMDPad,CuDef*%
G36*
G01*
X-19300000Y-35000000D02*
X-19300000Y-36325000D01*
G75*
G02*
X-19375000Y-36400000I-75000J0D01*
G01*
X-19525000Y-36400000D01*
G75*
G02*
X-19600000Y-36325000I0J75000D01*
G01*
X-19600000Y-35000000D01*
G75*
G02*
X-19525000Y-34925000I75000J0D01*
G01*
X-19375000Y-34925000D01*
G75*
G02*
X-19300000Y-35000000I0J-75000D01*
G01*
G37*
%TD.AperFunction*%
%TO.P,U3,41*%
%TO.N,ERROR_LED*%
%TA.AperFunction,SMDPad,CuDef*%
G36*
G01*
X-19800000Y-35000000D02*
X-19800000Y-36325000D01*
G75*
G02*
X-19875000Y-36400000I-75000J0D01*
G01*
X-20025000Y-36400000D01*
G75*
G02*
X-20100000Y-36325000I0J75000D01*
G01*
X-20100000Y-35000000D01*
G75*
G02*
X-20025000Y-34925000I75000J0D01*
G01*
X-19875000Y-34925000D01*
G75*
G02*
X-19800000Y-35000000I0J-75000D01*
G01*
G37*
%TD.AperFunction*%
%TO.P,U3,40*%
%TO.N,SPI_LED*%
%TA.AperFunction,SMDPad,CuDef*%
G36*
G01*
X-20300000Y-35000000D02*
X-20300000Y-36325000D01*
G75*
G02*
X-20375000Y-36400000I-75000J0D01*
G01*
X-20525000Y-36400000D01*
G75*
G02*
X-20600000Y-36325000I0J75000D01*
G01*
X-20600000Y-35000000D01*
G75*
G02*
X-20525000Y-34925000I75000J0D01*
G01*
X-20375000Y-34925000D01*
G75*
G02*
X-20300000Y-35000000I0J-75000D01*
G01*
G37*
%TD.AperFunction*%
%TO.P,U3,39*%
%TO.N,CAN_LED*%
%TA.AperFunction,SMDPad,CuDef*%
G36*
G01*
X-20800000Y-35000000D02*
X-20800000Y-36325000D01*
G75*
G02*
X-20875000Y-36400000I-75000J0D01*
G01*
X-21025000Y-36400000D01*
G75*
G02*
X-21100000Y-36325000I0J75000D01*
G01*
X-21100000Y-35000000D01*
G75*
G02*
X-21025000Y-34925000I75000J0D01*
G01*
X-20875000Y-34925000D01*
G75*
G02*
X-20800000Y-35000000I0J-75000D01*
G01*
G37*
%TD.AperFunction*%
%TO.P,U3,38*%
%TO.N,Net-(TP1-Pad1)*%
%TA.AperFunction,SMDPad,CuDef*%
G36*
G01*
X-21300000Y-35000000D02*
X-21300000Y-36325000D01*
G75*
G02*
X-21375000Y-36400000I-75000J0D01*
G01*
X-21525000Y-36400000D01*
G75*
G02*
X-21600000Y-36325000I0J75000D01*
G01*
X-21600000Y-35000000D01*
G75*
G02*
X-21525000Y-34925000I75000J0D01*
G01*
X-21375000Y-34925000D01*
G75*
G02*
X-21300000Y-35000000I0J-75000D01*
G01*
G37*
%TD.AperFunction*%
%TO.P,U3,37*%
%TO.N,/SWCLK*%
%TA.AperFunction,SMDPad,CuDef*%
G36*
G01*
X-21800000Y-35000000D02*
X-21800000Y-36325000D01*
G75*
G02*
X-21875000Y-36400000I-75000J0D01*
G01*
X-22025000Y-36400000D01*
G75*
G02*
X-22100000Y-36325000I0J75000D01*
G01*
X-22100000Y-35000000D01*
G75*
G02*
X-22025000Y-34925000I75000J0D01*
G01*
X-21875000Y-34925000D01*
G75*
G02*
X-21800000Y-35000000I0J-75000D01*
G01*
G37*
%TD.AperFunction*%
%TO.P,U3,36*%
%TO.N,+3V3*%
%TA.AperFunction,SMDPad,CuDef*%
G36*
G01*
X-22625000Y-34175000D02*
X-22625000Y-34325000D01*
G75*
G02*
X-22700000Y-34400000I-75000J0D01*
G01*
X-24025000Y-34400000D01*
G75*
G02*
X-24100000Y-34325000I0J75000D01*
G01*
X-24100000Y-34175000D01*
G75*
G02*
X-24025000Y-34100000I75000J0D01*
G01*
X-22700000Y-34100000D01*
G75*
G02*
X-22625000Y-34175000I0J-75000D01*
G01*
G37*
%TD.AperFunction*%
%TO.P,U3,35*%
%TO.N,GND*%
%TA.AperFunction,SMDPad,CuDef*%
G36*
G01*
X-22625000Y-33675000D02*
X-22625000Y-33825000D01*
G75*
G02*
X-22700000Y-33900000I-75000J0D01*
G01*
X-24025000Y-33900000D01*
G75*
G02*
X-24100000Y-33825000I0J75000D01*
G01*
X-24100000Y-33675000D01*
G75*
G02*
X-24025000Y-33600000I75000J0D01*
G01*
X-22700000Y-33600000D01*
G75*
G02*
X-22625000Y-33675000I0J-75000D01*
G01*
G37*
%TD.AperFunction*%
%TO.P,U3,34*%
%TO.N,/SWDIO*%
%TA.AperFunction,SMDPad,CuDef*%
G36*
G01*
X-22625000Y-33175000D02*
X-22625000Y-33325000D01*
G75*
G02*
X-22700000Y-33400000I-75000J0D01*
G01*
X-24025000Y-33400000D01*
G75*
G02*
X-24100000Y-33325000I0J75000D01*
G01*
X-24100000Y-33175000D01*
G75*
G02*
X-24025000Y-33100000I75000J0D01*
G01*
X-22700000Y-33100000D01*
G75*
G02*
X-22625000Y-33175000I0J-75000D01*
G01*
G37*
%TD.AperFunction*%
%TO.P,U3,33*%
%TO.N,CAN_TX*%
%TA.AperFunction,SMDPad,CuDef*%
G36*
G01*
X-22625000Y-32675000D02*
X-22625000Y-32825000D01*
G75*
G02*
X-22700000Y-32900000I-75000J0D01*
G01*
X-24025000Y-32900000D01*
G75*
G02*
X-24100000Y-32825000I0J75000D01*
G01*
X-24100000Y-32675000D01*
G75*
G02*
X-24025000Y-32600000I75000J0D01*
G01*
X-22700000Y-32600000D01*
G75*
G02*
X-22625000Y-32675000I0J-75000D01*
G01*
G37*
%TD.AperFunction*%
%TO.P,U3,32*%
%TO.N,CAN_RX*%
%TA.AperFunction,SMDPad,CuDef*%
G36*
G01*
X-22625000Y-32175000D02*
X-22625000Y-32325000D01*
G75*
G02*
X-22700000Y-32400000I-75000J0D01*
G01*
X-24025000Y-32400000D01*
G75*
G02*
X-24100000Y-32325000I0J75000D01*
G01*
X-24100000Y-32175000D01*
G75*
G02*
X-24025000Y-32100000I75000J0D01*
G01*
X-22700000Y-32100000D01*
G75*
G02*
X-22625000Y-32175000I0J-75000D01*
G01*
G37*
%TD.AperFunction*%
%TO.P,U3,31*%
%TO.N,CAN_TERM*%
%TA.AperFunction,SMDPad,CuDef*%
G36*
G01*
X-22625000Y-31675000D02*
X-22625000Y-31825000D01*
G75*
G02*
X-22700000Y-31900000I-75000J0D01*
G01*
X-24025000Y-31900000D01*
G75*
G02*
X-24100000Y-31825000I0J75000D01*
G01*
X-24100000Y-31675000D01*
G75*
G02*
X-24025000Y-31600000I75000J0D01*
G01*
X-22700000Y-31600000D01*
G75*
G02*
X-22625000Y-31675000I0J-75000D01*
G01*
G37*
%TD.AperFunction*%
%TO.P,U3,30*%
%TO.N,Net-(U3-Pad30)*%
%TA.AperFunction,SMDPad,CuDef*%
G36*
G01*
X-22625000Y-31175000D02*
X-22625000Y-31325000D01*
G75*
G02*
X-22700000Y-31400000I-75000J0D01*
G01*
X-24025000Y-31400000D01*
G75*
G02*
X-24100000Y-31325000I0J75000D01*
G01*
X-24100000Y-31175000D01*
G75*
G02*
X-24025000Y-31100000I75000J0D01*
G01*
X-22700000Y-31100000D01*
G75*
G02*
X-22625000Y-31175000I0J-75000D01*
G01*
G37*
%TD.AperFunction*%
%TO.P,U3,29*%
%TO.N,STM_CS*%
%TA.AperFunction,SMDPad,CuDef*%
G36*
G01*
X-22625000Y-30675000D02*
X-22625000Y-30825000D01*
G75*
G02*
X-22700000Y-30900000I-75000J0D01*
G01*
X-24025000Y-30900000D01*
G75*
G02*
X-24100000Y-30825000I0J75000D01*
G01*
X-24100000Y-30675000D01*
G75*
G02*
X-24025000Y-30600000I75000J0D01*
G01*
X-22700000Y-30600000D01*
G75*
G02*
X-22625000Y-30675000I0J-75000D01*
G01*
G37*
%TD.AperFunction*%
%TO.P,U3,28*%
%TO.N,MOSI*%
%TA.AperFunction,SMDPad,CuDef*%
G36*
G01*
X-22625000Y-30175000D02*
X-22625000Y-30325000D01*
G75*
G02*
X-22700000Y-30400000I-75000J0D01*
G01*
X-24025000Y-30400000D01*
G75*
G02*
X-24100000Y-30325000I0J75000D01*
G01*
X-24100000Y-30175000D01*
G75*
G02*
X-24025000Y-30100000I75000J0D01*
G01*
X-22700000Y-30100000D01*
G75*
G02*
X-22625000Y-30175000I0J-75000D01*
G01*
G37*
%TD.AperFunction*%
%TO.P,U3,27*%
%TO.N,MISO*%
%TA.AperFunction,SMDPad,CuDef*%
G36*
G01*
X-22625000Y-29675000D02*
X-22625000Y-29825000D01*
G75*
G02*
X-22700000Y-29900000I-75000J0D01*
G01*
X-24025000Y-29900000D01*
G75*
G02*
X-24100000Y-29825000I0J75000D01*
G01*
X-24100000Y-29675000D01*
G75*
G02*
X-24025000Y-29600000I75000J0D01*
G01*
X-22700000Y-29600000D01*
G75*
G02*
X-22625000Y-29675000I0J-75000D01*
G01*
G37*
%TD.AperFunction*%
%TO.P,U3,26*%
%TO.N,SCLK*%
%TA.AperFunction,SMDPad,CuDef*%
G36*
G01*
X-22625000Y-29175000D02*
X-22625000Y-29325000D01*
G75*
G02*
X-22700000Y-29400000I-75000J0D01*
G01*
X-24025000Y-29400000D01*
G75*
G02*
X-24100000Y-29325000I0J75000D01*
G01*
X-24100000Y-29175000D01*
G75*
G02*
X-24025000Y-29100000I75000J0D01*
G01*
X-22700000Y-29100000D01*
G75*
G02*
X-22625000Y-29175000I0J-75000D01*
G01*
G37*
%TD.AperFunction*%
%TO.P,U3,25*%
%TO.N,STM_RDY*%
%TA.AperFunction,SMDPad,CuDef*%
G36*
G01*
X-22625000Y-28675000D02*
X-22625000Y-28825000D01*
G75*
G02*
X-22700000Y-28900000I-75000J0D01*
G01*
X-24025000Y-28900000D01*
G75*
G02*
X-24100000Y-28825000I0J75000D01*
G01*
X-24100000Y-28675000D01*
G75*
G02*
X-24025000Y-28600000I75000J0D01*
G01*
X-22700000Y-28600000D01*
G75*
G02*
X-22625000Y-28675000I0J-75000D01*
G01*
G37*
%TD.AperFunction*%
%TO.P,U3,24*%
%TO.N,+3V3*%
%TA.AperFunction,SMDPad,CuDef*%
G36*
G01*
X-21800000Y-26675000D02*
X-21800000Y-28000000D01*
G75*
G02*
X-21875000Y-28075000I-75000J0D01*
G01*
X-22025000Y-28075000D01*
G75*
G02*
X-22100000Y-28000000I0J75000D01*
G01*
X-22100000Y-26675000D01*
G75*
G02*
X-22025000Y-26600000I75000J0D01*
G01*
X-21875000Y-26600000D01*
G75*
G02*
X-21800000Y-26675000I0J-75000D01*
G01*
G37*
%TD.AperFunction*%
%TO.P,U3,23*%
%TO.N,GND*%
%TA.AperFunction,SMDPad,CuDef*%
G36*
G01*
X-21300000Y-26675000D02*
X-21300000Y-28000000D01*
G75*
G02*
X-21375000Y-28075000I-75000J0D01*
G01*
X-21525000Y-28075000D01*
G75*
G02*
X-21600000Y-28000000I0J75000D01*
G01*
X-21600000Y-26675000D01*
G75*
G02*
X-21525000Y-26600000I75000J0D01*
G01*
X-21375000Y-26600000D01*
G75*
G02*
X-21300000Y-26675000I0J-75000D01*
G01*
G37*
%TD.AperFunction*%
%TO.P,U3,22*%
%TO.N,Net-(U3-Pad22)*%
%TA.AperFunction,SMDPad,CuDef*%
G36*
G01*
X-20800000Y-26675000D02*
X-20800000Y-28000000D01*
G75*
G02*
X-20875000Y-28075000I-75000J0D01*
G01*
X-21025000Y-28075000D01*
G75*
G02*
X-21100000Y-28000000I0J75000D01*
G01*
X-21100000Y-26675000D01*
G75*
G02*
X-21025000Y-26600000I75000J0D01*
G01*
X-20875000Y-26600000D01*
G75*
G02*
X-20800000Y-26675000I0J-75000D01*
G01*
G37*
%TD.AperFunction*%
%TO.P,U3,21*%
%TO.N,Net-(U3-Pad21)*%
%TA.AperFunction,SMDPad,CuDef*%
G36*
G01*
X-20300000Y-26675000D02*
X-20300000Y-28000000D01*
G75*
G02*
X-20375000Y-28075000I-75000J0D01*
G01*
X-20525000Y-28075000D01*
G75*
G02*
X-20600000Y-28000000I0J75000D01*
G01*
X-20600000Y-26675000D01*
G75*
G02*
X-20525000Y-26600000I75000J0D01*
G01*
X-20375000Y-26600000D01*
G75*
G02*
X-20300000Y-26675000I0J-75000D01*
G01*
G37*
%TD.AperFunction*%
%TO.P,U3,20*%
%TO.N,V_B2*%
%TA.AperFunction,SMDPad,CuDef*%
G36*
G01*
X-19800000Y-26675000D02*
X-19800000Y-28000000D01*
G75*
G02*
X-19875000Y-28075000I-75000J0D01*
G01*
X-20025000Y-28075000D01*
G75*
G02*
X-20100000Y-28000000I0J75000D01*
G01*
X-20100000Y-26675000D01*
G75*
G02*
X-20025000Y-26600000I75000J0D01*
G01*
X-19875000Y-26600000D01*
G75*
G02*
X-19800000Y-26675000I0J-75000D01*
G01*
G37*
%TD.AperFunction*%
%TO.P,U3,19*%
%TO.N,V_B1*%
%TA.AperFunction,SMDPad,CuDef*%
G36*
G01*
X-19300000Y-26675000D02*
X-19300000Y-28000000D01*
G75*
G02*
X-19375000Y-28075000I-75000J0D01*
G01*
X-19525000Y-28075000D01*
G75*
G02*
X-19600000Y-28000000I0J75000D01*
G01*
X-19600000Y-26675000D01*
G75*
G02*
X-19525000Y-26600000I75000J0D01*
G01*
X-19375000Y-26600000D01*
G75*
G02*
X-19300000Y-26675000I0J-75000D01*
G01*
G37*
%TD.AperFunction*%
%TO.P,U3,18*%
%TO.N,V_B0*%
%TA.AperFunction,SMDPad,CuDef*%
G36*
G01*
X-18800000Y-26675000D02*
X-18800000Y-28000000D01*
G75*
G02*
X-18875000Y-28075000I-75000J0D01*
G01*
X-19025000Y-28075000D01*
G75*
G02*
X-19100000Y-28000000I0J75000D01*
G01*
X-19100000Y-26675000D01*
G75*
G02*
X-19025000Y-26600000I75000J0D01*
G01*
X-18875000Y-26600000D01*
G75*
G02*
X-18800000Y-26675000I0J-75000D01*
G01*
G37*
%TD.AperFunction*%
%TO.P,U3,17*%
%TO.N,Net-(U3-Pad17)*%
%TA.AperFunction,SMDPad,CuDef*%
G36*
G01*
X-18300000Y-26675000D02*
X-18300000Y-28000000D01*
G75*
G02*
X-18375000Y-28075000I-75000J0D01*
G01*
X-18525000Y-28075000D01*
G75*
G02*
X-18600000Y-28000000I0J75000D01*
G01*
X-18600000Y-26675000D01*
G75*
G02*
X-18525000Y-26600000I75000J0D01*
G01*
X-18375000Y-26600000D01*
G75*
G02*
X-18300000Y-26675000I0J-75000D01*
G01*
G37*
%TD.AperFunction*%
%TO.P,U3,16*%
%TO.N,Net-(U3-Pad16)*%
%TA.AperFunction,SMDPad,CuDef*%
G36*
G01*
X-17800000Y-26675000D02*
X-17800000Y-28000000D01*
G75*
G02*
X-17875000Y-28075000I-75000J0D01*
G01*
X-18025000Y-28075000D01*
G75*
G02*
X-18100000Y-28000000I0J75000D01*
G01*
X-18100000Y-26675000D01*
G75*
G02*
X-18025000Y-26600000I75000J0D01*
G01*
X-17875000Y-26600000D01*
G75*
G02*
X-17800000Y-26675000I0J-75000D01*
G01*
G37*
%TD.AperFunction*%
%TO.P,U3,15*%
%TO.N,Net-(U3-Pad15)*%
%TA.AperFunction,SMDPad,CuDef*%
G36*
G01*
X-17300000Y-26675000D02*
X-17300000Y-28000000D01*
G75*
G02*
X-17375000Y-28075000I-75000J0D01*
G01*
X-17525000Y-28075000D01*
G75*
G02*
X-17600000Y-28000000I0J75000D01*
G01*
X-17600000Y-26675000D01*
G75*
G02*
X-17525000Y-26600000I75000J0D01*
G01*
X-17375000Y-26600000D01*
G75*
G02*
X-17300000Y-26675000I0J-75000D01*
G01*
G37*
%TD.AperFunction*%
%TO.P,U3,14*%
%TO.N,DAC*%
%TA.AperFunction,SMDPad,CuDef*%
G36*
G01*
X-16800000Y-26675000D02*
X-16800000Y-28000000D01*
G75*
G02*
X-16875000Y-28075000I-75000J0D01*
G01*
X-17025000Y-28075000D01*
G75*
G02*
X-17100000Y-28000000I0J75000D01*
G01*
X-17100000Y-26675000D01*
G75*
G02*
X-17025000Y-26600000I75000J0D01*
G01*
X-16875000Y-26600000D01*
G75*
G02*
X-16800000Y-26675000I0J-75000D01*
G01*
G37*
%TD.AperFunction*%
%TO.P,U3,13*%
%TO.N,Net-(U3-Pad13)*%
%TA.AperFunction,SMDPad,CuDef*%
G36*
G01*
X-16300000Y-26675000D02*
X-16300000Y-28000000D01*
G75*
G02*
X-16375000Y-28075000I-75000J0D01*
G01*
X-16525000Y-28075000D01*
G75*
G02*
X-16600000Y-28000000I0J75000D01*
G01*
X-16600000Y-26675000D01*
G75*
G02*
X-16525000Y-26600000I75000J0D01*
G01*
X-16375000Y-26600000D01*
G75*
G02*
X-16300000Y-26675000I0J-75000D01*
G01*
G37*
%TD.AperFunction*%
%TO.P,U3,12*%
%TO.N,Net-(U3-Pad12)*%
%TA.AperFunction,SMDPad,CuDef*%
G36*
G01*
X-14300000Y-28675000D02*
X-14300000Y-28825000D01*
G75*
G02*
X-14375000Y-28900000I-75000J0D01*
G01*
X-15700000Y-28900000D01*
G75*
G02*
X-15775000Y-28825000I0J75000D01*
G01*
X-15775000Y-28675000D01*
G75*
G02*
X-15700000Y-28600000I75000J0D01*
G01*
X-14375000Y-28600000D01*
G75*
G02*
X-14300000Y-28675000I0J-75000D01*
G01*
G37*
%TD.AperFunction*%
%TO.P,U3,11*%
%TO.N,Net-(U3-Pad11)*%
%TA.AperFunction,SMDPad,CuDef*%
G36*
G01*
X-14300000Y-29175000D02*
X-14300000Y-29325000D01*
G75*
G02*
X-14375000Y-29400000I-75000J0D01*
G01*
X-15700000Y-29400000D01*
G75*
G02*
X-15775000Y-29325000I0J75000D01*
G01*
X-15775000Y-29175000D01*
G75*
G02*
X-15700000Y-29100000I75000J0D01*
G01*
X-14375000Y-29100000D01*
G75*
G02*
X-14300000Y-29175000I0J-75000D01*
G01*
G37*
%TD.AperFunction*%
%TO.P,U3,10*%
%TO.N,Net-(U3-Pad10)*%
%TA.AperFunction,SMDPad,CuDef*%
G36*
G01*
X-14300000Y-29675000D02*
X-14300000Y-29825000D01*
G75*
G02*
X-14375000Y-29900000I-75000J0D01*
G01*
X-15700000Y-29900000D01*
G75*
G02*
X-15775000Y-29825000I0J75000D01*
G01*
X-15775000Y-29675000D01*
G75*
G02*
X-15700000Y-29600000I75000J0D01*
G01*
X-14375000Y-29600000D01*
G75*
G02*
X-14300000Y-29675000I0J-75000D01*
G01*
G37*
%TD.AperFunction*%
%TO.P,U3,9*%
%TO.N,VDDA*%
%TA.AperFunction,SMDPad,CuDef*%
G36*
G01*
X-14300000Y-30175000D02*
X-14300000Y-30325000D01*
G75*
G02*
X-14375000Y-30400000I-75000J0D01*
G01*
X-15700000Y-30400000D01*
G75*
G02*
X-15775000Y-30325000I0J75000D01*
G01*
X-15775000Y-30175000D01*
G75*
G02*
X-15700000Y-30100000I75000J0D01*
G01*
X-14375000Y-30100000D01*
G75*
G02*
X-14300000Y-30175000I0J-75000D01*
G01*
G37*
%TD.AperFunction*%
%TO.P,U3,8*%
%TO.N,GNDA*%
%TA.AperFunction,SMDPad,CuDef*%
G36*
G01*
X-14300000Y-30675000D02*
X-14300000Y-30825000D01*
G75*
G02*
X-14375000Y-30900000I-75000J0D01*
G01*
X-15700000Y-30900000D01*
G75*
G02*
X-15775000Y-30825000I0J75000D01*
G01*
X-15775000Y-30675000D01*
G75*
G02*
X-15700000Y-30600000I75000J0D01*
G01*
X-14375000Y-30600000D01*
G75*
G02*
X-14300000Y-30675000I0J-75000D01*
G01*
G37*
%TD.AperFunction*%
%TO.P,U3,7*%
%TO.N,STM_RESET*%
%TA.AperFunction,SMDPad,CuDef*%
G36*
G01*
X-14300000Y-31175000D02*
X-14300000Y-31325000D01*
G75*
G02*
X-14375000Y-31400000I-75000J0D01*
G01*
X-15700000Y-31400000D01*
G75*
G02*
X-15775000Y-31325000I0J75000D01*
G01*
X-15775000Y-31175000D01*
G75*
G02*
X-15700000Y-31100000I75000J0D01*
G01*
X-14375000Y-31100000D01*
G75*
G02*
X-14300000Y-31175000I0J-75000D01*
G01*
G37*
%TD.AperFunction*%
%TO.P,U3,6*%
%TO.N,/XOUT*%
%TA.AperFunction,SMDPad,CuDef*%
G36*
G01*
X-14300000Y-31675000D02*
X-14300000Y-31825000D01*
G75*
G02*
X-14375000Y-31900000I-75000J0D01*
G01*
X-15700000Y-31900000D01*
G75*
G02*
X-15775000Y-31825000I0J75000D01*
G01*
X-15775000Y-31675000D01*
G75*
G02*
X-15700000Y-31600000I75000J0D01*
G01*
X-14375000Y-31600000D01*
G75*
G02*
X-14300000Y-31675000I0J-75000D01*
G01*
G37*
%TD.AperFunction*%
%TO.P,U3,5*%
%TO.N,/XIN*%
%TA.AperFunction,SMDPad,CuDef*%
G36*
G01*
X-14300000Y-32175000D02*
X-14300000Y-32325000D01*
G75*
G02*
X-14375000Y-32400000I-75000J0D01*
G01*
X-15700000Y-32400000D01*
G75*
G02*
X-15775000Y-32325000I0J75000D01*
G01*
X-15775000Y-32175000D01*
G75*
G02*
X-15700000Y-32100000I75000J0D01*
G01*
X-14375000Y-32100000D01*
G75*
G02*
X-14300000Y-32175000I0J-75000D01*
G01*
G37*
%TD.AperFunction*%
%TO.P,U3,4*%
%TO.N,Net-(U3-Pad4)*%
%TA.AperFunction,SMDPad,CuDef*%
G36*
G01*
X-14300000Y-32675000D02*
X-14300000Y-32825000D01*
G75*
G02*
X-14375000Y-32900000I-75000J0D01*
G01*
X-15700000Y-32900000D01*
G75*
G02*
X-15775000Y-32825000I0J75000D01*
G01*
X-15775000Y-32675000D01*
G75*
G02*
X-15700000Y-32600000I75000J0D01*
G01*
X-14375000Y-32600000D01*
G75*
G02*
X-14300000Y-32675000I0J-75000D01*
G01*
G37*
%TD.AperFunction*%
%TO.P,U3,3*%
%TO.N,Net-(U3-Pad3)*%
%TA.AperFunction,SMDPad,CuDef*%
G36*
G01*
X-14300000Y-33175000D02*
X-14300000Y-33325000D01*
G75*
G02*
X-14375000Y-33400000I-75000J0D01*
G01*
X-15700000Y-33400000D01*
G75*
G02*
X-15775000Y-33325000I0J75000D01*
G01*
X-15775000Y-33175000D01*
G75*
G02*
X-15700000Y-33100000I75000J0D01*
G01*
X-14375000Y-33100000D01*
G75*
G02*
X-14300000Y-33175000I0J-75000D01*
G01*
G37*
%TD.AperFunction*%
%TO.P,U3,2*%
%TO.N,Net-(U3-Pad2)*%
%TA.AperFunction,SMDPad,CuDef*%
G36*
G01*
X-14300000Y-33675000D02*
X-14300000Y-33825000D01*
G75*
G02*
X-14375000Y-33900000I-75000J0D01*
G01*
X-15700000Y-33900000D01*
G75*
G02*
X-15775000Y-33825000I0J75000D01*
G01*
X-15775000Y-33675000D01*
G75*
G02*
X-15700000Y-33600000I75000J0D01*
G01*
X-14375000Y-33600000D01*
G75*
G02*
X-14300000Y-33675000I0J-75000D01*
G01*
G37*
%TD.AperFunction*%
%TO.P,U3,1*%
%TO.N,+3V3*%
%TA.AperFunction,SMDPad,CuDef*%
G36*
G01*
X-14300000Y-34175000D02*
X-14300000Y-34325000D01*
G75*
G02*
X-14375000Y-34400000I-75000J0D01*
G01*
X-15700000Y-34400000D01*
G75*
G02*
X-15775000Y-34325000I0J75000D01*
G01*
X-15775000Y-34175000D01*
G75*
G02*
X-15700000Y-34100000I75000J0D01*
G01*
X-14375000Y-34100000D01*
G75*
G02*
X-14300000Y-34175000I0J-75000D01*
G01*
G37*
%TD.AperFunction*%
%TD*%
%TO.P,FB1,2*%
%TO.N,VDDA*%
%TA.AperFunction,SMDPad,CuDef*%
G36*
G01*
X-10650000Y-28006250D02*
X-10650000Y-27493750D01*
G75*
G02*
X-10431250Y-27275000I218750J0D01*
G01*
X-9993750Y-27275000D01*
G75*
G02*
X-9775000Y-27493750I0J-218750D01*
G01*
X-9775000Y-28006250D01*
G75*
G02*
X-9993750Y-28225000I-218750J0D01*
G01*
X-10431250Y-28225000D01*
G75*
G02*
X-10650000Y-28006250I0J218750D01*
G01*
G37*
%TD.AperFunction*%
%TO.P,FB1,1*%
%TO.N,+3V3*%
%TA.AperFunction,SMDPad,CuDef*%
G36*
G01*
X-12225000Y-28006250D02*
X-12225000Y-27493750D01*
G75*
G02*
X-12006250Y-27275000I218750J0D01*
G01*
X-11568750Y-27275000D01*
G75*
G02*
X-11350000Y-27493750I0J-218750D01*
G01*
X-11350000Y-28006250D01*
G75*
G02*
X-11568750Y-28225000I-218750J0D01*
G01*
X-12006250Y-28225000D01*
G75*
G02*
X-12225000Y-28006250I0J218750D01*
G01*
G37*
%TD.AperFunction*%
%TD*%
%TO.P,J5,6*%
%TO.N,Net-(J5-Pad6)*%
X-48230000Y-17615000D03*
%TO.P,J5,5*%
%TO.N,GND*%
X-48230000Y-18885000D03*
%TO.P,J5,4*%
%TO.N,Net-(D6-Pad1)*%
X-49500000Y-17615000D03*
%TO.P,J5,3*%
%TO.N,/TXD*%
X-49500000Y-18885000D03*
%TO.P,J5,2*%
%TO.N,Net-(J5-Pad2)*%
X-50770000Y-17615000D03*
%TO.P,J5,1*%
%TO.N,Net-(J5-Pad1)*%
X-50770000Y-18885000D03*
%TD*%
D14*
%TO.P,Y1,3*%
%TO.N,Net-(R14-Pad2)*%
X-5200000Y-33050000D03*
%TO.P,Y1,2*%
%TO.N,GND*%
X-5200000Y-34250000D03*
%TO.P,Y1,1*%
%TO.N,Net-(R13-Pad2)*%
X-5200000Y-35450000D03*
%TD*%
D15*
%TO.P,U7,5*%
%TO.N,+5V*%
X-31350000Y-14575000D03*
%TO.P,U7,4*%
%TO.N,CAN_TERM*%
X-32650000Y-14575000D03*
%TO.P,U7,2*%
%TO.N,Net-(R26-Pad2)*%
X-32000000Y-12675000D03*
%TO.P,U7,3*%
%TO.N,GND*%
X-32650000Y-12675000D03*
%TO.P,U7,1*%
%TO.N,/CANL*%
X-31350000Y-12675000D03*
%TD*%
%TO.P,U6,8*%
%TO.N,Net-(R21-Pad1)*%
%TA.AperFunction,SMDPad,CuDef*%
G36*
G01*
X-29605000Y-18175000D02*
X-29905000Y-18175000D01*
G75*
G02*
X-30055000Y-18025000I0J150000D01*
G01*
X-30055000Y-16375000D01*
G75*
G02*
X-29905000Y-16225000I150000J0D01*
G01*
X-29605000Y-16225000D01*
G75*
G02*
X-29455000Y-16375000I0J-150000D01*
G01*
X-29455000Y-18025000D01*
G75*
G02*
X-29605000Y-18175000I-150000J0D01*
G01*
G37*
%TD.AperFunction*%
%TO.P,U6,7*%
%TO.N,/CANH*%
%TA.AperFunction,SMDPad,CuDef*%
G36*
G01*
X-28335000Y-18175000D02*
X-28635000Y-18175000D01*
G75*
G02*
X-28785000Y-18025000I0J150000D01*
G01*
X-28785000Y-16375000D01*
G75*
G02*
X-28635000Y-16225000I150000J0D01*
G01*
X-28335000Y-16225000D01*
G75*
G02*
X-28185000Y-16375000I0J-150000D01*
G01*
X-28185000Y-18025000D01*
G75*
G02*
X-28335000Y-18175000I-150000J0D01*
G01*
G37*
%TD.AperFunction*%
%TO.P,U6,6*%
%TO.N,/CANL*%
%TA.AperFunction,SMDPad,CuDef*%
G36*
G01*
X-27065000Y-18175000D02*
X-27365000Y-18175000D01*
G75*
G02*
X-27515000Y-18025000I0J150000D01*
G01*
X-27515000Y-16375000D01*
G75*
G02*
X-27365000Y-16225000I150000J0D01*
G01*
X-27065000Y-16225000D01*
G75*
G02*
X-26915000Y-16375000I0J-150000D01*
G01*
X-26915000Y-18025000D01*
G75*
G02*
X-27065000Y-18175000I-150000J0D01*
G01*
G37*
%TD.AperFunction*%
%TO.P,U6,5*%
%TO.N,Net-(U6-Pad5)*%
%TA.AperFunction,SMDPad,CuDef*%
G36*
G01*
X-25795000Y-18175000D02*
X-26095000Y-18175000D01*
G75*
G02*
X-26245000Y-18025000I0J150000D01*
G01*
X-26245000Y-16375000D01*
G75*
G02*
X-26095000Y-16225000I150000J0D01*
G01*
X-25795000Y-16225000D01*
G75*
G02*
X-25645000Y-16375000I0J-150000D01*
G01*
X-25645000Y-18025000D01*
G75*
G02*
X-25795000Y-18175000I-150000J0D01*
G01*
G37*
%TD.AperFunction*%
%TO.P,U6,4*%
%TO.N,CAN_RX*%
%TA.AperFunction,SMDPad,CuDef*%
G36*
G01*
X-25795000Y-23125000D02*
X-26095000Y-23125000D01*
G75*
G02*
X-26245000Y-22975000I0J150000D01*
G01*
X-26245000Y-21325000D01*
G75*
G02*
X-26095000Y-21175000I150000J0D01*
G01*
X-25795000Y-21175000D01*
G75*
G02*
X-25645000Y-21325000I0J-150000D01*
G01*
X-25645000Y-22975000D01*
G75*
G02*
X-25795000Y-23125000I-150000J0D01*
G01*
G37*
%TD.AperFunction*%
%TO.P,U6,3*%
%TO.N,/OA_PWR*%
%TA.AperFunction,SMDPad,CuDef*%
G36*
G01*
X-27065000Y-23125000D02*
X-27365000Y-23125000D01*
G75*
G02*
X-27515000Y-22975000I0J150000D01*
G01*
X-27515000Y-21325000D01*
G75*
G02*
X-27365000Y-21175000I150000J0D01*
G01*
X-27065000Y-21175000D01*
G75*
G02*
X-26915000Y-21325000I0J-150000D01*
G01*
X-26915000Y-22975000D01*
G75*
G02*
X-27065000Y-23125000I-150000J0D01*
G01*
G37*
%TD.AperFunction*%
%TO.P,U6,2*%
%TO.N,GND*%
%TA.AperFunction,SMDPad,CuDef*%
G36*
G01*
X-28335000Y-23125000D02*
X-28635000Y-23125000D01*
G75*
G02*
X-28785000Y-22975000I0J150000D01*
G01*
X-28785000Y-21325000D01*
G75*
G02*
X-28635000Y-21175000I150000J0D01*
G01*
X-28335000Y-21175000D01*
G75*
G02*
X-28185000Y-21325000I0J-150000D01*
G01*
X-28185000Y-22975000D01*
G75*
G02*
X-28335000Y-23125000I-150000J0D01*
G01*
G37*
%TD.AperFunction*%
%TO.P,U6,1*%
%TO.N,CAN_TX*%
%TA.AperFunction,SMDPad,CuDef*%
G36*
G01*
X-29605000Y-23125000D02*
X-29905000Y-23125000D01*
G75*
G02*
X-30055000Y-22975000I0J150000D01*
G01*
X-30055000Y-21325000D01*
G75*
G02*
X-29905000Y-21175000I150000J0D01*
G01*
X-29605000Y-21175000D01*
G75*
G02*
X-29455000Y-21325000I0J-150000D01*
G01*
X-29455000Y-22975000D01*
G75*
G02*
X-29605000Y-23125000I-150000J0D01*
G01*
G37*
%TD.AperFunction*%
%TD*%
D16*
%TO.P,U5,5*%
%TO.N,+5V*%
X-11700000Y-13975000D03*
%TO.P,U5,4*%
%TO.N,Net-(R18-Pad1)*%
X-11700000Y-15875000D03*
%TO.P,U5,3*%
%TO.N,DAC*%
X-13900000Y-15875000D03*
%TO.P,U5,2*%
%TO.N,GNDA*%
X-13900000Y-14925000D03*
%TO.P,U5,1*%
%TO.N,Net-(J6-Pad1)*%
X-13900000Y-13975000D03*
%TD*%
%TO.P,U2,5*%
%TO.N,+3V3*%
X-40300000Y-11500000D03*
%TO.P,U2,4*%
%TO.N,Net-(U2-Pad4)*%
X-40300000Y-13400000D03*
%TO.P,U2,3*%
%TO.N,+5V*%
X-42500000Y-13400000D03*
%TO.P,U2,2*%
%TO.N,GND*%
X-42500000Y-12450000D03*
%TO.P,U2,1*%
%TO.N,+5V*%
X-42500000Y-11500000D03*
%TD*%
D17*
%TO.P,U1,5*%
%TO.N,/Vin*%
X-55800000Y-13900000D03*
%TO.P,U1,6*%
%TO.N,Net-(C3-Pad1)*%
X-54850000Y-13900000D03*
%TO.P,U1,4*%
%TO.N,Net-(D2-Pad1)*%
X-56750000Y-13900000D03*
%TO.P,U1,3*%
%TO.N,Net-(C9-Pad2)*%
X-56750000Y-11700000D03*
%TO.P,U1,2*%
%TO.N,GND*%
X-55800000Y-11700000D03*
%TO.P,U1,1*%
%TO.N,Net-(C3-Pad2)*%
X-54850000Y-11700000D03*
%TD*%
D18*
%TO.P,TP1,1*%
%TO.N,Net-(TP1-Pad1)*%
X-24400000Y-38050000D03*
%TD*%
D19*
%TO.P,SW2,2*%
%TO.N,GPIO0*%
X-44000000Y-23900000D03*
%TO.P,SW2,1*%
%TO.N,GND*%
X-36200000Y-23900000D03*
%TD*%
%TO.P,SW1,2*%
%TO.N,ESP_RESET*%
X-52400000Y-41875000D03*
%TO.P,SW1,1*%
%TO.N,GND*%
X-44600000Y-41875000D03*
%TD*%
%TO.P,R26,2*%
%TO.N,Net-(R26-Pad2)*%
%TA.AperFunction,SMDPad,CuDef*%
G36*
G01*
X-24250000Y-13950000D02*
X-23700000Y-13950000D01*
G75*
G02*
X-23500000Y-14150000I0J-200000D01*
G01*
X-23500000Y-14550000D01*
G75*
G02*
X-23700000Y-14750000I-200000J0D01*
G01*
X-24250000Y-14750000D01*
G75*
G02*
X-24450000Y-14550000I0J200000D01*
G01*
X-24450000Y-14150000D01*
G75*
G02*
X-24250000Y-13950000I200000J0D01*
G01*
G37*
%TD.AperFunction*%
%TO.P,R26,1*%
%TO.N,/CANH*%
%TA.AperFunction,SMDPad,CuDef*%
G36*
G01*
X-24250000Y-12300000D02*
X-23700000Y-12300000D01*
G75*
G02*
X-23500000Y-12500000I0J-200000D01*
G01*
X-23500000Y-12900000D01*
G75*
G02*
X-23700000Y-13100000I-200000J0D01*
G01*
X-24250000Y-13100000D01*
G75*
G02*
X-24450000Y-12900000I0J200000D01*
G01*
X-24450000Y-12500000D01*
G75*
G02*
X-24250000Y-12300000I200000J0D01*
G01*
G37*
%TD.AperFunction*%
%TD*%
%TO.P,R25,2*%
%TO.N,Net-(D9-Pad1)*%
%TA.AperFunction,SMDPad,CuDef*%
G36*
G01*
X-23925000Y-40625000D02*
X-23925000Y-41175000D01*
G75*
G02*
X-24125000Y-41375000I-200000J0D01*
G01*
X-24525000Y-41375000D01*
G75*
G02*
X-24725000Y-41175000I0J200000D01*
G01*
X-24725000Y-40625000D01*
G75*
G02*
X-24525000Y-40425000I200000J0D01*
G01*
X-24125000Y-40425000D01*
G75*
G02*
X-23925000Y-40625000I0J-200000D01*
G01*
G37*
%TD.AperFunction*%
%TO.P,R25,1*%
%TO.N,GND*%
%TA.AperFunction,SMDPad,CuDef*%
G36*
G01*
X-22275000Y-40625000D02*
X-22275000Y-41175000D01*
G75*
G02*
X-22475000Y-41375000I-200000J0D01*
G01*
X-22875000Y-41375000D01*
G75*
G02*
X-23075000Y-41175000I0J200000D01*
G01*
X-23075000Y-40625000D01*
G75*
G02*
X-22875000Y-40425000I200000J0D01*
G01*
X-22475000Y-40425000D01*
G75*
G02*
X-22275000Y-40625000I0J-200000D01*
G01*
G37*
%TD.AperFunction*%
%TD*%
%TO.P,R24,2*%
%TO.N,Net-(D8-Pad1)*%
%TA.AperFunction,SMDPad,CuDef*%
G36*
G01*
X-28925000Y-40625000D02*
X-28925000Y-41175000D01*
G75*
G02*
X-29125000Y-41375000I-200000J0D01*
G01*
X-29525000Y-41375000D01*
G75*
G02*
X-29725000Y-41175000I0J200000D01*
G01*
X-29725000Y-40625000D01*
G75*
G02*
X-29525000Y-40425000I200000J0D01*
G01*
X-29125000Y-40425000D01*
G75*
G02*
X-28925000Y-40625000I0J-200000D01*
G01*
G37*
%TD.AperFunction*%
%TO.P,R24,1*%
%TO.N,GND*%
%TA.AperFunction,SMDPad,CuDef*%
G36*
G01*
X-27275000Y-40625000D02*
X-27275000Y-41175000D01*
G75*
G02*
X-27475000Y-41375000I-200000J0D01*
G01*
X-27875000Y-41375000D01*
G75*
G02*
X-28075000Y-41175000I0J200000D01*
G01*
X-28075000Y-40625000D01*
G75*
G02*
X-27875000Y-40425000I200000J0D01*
G01*
X-27475000Y-40425000D01*
G75*
G02*
X-27275000Y-40625000I0J-200000D01*
G01*
G37*
%TD.AperFunction*%
%TD*%
%TO.P,R23,2*%
%TO.N,Net-(D7-Pad1)*%
%TA.AperFunction,SMDPad,CuDef*%
G36*
G01*
X-33950000Y-40625000D02*
X-33950000Y-41175000D01*
G75*
G02*
X-34150000Y-41375000I-200000J0D01*
G01*
X-34550000Y-41375000D01*
G75*
G02*
X-34750000Y-41175000I0J200000D01*
G01*
X-34750000Y-40625000D01*
G75*
G02*
X-34550000Y-40425000I200000J0D01*
G01*
X-34150000Y-40425000D01*
G75*
G02*
X-33950000Y-40625000I0J-200000D01*
G01*
G37*
%TD.AperFunction*%
%TO.P,R23,1*%
%TO.N,GND*%
%TA.AperFunction,SMDPad,CuDef*%
G36*
G01*
X-32300000Y-40625000D02*
X-32300000Y-41175000D01*
G75*
G02*
X-32500000Y-41375000I-200000J0D01*
G01*
X-32900000Y-41375000D01*
G75*
G02*
X-33100000Y-41175000I0J200000D01*
G01*
X-33100000Y-40625000D01*
G75*
G02*
X-32900000Y-40425000I200000J0D01*
G01*
X-32500000Y-40425000D01*
G75*
G02*
X-32300000Y-40625000I0J-200000D01*
G01*
G37*
%TD.AperFunction*%
%TD*%
%TO.P,R22,2*%
%TO.N,GPIO0*%
%TA.AperFunction,SMDPad,CuDef*%
G36*
G01*
X-38075000Y-41175000D02*
X-38075000Y-40625000D01*
G75*
G02*
X-37875000Y-40425000I200000J0D01*
G01*
X-37475000Y-40425000D01*
G75*
G02*
X-37275000Y-40625000I0J-200000D01*
G01*
X-37275000Y-41175000D01*
G75*
G02*
X-37475000Y-41375000I-200000J0D01*
G01*
X-37875000Y-41375000D01*
G75*
G02*
X-38075000Y-41175000I0J200000D01*
G01*
G37*
%TD.AperFunction*%
%TO.P,R22,1*%
%TO.N,Net-(D10-Pad1)*%
%TA.AperFunction,SMDPad,CuDef*%
G36*
G01*
X-39725000Y-41175000D02*
X-39725000Y-40625000D01*
G75*
G02*
X-39525000Y-40425000I200000J0D01*
G01*
X-39125000Y-40425000D01*
G75*
G02*
X-38925000Y-40625000I0J-200000D01*
G01*
X-38925000Y-41175000D01*
G75*
G02*
X-39125000Y-41375000I-200000J0D01*
G01*
X-39525000Y-41375000D01*
G75*
G02*
X-39725000Y-41175000I0J200000D01*
G01*
G37*
%TD.AperFunction*%
%TD*%
%TO.P,R21,2*%
%TO.N,GND*%
%TA.AperFunction,SMDPad,CuDef*%
G36*
G01*
X-22225000Y-18500000D02*
X-22225000Y-17950000D01*
G75*
G02*
X-22025000Y-17750000I200000J0D01*
G01*
X-21625000Y-17750000D01*
G75*
G02*
X-21425000Y-17950000I0J-200000D01*
G01*
X-21425000Y-18500000D01*
G75*
G02*
X-21625000Y-18700000I-200000J0D01*
G01*
X-22025000Y-18700000D01*
G75*
G02*
X-22225000Y-18500000I0J200000D01*
G01*
G37*
%TD.AperFunction*%
%TO.P,R21,1*%
%TO.N,Net-(R21-Pad1)*%
%TA.AperFunction,SMDPad,CuDef*%
G36*
G01*
X-23875000Y-18500000D02*
X-23875000Y-17950000D01*
G75*
G02*
X-23675000Y-17750000I200000J0D01*
G01*
X-23275000Y-17750000D01*
G75*
G02*
X-23075000Y-17950000I0J-200000D01*
G01*
X-23075000Y-18500000D01*
G75*
G02*
X-23275000Y-18700000I-200000J0D01*
G01*
X-23675000Y-18700000D01*
G75*
G02*
X-23875000Y-18500000I0J200000D01*
G01*
G37*
%TD.AperFunction*%
%TD*%
%TO.P,R20,2*%
%TO.N,Net-(R18-Pad1)*%
%TA.AperFunction,SMDPad,CuDef*%
G36*
G01*
X-11375000Y-19950000D02*
X-10825000Y-19950000D01*
G75*
G02*
X-10625000Y-20150000I0J-200000D01*
G01*
X-10625000Y-20550000D01*
G75*
G02*
X-10825000Y-20750000I-200000J0D01*
G01*
X-11375000Y-20750000D01*
G75*
G02*
X-11575000Y-20550000I0J200000D01*
G01*
X-11575000Y-20150000D01*
G75*
G02*
X-11375000Y-19950000I200000J0D01*
G01*
G37*
%TD.AperFunction*%
%TO.P,R20,1*%
%TO.N,Net-(J6-Pad1)*%
%TA.AperFunction,SMDPad,CuDef*%
G36*
G01*
X-11375000Y-18300000D02*
X-10825000Y-18300000D01*
G75*
G02*
X-10625000Y-18500000I0J-200000D01*
G01*
X-10625000Y-18900000D01*
G75*
G02*
X-10825000Y-19100000I-200000J0D01*
G01*
X-11375000Y-19100000D01*
G75*
G02*
X-11575000Y-18900000I0J200000D01*
G01*
X-11575000Y-18500000D01*
G75*
G02*
X-11375000Y-18300000I200000J0D01*
G01*
G37*
%TD.AperFunction*%
%TD*%
%TO.P,R19,2*%
%TO.N,GNDA*%
%TA.AperFunction,SMDPad,CuDef*%
G36*
G01*
X-13625000Y-19100000D02*
X-14175000Y-19100000D01*
G75*
G02*
X-14375000Y-18900000I0J200000D01*
G01*
X-14375000Y-18500000D01*
G75*
G02*
X-14175000Y-18300000I200000J0D01*
G01*
X-13625000Y-18300000D01*
G75*
G02*
X-13425000Y-18500000I0J-200000D01*
G01*
X-13425000Y-18900000D01*
G75*
G02*
X-13625000Y-19100000I-200000J0D01*
G01*
G37*
%TD.AperFunction*%
%TO.P,R19,1*%
%TO.N,Net-(R18-Pad2)*%
%TA.AperFunction,SMDPad,CuDef*%
G36*
G01*
X-13625000Y-20750000D02*
X-14175000Y-20750000D01*
G75*
G02*
X-14375000Y-20550000I0J200000D01*
G01*
X-14375000Y-20150000D01*
G75*
G02*
X-14175000Y-19950000I200000J0D01*
G01*
X-13625000Y-19950000D01*
G75*
G02*
X-13425000Y-20150000I0J-200000D01*
G01*
X-13425000Y-20550000D01*
G75*
G02*
X-13625000Y-20750000I-200000J0D01*
G01*
G37*
%TD.AperFunction*%
%TD*%
%TO.P,R18,2*%
%TO.N,Net-(R18-Pad2)*%
%TA.AperFunction,SMDPad,CuDef*%
G36*
G01*
X-8575000Y-19950000D02*
X-8025000Y-19950000D01*
G75*
G02*
X-7825000Y-20150000I0J-200000D01*
G01*
X-7825000Y-20550000D01*
G75*
G02*
X-8025000Y-20750000I-200000J0D01*
G01*
X-8575000Y-20750000D01*
G75*
G02*
X-8775000Y-20550000I0J200000D01*
G01*
X-8775000Y-20150000D01*
G75*
G02*
X-8575000Y-19950000I200000J0D01*
G01*
G37*
%TD.AperFunction*%
%TO.P,R18,1*%
%TO.N,Net-(R18-Pad1)*%
%TA.AperFunction,SMDPad,CuDef*%
G36*
G01*
X-8575000Y-18300000D02*
X-8025000Y-18300000D01*
G75*
G02*
X-7825000Y-18500000I0J-200000D01*
G01*
X-7825000Y-18900000D01*
G75*
G02*
X-8025000Y-19100000I-200000J0D01*
G01*
X-8575000Y-19100000D01*
G75*
G02*
X-8775000Y-18900000I0J200000D01*
G01*
X-8775000Y-18500000D01*
G75*
G02*
X-8575000Y-18300000I200000J0D01*
G01*
G37*
%TD.AperFunction*%
%TD*%
%TO.P,R17,2*%
%TO.N,GND*%
%TA.AperFunction,SMDPad,CuDef*%
G36*
G01*
X-43075000Y-19875000D02*
X-43075000Y-19325000D01*
G75*
G02*
X-42875000Y-19125000I200000J0D01*
G01*
X-42475000Y-19125000D01*
G75*
G02*
X-42275000Y-19325000I0J-200000D01*
G01*
X-42275000Y-19875000D01*
G75*
G02*
X-42475000Y-20075000I-200000J0D01*
G01*
X-42875000Y-20075000D01*
G75*
G02*
X-43075000Y-19875000I0J200000D01*
G01*
G37*
%TD.AperFunction*%
%TO.P,R17,1*%
%TO.N,STM_CS*%
%TA.AperFunction,SMDPad,CuDef*%
G36*
G01*
X-44725000Y-19875000D02*
X-44725000Y-19325000D01*
G75*
G02*
X-44525000Y-19125000I200000J0D01*
G01*
X-44125000Y-19125000D01*
G75*
G02*
X-43925000Y-19325000I0J-200000D01*
G01*
X-43925000Y-19875000D01*
G75*
G02*
X-44125000Y-20075000I-200000J0D01*
G01*
X-44525000Y-20075000D01*
G75*
G02*
X-44725000Y-19875000I0J200000D01*
G01*
G37*
%TD.AperFunction*%
%TD*%
%TO.P,R16,2*%
%TO.N,STM_RESET*%
%TA.AperFunction,SMDPad,CuDef*%
G36*
G01*
X-10575000Y-38525000D02*
X-10575000Y-37975000D01*
G75*
G02*
X-10375000Y-37775000I200000J0D01*
G01*
X-9975000Y-37775000D01*
G75*
G02*
X-9775000Y-37975000I0J-200000D01*
G01*
X-9775000Y-38525000D01*
G75*
G02*
X-9975000Y-38725000I-200000J0D01*
G01*
X-10375000Y-38725000D01*
G75*
G02*
X-10575000Y-38525000I0J200000D01*
G01*
G37*
%TD.AperFunction*%
%TO.P,R16,1*%
%TO.N,+3V3*%
%TA.AperFunction,SMDPad,CuDef*%
G36*
G01*
X-12225000Y-38525000D02*
X-12225000Y-37975000D01*
G75*
G02*
X-12025000Y-37775000I200000J0D01*
G01*
X-11625000Y-37775000D01*
G75*
G02*
X-11425000Y-37975000I0J-200000D01*
G01*
X-11425000Y-38525000D01*
G75*
G02*
X-11625000Y-38725000I-200000J0D01*
G01*
X-12025000Y-38725000D01*
G75*
G02*
X-12225000Y-38525000I0J200000D01*
G01*
G37*
%TD.AperFunction*%
%TD*%
%TO.P,R15,2*%
%TO.N,CH_PD*%
%TA.AperFunction,SMDPad,CuDef*%
G36*
G01*
X-56975000Y-41425000D02*
X-57525000Y-41425000D01*
G75*
G02*
X-57725000Y-41225000I0J200000D01*
G01*
X-57725000Y-40825000D01*
G75*
G02*
X-57525000Y-40625000I200000J0D01*
G01*
X-56975000Y-40625000D01*
G75*
G02*
X-56775000Y-40825000I0J-200000D01*
G01*
X-56775000Y-41225000D01*
G75*
G02*
X-56975000Y-41425000I-200000J0D01*
G01*
G37*
%TD.AperFunction*%
%TO.P,R15,1*%
%TO.N,+3V3*%
%TA.AperFunction,SMDPad,CuDef*%
G36*
G01*
X-56975000Y-43075000D02*
X-57525000Y-43075000D01*
G75*
G02*
X-57725000Y-42875000I0J200000D01*
G01*
X-57725000Y-42475000D01*
G75*
G02*
X-57525000Y-42275000I200000J0D01*
G01*
X-56975000Y-42275000D01*
G75*
G02*
X-56775000Y-42475000I0J-200000D01*
G01*
X-56775000Y-42875000D01*
G75*
G02*
X-56975000Y-43075000I-200000J0D01*
G01*
G37*
%TD.AperFunction*%
%TD*%
%TO.P,R13,2*%
%TO.N,Net-(R13-Pad2)*%
%TA.AperFunction,SMDPad,CuDef*%
G36*
G01*
X-10575000Y-34525000D02*
X-10575000Y-33975000D01*
G75*
G02*
X-10375000Y-33775000I200000J0D01*
G01*
X-9975000Y-33775000D01*
G75*
G02*
X-9775000Y-33975000I0J-200000D01*
G01*
X-9775000Y-34525000D01*
G75*
G02*
X-9975000Y-34725000I-200000J0D01*
G01*
X-10375000Y-34725000D01*
G75*
G02*
X-10575000Y-34525000I0J200000D01*
G01*
G37*
%TD.AperFunction*%
%TO.P,R13,1*%
%TO.N,/XIN*%
%TA.AperFunction,SMDPad,CuDef*%
G36*
G01*
X-12225000Y-34525000D02*
X-12225000Y-33975000D01*
G75*
G02*
X-12025000Y-33775000I200000J0D01*
G01*
X-11625000Y-33775000D01*
G75*
G02*
X-11425000Y-33975000I0J-200000D01*
G01*
X-11425000Y-34525000D01*
G75*
G02*
X-11625000Y-34725000I-200000J0D01*
G01*
X-12025000Y-34725000D01*
G75*
G02*
X-12225000Y-34525000I0J200000D01*
G01*
G37*
%TD.AperFunction*%
%TD*%
%TO.P,R12,2*%
%TO.N,V_B0*%
%TA.AperFunction,SMDPad,CuDef*%
G36*
G01*
X-20625000Y-4075000D02*
X-20625000Y-3525000D01*
G75*
G02*
X-20425000Y-3325000I200000J0D01*
G01*
X-20025000Y-3325000D01*
G75*
G02*
X-19825000Y-3525000I0J-200000D01*
G01*
X-19825000Y-4075000D01*
G75*
G02*
X-20025000Y-4275000I-200000J0D01*
G01*
X-20425000Y-4275000D01*
G75*
G02*
X-20625000Y-4075000I0J200000D01*
G01*
G37*
%TD.AperFunction*%
%TO.P,R12,1*%
%TO.N,GND*%
%TA.AperFunction,SMDPad,CuDef*%
G36*
G01*
X-22275000Y-4075000D02*
X-22275000Y-3525000D01*
G75*
G02*
X-22075000Y-3325000I200000J0D01*
G01*
X-21675000Y-3325000D01*
G75*
G02*
X-21475000Y-3525000I0J-200000D01*
G01*
X-21475000Y-4075000D01*
G75*
G02*
X-21675000Y-4275000I-200000J0D01*
G01*
X-22075000Y-4275000D01*
G75*
G02*
X-22275000Y-4075000I0J200000D01*
G01*
G37*
%TD.AperFunction*%
%TD*%
%TO.P,R11,2*%
%TO.N,V_B1*%
%TA.AperFunction,SMDPad,CuDef*%
G36*
G01*
X-20625000Y-6925000D02*
X-20625000Y-6375000D01*
G75*
G02*
X-20425000Y-6175000I200000J0D01*
G01*
X-20025000Y-6175000D01*
G75*
G02*
X-19825000Y-6375000I0J-200000D01*
G01*
X-19825000Y-6925000D01*
G75*
G02*
X-20025000Y-7125000I-200000J0D01*
G01*
X-20425000Y-7125000D01*
G75*
G02*
X-20625000Y-6925000I0J200000D01*
G01*
G37*
%TD.AperFunction*%
%TO.P,R11,1*%
%TO.N,GND*%
%TA.AperFunction,SMDPad,CuDef*%
G36*
G01*
X-22275000Y-6925000D02*
X-22275000Y-6375000D01*
G75*
G02*
X-22075000Y-6175000I200000J0D01*
G01*
X-21675000Y-6175000D01*
G75*
G02*
X-21475000Y-6375000I0J-200000D01*
G01*
X-21475000Y-6925000D01*
G75*
G02*
X-21675000Y-7125000I-200000J0D01*
G01*
X-22075000Y-7125000D01*
G75*
G02*
X-22275000Y-6925000I0J200000D01*
G01*
G37*
%TD.AperFunction*%
%TD*%
%TO.P,R10,2*%
%TO.N,V_B2*%
%TA.AperFunction,SMDPad,CuDef*%
G36*
G01*
X-20625000Y-9750000D02*
X-20625000Y-9200000D01*
G75*
G02*
X-20425000Y-9000000I200000J0D01*
G01*
X-20025000Y-9000000D01*
G75*
G02*
X-19825000Y-9200000I0J-200000D01*
G01*
X-19825000Y-9750000D01*
G75*
G02*
X-20025000Y-9950000I-200000J0D01*
G01*
X-20425000Y-9950000D01*
G75*
G02*
X-20625000Y-9750000I0J200000D01*
G01*
G37*
%TD.AperFunction*%
%TO.P,R10,1*%
%TO.N,GND*%
%TA.AperFunction,SMDPad,CuDef*%
G36*
G01*
X-22275000Y-9750000D02*
X-22275000Y-9200000D01*
G75*
G02*
X-22075000Y-9000000I200000J0D01*
G01*
X-21675000Y-9000000D01*
G75*
G02*
X-21475000Y-9200000I0J-200000D01*
G01*
X-21475000Y-9750000D01*
G75*
G02*
X-21675000Y-9950000I-200000J0D01*
G01*
X-22075000Y-9950000D01*
G75*
G02*
X-22275000Y-9750000I0J200000D01*
G01*
G37*
%TD.AperFunction*%
%TD*%
%TO.P,R9,2*%
%TO.N,GPIO2*%
%TA.AperFunction,SMDPad,CuDef*%
G36*
G01*
X-40425000Y-19325000D02*
X-40425000Y-19875000D01*
G75*
G02*
X-40625000Y-20075000I-200000J0D01*
G01*
X-41025000Y-20075000D01*
G75*
G02*
X-41225000Y-19875000I0J200000D01*
G01*
X-41225000Y-19325000D01*
G75*
G02*
X-41025000Y-19125000I200000J0D01*
G01*
X-40625000Y-19125000D01*
G75*
G02*
X-40425000Y-19325000I0J-200000D01*
G01*
G37*
%TD.AperFunction*%
%TO.P,R9,1*%
%TO.N,+3V3*%
%TA.AperFunction,SMDPad,CuDef*%
G36*
G01*
X-38775000Y-19325000D02*
X-38775000Y-19875000D01*
G75*
G02*
X-38975000Y-20075000I-200000J0D01*
G01*
X-39375000Y-20075000D01*
G75*
G02*
X-39575000Y-19875000I0J200000D01*
G01*
X-39575000Y-19325000D01*
G75*
G02*
X-39375000Y-19125000I200000J0D01*
G01*
X-38975000Y-19125000D01*
G75*
G02*
X-38775000Y-19325000I0J-200000D01*
G01*
G37*
%TD.AperFunction*%
%TD*%
%TO.P,R8,2*%
%TO.N,Net-(JP2-Pad1)*%
%TA.AperFunction,SMDPad,CuDef*%
G36*
G01*
X-15575000Y-42225000D02*
X-15025000Y-42225000D01*
G75*
G02*
X-14825000Y-42425000I0J-200000D01*
G01*
X-14825000Y-42825000D01*
G75*
G02*
X-15025000Y-43025000I-200000J0D01*
G01*
X-15575000Y-43025000D01*
G75*
G02*
X-15775000Y-42825000I0J200000D01*
G01*
X-15775000Y-42425000D01*
G75*
G02*
X-15575000Y-42225000I200000J0D01*
G01*
G37*
%TD.AperFunction*%
%TO.P,R8,1*%
%TO.N,+3V3*%
%TA.AperFunction,SMDPad,CuDef*%
G36*
G01*
X-15575000Y-40575000D02*
X-15025000Y-40575000D01*
G75*
G02*
X-14825000Y-40775000I0J-200000D01*
G01*
X-14825000Y-41175000D01*
G75*
G02*
X-15025000Y-41375000I-200000J0D01*
G01*
X-15575000Y-41375000D01*
G75*
G02*
X-15775000Y-41175000I0J200000D01*
G01*
X-15775000Y-40775000D01*
G75*
G02*
X-15575000Y-40575000I200000J0D01*
G01*
G37*
%TD.AperFunction*%
%TD*%
%TO.P,R7,2*%
%TO.N,Net-(C9-Pad2)*%
%TA.AperFunction,SMDPad,CuDef*%
G36*
G01*
X-52325000Y-4025000D02*
X-52325000Y-4575000D01*
G75*
G02*
X-52525000Y-4775000I-200000J0D01*
G01*
X-52925000Y-4775000D01*
G75*
G02*
X-53125000Y-4575000I0J200000D01*
G01*
X-53125000Y-4025000D01*
G75*
G02*
X-52925000Y-3825000I200000J0D01*
G01*
X-52525000Y-3825000D01*
G75*
G02*
X-52325000Y-4025000I0J-200000D01*
G01*
G37*
%TD.AperFunction*%
%TO.P,R7,1*%
%TO.N,GND*%
%TA.AperFunction,SMDPad,CuDef*%
G36*
G01*
X-50675000Y-4025000D02*
X-50675000Y-4575000D01*
G75*
G02*
X-50875000Y-4775000I-200000J0D01*
G01*
X-51275000Y-4775000D01*
G75*
G02*
X-51475000Y-4575000I0J200000D01*
G01*
X-51475000Y-4025000D01*
G75*
G02*
X-51275000Y-3825000I200000J0D01*
G01*
X-50875000Y-3825000D01*
G75*
G02*
X-50675000Y-4025000I0J-200000D01*
G01*
G37*
%TD.AperFunction*%
%TD*%
%TO.P,R6,2*%
%TO.N,Net-(C9-Pad2)*%
%TA.AperFunction,SMDPad,CuDef*%
G36*
G01*
X-52325000Y-9525000D02*
X-52325000Y-10075000D01*
G75*
G02*
X-52525000Y-10275000I-200000J0D01*
G01*
X-52925000Y-10275000D01*
G75*
G02*
X-53125000Y-10075000I0J200000D01*
G01*
X-53125000Y-9525000D01*
G75*
G02*
X-52925000Y-9325000I200000J0D01*
G01*
X-52525000Y-9325000D01*
G75*
G02*
X-52325000Y-9525000I0J-200000D01*
G01*
G37*
%TD.AperFunction*%
%TO.P,R6,1*%
%TO.N,/5V5*%
%TA.AperFunction,SMDPad,CuDef*%
G36*
G01*
X-50675000Y-9525000D02*
X-50675000Y-10075000D01*
G75*
G02*
X-50875000Y-10275000I-200000J0D01*
G01*
X-51275000Y-10275000D01*
G75*
G02*
X-51475000Y-10075000I0J200000D01*
G01*
X-51475000Y-9525000D01*
G75*
G02*
X-51275000Y-9325000I200000J0D01*
G01*
X-50875000Y-9325000D01*
G75*
G02*
X-50675000Y-9525000I0J-200000D01*
G01*
G37*
%TD.AperFunction*%
%TD*%
%TO.P,R5,2*%
%TO.N,ESP_RESET*%
%TA.AperFunction,SMDPad,CuDef*%
G36*
G01*
X-59975000Y-41425000D02*
X-60525000Y-41425000D01*
G75*
G02*
X-60725000Y-41225000I0J200000D01*
G01*
X-60725000Y-40825000D01*
G75*
G02*
X-60525000Y-40625000I200000J0D01*
G01*
X-59975000Y-40625000D01*
G75*
G02*
X-59775000Y-40825000I0J-200000D01*
G01*
X-59775000Y-41225000D01*
G75*
G02*
X-59975000Y-41425000I-200000J0D01*
G01*
G37*
%TD.AperFunction*%
%TO.P,R5,1*%
%TO.N,+3V3*%
%TA.AperFunction,SMDPad,CuDef*%
G36*
G01*
X-59975000Y-43075000D02*
X-60525000Y-43075000D01*
G75*
G02*
X-60725000Y-42875000I0J200000D01*
G01*
X-60725000Y-42475000D01*
G75*
G02*
X-60525000Y-42275000I200000J0D01*
G01*
X-59975000Y-42275000D01*
G75*
G02*
X-59775000Y-42475000I0J-200000D01*
G01*
X-59775000Y-42875000D01*
G75*
G02*
X-59975000Y-43075000I-200000J0D01*
G01*
G37*
%TD.AperFunction*%
%TD*%
%TO.P,R4,2*%
%TO.N,Net-(R3-Pad1)*%
%TA.AperFunction,SMDPad,CuDef*%
G36*
G01*
X-63925000Y-11275000D02*
X-64475000Y-11275000D01*
G75*
G02*
X-64675000Y-11075000I0J200000D01*
G01*
X-64675000Y-10675000D01*
G75*
G02*
X-64475000Y-10475000I200000J0D01*
G01*
X-63925000Y-10475000D01*
G75*
G02*
X-63725000Y-10675000I0J-200000D01*
G01*
X-63725000Y-11075000D01*
G75*
G02*
X-63925000Y-11275000I-200000J0D01*
G01*
G37*
%TD.AperFunction*%
%TO.P,R4,1*%
%TO.N,GND*%
%TA.AperFunction,SMDPad,CuDef*%
G36*
G01*
X-63925000Y-12925000D02*
X-64475000Y-12925000D01*
G75*
G02*
X-64675000Y-12725000I0J200000D01*
G01*
X-64675000Y-12325000D01*
G75*
G02*
X-64475000Y-12125000I200000J0D01*
G01*
X-63925000Y-12125000D01*
G75*
G02*
X-63725000Y-12325000I0J-200000D01*
G01*
X-63725000Y-12725000D01*
G75*
G02*
X-63925000Y-12925000I-200000J0D01*
G01*
G37*
%TD.AperFunction*%
%TD*%
%TO.P,R3,2*%
%TO.N,Net-(D2-Pad1)*%
%TA.AperFunction,SMDPad,CuDef*%
G36*
G01*
X-61075000Y-11175000D02*
X-61075000Y-10625000D01*
G75*
G02*
X-60875000Y-10425000I200000J0D01*
G01*
X-60475000Y-10425000D01*
G75*
G02*
X-60275000Y-10625000I0J-200000D01*
G01*
X-60275000Y-11175000D01*
G75*
G02*
X-60475000Y-11375000I-200000J0D01*
G01*
X-60875000Y-11375000D01*
G75*
G02*
X-61075000Y-11175000I0J200000D01*
G01*
G37*
%TD.AperFunction*%
%TO.P,R3,1*%
%TO.N,Net-(R3-Pad1)*%
%TA.AperFunction,SMDPad,CuDef*%
G36*
G01*
X-62725000Y-11175000D02*
X-62725000Y-10625000D01*
G75*
G02*
X-62525000Y-10425000I200000J0D01*
G01*
X-62125000Y-10425000D01*
G75*
G02*
X-61925000Y-10625000I0J-200000D01*
G01*
X-61925000Y-11175000D01*
G75*
G02*
X-62125000Y-11375000I-200000J0D01*
G01*
X-62525000Y-11375000D01*
G75*
G02*
X-62725000Y-11175000I0J200000D01*
G01*
G37*
%TD.AperFunction*%
%TD*%
%TO.P,R2,2*%
%TO.N,/Vin*%
%TA.AperFunction,SMDPad,CuDef*%
G36*
G01*
X-59175000Y-13225000D02*
X-58625000Y-13225000D01*
G75*
G02*
X-58425000Y-13425000I0J-200000D01*
G01*
X-58425000Y-13825000D01*
G75*
G02*
X-58625000Y-14025000I-200000J0D01*
G01*
X-59175000Y-14025000D01*
G75*
G02*
X-59375000Y-13825000I0J200000D01*
G01*
X-59375000Y-13425000D01*
G75*
G02*
X-59175000Y-13225000I200000J0D01*
G01*
G37*
%TD.AperFunction*%
%TO.P,R2,1*%
%TO.N,Net-(D2-Pad1)*%
%TA.AperFunction,SMDPad,CuDef*%
G36*
G01*
X-59175000Y-11575000D02*
X-58625000Y-11575000D01*
G75*
G02*
X-58425000Y-11775000I0J-200000D01*
G01*
X-58425000Y-12175000D01*
G75*
G02*
X-58625000Y-12375000I-200000J0D01*
G01*
X-59175000Y-12375000D01*
G75*
G02*
X-59375000Y-12175000I0J200000D01*
G01*
X-59375000Y-11775000D01*
G75*
G02*
X-59175000Y-11575000I200000J0D01*
G01*
G37*
%TD.AperFunction*%
%TD*%
%TO.P,R1,2*%
%TO.N,GND*%
%TA.AperFunction,SMDPad,CuDef*%
G36*
G01*
X-66975000Y-16425000D02*
X-66975000Y-15875000D01*
G75*
G02*
X-66775000Y-15675000I200000J0D01*
G01*
X-66375000Y-15675000D01*
G75*
G02*
X-66175000Y-15875000I0J-200000D01*
G01*
X-66175000Y-16425000D01*
G75*
G02*
X-66375000Y-16625000I-200000J0D01*
G01*
X-66775000Y-16625000D01*
G75*
G02*
X-66975000Y-16425000I0J200000D01*
G01*
G37*
%TD.AperFunction*%
%TO.P,R1,1*%
%TO.N,Net-(D1-Pad2)*%
%TA.AperFunction,SMDPad,CuDef*%
G36*
G01*
X-68625000Y-16425000D02*
X-68625000Y-15875000D01*
G75*
G02*
X-68425000Y-15675000I200000J0D01*
G01*
X-68025000Y-15675000D01*
G75*
G02*
X-67825000Y-15875000I0J-200000D01*
G01*
X-67825000Y-16425000D01*
G75*
G02*
X-68025000Y-16625000I-200000J0D01*
G01*
X-68425000Y-16625000D01*
G75*
G02*
X-68625000Y-16425000I0J200000D01*
G01*
G37*
%TD.AperFunction*%
%TD*%
D20*
%TO.P,Q1,3*%
%TO.N,Net-(J1-Pad1)*%
X-67250000Y-8250000D03*
%TO.P,Q1,2*%
%TO.N,/Vin*%
X-66300000Y-10250000D03*
%TO.P,Q1,1*%
%TO.N,Net-(D1-Pad2)*%
X-68200000Y-10250000D03*
%TD*%
D21*
%TO.P,L1,2*%
%TO.N,/5V5*%
X-47900000Y-11150000D03*
%TO.P,L1,1*%
%TO.N,Net-(C3-Pad1)*%
X-47900000Y-13550000D03*
%TD*%
D22*
%TO.P,JP3,2*%
%TO.N,/OA_PWR*%
X-35350000Y-18275000D03*
%TO.P,JP3,3*%
%TO.N,+5V*%
X-35350000Y-16975000D03*
%TO.P,JP3,1*%
%TO.N,+3V3*%
X-35350000Y-19575000D03*
%TD*%
D23*
%TO.P,JP2,2*%
%TO.N,/BOOT0*%
X-18000000Y-40510000D03*
D24*
%TO.P,JP2,1*%
%TO.N,Net-(JP2-Pad1)*%
X-18000000Y-43050000D03*
%TD*%
D25*
%TO.P,J7,2*%
%TO.N,/CANL*%
X-31300000Y-5300000D03*
%TO.P,J7,1*%
%TO.N,/CANH*%
X-26300000Y-5300000D03*
%TO.P,J7,3*%
%TO.N,GND*%
X-36300000Y-5300000D03*
%TD*%
%TO.P,J6,2*%
%TO.N,GNDA*%
X-15300000Y-5300000D03*
%TO.P,J6,1*%
%TO.N,Net-(J6-Pad1)*%
X-10300000Y-5300000D03*
%TD*%
%TO.P,J1,2*%
%TO.N,GND*%
X-62300000Y-5300000D03*
%TO.P,J1,1*%
%TO.N,Net-(J1-Pad1)*%
X-57300000Y-5300000D03*
%TD*%
D20*
%TO.P,D11,3*%
%TO.N,GND*%
X-27800000Y-14725000D03*
%TO.P,D11,2*%
%TO.N,/CANL*%
X-28750000Y-12725000D03*
%TO.P,D11,1*%
%TO.N,/CANH*%
X-26850000Y-12725000D03*
%TD*%
%TO.P,D10,2*%
%TO.N,+3V3*%
%TA.AperFunction,SMDPad,CuDef*%
G36*
G01*
X-38150000Y-43556250D02*
X-38150000Y-43043750D01*
G75*
G02*
X-37931250Y-42825000I218750J0D01*
G01*
X-37493750Y-42825000D01*
G75*
G02*
X-37275000Y-43043750I0J-218750D01*
G01*
X-37275000Y-43556250D01*
G75*
G02*
X-37493750Y-43775000I-218750J0D01*
G01*
X-37931250Y-43775000D01*
G75*
G02*
X-38150000Y-43556250I0J218750D01*
G01*
G37*
%TD.AperFunction*%
%TO.P,D10,1*%
%TO.N,Net-(D10-Pad1)*%
%TA.AperFunction,SMDPad,CuDef*%
G36*
G01*
X-39725000Y-43556250D02*
X-39725000Y-43043750D01*
G75*
G02*
X-39506250Y-42825000I218750J0D01*
G01*
X-39068750Y-42825000D01*
G75*
G02*
X-38850000Y-43043750I0J-218750D01*
G01*
X-38850000Y-43556250D01*
G75*
G02*
X-39068750Y-43775000I-218750J0D01*
G01*
X-39506250Y-43775000D01*
G75*
G02*
X-39725000Y-43556250I0J218750D01*
G01*
G37*
%TD.AperFunction*%
%TD*%
%TO.P,D9,2*%
%TO.N,ERROR_LED*%
%TA.AperFunction,SMDPad,CuDef*%
G36*
G01*
X-23150000Y-43556250D02*
X-23150000Y-43043750D01*
G75*
G02*
X-22931250Y-42825000I218750J0D01*
G01*
X-22493750Y-42825000D01*
G75*
G02*
X-22275000Y-43043750I0J-218750D01*
G01*
X-22275000Y-43556250D01*
G75*
G02*
X-22493750Y-43775000I-218750J0D01*
G01*
X-22931250Y-43775000D01*
G75*
G02*
X-23150000Y-43556250I0J218750D01*
G01*
G37*
%TD.AperFunction*%
%TO.P,D9,1*%
%TO.N,Net-(D9-Pad1)*%
%TA.AperFunction,SMDPad,CuDef*%
G36*
G01*
X-24725000Y-43556250D02*
X-24725000Y-43043750D01*
G75*
G02*
X-24506250Y-42825000I218750J0D01*
G01*
X-24068750Y-42825000D01*
G75*
G02*
X-23850000Y-43043750I0J-218750D01*
G01*
X-23850000Y-43556250D01*
G75*
G02*
X-24068750Y-43775000I-218750J0D01*
G01*
X-24506250Y-43775000D01*
G75*
G02*
X-24725000Y-43556250I0J218750D01*
G01*
G37*
%TD.AperFunction*%
%TD*%
%TO.P,D8,2*%
%TO.N,SPI_LED*%
%TA.AperFunction,SMDPad,CuDef*%
G36*
G01*
X-28150000Y-43556250D02*
X-28150000Y-43043750D01*
G75*
G02*
X-27931250Y-42825000I218750J0D01*
G01*
X-27493750Y-42825000D01*
G75*
G02*
X-27275000Y-43043750I0J-218750D01*
G01*
X-27275000Y-43556250D01*
G75*
G02*
X-27493750Y-43775000I-218750J0D01*
G01*
X-27931250Y-43775000D01*
G75*
G02*
X-28150000Y-43556250I0J218750D01*
G01*
G37*
%TD.AperFunction*%
%TO.P,D8,1*%
%TO.N,Net-(D8-Pad1)*%
%TA.AperFunction,SMDPad,CuDef*%
G36*
G01*
X-29725000Y-43556250D02*
X-29725000Y-43043750D01*
G75*
G02*
X-29506250Y-42825000I218750J0D01*
G01*
X-29068750Y-42825000D01*
G75*
G02*
X-28850000Y-43043750I0J-218750D01*
G01*
X-28850000Y-43556250D01*
G75*
G02*
X-29068750Y-43775000I-218750J0D01*
G01*
X-29506250Y-43775000D01*
G75*
G02*
X-29725000Y-43556250I0J218750D01*
G01*
G37*
%TD.AperFunction*%
%TD*%
%TO.P,D7,2*%
%TO.N,CAN_LED*%
%TA.AperFunction,SMDPad,CuDef*%
G36*
G01*
X-33150000Y-43556250D02*
X-33150000Y-43043750D01*
G75*
G02*
X-32931250Y-42825000I218750J0D01*
G01*
X-32493750Y-42825000D01*
G75*
G02*
X-32275000Y-43043750I0J-218750D01*
G01*
X-32275000Y-43556250D01*
G75*
G02*
X-32493750Y-43775000I-218750J0D01*
G01*
X-32931250Y-43775000D01*
G75*
G02*
X-33150000Y-43556250I0J218750D01*
G01*
G37*
%TD.AperFunction*%
%TO.P,D7,1*%
%TO.N,Net-(D7-Pad1)*%
%TA.AperFunction,SMDPad,CuDef*%
G36*
G01*
X-34725000Y-43556250D02*
X-34725000Y-43043750D01*
G75*
G02*
X-34506250Y-42825000I218750J0D01*
G01*
X-34068750Y-42825000D01*
G75*
G02*
X-33850000Y-43043750I0J-218750D01*
G01*
X-33850000Y-43556250D01*
G75*
G02*
X-34068750Y-43775000I-218750J0D01*
G01*
X-34506250Y-43775000D01*
G75*
G02*
X-34725000Y-43556250I0J218750D01*
G01*
G37*
%TD.AperFunction*%
%TD*%
D26*
%TO.P,D6,2*%
%TO.N,/RXD*%
X-54700000Y-19900000D03*
%TO.P,D6,1*%
%TO.N,Net-(D6-Pad1)*%
X-54700000Y-16600000D03*
%TD*%
D27*
%TO.P,D5,1*%
%TO.N,+5V*%
X-43150000Y-7850000D03*
%TO.P,D5,2*%
%TO.N,/5V5*%
X-46950000Y-7850000D03*
%TD*%
D28*
%TO.P,D4,2*%
%TO.N,STM_RESET*%
X-61050000Y-19100000D03*
%TO.P,D4,1*%
%TO.N,ESP_RESET*%
X-64350000Y-19100000D03*
%TD*%
D27*
%TO.P,D3,1*%
%TO.N,Net-(C3-Pad1)*%
X-44300000Y-16550000D03*
%TO.P,D3,2*%
%TO.N,GND*%
X-40500000Y-16550000D03*
%TD*%
D26*
%TO.P,D2,2*%
%TO.N,GND*%
X-61500000Y-16150000D03*
%TO.P,D2,1*%
%TO.N,Net-(D2-Pad1)*%
X-61500000Y-12850000D03*
%TD*%
D29*
%TO.P,D1,2*%
%TO.N,Net-(D1-Pad2)*%
X-69400000Y-12750000D03*
%TO.P,D1,1*%
%TO.N,/Vin*%
X-66100000Y-12750000D03*
%TD*%
%TO.P,C18,2*%
%TO.N,+5V*%
%TA.AperFunction,SMDPad,CuDef*%
G36*
G01*
X-35600000Y-13850000D02*
X-35100000Y-13850000D01*
G75*
G02*
X-34875000Y-14075000I0J-225000D01*
G01*
X-34875000Y-14525000D01*
G75*
G02*
X-35100000Y-14750000I-225000J0D01*
G01*
X-35600000Y-14750000D01*
G75*
G02*
X-35825000Y-14525000I0J225000D01*
G01*
X-35825000Y-14075000D01*
G75*
G02*
X-35600000Y-13850000I225000J0D01*
G01*
G37*
%TD.AperFunction*%
%TO.P,C18,1*%
%TO.N,GND*%
%TA.AperFunction,SMDPad,CuDef*%
G36*
G01*
X-35600000Y-12300000D02*
X-35100000Y-12300000D01*
G75*
G02*
X-34875000Y-12525000I0J-225000D01*
G01*
X-34875000Y-12975000D01*
G75*
G02*
X-35100000Y-13200000I-225000J0D01*
G01*
X-35600000Y-13200000D01*
G75*
G02*
X-35825000Y-12975000I0J225000D01*
G01*
X-35825000Y-12525000D01*
G75*
G02*
X-35600000Y-12300000I225000J0D01*
G01*
G37*
%TD.AperFunction*%
%TD*%
%TO.P,C17,2*%
%TO.N,GNDA*%
%TA.AperFunction,SMDPad,CuDef*%
G36*
G01*
X-6325000Y-15100000D02*
X-5825000Y-15100000D01*
G75*
G02*
X-5600000Y-15325000I0J-225000D01*
G01*
X-5600000Y-15775000D01*
G75*
G02*
X-5825000Y-16000000I-225000J0D01*
G01*
X-6325000Y-16000000D01*
G75*
G02*
X-6550000Y-15775000I0J225000D01*
G01*
X-6550000Y-15325000D01*
G75*
G02*
X-6325000Y-15100000I225000J0D01*
G01*
G37*
%TD.AperFunction*%
%TO.P,C17,1*%
%TO.N,+5V*%
%TA.AperFunction,SMDPad,CuDef*%
G36*
G01*
X-6325000Y-13550000D02*
X-5825000Y-13550000D01*
G75*
G02*
X-5600000Y-13775000I0J-225000D01*
G01*
X-5600000Y-14225000D01*
G75*
G02*
X-5825000Y-14450000I-225000J0D01*
G01*
X-6325000Y-14450000D01*
G75*
G02*
X-6550000Y-14225000I0J225000D01*
G01*
X-6550000Y-13775000D01*
G75*
G02*
X-6325000Y-13550000I225000J0D01*
G01*
G37*
%TD.AperFunction*%
%TD*%
%TO.P,C16,2*%
%TO.N,GNDA*%
%TA.AperFunction,SMDPad,CuDef*%
G36*
G01*
X-8850000Y-15100000D02*
X-8350000Y-15100000D01*
G75*
G02*
X-8125000Y-15325000I0J-225000D01*
G01*
X-8125000Y-15775000D01*
G75*
G02*
X-8350000Y-16000000I-225000J0D01*
G01*
X-8850000Y-16000000D01*
G75*
G02*
X-9075000Y-15775000I0J225000D01*
G01*
X-9075000Y-15325000D01*
G75*
G02*
X-8850000Y-15100000I225000J0D01*
G01*
G37*
%TD.AperFunction*%
%TO.P,C16,1*%
%TO.N,+5V*%
%TA.AperFunction,SMDPad,CuDef*%
G36*
G01*
X-8850000Y-13550000D02*
X-8350000Y-13550000D01*
G75*
G02*
X-8125000Y-13775000I0J-225000D01*
G01*
X-8125000Y-14225000D01*
G75*
G02*
X-8350000Y-14450000I-225000J0D01*
G01*
X-8850000Y-14450000D01*
G75*
G02*
X-9075000Y-14225000I0J225000D01*
G01*
X-9075000Y-13775000D01*
G75*
G02*
X-8850000Y-13550000I225000J0D01*
G01*
G37*
%TD.AperFunction*%
%TD*%
%TO.P,C15,2*%
%TO.N,/OA_PWR*%
%TA.AperFunction,SMDPad,CuDef*%
G36*
G01*
X-22975000Y-20675000D02*
X-22975000Y-21175000D01*
G75*
G02*
X-23200000Y-21400000I-225000J0D01*
G01*
X-23650000Y-21400000D01*
G75*
G02*
X-23875000Y-21175000I0J225000D01*
G01*
X-23875000Y-20675000D01*
G75*
G02*
X-23650000Y-20450000I225000J0D01*
G01*
X-23200000Y-20450000D01*
G75*
G02*
X-22975000Y-20675000I0J-225000D01*
G01*
G37*
%TD.AperFunction*%
%TO.P,C15,1*%
%TO.N,GND*%
%TA.AperFunction,SMDPad,CuDef*%
G36*
G01*
X-21425000Y-20675000D02*
X-21425000Y-21175000D01*
G75*
G02*
X-21650000Y-21400000I-225000J0D01*
G01*
X-22100000Y-21400000D01*
G75*
G02*
X-22325000Y-21175000I0J225000D01*
G01*
X-22325000Y-20675000D01*
G75*
G02*
X-22100000Y-20450000I225000J0D01*
G01*
X-21650000Y-20450000D01*
G75*
G02*
X-21425000Y-20675000I0J-225000D01*
G01*
G37*
%TD.AperFunction*%
%TD*%
%TO.P,C14,2*%
%TO.N,GND*%
%TA.AperFunction,SMDPad,CuDef*%
G36*
G01*
X-38500000Y-12475000D02*
X-38000000Y-12475000D01*
G75*
G02*
X-37775000Y-12700000I0J-225000D01*
G01*
X-37775000Y-13150000D01*
G75*
G02*
X-38000000Y-13375000I-225000J0D01*
G01*
X-38500000Y-13375000D01*
G75*
G02*
X-38725000Y-13150000I0J225000D01*
G01*
X-38725000Y-12700000D01*
G75*
G02*
X-38500000Y-12475000I225000J0D01*
G01*
G37*
%TD.AperFunction*%
%TO.P,C14,1*%
%TO.N,+3V3*%
%TA.AperFunction,SMDPad,CuDef*%
G36*
G01*
X-38500000Y-10925000D02*
X-38000000Y-10925000D01*
G75*
G02*
X-37775000Y-11150000I0J-225000D01*
G01*
X-37775000Y-11600000D01*
G75*
G02*
X-38000000Y-11825000I-225000J0D01*
G01*
X-38500000Y-11825000D01*
G75*
G02*
X-38725000Y-11600000I0J225000D01*
G01*
X-38725000Y-11150000D01*
G75*
G02*
X-38500000Y-10925000I225000J0D01*
G01*
G37*
%TD.AperFunction*%
%TD*%
%TO.P,C13,2*%
%TO.N,GND*%
%TA.AperFunction,SMDPad,CuDef*%
G36*
G01*
X-44050000Y-37525000D02*
X-44050000Y-36575000D01*
G75*
G02*
X-43800000Y-36325000I250000J0D01*
G01*
X-43300000Y-36325000D01*
G75*
G02*
X-43050000Y-36575000I0J-250000D01*
G01*
X-43050000Y-37525000D01*
G75*
G02*
X-43300000Y-37775000I-250000J0D01*
G01*
X-43800000Y-37775000D01*
G75*
G02*
X-44050000Y-37525000I0J250000D01*
G01*
G37*
%TD.AperFunction*%
%TO.P,C13,1*%
%TO.N,+3V3*%
%TA.AperFunction,SMDPad,CuDef*%
G36*
G01*
X-45950000Y-37525000D02*
X-45950000Y-36575000D01*
G75*
G02*
X-45700000Y-36325000I250000J0D01*
G01*
X-45200000Y-36325000D01*
G75*
G02*
X-44950000Y-36575000I0J-250000D01*
G01*
X-44950000Y-37525000D01*
G75*
G02*
X-45200000Y-37775000I-250000J0D01*
G01*
X-45700000Y-37775000D01*
G75*
G02*
X-45950000Y-37525000I0J250000D01*
G01*
G37*
%TD.AperFunction*%
%TD*%
%TO.P,C12,2*%
%TO.N,STM_RESET*%
%TA.AperFunction,SMDPad,CuDef*%
G36*
G01*
X-10625000Y-40500000D02*
X-10625000Y-40000000D01*
G75*
G02*
X-10400000Y-39775000I225000J0D01*
G01*
X-9950000Y-39775000D01*
G75*
G02*
X-9725000Y-40000000I0J-225000D01*
G01*
X-9725000Y-40500000D01*
G75*
G02*
X-9950000Y-40725000I-225000J0D01*
G01*
X-10400000Y-40725000D01*
G75*
G02*
X-10625000Y-40500000I0J225000D01*
G01*
G37*
%TD.AperFunction*%
%TO.P,C12,1*%
%TO.N,GND*%
%TA.AperFunction,SMDPad,CuDef*%
G36*
G01*
X-12175000Y-40500000D02*
X-12175000Y-40000000D01*
G75*
G02*
X-11950000Y-39775000I225000J0D01*
G01*
X-11500000Y-39775000D01*
G75*
G02*
X-11275000Y-40000000I0J-225000D01*
G01*
X-11275000Y-40500000D01*
G75*
G02*
X-11500000Y-40725000I-225000J0D01*
G01*
X-11950000Y-40725000D01*
G75*
G02*
X-12175000Y-40500000I0J225000D01*
G01*
G37*
%TD.AperFunction*%
%TD*%
%TO.P,C11,2*%
%TO.N,GND*%
%TA.AperFunction,SMDPad,CuDef*%
G36*
G01*
X-45425000Y-12075000D02*
X-44925000Y-12075000D01*
G75*
G02*
X-44700000Y-12300000I0J-225000D01*
G01*
X-44700000Y-12750000D01*
G75*
G02*
X-44925000Y-12975000I-225000J0D01*
G01*
X-45425000Y-12975000D01*
G75*
G02*
X-45650000Y-12750000I0J225000D01*
G01*
X-45650000Y-12300000D01*
G75*
G02*
X-45425000Y-12075000I225000J0D01*
G01*
G37*
%TD.AperFunction*%
%TO.P,C11,1*%
%TO.N,+5V*%
%TA.AperFunction,SMDPad,CuDef*%
G36*
G01*
X-45425000Y-10525000D02*
X-44925000Y-10525000D01*
G75*
G02*
X-44700000Y-10750000I0J-225000D01*
G01*
X-44700000Y-11200000D01*
G75*
G02*
X-44925000Y-11425000I-225000J0D01*
G01*
X-45425000Y-11425000D01*
G75*
G02*
X-45650000Y-11200000I0J225000D01*
G01*
X-45650000Y-10750000D01*
G75*
G02*
X-45425000Y-10525000I225000J0D01*
G01*
G37*
%TD.AperFunction*%
%TD*%
%TO.P,C10,2*%
%TO.N,GNDA*%
%TA.AperFunction,SMDPad,CuDef*%
G36*
G01*
X-10675000Y-30000000D02*
X-10675000Y-29500000D01*
G75*
G02*
X-10450000Y-29275000I225000J0D01*
G01*
X-10000000Y-29275000D01*
G75*
G02*
X-9775000Y-29500000I0J-225000D01*
G01*
X-9775000Y-30000000D01*
G75*
G02*
X-10000000Y-30225000I-225000J0D01*
G01*
X-10450000Y-30225000D01*
G75*
G02*
X-10675000Y-30000000I0J225000D01*
G01*
G37*
%TD.AperFunction*%
%TO.P,C10,1*%
%TO.N,VDDA*%
%TA.AperFunction,SMDPad,CuDef*%
G36*
G01*
X-12225000Y-30000000D02*
X-12225000Y-29500000D01*
G75*
G02*
X-12000000Y-29275000I225000J0D01*
G01*
X-11550000Y-29275000D01*
G75*
G02*
X-11325000Y-29500000I0J-225000D01*
G01*
X-11325000Y-30000000D01*
G75*
G02*
X-11550000Y-30225000I-225000J0D01*
G01*
X-12000000Y-30225000D01*
G75*
G02*
X-12225000Y-30000000I0J225000D01*
G01*
G37*
%TD.AperFunction*%
%TD*%
%TO.P,C9,2*%
%TO.N,Net-(C9-Pad2)*%
%TA.AperFunction,SMDPad,CuDef*%
G36*
G01*
X-52225000Y-6800000D02*
X-52225000Y-7300000D01*
G75*
G02*
X-52450000Y-7525000I-225000J0D01*
G01*
X-52900000Y-7525000D01*
G75*
G02*
X-53125000Y-7300000I0J225000D01*
G01*
X-53125000Y-6800000D01*
G75*
G02*
X-52900000Y-6575000I225000J0D01*
G01*
X-52450000Y-6575000D01*
G75*
G02*
X-52225000Y-6800000I0J-225000D01*
G01*
G37*
%TD.AperFunction*%
%TO.P,C9,1*%
%TO.N,/5V5*%
%TA.AperFunction,SMDPad,CuDef*%
G36*
G01*
X-50675000Y-6800000D02*
X-50675000Y-7300000D01*
G75*
G02*
X-50900000Y-7525000I-225000J0D01*
G01*
X-51350000Y-7525000D01*
G75*
G02*
X-51575000Y-7300000I0J225000D01*
G01*
X-51575000Y-6800000D01*
G75*
G02*
X-51350000Y-6575000I225000J0D01*
G01*
X-50900000Y-6575000D01*
G75*
G02*
X-50675000Y-6800000I0J-225000D01*
G01*
G37*
%TD.AperFunction*%
%TD*%
%TO.P,C8,2*%
%TO.N,GND*%
%TA.AperFunction,SMDPad,CuDef*%
G36*
G01*
X-14175000Y-38500000D02*
X-14175000Y-38000000D01*
G75*
G02*
X-13950000Y-37775000I225000J0D01*
G01*
X-13500000Y-37775000D01*
G75*
G02*
X-13275000Y-38000000I0J-225000D01*
G01*
X-13275000Y-38500000D01*
G75*
G02*
X-13500000Y-38725000I-225000J0D01*
G01*
X-13950000Y-38725000D01*
G75*
G02*
X-14175000Y-38500000I0J225000D01*
G01*
G37*
%TD.AperFunction*%
%TO.P,C8,1*%
%TO.N,+3V3*%
%TA.AperFunction,SMDPad,CuDef*%
G36*
G01*
X-15725000Y-38500000D02*
X-15725000Y-38000000D01*
G75*
G02*
X-15500000Y-37775000I225000J0D01*
G01*
X-15050000Y-37775000D01*
G75*
G02*
X-14825000Y-38000000I0J-225000D01*
G01*
X-14825000Y-38500000D01*
G75*
G02*
X-15050000Y-38725000I-225000J0D01*
G01*
X-15500000Y-38725000D01*
G75*
G02*
X-15725000Y-38500000I0J225000D01*
G01*
G37*
%TD.AperFunction*%
%TD*%
%TO.P,C7,2*%
%TO.N,GND*%
%TA.AperFunction,SMDPad,CuDef*%
G36*
G01*
X-45250000Y-5025000D02*
X-45250000Y-4075000D01*
G75*
G02*
X-45000000Y-3825000I250000J0D01*
G01*
X-44500000Y-3825000D01*
G75*
G02*
X-44250000Y-4075000I0J-250000D01*
G01*
X-44250000Y-5025000D01*
G75*
G02*
X-44500000Y-5275000I-250000J0D01*
G01*
X-45000000Y-5275000D01*
G75*
G02*
X-45250000Y-5025000I0J250000D01*
G01*
G37*
%TD.AperFunction*%
%TO.P,C7,1*%
%TO.N,/5V5*%
%TA.AperFunction,SMDPad,CuDef*%
G36*
G01*
X-47150000Y-5025000D02*
X-47150000Y-4075000D01*
G75*
G02*
X-46900000Y-3825000I250000J0D01*
G01*
X-46400000Y-3825000D01*
G75*
G02*
X-46150000Y-4075000I0J-250000D01*
G01*
X-46150000Y-5025000D01*
G75*
G02*
X-46400000Y-5275000I-250000J0D01*
G01*
X-46900000Y-5275000D01*
G75*
G02*
X-47150000Y-5025000I0J250000D01*
G01*
G37*
%TD.AperFunction*%
%TD*%
%TO.P,C6,2*%
%TO.N,GND*%
%TA.AperFunction,SMDPad,CuDef*%
G36*
G01*
X-27225000Y-34000000D02*
X-27225000Y-34500000D01*
G75*
G02*
X-27450000Y-34725000I-225000J0D01*
G01*
X-27900000Y-34725000D01*
G75*
G02*
X-28125000Y-34500000I0J225000D01*
G01*
X-28125000Y-34000000D01*
G75*
G02*
X-27900000Y-33775000I225000J0D01*
G01*
X-27450000Y-33775000D01*
G75*
G02*
X-27225000Y-34000000I0J-225000D01*
G01*
G37*
%TD.AperFunction*%
%TO.P,C6,1*%
%TO.N,+3V3*%
%TA.AperFunction,SMDPad,CuDef*%
G36*
G01*
X-25675000Y-34000000D02*
X-25675000Y-34500000D01*
G75*
G02*
X-25900000Y-34725000I-225000J0D01*
G01*
X-26350000Y-34725000D01*
G75*
G02*
X-26575000Y-34500000I0J225000D01*
G01*
X-26575000Y-34000000D01*
G75*
G02*
X-26350000Y-33775000I225000J0D01*
G01*
X-25900000Y-33775000D01*
G75*
G02*
X-25675000Y-34000000I0J-225000D01*
G01*
G37*
%TD.AperFunction*%
%TD*%
%TO.P,C5,2*%
%TO.N,GND*%
%TA.AperFunction,SMDPad,CuDef*%
G36*
G01*
X-63500000Y-42175000D02*
X-63000000Y-42175000D01*
G75*
G02*
X-62775000Y-42400000I0J-225000D01*
G01*
X-62775000Y-42850000D01*
G75*
G02*
X-63000000Y-43075000I-225000J0D01*
G01*
X-63500000Y-43075000D01*
G75*
G02*
X-63725000Y-42850000I0J225000D01*
G01*
X-63725000Y-42400000D01*
G75*
G02*
X-63500000Y-42175000I225000J0D01*
G01*
G37*
%TD.AperFunction*%
%TO.P,C5,1*%
%TO.N,ESP_RESET*%
%TA.AperFunction,SMDPad,CuDef*%
G36*
G01*
X-63500000Y-40625000D02*
X-63000000Y-40625000D01*
G75*
G02*
X-62775000Y-40850000I0J-225000D01*
G01*
X-62775000Y-41300000D01*
G75*
G02*
X-63000000Y-41525000I-225000J0D01*
G01*
X-63500000Y-41525000D01*
G75*
G02*
X-63725000Y-41300000I0J225000D01*
G01*
X-63725000Y-40850000D01*
G75*
G02*
X-63500000Y-40625000I225000J0D01*
G01*
G37*
%TD.AperFunction*%
%TD*%
%TO.P,C4,2*%
%TO.N,GND*%
%TA.AperFunction,SMDPad,CuDef*%
G36*
G01*
X-23050000Y-24325000D02*
X-23050000Y-24825000D01*
G75*
G02*
X-23275000Y-25050000I-225000J0D01*
G01*
X-23725000Y-25050000D01*
G75*
G02*
X-23950000Y-24825000I0J225000D01*
G01*
X-23950000Y-24325000D01*
G75*
G02*
X-23725000Y-24100000I225000J0D01*
G01*
X-23275000Y-24100000D01*
G75*
G02*
X-23050000Y-24325000I0J-225000D01*
G01*
G37*
%TD.AperFunction*%
%TO.P,C4,1*%
%TO.N,+3V3*%
%TA.AperFunction,SMDPad,CuDef*%
G36*
G01*
X-21500000Y-24325000D02*
X-21500000Y-24825000D01*
G75*
G02*
X-21725000Y-25050000I-225000J0D01*
G01*
X-22175000Y-25050000D01*
G75*
G02*
X-22400000Y-24825000I0J225000D01*
G01*
X-22400000Y-24325000D01*
G75*
G02*
X-22175000Y-24100000I225000J0D01*
G01*
X-21725000Y-24100000D01*
G75*
G02*
X-21500000Y-24325000I0J-225000D01*
G01*
G37*
%TD.AperFunction*%
%TD*%
%TO.P,C3,2*%
%TO.N,Net-(C3-Pad2)*%
%TA.AperFunction,SMDPad,CuDef*%
G36*
G01*
X-50900000Y-12725000D02*
X-51400000Y-12725000D01*
G75*
G02*
X-51625000Y-12500000I0J225000D01*
G01*
X-51625000Y-12050000D01*
G75*
G02*
X-51400000Y-11825000I225000J0D01*
G01*
X-50900000Y-11825000D01*
G75*
G02*
X-50675000Y-12050000I0J-225000D01*
G01*
X-50675000Y-12500000D01*
G75*
G02*
X-50900000Y-12725000I-225000J0D01*
G01*
G37*
%TD.AperFunction*%
%TO.P,C3,1*%
%TO.N,Net-(C3-Pad1)*%
%TA.AperFunction,SMDPad,CuDef*%
G36*
G01*
X-50900000Y-14275000D02*
X-51400000Y-14275000D01*
G75*
G02*
X-51625000Y-14050000I0J225000D01*
G01*
X-51625000Y-13600000D01*
G75*
G02*
X-51400000Y-13375000I225000J0D01*
G01*
X-50900000Y-13375000D01*
G75*
G02*
X-50675000Y-13600000I0J-225000D01*
G01*
X-50675000Y-14050000D01*
G75*
G02*
X-50900000Y-14275000I-225000J0D01*
G01*
G37*
%TD.AperFunction*%
%TD*%
%TO.P,C2,2*%
%TO.N,GND*%
%TA.AperFunction,SMDPad,CuDef*%
G36*
G01*
X-10675000Y-36500000D02*
X-10675000Y-36000000D01*
G75*
G02*
X-10450000Y-35775000I225000J0D01*
G01*
X-10000000Y-35775000D01*
G75*
G02*
X-9775000Y-36000000I0J-225000D01*
G01*
X-9775000Y-36500000D01*
G75*
G02*
X-10000000Y-36725000I-225000J0D01*
G01*
X-10450000Y-36725000D01*
G75*
G02*
X-10675000Y-36500000I0J225000D01*
G01*
G37*
%TD.AperFunction*%
%TO.P,C2,1*%
%TO.N,+3V3*%
%TA.AperFunction,SMDPad,CuDef*%
G36*
G01*
X-12225000Y-36500000D02*
X-12225000Y-36000000D01*
G75*
G02*
X-12000000Y-35775000I225000J0D01*
G01*
X-11550000Y-35775000D01*
G75*
G02*
X-11325000Y-36000000I0J-225000D01*
G01*
X-11325000Y-36500000D01*
G75*
G02*
X-11550000Y-36725000I-225000J0D01*
G01*
X-12000000Y-36725000D01*
G75*
G02*
X-12225000Y-36500000I0J225000D01*
G01*
G37*
%TD.AperFunction*%
%TD*%
%TO.P,C1,2*%
%TO.N,GND*%
%TA.AperFunction,SMDPad,CuDef*%
G36*
G01*
X-58550000Y-16125000D02*
X-58550000Y-17075000D01*
G75*
G02*
X-58800000Y-17325000I-250000J0D01*
G01*
X-59300000Y-17325000D01*
G75*
G02*
X-59550000Y-17075000I0J250000D01*
G01*
X-59550000Y-16125000D01*
G75*
G02*
X-59300000Y-15875000I250000J0D01*
G01*
X-58800000Y-15875000D01*
G75*
G02*
X-58550000Y-16125000I0J-250000D01*
G01*
G37*
%TD.AperFunction*%
%TO.P,C1,1*%
%TO.N,/Vin*%
%TA.AperFunction,SMDPad,CuDef*%
G36*
G01*
X-56650000Y-16125000D02*
X-56650000Y-17075000D01*
G75*
G02*
X-56900000Y-17325000I-250000J0D01*
G01*
X-57400000Y-17325000D01*
G75*
G02*
X-57650000Y-17075000I0J250000D01*
G01*
X-57650000Y-16125000D01*
G75*
G02*
X-57400000Y-15875000I250000J0D01*
G01*
X-56900000Y-15875000D01*
G75*
G02*
X-56650000Y-16125000I0J-250000D01*
G01*
G37*
%TD.AperFunction*%
%TD*%
D30*
%TO.N,GND*%
X-63100000Y-12000000D03*
X-52375000Y-12625000D03*
X-53675000Y-12625000D03*
X-44700000Y-13650000D03*
X-43700000Y-13650000D03*
X-39300000Y-12500000D03*
X-60500000Y-17200000D03*
X-61500000Y-17200000D03*
X-48000000Y-21500000D03*
X-48000000Y-23200000D03*
X-35350000Y-11475000D03*
X-29000000Y-15175000D03*
X-63250000Y-43850000D03*
X-41850000Y-18550000D03*
X-42450010Y-37050000D03*
X-39100000Y-16550000D03*
X-33100000Y-11774998D03*
X-28750000Y-34250000D03*
X-21850000Y-33000000D03*
X-17950000Y-34250000D03*
X-20700000Y-25950000D03*
X-21699994Y-40899994D03*
X-13050000Y-38950000D03*
X-22900000Y-3800000D03*
X-22900000Y-6650000D03*
X-31700000Y-40900000D03*
X-12850000Y-40250000D03*
X-3350000Y-34250000D03*
X-8900000Y-36250000D03*
X-26622938Y-40829513D03*
X-33000000Y-38450000D03*
X-45975000Y-41875000D03*
X-20825000Y-18225000D03*
X-22875000Y-9475000D03*
X-28475000Y-23750000D03*
X-37550000Y-23900000D03*
X-21875000Y-22000000D03*
X-23500000Y-25650000D03*
X-51075000Y-3225000D03*
X-65575000Y-16150000D03*
X-44725000Y-3225000D03*
%TO.N,GNDA*%
X-14850000Y-13050000D03*
X-14850000Y-12050000D03*
X-12950000Y-13050000D03*
X-12950000Y-12050000D03*
X-13900000Y-17675000D03*
X-8600000Y-16625000D03*
X-8900000Y-29750000D03*
X-17750000Y-25925000D03*
X-17750000Y-24925000D03*
X-17750000Y-23925000D03*
X-17750000Y-22925000D03*
X-17750000Y-21925000D03*
X-17750000Y-20925000D03*
X-17750000Y-19925000D03*
X-17750000Y-17925000D03*
X-17750000Y-16925000D03*
X-17750000Y-18925000D03*
X-17000000Y-16175000D03*
X-16250000Y-15425000D03*
X-15250000Y-15025000D03*
X-16150000Y-25925000D03*
X-16150000Y-24925000D03*
X-16150000Y-23925000D03*
X-16150000Y-22925000D03*
X-16150000Y-21925000D03*
X-16150000Y-20925000D03*
X-16150000Y-19925000D03*
X-16150000Y-18925000D03*
X-16150000Y-17925000D03*
X-15650000Y-17175000D03*
X-14850000Y-16675000D03*
X-14850000Y-11050000D03*
X-14850000Y-10050000D03*
X-14850000Y-9050000D03*
X-14350000Y-8000000D03*
X-13600000Y-7250000D03*
X-12850000Y-6500000D03*
X-12050000Y-5700000D03*
X-12950000Y-11050000D03*
X-12950000Y-10050000D03*
X-12700000Y-9150000D03*
X-12050000Y-8450000D03*
X-11350000Y-7800000D03*
X-10600000Y-7050000D03*
X-5800000Y-16625000D03*
X-9475000Y-6900000D03*
X-8700000Y-6150000D03*
X-8500000Y-5050000D03*
X-9050000Y-3975000D03*
X-10025000Y-3475000D03*
X-11150000Y-3675000D03*
X-11950000Y-4525000D03*
X-13100000Y-30500000D03*
%TO.N,+5V*%
X-42550000Y-10350000D03*
X-42500000Y-14649980D03*
%TO.N,STM_RESET*%
X-59250000Y-33450000D03*
X-41650000Y-36425000D03*
X-19225000Y-39450000D03*
X-21675000Y-39450000D03*
X-59250000Y-20499992D03*
X-62100000Y-19100000D03*
%TO.N,Net-(D8-Pad1)*%
X-30350000Y-43300000D03*
X-30350000Y-40900000D03*
%TO.N,Net-(D9-Pad1)*%
X-25350000Y-43300000D03*
X-25350000Y-40900000D03*
%TO.N,/SWCLK*%
X-33650000Y-35275019D03*
X-30381645Y-34568355D03*
%TO.N,STM_CS*%
X-42969130Y-31975000D03*
X-51250000Y-20500000D03*
X-32360953Y-31951396D03*
X-28375000Y-31950000D03*
%TO.N,GPIO0*%
X-44000000Y-22550000D03*
X-41849990Y-23600000D03*
%TO.N,CAN_TX*%
X-27350000Y-32000000D03*
X-27150000Y-27200000D03*
%TO.N,CAN_RX*%
X-26300000Y-32000000D03*
X-26150000Y-27150000D03*
%TO.N,CAN_TERM*%
X-25000000Y-31500000D03*
X-25125000Y-27125000D03*
%TO.N,MOSI*%
X-51250000Y-35850000D03*
X-43750000Y-35700000D03*
%TO.N,MISO*%
X-43050000Y-34950000D03*
X-53250000Y-35850000D03*
%TO.N,SCLK*%
X-55250000Y-35850000D03*
X-43750000Y-34200000D03*
%TO.N,STM_RDY*%
X-43750000Y-32700000D03*
X-57250000Y-32700000D03*
%TO.N,Net-(R26-Pad2)*%
X-26182024Y-13971104D03*
X-29000000Y-13975000D03*
%TD*%
D31*
%TO.N,GND*%
X-63625000Y-12525000D02*
X-63100000Y-12000000D01*
X-64200000Y-12525000D02*
X-63625000Y-12525000D01*
D32*
X-49250000Y-19905000D02*
X-49250000Y-23050000D01*
X-48230000Y-18885000D02*
X-49250000Y-19905000D01*
X-35350000Y-12750000D02*
X-35350000Y-11475000D01*
X-28550000Y-14725000D02*
X-29000000Y-15175000D01*
X-27800000Y-14725000D02*
X-28550000Y-14725000D01*
X-63250000Y-42625000D02*
X-63250000Y-43850000D01*
X-42675000Y-19375000D02*
X-41850000Y-18550000D01*
X-42675000Y-19600000D02*
X-42675000Y-19375000D01*
X-43550000Y-37050000D02*
X-42450010Y-37050000D01*
X-40500000Y-16550000D02*
X-39100000Y-16550000D01*
X-32650000Y-12675000D02*
X-32650000Y-12224998D01*
X-32650000Y-12224998D02*
X-33100000Y-11774998D01*
X-27675000Y-34250000D02*
X-28750000Y-34250000D01*
D33*
X-21850000Y-33565685D02*
X-21850000Y-33000000D01*
X-23362500Y-33750000D02*
X-22034315Y-33750000D01*
X-22034315Y-33750000D02*
X-21850000Y-33565685D01*
X-17350000Y-34250000D02*
X-17950000Y-34250000D01*
X-16950000Y-34650000D02*
X-17350000Y-34250000D01*
X-16950000Y-35662500D02*
X-16950000Y-34650000D01*
X-21100000Y-25950000D02*
X-20700000Y-25950000D01*
X-21450000Y-26300000D02*
X-21100000Y-25950000D01*
X-21450000Y-27337500D02*
X-21450000Y-26300000D01*
X-22675000Y-40900000D02*
X-21700000Y-40900000D01*
X-21700000Y-40900000D02*
X-21699994Y-40899994D01*
X-13725000Y-38275000D02*
X-13050000Y-38950000D01*
X-13725000Y-38250000D02*
X-13725000Y-38275000D01*
D32*
X-21875000Y-3800000D02*
X-22900000Y-3800000D01*
X-21875000Y-6650000D02*
X-22900000Y-6650000D01*
X-32700000Y-40900000D02*
X-31700000Y-40900000D01*
D33*
X-11725000Y-40250000D02*
X-12850000Y-40250000D01*
X-5200000Y-34250000D02*
X-3350000Y-34250000D01*
X-10225000Y-36250000D02*
X-8900000Y-36250000D01*
D32*
X-26693425Y-40900000D02*
X-26622938Y-40829513D01*
X-27675000Y-40900000D02*
X-26693425Y-40900000D01*
D33*
X-32980000Y-38430000D02*
X-33000000Y-38450000D01*
X-32980000Y-37435000D02*
X-32980000Y-38430000D01*
X-44600000Y-41875000D02*
X-45975000Y-41875000D01*
X-21825000Y-18225000D02*
X-20825000Y-18225000D01*
X-21875000Y-9475000D02*
X-22875000Y-9475000D01*
D32*
X-28475000Y-22160000D02*
X-28485000Y-22150000D01*
X-28475000Y-23750000D02*
X-28475000Y-22160000D01*
X-36200000Y-23900000D02*
X-37550000Y-23900000D01*
D33*
X-21875000Y-20925000D02*
X-21875000Y-22000000D01*
X-23500000Y-24575000D02*
X-23500000Y-25650000D01*
D32*
X-51075000Y-4300000D02*
X-51075000Y-3225000D01*
X-66575000Y-16150000D02*
X-65575000Y-16150000D01*
X-44750000Y-3250000D02*
X-44750000Y-4550000D01*
X-44725000Y-3225000D02*
X-44750000Y-3250000D01*
D31*
%TO.N,Net-(C3-Pad2)*%
X-51725000Y-11700000D02*
X-51150000Y-12275000D01*
X-54850000Y-11700000D02*
X-51725000Y-11700000D01*
D32*
%TO.N,+3V3*%
X-60250000Y-42675000D02*
X-57250000Y-42675000D01*
D31*
X-49250000Y-37050000D02*
X-45450000Y-37050000D01*
D32*
X-49250000Y-41380002D02*
X-49250000Y-37050000D01*
X-51369999Y-43500001D02*
X-49250000Y-41380002D01*
X-56424999Y-43500001D02*
X-51369999Y-43500001D01*
X-57250000Y-42675000D02*
X-56424999Y-43500001D01*
X-50144990Y-44725010D02*
X-51369999Y-43500001D01*
X-38537510Y-44725010D02*
X-50144990Y-44725010D01*
D31*
X-45450000Y-28600000D02*
X-45450000Y-37050000D01*
X-42700000Y-23125000D02*
X-42700000Y-25850000D01*
X-39175000Y-19600000D02*
X-42700000Y-23125000D01*
X-42700000Y-25850000D02*
X-45450000Y-28600000D01*
D33*
X-15037500Y-34250000D02*
X-16150000Y-34250000D01*
X-16450000Y-34550000D02*
X-16450000Y-35662500D01*
X-16150000Y-34250000D02*
X-16450000Y-34550000D01*
D31*
X-11787500Y-27750000D02*
X-15450000Y-27750000D01*
X-15450000Y-27750000D02*
X-15750000Y-28050000D01*
X-29500000Y-28050000D02*
X-22800000Y-28050000D01*
X-31150000Y-26400000D02*
X-29500000Y-28050000D01*
X-32500000Y-19575000D02*
X-31150000Y-20925000D01*
D33*
X-21897905Y-34250000D02*
X-23362500Y-34250000D01*
X-21124999Y-33477094D02*
X-21897905Y-34250000D01*
X-21124999Y-32651999D02*
X-21124999Y-33477094D01*
X-21950000Y-31826998D02*
X-21124999Y-32651999D01*
X-21950000Y-27337500D02*
X-21950000Y-31826998D01*
X-23362500Y-34250000D02*
X-26125000Y-34250000D01*
X-13775000Y-34250000D02*
X-11775000Y-36250000D01*
X-15037500Y-34250000D02*
X-13775000Y-34250000D01*
D31*
X-11825000Y-36300000D02*
X-11775000Y-36250000D01*
X-11825000Y-38250000D02*
X-11825000Y-36300000D01*
D33*
X-16450000Y-35662500D02*
X-16450000Y-37800000D01*
X-16000000Y-38250000D02*
X-15275000Y-38250000D01*
X-16450000Y-37800000D02*
X-16000000Y-38250000D01*
D31*
X-15275000Y-40950000D02*
X-15300000Y-40975000D01*
X-15275000Y-38250000D02*
X-15275000Y-40950000D01*
D32*
X-37712500Y-43900000D02*
X-38537510Y-44725010D01*
X-37712500Y-43300000D02*
X-37712500Y-43900000D01*
D31*
X-39150000Y-19575000D02*
X-39175000Y-19600000D01*
X-36800000Y-19575000D02*
X-39150000Y-19575000D01*
X-31150000Y-20925000D02*
X-31150000Y-26400000D01*
D33*
X-21950000Y-27337500D02*
X-21950000Y-24575000D01*
D31*
X-37225000Y-19150000D02*
X-36800000Y-19575000D01*
X-37225000Y-11725000D02*
X-37225000Y-19150000D01*
X-37575000Y-11375000D02*
X-37225000Y-11725000D01*
X-38250000Y-11375000D02*
X-37575000Y-11375000D01*
X-36800000Y-19575000D02*
X-35350000Y-19575000D01*
X-35350000Y-19575000D02*
X-32500000Y-19575000D01*
D32*
%TO.N,ESP_RESET*%
X-63250000Y-39750000D02*
X-63250000Y-41075000D01*
X-63250000Y-37050000D02*
X-63250000Y-39750000D01*
X-64350000Y-19100000D02*
X-64350000Y-34000000D01*
X-63250000Y-35100000D02*
X-63250000Y-37050000D01*
X-64350000Y-34000000D02*
X-63250000Y-35100000D01*
X-60300000Y-41075000D02*
X-60250000Y-41025000D01*
X-63250000Y-41075000D02*
X-60300000Y-41075000D01*
D33*
X-59400000Y-41875000D02*
X-60250000Y-41025000D01*
X-52400000Y-41875000D02*
X-59400000Y-41875000D01*
D32*
%TO.N,Net-(C9-Pad2)*%
X-56750000Y-10870000D02*
X-56750000Y-11700000D01*
X-55680000Y-9800000D02*
X-56750000Y-10870000D01*
X-52725000Y-9800000D02*
X-55680000Y-9800000D01*
X-52725000Y-7100000D02*
X-52675000Y-7050000D01*
X-52725000Y-9800000D02*
X-52725000Y-7100000D01*
X-52675000Y-4350000D02*
X-52725000Y-4300000D01*
X-52675000Y-7050000D02*
X-52675000Y-4350000D01*
D33*
%TO.N,GNDA*%
X-13350000Y-30750000D02*
X-13100000Y-30500000D01*
X-15037500Y-30750000D02*
X-13350000Y-30750000D01*
%TO.N,VDDA*%
X-13550000Y-29750000D02*
X-11775000Y-29750000D01*
X-15012510Y-30225010D02*
X-14025010Y-30225010D01*
X-14025010Y-30225010D02*
X-13550000Y-29750000D01*
X-15037500Y-30250000D02*
X-15012510Y-30225010D01*
D31*
X-11775000Y-29275000D02*
X-11775000Y-29750000D01*
X-10250000Y-27750000D02*
X-11775000Y-29275000D01*
X-10212500Y-27750000D02*
X-10250000Y-27750000D01*
D33*
%TO.N,+5V*%
X-42500000Y-13400000D02*
X-42500000Y-14649980D01*
D31*
X-42000000Y-2000000D02*
X-43150000Y-3150000D01*
X-8450000Y-2000000D02*
X-42000000Y-2000000D01*
X-43150000Y-3150000D02*
X-43150000Y-7850000D01*
X-8450000Y-2000000D02*
X-7350000Y-3100000D01*
X-7350000Y-3100000D02*
X-7350000Y-13700000D01*
X-7650000Y-14000000D02*
X-8600000Y-14000000D01*
X-7350000Y-13700000D02*
X-7650000Y-14000000D01*
D32*
X-35350000Y-14300000D02*
X-34725000Y-13675000D01*
X-32250000Y-13675000D02*
X-31350000Y-14575000D01*
X-34725000Y-13675000D02*
X-32250000Y-13675000D01*
D31*
X-36525000Y-13125000D02*
X-35350000Y-14300000D01*
X-36525000Y-11000000D02*
X-36525000Y-13125000D01*
X-37175000Y-10350000D02*
X-36525000Y-11000000D01*
X-42550000Y-10350000D02*
X-37175000Y-10350000D01*
X-35350000Y-16975000D02*
X-35350000Y-14300000D01*
D33*
%TO.N,STM_RESET*%
X-59250000Y-33450000D02*
X-59250000Y-23050000D01*
X-11000000Y-37425000D02*
X-10175000Y-38250000D01*
X-11407542Y-31250000D02*
X-11000000Y-31657542D01*
X-11000000Y-31657542D02*
X-11000000Y-37425000D01*
X-15037500Y-31250000D02*
X-11407542Y-31250000D01*
X-10175000Y-38250000D02*
X-10175000Y-40250000D01*
X-19225000Y-41024002D02*
X-19225000Y-39450000D01*
X-18448992Y-41800010D02*
X-19225000Y-41024002D01*
X-11725010Y-41800010D02*
X-18448992Y-41800010D01*
X-10175000Y-40250000D02*
X-11725010Y-41800010D01*
X-41650000Y-36450000D02*
X-38650000Y-39450000D01*
X-41650000Y-36425000D02*
X-41650000Y-36450000D01*
X-34250000Y-37435000D02*
X-34250000Y-39450000D01*
X-34250000Y-39450000D02*
X-21675000Y-39450000D01*
X-38650000Y-39450000D02*
X-34250000Y-39450000D01*
D32*
X-59250000Y-23050000D02*
X-59250000Y-20499992D01*
X-61050000Y-19100000D02*
X-62100000Y-19100000D01*
D31*
%TO.N,/OA_PWR*%
X-27215000Y-21175000D02*
X-27215000Y-22150000D01*
X-26557210Y-20517210D02*
X-27215000Y-21175000D01*
X-23425000Y-20925000D02*
X-23832790Y-20517210D01*
X-23832790Y-20517210D02*
X-26557210Y-20517210D01*
X-30532790Y-20517210D02*
X-26557210Y-20517210D01*
X-32775000Y-18275000D02*
X-30532790Y-20517210D01*
X-35350000Y-18275000D02*
X-32775000Y-18275000D01*
D32*
%TO.N,Net-(D1-Pad2)*%
X-69400000Y-11450000D02*
X-68200000Y-10250000D01*
X-69400000Y-12750000D02*
X-69400000Y-11450000D01*
D31*
%TO.N,Net-(D2-Pad1)*%
X-56750000Y-13900000D02*
X-56750000Y-13450000D01*
X-58225000Y-11975000D02*
X-58900000Y-11975000D01*
X-56750000Y-13450000D02*
X-58225000Y-11975000D01*
D32*
%TO.N,/RXD*%
X-61250000Y-20900000D02*
X-61250000Y-23050000D01*
X-54950000Y-19650000D02*
X-60000000Y-19650000D01*
X-60000000Y-19650000D02*
X-61250000Y-20900000D01*
X-54700000Y-19900000D02*
X-54950000Y-19650000D01*
%TO.N,Net-(D6-Pad1)*%
X-50515000Y-16600000D02*
X-49500000Y-17615000D01*
X-54700000Y-16600000D02*
X-50515000Y-16600000D01*
D33*
%TO.N,CAN_LED*%
X-31262500Y-41850000D02*
X-32712500Y-43300000D01*
X-21350000Y-41850000D02*
X-31262500Y-41850000D01*
X-20950000Y-41450000D02*
X-21350000Y-41850000D01*
X-20950000Y-35662500D02*
X-20950000Y-41450000D01*
%TO.N,Net-(D7-Pad1)*%
X-34287500Y-40962500D02*
X-34350000Y-40900000D01*
X-34287500Y-43300000D02*
X-34287500Y-40962500D01*
%TO.N,SPI_LED*%
X-26712500Y-42300000D02*
X-27712500Y-43300000D01*
X-21086410Y-42300000D02*
X-26712500Y-42300000D01*
X-20450000Y-41663590D02*
X-21086410Y-42300000D01*
X-20450000Y-35662500D02*
X-20450000Y-41663590D01*
%TO.N,Net-(D8-Pad1)*%
X-29287500Y-43300000D02*
X-30350000Y-43300000D01*
X-30350000Y-40900000D02*
X-29325000Y-40900000D01*
%TO.N,ERROR_LED*%
X-19950000Y-35662500D02*
X-19950000Y-41800000D01*
X-21450000Y-43300000D02*
X-19950000Y-41800000D01*
X-22712500Y-43300000D02*
X-21450000Y-43300000D01*
%TO.N,Net-(D9-Pad1)*%
X-24287500Y-43300000D02*
X-25350000Y-43300000D01*
X-25350000Y-40900000D02*
X-24325000Y-40900000D01*
D32*
%TO.N,Net-(D10-Pad1)*%
X-39325000Y-43262500D02*
X-39287500Y-43300000D01*
D33*
X-39287500Y-40937500D02*
X-39325000Y-40900000D01*
X-39287500Y-43300000D02*
X-39287500Y-40937500D01*
D32*
%TO.N,/CANL*%
X-27215000Y-17200000D02*
X-27215000Y-15840000D01*
X-27215000Y-15840000D02*
X-26950000Y-15575000D01*
X-26950000Y-14094998D02*
X-28319998Y-12725000D01*
X-28319998Y-12725000D02*
X-28750000Y-12725000D01*
X-26950000Y-15575000D02*
X-26950000Y-14094998D01*
%TO.N,/CANH*%
X-23125000Y-16100000D02*
X-23125000Y-13550000D01*
X-25550010Y-18525010D02*
X-23125000Y-16100000D01*
X-28134990Y-18525010D02*
X-25550010Y-18525010D01*
X-23125000Y-13550000D02*
X-23975000Y-12700000D01*
X-28485000Y-18175000D02*
X-28134990Y-18525010D01*
X-28485000Y-17200000D02*
X-28485000Y-18175000D01*
D33*
%TO.N,/SWCLK*%
X-34250000Y-35875019D02*
X-33650000Y-35275019D01*
X-34250000Y-36165000D02*
X-34250000Y-35875019D01*
X-29287500Y-35662500D02*
X-21950000Y-35662500D01*
X-30381645Y-34568355D02*
X-29287500Y-35662500D01*
%TO.N,/SWDIO*%
X-30088596Y-33250000D02*
X-31388615Y-34550019D01*
X-23362500Y-33250000D02*
X-30088596Y-33250000D01*
X-31388615Y-34550019D02*
X-34900019Y-34550019D01*
X-35520000Y-35170000D02*
X-35520000Y-36165000D01*
X-34900019Y-34550019D02*
X-35520000Y-35170000D01*
D32*
%TO.N,/TXD*%
X-63250000Y-19150000D02*
X-63250000Y-23050000D01*
X-62249999Y-18149999D02*
X-63250000Y-19150000D01*
X-54375001Y-18149999D02*
X-62249999Y-18149999D01*
X-52896299Y-19628701D02*
X-54375001Y-18149999D01*
X-50243701Y-19628701D02*
X-52896299Y-19628701D01*
X-49500000Y-18885000D02*
X-50243701Y-19628701D01*
D33*
%TO.N,/BOOT0*%
X-18450000Y-40060000D02*
X-18000000Y-40510000D01*
X-18450000Y-35662500D02*
X-18450000Y-40060000D01*
D32*
%TO.N,GPIO2*%
X-46109998Y-26050000D02*
X-50250000Y-26050000D01*
X-45500000Y-22269998D02*
X-45500000Y-25440002D01*
X-44780002Y-21550000D02*
X-45500000Y-22269998D01*
X-50250000Y-26050000D02*
X-53250000Y-23050000D01*
X-45500000Y-25440002D02*
X-46109998Y-26050000D01*
X-42775000Y-21550000D02*
X-44780002Y-21550000D01*
X-40825000Y-19600000D02*
X-42775000Y-21550000D01*
D33*
%TO.N,V_B2*%
X-19950000Y-9750000D02*
X-20225000Y-9475000D01*
X-19950000Y-27337500D02*
X-19950000Y-9750000D01*
%TO.N,V_B1*%
X-19450000Y-7425000D02*
X-20225000Y-6650000D01*
X-19450000Y-27337500D02*
X-19450000Y-7425000D01*
%TO.N,V_B0*%
X-18925010Y-5099990D02*
X-20225000Y-3800000D01*
X-18937500Y-27337500D02*
X-18925010Y-27325010D01*
X-18925010Y-27325010D02*
X-18925010Y-5099990D01*
X-18950000Y-27337500D02*
X-18937500Y-27337500D01*
%TO.N,/XIN*%
X-14900000Y-32250000D02*
X-14875010Y-32274990D01*
X-15037500Y-32250000D02*
X-14900000Y-32250000D01*
X-13825000Y-32250000D02*
X-11825000Y-34250000D01*
X-15037500Y-32250000D02*
X-13825000Y-32250000D01*
%TO.N,/XOUT*%
X-12325000Y-31750000D02*
X-11825000Y-32250000D01*
X-15037500Y-31750000D02*
X-12325000Y-31750000D01*
D32*
%TO.N,CH_PD*%
X-59250000Y-39025000D02*
X-57250000Y-41025000D01*
X-59250000Y-37050000D02*
X-59250000Y-39025000D01*
%TO.N,STM_CS*%
X-50250000Y-24050000D02*
X-51250000Y-23050000D01*
X-47400000Y-24050000D02*
X-50250000Y-24050000D01*
X-47000000Y-23650000D02*
X-47400000Y-24050000D01*
X-47000000Y-22700000D02*
X-47000000Y-23650000D01*
X-44325000Y-20025000D02*
X-47000000Y-22700000D01*
X-44325000Y-19600000D02*
X-44325000Y-20025000D01*
D33*
X-51250000Y-23050000D02*
X-51250000Y-20500000D01*
X-32384557Y-31975000D02*
X-32360953Y-31951396D01*
X-42969130Y-31975000D02*
X-32384557Y-31975000D01*
X-23362956Y-30749544D02*
X-23362500Y-30750000D01*
X-27174544Y-30749544D02*
X-23362956Y-30749544D01*
X-28375000Y-31950000D02*
X-27174544Y-30749544D01*
D32*
%TO.N,GPIO0*%
X-50250000Y-28050000D02*
X-46109998Y-28050000D01*
X-55250000Y-23050000D02*
X-50250000Y-28050000D01*
X-46109998Y-28050000D02*
X-45554999Y-27495001D01*
X-44000000Y-25940002D02*
X-44000000Y-23900000D01*
X-45554999Y-27495001D02*
X-44000000Y-25940002D01*
X-44000000Y-23900000D02*
X-44000000Y-22550000D01*
X-37675000Y-40900000D02*
X-38500010Y-40074990D01*
X-38500010Y-40074990D02*
X-42475010Y-40074990D01*
X-42475010Y-40074990D02*
X-44500000Y-38050000D01*
X-44500000Y-38050000D02*
X-44500000Y-28515685D01*
X-44500000Y-28515685D02*
X-41849990Y-25865675D01*
X-41849990Y-25865675D02*
X-41849990Y-23600000D01*
D33*
%TO.N,CAN_TX*%
X-26600000Y-32750000D02*
X-23362500Y-32750000D01*
X-27350000Y-32000000D02*
X-26600000Y-32750000D01*
X-29150000Y-27200000D02*
X-29755000Y-26595000D01*
X-27150000Y-27200000D02*
X-29150000Y-27200000D01*
X-29755000Y-26595000D02*
X-29755000Y-22150000D01*
%TO.N,CAN_RX*%
X-25575637Y-32250000D02*
X-23362500Y-32250000D01*
X-25825637Y-32000000D02*
X-25575637Y-32250000D01*
X-26300000Y-32000000D02*
X-25825637Y-32000000D01*
X-26150000Y-27150000D02*
X-25945000Y-26945000D01*
X-25945000Y-26945000D02*
X-25945000Y-22150000D01*
%TO.N,CAN_TERM*%
X-24750000Y-31750000D02*
X-23362500Y-31750000D01*
X-25000000Y-31500000D02*
X-24750000Y-31750000D01*
X-30275000Y-19925000D02*
X-32650000Y-17550000D01*
X-32650000Y-17550000D02*
X-32650000Y-14575000D01*
X-21000000Y-19925000D02*
X-30275000Y-19925000D01*
X-20400000Y-20525000D02*
X-21000000Y-19925000D01*
X-20400000Y-22350000D02*
X-20400000Y-20525000D01*
X-21125000Y-23075000D02*
X-20400000Y-22350000D01*
X-24250000Y-23075000D02*
X-21125000Y-23075000D01*
X-25125000Y-23950000D02*
X-24250000Y-23075000D01*
X-25125000Y-27125000D02*
X-25125000Y-23950000D01*
%TO.N,MOSI*%
X-51250000Y-35850000D02*
X-51250000Y-37050000D01*
X-23362500Y-30250000D02*
X-27725006Y-30250000D01*
X-42726998Y-35700000D02*
X-41126998Y-34100000D01*
X-43750000Y-35700000D02*
X-42726998Y-35700000D01*
X-31575015Y-34100009D02*
X-27725006Y-30250000D01*
X-41126989Y-34100009D02*
X-31575015Y-34100009D01*
X-41126998Y-34100000D02*
X-41126989Y-34100009D01*
%TO.N,MISO*%
X-53250000Y-35850000D02*
X-53250000Y-37050000D01*
X-41750000Y-33650000D02*
X-43050000Y-34950000D01*
X-31761417Y-33650000D02*
X-41750000Y-33650000D01*
X-27861417Y-29750000D02*
X-31761417Y-33650000D01*
X-23362500Y-29750000D02*
X-27861417Y-29750000D01*
%TO.N,SCLK*%
X-55250000Y-35850000D02*
X-55250000Y-37050000D01*
X-27997828Y-29250000D02*
X-23362500Y-29250000D01*
X-31947828Y-33200000D02*
X-27997828Y-29250000D01*
X-42750000Y-33200000D02*
X-31947828Y-33200000D01*
X-43750000Y-34200000D02*
X-42750000Y-33200000D01*
%TO.N,STM_RDY*%
X-57250000Y-32700000D02*
X-57250000Y-23050000D01*
X-23362500Y-28750000D02*
X-28134239Y-28750000D01*
X-32084238Y-32700000D02*
X-43750000Y-32700000D01*
X-28134239Y-28750000D02*
X-32084238Y-32700000D01*
%TO.N,DAC*%
X-15550000Y-15875000D02*
X-16950000Y-17275000D01*
X-13900000Y-15875000D02*
X-15550000Y-15875000D01*
X-16950000Y-17275000D02*
X-16950000Y-27337500D01*
D32*
%TO.N,Net-(J6-Pad1)*%
X-12225000Y-18700000D02*
X-11100000Y-18700000D01*
X-12800000Y-18125000D02*
X-12225000Y-18700000D01*
X-12800000Y-14475000D02*
X-12800000Y-18125000D01*
X-13300000Y-13975000D02*
X-12800000Y-14475000D01*
X-13900000Y-13975000D02*
X-13300000Y-13975000D01*
D31*
X-13900000Y-8900000D02*
X-10300000Y-5300000D01*
X-13900000Y-13975000D02*
X-13900000Y-8900000D01*
%TO.N,Net-(JP2-Pad1)*%
X-15725000Y-43050000D02*
X-15300000Y-42625000D01*
X-18000000Y-43050000D02*
X-15725000Y-43050000D01*
%TO.N,Net-(R3-Pad1)*%
X-62350000Y-10875000D02*
X-62325000Y-10900000D01*
X-64200000Y-10875000D02*
X-62350000Y-10875000D01*
D32*
%TO.N,Net-(R13-Pad2)*%
X-9975000Y-34450000D02*
X-10175000Y-34250000D01*
D33*
X-7450000Y-34250000D02*
X-10175000Y-34250000D01*
X-6250000Y-35450000D02*
X-7450000Y-34250000D01*
X-5200000Y-35450000D02*
X-6250000Y-35450000D01*
%TO.N,Net-(R14-Pad2)*%
X-9375000Y-33050000D02*
X-10175000Y-32250000D01*
X-5200000Y-33050000D02*
X-9375000Y-33050000D01*
D32*
%TO.N,Net-(R18-Pad2)*%
X-13900000Y-20725000D02*
X-13900000Y-19700000D01*
X-8300000Y-20350000D02*
X-9275000Y-21325000D01*
X-12925000Y-21325000D02*
X-13900000Y-20350000D01*
X-9275000Y-21325000D02*
X-12925000Y-21325000D01*
%TO.N,Net-(R18-Pad1)*%
X-11700000Y-15875000D02*
X-10600000Y-15875000D01*
X-10600000Y-15875000D02*
X-10000000Y-16475000D01*
X-10000000Y-16475000D02*
X-10000000Y-18175000D01*
X-9475000Y-18700000D02*
X-8300000Y-18700000D01*
X-10000000Y-18175000D02*
X-9475000Y-18700000D01*
X-9950000Y-20350000D02*
X-8300000Y-18700000D01*
X-11100000Y-20350000D02*
X-9950000Y-20350000D01*
D33*
%TO.N,Net-(R21-Pad1)*%
X-28800000Y-19025000D02*
X-24275000Y-19025000D01*
X-24275000Y-19025000D02*
X-23475000Y-18225000D01*
X-29755000Y-18070000D02*
X-28800000Y-19025000D01*
X-29755000Y-17200000D02*
X-29755000Y-18070000D01*
D32*
%TO.N,Net-(R26-Pad2)*%
X-29000000Y-13975000D02*
X-29624999Y-13350001D01*
X-32000000Y-13180002D02*
X-32000000Y-12675000D01*
X-31830001Y-13350001D02*
X-32000000Y-13180002D01*
X-29624999Y-13350001D02*
X-31830001Y-13350001D01*
X-25803128Y-14350000D02*
X-26182024Y-13971104D01*
X-23975000Y-14350000D02*
X-25803128Y-14350000D01*
D33*
%TO.N,Net-(TP1-Pad1)*%
X-21450000Y-35662500D02*
X-21450000Y-37100000D01*
X-22400000Y-38050000D02*
X-24400000Y-38050000D01*
X-21450000Y-37100000D02*
X-22400000Y-38050000D01*
%TD*%
D34*
%TO.N,Net-(J1-Pad1)*%
X-54877000Y-6847394D02*
X-56802606Y-8773000D01*
X-67523000Y-8773000D01*
X-67523000Y-7127000D01*
X-61750000Y-7127000D01*
X-61725224Y-7124560D01*
X-61701399Y-7117333D01*
X-61679443Y-7105597D01*
X-61660197Y-7089803D01*
X-59660197Y-5089803D01*
X-59644403Y-5070557D01*
X-59632667Y-5048601D01*
X-59625440Y-5024776D01*
X-59623000Y-5000000D01*
X-59623000Y-1402000D01*
X-54877000Y-1402000D01*
X-54877000Y-6847394D01*
%TA.AperFunction,Conductor*%
D35*
G36*
X-54877000Y-6847394D02*
G01*
X-56802606Y-8773000D01*
X-67523000Y-8773000D01*
X-67523000Y-7127000D01*
X-61750000Y-7127000D01*
X-61725224Y-7124560D01*
X-61701399Y-7117333D01*
X-61679443Y-7105597D01*
X-61660197Y-7089803D01*
X-59660197Y-5089803D01*
X-59644403Y-5070557D01*
X-59632667Y-5048601D01*
X-59625440Y-5024776D01*
X-59623000Y-5000000D01*
X-59623000Y-1402000D01*
X-54877000Y-1402000D01*
X-54877000Y-6847394D01*
G37*
%TD.AperFunction*%
%TD*%
D34*
%TO.N,/Vin*%
X-65627000Y-13250000D02*
X-65624560Y-13274776D01*
X-65617333Y-13298601D01*
X-65605597Y-13320557D01*
X-65589803Y-13339803D01*
X-65570557Y-13355597D01*
X-65548601Y-13367333D01*
X-65524776Y-13374560D01*
X-65500000Y-13377000D01*
X-62470606Y-13377000D01*
X-62449988Y-13444970D01*
X-62414981Y-13510463D01*
X-62367869Y-13567869D01*
X-62310463Y-13614981D01*
X-62244970Y-13649988D01*
X-62173905Y-13671545D01*
X-62100000Y-13678824D01*
X-60900000Y-13678824D01*
X-60826095Y-13671545D01*
X-60755030Y-13649988D01*
X-60689537Y-13614981D01*
X-60632131Y-13567869D01*
X-60585019Y-13510463D01*
X-60550012Y-13444970D01*
X-60529394Y-13377000D01*
X-58527000Y-13377000D01*
X-58527000Y-14400000D01*
X-58524560Y-14424776D01*
X-58517333Y-14448601D01*
X-58505597Y-14470557D01*
X-58489803Y-14489803D01*
X-58470557Y-14505597D01*
X-58448601Y-14517333D01*
X-58424776Y-14524560D01*
X-58400000Y-14527000D01*
X-57439539Y-14527000D01*
X-57424988Y-14574970D01*
X-57389981Y-14640463D01*
X-57342869Y-14697869D01*
X-57285463Y-14744981D01*
X-57219970Y-14779988D01*
X-57148905Y-14801545D01*
X-57075000Y-14808824D01*
X-56425000Y-14808824D01*
X-56351095Y-14801545D01*
X-56280030Y-14779988D01*
X-56214537Y-14744981D01*
X-56157131Y-14697869D01*
X-56110019Y-14640463D01*
X-56075012Y-14574970D01*
X-56053811Y-14505078D01*
X-56035197Y-14489803D01*
X-56019403Y-14470557D01*
X-56007667Y-14448601D01*
X-56000440Y-14424776D01*
X-55998000Y-14400000D01*
X-55998000Y-13502000D01*
X-55602000Y-13502000D01*
X-55602000Y-15923720D01*
X-55614981Y-15939537D01*
X-55649988Y-16005030D01*
X-55671545Y-16076095D01*
X-55678824Y-16150000D01*
X-55678824Y-17050000D01*
X-55671545Y-17123905D01*
X-55649988Y-17194970D01*
X-55614981Y-17260463D01*
X-55604692Y-17273000D01*
X-57573000Y-17273000D01*
X-57573000Y-15400000D01*
X-57575440Y-15375224D01*
X-57582667Y-15351399D01*
X-57594403Y-15329443D01*
X-57610197Y-15310197D01*
X-57629443Y-15294403D01*
X-57651399Y-15282667D01*
X-57675224Y-15275440D01*
X-57700000Y-15273000D01*
X-66573000Y-15273000D01*
X-66573000Y-9927000D01*
X-65627000Y-9927000D01*
X-65627000Y-13250000D01*
%TA.AperFunction,Conductor*%
D35*
G36*
X-65627000Y-13250000D02*
G01*
X-65624560Y-13274776D01*
X-65617333Y-13298601D01*
X-65605597Y-13320557D01*
X-65589803Y-13339803D01*
X-65570557Y-13355597D01*
X-65548601Y-13367333D01*
X-65524776Y-13374560D01*
X-65500000Y-13377000D01*
X-62470606Y-13377000D01*
X-62449988Y-13444970D01*
X-62414981Y-13510463D01*
X-62367869Y-13567869D01*
X-62310463Y-13614981D01*
X-62244970Y-13649988D01*
X-62173905Y-13671545D01*
X-62100000Y-13678824D01*
X-60900000Y-13678824D01*
X-60826095Y-13671545D01*
X-60755030Y-13649988D01*
X-60689537Y-13614981D01*
X-60632131Y-13567869D01*
X-60585019Y-13510463D01*
X-60550012Y-13444970D01*
X-60529394Y-13377000D01*
X-58527000Y-13377000D01*
X-58527000Y-14400000D01*
X-58524560Y-14424776D01*
X-58517333Y-14448601D01*
X-58505597Y-14470557D01*
X-58489803Y-14489803D01*
X-58470557Y-14505597D01*
X-58448601Y-14517333D01*
X-58424776Y-14524560D01*
X-58400000Y-14527000D01*
X-57439539Y-14527000D01*
X-57424988Y-14574970D01*
X-57389981Y-14640463D01*
X-57342869Y-14697869D01*
X-57285463Y-14744981D01*
X-57219970Y-14779988D01*
X-57148905Y-14801545D01*
X-57075000Y-14808824D01*
X-56425000Y-14808824D01*
X-56351095Y-14801545D01*
X-56280030Y-14779988D01*
X-56214537Y-14744981D01*
X-56157131Y-14697869D01*
X-56110019Y-14640463D01*
X-56075012Y-14574970D01*
X-56053811Y-14505078D01*
X-56035197Y-14489803D01*
X-56019403Y-14470557D01*
X-56007667Y-14448601D01*
X-56000440Y-14424776D01*
X-55998000Y-14400000D01*
X-55998000Y-13502000D01*
X-55602000Y-13502000D01*
X-55602000Y-15923720D01*
X-55614981Y-15939537D01*
X-55649988Y-16005030D01*
X-55671545Y-16076095D01*
X-55678824Y-16150000D01*
X-55678824Y-17050000D01*
X-55671545Y-17123905D01*
X-55649988Y-17194970D01*
X-55614981Y-17260463D01*
X-55604692Y-17273000D01*
X-57573000Y-17273000D01*
X-57573000Y-15400000D01*
X-57575440Y-15375224D01*
X-57582667Y-15351399D01*
X-57594403Y-15329443D01*
X-57610197Y-15310197D01*
X-57629443Y-15294403D01*
X-57651399Y-15282667D01*
X-57675224Y-15275440D01*
X-57700000Y-15273000D01*
X-66573000Y-15273000D01*
X-66573000Y-9927000D01*
X-65627000Y-9927000D01*
X-65627000Y-13250000D01*
G37*
%TD.AperFunction*%
%TD*%
D34*
%TO.N,Net-(D2-Pad1)*%
X-58527000Y-12855828D02*
X-58625000Y-12846176D01*
X-59175000Y-12846176D01*
X-59287923Y-12857298D01*
X-59339686Y-12873000D01*
X-61973000Y-12873000D01*
X-61973000Y-11730848D01*
X-61903494Y-11709764D01*
X-61803423Y-11656275D01*
X-61715710Y-11584290D01*
X-61643725Y-11496577D01*
X-61590236Y-11396506D01*
X-61557298Y-11287923D01*
X-61546176Y-11175000D01*
X-61546176Y-10625000D01*
X-61555828Y-10527000D01*
X-58527000Y-10527000D01*
X-58527000Y-12855828D01*
%TA.AperFunction,Conductor*%
D35*
G36*
X-58527000Y-12855828D02*
G01*
X-58625000Y-12846176D01*
X-59175000Y-12846176D01*
X-59287923Y-12857298D01*
X-59339686Y-12873000D01*
X-61973000Y-12873000D01*
X-61973000Y-11730848D01*
X-61903494Y-11709764D01*
X-61803423Y-11656275D01*
X-61715710Y-11584290D01*
X-61643725Y-11496577D01*
X-61590236Y-11396506D01*
X-61557298Y-11287923D01*
X-61546176Y-11175000D01*
X-61546176Y-10625000D01*
X-61555828Y-10527000D01*
X-58527000Y-10527000D01*
X-58527000Y-12855828D01*
G37*
%TD.AperFunction*%
%TD*%
D34*
%TO.N,GND*%
X-55527000Y-11031663D02*
X-55546545Y-11096095D01*
X-55553824Y-11170000D01*
X-55553824Y-12230000D01*
X-55546545Y-12303905D01*
X-55524988Y-12374970D01*
X-55489981Y-12440463D01*
X-55442869Y-12497869D01*
X-55385463Y-12544981D01*
X-55319970Y-12579988D01*
X-55248905Y-12601545D01*
X-55175000Y-12608824D01*
X-54525000Y-12608824D01*
X-54451095Y-12601545D01*
X-54380030Y-12579988D01*
X-54314537Y-12544981D01*
X-54257131Y-12497869D01*
X-54210019Y-12440463D01*
X-54175012Y-12374970D01*
X-54160461Y-12327000D01*
X-52027000Y-12327000D01*
X-52027000Y-12973000D01*
X-55200000Y-12973000D01*
X-55273549Y-12980244D01*
X-55332084Y-12998000D01*
X-55405715Y-12998000D01*
X-55475000Y-12991176D01*
X-56125000Y-12991176D01*
X-56194285Y-12998000D01*
X-56312418Y-12998000D01*
X-56328422Y-12984866D01*
X-56704464Y-12608824D01*
X-56425000Y-12608824D01*
X-56351095Y-12601545D01*
X-56280030Y-12579988D01*
X-56214537Y-12544981D01*
X-56157131Y-12497869D01*
X-56110019Y-12440463D01*
X-56102823Y-12427000D01*
X-56100000Y-12427000D01*
X-56075224Y-12424560D01*
X-56051399Y-12417333D01*
X-56029443Y-12405597D01*
X-56010197Y-12389803D01*
X-55994403Y-12370557D01*
X-55982667Y-12348601D01*
X-55975440Y-12324776D01*
X-55973000Y-12300000D01*
X-55973000Y-11027000D01*
X-55527000Y-11027000D01*
X-55527000Y-11031663D01*
%TA.AperFunction,Conductor*%
D35*
G36*
X-55527000Y-11031663D02*
G01*
X-55546545Y-11096095D01*
X-55553824Y-11170000D01*
X-55553824Y-12230000D01*
X-55546545Y-12303905D01*
X-55524988Y-12374970D01*
X-55489981Y-12440463D01*
X-55442869Y-12497869D01*
X-55385463Y-12544981D01*
X-55319970Y-12579988D01*
X-55248905Y-12601545D01*
X-55175000Y-12608824D01*
X-54525000Y-12608824D01*
X-54451095Y-12601545D01*
X-54380030Y-12579988D01*
X-54314537Y-12544981D01*
X-54257131Y-12497869D01*
X-54210019Y-12440463D01*
X-54175012Y-12374970D01*
X-54160461Y-12327000D01*
X-52027000Y-12327000D01*
X-52027000Y-12973000D01*
X-55200000Y-12973000D01*
X-55273549Y-12980244D01*
X-55332084Y-12998000D01*
X-55405715Y-12998000D01*
X-55475000Y-12991176D01*
X-56125000Y-12991176D01*
X-56194285Y-12998000D01*
X-56312418Y-12998000D01*
X-56328422Y-12984866D01*
X-56704464Y-12608824D01*
X-56425000Y-12608824D01*
X-56351095Y-12601545D01*
X-56280030Y-12579988D01*
X-56214537Y-12544981D01*
X-56157131Y-12497869D01*
X-56110019Y-12440463D01*
X-56102823Y-12427000D01*
X-56100000Y-12427000D01*
X-56075224Y-12424560D01*
X-56051399Y-12417333D01*
X-56029443Y-12405597D01*
X-56010197Y-12389803D01*
X-55994403Y-12370557D01*
X-55982667Y-12348601D01*
X-55975440Y-12324776D01*
X-55973000Y-12300000D01*
X-55973000Y-11027000D01*
X-55527000Y-11027000D01*
X-55527000Y-11031663D01*
G37*
%TD.AperFunction*%
%TD*%
D34*
%TO.N,Net-(C3-Pad1)*%
X-43627000Y-15707215D02*
X-43627000Y-17323000D01*
X-45047394Y-17323000D01*
X-46410197Y-15960197D01*
X-46429443Y-15944403D01*
X-46451399Y-15932667D01*
X-46475224Y-15925440D01*
X-46500000Y-15923000D01*
X-53798591Y-15923000D01*
X-53832131Y-15882131D01*
X-53889537Y-15835019D01*
X-53955030Y-15800012D01*
X-54026095Y-15778455D01*
X-54100000Y-15771176D01*
X-55073000Y-15771176D01*
X-55073000Y-13477000D01*
X-46148112Y-13477000D01*
X-43627000Y-15707215D01*
%TA.AperFunction,Conductor*%
D35*
G36*
X-43627000Y-15707215D02*
G01*
X-43627000Y-17323000D01*
X-45047394Y-17323000D01*
X-46410197Y-15960197D01*
X-46429443Y-15944403D01*
X-46451399Y-15932667D01*
X-46475224Y-15925440D01*
X-46500000Y-15923000D01*
X-53798591Y-15923000D01*
X-53832131Y-15882131D01*
X-53889537Y-15835019D01*
X-53955030Y-15800012D01*
X-54026095Y-15778455D01*
X-54100000Y-15771176D01*
X-55073000Y-15771176D01*
X-55073000Y-13477000D01*
X-46148112Y-13477000D01*
X-43627000Y-15707215D01*
G37*
%TD.AperFunction*%
%TD*%
D34*
%TO.N,/5V5*%
X-46277000Y-11823000D02*
X-50340903Y-11823000D01*
X-50342139Y-11818927D01*
X-50397939Y-11714533D01*
X-50473032Y-11623032D01*
X-50564533Y-11547939D01*
X-50668927Y-11492139D01*
X-50782200Y-11457778D01*
X-50900000Y-11446176D01*
X-51092113Y-11446176D01*
X-51259862Y-11278427D01*
X-51279499Y-11254499D01*
X-51374972Y-11176147D01*
X-51473000Y-11123750D01*
X-51473000Y-5116894D01*
X-51387923Y-5142702D01*
X-51275000Y-5153824D01*
X-50875000Y-5153824D01*
X-50762077Y-5142702D01*
X-50653494Y-5109764D01*
X-50553423Y-5056275D01*
X-50465710Y-4984290D01*
X-50393725Y-4896577D01*
X-50340236Y-4796506D01*
X-50307298Y-4687923D01*
X-50296176Y-4575000D01*
X-50296176Y-4025000D01*
X-50305828Y-3927000D01*
X-46277000Y-3927000D01*
X-46277000Y-11823000D01*
%TA.AperFunction,Conductor*%
D35*
G36*
X-46277000Y-11823000D02*
G01*
X-50340903Y-11823000D01*
X-50342139Y-11818927D01*
X-50397939Y-11714533D01*
X-50473032Y-11623032D01*
X-50564533Y-11547939D01*
X-50668927Y-11492139D01*
X-50782200Y-11457778D01*
X-50900000Y-11446176D01*
X-51092113Y-11446176D01*
X-51259862Y-11278427D01*
X-51279499Y-11254499D01*
X-51374972Y-11176147D01*
X-51473000Y-11123750D01*
X-51473000Y-5116894D01*
X-51387923Y-5142702D01*
X-51275000Y-5153824D01*
X-50875000Y-5153824D01*
X-50762077Y-5142702D01*
X-50653494Y-5109764D01*
X-50553423Y-5056275D01*
X-50465710Y-4984290D01*
X-50393725Y-4896577D01*
X-50340236Y-4796506D01*
X-50307298Y-4687923D01*
X-50296176Y-4575000D01*
X-50296176Y-4025000D01*
X-50305828Y-3927000D01*
X-46277000Y-3927000D01*
X-46277000Y-11823000D01*
G37*
%TD.AperFunction*%
%TD*%
D34*
%TO.N,+5V*%
X-42077000Y-11673000D02*
X-45523000Y-11673000D01*
X-45523000Y-7077000D01*
X-42077000Y-7077000D01*
X-42077000Y-11673000D01*
%TA.AperFunction,Conductor*%
D35*
G36*
X-42077000Y-11673000D02*
G01*
X-45523000Y-11673000D01*
X-45523000Y-7077000D01*
X-42077000Y-7077000D01*
X-42077000Y-11673000D01*
G37*
%TD.AperFunction*%
%TD*%
D34*
%TO.N,GND*%
X-37877000Y-13273000D02*
X-39391176Y-13273000D01*
X-39391176Y-13075000D01*
X-39398455Y-13001095D01*
X-39420012Y-12930030D01*
X-39423000Y-12924440D01*
X-39423000Y-12800000D01*
X-39425440Y-12775224D01*
X-39432667Y-12751399D01*
X-39444403Y-12729443D01*
X-39460197Y-12710197D01*
X-39479443Y-12694403D01*
X-39501399Y-12682667D01*
X-39525224Y-12675440D01*
X-39550000Y-12673000D01*
X-43300000Y-12673000D01*
X-43324776Y-12675440D01*
X-43348601Y-12682667D01*
X-43370557Y-12694403D01*
X-43389803Y-12710197D01*
X-43405597Y-12729443D01*
X-43417333Y-12751399D01*
X-43424560Y-12775224D01*
X-43427000Y-12800000D01*
X-43427000Y-13923000D01*
X-44883268Y-13923000D01*
X-45523000Y-13357083D01*
X-45523000Y-12251598D01*
X-37877000Y-12227402D01*
X-37877000Y-13273000D01*
%TA.AperFunction,Conductor*%
D35*
G36*
X-37877000Y-13273000D02*
G01*
X-39391176Y-13273000D01*
X-39391176Y-13075000D01*
X-39398455Y-13001095D01*
X-39420012Y-12930030D01*
X-39423000Y-12924440D01*
X-39423000Y-12800000D01*
X-39425440Y-12775224D01*
X-39432667Y-12751399D01*
X-39444403Y-12729443D01*
X-39460197Y-12710197D01*
X-39479443Y-12694403D01*
X-39501399Y-12682667D01*
X-39525224Y-12675440D01*
X-39550000Y-12673000D01*
X-43300000Y-12673000D01*
X-43324776Y-12675440D01*
X-43348601Y-12682667D01*
X-43370557Y-12694403D01*
X-43389803Y-12710197D01*
X-43405597Y-12729443D01*
X-43417333Y-12751399D01*
X-43424560Y-12775224D01*
X-43427000Y-12800000D01*
X-43427000Y-13923000D01*
X-44883268Y-13923000D01*
X-45523000Y-13357083D01*
X-45523000Y-12251598D01*
X-37877000Y-12227402D01*
X-37877000Y-13273000D01*
G37*
%TD.AperFunction*%
%TD*%
D34*
%TO.N,+3V3*%
X-37877000Y-11723000D02*
X-40723000Y-11723000D01*
X-40723000Y-11027000D01*
X-37877000Y-11027000D01*
X-37877000Y-11723000D01*
%TA.AperFunction,Conductor*%
D35*
G36*
X-37877000Y-11723000D02*
G01*
X-40723000Y-11723000D01*
X-40723000Y-11027000D01*
X-37877000Y-11027000D01*
X-37877000Y-11723000D01*
G37*
%TD.AperFunction*%
%TD*%
D34*
%TO.N,GND*%
X-58627000Y-17473000D02*
X-61973000Y-17473000D01*
X-61973000Y-15827000D01*
X-58627000Y-15827000D01*
X-58627000Y-17473000D01*
%TA.AperFunction,Conductor*%
D35*
G36*
X-58627000Y-17473000D02*
G01*
X-61973000Y-17473000D01*
X-61973000Y-15827000D01*
X-58627000Y-15827000D01*
X-58627000Y-17473000D01*
G37*
%TD.AperFunction*%
%TD*%
D34*
%TO.N,Net-(D1-Pad2)*%
X-67927000Y-16523000D02*
X-69773000Y-16523000D01*
X-69773000Y-9927000D01*
X-67927000Y-9927000D01*
X-67927000Y-16523000D01*
%TA.AperFunction,Conductor*%
D35*
G36*
X-67927000Y-16523000D02*
G01*
X-69773000Y-16523000D01*
X-69773000Y-9927000D01*
X-67927000Y-9927000D01*
X-67927000Y-16523000D01*
G37*
%TD.AperFunction*%
%TD*%
D34*
%TO.N,GND*%
X-47727000Y-23473000D02*
X-49673000Y-23473000D01*
X-49673000Y-21227000D01*
X-47727000Y-21227000D01*
X-47727000Y-23473000D01*
%TA.AperFunction,Conductor*%
D35*
G36*
X-47727000Y-23473000D02*
G01*
X-49673000Y-23473000D01*
X-49673000Y-21227000D01*
X-47727000Y-21227000D01*
X-47727000Y-23473000D01*
G37*
%TD.AperFunction*%
%TD*%
D34*
%TO.N,/CANH*%
X-23627000Y-6374732D02*
X-23647141Y-6423357D01*
X-23677000Y-6573472D01*
X-23677000Y-6726528D01*
X-23647141Y-6876643D01*
X-23627000Y-6925268D01*
X-23627000Y-9272785D01*
X-23652000Y-9398472D01*
X-23652000Y-9551528D01*
X-23627000Y-9677215D01*
X-23627000Y-13048000D01*
X-27251708Y-13048000D01*
X-27273000Y-13026708D01*
X-27273000Y-4327000D01*
X-23627000Y-4327000D01*
X-23627000Y-6374732D01*
%TA.AperFunction,Conductor*%
D35*
G36*
X-23627000Y-6374732D02*
G01*
X-23647141Y-6423357D01*
X-23677000Y-6573472D01*
X-23677000Y-6726528D01*
X-23647141Y-6876643D01*
X-23627000Y-6925268D01*
X-23627000Y-9272785D01*
X-23652000Y-9398472D01*
X-23652000Y-9551528D01*
X-23627000Y-9677215D01*
X-23627000Y-13048000D01*
X-27251708Y-13048000D01*
X-27273000Y-13026708D01*
X-27273000Y-4327000D01*
X-23627000Y-4327000D01*
X-23627000Y-6374732D01*
G37*
%TD.AperFunction*%
%TD*%
D34*
%TO.N,/CANL*%
X-28477000Y-13048000D02*
X-29181711Y-13048000D01*
X-29234044Y-12995667D01*
X-29250551Y-12975553D01*
X-29330797Y-12909697D01*
X-29422349Y-12860762D01*
X-29521689Y-12830627D01*
X-29599118Y-12823001D01*
X-29624999Y-12820452D01*
X-29650880Y-12823001D01*
X-31421176Y-12823001D01*
X-31421176Y-12350000D01*
X-31428455Y-12276095D01*
X-31450012Y-12205030D01*
X-31485019Y-12139537D01*
X-31532131Y-12082131D01*
X-31589537Y-12035019D01*
X-31655030Y-12000012D01*
X-31726095Y-11978455D01*
X-31800000Y-11971176D01*
X-32188113Y-11971176D01*
X-32209696Y-11930796D01*
X-32273000Y-11853660D01*
X-32273000Y-4327000D01*
X-28477000Y-4327000D01*
X-28477000Y-13048000D01*
%TA.AperFunction,Conductor*%
D35*
G36*
X-28477000Y-13048000D02*
G01*
X-29181711Y-13048000D01*
X-29234044Y-12995667D01*
X-29250551Y-12975553D01*
X-29330797Y-12909697D01*
X-29422349Y-12860762D01*
X-29521689Y-12830627D01*
X-29599118Y-12823001D01*
X-29624999Y-12820452D01*
X-29650880Y-12823001D01*
X-31421176Y-12823001D01*
X-31421176Y-12350000D01*
X-31428455Y-12276095D01*
X-31450012Y-12205030D01*
X-31485019Y-12139537D01*
X-31532131Y-12082131D01*
X-31589537Y-12035019D01*
X-31655030Y-12000012D01*
X-31726095Y-11978455D01*
X-31800000Y-11971176D01*
X-32188113Y-11971176D01*
X-32209696Y-11930796D01*
X-32273000Y-11853660D01*
X-32273000Y-4327000D01*
X-28477000Y-4327000D01*
X-28477000Y-13048000D01*
G37*
%TD.AperFunction*%
%TD*%
D34*
%TO.N,+5V*%
X-5702000Y-14348000D02*
X-12123000Y-14348000D01*
X-12123000Y-13652000D01*
X-5702000Y-13652000D01*
X-5702000Y-14348000D01*
%TA.AperFunction,Conductor*%
D35*
G36*
X-5702000Y-14348000D02*
G01*
X-12123000Y-14348000D01*
X-12123000Y-13652000D01*
X-5702000Y-13652000D01*
X-5702000Y-14348000D01*
G37*
%TD.AperFunction*%
%TD*%
D34*
%TO.N,+3V3*%
X-21978824Y-28000000D02*
X-21970104Y-28088537D01*
X-21944279Y-28173671D01*
X-21902341Y-28252131D01*
X-21845902Y-28320902D01*
X-21777131Y-28377341D01*
X-21698671Y-28419279D01*
X-21613537Y-28445104D01*
X-21525000Y-28453824D01*
X-21375000Y-28453824D01*
X-21286463Y-28445104D01*
X-21201329Y-28419279D01*
X-21200000Y-28418569D01*
X-21198671Y-28419279D01*
X-21113537Y-28445104D01*
X-21025000Y-28453824D01*
X-20875000Y-28453824D01*
X-20786463Y-28445104D01*
X-20701329Y-28419279D01*
X-20700000Y-28418569D01*
X-20698671Y-28419279D01*
X-20613537Y-28445104D01*
X-20525000Y-28453824D01*
X-20375000Y-28453824D01*
X-20286463Y-28445104D01*
X-20201329Y-28419279D01*
X-20200000Y-28418569D01*
X-20198671Y-28419279D01*
X-20113537Y-28445104D01*
X-20025000Y-28453824D01*
X-19875000Y-28453824D01*
X-19786463Y-28445104D01*
X-19701329Y-28419279D01*
X-19700000Y-28418569D01*
X-19698671Y-28419279D01*
X-19613537Y-28445104D01*
X-19525000Y-28453824D01*
X-19375000Y-28453824D01*
X-19286463Y-28445104D01*
X-19201329Y-28419279D01*
X-19200000Y-28418569D01*
X-19198671Y-28419279D01*
X-19113537Y-28445104D01*
X-19025000Y-28453824D01*
X-18875000Y-28453824D01*
X-18786463Y-28445104D01*
X-18701329Y-28419279D01*
X-18700000Y-28418569D01*
X-18698671Y-28419279D01*
X-18613537Y-28445104D01*
X-18525000Y-28453824D01*
X-18375000Y-28453824D01*
X-18286463Y-28445104D01*
X-18201329Y-28419279D01*
X-18200000Y-28418569D01*
X-18198671Y-28419279D01*
X-18113537Y-28445104D01*
X-18025000Y-28453824D01*
X-17875000Y-28453824D01*
X-17786463Y-28445104D01*
X-17701329Y-28419279D01*
X-17700000Y-28418569D01*
X-17698671Y-28419279D01*
X-17613537Y-28445104D01*
X-17525000Y-28453824D01*
X-17375000Y-28453824D01*
X-17286463Y-28445104D01*
X-17201329Y-28419279D01*
X-17200000Y-28418569D01*
X-17198671Y-28419279D01*
X-17113537Y-28445104D01*
X-17025000Y-28453824D01*
X-16875000Y-28453824D01*
X-16786463Y-28445104D01*
X-16701329Y-28419279D01*
X-16700000Y-28418569D01*
X-16698671Y-28419279D01*
X-16613537Y-28445104D01*
X-16525000Y-28453824D01*
X-16375000Y-28453824D01*
X-16286463Y-28445104D01*
X-16201329Y-28419279D01*
X-16122869Y-28377341D01*
X-16054098Y-28320902D01*
X-15997659Y-28252131D01*
X-15955721Y-28173671D01*
X-15929896Y-28088537D01*
X-15921176Y-28000000D01*
X-15921176Y-27877000D01*
X-15577000Y-27877000D01*
X-15577000Y-28221176D01*
X-15700000Y-28221176D01*
X-15788537Y-28229896D01*
X-15873671Y-28255721D01*
X-15952131Y-28297659D01*
X-16020902Y-28354098D01*
X-16077341Y-28422869D01*
X-16119279Y-28501329D01*
X-16145104Y-28586463D01*
X-16153824Y-28675000D01*
X-16153824Y-28825000D01*
X-16145104Y-28913537D01*
X-16119279Y-28998671D01*
X-16118569Y-29000000D01*
X-16119279Y-29001329D01*
X-16145104Y-29086463D01*
X-16153824Y-29175000D01*
X-16153824Y-29325000D01*
X-16145104Y-29413537D01*
X-16119279Y-29498671D01*
X-16118569Y-29500000D01*
X-16119279Y-29501329D01*
X-16145104Y-29586463D01*
X-16153824Y-29675000D01*
X-16153824Y-29825000D01*
X-16145104Y-29913537D01*
X-16119279Y-29998671D01*
X-16118569Y-30000000D01*
X-16119279Y-30001329D01*
X-16145104Y-30086463D01*
X-16153824Y-30175000D01*
X-16153824Y-30325000D01*
X-16145104Y-30413537D01*
X-16119279Y-30498671D01*
X-16118569Y-30500000D01*
X-16119279Y-30501329D01*
X-16145104Y-30586463D01*
X-16153824Y-30675000D01*
X-16153824Y-30825000D01*
X-16145104Y-30913537D01*
X-16119279Y-30998671D01*
X-16118569Y-31000000D01*
X-16119279Y-31001329D01*
X-16145104Y-31086463D01*
X-16153824Y-31175000D01*
X-16153824Y-31325000D01*
X-16145104Y-31413537D01*
X-16119279Y-31498671D01*
X-16118569Y-31500000D01*
X-16119279Y-31501329D01*
X-16145104Y-31586463D01*
X-16153824Y-31675000D01*
X-16153824Y-31825000D01*
X-16145104Y-31913537D01*
X-16119279Y-31998671D01*
X-16118569Y-32000000D01*
X-16119279Y-32001329D01*
X-16145104Y-32086463D01*
X-16153824Y-32175000D01*
X-16153824Y-32325000D01*
X-16145104Y-32413537D01*
X-16119279Y-32498671D01*
X-16118569Y-32500000D01*
X-16119279Y-32501329D01*
X-16145104Y-32586463D01*
X-16153824Y-32675000D01*
X-16153824Y-32825000D01*
X-16145104Y-32913537D01*
X-16119279Y-32998671D01*
X-16118569Y-33000000D01*
X-16119279Y-33001329D01*
X-16145104Y-33086463D01*
X-16153824Y-33175000D01*
X-16153824Y-33325000D01*
X-16145104Y-33413537D01*
X-16119279Y-33498671D01*
X-16118569Y-33500000D01*
X-16119279Y-33501329D01*
X-16145104Y-33586463D01*
X-16153824Y-33675000D01*
X-16153824Y-33825000D01*
X-16145104Y-33913537D01*
X-16119279Y-33998671D01*
X-16077341Y-34077131D01*
X-16020902Y-34145902D01*
X-15952131Y-34202341D01*
X-15873671Y-34244279D01*
X-15788537Y-34270104D01*
X-15700000Y-34278824D01*
X-15577000Y-34278824D01*
X-15577000Y-35123000D01*
X-16421176Y-35123000D01*
X-16421176Y-35000000D01*
X-16429896Y-34911463D01*
X-16448000Y-34851782D01*
X-16448000Y-34674642D01*
X-16445573Y-34649999D01*
X-16448000Y-34625356D01*
X-16448000Y-34625347D01*
X-16455264Y-34551591D01*
X-16483969Y-34456964D01*
X-16530583Y-34369755D01*
X-16593316Y-34293316D01*
X-16612462Y-34277603D01*
X-16977599Y-33912467D01*
X-16993316Y-33893316D01*
X-17069755Y-33830583D01*
X-17156964Y-33783969D01*
X-17251591Y-33755264D01*
X-17325347Y-33748000D01*
X-17325357Y-33748000D01*
X-17350000Y-33745573D01*
X-17355082Y-33746073D01*
X-17454691Y-33646464D01*
X-17581952Y-33561431D01*
X-17723357Y-33502859D01*
X-17873472Y-33473000D01*
X-18026528Y-33473000D01*
X-18176643Y-33502859D01*
X-18318048Y-33561431D01*
X-18445309Y-33646464D01*
X-18553536Y-33754691D01*
X-18638569Y-33881952D01*
X-18697141Y-34023357D01*
X-18727000Y-34173472D01*
X-18727000Y-34326528D01*
X-18697141Y-34476643D01*
X-18659013Y-34568691D01*
X-18698671Y-34580721D01*
X-18700000Y-34581431D01*
X-18701329Y-34580721D01*
X-18786463Y-34554896D01*
X-18875000Y-34546176D01*
X-19025000Y-34546176D01*
X-19113537Y-34554896D01*
X-19198671Y-34580721D01*
X-19200000Y-34581431D01*
X-19201329Y-34580721D01*
X-19286463Y-34554896D01*
X-19375000Y-34546176D01*
X-19525000Y-34546176D01*
X-19613537Y-34554896D01*
X-19698671Y-34580721D01*
X-19700000Y-34581431D01*
X-19701329Y-34580721D01*
X-19786463Y-34554896D01*
X-19875000Y-34546176D01*
X-20025000Y-34546176D01*
X-20113537Y-34554896D01*
X-20198671Y-34580721D01*
X-20200000Y-34581431D01*
X-20201329Y-34580721D01*
X-20286463Y-34554896D01*
X-20375000Y-34546176D01*
X-20525000Y-34546176D01*
X-20613537Y-34554896D01*
X-20698671Y-34580721D01*
X-20700000Y-34581431D01*
X-20701329Y-34580721D01*
X-20786463Y-34554896D01*
X-20875000Y-34546176D01*
X-21025000Y-34546176D01*
X-21113537Y-34554896D01*
X-21198671Y-34580721D01*
X-21200000Y-34581431D01*
X-21201329Y-34580721D01*
X-21286463Y-34554896D01*
X-21375000Y-34546176D01*
X-21525000Y-34546176D01*
X-21613537Y-34554896D01*
X-21698671Y-34580721D01*
X-21700000Y-34581431D01*
X-21701329Y-34580721D01*
X-21786463Y-34554896D01*
X-21875000Y-34546176D01*
X-22025000Y-34546176D01*
X-22113537Y-34554896D01*
X-22198671Y-34580721D01*
X-22277131Y-34622659D01*
X-22345902Y-34679098D01*
X-22402341Y-34747869D01*
X-22444279Y-34826329D01*
X-22470104Y-34911463D01*
X-22478824Y-35000000D01*
X-22478824Y-35123000D01*
X-22823000Y-35123000D01*
X-22823000Y-34278824D01*
X-22700000Y-34278824D01*
X-22611463Y-34270104D01*
X-22551782Y-34252000D01*
X-22058958Y-34252000D01*
X-22034315Y-34254427D01*
X-22009672Y-34252000D01*
X-22009662Y-34252000D01*
X-21935906Y-34244736D01*
X-21841279Y-34216031D01*
X-21754070Y-34169417D01*
X-21677631Y-34106684D01*
X-21661914Y-34087533D01*
X-21512463Y-33938083D01*
X-21493316Y-33922369D01*
X-21477603Y-33903223D01*
X-21477600Y-33903220D01*
X-21430583Y-33845930D01*
X-21383969Y-33758721D01*
X-21355264Y-33664094D01*
X-21348711Y-33597556D01*
X-21246464Y-33495309D01*
X-21161431Y-33368048D01*
X-21102859Y-33226643D01*
X-21073000Y-33076528D01*
X-21073000Y-32923472D01*
X-21102859Y-32773357D01*
X-21161431Y-32631952D01*
X-21246464Y-32504691D01*
X-21354691Y-32396464D01*
X-21481952Y-32311431D01*
X-21623357Y-32252859D01*
X-21773472Y-32223000D01*
X-21926528Y-32223000D01*
X-22076643Y-32252859D01*
X-22218048Y-32311431D01*
X-22246727Y-32330594D01*
X-22246176Y-32325000D01*
X-22246176Y-32175000D01*
X-22254896Y-32086463D01*
X-22280721Y-32001329D01*
X-22281431Y-32000000D01*
X-22280721Y-31998671D01*
X-22254896Y-31913537D01*
X-22246176Y-31825000D01*
X-22246176Y-31675000D01*
X-22254896Y-31586463D01*
X-22280721Y-31501329D01*
X-22281431Y-31500000D01*
X-22280721Y-31498671D01*
X-22254896Y-31413537D01*
X-22246176Y-31325000D01*
X-22246176Y-31175000D01*
X-22254896Y-31086463D01*
X-22280721Y-31001329D01*
X-22281431Y-31000000D01*
X-22280721Y-30998671D01*
X-22254896Y-30913537D01*
X-22246176Y-30825000D01*
X-22246176Y-30675000D01*
X-22254896Y-30586463D01*
X-22280721Y-30501329D01*
X-22281431Y-30500000D01*
X-22280721Y-30498671D01*
X-22254896Y-30413537D01*
X-22246176Y-30325000D01*
X-22246176Y-30175000D01*
X-22254896Y-30086463D01*
X-22280721Y-30001329D01*
X-22281431Y-30000000D01*
X-22280721Y-29998671D01*
X-22254896Y-29913537D01*
X-22246176Y-29825000D01*
X-22246176Y-29675000D01*
X-22254896Y-29586463D01*
X-22280721Y-29501329D01*
X-22281431Y-29500000D01*
X-22280721Y-29498671D01*
X-22254896Y-29413537D01*
X-22246176Y-29325000D01*
X-22246176Y-29175000D01*
X-22254896Y-29086463D01*
X-22280721Y-29001329D01*
X-22281431Y-29000000D01*
X-22280721Y-28998671D01*
X-22254896Y-28913537D01*
X-22246176Y-28825000D01*
X-22246176Y-28675000D01*
X-22254896Y-28586463D01*
X-22280721Y-28501329D01*
X-22322659Y-28422869D01*
X-22379098Y-28354098D01*
X-22447869Y-28297659D01*
X-22526329Y-28255721D01*
X-22611463Y-28229896D01*
X-22700000Y-28221176D01*
X-22823000Y-28221176D01*
X-22823000Y-27877000D01*
X-21978824Y-27877000D01*
X-21978824Y-28000000D01*
%TA.AperFunction,Conductor*%
D35*
G36*
X-21978824Y-28000000D02*
G01*
X-21970104Y-28088537D01*
X-21944279Y-28173671D01*
X-21902341Y-28252131D01*
X-21845902Y-28320902D01*
X-21777131Y-28377341D01*
X-21698671Y-28419279D01*
X-21613537Y-28445104D01*
X-21525000Y-28453824D01*
X-21375000Y-28453824D01*
X-21286463Y-28445104D01*
X-21201329Y-28419279D01*
X-21200000Y-28418569D01*
X-21198671Y-28419279D01*
X-21113537Y-28445104D01*
X-21025000Y-28453824D01*
X-20875000Y-28453824D01*
X-20786463Y-28445104D01*
X-20701329Y-28419279D01*
X-20700000Y-28418569D01*
X-20698671Y-28419279D01*
X-20613537Y-28445104D01*
X-20525000Y-28453824D01*
X-20375000Y-28453824D01*
X-20286463Y-28445104D01*
X-20201329Y-28419279D01*
X-20200000Y-28418569D01*
X-20198671Y-28419279D01*
X-20113537Y-28445104D01*
X-20025000Y-28453824D01*
X-19875000Y-28453824D01*
X-19786463Y-28445104D01*
X-19701329Y-28419279D01*
X-19700000Y-28418569D01*
X-19698671Y-28419279D01*
X-19613537Y-28445104D01*
X-19525000Y-28453824D01*
X-19375000Y-28453824D01*
X-19286463Y-28445104D01*
X-19201329Y-28419279D01*
X-19200000Y-28418569D01*
X-19198671Y-28419279D01*
X-19113537Y-28445104D01*
X-19025000Y-28453824D01*
X-18875000Y-28453824D01*
X-18786463Y-28445104D01*
X-18701329Y-28419279D01*
X-18700000Y-28418569D01*
X-18698671Y-28419279D01*
X-18613537Y-28445104D01*
X-18525000Y-28453824D01*
X-18375000Y-28453824D01*
X-18286463Y-28445104D01*
X-18201329Y-28419279D01*
X-18200000Y-28418569D01*
X-18198671Y-28419279D01*
X-18113537Y-28445104D01*
X-18025000Y-28453824D01*
X-17875000Y-28453824D01*
X-17786463Y-28445104D01*
X-17701329Y-28419279D01*
X-17700000Y-28418569D01*
X-17698671Y-28419279D01*
X-17613537Y-28445104D01*
X-17525000Y-28453824D01*
X-17375000Y-28453824D01*
X-17286463Y-28445104D01*
X-17201329Y-28419279D01*
X-17200000Y-28418569D01*
X-17198671Y-28419279D01*
X-17113537Y-28445104D01*
X-17025000Y-28453824D01*
X-16875000Y-28453824D01*
X-16786463Y-28445104D01*
X-16701329Y-28419279D01*
X-16700000Y-28418569D01*
X-16698671Y-28419279D01*
X-16613537Y-28445104D01*
X-16525000Y-28453824D01*
X-16375000Y-28453824D01*
X-16286463Y-28445104D01*
X-16201329Y-28419279D01*
X-16122869Y-28377341D01*
X-16054098Y-28320902D01*
X-15997659Y-28252131D01*
X-15955721Y-28173671D01*
X-15929896Y-28088537D01*
X-15921176Y-28000000D01*
X-15921176Y-27877000D01*
X-15577000Y-27877000D01*
X-15577000Y-28221176D01*
X-15700000Y-28221176D01*
X-15788537Y-28229896D01*
X-15873671Y-28255721D01*
X-15952131Y-28297659D01*
X-16020902Y-28354098D01*
X-16077341Y-28422869D01*
X-16119279Y-28501329D01*
X-16145104Y-28586463D01*
X-16153824Y-28675000D01*
X-16153824Y-28825000D01*
X-16145104Y-28913537D01*
X-16119279Y-28998671D01*
X-16118569Y-29000000D01*
X-16119279Y-29001329D01*
X-16145104Y-29086463D01*
X-16153824Y-29175000D01*
X-16153824Y-29325000D01*
X-16145104Y-29413537D01*
X-16119279Y-29498671D01*
X-16118569Y-29500000D01*
X-16119279Y-29501329D01*
X-16145104Y-29586463D01*
X-16153824Y-29675000D01*
X-16153824Y-29825000D01*
X-16145104Y-29913537D01*
X-16119279Y-29998671D01*
X-16118569Y-30000000D01*
X-16119279Y-30001329D01*
X-16145104Y-30086463D01*
X-16153824Y-30175000D01*
X-16153824Y-30325000D01*
X-16145104Y-30413537D01*
X-16119279Y-30498671D01*
X-16118569Y-30500000D01*
X-16119279Y-30501329D01*
X-16145104Y-30586463D01*
X-16153824Y-30675000D01*
X-16153824Y-30825000D01*
X-16145104Y-30913537D01*
X-16119279Y-30998671D01*
X-16118569Y-31000000D01*
X-16119279Y-31001329D01*
X-16145104Y-31086463D01*
X-16153824Y-31175000D01*
X-16153824Y-31325000D01*
X-16145104Y-31413537D01*
X-16119279Y-31498671D01*
X-16118569Y-31500000D01*
X-16119279Y-31501329D01*
X-16145104Y-31586463D01*
X-16153824Y-31675000D01*
X-16153824Y-31825000D01*
X-16145104Y-31913537D01*
X-16119279Y-31998671D01*
X-16118569Y-32000000D01*
X-16119279Y-32001329D01*
X-16145104Y-32086463D01*
X-16153824Y-32175000D01*
X-16153824Y-32325000D01*
X-16145104Y-32413537D01*
X-16119279Y-32498671D01*
X-16118569Y-32500000D01*
X-16119279Y-32501329D01*
X-16145104Y-32586463D01*
X-16153824Y-32675000D01*
X-16153824Y-32825000D01*
X-16145104Y-32913537D01*
X-16119279Y-32998671D01*
X-16118569Y-33000000D01*
X-16119279Y-33001329D01*
X-16145104Y-33086463D01*
X-16153824Y-33175000D01*
X-16153824Y-33325000D01*
X-16145104Y-33413537D01*
X-16119279Y-33498671D01*
X-16118569Y-33500000D01*
X-16119279Y-33501329D01*
X-16145104Y-33586463D01*
X-16153824Y-33675000D01*
X-16153824Y-33825000D01*
X-16145104Y-33913537D01*
X-16119279Y-33998671D01*
X-16077341Y-34077131D01*
X-16020902Y-34145902D01*
X-15952131Y-34202341D01*
X-15873671Y-34244279D01*
X-15788537Y-34270104D01*
X-15700000Y-34278824D01*
X-15577000Y-34278824D01*
X-15577000Y-35123000D01*
X-16421176Y-35123000D01*
X-16421176Y-35000000D01*
X-16429896Y-34911463D01*
X-16448000Y-34851782D01*
X-16448000Y-34674642D01*
X-16445573Y-34649999D01*
X-16448000Y-34625356D01*
X-16448000Y-34625347D01*
X-16455264Y-34551591D01*
X-16483969Y-34456964D01*
X-16530583Y-34369755D01*
X-16593316Y-34293316D01*
X-16612462Y-34277603D01*
X-16977599Y-33912467D01*
X-16993316Y-33893316D01*
X-17069755Y-33830583D01*
X-17156964Y-33783969D01*
X-17251591Y-33755264D01*
X-17325347Y-33748000D01*
X-17325357Y-33748000D01*
X-17350000Y-33745573D01*
X-17355082Y-33746073D01*
X-17454691Y-33646464D01*
X-17581952Y-33561431D01*
X-17723357Y-33502859D01*
X-17873472Y-33473000D01*
X-18026528Y-33473000D01*
X-18176643Y-33502859D01*
X-18318048Y-33561431D01*
X-18445309Y-33646464D01*
X-18553536Y-33754691D01*
X-18638569Y-33881952D01*
X-18697141Y-34023357D01*
X-18727000Y-34173472D01*
X-18727000Y-34326528D01*
X-18697141Y-34476643D01*
X-18659013Y-34568691D01*
X-18698671Y-34580721D01*
X-18700000Y-34581431D01*
X-18701329Y-34580721D01*
X-18786463Y-34554896D01*
X-18875000Y-34546176D01*
X-19025000Y-34546176D01*
X-19113537Y-34554896D01*
X-19198671Y-34580721D01*
X-19200000Y-34581431D01*
X-19201329Y-34580721D01*
X-19286463Y-34554896D01*
X-19375000Y-34546176D01*
X-19525000Y-34546176D01*
X-19613537Y-34554896D01*
X-19698671Y-34580721D01*
X-19700000Y-34581431D01*
X-19701329Y-34580721D01*
X-19786463Y-34554896D01*
X-19875000Y-34546176D01*
X-20025000Y-34546176D01*
X-20113537Y-34554896D01*
X-20198671Y-34580721D01*
X-20200000Y-34581431D01*
X-20201329Y-34580721D01*
X-20286463Y-34554896D01*
X-20375000Y-34546176D01*
X-20525000Y-34546176D01*
X-20613537Y-34554896D01*
X-20698671Y-34580721D01*
X-20700000Y-34581431D01*
X-20701329Y-34580721D01*
X-20786463Y-34554896D01*
X-20875000Y-34546176D01*
X-21025000Y-34546176D01*
X-21113537Y-34554896D01*
X-21198671Y-34580721D01*
X-21200000Y-34581431D01*
X-21201329Y-34580721D01*
X-21286463Y-34554896D01*
X-21375000Y-34546176D01*
X-21525000Y-34546176D01*
X-21613537Y-34554896D01*
X-21698671Y-34580721D01*
X-21700000Y-34581431D01*
X-21701329Y-34580721D01*
X-21786463Y-34554896D01*
X-21875000Y-34546176D01*
X-22025000Y-34546176D01*
X-22113537Y-34554896D01*
X-22198671Y-34580721D01*
X-22277131Y-34622659D01*
X-22345902Y-34679098D01*
X-22402341Y-34747869D01*
X-22444279Y-34826329D01*
X-22470104Y-34911463D01*
X-22478824Y-35000000D01*
X-22478824Y-35123000D01*
X-22823000Y-35123000D01*
X-22823000Y-34278824D01*
X-22700000Y-34278824D01*
X-22611463Y-34270104D01*
X-22551782Y-34252000D01*
X-22058958Y-34252000D01*
X-22034315Y-34254427D01*
X-22009672Y-34252000D01*
X-22009662Y-34252000D01*
X-21935906Y-34244736D01*
X-21841279Y-34216031D01*
X-21754070Y-34169417D01*
X-21677631Y-34106684D01*
X-21661914Y-34087533D01*
X-21512463Y-33938083D01*
X-21493316Y-33922369D01*
X-21477603Y-33903223D01*
X-21477600Y-33903220D01*
X-21430583Y-33845930D01*
X-21383969Y-33758721D01*
X-21355264Y-33664094D01*
X-21348711Y-33597556D01*
X-21246464Y-33495309D01*
X-21161431Y-33368048D01*
X-21102859Y-33226643D01*
X-21073000Y-33076528D01*
X-21073000Y-32923472D01*
X-21102859Y-32773357D01*
X-21161431Y-32631952D01*
X-21246464Y-32504691D01*
X-21354691Y-32396464D01*
X-21481952Y-32311431D01*
X-21623357Y-32252859D01*
X-21773472Y-32223000D01*
X-21926528Y-32223000D01*
X-22076643Y-32252859D01*
X-22218048Y-32311431D01*
X-22246727Y-32330594D01*
X-22246176Y-32325000D01*
X-22246176Y-32175000D01*
X-22254896Y-32086463D01*
X-22280721Y-32001329D01*
X-22281431Y-32000000D01*
X-22280721Y-31998671D01*
X-22254896Y-31913537D01*
X-22246176Y-31825000D01*
X-22246176Y-31675000D01*
X-22254896Y-31586463D01*
X-22280721Y-31501329D01*
X-22281431Y-31500000D01*
X-22280721Y-31498671D01*
X-22254896Y-31413537D01*
X-22246176Y-31325000D01*
X-22246176Y-31175000D01*
X-22254896Y-31086463D01*
X-22280721Y-31001329D01*
X-22281431Y-31000000D01*
X-22280721Y-30998671D01*
X-22254896Y-30913537D01*
X-22246176Y-30825000D01*
X-22246176Y-30675000D01*
X-22254896Y-30586463D01*
X-22280721Y-30501329D01*
X-22281431Y-30500000D01*
X-22280721Y-30498671D01*
X-22254896Y-30413537D01*
X-22246176Y-30325000D01*
X-22246176Y-30175000D01*
X-22254896Y-30086463D01*
X-22280721Y-30001329D01*
X-22281431Y-30000000D01*
X-22280721Y-29998671D01*
X-22254896Y-29913537D01*
X-22246176Y-29825000D01*
X-22246176Y-29675000D01*
X-22254896Y-29586463D01*
X-22280721Y-29501329D01*
X-22281431Y-29500000D01*
X-22280721Y-29498671D01*
X-22254896Y-29413537D01*
X-22246176Y-29325000D01*
X-22246176Y-29175000D01*
X-22254896Y-29086463D01*
X-22280721Y-29001329D01*
X-22281431Y-29000000D01*
X-22280721Y-28998671D01*
X-22254896Y-28913537D01*
X-22246176Y-28825000D01*
X-22246176Y-28675000D01*
X-22254896Y-28586463D01*
X-22280721Y-28501329D01*
X-22322659Y-28422869D01*
X-22379098Y-28354098D01*
X-22447869Y-28297659D01*
X-22526329Y-28255721D01*
X-22611463Y-28229896D01*
X-22700000Y-28221176D01*
X-22823000Y-28221176D01*
X-22823000Y-27877000D01*
X-21978824Y-27877000D01*
X-21978824Y-28000000D01*
G37*
%TD.AperFunction*%
%TD*%
D34*
%TO.N,GNDA*%
X-3495758Y-1453369D02*
X-3010714Y-1599812D01*
X-2563358Y-1837674D01*
X-2170718Y-2157904D01*
X-1847759Y-2548294D01*
X-1606778Y-2993980D01*
X-1456952Y-3477987D01*
X-1402000Y-4000820D01*
X-1402000Y-4000827D01*
X-1401999Y-31273000D01*
X-10323000Y-31273000D01*
X-10323000Y-29877000D01*
X-10098000Y-29877000D01*
X-10098000Y-30507750D01*
X-10003750Y-30602000D01*
X-9775000Y-30603824D01*
X-9701095Y-30596545D01*
X-9630030Y-30574988D01*
X-9564537Y-30539981D01*
X-9507131Y-30492869D01*
X-9460019Y-30435463D01*
X-9425012Y-30369970D01*
X-9403455Y-30298905D01*
X-9396176Y-30225000D01*
X-9398000Y-29971250D01*
X-9492250Y-29877000D01*
X-10098000Y-29877000D01*
X-10323000Y-29877000D01*
X-10323000Y-28992250D01*
X-10098000Y-28992250D01*
X-10098000Y-29623000D01*
X-9492250Y-29623000D01*
X-9398000Y-29528750D01*
X-9396176Y-29275000D01*
X-9403455Y-29201095D01*
X-9425012Y-29130030D01*
X-9460019Y-29064537D01*
X-9507131Y-29007131D01*
X-9564537Y-28960019D01*
X-9630030Y-28925012D01*
X-9701095Y-28903455D01*
X-9775000Y-28896176D01*
X-10003750Y-28898000D01*
X-10098000Y-28992250D01*
X-10323000Y-28992250D01*
X-10323000Y-28709712D01*
X-10217112Y-28603824D01*
X-9993750Y-28603824D01*
X-9877169Y-28592342D01*
X-9765068Y-28558336D01*
X-9661756Y-28503115D01*
X-9571201Y-28428799D01*
X-9496885Y-28338244D01*
X-9441664Y-28234932D01*
X-9407658Y-28122831D01*
X-9396176Y-28006250D01*
X-9396176Y-27493750D01*
X-9407658Y-27377169D01*
X-9441664Y-27265068D01*
X-9496885Y-27161756D01*
X-9571201Y-27071201D01*
X-9661756Y-26996885D01*
X-9765068Y-26941664D01*
X-9877169Y-26907658D01*
X-9993750Y-26896176D01*
X-10431250Y-26896176D01*
X-10547831Y-26907658D01*
X-10659932Y-26941664D01*
X-10763244Y-26996885D01*
X-10853799Y-27071201D01*
X-10896309Y-27123000D01*
X-11103691Y-27123000D01*
X-11146201Y-27071201D01*
X-11236756Y-26996885D01*
X-11340068Y-26941664D01*
X-11452169Y-26907658D01*
X-11568750Y-26896176D01*
X-12006250Y-26896176D01*
X-12122831Y-26907658D01*
X-12234932Y-26941664D01*
X-12338244Y-26996885D01*
X-12428799Y-27071201D01*
X-12471309Y-27123000D01*
X-15419207Y-27123000D01*
X-15450001Y-27119967D01*
X-15480795Y-27123000D01*
X-15921176Y-27123000D01*
X-15921176Y-26675000D01*
X-15929896Y-26586463D01*
X-15955721Y-26501329D01*
X-15997659Y-26422869D01*
X-16054098Y-26354098D01*
X-16122869Y-26297659D01*
X-16201329Y-26255721D01*
X-16286463Y-26229896D01*
X-16375000Y-26221176D01*
X-16448000Y-26221176D01*
X-16448000Y-18300000D01*
X-14753824Y-18300000D01*
X-14752000Y-18478750D01*
X-14657750Y-18573000D01*
X-14027000Y-18573000D01*
X-14027000Y-18017250D01*
X-14121250Y-17923000D01*
X-14375000Y-17921176D01*
X-14448905Y-17928455D01*
X-14519970Y-17950012D01*
X-14585463Y-17985019D01*
X-14642869Y-18032131D01*
X-14689981Y-18089537D01*
X-14724988Y-18155030D01*
X-14746545Y-18226095D01*
X-14753824Y-18300000D01*
X-16448000Y-18300000D01*
X-16448000Y-17482934D01*
X-15342065Y-16377000D01*
X-14762867Y-16377000D01*
X-14744981Y-16410463D01*
X-14697869Y-16467869D01*
X-14640463Y-16514981D01*
X-14574970Y-16549988D01*
X-14503905Y-16571545D01*
X-14430000Y-16578824D01*
X-13370000Y-16578824D01*
X-13326999Y-16574589D01*
X-13326999Y-17935764D01*
X-13351095Y-17928455D01*
X-13425000Y-17921176D01*
X-13678750Y-17923000D01*
X-13773000Y-18017250D01*
X-13773000Y-18573000D01*
X-13142250Y-18573000D01*
X-13119770Y-18550520D01*
X-12615947Y-19054344D01*
X-12599448Y-19074448D01*
X-12519202Y-19140304D01*
X-12427650Y-19189239D01*
X-12328310Y-19219374D01*
X-12225000Y-19229549D01*
X-12199119Y-19227000D01*
X-11851824Y-19227000D01*
X-11784290Y-19309290D01*
X-11696577Y-19381275D01*
X-11596506Y-19434764D01*
X-11487923Y-19467702D01*
X-11375000Y-19478824D01*
X-10825000Y-19478824D01*
X-10712077Y-19467702D01*
X-10603494Y-19434764D01*
X-10503423Y-19381275D01*
X-10415710Y-19309290D01*
X-10343725Y-19221577D01*
X-10290236Y-19121506D01*
X-10257298Y-19012923D01*
X-10246176Y-18900000D01*
X-10246176Y-18674113D01*
X-9865951Y-19054339D01*
X-9849448Y-19074448D01*
X-9769202Y-19140304D01*
X-9712800Y-19170451D01*
X-9677650Y-19189239D01*
X-9578310Y-19219374D01*
X-9565887Y-19220598D01*
X-10168289Y-19823000D01*
X-10348176Y-19823000D01*
X-10415710Y-19740710D01*
X-10503423Y-19668725D01*
X-10603494Y-19615236D01*
X-10712077Y-19582298D01*
X-10825000Y-19571176D01*
X-11375000Y-19571176D01*
X-11487923Y-19582298D01*
X-11596506Y-19615236D01*
X-11696577Y-19668725D01*
X-11784290Y-19740710D01*
X-11856275Y-19828423D01*
X-11909764Y-19928494D01*
X-11942702Y-20037077D01*
X-11953824Y-20150000D01*
X-11953824Y-20550000D01*
X-11942702Y-20662923D01*
X-11909764Y-20771506D01*
X-11895603Y-20798000D01*
X-12706710Y-20798000D01*
X-13046176Y-20458535D01*
X-13046176Y-20150000D01*
X-13057298Y-20037077D01*
X-13090236Y-19928494D01*
X-13143725Y-19828423D01*
X-13215710Y-19740710D01*
X-13303423Y-19668725D01*
X-13377427Y-19629169D01*
X-13380626Y-19596690D01*
X-13410761Y-19497350D01*
X-13420880Y-19478418D01*
X-13351095Y-19471545D01*
X-13280030Y-19449988D01*
X-13214537Y-19414981D01*
X-13157131Y-19367869D01*
X-13110019Y-19310463D01*
X-13075012Y-19244970D01*
X-13053455Y-19173905D01*
X-13046176Y-19100000D01*
X-13048000Y-18921250D01*
X-13142250Y-18827000D01*
X-13773000Y-18827000D01*
X-13773000Y-18847000D01*
X-14027000Y-18847000D01*
X-14027000Y-18827000D01*
X-14657750Y-18827000D01*
X-14752000Y-18921250D01*
X-14753824Y-19100000D01*
X-14746545Y-19173905D01*
X-14724988Y-19244970D01*
X-14689981Y-19310463D01*
X-14642869Y-19367869D01*
X-14585463Y-19414981D01*
X-14519970Y-19449988D01*
X-14448905Y-19471545D01*
X-14379119Y-19478418D01*
X-14389238Y-19497350D01*
X-14419373Y-19596690D01*
X-14422572Y-19629168D01*
X-14496577Y-19668725D01*
X-14584290Y-19740710D01*
X-14656275Y-19828423D01*
X-14709764Y-19928494D01*
X-14742702Y-20037077D01*
X-14753824Y-20150000D01*
X-14753824Y-20550000D01*
X-14742702Y-20662923D01*
X-14709764Y-20771506D01*
X-14656275Y-20871577D01*
X-14584290Y-20959290D01*
X-14496577Y-21031275D01*
X-14396506Y-21084764D01*
X-14287923Y-21117702D01*
X-14247334Y-21121700D01*
X-14194202Y-21165304D01*
X-14102650Y-21214239D01*
X-14003310Y-21244374D01*
X-13900000Y-21254549D01*
X-13796691Y-21244374D01*
X-13761570Y-21233720D01*
X-13315951Y-21679339D01*
X-13299448Y-21699448D01*
X-13219202Y-21765304D01*
X-13127650Y-21814239D01*
X-13028310Y-21844374D01*
X-12925001Y-21854549D01*
X-12899120Y-21852000D01*
X-9300881Y-21852000D01*
X-9275000Y-21854549D01*
X-9249119Y-21852000D01*
X-9171690Y-21844374D01*
X-9072350Y-21814239D01*
X-8980798Y-21765304D01*
X-8900552Y-21699448D01*
X-8884045Y-21679334D01*
X-8333534Y-21128824D01*
X-8025000Y-21128824D01*
X-7912077Y-21117702D01*
X-7803494Y-21084764D01*
X-7703423Y-21031275D01*
X-7615710Y-20959290D01*
X-7543725Y-20871577D01*
X-7490236Y-20771506D01*
X-7457298Y-20662923D01*
X-7446176Y-20550000D01*
X-7446176Y-20150000D01*
X-7457298Y-20037077D01*
X-7490236Y-19928494D01*
X-7543725Y-19828423D01*
X-7615710Y-19740710D01*
X-7703423Y-19668725D01*
X-7803494Y-19615236D01*
X-7912077Y-19582298D01*
X-8025000Y-19571176D01*
X-8425886Y-19571176D01*
X-8333534Y-19478824D01*
X-8025000Y-19478824D01*
X-7912077Y-19467702D01*
X-7803494Y-19434764D01*
X-7703423Y-19381275D01*
X-7615710Y-19309290D01*
X-7543725Y-19221577D01*
X-7490236Y-19121506D01*
X-7457298Y-19012923D01*
X-7446176Y-18900000D01*
X-7446176Y-18500000D01*
X-7457298Y-18387077D01*
X-7490236Y-18278494D01*
X-7543725Y-18178423D01*
X-7615710Y-18090710D01*
X-7703423Y-18018725D01*
X-7803494Y-17965236D01*
X-7912077Y-17932298D01*
X-8025000Y-17921176D01*
X-8575000Y-17921176D01*
X-8687923Y-17932298D01*
X-8796506Y-17965236D01*
X-8896577Y-18018725D01*
X-8984290Y-18090710D01*
X-9051824Y-18173000D01*
X-9256710Y-18173000D01*
X-9473000Y-17956711D01*
X-9473000Y-16500880D01*
X-9470451Y-16474999D01*
X-9480626Y-16371690D01*
X-9510761Y-16272350D01*
X-9523002Y-16249448D01*
X-9559696Y-16180798D01*
X-9625552Y-16100552D01*
X-9645661Y-16084049D01*
X-9729710Y-16000000D01*
X-9453824Y-16000000D01*
X-9446545Y-16073905D01*
X-9424988Y-16144970D01*
X-9389981Y-16210463D01*
X-9342869Y-16267869D01*
X-9285463Y-16314981D01*
X-9219970Y-16349988D01*
X-9148905Y-16371545D01*
X-9075000Y-16378824D01*
X-8821250Y-16377000D01*
X-8727000Y-16282750D01*
X-8727000Y-15677000D01*
X-8473000Y-15677000D01*
X-8473000Y-16282750D01*
X-8378750Y-16377000D01*
X-8125000Y-16378824D01*
X-8051095Y-16371545D01*
X-7980030Y-16349988D01*
X-7914537Y-16314981D01*
X-7857131Y-16267869D01*
X-7810019Y-16210463D01*
X-7775012Y-16144970D01*
X-7753455Y-16073905D01*
X-7746176Y-16000000D01*
X-6928824Y-16000000D01*
X-6921545Y-16073905D01*
X-6899988Y-16144970D01*
X-6864981Y-16210463D01*
X-6817869Y-16267869D01*
X-6760463Y-16314981D01*
X-6694970Y-16349988D01*
X-6623905Y-16371545D01*
X-6550000Y-16378824D01*
X-6296250Y-16377000D01*
X-6202000Y-16282750D01*
X-6202000Y-15677000D01*
X-5948000Y-15677000D01*
X-5948000Y-16282750D01*
X-5853750Y-16377000D01*
X-5600000Y-16378824D01*
X-5526095Y-16371545D01*
X-5455030Y-16349988D01*
X-5389537Y-16314981D01*
X-5332131Y-16267869D01*
X-5285019Y-16210463D01*
X-5250012Y-16144970D01*
X-5228455Y-16073905D01*
X-5221176Y-16000000D01*
X-5223000Y-15771250D01*
X-5317250Y-15677000D01*
X-5948000Y-15677000D01*
X-6202000Y-15677000D01*
X-6832750Y-15677000D01*
X-6927000Y-15771250D01*
X-6928824Y-16000000D01*
X-7746176Y-16000000D01*
X-7748000Y-15771250D01*
X-7842250Y-15677000D01*
X-8473000Y-15677000D01*
X-8727000Y-15677000D01*
X-9357750Y-15677000D01*
X-9452000Y-15771250D01*
X-9453824Y-16000000D01*
X-9729710Y-16000000D01*
X-10209045Y-15520666D01*
X-10225552Y-15500552D01*
X-10305798Y-15434696D01*
X-10397350Y-15385761D01*
X-10496690Y-15355626D01*
X-10574119Y-15348000D01*
X-10600000Y-15345451D01*
X-10625881Y-15348000D01*
X-10850495Y-15348000D01*
X-10855019Y-15339537D01*
X-10902131Y-15282131D01*
X-10959537Y-15235019D01*
X-11025030Y-15200012D01*
X-11096095Y-15178455D01*
X-11170000Y-15171176D01*
X-12230000Y-15171176D01*
X-12273000Y-15175411D01*
X-12273000Y-14849735D01*
X-12250000Y-14852000D01*
X-9359175Y-14852000D01*
X-9389981Y-14889537D01*
X-9424988Y-14955030D01*
X-9446545Y-15026095D01*
X-9453824Y-15100000D01*
X-9452000Y-15328750D01*
X-9357750Y-15423000D01*
X-8727000Y-15423000D01*
X-8727000Y-15403000D01*
X-8473000Y-15403000D01*
X-8473000Y-15423000D01*
X-7842250Y-15423000D01*
X-7748000Y-15328750D01*
X-7746176Y-15100000D01*
X-7753455Y-15026095D01*
X-7775012Y-14955030D01*
X-7810019Y-14889537D01*
X-7840825Y-14852000D01*
X-6834175Y-14852000D01*
X-6864981Y-14889537D01*
X-6899988Y-14955030D01*
X-6921545Y-15026095D01*
X-6928824Y-15100000D01*
X-6927000Y-15328750D01*
X-6832750Y-15423000D01*
X-6202000Y-15423000D01*
X-6202000Y-15403000D01*
X-5948000Y-15403000D01*
X-5948000Y-15423000D01*
X-5317250Y-15423000D01*
X-5223000Y-15328750D01*
X-5221176Y-15100000D01*
X-5228455Y-15026095D01*
X-5250012Y-14955030D01*
X-5285019Y-14889537D01*
X-5332131Y-14832131D01*
X-5377534Y-14794870D01*
X-5365550Y-14788464D01*
X-5308421Y-14741579D01*
X-5261536Y-14684450D01*
X-5226697Y-14619272D01*
X-5205244Y-14548549D01*
X-5198000Y-14475000D01*
X-5198000Y-13525000D01*
X-5205244Y-13451451D01*
X-5226697Y-13380728D01*
X-5261536Y-13315550D01*
X-5308421Y-13258421D01*
X-5365550Y-13211536D01*
X-5430728Y-13176697D01*
X-5501451Y-13155244D01*
X-5575000Y-13148000D01*
X-6723000Y-13148000D01*
X-6723000Y-3829905D01*
X-5727000Y-3829905D01*
X-5727000Y-4170095D01*
X-5660632Y-4503747D01*
X-5530447Y-4818041D01*
X-5341448Y-5100898D01*
X-5100898Y-5341448D01*
X-4818041Y-5530447D01*
X-4503747Y-5660632D01*
X-4170095Y-5727000D01*
X-3829905Y-5727000D01*
X-3496253Y-5660632D01*
X-3181959Y-5530447D01*
X-2899102Y-5341448D01*
X-2658552Y-5100898D01*
X-2469553Y-4818041D01*
X-2339368Y-4503747D01*
X-2273000Y-4170095D01*
X-2273000Y-3829905D01*
X-2339368Y-3496253D01*
X-2469553Y-3181959D01*
X-2658552Y-2899102D01*
X-2899102Y-2658552D01*
X-3181959Y-2469553D01*
X-3496253Y-2339368D01*
X-3829905Y-2273000D01*
X-4170095Y-2273000D01*
X-4503747Y-2339368D01*
X-4818041Y-2469553D01*
X-5100898Y-2658552D01*
X-5341448Y-2899102D01*
X-5530447Y-3181959D01*
X-5660632Y-3496253D01*
X-5727000Y-3829905D01*
X-6723000Y-3829905D01*
X-6723000Y-3130794D01*
X-6719967Y-3100000D01*
X-6732073Y-2977087D01*
X-6740000Y-2950955D01*
X-6767925Y-2858897D01*
X-6826147Y-2749972D01*
X-6904499Y-2654499D01*
X-6928421Y-2634867D01*
X-7984862Y-1578427D01*
X-8004499Y-1554499D01*
X-8099972Y-1476147D01*
X-8208897Y-1417925D01*
X-8261395Y-1402000D01*
X-4019658Y-1402000D01*
X-3495758Y-1453369D01*
%TA.AperFunction,Conductor*%
D35*
G36*
X-3495758Y-1453369D02*
G01*
X-3010714Y-1599812D01*
X-2563358Y-1837674D01*
X-2170718Y-2157904D01*
X-1847759Y-2548294D01*
X-1606778Y-2993980D01*
X-1456952Y-3477987D01*
X-1402000Y-4000820D01*
X-1402000Y-4000827D01*
X-1401999Y-31273000D01*
X-10323000Y-31273000D01*
X-10323000Y-29877000D01*
X-10098000Y-29877000D01*
X-10098000Y-30507750D01*
X-10003750Y-30602000D01*
X-9775000Y-30603824D01*
X-9701095Y-30596545D01*
X-9630030Y-30574988D01*
X-9564537Y-30539981D01*
X-9507131Y-30492869D01*
X-9460019Y-30435463D01*
X-9425012Y-30369970D01*
X-9403455Y-30298905D01*
X-9396176Y-30225000D01*
X-9398000Y-29971250D01*
X-9492250Y-29877000D01*
X-10098000Y-29877000D01*
X-10323000Y-29877000D01*
X-10323000Y-28992250D01*
X-10098000Y-28992250D01*
X-10098000Y-29623000D01*
X-9492250Y-29623000D01*
X-9398000Y-29528750D01*
X-9396176Y-29275000D01*
X-9403455Y-29201095D01*
X-9425012Y-29130030D01*
X-9460019Y-29064537D01*
X-9507131Y-29007131D01*
X-9564537Y-28960019D01*
X-9630030Y-28925012D01*
X-9701095Y-28903455D01*
X-9775000Y-28896176D01*
X-10003750Y-28898000D01*
X-10098000Y-28992250D01*
X-10323000Y-28992250D01*
X-10323000Y-28709712D01*
X-10217112Y-28603824D01*
X-9993750Y-28603824D01*
X-9877169Y-28592342D01*
X-9765068Y-28558336D01*
X-9661756Y-28503115D01*
X-9571201Y-28428799D01*
X-9496885Y-28338244D01*
X-9441664Y-28234932D01*
X-9407658Y-28122831D01*
X-9396176Y-28006250D01*
X-9396176Y-27493750D01*
X-9407658Y-27377169D01*
X-9441664Y-27265068D01*
X-9496885Y-27161756D01*
X-9571201Y-27071201D01*
X-9661756Y-26996885D01*
X-9765068Y-26941664D01*
X-9877169Y-26907658D01*
X-9993750Y-26896176D01*
X-10431250Y-26896176D01*
X-10547831Y-26907658D01*
X-10659932Y-26941664D01*
X-10763244Y-26996885D01*
X-10853799Y-27071201D01*
X-10896309Y-27123000D01*
X-11103691Y-27123000D01*
X-11146201Y-27071201D01*
X-11236756Y-26996885D01*
X-11340068Y-26941664D01*
X-11452169Y-26907658D01*
X-11568750Y-26896176D01*
X-12006250Y-26896176D01*
X-12122831Y-26907658D01*
X-12234932Y-26941664D01*
X-12338244Y-26996885D01*
X-12428799Y-27071201D01*
X-12471309Y-27123000D01*
X-15419207Y-27123000D01*
X-15450001Y-27119967D01*
X-15480795Y-27123000D01*
X-15921176Y-27123000D01*
X-15921176Y-26675000D01*
X-15929896Y-26586463D01*
X-15955721Y-26501329D01*
X-15997659Y-26422869D01*
X-16054098Y-26354098D01*
X-16122869Y-26297659D01*
X-16201329Y-26255721D01*
X-16286463Y-26229896D01*
X-16375000Y-26221176D01*
X-16448000Y-26221176D01*
X-16448000Y-18300000D01*
X-14753824Y-18300000D01*
X-14752000Y-18478750D01*
X-14657750Y-18573000D01*
X-14027000Y-18573000D01*
X-14027000Y-18017250D01*
X-14121250Y-17923000D01*
X-14375000Y-17921176D01*
X-14448905Y-17928455D01*
X-14519970Y-17950012D01*
X-14585463Y-17985019D01*
X-14642869Y-18032131D01*
X-14689981Y-18089537D01*
X-14724988Y-18155030D01*
X-14746545Y-18226095D01*
X-14753824Y-18300000D01*
X-16448000Y-18300000D01*
X-16448000Y-17482934D01*
X-15342065Y-16377000D01*
X-14762867Y-16377000D01*
X-14744981Y-16410463D01*
X-14697869Y-16467869D01*
X-14640463Y-16514981D01*
X-14574970Y-16549988D01*
X-14503905Y-16571545D01*
X-14430000Y-16578824D01*
X-13370000Y-16578824D01*
X-13326999Y-16574589D01*
X-13326999Y-17935764D01*
X-13351095Y-17928455D01*
X-13425000Y-17921176D01*
X-13678750Y-17923000D01*
X-13773000Y-18017250D01*
X-13773000Y-18573000D01*
X-13142250Y-18573000D01*
X-13119770Y-18550520D01*
X-12615947Y-19054344D01*
X-12599448Y-19074448D01*
X-12519202Y-19140304D01*
X-12427650Y-19189239D01*
X-12328310Y-19219374D01*
X-12225000Y-19229549D01*
X-12199119Y-19227000D01*
X-11851824Y-19227000D01*
X-11784290Y-19309290D01*
X-11696577Y-19381275D01*
X-11596506Y-19434764D01*
X-11487923Y-19467702D01*
X-11375000Y-19478824D01*
X-10825000Y-19478824D01*
X-10712077Y-19467702D01*
X-10603494Y-19434764D01*
X-10503423Y-19381275D01*
X-10415710Y-19309290D01*
X-10343725Y-19221577D01*
X-10290236Y-19121506D01*
X-10257298Y-19012923D01*
X-10246176Y-18900000D01*
X-10246176Y-18674113D01*
X-9865951Y-19054339D01*
X-9849448Y-19074448D01*
X-9769202Y-19140304D01*
X-9712800Y-19170451D01*
X-9677650Y-19189239D01*
X-9578310Y-19219374D01*
X-9565887Y-19220598D01*
X-10168289Y-19823000D01*
X-10348176Y-19823000D01*
X-10415710Y-19740710D01*
X-10503423Y-19668725D01*
X-10603494Y-19615236D01*
X-10712077Y-19582298D01*
X-10825000Y-19571176D01*
X-11375000Y-19571176D01*
X-11487923Y-19582298D01*
X-11596506Y-19615236D01*
X-11696577Y-19668725D01*
X-11784290Y-19740710D01*
X-11856275Y-19828423D01*
X-11909764Y-19928494D01*
X-11942702Y-20037077D01*
X-11953824Y-20150000D01*
X-11953824Y-20550000D01*
X-11942702Y-20662923D01*
X-11909764Y-20771506D01*
X-11895603Y-20798000D01*
X-12706710Y-20798000D01*
X-13046176Y-20458535D01*
X-13046176Y-20150000D01*
X-13057298Y-20037077D01*
X-13090236Y-19928494D01*
X-13143725Y-19828423D01*
X-13215710Y-19740710D01*
X-13303423Y-19668725D01*
X-13377427Y-19629169D01*
X-13380626Y-19596690D01*
X-13410761Y-19497350D01*
X-13420880Y-19478418D01*
X-13351095Y-19471545D01*
X-13280030Y-19449988D01*
X-13214537Y-19414981D01*
X-13157131Y-19367869D01*
X-13110019Y-19310463D01*
X-13075012Y-19244970D01*
X-13053455Y-19173905D01*
X-13046176Y-19100000D01*
X-13048000Y-18921250D01*
X-13142250Y-18827000D01*
X-13773000Y-18827000D01*
X-13773000Y-18847000D01*
X-14027000Y-18847000D01*
X-14027000Y-18827000D01*
X-14657750Y-18827000D01*
X-14752000Y-18921250D01*
X-14753824Y-19100000D01*
X-14746545Y-19173905D01*
X-14724988Y-19244970D01*
X-14689981Y-19310463D01*
X-14642869Y-19367869D01*
X-14585463Y-19414981D01*
X-14519970Y-19449988D01*
X-14448905Y-19471545D01*
X-14379119Y-19478418D01*
X-14389238Y-19497350D01*
X-14419373Y-19596690D01*
X-14422572Y-19629168D01*
X-14496577Y-19668725D01*
X-14584290Y-19740710D01*
X-14656275Y-19828423D01*
X-14709764Y-19928494D01*
X-14742702Y-20037077D01*
X-14753824Y-20150000D01*
X-14753824Y-20550000D01*
X-14742702Y-20662923D01*
X-14709764Y-20771506D01*
X-14656275Y-20871577D01*
X-14584290Y-20959290D01*
X-14496577Y-21031275D01*
X-14396506Y-21084764D01*
X-14287923Y-21117702D01*
X-14247334Y-21121700D01*
X-14194202Y-21165304D01*
X-14102650Y-21214239D01*
X-14003310Y-21244374D01*
X-13900000Y-21254549D01*
X-13796691Y-21244374D01*
X-13761570Y-21233720D01*
X-13315951Y-21679339D01*
X-13299448Y-21699448D01*
X-13219202Y-21765304D01*
X-13127650Y-21814239D01*
X-13028310Y-21844374D01*
X-12925001Y-21854549D01*
X-12899120Y-21852000D01*
X-9300881Y-21852000D01*
X-9275000Y-21854549D01*
X-9249119Y-21852000D01*
X-9171690Y-21844374D01*
X-9072350Y-21814239D01*
X-8980798Y-21765304D01*
X-8900552Y-21699448D01*
X-8884045Y-21679334D01*
X-8333534Y-21128824D01*
X-8025000Y-21128824D01*
X-7912077Y-21117702D01*
X-7803494Y-21084764D01*
X-7703423Y-21031275D01*
X-7615710Y-20959290D01*
X-7543725Y-20871577D01*
X-7490236Y-20771506D01*
X-7457298Y-20662923D01*
X-7446176Y-20550000D01*
X-7446176Y-20150000D01*
X-7457298Y-20037077D01*
X-7490236Y-19928494D01*
X-7543725Y-19828423D01*
X-7615710Y-19740710D01*
X-7703423Y-19668725D01*
X-7803494Y-19615236D01*
X-7912077Y-19582298D01*
X-8025000Y-19571176D01*
X-8425886Y-19571176D01*
X-8333534Y-19478824D01*
X-8025000Y-19478824D01*
X-7912077Y-19467702D01*
X-7803494Y-19434764D01*
X-7703423Y-19381275D01*
X-7615710Y-19309290D01*
X-7543725Y-19221577D01*
X-7490236Y-19121506D01*
X-7457298Y-19012923D01*
X-7446176Y-18900000D01*
X-7446176Y-18500000D01*
X-7457298Y-18387077D01*
X-7490236Y-18278494D01*
X-7543725Y-18178423D01*
X-7615710Y-18090710D01*
X-7703423Y-18018725D01*
X-7803494Y-17965236D01*
X-7912077Y-17932298D01*
X-8025000Y-17921176D01*
X-8575000Y-17921176D01*
X-8687923Y-17932298D01*
X-8796506Y-17965236D01*
X-8896577Y-18018725D01*
X-8984290Y-18090710D01*
X-9051824Y-18173000D01*
X-9256710Y-18173000D01*
X-9473000Y-17956711D01*
X-9473000Y-16500880D01*
X-9470451Y-16474999D01*
X-9480626Y-16371690D01*
X-9510761Y-16272350D01*
X-9523002Y-16249448D01*
X-9559696Y-16180798D01*
X-9625552Y-16100552D01*
X-9645661Y-16084049D01*
X-9729710Y-16000000D01*
X-9453824Y-16000000D01*
X-9446545Y-16073905D01*
X-9424988Y-16144970D01*
X-9389981Y-16210463D01*
X-9342869Y-16267869D01*
X-9285463Y-16314981D01*
X-9219970Y-16349988D01*
X-9148905Y-16371545D01*
X-9075000Y-16378824D01*
X-8821250Y-16377000D01*
X-8727000Y-16282750D01*
X-8727000Y-15677000D01*
X-8473000Y-15677000D01*
X-8473000Y-16282750D01*
X-8378750Y-16377000D01*
X-8125000Y-16378824D01*
X-8051095Y-16371545D01*
X-7980030Y-16349988D01*
X-7914537Y-16314981D01*
X-7857131Y-16267869D01*
X-7810019Y-16210463D01*
X-7775012Y-16144970D01*
X-7753455Y-16073905D01*
X-7746176Y-16000000D01*
X-6928824Y-16000000D01*
X-6921545Y-16073905D01*
X-6899988Y-16144970D01*
X-6864981Y-16210463D01*
X-6817869Y-16267869D01*
X-6760463Y-16314981D01*
X-6694970Y-16349988D01*
X-6623905Y-16371545D01*
X-6550000Y-16378824D01*
X-6296250Y-16377000D01*
X-6202000Y-16282750D01*
X-6202000Y-15677000D01*
X-5948000Y-15677000D01*
X-5948000Y-16282750D01*
X-5853750Y-16377000D01*
X-5600000Y-16378824D01*
X-5526095Y-16371545D01*
X-5455030Y-16349988D01*
X-5389537Y-16314981D01*
X-5332131Y-16267869D01*
X-5285019Y-16210463D01*
X-5250012Y-16144970D01*
X-5228455Y-16073905D01*
X-5221176Y-16000000D01*
X-5223000Y-15771250D01*
X-5317250Y-15677000D01*
X-5948000Y-15677000D01*
X-6202000Y-15677000D01*
X-6832750Y-15677000D01*
X-6927000Y-15771250D01*
X-6928824Y-16000000D01*
X-7746176Y-16000000D01*
X-7748000Y-15771250D01*
X-7842250Y-15677000D01*
X-8473000Y-15677000D01*
X-8727000Y-15677000D01*
X-9357750Y-15677000D01*
X-9452000Y-15771250D01*
X-9453824Y-16000000D01*
X-9729710Y-16000000D01*
X-10209045Y-15520666D01*
X-10225552Y-15500552D01*
X-10305798Y-15434696D01*
X-10397350Y-15385761D01*
X-10496690Y-15355626D01*
X-10574119Y-15348000D01*
X-10600000Y-15345451D01*
X-10625881Y-15348000D01*
X-10850495Y-15348000D01*
X-10855019Y-15339537D01*
X-10902131Y-15282131D01*
X-10959537Y-15235019D01*
X-11025030Y-15200012D01*
X-11096095Y-15178455D01*
X-11170000Y-15171176D01*
X-12230000Y-15171176D01*
X-12273000Y-15175411D01*
X-12273000Y-14849735D01*
X-12250000Y-14852000D01*
X-9359175Y-14852000D01*
X-9389981Y-14889537D01*
X-9424988Y-14955030D01*
X-9446545Y-15026095D01*
X-9453824Y-15100000D01*
X-9452000Y-15328750D01*
X-9357750Y-15423000D01*
X-8727000Y-15423000D01*
X-8727000Y-15403000D01*
X-8473000Y-15403000D01*
X-8473000Y-15423000D01*
X-7842250Y-15423000D01*
X-7748000Y-15328750D01*
X-7746176Y-15100000D01*
X-7753455Y-15026095D01*
X-7775012Y-14955030D01*
X-7810019Y-14889537D01*
X-7840825Y-14852000D01*
X-6834175Y-14852000D01*
X-6864981Y-14889537D01*
X-6899988Y-14955030D01*
X-6921545Y-15026095D01*
X-6928824Y-15100000D01*
X-6927000Y-15328750D01*
X-6832750Y-15423000D01*
X-6202000Y-15423000D01*
X-6202000Y-15403000D01*
X-5948000Y-15403000D01*
X-5948000Y-15423000D01*
X-5317250Y-15423000D01*
X-5223000Y-15328750D01*
X-5221176Y-15100000D01*
X-5228455Y-15026095D01*
X-5250012Y-14955030D01*
X-5285019Y-14889537D01*
X-5332131Y-14832131D01*
X-5377534Y-14794870D01*
X-5365550Y-14788464D01*
X-5308421Y-14741579D01*
X-5261536Y-14684450D01*
X-5226697Y-14619272D01*
X-5205244Y-14548549D01*
X-5198000Y-14475000D01*
X-5198000Y-13525000D01*
X-5205244Y-13451451D01*
X-5226697Y-13380728D01*
X-5261536Y-13315550D01*
X-5308421Y-13258421D01*
X-5365550Y-13211536D01*
X-5430728Y-13176697D01*
X-5501451Y-13155244D01*
X-5575000Y-13148000D01*
X-6723000Y-13148000D01*
X-6723000Y-3829905D01*
X-5727000Y-3829905D01*
X-5727000Y-4170095D01*
X-5660632Y-4503747D01*
X-5530447Y-4818041D01*
X-5341448Y-5100898D01*
X-5100898Y-5341448D01*
X-4818041Y-5530447D01*
X-4503747Y-5660632D01*
X-4170095Y-5727000D01*
X-3829905Y-5727000D01*
X-3496253Y-5660632D01*
X-3181959Y-5530447D01*
X-2899102Y-5341448D01*
X-2658552Y-5100898D01*
X-2469553Y-4818041D01*
X-2339368Y-4503747D01*
X-2273000Y-4170095D01*
X-2273000Y-3829905D01*
X-2339368Y-3496253D01*
X-2469553Y-3181959D01*
X-2658552Y-2899102D01*
X-2899102Y-2658552D01*
X-3181959Y-2469553D01*
X-3496253Y-2339368D01*
X-3829905Y-2273000D01*
X-4170095Y-2273000D01*
X-4503747Y-2339368D01*
X-4818041Y-2469553D01*
X-5100898Y-2658552D01*
X-5341448Y-2899102D01*
X-5530447Y-3181959D01*
X-5660632Y-3496253D01*
X-5727000Y-3829905D01*
X-6723000Y-3829905D01*
X-6723000Y-3130794D01*
X-6719967Y-3100000D01*
X-6732073Y-2977087D01*
X-6740000Y-2950955D01*
X-6767925Y-2858897D01*
X-6826147Y-2749972D01*
X-6904499Y-2654499D01*
X-6928421Y-2634867D01*
X-7984862Y-1578427D01*
X-8004499Y-1554499D01*
X-8099972Y-1476147D01*
X-8208897Y-1417925D01*
X-8261395Y-1402000D01*
X-4019658Y-1402000D01*
X-3495758Y-1453369D01*
G37*
%TD.AperFunction*%
D34*
X-7977000Y-3359712D02*
X-7976999Y-13148000D01*
X-12250000Y-13148000D01*
X-12323549Y-13155244D01*
X-12394272Y-13176697D01*
X-12459450Y-13211536D01*
X-12516579Y-13258421D01*
X-12563464Y-13315550D01*
X-12598303Y-13380728D01*
X-12619756Y-13451451D01*
X-12627000Y-13525000D01*
X-12627000Y-13902710D01*
X-12909045Y-13620666D01*
X-12925552Y-13600552D01*
X-13005798Y-13534696D01*
X-13012022Y-13531369D01*
X-13020012Y-13505030D01*
X-13055019Y-13439537D01*
X-13102131Y-13382131D01*
X-13159537Y-13335019D01*
X-13225030Y-13300012D01*
X-13273000Y-13285461D01*
X-13273000Y-9159711D01*
X-10646403Y-6533114D01*
X-10425774Y-6577000D01*
X-10174226Y-6577000D01*
X-9927513Y-6527926D01*
X-9695114Y-6431663D01*
X-9485960Y-6291911D01*
X-9308089Y-6114040D01*
X-9168337Y-5904886D01*
X-9072074Y-5672487D01*
X-9023000Y-5425774D01*
X-9023000Y-5174226D01*
X-9072074Y-4927513D01*
X-9168337Y-4695114D01*
X-9308089Y-4485960D01*
X-9485960Y-4308089D01*
X-9695114Y-4168337D01*
X-9927513Y-4072074D01*
X-10174226Y-4023000D01*
X-10425774Y-4023000D01*
X-10672487Y-4072074D01*
X-10904886Y-4168337D01*
X-11114040Y-4308089D01*
X-11291911Y-4485960D01*
X-11431663Y-4695114D01*
X-11527926Y-4927513D01*
X-11577000Y-5174226D01*
X-11577000Y-5425774D01*
X-11533114Y-5646403D01*
X-14321577Y-8434866D01*
X-14345500Y-8454499D01*
X-14423852Y-8549972D01*
X-14482074Y-8658897D01*
X-14517927Y-8777088D01*
X-14530033Y-8900000D01*
X-14526999Y-8930804D01*
X-14527000Y-13285461D01*
X-14574970Y-13300012D01*
X-14640463Y-13335019D01*
X-14697869Y-13382131D01*
X-14744981Y-13439537D01*
X-14779988Y-13505030D01*
X-14801545Y-13576095D01*
X-14808824Y-13650000D01*
X-14808824Y-14300000D01*
X-14801545Y-14373905D01*
X-14779988Y-14444970D01*
X-14777299Y-14450000D01*
X-14779988Y-14455030D01*
X-14801545Y-14526095D01*
X-14808824Y-14600000D01*
X-14807000Y-14703750D01*
X-14712750Y-14798000D01*
X-14027000Y-14798000D01*
X-14027000Y-14778000D01*
X-13773000Y-14778000D01*
X-13773000Y-14798000D01*
X-13753000Y-14798000D01*
X-13753000Y-15052000D01*
X-13773000Y-15052000D01*
X-13773000Y-15072000D01*
X-14027000Y-15072000D01*
X-14027000Y-15052000D01*
X-14712750Y-15052000D01*
X-14807000Y-15146250D01*
X-14808824Y-15250000D01*
X-14801545Y-15323905D01*
X-14786652Y-15373000D01*
X-15525357Y-15373000D01*
X-15550000Y-15370573D01*
X-15574643Y-15373000D01*
X-15574653Y-15373000D01*
X-15648409Y-15380264D01*
X-15743036Y-15408969D01*
X-15830245Y-15455583D01*
X-15830247Y-15455584D01*
X-15830246Y-15455584D01*
X-15885040Y-15500553D01*
X-15906684Y-15518316D01*
X-15922397Y-15537462D01*
X-17287533Y-16902599D01*
X-17306684Y-16918316D01*
X-17369417Y-16994755D01*
X-17416031Y-17081965D01*
X-17444736Y-17176592D01*
X-17452000Y-17250348D01*
X-17452000Y-17250357D01*
X-17454427Y-17275000D01*
X-17452000Y-17299643D01*
X-17451999Y-26221176D01*
X-17525000Y-26221176D01*
X-17613537Y-26229896D01*
X-17698671Y-26255721D01*
X-17700000Y-26256431D01*
X-17701329Y-26255721D01*
X-17786463Y-26229896D01*
X-17875000Y-26221176D01*
X-18023000Y-26221176D01*
X-18023000Y-6225693D01*
X-16046087Y-6225693D01*
X-15947785Y-6407665D01*
X-15719244Y-6512759D01*
X-15474590Y-6571246D01*
X-15223227Y-6580881D01*
X-14974815Y-6541291D01*
X-14738899Y-6454000D01*
X-14652215Y-6407665D01*
X-14553913Y-6225693D01*
X-15300000Y-5479605D01*
X-16046087Y-6225693D01*
X-18023000Y-6225693D01*
X-18023000Y-5376773D01*
X-16580881Y-5376773D01*
X-16541291Y-5625185D01*
X-16454000Y-5861101D01*
X-16407665Y-5947785D01*
X-16225693Y-6046087D01*
X-15479605Y-5300000D01*
X-15120395Y-5300000D01*
X-14374307Y-6046087D01*
X-14192335Y-5947785D01*
X-14087241Y-5719244D01*
X-14028754Y-5474590D01*
X-14019119Y-5223227D01*
X-14058709Y-4974815D01*
X-14146000Y-4738899D01*
X-14192335Y-4652215D01*
X-14374307Y-4553913D01*
X-15120395Y-5300000D01*
X-15479605Y-5300000D01*
X-16225693Y-4553913D01*
X-16407665Y-4652215D01*
X-16512759Y-4880756D01*
X-16571246Y-5125410D01*
X-16580881Y-5376773D01*
X-18023000Y-5376773D01*
X-18023000Y-4374307D01*
X-16046087Y-4374307D01*
X-15300000Y-5120395D01*
X-14553913Y-4374307D01*
X-14652215Y-4192335D01*
X-14880756Y-4087241D01*
X-15125410Y-4028754D01*
X-15376773Y-4019119D01*
X-15625185Y-4058709D01*
X-15861101Y-4146000D01*
X-15947785Y-4192335D01*
X-16046087Y-4374307D01*
X-18023000Y-4374307D01*
X-18023000Y-2627000D01*
X-8709711Y-2627000D01*
X-7977000Y-3359712D01*
%TA.AperFunction,Conductor*%
D35*
G36*
X-7977000Y-3359712D02*
G01*
X-7976999Y-13148000D01*
X-12250000Y-13148000D01*
X-12323549Y-13155244D01*
X-12394272Y-13176697D01*
X-12459450Y-13211536D01*
X-12516579Y-13258421D01*
X-12563464Y-13315550D01*
X-12598303Y-13380728D01*
X-12619756Y-13451451D01*
X-12627000Y-13525000D01*
X-12627000Y-13902710D01*
X-12909045Y-13620666D01*
X-12925552Y-13600552D01*
X-13005798Y-13534696D01*
X-13012022Y-13531369D01*
X-13020012Y-13505030D01*
X-13055019Y-13439537D01*
X-13102131Y-13382131D01*
X-13159537Y-13335019D01*
X-13225030Y-13300012D01*
X-13273000Y-13285461D01*
X-13273000Y-9159711D01*
X-10646403Y-6533114D01*
X-10425774Y-6577000D01*
X-10174226Y-6577000D01*
X-9927513Y-6527926D01*
X-9695114Y-6431663D01*
X-9485960Y-6291911D01*
X-9308089Y-6114040D01*
X-9168337Y-5904886D01*
X-9072074Y-5672487D01*
X-9023000Y-5425774D01*
X-9023000Y-5174226D01*
X-9072074Y-4927513D01*
X-9168337Y-4695114D01*
X-9308089Y-4485960D01*
X-9485960Y-4308089D01*
X-9695114Y-4168337D01*
X-9927513Y-4072074D01*
X-10174226Y-4023000D01*
X-10425774Y-4023000D01*
X-10672487Y-4072074D01*
X-10904886Y-4168337D01*
X-11114040Y-4308089D01*
X-11291911Y-4485960D01*
X-11431663Y-4695114D01*
X-11527926Y-4927513D01*
X-11577000Y-5174226D01*
X-11577000Y-5425774D01*
X-11533114Y-5646403D01*
X-14321577Y-8434866D01*
X-14345500Y-8454499D01*
X-14423852Y-8549972D01*
X-14482074Y-8658897D01*
X-14517927Y-8777088D01*
X-14530033Y-8900000D01*
X-14526999Y-8930804D01*
X-14527000Y-13285461D01*
X-14574970Y-13300012D01*
X-14640463Y-13335019D01*
X-14697869Y-13382131D01*
X-14744981Y-13439537D01*
X-14779988Y-13505030D01*
X-14801545Y-13576095D01*
X-14808824Y-13650000D01*
X-14808824Y-14300000D01*
X-14801545Y-14373905D01*
X-14779988Y-14444970D01*
X-14777299Y-14450000D01*
X-14779988Y-14455030D01*
X-14801545Y-14526095D01*
X-14808824Y-14600000D01*
X-14807000Y-14703750D01*
X-14712750Y-14798000D01*
X-14027000Y-14798000D01*
X-14027000Y-14778000D01*
X-13773000Y-14778000D01*
X-13773000Y-14798000D01*
X-13753000Y-14798000D01*
X-13753000Y-15052000D01*
X-13773000Y-15052000D01*
X-13773000Y-15072000D01*
X-14027000Y-15072000D01*
X-14027000Y-15052000D01*
X-14712750Y-15052000D01*
X-14807000Y-15146250D01*
X-14808824Y-15250000D01*
X-14801545Y-15323905D01*
X-14786652Y-15373000D01*
X-15525357Y-15373000D01*
X-15550000Y-15370573D01*
X-15574643Y-15373000D01*
X-15574653Y-15373000D01*
X-15648409Y-15380264D01*
X-15743036Y-15408969D01*
X-15830245Y-15455583D01*
X-15830247Y-15455584D01*
X-15830246Y-15455584D01*
X-15885040Y-15500553D01*
X-15906684Y-15518316D01*
X-15922397Y-15537462D01*
X-17287533Y-16902599D01*
X-17306684Y-16918316D01*
X-17369417Y-16994755D01*
X-17416031Y-17081965D01*
X-17444736Y-17176592D01*
X-17452000Y-17250348D01*
X-17452000Y-17250357D01*
X-17454427Y-17275000D01*
X-17452000Y-17299643D01*
X-17451999Y-26221176D01*
X-17525000Y-26221176D01*
X-17613537Y-26229896D01*
X-17698671Y-26255721D01*
X-17700000Y-26256431D01*
X-17701329Y-26255721D01*
X-17786463Y-26229896D01*
X-17875000Y-26221176D01*
X-18023000Y-26221176D01*
X-18023000Y-6225693D01*
X-16046087Y-6225693D01*
X-15947785Y-6407665D01*
X-15719244Y-6512759D01*
X-15474590Y-6571246D01*
X-15223227Y-6580881D01*
X-14974815Y-6541291D01*
X-14738899Y-6454000D01*
X-14652215Y-6407665D01*
X-14553913Y-6225693D01*
X-15300000Y-5479605D01*
X-16046087Y-6225693D01*
X-18023000Y-6225693D01*
X-18023000Y-5376773D01*
X-16580881Y-5376773D01*
X-16541291Y-5625185D01*
X-16454000Y-5861101D01*
X-16407665Y-5947785D01*
X-16225693Y-6046087D01*
X-15479605Y-5300000D01*
X-15120395Y-5300000D01*
X-14374307Y-6046087D01*
X-14192335Y-5947785D01*
X-14087241Y-5719244D01*
X-14028754Y-5474590D01*
X-14019119Y-5223227D01*
X-14058709Y-4974815D01*
X-14146000Y-4738899D01*
X-14192335Y-4652215D01*
X-14374307Y-4553913D01*
X-15120395Y-5300000D01*
X-15479605Y-5300000D01*
X-16225693Y-4553913D01*
X-16407665Y-4652215D01*
X-16512759Y-4880756D01*
X-16571246Y-5125410D01*
X-16580881Y-5376773D01*
X-18023000Y-5376773D01*
X-18023000Y-4374307D01*
X-16046087Y-4374307D01*
X-15300000Y-5120395D01*
X-14553913Y-4374307D01*
X-14652215Y-4192335D01*
X-14880756Y-4087241D01*
X-15125410Y-4028754D01*
X-15376773Y-4019119D01*
X-15625185Y-4058709D01*
X-15861101Y-4146000D01*
X-15947785Y-4192335D01*
X-16046087Y-4374307D01*
X-18023000Y-4374307D01*
X-18023000Y-2627000D01*
X-8709711Y-2627000D01*
X-7977000Y-3359712D01*
G37*
%TD.AperFunction*%
%TD*%
M02*
