M48
; DRILL file {KiCad 5.1.10} date Tue May  4 20:33:30 2021
; FORMAT={-:-/ absolute / inch / decimal}
; #@! TF.CreationDate,2021-05-04T20:33:30-04:00
; #@! TF.GenerationSoftware,Kicad,Pcbnew,5.1.10
; #@! TF.FileFunction,Plated,1,2,PTH
FMAT,2
INCH
T1C0.0157
T2C0.0394
T3C0.0433
%
G90
G05
T1
X-2.5817Y-0.6358
X-2.4902Y-1.7264
X-2.4843Y-0.4724
X-2.4449Y-0.752
X-2.4213Y-0.6772
X-2.3819Y-0.6772
X-2.3327Y-0.8071
X-2.3327Y-1.3169
X-2.2539Y-1.2874
X-2.1752Y-1.4114
X-2.1132Y-0.497
X-2.0965Y-1.4114
X-2.062Y-0.497
X-2.0177Y-0.8071
X-2.0177Y-1.4114
X-2.0108Y-0.127
X-1.8898Y-0.8465
X-1.8898Y-0.9134
X-1.81Y-1.6486
X-1.7608Y-0.127
X-1.7598Y-0.5374
X-1.7323Y-0.8878
X-1.7224Y-1.2874
X-1.7224Y-1.3465
X-1.7224Y-1.4055
X-1.7205Y-0.5374
X-1.6949Y-1.376
X-1.6917Y-1.2589
X-1.6752Y-0.4075
X-1.6732Y-0.5768
X-1.6713Y-1.4587
X-1.6476Y-0.7303
X-1.6476Y-0.9291
X-1.6398Y-1.4341
X-1.5472Y-0.4921
X-1.5394Y-0.6516
X-1.4783Y-0.9409
X-1.3917Y-0.4518
X-1.3248Y-1.3888
X-1.3031Y-0.4636
X-1.2992Y-1.5138
X-1.2741Y-1.2579
X-1.248Y-1.6102
X-1.1961Y-1.361
X-1.1949Y-1.6102
X-1.1949Y-1.7047
X-1.1417Y-0.5502
X-1.1417Y-0.5974
X-1.1319Y-1.3484
X-1.1211Y-0.935
X-1.1171Y-1.2579
X-1.0768Y-1.2598
X-1.0689Y-1.0709
X-1.0481Y-1.6075
X-1.0354Y-1.2598
X-1.0308Y-0.55
X-1.0295Y-1.0689
X-0.998Y-1.6102
X-0.998Y-1.7047
X-0.9892Y-1.0679
X-0.9843Y-1.2402
X-0.9252Y-1.0098
X-0.9016Y-0.1496
X-0.9016Y-0.2618
X-0.9006Y-0.373
X-0.8612Y-0.8661
X-0.8602Y-1.2992
X-0.8543Y-1.6102
X-0.8533Y-1.5531
X-0.8199Y-0.7175
X-0.815Y-1.0217
X-0.7569Y-1.5531
X-0.7067Y-1.3484
X-0.6988Y-0.6663
X-0.6988Y-0.7057
X-0.6988Y-0.7451
X-0.6988Y-0.7844
X-0.6988Y-0.8238
X-0.6988Y-0.8632
X-0.6988Y-0.9026
X-0.6988Y-0.9419
X-0.6988Y-0.9813
X-0.6988Y-1.0207
X-0.6693Y-0.6368
X-0.6398Y-0.6073
X-0.6358Y-0.7057
X-0.6358Y-0.7451
X-0.6358Y-0.7844
X-0.6358Y-0.8238
X-0.6358Y-0.8632
X-0.6358Y-0.9026
X-0.6358Y-0.9419
X-0.6358Y-0.9813
X-0.6358Y-1.0207
X-0.6161Y-0.6762
X-0.6004Y-0.5915
X-0.5846Y-0.3563
X-0.5846Y-0.3957
X-0.5846Y-0.435
X-0.5846Y-0.4744
X-0.5846Y-0.5138
X-0.5846Y-0.6565
X-0.565Y-0.315
X-0.5472Y-0.6959
X-0.5354Y-0.2854
X-0.5157Y-1.2008
X-0.5138Y-1.5335
X-0.5098Y-0.3957
X-0.5098Y-0.435
X-0.5098Y-0.4744
X-0.5098Y-0.5138
X-0.5059Y-0.2559
X-0.5059Y-1.5846
X-0.5Y-0.3602
X-0.4744Y-0.2244
X-0.4744Y-0.3327
X-0.4705Y-0.1781
X-0.4469Y-0.3071
X-0.439Y-0.1447
X-0.4173Y-0.2776
X-0.3947Y-0.1368
X-0.373Y-0.2717
X-0.3563Y-0.1565
X-0.3504Y-1.1713
X-0.3504Y-1.4272
X-0.3425Y-0.2421
X-0.3386Y-0.6545
X-0.3346Y-0.1988
X-0.2283Y-0.6545
X-0.1319Y-1.3484
T2
X-0.7087Y-1.5949
X-0.7087Y-1.6949
T3
X-2.4528Y-0.2087
X-2.2559Y-0.2087
X-1.4291Y-0.2087
X-1.2323Y-0.2087
X-1.0354Y-0.2087
X-0.6024Y-0.2087
X-0.4055Y-0.2087
T0
M30
