M48
; DRILL file {KiCad (6.0.2)} date Sun 13 Feb 2022 11:21:48 AM EST
; FORMAT={-:-/ absolute / inch / decimal}
; #@! TF.CreationDate,2022-02-13T11:21:48-05:00
; #@! TF.GenerationSoftware,Kicad,Pcbnew,(6.0.2)
; #@! TF.FileFunction,MixedPlating,1,2
FMAT,2
INCH
; #@! TA.AperFunction,Plated,PTH,ComponentDrill
T1C0.0394
%
G90
G05
T1
X0.4783Y-1.378
X0.5758Y-0.5407
X0.5758Y-0.6407
X0.5783Y-1.378
X0.6758Y-0.5407
X0.6758Y-0.6407
X0.6783Y-1.378
X0.7758Y-0.5407
X0.7758Y-0.6407
X0.7783Y-1.378
X0.8783Y-1.378
X0.9783Y-1.378
X2.0866Y-0.5906
X2.1866Y-0.5906
X2.2047Y-1.278
X2.2047Y-1.378
X2.2866Y-0.5906
X2.3047Y-1.278
X2.3047Y-1.378
X2.3866Y-0.5906
X2.4047Y-1.278
X2.4047Y-1.378
X2.4866Y-0.5906
X2.5866Y-0.5906
T0
M30
