%TF.GenerationSoftware,KiCad,Pcbnew,(6.0.2)*%
%TF.CreationDate,2022-02-13T11:21:41-05:00*%
%TF.ProjectId,tag-connect_breakout,7461672d-636f-46e6-9e65-63745f627265,rev?*%
%TF.SameCoordinates,PX5f5e100PY3dfd240*%
%TF.FileFunction,Copper,L2,Bot*%
%TF.FilePolarity,Positive*%
%FSLAX46Y46*%
G04 Gerber Fmt 4.6, Leading zero omitted, Abs format (unit mm)*
G04 Created by KiCad (PCBNEW (6.0.2)) date 2022-02-13 11:21:41*
%MOMM*%
%LPD*%
G01*
G04 APERTURE LIST*
%TA.AperFunction,ComponentPad*%
%ADD10R,1.700000X1.700000*%
%TD*%
%TA.AperFunction,ComponentPad*%
%ADD11O,1.700000X1.700000*%
%TD*%
%TA.AperFunction,Conductor*%
%ADD12C,1.000000*%
%TD*%
G04 APERTURE END LIST*
D10*
%TO.P,J4,1,Pin_1*%
%TO.N,unconnected-(J4-Pad1)*%
X56000000Y-35000000D03*
D11*
%TO.P,J4,2,Pin_2*%
%TO.N,/DIO*%
X56000000Y-32460000D03*
%TO.P,J4,3,Pin_3*%
%TO.N,/NRST*%
X58540000Y-35000000D03*
%TO.P,J4,4,Pin_4*%
%TO.N,/CLK*%
X58540000Y-32460000D03*
%TO.P,J4,5,Pin_5*%
%TO.N,GND*%
X61080000Y-35000000D03*
%TO.P,J4,6,Pin_6*%
%TO.N,unconnected-(J4-Pad6)*%
X61080000Y-32460000D03*
%TD*%
D10*
%TO.P,J3,1,Pin_1*%
%TO.N,unconnected-(J3-Pad1)*%
X14625000Y-16275000D03*
D11*
%TO.P,J3,2,Pin_2*%
%TO.N,unconnected-(J3-Pad2)*%
X14625000Y-13735000D03*
%TO.P,J3,3,Pin_3*%
%TO.N,/RXI*%
X17165000Y-16275000D03*
%TO.P,J3,4,Pin_4*%
%TO.N,/TXI*%
X17165000Y-13735000D03*
%TO.P,J3,5,Pin_5*%
%TO.N,GND*%
X19705000Y-16275000D03*
%TO.P,J3,6,Pin_6*%
%TO.N,unconnected-(J3-Pad6)*%
X19705000Y-13735000D03*
%TD*%
D10*
%TO.P,J2,1,Pin_1*%
%TO.N,unconnected-(J2-Pad1)*%
X53000000Y-15000000D03*
D11*
%TO.P,J2,2,Pin_2*%
%TO.N,/CLK*%
X55540000Y-15000000D03*
%TO.P,J2,3,Pin_3*%
%TO.N,GND*%
X58080000Y-15000000D03*
%TO.P,J2,4,Pin_4*%
%TO.N,/DIO*%
X60620000Y-15000000D03*
%TO.P,J2,5,Pin_5*%
%TO.N,/NRST*%
X63160000Y-15000000D03*
%TO.P,J2,6,Pin_6*%
%TO.N,unconnected-(J2-Pad6)*%
X65700000Y-15000000D03*
%TD*%
D10*
%TO.P,J1,1,Pin_1*%
%TO.N,unconnected-(J1-Pad1)*%
X12150000Y-35000000D03*
D11*
%TO.P,J1,2,Pin_2*%
%TO.N,/RXI*%
X14690000Y-35000000D03*
%TO.P,J1,3,Pin_3*%
%TO.N,/TXI*%
X17230000Y-35000000D03*
%TO.P,J1,4,Pin_4*%
%TO.N,unconnected-(J1-Pad4)*%
X19770000Y-35000000D03*
%TO.P,J1,5,Pin_5*%
%TO.N,unconnected-(J1-Pad5)*%
X22310000Y-35000000D03*
%TO.P,J1,6,Pin_6*%
%TO.N,GND*%
X24850000Y-35000000D03*
%TD*%
D12*
%TO.N,/TXI*%
X17230000Y-35000000D02*
X17230000Y-36920000D01*
X17230000Y-36920000D02*
X16150000Y-38000000D01*
X16150000Y-38000000D02*
X11150000Y-38000000D01*
X9000000Y-14150000D02*
X12150000Y-11000000D01*
X11150000Y-38000000D02*
X9000000Y-35850000D01*
X9000000Y-35850000D02*
X9000000Y-14150000D01*
X12150000Y-11000000D02*
X16150000Y-11000000D01*
X16150000Y-11000000D02*
X17165000Y-12015000D01*
X17165000Y-12015000D02*
X17165000Y-13735000D01*
%TO.N,/NRST*%
X63160000Y-15000000D02*
X63160000Y-12160000D01*
X58540000Y-37460000D02*
X58540000Y-35000000D01*
X63160000Y-12160000D02*
X60000000Y-9000000D01*
X60000000Y-9000000D02*
X50000000Y-9000000D01*
X50000000Y-9000000D02*
X48000000Y-11000000D01*
X48000000Y-11000000D02*
X48000000Y-35000000D01*
X48000000Y-35000000D02*
X52000000Y-39000000D01*
X52000000Y-39000000D02*
X57000000Y-39000000D01*
X57000000Y-39000000D02*
X58540000Y-37460000D01*
%TO.N,/DIO*%
X60620000Y-15000000D02*
X60620000Y-12620000D01*
X59000000Y-11000000D02*
X51000000Y-11000000D01*
X60620000Y-12620000D02*
X59000000Y-11000000D01*
X50000000Y-12000000D02*
X50000000Y-26460000D01*
X51000000Y-11000000D02*
X50000000Y-12000000D01*
X50000000Y-26460000D02*
X56000000Y-32460000D01*
%TO.N,/CLK*%
X58540000Y-32460000D02*
X58540000Y-25540000D01*
X58540000Y-25540000D02*
X55540000Y-22540000D01*
X55540000Y-22540000D02*
X55540000Y-15000000D01*
%TO.N,/RXI*%
X17165000Y-16275000D02*
X17165000Y-25985000D01*
X17165000Y-25985000D02*
X14690000Y-28460000D01*
X14690000Y-28460000D02*
X14690000Y-35000000D01*
%TD*%
%TA.AperFunction,Conductor*%
%TO.N,GND*%
G36*
X74970057Y-1509500D02*
G01*
X74984858Y-1511805D01*
X74984861Y-1511805D01*
X74993730Y-1513186D01*
X75013054Y-1510659D01*
X75035570Y-1509747D01*
X75336100Y-1524512D01*
X75348394Y-1525722D01*
X75675139Y-1574191D01*
X75687249Y-1576599D01*
X76007674Y-1656861D01*
X76019507Y-1660451D01*
X76330494Y-1771725D01*
X76341918Y-1776456D01*
X76640523Y-1917685D01*
X76651428Y-1923514D01*
X76934745Y-2093328D01*
X76945026Y-2100198D01*
X77210329Y-2296960D01*
X77219887Y-2304804D01*
X77464630Y-2526626D01*
X77473374Y-2535370D01*
X77695196Y-2780113D01*
X77703040Y-2789671D01*
X77899802Y-3054974D01*
X77906672Y-3065255D01*
X78076486Y-3348572D01*
X78082315Y-3359477D01*
X78223544Y-3658082D01*
X78228275Y-3669506D01*
X78339549Y-3980493D01*
X78343138Y-3992324D01*
X78420462Y-4301016D01*
X78423399Y-4312743D01*
X78425809Y-4324861D01*
X78474277Y-4651601D01*
X78475489Y-4663907D01*
X78489890Y-4957062D01*
X78488543Y-4982624D01*
X78488195Y-4984857D01*
X78488195Y-4984861D01*
X78486814Y-4993730D01*
X78487978Y-5002632D01*
X78487978Y-5002635D01*
X78490936Y-5025251D01*
X78492000Y-5041589D01*
X78492000Y-44950672D01*
X78490500Y-44970056D01*
X78486814Y-44993730D01*
X78489274Y-45012539D01*
X78489341Y-45013050D01*
X78490253Y-45035570D01*
X78475489Y-45336093D01*
X78475489Y-45336094D01*
X78474278Y-45348394D01*
X78463378Y-45421876D01*
X78425811Y-45675130D01*
X78423401Y-45687249D01*
X78415240Y-45719830D01*
X78343139Y-46007674D01*
X78339549Y-46019507D01*
X78228275Y-46330494D01*
X78223544Y-46341918D01*
X78082315Y-46640523D01*
X78076486Y-46651428D01*
X77906672Y-46934745D01*
X77899802Y-46945026D01*
X77703040Y-47210329D01*
X77695196Y-47219887D01*
X77473374Y-47464630D01*
X77464630Y-47473374D01*
X77219887Y-47695196D01*
X77210329Y-47703040D01*
X76945026Y-47899802D01*
X76934745Y-47906672D01*
X76651428Y-48076486D01*
X76640523Y-48082315D01*
X76341918Y-48223544D01*
X76330494Y-48228275D01*
X76019507Y-48339549D01*
X76007676Y-48343138D01*
X75687249Y-48423401D01*
X75675139Y-48425809D01*
X75348394Y-48474278D01*
X75336098Y-48475489D01*
X75247344Y-48479849D01*
X75042938Y-48489890D01*
X75017376Y-48488543D01*
X75015143Y-48488195D01*
X75015139Y-48488195D01*
X75006270Y-48486814D01*
X74997368Y-48487978D01*
X74997365Y-48487978D01*
X74978083Y-48490500D01*
X74975728Y-48490808D01*
X74974749Y-48490936D01*
X74958411Y-48492000D01*
X5049328Y-48492000D01*
X5029943Y-48490500D01*
X5015142Y-48488195D01*
X5015139Y-48488195D01*
X5006270Y-48486814D01*
X4986946Y-48489341D01*
X4964430Y-48490253D01*
X4663900Y-48475488D01*
X4651606Y-48474278D01*
X4324861Y-48425809D01*
X4312751Y-48423401D01*
X3992324Y-48343138D01*
X3980493Y-48339549D01*
X3669506Y-48228275D01*
X3658082Y-48223544D01*
X3359477Y-48082315D01*
X3348572Y-48076486D01*
X3065255Y-47906672D01*
X3054974Y-47899802D01*
X2789671Y-47703040D01*
X2780113Y-47695196D01*
X2535370Y-47473374D01*
X2526626Y-47464630D01*
X2304804Y-47219887D01*
X2296960Y-47210329D01*
X2100198Y-46945026D01*
X2093328Y-46934745D01*
X1923514Y-46651428D01*
X1917685Y-46640523D01*
X1776456Y-46341918D01*
X1771725Y-46330494D01*
X1660451Y-46019507D01*
X1656861Y-46007674D01*
X1584760Y-45719830D01*
X1576599Y-45687249D01*
X1574189Y-45675130D01*
X1536623Y-45421876D01*
X1525722Y-45348394D01*
X1524511Y-45336093D01*
X1514520Y-45132703D01*
X2890743Y-45132703D01*
X2928268Y-45417734D01*
X3004129Y-45695036D01*
X3005813Y-45698984D01*
X3041885Y-45783552D01*
X3116923Y-45959476D01*
X3264561Y-46206161D01*
X3444313Y-46430528D01*
X3652851Y-46628423D01*
X3886317Y-46796186D01*
X3890112Y-46798195D01*
X3890113Y-46798196D01*
X3911869Y-46809715D01*
X4140392Y-46930712D01*
X4410373Y-47029511D01*
X4691264Y-47090755D01*
X4719841Y-47093004D01*
X4914282Y-47108307D01*
X4914291Y-47108307D01*
X4916739Y-47108500D01*
X5072271Y-47108500D01*
X5074407Y-47108354D01*
X5074418Y-47108354D01*
X5282548Y-47094165D01*
X5282554Y-47094164D01*
X5286825Y-47093873D01*
X5291020Y-47093004D01*
X5291022Y-47093004D01*
X5427584Y-47064723D01*
X5568342Y-47035574D01*
X5839343Y-46939607D01*
X6094812Y-46807750D01*
X6098313Y-46805289D01*
X6098317Y-46805287D01*
X6212418Y-46725095D01*
X6330023Y-46642441D01*
X6540622Y-46446740D01*
X6722713Y-46224268D01*
X6872927Y-45979142D01*
X6988483Y-45715898D01*
X7067244Y-45439406D01*
X7107751Y-45154784D01*
X7107845Y-45136951D01*
X7107867Y-45132703D01*
X72890743Y-45132703D01*
X72928268Y-45417734D01*
X73004129Y-45695036D01*
X73005813Y-45698984D01*
X73041885Y-45783552D01*
X73116923Y-45959476D01*
X73264561Y-46206161D01*
X73444313Y-46430528D01*
X73652851Y-46628423D01*
X73886317Y-46796186D01*
X73890112Y-46798195D01*
X73890113Y-46798196D01*
X73911869Y-46809715D01*
X74140392Y-46930712D01*
X74410373Y-47029511D01*
X74691264Y-47090755D01*
X74719841Y-47093004D01*
X74914282Y-47108307D01*
X74914291Y-47108307D01*
X74916739Y-47108500D01*
X75072271Y-47108500D01*
X75074407Y-47108354D01*
X75074418Y-47108354D01*
X75282548Y-47094165D01*
X75282554Y-47094164D01*
X75286825Y-47093873D01*
X75291020Y-47093004D01*
X75291022Y-47093004D01*
X75427584Y-47064723D01*
X75568342Y-47035574D01*
X75839343Y-46939607D01*
X76094812Y-46807750D01*
X76098313Y-46805289D01*
X76098317Y-46805287D01*
X76212418Y-46725095D01*
X76330023Y-46642441D01*
X76540622Y-46446740D01*
X76722713Y-46224268D01*
X76872927Y-45979142D01*
X76988483Y-45715898D01*
X77067244Y-45439406D01*
X77107751Y-45154784D01*
X77107845Y-45136951D01*
X77109235Y-44871583D01*
X77109235Y-44871576D01*
X77109257Y-44867297D01*
X77071732Y-44582266D01*
X76995871Y-44304964D01*
X76883077Y-44040524D01*
X76735439Y-43793839D01*
X76555687Y-43569472D01*
X76347149Y-43371577D01*
X76113683Y-43203814D01*
X76091843Y-43192250D01*
X76068654Y-43179972D01*
X75859608Y-43069288D01*
X75589627Y-42970489D01*
X75308736Y-42909245D01*
X75277685Y-42906801D01*
X75085718Y-42891693D01*
X75085709Y-42891693D01*
X75083261Y-42891500D01*
X74927729Y-42891500D01*
X74925593Y-42891646D01*
X74925582Y-42891646D01*
X74717452Y-42905835D01*
X74717446Y-42905836D01*
X74713175Y-42906127D01*
X74708980Y-42906996D01*
X74708978Y-42906996D01*
X74572417Y-42935276D01*
X74431658Y-42964426D01*
X74160657Y-43060393D01*
X73905188Y-43192250D01*
X73901687Y-43194711D01*
X73901683Y-43194713D01*
X73891594Y-43201804D01*
X73669977Y-43357559D01*
X73459378Y-43553260D01*
X73277287Y-43775732D01*
X73127073Y-44020858D01*
X73011517Y-44284102D01*
X72932756Y-44560594D01*
X72892249Y-44845216D01*
X72892227Y-44849505D01*
X72892226Y-44849512D01*
X72890765Y-45128417D01*
X72890743Y-45132703D01*
X7107867Y-45132703D01*
X7109235Y-44871583D01*
X7109235Y-44871576D01*
X7109257Y-44867297D01*
X7071732Y-44582266D01*
X6995871Y-44304964D01*
X6883077Y-44040524D01*
X6735439Y-43793839D01*
X6555687Y-43569472D01*
X6347149Y-43371577D01*
X6113683Y-43203814D01*
X6091843Y-43192250D01*
X6068654Y-43179972D01*
X5859608Y-43069288D01*
X5589627Y-42970489D01*
X5308736Y-42909245D01*
X5277685Y-42906801D01*
X5085718Y-42891693D01*
X5085709Y-42891693D01*
X5083261Y-42891500D01*
X4927729Y-42891500D01*
X4925593Y-42891646D01*
X4925582Y-42891646D01*
X4717452Y-42905835D01*
X4717446Y-42905836D01*
X4713175Y-42906127D01*
X4708980Y-42906996D01*
X4708978Y-42906996D01*
X4572417Y-42935276D01*
X4431658Y-42964426D01*
X4160657Y-43060393D01*
X3905188Y-43192250D01*
X3901687Y-43194711D01*
X3901683Y-43194713D01*
X3891594Y-43201804D01*
X3669977Y-43357559D01*
X3459378Y-43553260D01*
X3277287Y-43775732D01*
X3127073Y-44020858D01*
X3011517Y-44284102D01*
X2932756Y-44560594D01*
X2892249Y-44845216D01*
X2892227Y-44849505D01*
X2892226Y-44849512D01*
X2890765Y-45128417D01*
X2890743Y-45132703D01*
X1514520Y-45132703D01*
X1510293Y-45046665D01*
X1511886Y-45019586D01*
X1512264Y-45017340D01*
X1512265Y-45017331D01*
X1513071Y-45012539D01*
X1513224Y-45000000D01*
X1509273Y-44972412D01*
X1508000Y-44954549D01*
X1508000Y-14146462D01*
X7986626Y-14146462D01*
X7989099Y-14172621D01*
X7990941Y-14192109D01*
X7991500Y-14203967D01*
X7991500Y-35788157D01*
X7990763Y-35801764D01*
X7986676Y-35839388D01*
X7987213Y-35845523D01*
X7991050Y-35889388D01*
X7991379Y-35894214D01*
X7991500Y-35896686D01*
X7991500Y-35899769D01*
X7991801Y-35902837D01*
X7995690Y-35942506D01*
X7995812Y-35943819D01*
X7998447Y-35973938D01*
X8003913Y-36036413D01*
X8005400Y-36041532D01*
X8005920Y-36046833D01*
X8032791Y-36135834D01*
X8033126Y-36136967D01*
X8056856Y-36218642D01*
X8059091Y-36226336D01*
X8061544Y-36231068D01*
X8063084Y-36236169D01*
X8065978Y-36241612D01*
X8106731Y-36318260D01*
X8107343Y-36319426D01*
X8127550Y-36358408D01*
X8150108Y-36401926D01*
X8153431Y-36406089D01*
X8155934Y-36410796D01*
X8214755Y-36482918D01*
X8215446Y-36483774D01*
X8246738Y-36522973D01*
X8249242Y-36525477D01*
X8249884Y-36526195D01*
X8253585Y-36530528D01*
X8280935Y-36564062D01*
X8285682Y-36567989D01*
X8285684Y-36567991D01*
X8316262Y-36593287D01*
X8325042Y-36601277D01*
X10393145Y-38669379D01*
X10402247Y-38679522D01*
X10425968Y-38709025D01*
X10430696Y-38712992D01*
X10464421Y-38741291D01*
X10468069Y-38744472D01*
X10469881Y-38746115D01*
X10472075Y-38748309D01*
X10505349Y-38775642D01*
X10506147Y-38776304D01*
X10577474Y-38836154D01*
X10582144Y-38838722D01*
X10586261Y-38842103D01*
X10606079Y-38852729D01*
X10668086Y-38885977D01*
X10669245Y-38886606D01*
X10745381Y-38928462D01*
X10745389Y-38928465D01*
X10750787Y-38931433D01*
X10755869Y-38933045D01*
X10760563Y-38935562D01*
X10849531Y-38962762D01*
X10850559Y-38963082D01*
X10939306Y-38991235D01*
X10944602Y-38991829D01*
X10949698Y-38993387D01*
X11042257Y-39002790D01*
X11043393Y-39002911D01*
X11077008Y-39006681D01*
X11089730Y-39008108D01*
X11089734Y-39008108D01*
X11093227Y-39008500D01*
X11096754Y-39008500D01*
X11097739Y-39008555D01*
X11103419Y-39009002D01*
X11132825Y-39011989D01*
X11140337Y-39012752D01*
X11140339Y-39012752D01*
X11146462Y-39013374D01*
X11192108Y-39009059D01*
X11203967Y-39008500D01*
X16088157Y-39008500D01*
X16101764Y-39009237D01*
X16133262Y-39012659D01*
X16133267Y-39012659D01*
X16139388Y-39013324D01*
X16165638Y-39011027D01*
X16189388Y-39008950D01*
X16194214Y-39008621D01*
X16196686Y-39008500D01*
X16199769Y-39008500D01*
X16211738Y-39007326D01*
X16242506Y-39004310D01*
X16243819Y-39004188D01*
X16288084Y-39000315D01*
X16336413Y-38996087D01*
X16341532Y-38994600D01*
X16346833Y-38994080D01*
X16435834Y-38967209D01*
X16436967Y-38966874D01*
X16520414Y-38942630D01*
X16520418Y-38942628D01*
X16526336Y-38940909D01*
X16531068Y-38938456D01*
X16536169Y-38936916D01*
X16543173Y-38933192D01*
X16618260Y-38893269D01*
X16619426Y-38892657D01*
X16696453Y-38852729D01*
X16701926Y-38849892D01*
X16706089Y-38846569D01*
X16710796Y-38844066D01*
X16782918Y-38785245D01*
X16783774Y-38784554D01*
X16822973Y-38753262D01*
X16825477Y-38750758D01*
X16826195Y-38750116D01*
X16830528Y-38746415D01*
X16864062Y-38719065D01*
X16893288Y-38683737D01*
X16901277Y-38674958D01*
X17899379Y-37676855D01*
X17909522Y-37667753D01*
X17934218Y-37647897D01*
X17939025Y-37644032D01*
X17971292Y-37605578D01*
X17974472Y-37601931D01*
X17976115Y-37600119D01*
X17978309Y-37597925D01*
X18005642Y-37564651D01*
X18006348Y-37563800D01*
X18045809Y-37516773D01*
X18066154Y-37492526D01*
X18068722Y-37487856D01*
X18072103Y-37483739D01*
X18116015Y-37401842D01*
X18116624Y-37400720D01*
X18158466Y-37324611D01*
X18158468Y-37324606D01*
X18161433Y-37319213D01*
X18163044Y-37314135D01*
X18165563Y-37309437D01*
X18192753Y-37220502D01*
X18193136Y-37219272D01*
X18219371Y-37136570D01*
X18221235Y-37130694D01*
X18221828Y-37125403D01*
X18223388Y-37120302D01*
X18232795Y-37027689D01*
X18232915Y-37026569D01*
X18238500Y-36976773D01*
X18238500Y-36973244D01*
X18238555Y-36972261D01*
X18239004Y-36966556D01*
X18242752Y-36929664D01*
X18242752Y-36929661D01*
X18243374Y-36923537D01*
X18239059Y-36877888D01*
X18238500Y-36866031D01*
X18238500Y-35963970D01*
X18258502Y-35895849D01*
X18266460Y-35885120D01*
X18268096Y-35883489D01*
X18398453Y-35702077D01*
X18399776Y-35703028D01*
X18446645Y-35659857D01*
X18516580Y-35647625D01*
X18582026Y-35675144D01*
X18609875Y-35706994D01*
X18669987Y-35805088D01*
X18816250Y-35973938D01*
X18988126Y-36116632D01*
X19181000Y-36229338D01*
X19185825Y-36231180D01*
X19185826Y-36231181D01*
X19213142Y-36241612D01*
X19389692Y-36309030D01*
X19394760Y-36310061D01*
X19394763Y-36310062D01*
X19489862Y-36329410D01*
X19608597Y-36353567D01*
X19613772Y-36353757D01*
X19613774Y-36353757D01*
X19826673Y-36361564D01*
X19826677Y-36361564D01*
X19831837Y-36361753D01*
X19836957Y-36361097D01*
X19836959Y-36361097D01*
X20048288Y-36334025D01*
X20048289Y-36334025D01*
X20053416Y-36333368D01*
X20058366Y-36331883D01*
X20262429Y-36270661D01*
X20262434Y-36270659D01*
X20267384Y-36269174D01*
X20467994Y-36170896D01*
X20649860Y-36041173D01*
X20808096Y-35883489D01*
X20938453Y-35702077D01*
X20939776Y-35703028D01*
X20986645Y-35659857D01*
X21056580Y-35647625D01*
X21122026Y-35675144D01*
X21149875Y-35706994D01*
X21209987Y-35805088D01*
X21356250Y-35973938D01*
X21528126Y-36116632D01*
X21721000Y-36229338D01*
X21725825Y-36231180D01*
X21725826Y-36231181D01*
X21753142Y-36241612D01*
X21929692Y-36309030D01*
X21934760Y-36310061D01*
X21934763Y-36310062D01*
X22029862Y-36329410D01*
X22148597Y-36353567D01*
X22153772Y-36353757D01*
X22153774Y-36353757D01*
X22366673Y-36361564D01*
X22366677Y-36361564D01*
X22371837Y-36361753D01*
X22376957Y-36361097D01*
X22376959Y-36361097D01*
X22588288Y-36334025D01*
X22588289Y-36334025D01*
X22593416Y-36333368D01*
X22598366Y-36331883D01*
X22802429Y-36270661D01*
X22802434Y-36270659D01*
X22807384Y-36269174D01*
X23007994Y-36170896D01*
X23189860Y-36041173D01*
X23348096Y-35883489D01*
X23478453Y-35702077D01*
X23479640Y-35702930D01*
X23526960Y-35659362D01*
X23596897Y-35647145D01*
X23662338Y-35674678D01*
X23690166Y-35706511D01*
X23747694Y-35800388D01*
X23753777Y-35808699D01*
X23893213Y-35969667D01*
X23900580Y-35976883D01*
X24064434Y-36112916D01*
X24072881Y-36118831D01*
X24256756Y-36226279D01*
X24266042Y-36230729D01*
X24465001Y-36306703D01*
X24474899Y-36309579D01*
X24578250Y-36330606D01*
X24592299Y-36329410D01*
X24596000Y-36319065D01*
X24596000Y-36318517D01*
X25104000Y-36318517D01*
X25108064Y-36332359D01*
X25121478Y-36334393D01*
X25128184Y-36333534D01*
X25138262Y-36331392D01*
X25342255Y-36270191D01*
X25351842Y-36266433D01*
X25543095Y-36172739D01*
X25551945Y-36167464D01*
X25725328Y-36043792D01*
X25733200Y-36037139D01*
X25884052Y-35886812D01*
X25890730Y-35878965D01*
X26015003Y-35706020D01*
X26020313Y-35697183D01*
X26114670Y-35506267D01*
X26118469Y-35496672D01*
X26180377Y-35292910D01*
X26182555Y-35282837D01*
X26183986Y-35271962D01*
X26181775Y-35257778D01*
X26168617Y-35254000D01*
X25122115Y-35254000D01*
X25106876Y-35258475D01*
X25105671Y-35259865D01*
X25104000Y-35267548D01*
X25104000Y-36318517D01*
X24596000Y-36318517D01*
X24596000Y-34727885D01*
X25104000Y-34727885D01*
X25108475Y-34743124D01*
X25109865Y-34744329D01*
X25117548Y-34746000D01*
X26168344Y-34746000D01*
X26181875Y-34742027D01*
X26183180Y-34732947D01*
X26141214Y-34565875D01*
X26137894Y-34556124D01*
X26052972Y-34360814D01*
X26048105Y-34351739D01*
X25932426Y-34172926D01*
X25926136Y-34164757D01*
X25782806Y-34007240D01*
X25775273Y-34000215D01*
X25608139Y-33868222D01*
X25599552Y-33862517D01*
X25413117Y-33759599D01*
X25403705Y-33755369D01*
X25202959Y-33684280D01*
X25192988Y-33681646D01*
X25121837Y-33668972D01*
X25108540Y-33670432D01*
X25104000Y-33684989D01*
X25104000Y-34727885D01*
X24596000Y-34727885D01*
X24596000Y-33683102D01*
X24592082Y-33669758D01*
X24577806Y-33667771D01*
X24539324Y-33673660D01*
X24529288Y-33676051D01*
X24326868Y-33742212D01*
X24317359Y-33746209D01*
X24128463Y-33844542D01*
X24119738Y-33850036D01*
X23949433Y-33977905D01*
X23941726Y-33984748D01*
X23794590Y-34138717D01*
X23788109Y-34146722D01*
X23683498Y-34300074D01*
X23628587Y-34345076D01*
X23558062Y-34353247D01*
X23494315Y-34321993D01*
X23473618Y-34297509D01*
X23392822Y-34172617D01*
X23392820Y-34172614D01*
X23390014Y-34168277D01*
X23239670Y-34003051D01*
X23235619Y-33999852D01*
X23235615Y-33999848D01*
X23068414Y-33867800D01*
X23068410Y-33867798D01*
X23064359Y-33864598D01*
X23028028Y-33844542D01*
X22959420Y-33806669D01*
X22868789Y-33756638D01*
X22863920Y-33754914D01*
X22863916Y-33754912D01*
X22663087Y-33683795D01*
X22663083Y-33683794D01*
X22658212Y-33682069D01*
X22653119Y-33681162D01*
X22653116Y-33681161D01*
X22443373Y-33643800D01*
X22443367Y-33643799D01*
X22438284Y-33642894D01*
X22364452Y-33641992D01*
X22220081Y-33640228D01*
X22220079Y-33640228D01*
X22214911Y-33640165D01*
X21994091Y-33673955D01*
X21781756Y-33743357D01*
X21732439Y-33769030D01*
X21595479Y-33840327D01*
X21583607Y-33846507D01*
X21579474Y-33849610D01*
X21579471Y-33849612D01*
X21471914Y-33930368D01*
X21404965Y-33980635D01*
X21401393Y-33984373D01*
X21293729Y-34097037D01*
X21250629Y-34142138D01*
X21143201Y-34299621D01*
X21088293Y-34344621D01*
X21017768Y-34352792D01*
X20954021Y-34321538D01*
X20933324Y-34297054D01*
X20852822Y-34172617D01*
X20852820Y-34172614D01*
X20850014Y-34168277D01*
X20699670Y-34003051D01*
X20695619Y-33999852D01*
X20695615Y-33999848D01*
X20528414Y-33867800D01*
X20528410Y-33867798D01*
X20524359Y-33864598D01*
X20488028Y-33844542D01*
X20419420Y-33806669D01*
X20328789Y-33756638D01*
X20323920Y-33754914D01*
X20323916Y-33754912D01*
X20123087Y-33683795D01*
X20123083Y-33683794D01*
X20118212Y-33682069D01*
X20113119Y-33681162D01*
X20113116Y-33681161D01*
X19903373Y-33643800D01*
X19903367Y-33643799D01*
X19898284Y-33642894D01*
X19824452Y-33641992D01*
X19680081Y-33640228D01*
X19680079Y-33640228D01*
X19674911Y-33640165D01*
X19454091Y-33673955D01*
X19241756Y-33743357D01*
X19192439Y-33769030D01*
X19055479Y-33840327D01*
X19043607Y-33846507D01*
X19039474Y-33849610D01*
X19039471Y-33849612D01*
X18931914Y-33930368D01*
X18864965Y-33980635D01*
X18861393Y-33984373D01*
X18753729Y-34097037D01*
X18710629Y-34142138D01*
X18603201Y-34299621D01*
X18548293Y-34344621D01*
X18477768Y-34352792D01*
X18414021Y-34321538D01*
X18393324Y-34297054D01*
X18312822Y-34172617D01*
X18312820Y-34172614D01*
X18310014Y-34168277D01*
X18159670Y-34003051D01*
X18155619Y-33999852D01*
X18155615Y-33999848D01*
X17988414Y-33867800D01*
X17988410Y-33867798D01*
X17984359Y-33864598D01*
X17948028Y-33844542D01*
X17879420Y-33806669D01*
X17788789Y-33756638D01*
X17783920Y-33754914D01*
X17783916Y-33754912D01*
X17583087Y-33683795D01*
X17583083Y-33683794D01*
X17578212Y-33682069D01*
X17573119Y-33681162D01*
X17573116Y-33681161D01*
X17363373Y-33643800D01*
X17363367Y-33643799D01*
X17358284Y-33642894D01*
X17284452Y-33641992D01*
X17140081Y-33640228D01*
X17140079Y-33640228D01*
X17134911Y-33640165D01*
X16914091Y-33673955D01*
X16701756Y-33743357D01*
X16652439Y-33769030D01*
X16515479Y-33840327D01*
X16503607Y-33846507D01*
X16499474Y-33849610D01*
X16499471Y-33849612D01*
X16391914Y-33930368D01*
X16324965Y-33980635D01*
X16321393Y-33984373D01*
X16213729Y-34097037D01*
X16170629Y-34142138D01*
X16063201Y-34299621D01*
X16008293Y-34344621D01*
X15937768Y-34352792D01*
X15874021Y-34321538D01*
X15853324Y-34297054D01*
X15772825Y-34172621D01*
X15772820Y-34172615D01*
X15770014Y-34168277D01*
X15766532Y-34164450D01*
X15731306Y-34125737D01*
X15700254Y-34061891D01*
X15698500Y-34040938D01*
X15698500Y-28929925D01*
X15718502Y-28861804D01*
X15735405Y-28840830D01*
X17834379Y-26741855D01*
X17844522Y-26732753D01*
X17869218Y-26712897D01*
X17874025Y-26709032D01*
X17906292Y-26670578D01*
X17909473Y-26666930D01*
X17911117Y-26665117D01*
X17913309Y-26662925D01*
X17940580Y-26629724D01*
X17941362Y-26628782D01*
X17997193Y-26562247D01*
X17997195Y-26562244D01*
X18001154Y-26557526D01*
X18003723Y-26552853D01*
X18007103Y-26548738D01*
X18051028Y-26466820D01*
X18051657Y-26465662D01*
X18093465Y-26389612D01*
X18093465Y-26389611D01*
X18096433Y-26384213D01*
X18098044Y-26379135D01*
X18100563Y-26374437D01*
X18127753Y-26285502D01*
X18128136Y-26284272D01*
X18154371Y-26201570D01*
X18156235Y-26195694D01*
X18156828Y-26190403D01*
X18158388Y-26185302D01*
X18167795Y-26092689D01*
X18167915Y-26091569D01*
X18173500Y-26041773D01*
X18173500Y-26038244D01*
X18173555Y-26037261D01*
X18174004Y-26031556D01*
X18177752Y-25994664D01*
X18177752Y-25994661D01*
X18178374Y-25988537D01*
X18174059Y-25942888D01*
X18173500Y-25931031D01*
X18173500Y-17238970D01*
X18193502Y-17170849D01*
X18201460Y-17160120D01*
X18203096Y-17158489D01*
X18333453Y-16977077D01*
X18334640Y-16977930D01*
X18381960Y-16934362D01*
X18451897Y-16922145D01*
X18517338Y-16949678D01*
X18545166Y-16981511D01*
X18602694Y-17075388D01*
X18608777Y-17083699D01*
X18748213Y-17244667D01*
X18755580Y-17251883D01*
X18919434Y-17387916D01*
X18927881Y-17393831D01*
X19111756Y-17501279D01*
X19121042Y-17505729D01*
X19320001Y-17581703D01*
X19329899Y-17584579D01*
X19433250Y-17605606D01*
X19447299Y-17604410D01*
X19451000Y-17594065D01*
X19451000Y-17593517D01*
X19959000Y-17593517D01*
X19963064Y-17607359D01*
X19976478Y-17609393D01*
X19983184Y-17608534D01*
X19993262Y-17606392D01*
X20197255Y-17545191D01*
X20206842Y-17541433D01*
X20398095Y-17447739D01*
X20406945Y-17442464D01*
X20580328Y-17318792D01*
X20588200Y-17312139D01*
X20739052Y-17161812D01*
X20745730Y-17153965D01*
X20870003Y-16981020D01*
X20875313Y-16972183D01*
X20969670Y-16781267D01*
X20973469Y-16771672D01*
X21035377Y-16567910D01*
X21037555Y-16557837D01*
X21038986Y-16546962D01*
X21036775Y-16532778D01*
X21023617Y-16529000D01*
X19977115Y-16529000D01*
X19961876Y-16533475D01*
X19960671Y-16534865D01*
X19959000Y-16542548D01*
X19959000Y-17593517D01*
X19451000Y-17593517D01*
X19451000Y-16147000D01*
X19471002Y-16078879D01*
X19524658Y-16032386D01*
X19577000Y-16021000D01*
X21023344Y-16021000D01*
X21036875Y-16017027D01*
X21038180Y-16007947D01*
X20996214Y-15840875D01*
X20992894Y-15831124D01*
X20907972Y-15635814D01*
X20903105Y-15626739D01*
X20787426Y-15447926D01*
X20781136Y-15439757D01*
X20637806Y-15282240D01*
X20630273Y-15275215D01*
X20463139Y-15143222D01*
X20454556Y-15137520D01*
X20417602Y-15117120D01*
X20367631Y-15066687D01*
X20352859Y-14997245D01*
X20377975Y-14930839D01*
X20405327Y-14904232D01*
X20429040Y-14887318D01*
X20584860Y-14776173D01*
X20588705Y-14772342D01*
X20739435Y-14622137D01*
X20743096Y-14618489D01*
X20802594Y-14535689D01*
X20870435Y-14441277D01*
X20873453Y-14437077D01*
X20894320Y-14394857D01*
X20970136Y-14241453D01*
X20970137Y-14241451D01*
X20972430Y-14236811D01*
X21031362Y-14042843D01*
X21035865Y-14028023D01*
X21035865Y-14028021D01*
X21037370Y-14023069D01*
X21066529Y-13801590D01*
X21066611Y-13798240D01*
X21068074Y-13738365D01*
X21068074Y-13738361D01*
X21068156Y-13735000D01*
X21049852Y-13512361D01*
X20995431Y-13295702D01*
X20906354Y-13090840D01*
X20848123Y-13000828D01*
X20787822Y-12907617D01*
X20787820Y-12907614D01*
X20785014Y-12903277D01*
X20634670Y-12738051D01*
X20630619Y-12734852D01*
X20630615Y-12734848D01*
X20463414Y-12602800D01*
X20463410Y-12602798D01*
X20459359Y-12599598D01*
X20416224Y-12575786D01*
X20327552Y-12526837D01*
X20263789Y-12491638D01*
X20258920Y-12489914D01*
X20258916Y-12489912D01*
X20058087Y-12418795D01*
X20058083Y-12418794D01*
X20053212Y-12417069D01*
X20048119Y-12416162D01*
X20048116Y-12416161D01*
X19838373Y-12378800D01*
X19838367Y-12378799D01*
X19833284Y-12377894D01*
X19759452Y-12376992D01*
X19615081Y-12375228D01*
X19615079Y-12375228D01*
X19609911Y-12375165D01*
X19389091Y-12408955D01*
X19176756Y-12478357D01*
X19146443Y-12494137D01*
X19006162Y-12567163D01*
X18978607Y-12581507D01*
X18974474Y-12584610D01*
X18974471Y-12584612D01*
X18804100Y-12712530D01*
X18799965Y-12715635D01*
X18796393Y-12719373D01*
X18679684Y-12841502D01*
X18645629Y-12877138D01*
X18538201Y-13034621D01*
X18483293Y-13079621D01*
X18412768Y-13087792D01*
X18349021Y-13056538D01*
X18328324Y-13032054D01*
X18247825Y-12907621D01*
X18247820Y-12907615D01*
X18245014Y-12903277D01*
X18225117Y-12881410D01*
X18206306Y-12860737D01*
X18175254Y-12796891D01*
X18173500Y-12775938D01*
X18173500Y-12076843D01*
X18174237Y-12063236D01*
X18177659Y-12031738D01*
X18177659Y-12031733D01*
X18178324Y-12025612D01*
X18173950Y-11975612D01*
X18173621Y-11970786D01*
X18173500Y-11968314D01*
X18173500Y-11965231D01*
X18171351Y-11943310D01*
X18169310Y-11922494D01*
X18169188Y-11921181D01*
X18161623Y-11834718D01*
X18161087Y-11828587D01*
X18159600Y-11823468D01*
X18159080Y-11818167D01*
X18132209Y-11729166D01*
X18131874Y-11728033D01*
X18107630Y-11644586D01*
X18107628Y-11644582D01*
X18105909Y-11638664D01*
X18103456Y-11633932D01*
X18101916Y-11628831D01*
X18087005Y-11600787D01*
X18058269Y-11546740D01*
X18057657Y-11545574D01*
X18017729Y-11468547D01*
X18014892Y-11463074D01*
X18011569Y-11458911D01*
X18009066Y-11454204D01*
X18002325Y-11445938D01*
X17950261Y-11382102D01*
X17949433Y-11381075D01*
X17920469Y-11344792D01*
X17920464Y-11344787D01*
X17918262Y-11342028D01*
X17915761Y-11339527D01*
X17915119Y-11338809D01*
X17911406Y-11334461D01*
X17898285Y-11318374D01*
X17884065Y-11300938D01*
X17879323Y-11297015D01*
X17879321Y-11297013D01*
X17848727Y-11271703D01*
X17839947Y-11263713D01*
X17572696Y-10996462D01*
X46986626Y-10996462D01*
X46987206Y-11002593D01*
X46990941Y-11042109D01*
X46991500Y-11053967D01*
X46991500Y-34938157D01*
X46990763Y-34951764D01*
X46986676Y-34989388D01*
X46988973Y-35015638D01*
X46991050Y-35039388D01*
X46991379Y-35044214D01*
X46991500Y-35046686D01*
X46991500Y-35049769D01*
X46991801Y-35052837D01*
X46995690Y-35092506D01*
X46995812Y-35093819D01*
X47003913Y-35186413D01*
X47005400Y-35191532D01*
X47005920Y-35196833D01*
X47032791Y-35285834D01*
X47033126Y-35286967D01*
X47059091Y-35376336D01*
X47061544Y-35381068D01*
X47063084Y-35386169D01*
X47065978Y-35391612D01*
X47106731Y-35468260D01*
X47107343Y-35469426D01*
X47124130Y-35501811D01*
X47150108Y-35551926D01*
X47153431Y-35556089D01*
X47155934Y-35560796D01*
X47214755Y-35632918D01*
X47215446Y-35633774D01*
X47246738Y-35672973D01*
X47249242Y-35675477D01*
X47249884Y-35676195D01*
X47253585Y-35680528D01*
X47280935Y-35714062D01*
X47285682Y-35717989D01*
X47285684Y-35717991D01*
X47316262Y-35743287D01*
X47325042Y-35751277D01*
X51243145Y-39669379D01*
X51252247Y-39679522D01*
X51275968Y-39709025D01*
X51314456Y-39741320D01*
X51318075Y-39744478D01*
X51319890Y-39746124D01*
X51322075Y-39748309D01*
X51324455Y-39750264D01*
X51324465Y-39750273D01*
X51355236Y-39775549D01*
X51356251Y-39776391D01*
X51366393Y-39784901D01*
X51427474Y-39836154D01*
X51432148Y-39838723D01*
X51436261Y-39842102D01*
X51441698Y-39845017D01*
X51441699Y-39845018D01*
X51518047Y-39885955D01*
X51519177Y-39886568D01*
X51600787Y-39931433D01*
X51605869Y-39933045D01*
X51610563Y-39935562D01*
X51699531Y-39962762D01*
X51700559Y-39963082D01*
X51789306Y-39991235D01*
X51794602Y-39991829D01*
X51799698Y-39993387D01*
X51892257Y-40002790D01*
X51893393Y-40002911D01*
X51927008Y-40006681D01*
X51939730Y-40008108D01*
X51939734Y-40008108D01*
X51943227Y-40008500D01*
X51946754Y-40008500D01*
X51947739Y-40008555D01*
X51953419Y-40009002D01*
X51982825Y-40011989D01*
X51990337Y-40012752D01*
X51990339Y-40012752D01*
X51996462Y-40013374D01*
X52042108Y-40009059D01*
X52053967Y-40008500D01*
X56938157Y-40008500D01*
X56951764Y-40009237D01*
X56983262Y-40012659D01*
X56983267Y-40012659D01*
X56989388Y-40013324D01*
X57015638Y-40011027D01*
X57039388Y-40008950D01*
X57044214Y-40008621D01*
X57046686Y-40008500D01*
X57049769Y-40008500D01*
X57061738Y-40007326D01*
X57092506Y-40004310D01*
X57093819Y-40004188D01*
X57138084Y-40000315D01*
X57186413Y-39996087D01*
X57191532Y-39994600D01*
X57196833Y-39994080D01*
X57285834Y-39967209D01*
X57286967Y-39966874D01*
X57370414Y-39942630D01*
X57370418Y-39942628D01*
X57376336Y-39940909D01*
X57381068Y-39938456D01*
X57386169Y-39936916D01*
X57393173Y-39933192D01*
X57468260Y-39893269D01*
X57469426Y-39892657D01*
X57546453Y-39852729D01*
X57551926Y-39849892D01*
X57556089Y-39846569D01*
X57560796Y-39844066D01*
X57632918Y-39785245D01*
X57633774Y-39784554D01*
X57672973Y-39753262D01*
X57675477Y-39750758D01*
X57676195Y-39750116D01*
X57680528Y-39746415D01*
X57714062Y-39719065D01*
X57743288Y-39683737D01*
X57751277Y-39674958D01*
X59209379Y-38216855D01*
X59219522Y-38207753D01*
X59244218Y-38187897D01*
X59249025Y-38184032D01*
X59281292Y-38145578D01*
X59284472Y-38141931D01*
X59286115Y-38140119D01*
X59288309Y-38137925D01*
X59315642Y-38104651D01*
X59316348Y-38103800D01*
X59372195Y-38037244D01*
X59376154Y-38032526D01*
X59378722Y-38027856D01*
X59382103Y-38023739D01*
X59425977Y-37941914D01*
X59426606Y-37940755D01*
X59468462Y-37864619D01*
X59468465Y-37864611D01*
X59471433Y-37859213D01*
X59473045Y-37854131D01*
X59475562Y-37849437D01*
X59502747Y-37760523D01*
X59503139Y-37759265D01*
X59529372Y-37676567D01*
X59531235Y-37670694D01*
X59531829Y-37665403D01*
X59533388Y-37660302D01*
X59542790Y-37567737D01*
X59542925Y-37566470D01*
X59543174Y-37564257D01*
X59548500Y-37516773D01*
X59548500Y-37513248D01*
X59548555Y-37512263D01*
X59549004Y-37506559D01*
X59552752Y-37469666D01*
X59552752Y-37469661D01*
X59553374Y-37463538D01*
X59549059Y-37417891D01*
X59548500Y-37406033D01*
X59548500Y-35963970D01*
X59568502Y-35895849D01*
X59576460Y-35885120D01*
X59578096Y-35883489D01*
X59708453Y-35702077D01*
X59709640Y-35702930D01*
X59756960Y-35659362D01*
X59826897Y-35647145D01*
X59892338Y-35674678D01*
X59920166Y-35706511D01*
X59977694Y-35800388D01*
X59983777Y-35808699D01*
X60123213Y-35969667D01*
X60130580Y-35976883D01*
X60294434Y-36112916D01*
X60302881Y-36118831D01*
X60486756Y-36226279D01*
X60496042Y-36230729D01*
X60695001Y-36306703D01*
X60704899Y-36309579D01*
X60808250Y-36330606D01*
X60822299Y-36329410D01*
X60826000Y-36319065D01*
X60826000Y-36318517D01*
X61334000Y-36318517D01*
X61338064Y-36332359D01*
X61351478Y-36334393D01*
X61358184Y-36333534D01*
X61368262Y-36331392D01*
X61572255Y-36270191D01*
X61581842Y-36266433D01*
X61773095Y-36172739D01*
X61781945Y-36167464D01*
X61955328Y-36043792D01*
X61963200Y-36037139D01*
X62114052Y-35886812D01*
X62120730Y-35878965D01*
X62245003Y-35706020D01*
X62250313Y-35697183D01*
X62344670Y-35506267D01*
X62348469Y-35496672D01*
X62410377Y-35292910D01*
X62412555Y-35282837D01*
X62413986Y-35271962D01*
X62411775Y-35257778D01*
X62398617Y-35254000D01*
X61352115Y-35254000D01*
X61336876Y-35258475D01*
X61335671Y-35259865D01*
X61334000Y-35267548D01*
X61334000Y-36318517D01*
X60826000Y-36318517D01*
X60826000Y-34872000D01*
X60846002Y-34803879D01*
X60899658Y-34757386D01*
X60952000Y-34746000D01*
X62398344Y-34746000D01*
X62411875Y-34742027D01*
X62413180Y-34732947D01*
X62371214Y-34565875D01*
X62367894Y-34556124D01*
X62282972Y-34360814D01*
X62278105Y-34351739D01*
X62162426Y-34172926D01*
X62156136Y-34164757D01*
X62012806Y-34007240D01*
X62005273Y-34000215D01*
X61838139Y-33868222D01*
X61829556Y-33862520D01*
X61792602Y-33842120D01*
X61742631Y-33791687D01*
X61727859Y-33722245D01*
X61752975Y-33655839D01*
X61780327Y-33629232D01*
X61804040Y-33612318D01*
X61959860Y-33501173D01*
X62118096Y-33343489D01*
X62177594Y-33260689D01*
X62245435Y-33166277D01*
X62248453Y-33162077D01*
X62269320Y-33119857D01*
X62345136Y-32966453D01*
X62345137Y-32966451D01*
X62347430Y-32961811D01*
X62412370Y-32748069D01*
X62441529Y-32526590D01*
X62443156Y-32460000D01*
X62424852Y-32237361D01*
X62370431Y-32020702D01*
X62281354Y-31815840D01*
X62241906Y-31754862D01*
X62162822Y-31632617D01*
X62162820Y-31632614D01*
X62160014Y-31628277D01*
X62009670Y-31463051D01*
X62005619Y-31459852D01*
X62005615Y-31459848D01*
X61838414Y-31327800D01*
X61838410Y-31327798D01*
X61834359Y-31324598D01*
X61638789Y-31216638D01*
X61633920Y-31214914D01*
X61633916Y-31214912D01*
X61433087Y-31143795D01*
X61433083Y-31143794D01*
X61428212Y-31142069D01*
X61423119Y-31141162D01*
X61423116Y-31141161D01*
X61213373Y-31103800D01*
X61213367Y-31103799D01*
X61208284Y-31102894D01*
X61134452Y-31101992D01*
X60990081Y-31100228D01*
X60990079Y-31100228D01*
X60984911Y-31100165D01*
X60764091Y-31133955D01*
X60551756Y-31203357D01*
X60353607Y-31306507D01*
X60349474Y-31309610D01*
X60349471Y-31309612D01*
X60325247Y-31327800D01*
X60174965Y-31440635D01*
X60171393Y-31444373D01*
X60054684Y-31566502D01*
X60020629Y-31602138D01*
X59913201Y-31759621D01*
X59858293Y-31804621D01*
X59787768Y-31812792D01*
X59724021Y-31781538D01*
X59703324Y-31757054D01*
X59622825Y-31632621D01*
X59622820Y-31632615D01*
X59620014Y-31628277D01*
X59600117Y-31606410D01*
X59581306Y-31585737D01*
X59550254Y-31521891D01*
X59548500Y-31500938D01*
X59548500Y-25601850D01*
X59549237Y-25588242D01*
X59552659Y-25556739D01*
X59553325Y-25550612D01*
X59548947Y-25500570D01*
X59548621Y-25495788D01*
X59548500Y-25493310D01*
X59548500Y-25490231D01*
X59548201Y-25487177D01*
X59548200Y-25487166D01*
X59544313Y-25447529D01*
X59544191Y-25446215D01*
X59536623Y-25359718D01*
X59536087Y-25353587D01*
X59534600Y-25348468D01*
X59534080Y-25343167D01*
X59507209Y-25254166D01*
X59506874Y-25253033D01*
X59482630Y-25169586D01*
X59482628Y-25169582D01*
X59480909Y-25163664D01*
X59478456Y-25158932D01*
X59476916Y-25153831D01*
X59433269Y-25071740D01*
X59432657Y-25070574D01*
X59392729Y-24993547D01*
X59389892Y-24988074D01*
X59386569Y-24983911D01*
X59384066Y-24979204D01*
X59325261Y-24907102D01*
X59324433Y-24906075D01*
X59295469Y-24869792D01*
X59295464Y-24869787D01*
X59293262Y-24867028D01*
X59290761Y-24864527D01*
X59290119Y-24863809D01*
X59286406Y-24859461D01*
X59278642Y-24849941D01*
X59259065Y-24825938D01*
X59254323Y-24822015D01*
X59254321Y-24822013D01*
X59223727Y-24796703D01*
X59214947Y-24788713D01*
X56585405Y-22159171D01*
X56551379Y-22096859D01*
X56548500Y-22070076D01*
X56548500Y-15963970D01*
X56568502Y-15895849D01*
X56576460Y-15885120D01*
X56578096Y-15883489D01*
X56708453Y-15702077D01*
X56709640Y-15702930D01*
X56756960Y-15659362D01*
X56826897Y-15647145D01*
X56892338Y-15674678D01*
X56920166Y-15706511D01*
X56977694Y-15800388D01*
X56983777Y-15808699D01*
X57123213Y-15969667D01*
X57130580Y-15976883D01*
X57294434Y-16112916D01*
X57302881Y-16118831D01*
X57486756Y-16226279D01*
X57496042Y-16230729D01*
X57695001Y-16306703D01*
X57704899Y-16309579D01*
X57808250Y-16330606D01*
X57822299Y-16329410D01*
X57826000Y-16319065D01*
X57826000Y-13683102D01*
X57822082Y-13669758D01*
X57807806Y-13667771D01*
X57769324Y-13673660D01*
X57759288Y-13676051D01*
X57556868Y-13742212D01*
X57547359Y-13746209D01*
X57358463Y-13844542D01*
X57349738Y-13850036D01*
X57179433Y-13977905D01*
X57171726Y-13984748D01*
X57024590Y-14138717D01*
X57018109Y-14146722D01*
X56913498Y-14300074D01*
X56858587Y-14345076D01*
X56788062Y-14353247D01*
X56724315Y-14321993D01*
X56703618Y-14297509D01*
X56622822Y-14172617D01*
X56622820Y-14172614D01*
X56620014Y-14168277D01*
X56469670Y-14003051D01*
X56465619Y-13999852D01*
X56465615Y-13999848D01*
X56298414Y-13867800D01*
X56298410Y-13867798D01*
X56294359Y-13864598D01*
X56258028Y-13844542D01*
X56186230Y-13804908D01*
X56098789Y-13756638D01*
X56093920Y-13754914D01*
X56093916Y-13754912D01*
X55893087Y-13683795D01*
X55893083Y-13683794D01*
X55888212Y-13682069D01*
X55883119Y-13681162D01*
X55883116Y-13681161D01*
X55673373Y-13643800D01*
X55673367Y-13643799D01*
X55668284Y-13642894D01*
X55594452Y-13641992D01*
X55450081Y-13640228D01*
X55450079Y-13640228D01*
X55444911Y-13640165D01*
X55224091Y-13673955D01*
X55011756Y-13743357D01*
X54813607Y-13846507D01*
X54809474Y-13849610D01*
X54809471Y-13849612D01*
X54639100Y-13977530D01*
X54634965Y-13980635D01*
X54576145Y-14042187D01*
X54554283Y-14065064D01*
X54492759Y-14100494D01*
X54421846Y-14097037D01*
X54364060Y-14055791D01*
X54345207Y-14022243D01*
X54303767Y-13911703D01*
X54300615Y-13903295D01*
X54213261Y-13786739D01*
X54096705Y-13699385D01*
X53960316Y-13648255D01*
X53898134Y-13641500D01*
X52101866Y-13641500D01*
X52039684Y-13648255D01*
X51903295Y-13699385D01*
X51786739Y-13786739D01*
X51699385Y-13903295D01*
X51648255Y-14039684D01*
X51641500Y-14101866D01*
X51641500Y-15898134D01*
X51648255Y-15960316D01*
X51699385Y-16096705D01*
X51786739Y-16213261D01*
X51903295Y-16300615D01*
X52039684Y-16351745D01*
X52101866Y-16358500D01*
X53898134Y-16358500D01*
X53960316Y-16351745D01*
X54096705Y-16300615D01*
X54213261Y-16213261D01*
X54300615Y-16096705D01*
X54301771Y-16097571D01*
X54345237Y-16054202D01*
X54414628Y-16039187D01*
X54481120Y-16064071D01*
X54523604Y-16120954D01*
X54531500Y-16164856D01*
X54531500Y-22478157D01*
X54530763Y-22491764D01*
X54526676Y-22529388D01*
X54527213Y-22535523D01*
X54531050Y-22579388D01*
X54531379Y-22584214D01*
X54531500Y-22586686D01*
X54531500Y-22589769D01*
X54531801Y-22592837D01*
X54535690Y-22632506D01*
X54535812Y-22633819D01*
X54543913Y-22726413D01*
X54545400Y-22731532D01*
X54545920Y-22736833D01*
X54572791Y-22825834D01*
X54573126Y-22826967D01*
X54599091Y-22916336D01*
X54601544Y-22921068D01*
X54603084Y-22926169D01*
X54605978Y-22931612D01*
X54646731Y-23008260D01*
X54647343Y-23009426D01*
X54690108Y-23091926D01*
X54693431Y-23096089D01*
X54695934Y-23100796D01*
X54754755Y-23172918D01*
X54755446Y-23173774D01*
X54786738Y-23212973D01*
X54789242Y-23215477D01*
X54789884Y-23216195D01*
X54793585Y-23220528D01*
X54820935Y-23254062D01*
X54825682Y-23257989D01*
X54825684Y-23257991D01*
X54856262Y-23283287D01*
X54865042Y-23291277D01*
X57494595Y-25920829D01*
X57528621Y-25983141D01*
X57531500Y-26009924D01*
X57531500Y-31498381D01*
X57511498Y-31566502D01*
X57496594Y-31585432D01*
X57480629Y-31602138D01*
X57373201Y-31759621D01*
X57318293Y-31804621D01*
X57247768Y-31812792D01*
X57184021Y-31781538D01*
X57163324Y-31757054D01*
X57082822Y-31632617D01*
X57082820Y-31632614D01*
X57080014Y-31628277D01*
X56929670Y-31463051D01*
X56925619Y-31459852D01*
X56925615Y-31459848D01*
X56758414Y-31327800D01*
X56758410Y-31327798D01*
X56754359Y-31324598D01*
X56558789Y-31216638D01*
X56553920Y-31214914D01*
X56553916Y-31214912D01*
X56353087Y-31143795D01*
X56353083Y-31143794D01*
X56348212Y-31142069D01*
X56343119Y-31141162D01*
X56343116Y-31141161D01*
X56271361Y-31128380D01*
X56128284Y-31102894D01*
X56119684Y-31102789D01*
X56118351Y-31102380D01*
X56117961Y-31102343D01*
X56117969Y-31102262D01*
X56051813Y-31081957D01*
X56032127Y-31065893D01*
X51045405Y-26079171D01*
X51011379Y-26016859D01*
X51008500Y-25990076D01*
X51008500Y-12469926D01*
X51028502Y-12401805D01*
X51045404Y-12380831D01*
X51380829Y-12045405D01*
X51443142Y-12011380D01*
X51469925Y-12008500D01*
X58530075Y-12008500D01*
X58598196Y-12028502D01*
X58619165Y-12045400D01*
X59574596Y-13000830D01*
X59608620Y-13063141D01*
X59611500Y-13089924D01*
X59611500Y-14038381D01*
X59591498Y-14106502D01*
X59576594Y-14125432D01*
X59560629Y-14142138D01*
X59453204Y-14299618D01*
X59452898Y-14300066D01*
X59397987Y-14345069D01*
X59327462Y-14353240D01*
X59263715Y-14321986D01*
X59243018Y-14297502D01*
X59162426Y-14172926D01*
X59156136Y-14164757D01*
X59012806Y-14007240D01*
X59005273Y-14000215D01*
X58838139Y-13868222D01*
X58829552Y-13862517D01*
X58643117Y-13759599D01*
X58633705Y-13755369D01*
X58432959Y-13684280D01*
X58422988Y-13681646D01*
X58351837Y-13668972D01*
X58338540Y-13670432D01*
X58334000Y-13684989D01*
X58334000Y-16318517D01*
X58338064Y-16332359D01*
X58351478Y-16334393D01*
X58358184Y-16333534D01*
X58368262Y-16331392D01*
X58572255Y-16270191D01*
X58581842Y-16266433D01*
X58773095Y-16172739D01*
X58781945Y-16167464D01*
X58955328Y-16043792D01*
X58963200Y-16037139D01*
X59114052Y-15886812D01*
X59120730Y-15878965D01*
X59248022Y-15701819D01*
X59249279Y-15702722D01*
X59296373Y-15659362D01*
X59366311Y-15647145D01*
X59431751Y-15674678D01*
X59459579Y-15706511D01*
X59519987Y-15805088D01*
X59666250Y-15973938D01*
X59838126Y-16116632D01*
X60031000Y-16229338D01*
X60239692Y-16309030D01*
X60244760Y-16310061D01*
X60244763Y-16310062D01*
X60339862Y-16329410D01*
X60458597Y-16353567D01*
X60463772Y-16353757D01*
X60463774Y-16353757D01*
X60676673Y-16361564D01*
X60676677Y-16361564D01*
X60681837Y-16361753D01*
X60686957Y-16361097D01*
X60686959Y-16361097D01*
X60898288Y-16334025D01*
X60898289Y-16334025D01*
X60903416Y-16333368D01*
X60908366Y-16331883D01*
X61112429Y-16270661D01*
X61112434Y-16270659D01*
X61117384Y-16269174D01*
X61317994Y-16170896D01*
X61499860Y-16041173D01*
X61658096Y-15883489D01*
X61788453Y-15702077D01*
X61789776Y-15703028D01*
X61836645Y-15659857D01*
X61906580Y-15647625D01*
X61972026Y-15675144D01*
X61999875Y-15706994D01*
X62059987Y-15805088D01*
X62206250Y-15973938D01*
X62378126Y-16116632D01*
X62571000Y-16229338D01*
X62779692Y-16309030D01*
X62784760Y-16310061D01*
X62784763Y-16310062D01*
X62879862Y-16329410D01*
X62998597Y-16353567D01*
X63003772Y-16353757D01*
X63003774Y-16353757D01*
X63216673Y-16361564D01*
X63216677Y-16361564D01*
X63221837Y-16361753D01*
X63226957Y-16361097D01*
X63226959Y-16361097D01*
X63438288Y-16334025D01*
X63438289Y-16334025D01*
X63443416Y-16333368D01*
X63448366Y-16331883D01*
X63652429Y-16270661D01*
X63652434Y-16270659D01*
X63657384Y-16269174D01*
X63857994Y-16170896D01*
X64039860Y-16041173D01*
X64198096Y-15883489D01*
X64328453Y-15702077D01*
X64329776Y-15703028D01*
X64376645Y-15659857D01*
X64446580Y-15647625D01*
X64512026Y-15675144D01*
X64539875Y-15706994D01*
X64599987Y-15805088D01*
X64746250Y-15973938D01*
X64918126Y-16116632D01*
X65111000Y-16229338D01*
X65319692Y-16309030D01*
X65324760Y-16310061D01*
X65324763Y-16310062D01*
X65419862Y-16329410D01*
X65538597Y-16353567D01*
X65543772Y-16353757D01*
X65543774Y-16353757D01*
X65756673Y-16361564D01*
X65756677Y-16361564D01*
X65761837Y-16361753D01*
X65766957Y-16361097D01*
X65766959Y-16361097D01*
X65978288Y-16334025D01*
X65978289Y-16334025D01*
X65983416Y-16333368D01*
X65988366Y-16331883D01*
X66192429Y-16270661D01*
X66192434Y-16270659D01*
X66197384Y-16269174D01*
X66397994Y-16170896D01*
X66579860Y-16041173D01*
X66738096Y-15883489D01*
X66868453Y-15702077D01*
X66881995Y-15674678D01*
X66965136Y-15506453D01*
X66965137Y-15506451D01*
X66967430Y-15501811D01*
X67006423Y-15373469D01*
X67030865Y-15293023D01*
X67030865Y-15293021D01*
X67032370Y-15288069D01*
X67061529Y-15066590D01*
X67062383Y-15031638D01*
X67063074Y-15003365D01*
X67063074Y-15003361D01*
X67063156Y-15000000D01*
X67044852Y-14777361D01*
X66990431Y-14560702D01*
X66901354Y-14355840D01*
X66783022Y-14172926D01*
X66782822Y-14172617D01*
X66782820Y-14172614D01*
X66780014Y-14168277D01*
X66629670Y-14003051D01*
X66625619Y-13999852D01*
X66625615Y-13999848D01*
X66458414Y-13867800D01*
X66458410Y-13867798D01*
X66454359Y-13864598D01*
X66418028Y-13844542D01*
X66346230Y-13804908D01*
X66258789Y-13756638D01*
X66253920Y-13754914D01*
X66253916Y-13754912D01*
X66053087Y-13683795D01*
X66053083Y-13683794D01*
X66048212Y-13682069D01*
X66043119Y-13681162D01*
X66043116Y-13681161D01*
X65833373Y-13643800D01*
X65833367Y-13643799D01*
X65828284Y-13642894D01*
X65754452Y-13641992D01*
X65610081Y-13640228D01*
X65610079Y-13640228D01*
X65604911Y-13640165D01*
X65384091Y-13673955D01*
X65171756Y-13743357D01*
X64973607Y-13846507D01*
X64969474Y-13849610D01*
X64969471Y-13849612D01*
X64799100Y-13977530D01*
X64794965Y-13980635D01*
X64791393Y-13984373D01*
X64674684Y-14106502D01*
X64640629Y-14142138D01*
X64533201Y-14299621D01*
X64478293Y-14344621D01*
X64407768Y-14352792D01*
X64344021Y-14321538D01*
X64323324Y-14297054D01*
X64242825Y-14172621D01*
X64242820Y-14172615D01*
X64240014Y-14168277D01*
X64221040Y-14147425D01*
X64201306Y-14125737D01*
X64170254Y-14061891D01*
X64168500Y-14040938D01*
X64168500Y-12221843D01*
X64169237Y-12208236D01*
X64172659Y-12176738D01*
X64172659Y-12176733D01*
X64173324Y-12170612D01*
X64168950Y-12120612D01*
X64168621Y-12115786D01*
X64168500Y-12113314D01*
X64168500Y-12110231D01*
X64167326Y-12098262D01*
X64164310Y-12067494D01*
X64164188Y-12066181D01*
X64159141Y-12008500D01*
X64156087Y-11973587D01*
X64154600Y-11968468D01*
X64154080Y-11963167D01*
X64127209Y-11874166D01*
X64126874Y-11873033D01*
X64102630Y-11789586D01*
X64102628Y-11789582D01*
X64100909Y-11783664D01*
X64098456Y-11778932D01*
X64096916Y-11773831D01*
X64073237Y-11729296D01*
X64053269Y-11691740D01*
X64052657Y-11690574D01*
X64012729Y-11613547D01*
X64009892Y-11608074D01*
X64006569Y-11603911D01*
X64004066Y-11599204D01*
X63945245Y-11527082D01*
X63944554Y-11526226D01*
X63913262Y-11487027D01*
X63910758Y-11484523D01*
X63910116Y-11483805D01*
X63906415Y-11479472D01*
X63879065Y-11445938D01*
X63843737Y-11416712D01*
X63834958Y-11408723D01*
X60756855Y-8330621D01*
X60747753Y-8320478D01*
X60727897Y-8295782D01*
X60724032Y-8290975D01*
X60685578Y-8258708D01*
X60681931Y-8255528D01*
X60680119Y-8253885D01*
X60677925Y-8251691D01*
X60644651Y-8224358D01*
X60643853Y-8223696D01*
X60572526Y-8163846D01*
X60567856Y-8161278D01*
X60563739Y-8157897D01*
X60481914Y-8114023D01*
X60480755Y-8113394D01*
X60404619Y-8071538D01*
X60404611Y-8071535D01*
X60399213Y-8068567D01*
X60394131Y-8066955D01*
X60389437Y-8064438D01*
X60300469Y-8037238D01*
X60299441Y-8036918D01*
X60210694Y-8008765D01*
X60205398Y-8008171D01*
X60200302Y-8006613D01*
X60107743Y-7997210D01*
X60106607Y-7997089D01*
X60072992Y-7993319D01*
X60060270Y-7991892D01*
X60060266Y-7991892D01*
X60056773Y-7991500D01*
X60053246Y-7991500D01*
X60052261Y-7991445D01*
X60046581Y-7990998D01*
X60017175Y-7988011D01*
X60009663Y-7987248D01*
X60009661Y-7987248D01*
X60003538Y-7986626D01*
X59961259Y-7990623D01*
X59957891Y-7990941D01*
X59946033Y-7991500D01*
X50061842Y-7991500D01*
X50048235Y-7990763D01*
X50016737Y-7987341D01*
X50016732Y-7987341D01*
X50010611Y-7986676D01*
X49992611Y-7988251D01*
X49960609Y-7991050D01*
X49955784Y-7991379D01*
X49953313Y-7991500D01*
X49950231Y-7991500D01*
X49927763Y-7993703D01*
X49907489Y-7995691D01*
X49906174Y-7995813D01*
X49873913Y-7998636D01*
X49813587Y-8003913D01*
X49808468Y-8005400D01*
X49803167Y-8005920D01*
X49714166Y-8032791D01*
X49713033Y-8033126D01*
X49629586Y-8057370D01*
X49629582Y-8057372D01*
X49623664Y-8059091D01*
X49618932Y-8061544D01*
X49613831Y-8063084D01*
X49608388Y-8065978D01*
X49531740Y-8106731D01*
X49530574Y-8107343D01*
X49453547Y-8147271D01*
X49448074Y-8150108D01*
X49443911Y-8153431D01*
X49439204Y-8155934D01*
X49367082Y-8214755D01*
X49366226Y-8215446D01*
X49327027Y-8246738D01*
X49324523Y-8249242D01*
X49323805Y-8249884D01*
X49319472Y-8253585D01*
X49285938Y-8280935D01*
X49282011Y-8285682D01*
X49282009Y-8285684D01*
X49256713Y-8316262D01*
X49248723Y-8325042D01*
X47330621Y-10243145D01*
X47320478Y-10252247D01*
X47290975Y-10275968D01*
X47278383Y-10290975D01*
X47258709Y-10314421D01*
X47255528Y-10318069D01*
X47253885Y-10319881D01*
X47251691Y-10322075D01*
X47224358Y-10355349D01*
X47223696Y-10356147D01*
X47163846Y-10427474D01*
X47161278Y-10432144D01*
X47157897Y-10436261D01*
X47126860Y-10494145D01*
X47114023Y-10518086D01*
X47113394Y-10519245D01*
X47071538Y-10595381D01*
X47071535Y-10595389D01*
X47068567Y-10600787D01*
X47066955Y-10605869D01*
X47064438Y-10610563D01*
X47037238Y-10699531D01*
X47036918Y-10700559D01*
X47008765Y-10789306D01*
X47008171Y-10794602D01*
X47006613Y-10799698D01*
X47005990Y-10805834D01*
X46997218Y-10892187D01*
X46997089Y-10893393D01*
X46991500Y-10943227D01*
X46991500Y-10946754D01*
X46991445Y-10947739D01*
X46990998Y-10953419D01*
X46986626Y-10996462D01*
X17572696Y-10996462D01*
X16906855Y-10330621D01*
X16897753Y-10320478D01*
X16877897Y-10295782D01*
X16874032Y-10290975D01*
X16835578Y-10258708D01*
X16831931Y-10255528D01*
X16830119Y-10253885D01*
X16827925Y-10251691D01*
X16794651Y-10224358D01*
X16793853Y-10223696D01*
X16722526Y-10163846D01*
X16717856Y-10161278D01*
X16713739Y-10157897D01*
X16631914Y-10114023D01*
X16630755Y-10113394D01*
X16554619Y-10071538D01*
X16554611Y-10071535D01*
X16549213Y-10068567D01*
X16544131Y-10066955D01*
X16539437Y-10064438D01*
X16450469Y-10037238D01*
X16449441Y-10036918D01*
X16360694Y-10008765D01*
X16355398Y-10008171D01*
X16350302Y-10006613D01*
X16257743Y-9997210D01*
X16256607Y-9997089D01*
X16222992Y-9993319D01*
X16210270Y-9991892D01*
X16210266Y-9991892D01*
X16206773Y-9991500D01*
X16203246Y-9991500D01*
X16202261Y-9991445D01*
X16196581Y-9990998D01*
X16167175Y-9988011D01*
X16159663Y-9987248D01*
X16159661Y-9987248D01*
X16153538Y-9986626D01*
X16111259Y-9990623D01*
X16107891Y-9990941D01*
X16096033Y-9991500D01*
X12211850Y-9991500D01*
X12198242Y-9990763D01*
X12197662Y-9990700D01*
X12160612Y-9986675D01*
X12110570Y-9991053D01*
X12105788Y-9991379D01*
X12103310Y-9991500D01*
X12100231Y-9991500D01*
X12097177Y-9991799D01*
X12097166Y-9991800D01*
X12057529Y-9995687D01*
X12056215Y-9995809D01*
X12020688Y-9998917D01*
X11963587Y-10003913D01*
X11958468Y-10005400D01*
X11953167Y-10005920D01*
X11864166Y-10032791D01*
X11863033Y-10033126D01*
X11779586Y-10057370D01*
X11779582Y-10057372D01*
X11773664Y-10059091D01*
X11768932Y-10061544D01*
X11763831Y-10063084D01*
X11758388Y-10065978D01*
X11681740Y-10106731D01*
X11680574Y-10107343D01*
X11603547Y-10147271D01*
X11598074Y-10150108D01*
X11593911Y-10153431D01*
X11589204Y-10155934D01*
X11584429Y-10159828D01*
X11584428Y-10159829D01*
X11517102Y-10214739D01*
X11516075Y-10215567D01*
X11479792Y-10244531D01*
X11479787Y-10244536D01*
X11477028Y-10246738D01*
X11474527Y-10249239D01*
X11473809Y-10249881D01*
X11469461Y-10253594D01*
X11435938Y-10280935D01*
X11432015Y-10285677D01*
X11432013Y-10285679D01*
X11406703Y-10316273D01*
X11398713Y-10325053D01*
X8330621Y-13393145D01*
X8320478Y-13402247D01*
X8290975Y-13425968D01*
X8287008Y-13430696D01*
X8258709Y-13464421D01*
X8255528Y-13468069D01*
X8253885Y-13469881D01*
X8251691Y-13472075D01*
X8224358Y-13505349D01*
X8223696Y-13506147D01*
X8163846Y-13577474D01*
X8161278Y-13582144D01*
X8157897Y-13586261D01*
X8128994Y-13640165D01*
X8114023Y-13668086D01*
X8113394Y-13669245D01*
X8071538Y-13745381D01*
X8071535Y-13745389D01*
X8068567Y-13750787D01*
X8066955Y-13755869D01*
X8064438Y-13760563D01*
X8037238Y-13849531D01*
X8036918Y-13850559D01*
X8008765Y-13939306D01*
X8008171Y-13944602D01*
X8006613Y-13949698D01*
X7997605Y-14038381D01*
X7997218Y-14042187D01*
X7997089Y-14043393D01*
X7991500Y-14093227D01*
X7991500Y-14096754D01*
X7991445Y-14097739D01*
X7990998Y-14103419D01*
X7988762Y-14125433D01*
X7987527Y-14137596D01*
X7986626Y-14146462D01*
X1508000Y-14146462D01*
X1508000Y-5132703D01*
X2890743Y-5132703D01*
X2928268Y-5417734D01*
X3004129Y-5695036D01*
X3116923Y-5959476D01*
X3264561Y-6206161D01*
X3444313Y-6430528D01*
X3652851Y-6628423D01*
X3886317Y-6796186D01*
X3890112Y-6798195D01*
X3890113Y-6798196D01*
X3911869Y-6809715D01*
X4140392Y-6930712D01*
X4410373Y-7029511D01*
X4691264Y-7090755D01*
X4719841Y-7093004D01*
X4914282Y-7108307D01*
X4914291Y-7108307D01*
X4916739Y-7108500D01*
X5072271Y-7108500D01*
X5074407Y-7108354D01*
X5074418Y-7108354D01*
X5282548Y-7094165D01*
X5282554Y-7094164D01*
X5286825Y-7093873D01*
X5291020Y-7093004D01*
X5291022Y-7093004D01*
X5427583Y-7064724D01*
X5568342Y-7035574D01*
X5839343Y-6939607D01*
X6094812Y-6807750D01*
X6098313Y-6805289D01*
X6098317Y-6805287D01*
X6212418Y-6725095D01*
X6330023Y-6642441D01*
X6540622Y-6446740D01*
X6722713Y-6224268D01*
X6872927Y-5979142D01*
X6988483Y-5715898D01*
X7067244Y-5439406D01*
X7107751Y-5154784D01*
X7107845Y-5136951D01*
X7107867Y-5132703D01*
X72890743Y-5132703D01*
X72928268Y-5417734D01*
X73004129Y-5695036D01*
X73116923Y-5959476D01*
X73264561Y-6206161D01*
X73444313Y-6430528D01*
X73652851Y-6628423D01*
X73886317Y-6796186D01*
X73890112Y-6798195D01*
X73890113Y-6798196D01*
X73911869Y-6809715D01*
X74140392Y-6930712D01*
X74410373Y-7029511D01*
X74691264Y-7090755D01*
X74719841Y-7093004D01*
X74914282Y-7108307D01*
X74914291Y-7108307D01*
X74916739Y-7108500D01*
X75072271Y-7108500D01*
X75074407Y-7108354D01*
X75074418Y-7108354D01*
X75282548Y-7094165D01*
X75282554Y-7094164D01*
X75286825Y-7093873D01*
X75291020Y-7093004D01*
X75291022Y-7093004D01*
X75427583Y-7064724D01*
X75568342Y-7035574D01*
X75839343Y-6939607D01*
X76094812Y-6807750D01*
X76098313Y-6805289D01*
X76098317Y-6805287D01*
X76212418Y-6725095D01*
X76330023Y-6642441D01*
X76540622Y-6446740D01*
X76722713Y-6224268D01*
X76872927Y-5979142D01*
X76988483Y-5715898D01*
X77067244Y-5439406D01*
X77107751Y-5154784D01*
X77107845Y-5136951D01*
X77109235Y-4871583D01*
X77109235Y-4871576D01*
X77109257Y-4867297D01*
X77071732Y-4582266D01*
X76995871Y-4304964D01*
X76985295Y-4280170D01*
X76884763Y-4044476D01*
X76884761Y-4044472D01*
X76883077Y-4040524D01*
X76735439Y-3793839D01*
X76555687Y-3569472D01*
X76347149Y-3371577D01*
X76113683Y-3203814D01*
X76091843Y-3192250D01*
X76068654Y-3179972D01*
X75859608Y-3069288D01*
X75589627Y-2970489D01*
X75308736Y-2909245D01*
X75277685Y-2906801D01*
X75085718Y-2891693D01*
X75085709Y-2891693D01*
X75083261Y-2891500D01*
X74927729Y-2891500D01*
X74925593Y-2891646D01*
X74925582Y-2891646D01*
X74717452Y-2905835D01*
X74717446Y-2905836D01*
X74713175Y-2906127D01*
X74708980Y-2906996D01*
X74708978Y-2906996D01*
X74572417Y-2935276D01*
X74431658Y-2964426D01*
X74160657Y-3060393D01*
X73905188Y-3192250D01*
X73901687Y-3194711D01*
X73901683Y-3194713D01*
X73891594Y-3201804D01*
X73669977Y-3357559D01*
X73459378Y-3553260D01*
X73277287Y-3775732D01*
X73127073Y-4020858D01*
X73011517Y-4284102D01*
X72932756Y-4560594D01*
X72892249Y-4845216D01*
X72892227Y-4849505D01*
X72892226Y-4849512D01*
X72891159Y-5053207D01*
X72890743Y-5132703D01*
X7107867Y-5132703D01*
X7109235Y-4871583D01*
X7109235Y-4871576D01*
X7109257Y-4867297D01*
X7071732Y-4582266D01*
X6995871Y-4304964D01*
X6985295Y-4280170D01*
X6884763Y-4044476D01*
X6884761Y-4044472D01*
X6883077Y-4040524D01*
X6735439Y-3793839D01*
X6555687Y-3569472D01*
X6347149Y-3371577D01*
X6113683Y-3203814D01*
X6091843Y-3192250D01*
X6068654Y-3179972D01*
X5859608Y-3069288D01*
X5589627Y-2970489D01*
X5308736Y-2909245D01*
X5277685Y-2906801D01*
X5085718Y-2891693D01*
X5085709Y-2891693D01*
X5083261Y-2891500D01*
X4927729Y-2891500D01*
X4925593Y-2891646D01*
X4925582Y-2891646D01*
X4717452Y-2905835D01*
X4717446Y-2905836D01*
X4713175Y-2906127D01*
X4708980Y-2906996D01*
X4708978Y-2906996D01*
X4572417Y-2935276D01*
X4431658Y-2964426D01*
X4160657Y-3060393D01*
X3905188Y-3192250D01*
X3901687Y-3194711D01*
X3901683Y-3194713D01*
X3891594Y-3201804D01*
X3669977Y-3357559D01*
X3459378Y-3553260D01*
X3277287Y-3775732D01*
X3127073Y-4020858D01*
X3011517Y-4284102D01*
X2932756Y-4560594D01*
X2892249Y-4845216D01*
X2892227Y-4849505D01*
X2892226Y-4849512D01*
X2891159Y-5053207D01*
X2890743Y-5132703D01*
X1508000Y-5132703D01*
X1508000Y-5053207D01*
X1509746Y-5032303D01*
X1512264Y-5017335D01*
X1513071Y-5012539D01*
X1513224Y-5000000D01*
X1511048Y-4984804D01*
X1509927Y-4960763D01*
X1514309Y-4871583D01*
X1524512Y-4663900D01*
X1525723Y-4651601D01*
X1574191Y-4324861D01*
X1576601Y-4312743D01*
X1579539Y-4301016D01*
X1656862Y-3992324D01*
X1660451Y-3980493D01*
X1771725Y-3669506D01*
X1776456Y-3658082D01*
X1917685Y-3359477D01*
X1923514Y-3348572D01*
X2093328Y-3065255D01*
X2100198Y-3054974D01*
X2296960Y-2789671D01*
X2304804Y-2780113D01*
X2526626Y-2535370D01*
X2535370Y-2526626D01*
X2780113Y-2304804D01*
X2789671Y-2296960D01*
X3054974Y-2100198D01*
X3065255Y-2093328D01*
X3348572Y-1923514D01*
X3359477Y-1917685D01*
X3658082Y-1776456D01*
X3669506Y-1771725D01*
X3980493Y-1660451D01*
X3992326Y-1656861D01*
X4312751Y-1576599D01*
X4324861Y-1574191D01*
X4651606Y-1525722D01*
X4663902Y-1524511D01*
X4752656Y-1520151D01*
X4957062Y-1510110D01*
X4982624Y-1511457D01*
X4984857Y-1511805D01*
X4984861Y-1511805D01*
X4993730Y-1513186D01*
X5002632Y-1512022D01*
X5002635Y-1512022D01*
X5022791Y-1509386D01*
X5025252Y-1509064D01*
X5041589Y-1508000D01*
X74950672Y-1508000D01*
X74970057Y-1509500D01*
G37*
%TD.AperFunction*%
%TD*%
M02*
