%TF.GenerationSoftware,KiCad,Pcbnew,5.1.9*%
%TF.CreationDate,2021-01-24T08:51:39-05:00*%
%TF.ProjectId,CANalog_nucleo,43414e61-6c6f-4675-9f6e-75636c656f2e,rev?*%
%TF.SameCoordinates,PX700e860PY1298be0*%
%TF.FileFunction,Legend,Bot*%
%TF.FilePolarity,Positive*%
%FSLAX46Y46*%
G04 Gerber Fmt 4.6, Leading zero omitted, Abs format (unit mm)*
G04 Created by KiCad (PCBNEW 5.1.9) date 2021-01-24 08:51:39*
%MOMM*%
%LPD*%
G01*
G04 APERTURE LIST*
%ADD10C,0.214286*%
G04 APERTURE END LIST*
D10*
X-42271429Y-6135714D02*
X-43771429Y-6135714D01*
X-42271429Y-6778571D02*
X-43057143Y-6778571D01*
X-43200000Y-6707142D01*
X-43271429Y-6564285D01*
X-43271429Y-6350000D01*
X-43200000Y-6207142D01*
X-43128572Y-6135714D01*
X-43271429Y-7278571D02*
X-43271429Y-7850000D01*
X-43771429Y-7492857D02*
X-42485715Y-7492857D01*
X-42342858Y-7564285D01*
X-42271429Y-7707142D01*
X-42271429Y-7850000D01*
X-43271429Y-8135714D02*
X-43271429Y-8707142D01*
X-43771429Y-8350000D02*
X-42485715Y-8350000D01*
X-42342858Y-8421428D01*
X-42271429Y-8564285D01*
X-42271429Y-8707142D01*
X-43271429Y-9207142D02*
X-41771429Y-9207142D01*
X-43200000Y-9207142D02*
X-43271429Y-9350000D01*
X-43271429Y-9635714D01*
X-43200000Y-9778571D01*
X-43128572Y-9850000D01*
X-42985715Y-9921428D01*
X-42557143Y-9921428D01*
X-42414286Y-9850000D01*
X-42342858Y-9778571D01*
X-42271429Y-9635714D01*
X-42271429Y-9350000D01*
X-42342858Y-9207142D01*
X-42342858Y-10492857D02*
X-42271429Y-10635714D01*
X-42271429Y-10921428D01*
X-42342858Y-11064285D01*
X-42485715Y-11135714D01*
X-42557143Y-11135714D01*
X-42700000Y-11064285D01*
X-42771429Y-10921428D01*
X-42771429Y-10707142D01*
X-42842858Y-10564285D01*
X-42985715Y-10492857D01*
X-43057143Y-10492857D01*
X-43200000Y-10564285D01*
X-43271429Y-10707142D01*
X-43271429Y-10921428D01*
X-43200000Y-11064285D01*
X-42414286Y-11778571D02*
X-42342858Y-11850000D01*
X-42271429Y-11778571D01*
X-42342858Y-11707142D01*
X-42414286Y-11778571D01*
X-42271429Y-11778571D01*
X-43200000Y-11778571D02*
X-43128572Y-11850000D01*
X-43057143Y-11778571D01*
X-43128572Y-11707142D01*
X-43200000Y-11778571D01*
X-43057143Y-11778571D01*
X-43842858Y-13564285D02*
X-41914286Y-12278571D01*
X-43842858Y-15135714D02*
X-41914286Y-13850000D01*
X-43271429Y-16278571D02*
X-42057143Y-16278571D01*
X-41914286Y-16207142D01*
X-41842858Y-16135714D01*
X-41771429Y-15992857D01*
X-41771429Y-15778571D01*
X-41842858Y-15635714D01*
X-42342858Y-16278571D02*
X-42271429Y-16135714D01*
X-42271429Y-15850000D01*
X-42342858Y-15707142D01*
X-42414286Y-15635714D01*
X-42557143Y-15564285D01*
X-42985715Y-15564285D01*
X-43128572Y-15635714D01*
X-43200000Y-15707142D01*
X-43271429Y-15850000D01*
X-43271429Y-16135714D01*
X-43200000Y-16278571D01*
X-42271429Y-16992857D02*
X-43271429Y-16992857D01*
X-43771429Y-16992857D02*
X-43700000Y-16921428D01*
X-43628572Y-16992857D01*
X-43700000Y-17064285D01*
X-43771429Y-16992857D01*
X-43628572Y-16992857D01*
X-43271429Y-17492857D02*
X-43271429Y-18064285D01*
X-43771429Y-17707142D02*
X-42485715Y-17707142D01*
X-42342858Y-17778571D01*
X-42271429Y-17921428D01*
X-42271429Y-18064285D01*
X-42271429Y-18564285D02*
X-43771429Y-18564285D01*
X-42271429Y-19207142D02*
X-43057143Y-19207142D01*
X-43200000Y-19135714D01*
X-43271429Y-18992857D01*
X-43271429Y-18778571D01*
X-43200000Y-18635714D01*
X-43128572Y-18564285D01*
X-43271429Y-20564285D02*
X-42271429Y-20564285D01*
X-43271429Y-19921428D02*
X-42485715Y-19921428D01*
X-42342858Y-19992857D01*
X-42271429Y-20135714D01*
X-42271429Y-20350000D01*
X-42342858Y-20492857D01*
X-42414286Y-20564285D01*
X-42271429Y-21278571D02*
X-43771429Y-21278571D01*
X-43200000Y-21278571D02*
X-43271429Y-21421428D01*
X-43271429Y-21707142D01*
X-43200000Y-21850000D01*
X-43128572Y-21921428D01*
X-42985715Y-21992857D01*
X-42557143Y-21992857D01*
X-42414286Y-21921428D01*
X-42342858Y-21850000D01*
X-42271429Y-21707142D01*
X-42271429Y-21421428D01*
X-42342858Y-21278571D01*
X-42414286Y-22635714D02*
X-42342858Y-22707142D01*
X-42271429Y-22635714D01*
X-42342858Y-22564285D01*
X-42414286Y-22635714D01*
X-42271429Y-22635714D01*
X-42342858Y-23992857D02*
X-42271429Y-23850000D01*
X-42271429Y-23564285D01*
X-42342858Y-23421428D01*
X-42414286Y-23350000D01*
X-42557143Y-23278571D01*
X-42985715Y-23278571D01*
X-43128572Y-23350000D01*
X-43200000Y-23421428D01*
X-43271429Y-23564285D01*
X-43271429Y-23850000D01*
X-43200000Y-23992857D01*
X-42271429Y-24850000D02*
X-42342858Y-24707142D01*
X-42414286Y-24635714D01*
X-42557143Y-24564285D01*
X-42985715Y-24564285D01*
X-43128572Y-24635714D01*
X-43200000Y-24707142D01*
X-43271429Y-24850000D01*
X-43271429Y-25064285D01*
X-43200000Y-25207142D01*
X-43128572Y-25278571D01*
X-42985715Y-25350000D01*
X-42557143Y-25350000D01*
X-42414286Y-25278571D01*
X-42342858Y-25207142D01*
X-42271429Y-25064285D01*
X-42271429Y-24850000D01*
X-42271429Y-25992857D02*
X-43271429Y-25992857D01*
X-43128572Y-25992857D02*
X-43200000Y-26064285D01*
X-43271429Y-26207142D01*
X-43271429Y-26421428D01*
X-43200000Y-26564285D01*
X-43057143Y-26635714D01*
X-42271429Y-26635714D01*
X-43057143Y-26635714D02*
X-43200000Y-26707142D01*
X-43271429Y-26850000D01*
X-43271429Y-27064285D01*
X-43200000Y-27207142D01*
X-43057143Y-27278571D01*
X-42271429Y-27278571D01*
X-43842858Y-29064285D02*
X-41914286Y-27778571D01*
X-42342858Y-29492857D02*
X-42271429Y-29635714D01*
X-42271429Y-29921428D01*
X-42342858Y-30064285D01*
X-42485715Y-30135714D01*
X-42557143Y-30135714D01*
X-42700000Y-30064285D01*
X-42771429Y-29921428D01*
X-42771429Y-29707142D01*
X-42842858Y-29564285D01*
X-42985715Y-29492857D01*
X-43057143Y-29492857D01*
X-43200000Y-29564285D01*
X-43271429Y-29707142D01*
X-43271429Y-29921428D01*
X-43200000Y-30064285D01*
X-42271429Y-31421428D02*
X-43771429Y-31421428D01*
X-42342858Y-31421428D02*
X-42271429Y-31278571D01*
X-42271429Y-30992857D01*
X-42342858Y-30850000D01*
X-42414286Y-30778571D01*
X-42557143Y-30707142D01*
X-42985715Y-30707142D01*
X-43128572Y-30778571D01*
X-43200000Y-30850000D01*
X-43271429Y-30992857D01*
X-43271429Y-31278571D01*
X-43200000Y-31421428D01*
X-43271429Y-32135714D02*
X-41771429Y-32135714D01*
X-43200000Y-32135714D02*
X-43271429Y-32278571D01*
X-43271429Y-32564285D01*
X-43200000Y-32707142D01*
X-43128572Y-32778571D01*
X-42985715Y-32850000D01*
X-42557143Y-32850000D01*
X-42414286Y-32778571D01*
X-42342858Y-32707142D01*
X-42271429Y-32564285D01*
X-42271429Y-32278571D01*
X-42342858Y-32135714D01*
X-43128572Y-33707142D02*
X-43200000Y-33564285D01*
X-43271429Y-33492857D01*
X-43414286Y-33421428D01*
X-43485715Y-33421428D01*
X-43628572Y-33492857D01*
X-43700000Y-33564285D01*
X-43771429Y-33707142D01*
X-43771429Y-33992857D01*
X-43700000Y-34135714D01*
X-43628572Y-34207142D01*
X-43485715Y-34278571D01*
X-43414286Y-34278571D01*
X-43271429Y-34207142D01*
X-43200000Y-34135714D01*
X-43128572Y-33992857D01*
X-43128572Y-33707142D01*
X-43057143Y-33564285D01*
X-42985715Y-33492857D01*
X-42842858Y-33421428D01*
X-42557143Y-33421428D01*
X-42414286Y-33492857D01*
X-42342858Y-33564285D01*
X-42271429Y-33707142D01*
X-42271429Y-33992857D01*
X-42342858Y-34135714D01*
X-42414286Y-34207142D01*
X-42557143Y-34278571D01*
X-42842858Y-34278571D01*
X-42985715Y-34207142D01*
X-43057143Y-34135714D01*
X-43128572Y-33992857D01*
X-43271429Y-35564285D02*
X-42271429Y-35564285D01*
X-43842858Y-35207142D02*
X-42771429Y-34850000D01*
X-42771429Y-35778571D01*
X-43128572Y-36564285D02*
X-43200000Y-36421428D01*
X-43271429Y-36350000D01*
X-43414286Y-36278571D01*
X-43485715Y-36278571D01*
X-43628572Y-36350000D01*
X-43700000Y-36421428D01*
X-43771429Y-36564285D01*
X-43771429Y-36850000D01*
X-43700000Y-36992857D01*
X-43628572Y-37064285D01*
X-43485715Y-37135714D01*
X-43414286Y-37135714D01*
X-43271429Y-37064285D01*
X-43200000Y-36992857D01*
X-43128572Y-36850000D01*
X-43128572Y-36564285D01*
X-43057143Y-36421428D01*
X-42985715Y-36350000D01*
X-42842858Y-36278571D01*
X-42557143Y-36278571D01*
X-42414286Y-36350000D01*
X-42342858Y-36421428D01*
X-42271429Y-36564285D01*
X-42271429Y-36850000D01*
X-42342858Y-36992857D01*
X-42414286Y-37064285D01*
X-42557143Y-37135714D01*
X-42842858Y-37135714D01*
X-42985715Y-37064285D01*
X-43057143Y-36992857D01*
X-43128572Y-36850000D01*
X-43771429Y-37635714D02*
X-43771429Y-38564285D01*
X-43200000Y-38064285D01*
X-43200000Y-38278571D01*
X-43128572Y-38421428D01*
X-43057143Y-38492857D01*
X-42914286Y-38564285D01*
X-42557143Y-38564285D01*
X-42414286Y-38492857D01*
X-42342858Y-38421428D01*
X-42271429Y-38278571D01*
X-42271429Y-37850000D01*
X-42342858Y-37707142D01*
X-42414286Y-37635714D01*
X-43842858Y-40278571D02*
X-41914286Y-38992857D01*
X-42414286Y-41635714D02*
X-42342858Y-41564285D01*
X-42271429Y-41350000D01*
X-42271429Y-41207142D01*
X-42342858Y-40992857D01*
X-42485715Y-40850000D01*
X-42628572Y-40778571D01*
X-42914286Y-40707142D01*
X-43128572Y-40707142D01*
X-43414286Y-40778571D01*
X-43557143Y-40850000D01*
X-43700000Y-40992857D01*
X-43771429Y-41207142D01*
X-43771429Y-41350000D01*
X-43700000Y-41564285D01*
X-43628572Y-41635714D01*
X-42700000Y-42207142D02*
X-42700000Y-42921428D01*
X-42271429Y-42064285D02*
X-43771429Y-42564285D01*
X-42271429Y-43064285D01*
X-42271429Y-43564285D02*
X-43771429Y-43564285D01*
X-42271429Y-44421428D01*
X-43771429Y-44421428D01*
X-42271429Y-45778571D02*
X-43057143Y-45778571D01*
X-43200000Y-45707142D01*
X-43271429Y-45564285D01*
X-43271429Y-45278571D01*
X-43200000Y-45135714D01*
X-42342858Y-45778571D02*
X-42271429Y-45635714D01*
X-42271429Y-45278571D01*
X-42342858Y-45135714D01*
X-42485715Y-45064285D01*
X-42628572Y-45064285D01*
X-42771429Y-45135714D01*
X-42842858Y-45278571D01*
X-42842858Y-45635714D01*
X-42914286Y-45778571D01*
X-42271429Y-46707142D02*
X-42342858Y-46564285D01*
X-42485715Y-46492857D01*
X-43771429Y-46492857D01*
X-42271429Y-47492857D02*
X-42342858Y-47350000D01*
X-42414286Y-47278571D01*
X-42557143Y-47207142D01*
X-42985715Y-47207142D01*
X-43128572Y-47278571D01*
X-43200000Y-47350000D01*
X-43271429Y-47492857D01*
X-43271429Y-47707142D01*
X-43200000Y-47850000D01*
X-43128572Y-47921428D01*
X-42985715Y-47992857D01*
X-42557143Y-47992857D01*
X-42414286Y-47921428D01*
X-42342858Y-47850000D01*
X-42271429Y-47707142D01*
X-42271429Y-47492857D01*
X-43271429Y-49278571D02*
X-42057143Y-49278571D01*
X-41914286Y-49207142D01*
X-41842858Y-49135714D01*
X-41771429Y-48992857D01*
X-41771429Y-48778571D01*
X-41842858Y-48635714D01*
X-42342858Y-49278571D02*
X-42271429Y-49135714D01*
X-42271429Y-48850000D01*
X-42342858Y-48707142D01*
X-42414286Y-48635714D01*
X-42557143Y-48564285D01*
X-42985715Y-48564285D01*
X-43128572Y-48635714D01*
X-43200000Y-48707142D01*
X-43271429Y-48850000D01*
X-43271429Y-49135714D01*
X-43200000Y-49278571D01*
X-43842858Y-51064285D02*
X-41914286Y-49778571D01*
X-43271429Y-51350000D02*
X-43271429Y-51921428D01*
X-43771429Y-51564285D02*
X-42485715Y-51564285D01*
X-42342858Y-51635714D01*
X-42271429Y-51778571D01*
X-42271429Y-51921428D01*
X-42271429Y-52421428D02*
X-43271429Y-52421428D01*
X-42985715Y-52421428D02*
X-43128572Y-52492857D01*
X-43200000Y-52564285D01*
X-43271429Y-52707142D01*
X-43271429Y-52850000D01*
X-42342858Y-53921428D02*
X-42271429Y-53778571D01*
X-42271429Y-53492857D01*
X-42342858Y-53350000D01*
X-42485715Y-53278571D01*
X-43057143Y-53278571D01*
X-43200000Y-53350000D01*
X-43271429Y-53492857D01*
X-43271429Y-53778571D01*
X-43200000Y-53921428D01*
X-43057143Y-53992857D01*
X-42914286Y-53992857D01*
X-42771429Y-53278571D01*
X-42342858Y-55207142D02*
X-42271429Y-55064285D01*
X-42271429Y-54778571D01*
X-42342858Y-54635714D01*
X-42485715Y-54564285D01*
X-43057143Y-54564285D01*
X-43200000Y-54635714D01*
X-43271429Y-54778571D01*
X-43271429Y-55064285D01*
X-43200000Y-55207142D01*
X-43057143Y-55278571D01*
X-42914286Y-55278571D01*
X-42771429Y-54564285D01*
X-43842858Y-56992857D02*
X-41914286Y-55707142D01*
X-43271429Y-57492857D02*
X-42271429Y-57492857D01*
X-43128572Y-57492857D02*
X-43200000Y-57564285D01*
X-43271429Y-57707142D01*
X-43271429Y-57921428D01*
X-43200000Y-58064285D01*
X-43057143Y-58135714D01*
X-42271429Y-58135714D01*
X-43271429Y-59492857D02*
X-42271429Y-59492857D01*
X-43271429Y-58850000D02*
X-42485715Y-58850000D01*
X-42342858Y-58921428D01*
X-42271429Y-59064285D01*
X-42271429Y-59278571D01*
X-42342858Y-59421428D01*
X-42414286Y-59492857D01*
X-42342858Y-60850000D02*
X-42271429Y-60707142D01*
X-42271429Y-60421428D01*
X-42342858Y-60278571D01*
X-42414286Y-60207142D01*
X-42557143Y-60135714D01*
X-42985715Y-60135714D01*
X-43128572Y-60207142D01*
X-43200000Y-60278571D01*
X-43271429Y-60421428D01*
X-43271429Y-60707142D01*
X-43200000Y-60850000D01*
X-42271429Y-61707142D02*
X-42342858Y-61564285D01*
X-42485715Y-61492857D01*
X-43771429Y-61492857D01*
X-42342858Y-62850000D02*
X-42271429Y-62707142D01*
X-42271429Y-62421428D01*
X-42342858Y-62278571D01*
X-42485715Y-62207142D01*
X-43057143Y-62207142D01*
X-43200000Y-62278571D01*
X-43271429Y-62421428D01*
X-43271429Y-62707142D01*
X-43200000Y-62850000D01*
X-43057143Y-62921428D01*
X-42914286Y-62921428D01*
X-42771429Y-62207142D01*
X-42271429Y-63778571D02*
X-42342858Y-63635714D01*
X-42414286Y-63564285D01*
X-42557143Y-63492857D01*
X-42985715Y-63492857D01*
X-43128572Y-63564285D01*
X-43200000Y-63635714D01*
X-43271429Y-63778571D01*
X-43271429Y-63992857D01*
X-43200000Y-64135714D01*
X-43128572Y-64207142D01*
X-42985715Y-64278571D01*
X-42557143Y-64278571D01*
X-42414286Y-64207142D01*
X-42342858Y-64135714D01*
X-42271429Y-63992857D01*
X-42271429Y-63778571D01*
X-42128572Y-64564285D02*
X-42128572Y-65707142D01*
X-42342858Y-65992857D02*
X-42271429Y-66135714D01*
X-42271429Y-66421428D01*
X-42342858Y-66564285D01*
X-42485715Y-66635714D01*
X-42557143Y-66635714D01*
X-42700000Y-66564285D01*
X-42771429Y-66421428D01*
X-42771429Y-66207142D01*
X-42842858Y-66064285D01*
X-42985715Y-65992857D01*
X-43057143Y-65992857D01*
X-43200000Y-66064285D01*
X-43271429Y-66207142D01*
X-43271429Y-66421428D01*
X-43200000Y-66564285D01*
X-42271429Y-67278571D02*
X-43771429Y-67278571D01*
X-42271429Y-67921428D02*
X-43057143Y-67921428D01*
X-43200000Y-67850000D01*
X-43271429Y-67707142D01*
X-43271429Y-67492857D01*
X-43200000Y-67350000D01*
X-43128572Y-67278571D01*
X-42271429Y-68635714D02*
X-43271429Y-68635714D01*
X-43771429Y-68635714D02*
X-43700000Y-68564285D01*
X-43628572Y-68635714D01*
X-43700000Y-68707142D01*
X-43771429Y-68635714D01*
X-43628572Y-68635714D01*
X-42342858Y-69921428D02*
X-42271429Y-69778571D01*
X-42271429Y-69492857D01*
X-42342858Y-69350000D01*
X-42485715Y-69278571D01*
X-43057143Y-69278571D01*
X-43200000Y-69350000D01*
X-43271429Y-69492857D01*
X-43271429Y-69778571D01*
X-43200000Y-69921428D01*
X-43057143Y-69992857D01*
X-42914286Y-69992857D01*
X-42771429Y-69278571D01*
X-42271429Y-70850000D02*
X-42342858Y-70707142D01*
X-42485715Y-70635714D01*
X-43771429Y-70635714D01*
X-42271429Y-72064285D02*
X-43771429Y-72064285D01*
X-42342858Y-72064285D02*
X-42271429Y-71921428D01*
X-42271429Y-71635714D01*
X-42342858Y-71492857D01*
X-42414286Y-71421428D01*
X-42557143Y-71350000D01*
X-42985715Y-71350000D01*
X-43128572Y-71421428D01*
X-43200000Y-71492857D01*
X-43271429Y-71635714D01*
X-43271429Y-71921428D01*
X-43200000Y-72064285D01*
M02*
