%TF.GenerationSoftware,KiCad,Pcbnew,5.1.9*%
%TF.CreationDate,2021-01-24T08:51:39-05:00*%
%TF.ProjectId,CANalog_nucleo,43414e61-6c6f-4675-9f6e-75636c656f2e,rev?*%
%TF.SameCoordinates,PX700e860PY1298be0*%
%TF.FileFunction,Copper,L2,Bot*%
%TF.FilePolarity,Positive*%
%FSLAX46Y46*%
G04 Gerber Fmt 4.6, Leading zero omitted, Abs format (unit mm)*
G04 Created by KiCad (PCBNEW 5.1.9) date 2021-01-24 08:51:39*
%MOMM*%
%LPD*%
G01*
G04 APERTURE LIST*
%TA.AperFunction,ComponentPad*%
%ADD10O,1.727200X1.727200*%
%TD*%
%TA.AperFunction,ComponentPad*%
%ADD11R,1.727200X1.727200*%
%TD*%
%TA.AperFunction,ComponentPad*%
%ADD12O,1.050000X1.900000*%
%TD*%
%TA.AperFunction,ComponentPad*%
%ADD13C,1.700000*%
%TD*%
%TA.AperFunction,ComponentPad*%
%ADD14R,1.700000X1.700000*%
%TD*%
%TA.AperFunction,ComponentPad*%
%ADD15O,1.700000X1.700000*%
%TD*%
%TA.AperFunction,ComponentPad*%
%ADD16C,4.000000*%
%TD*%
%TA.AperFunction,ComponentPad*%
%ADD17C,1.600000*%
%TD*%
%TA.AperFunction,ComponentPad*%
%ADD18R,1.600000X1.600000*%
%TD*%
%TA.AperFunction,ComponentPad*%
%ADD19C,1.800000*%
%TD*%
%TA.AperFunction,ComponentPad*%
%ADD20R,3.000000X3.000000*%
%TD*%
%TA.AperFunction,ComponentPad*%
%ADD21C,3.000000*%
%TD*%
%TA.AperFunction,ViaPad*%
%ADD22C,0.800000*%
%TD*%
%TA.AperFunction,Conductor*%
%ADD23C,0.250000*%
%TD*%
%TA.AperFunction,Conductor*%
%ADD24C,0.254000*%
%TD*%
%TA.AperFunction,Conductor*%
%ADD25C,0.100000*%
%TD*%
G04 APERTURE END LIST*
D10*
%TO.P,U2,8*%
%TO.N,Net-(R6-Pad1)*%
X-12280000Y-11819167D03*
%TO.P,U2,7*%
%TO.N,+3V3*%
X-14820000Y-11819167D03*
%TO.P,U2,6*%
%TO.N,Net-(U2-Pad6)*%
X-12280000Y-9279167D03*
%TO.P,U2,5*%
%TO.N,Net-(U2-Pad5)*%
X-14820000Y-9279167D03*
%TO.P,U2,4*%
%TO.N,Net-(U2-Pad4)*%
X-12280000Y-6739167D03*
%TO.P,U2,3*%
%TO.N,Net-(R2-Pad1)*%
X-14820000Y-6739167D03*
%TO.P,U2,2*%
%TO.N,GND*%
X-12280000Y-4199167D03*
D11*
%TO.P,U2,1*%
%TO.N,Net-(R1-Pad2)*%
X-14820000Y-4199167D03*
%TD*%
D12*
%TO.P,J1,6*%
%TO.N,N/C*%
X-36075000Y-2950000D03*
X-28925000Y-2950000D03*
%TD*%
D13*
%TO.P,U1,80*%
%TO.N,GND*%
X-3200000Y-5900000D03*
%TO.P,U1,79*%
X-3200000Y-3360000D03*
%TO.P,U1,78*%
X-66700000Y-5900000D03*
%TO.P,U1,77*%
X-66700000Y-3360000D03*
%TO.P,U1,76*%
%TO.N,Net-(U1-Pad76)*%
X-3200000Y-77020000D03*
%TO.P,U1,75*%
%TO.N,Net-(U1-Pad75)*%
X-5740000Y-77020000D03*
%TO.P,U1,74*%
%TO.N,Net-(U1-Pad74)*%
X-3200000Y-74480000D03*
%TO.P,U1,73*%
%TO.N,Net-(U1-Pad73)*%
X-5740000Y-74480000D03*
%TO.P,U1,72*%
%TO.N,USART1_TX*%
X-3200000Y-71940000D03*
%TO.P,U1,71*%
%TO.N,Net-(U1-Pad71)*%
X-5740000Y-71940000D03*
%TO.P,U1,70*%
%TO.N,Net-(U1-Pad70)*%
X-3200000Y-69400000D03*
%TO.P,U1,69*%
%TO.N,Net-(U1-Pad69)*%
X-5740000Y-69400000D03*
%TO.P,U1,68*%
%TO.N,Net-(U1-Pad68)*%
X-3200000Y-66860000D03*
%TO.P,U1,67*%
%TO.N,Net-(U1-Pad67)*%
X-5740000Y-66860000D03*
%TO.P,U1,66*%
%TO.N,Net-(U1-Pad66)*%
X-3200000Y-64320000D03*
%TO.P,U1,65*%
%TO.N,Net-(U1-Pad65)*%
X-5740000Y-64320000D03*
%TO.P,U1,64*%
%TO.N,Net-(U1-Pad64)*%
X-3200000Y-61780000D03*
%TO.P,U1,63*%
%TO.N,Net-(U1-Pad63)*%
X-5740000Y-61780000D03*
%TO.P,U1,62*%
%TO.N,Net-(U1-Pad62)*%
X-3200000Y-59240000D03*
%TO.P,U1,61*%
%TO.N,Net-(U1-Pad61)*%
X-5740000Y-59240000D03*
%TO.P,U1,60*%
%TO.N,Net-(U1-Pad60)*%
X-3200000Y-56700000D03*
%TO.P,U1,59*%
%TO.N,Net-(U1-Pad59)*%
X-5740000Y-56700000D03*
%TO.P,U1,58*%
%TO.N,GND*%
X-3200000Y-54160000D03*
%TO.P,U1,57*%
%TO.N,Net-(U1-Pad57)*%
X-5740000Y-54160000D03*
%TO.P,U1,56*%
%TO.N,Net-(U1-Pad56)*%
X-3200000Y-51620000D03*
%TO.P,U1,55*%
%TO.N,Net-(U1-Pad55)*%
X-5740000Y-51620000D03*
%TO.P,U1,54*%
%TO.N,Net-(U1-Pad54)*%
X-3200000Y-49080000D03*
%TO.P,U1,53*%
%TO.N,Net-(U1-Pad53)*%
X-5740000Y-49080000D03*
%TO.P,U1,52*%
%TO.N,USB_DM*%
X-3200000Y-46540000D03*
%TO.P,U1,51*%
%TO.N,Net-(U1-Pad51)*%
X-5740000Y-46540000D03*
%TO.P,U1,50*%
%TO.N,USB_DP*%
X-3200000Y-44000000D03*
%TO.P,U1,49*%
%TO.N,Net-(U1-Pad49)*%
X-5740000Y-44000000D03*
%TO.P,U1,48*%
%TO.N,Net-(U1-Pad48)*%
X-3200000Y-41460000D03*
%TO.P,U1,47*%
%TO.N,GND*%
X-5740000Y-41460000D03*
%TO.P,U1,46*%
%TO.N,Net-(U1-Pad46)*%
X-3200000Y-38920000D03*
%TO.P,U1,45*%
%TO.N,Net-(U1-Pad45)*%
X-5740000Y-38920000D03*
%TO.P,U1,44*%
%TO.N,USART1_RX*%
X-3200000Y-36380000D03*
%TO.P,U1,43*%
%TO.N,CAN_TX*%
X-5740000Y-36380000D03*
%TO.P,U1,42*%
%TO.N,CAN_RS*%
X-3200000Y-33840000D03*
%TO.P,U1,41*%
%TO.N,CAN_RX*%
X-5740000Y-33840000D03*
%TO.P,U1,40*%
%TO.N,Net-(U1-Pad40)*%
X-3200000Y-31300000D03*
%TO.P,U1,39*%
%TO.N,Net-(U1-Pad39)*%
X-5740000Y-31300000D03*
%TO.P,U1,38*%
%TO.N,/ENC_B*%
X-64160000Y-77020000D03*
%TO.P,U1,37*%
%TO.N,Net-(U1-Pad37)*%
X-66700000Y-77020000D03*
%TO.P,U1,36*%
%TO.N,/ENC_A*%
X-64160000Y-74480000D03*
%TO.P,U1,35*%
%TO.N,/ENC_SW*%
X-66700000Y-74480000D03*
%TO.P,U1,34*%
%TO.N,Net-(U1-Pad34)*%
X-64160000Y-71940000D03*
%TO.P,U1,33*%
%TO.N,Net-(BT1-Pad1)*%
X-66700000Y-71940000D03*
%TO.P,U1,32*%
%TO.N,/DAC_OUT1*%
X-64160000Y-69400000D03*
%TO.P,U1,31*%
%TO.N,Net-(U1-Pad31)*%
X-66700000Y-69400000D03*
%TO.P,U1,30*%
%TO.N,Net-(U1-Pad30)*%
X-64160000Y-66860000D03*
%TO.P,U1,29*%
%TO.N,Net-(U1-Pad29)*%
X-66700000Y-66860000D03*
%TO.P,U1,28*%
%TO.N,/ADC_IN1*%
X-64160000Y-64320000D03*
%TO.P,U1,27*%
%TO.N,Net-(U1-Pad27)*%
X-66700000Y-64320000D03*
%TO.P,U1,26*%
%TO.N,Net-(U1-Pad26)*%
X-64160000Y-61780000D03*
%TO.P,U1,25*%
%TO.N,Net-(U1-Pad25)*%
X-66700000Y-61780000D03*
%TO.P,U1,24*%
%TO.N,Net-(U1-Pad24)*%
X-64160000Y-59240000D03*
%TO.P,U1,23*%
%TO.N,Net-(U1-Pad23)*%
X-66700000Y-59240000D03*
%TO.P,U1,22*%
%TO.N,GND*%
X-64160000Y-56700000D03*
%TO.P,U1,21*%
%TO.N,/I2C_SDA*%
X-66700000Y-56700000D03*
%TO.P,U1,20*%
%TO.N,GND*%
X-64160000Y-54160000D03*
%TO.P,U1,19*%
X-66700000Y-54160000D03*
%TO.P,U1,18*%
%TO.N,Net-(U1-Pad18)*%
X-64160000Y-51620000D03*
%TO.P,U1,17*%
%TO.N,/I2C_SCL*%
X-66700000Y-51620000D03*
%TO.P,U1,16*%
%TO.N,+3V3*%
X-64160000Y-49080000D03*
%TO.P,U1,15*%
%TO.N,Net-(U1-Pad15)*%
X-66700000Y-49080000D03*
%TO.P,U1,14*%
%TO.N,Net-(U1-Pad14)*%
X-64160000Y-46540000D03*
%TO.P,U1,13*%
%TO.N,Net-(U1-Pad13)*%
X-66700000Y-46540000D03*
%TO.P,U1,12*%
%TO.N,Net-(U1-Pad12)*%
X-64160000Y-44000000D03*
%TO.P,U1,11*%
%TO.N,Net-(U1-Pad11)*%
X-66700000Y-44000000D03*
%TO.P,U1,10*%
%TO.N,Net-(U1-Pad10)*%
X-64160000Y-41460000D03*
%TO.P,U1,9*%
%TO.N,Net-(U1-Pad9)*%
X-66700000Y-41460000D03*
%TO.P,U1,8*%
%TO.N,GND*%
X-64160000Y-38920000D03*
%TO.P,U1,7*%
%TO.N,Net-(U1-Pad7)*%
X-66700000Y-38920000D03*
%TO.P,U1,6*%
%TO.N,+5V*%
X-64160000Y-36380000D03*
%TO.P,U1,5*%
%TO.N,Net-(U1-Pad5)*%
X-66700000Y-36380000D03*
%TO.P,U1,4*%
%TO.N,Net-(U1-Pad4)*%
X-64160000Y-33840000D03*
%TO.P,U1,3*%
%TO.N,Net-(U1-Pad3)*%
X-66700000Y-33840000D03*
%TO.P,U1,2*%
%TO.N,Net-(U1-Pad2)*%
X-64160000Y-31300000D03*
D14*
%TO.P,U1,1*%
%TO.N,Net-(U1-Pad1)*%
X-66700000Y-31300000D03*
%TD*%
D15*
%TO.P,JP1,2*%
%TO.N,Net-(JP1-Pad2)*%
X-16940000Y-62100000D03*
D14*
%TO.P,JP1,1*%
%TO.N,/CANH*%
X-14400000Y-62100000D03*
%TD*%
D16*
%TO.P,J6,0*%
%TO.N,N/C*%
X-12210000Y-70470000D03*
X-37210000Y-70470000D03*
D17*
%TO.P,J6,9*%
%TO.N,Net-(J6-Pad9)*%
X-20555000Y-71890000D03*
%TO.P,J6,8*%
%TO.N,Net-(J6-Pad8)*%
X-23325000Y-71890000D03*
%TO.P,J6,7*%
%TO.N,/CANH*%
X-26095000Y-71890000D03*
%TO.P,J6,6*%
%TO.N,Net-(J6-Pad6)*%
X-28865000Y-71890000D03*
%TO.P,J6,5*%
%TO.N,Net-(J6-Pad5)*%
X-19170000Y-69050000D03*
%TO.P,J6,4*%
%TO.N,Net-(J6-Pad4)*%
X-21940000Y-69050000D03*
%TO.P,J6,3*%
%TO.N,GND*%
X-24710000Y-69050000D03*
%TO.P,J6,2*%
%TO.N,/CANL*%
X-27480000Y-69050000D03*
D18*
%TO.P,J6,1*%
%TO.N,Net-(J6-Pad1)*%
X-30250000Y-69050000D03*
%TD*%
D19*
%TO.P,J5,2*%
%TO.N,GND*%
X-65000000Y-24050000D03*
%TO.P,J5,1*%
%TO.N,/AOUT*%
X-65000000Y-19050000D03*
%TD*%
D15*
%TO.P,J4,4*%
%TO.N,/I2C_SDA*%
X-57650000Y-3530000D03*
%TO.P,J4,3*%
%TO.N,/I2C_SCL*%
X-57650000Y-6070000D03*
%TO.P,J4,2*%
%TO.N,+3V3*%
X-57650000Y-8610000D03*
D14*
%TO.P,J4,1*%
%TO.N,GND*%
X-57650000Y-11150000D03*
%TD*%
D19*
%TO.P,J3,2*%
%TO.N,GND*%
X-57850000Y-40050000D03*
%TO.P,J3,1*%
%TO.N,Net-(J3-Pad1)*%
X-57850000Y-35050000D03*
%TD*%
D15*
%TO.P,J2,5*%
%TO.N,GND*%
X-59200000Y-65340000D03*
%TO.P,J2,4*%
%TO.N,/ENC_A*%
X-59200000Y-67880000D03*
%TO.P,J2,3*%
%TO.N,/ENC_B*%
X-59200000Y-70420000D03*
%TO.P,J2,2*%
%TO.N,/ENC_SW*%
X-59200000Y-72960000D03*
D14*
%TO.P,J2,1*%
%TO.N,+3V3*%
X-59200000Y-75500000D03*
%TD*%
D20*
%TO.P,BT1,1*%
%TO.N,Net-(BT1-Pad1)*%
X-53240000Y-47400000D03*
D21*
%TO.P,BT1,2*%
%TO.N,GND*%
X-32750000Y-47400000D03*
%TD*%
D22*
%TO.N,GND*%
X-47450000Y-20500000D03*
X-49950000Y-17200000D03*
X-56037653Y-17425000D03*
X-24400000Y-51900000D03*
X-19550000Y-55450000D03*
X-33800000Y-7800000D03*
X-47900000Y-35450000D03*
X-55200000Y-28500000D03*
%TO.N,+5V*%
X-45100000Y-23900000D03*
X-31099990Y-23900000D03*
%TO.N,USB_DP*%
X-22250002Y-34550000D03*
X-18550000Y-34550000D03*
%TO.N,USB_DM*%
X-7500000Y-43650000D03*
X-22250000Y-33400000D03*
X-18550000Y-33400000D03*
%TO.N,USART1_RX*%
X-7000000Y-28350000D03*
X-9900000Y-28350000D03*
%TO.N,/ADC_IN1*%
X-62200000Y-48500000D03*
X-62200000Y-53100000D03*
%TO.N,USART1_TX*%
X-4650000Y-29150000D03*
X-11100000Y-28400000D03*
%TO.N,CAN_RS*%
X-10000000Y-37400003D03*
%TO.N,CAN_TX*%
X-10000000Y-36400000D03*
%TO.N,CAN_RX*%
X-9947442Y-35401380D03*
%TD*%
D23*
%TO.N,+5V*%
X-45100000Y-23900000D02*
X-31099990Y-23900000D01*
%TO.N,USB_DP*%
X-22250002Y-34550000D02*
X-18550000Y-34550000D01*
%TO.N,USB_DM*%
X-4375001Y-45364999D02*
X-3200000Y-46540000D01*
X-6350686Y-45364999D02*
X-4375001Y-45364999D01*
X-7500000Y-44215685D02*
X-6350686Y-45364999D01*
X-7500000Y-43650000D02*
X-7500000Y-44215685D01*
X-22250000Y-33400000D02*
X-18550000Y-33400000D01*
%TO.N,/ENC_SW*%
X-65524999Y-73304999D02*
X-66700000Y-74480000D01*
X-63904999Y-73304999D02*
X-65524999Y-73304999D01*
X-63560000Y-72960000D02*
X-63904999Y-73304999D01*
X-59200000Y-72960000D02*
X-63560000Y-72960000D01*
%TO.N,USART1_RX*%
X-7000000Y-28350000D02*
X-9900000Y-28350000D01*
%TO.N,/ADC_IN1*%
X-62200000Y-48500000D02*
X-62200000Y-53100000D01*
%TO.N,USART1_TX*%
X-10350000Y-29150000D02*
X-11100000Y-28400000D01*
X-4650000Y-29150000D02*
X-10350000Y-29150000D01*
%TO.N,CAN_RS*%
X-5175999Y-37555001D02*
X-4375001Y-36754003D01*
X-10000000Y-37400003D02*
X-6458999Y-37400003D01*
X-4375001Y-35015001D02*
X-3200000Y-33840000D01*
X-4375001Y-36754003D02*
X-4375001Y-35015001D01*
X-6304001Y-37555001D02*
X-5175999Y-37555001D01*
X-6458999Y-37400003D02*
X-6304001Y-37555001D01*
%TO.N,CAN_TX*%
X-10000000Y-36400000D02*
X-5760000Y-36400000D01*
X-5760000Y-36400000D02*
X-5740000Y-36380000D01*
%TO.N,CAN_RX*%
X-9947442Y-35401380D02*
X-8386062Y-33840000D01*
X-8386062Y-33840000D02*
X-5740000Y-33840000D01*
%TD*%
D24*
%TO.N,GND*%
X-36722578Y-1555829D02*
X-36899211Y-1700788D01*
X-37044170Y-1877421D01*
X-37151885Y-2078940D01*
X-37218215Y-2297600D01*
X-37235000Y-2468021D01*
X-37235000Y-3431978D01*
X-37218215Y-3602399D01*
X-37151885Y-3821059D01*
X-37044171Y-4022578D01*
X-36899212Y-4199212D01*
X-36722579Y-4344171D01*
X-36521060Y-4451885D01*
X-36302400Y-4518215D01*
X-36075000Y-4540612D01*
X-35847601Y-4518215D01*
X-35628941Y-4451885D01*
X-35427422Y-4344171D01*
X-35250788Y-4199212D01*
X-35105829Y-4022579D01*
X-34998115Y-3821060D01*
X-34931785Y-3602400D01*
X-34915000Y-3431979D01*
X-34915000Y-2468022D01*
X-34931785Y-2297600D01*
X-34998115Y-2078940D01*
X-35105829Y-1877421D01*
X-35250788Y-1700788D01*
X-35427421Y-1555829D01*
X-35569287Y-1480000D01*
X-29430713Y-1480000D01*
X-29572579Y-1555829D01*
X-29749212Y-1700788D01*
X-29894171Y-1877422D01*
X-30001885Y-2078941D01*
X-30068215Y-2297601D01*
X-30085000Y-2468022D01*
X-30085000Y-3431979D01*
X-30068215Y-3602400D01*
X-30001885Y-3821060D01*
X-29894170Y-4022579D01*
X-29749211Y-4199212D01*
X-29572578Y-4344171D01*
X-29371059Y-4451885D01*
X-29152399Y-4518215D01*
X-28925000Y-4540612D01*
X-28697600Y-4518215D01*
X-28478940Y-4451885D01*
X-28277421Y-4344171D01*
X-28100788Y-4199212D01*
X-27955829Y-4022579D01*
X-27848115Y-3821060D01*
X-27781785Y-3602400D01*
X-27765000Y-3431978D01*
X-27765000Y-3335567D01*
X-16321672Y-3335567D01*
X-16321672Y-5062767D01*
X-16309412Y-5187249D01*
X-16273102Y-5306947D01*
X-16214137Y-5417261D01*
X-16134785Y-5513952D01*
X-16038094Y-5593304D01*
X-15927780Y-5652269D01*
X-15869977Y-5669803D01*
X-15984039Y-5783865D01*
X-16148042Y-6029314D01*
X-16261010Y-6302042D01*
X-16318600Y-6591568D01*
X-16318600Y-6886766D01*
X-16261010Y-7176292D01*
X-16148042Y-7449020D01*
X-15984039Y-7694469D01*
X-15775302Y-7903206D01*
X-15616719Y-8009167D01*
X-15775302Y-8115128D01*
X-15984039Y-8323865D01*
X-16148042Y-8569314D01*
X-16261010Y-8842042D01*
X-16318600Y-9131568D01*
X-16318600Y-9426766D01*
X-16261010Y-9716292D01*
X-16148042Y-9989020D01*
X-15984039Y-10234469D01*
X-15775302Y-10443206D01*
X-15616719Y-10549167D01*
X-15775302Y-10655128D01*
X-15984039Y-10863865D01*
X-16148042Y-11109314D01*
X-16261010Y-11382042D01*
X-16318600Y-11671568D01*
X-16318600Y-11966766D01*
X-16261010Y-12256292D01*
X-16148042Y-12529020D01*
X-15984039Y-12774469D01*
X-15775302Y-12983206D01*
X-15529853Y-13147209D01*
X-15257125Y-13260177D01*
X-14967599Y-13317767D01*
X-14672401Y-13317767D01*
X-14382875Y-13260177D01*
X-14110147Y-13147209D01*
X-13864698Y-12983206D01*
X-13655961Y-12774469D01*
X-13550000Y-12615886D01*
X-13444039Y-12774469D01*
X-13235302Y-12983206D01*
X-12989853Y-13147209D01*
X-12717125Y-13260177D01*
X-12427599Y-13317767D01*
X-12132401Y-13317767D01*
X-11842875Y-13260177D01*
X-11570147Y-13147209D01*
X-11324698Y-12983206D01*
X-11115961Y-12774469D01*
X-10951958Y-12529020D01*
X-10838990Y-12256292D01*
X-10781400Y-11966766D01*
X-10781400Y-11671568D01*
X-10838990Y-11382042D01*
X-10951958Y-11109314D01*
X-11115961Y-10863865D01*
X-11324698Y-10655128D01*
X-11483281Y-10549167D01*
X-11324698Y-10443206D01*
X-11115961Y-10234469D01*
X-10951958Y-9989020D01*
X-10838990Y-9716292D01*
X-10781400Y-9426766D01*
X-10781400Y-9131568D01*
X-10838990Y-8842042D01*
X-10951958Y-8569314D01*
X-11115961Y-8323865D01*
X-11324698Y-8115128D01*
X-11483281Y-8009167D01*
X-11324698Y-7903206D01*
X-11115961Y-7694469D01*
X-10951958Y-7449020D01*
X-10838990Y-7176292D01*
X-10789681Y-6928397D01*
X-4048792Y-6928397D01*
X-3971157Y-7177472D01*
X-3707117Y-7303371D01*
X-3423589Y-7375339D01*
X-3131469Y-7390611D01*
X-2841981Y-7348599D01*
X-2566253Y-7250919D01*
X-2428843Y-7177472D01*
X-2351208Y-6928397D01*
X-3200000Y-6079605D01*
X-4048792Y-6928397D01*
X-10789681Y-6928397D01*
X-10781400Y-6886766D01*
X-10781400Y-6591568D01*
X-10838990Y-6302042D01*
X-10951958Y-6029314D01*
X-10992571Y-5968531D01*
X-4690611Y-5968531D01*
X-4648599Y-6258019D01*
X-4550919Y-6533747D01*
X-4477472Y-6671157D01*
X-4228397Y-6748792D01*
X-3379605Y-5900000D01*
X-3020395Y-5900000D01*
X-2171603Y-6748792D01*
X-1922528Y-6671157D01*
X-1796629Y-6407117D01*
X-1724661Y-6123589D01*
X-1709389Y-5831469D01*
X-1751401Y-5541981D01*
X-1849081Y-5266253D01*
X-1922528Y-5128843D01*
X-2171603Y-5051208D01*
X-3020395Y-5900000D01*
X-3379605Y-5900000D01*
X-4228397Y-5051208D01*
X-4477472Y-5128843D01*
X-4603371Y-5392883D01*
X-4675339Y-5676411D01*
X-4690611Y-5968531D01*
X-10992571Y-5968531D01*
X-11115961Y-5783865D01*
X-11324698Y-5575128D01*
X-11490103Y-5464608D01*
X-11391512Y-5405984D01*
X-11173146Y-5209460D01*
X-10997316Y-4974111D01*
X-10870778Y-4708981D01*
X-10825042Y-4558193D01*
X-10913692Y-4388397D01*
X-4048792Y-4388397D01*
X-3973486Y-4630000D01*
X-4048792Y-4871603D01*
X-3200000Y-5720395D01*
X-2351208Y-4871603D01*
X-2426514Y-4630000D01*
X-2351208Y-4388397D01*
X-3200000Y-3539605D01*
X-4048792Y-4388397D01*
X-10913692Y-4388397D01*
X-10946183Y-4326167D01*
X-12153000Y-4326167D01*
X-12153000Y-4346167D01*
X-12407000Y-4346167D01*
X-12407000Y-4326167D01*
X-12427000Y-4326167D01*
X-12427000Y-4072167D01*
X-12407000Y-4072167D01*
X-12407000Y-2864703D01*
X-12153000Y-2864703D01*
X-12153000Y-4072167D01*
X-10946183Y-4072167D01*
X-10825042Y-3840141D01*
X-10870778Y-3689353D01*
X-10995259Y-3428531D01*
X-4690611Y-3428531D01*
X-4648599Y-3718019D01*
X-4550919Y-3993747D01*
X-4477472Y-4131157D01*
X-4228397Y-4208792D01*
X-3379605Y-3360000D01*
X-3020395Y-3360000D01*
X-2171603Y-4208792D01*
X-1922528Y-4131157D01*
X-1796629Y-3867117D01*
X-1724661Y-3583589D01*
X-1709389Y-3291469D01*
X-1751401Y-3001981D01*
X-1849081Y-2726253D01*
X-1922528Y-2588843D01*
X-2171603Y-2511208D01*
X-3020395Y-3360000D01*
X-3379605Y-3360000D01*
X-4228397Y-2511208D01*
X-4477472Y-2588843D01*
X-4603371Y-2852883D01*
X-4675339Y-3136411D01*
X-4690611Y-3428531D01*
X-10995259Y-3428531D01*
X-10997316Y-3424223D01*
X-11173146Y-3188874D01*
X-11391512Y-2992350D01*
X-11644022Y-2842203D01*
X-11920973Y-2744204D01*
X-12153000Y-2864703D01*
X-12407000Y-2864703D01*
X-12639027Y-2744204D01*
X-12915978Y-2842203D01*
X-13168488Y-2992350D01*
X-13347947Y-3153859D01*
X-13366898Y-3091387D01*
X-13425863Y-2981073D01*
X-13505215Y-2884382D01*
X-13601906Y-2805030D01*
X-13712220Y-2746065D01*
X-13831918Y-2709755D01*
X-13956400Y-2697495D01*
X-15683600Y-2697495D01*
X-15808082Y-2709755D01*
X-15927780Y-2746065D01*
X-16038094Y-2805030D01*
X-16134785Y-2884382D01*
X-16214137Y-2981073D01*
X-16273102Y-3091387D01*
X-16309412Y-3211085D01*
X-16321672Y-3335567D01*
X-27765000Y-3335567D01*
X-27765000Y-2468021D01*
X-27778435Y-2331603D01*
X-4048792Y-2331603D01*
X-3200000Y-3180395D01*
X-2351208Y-2331603D01*
X-2428843Y-2082528D01*
X-2692883Y-1956629D01*
X-2976411Y-1884661D01*
X-3268531Y-1869389D01*
X-3558019Y-1911401D01*
X-3833747Y-2009081D01*
X-3971157Y-2082528D01*
X-4048792Y-2331603D01*
X-27778435Y-2331603D01*
X-27781785Y-2297600D01*
X-27848115Y-2078940D01*
X-27955829Y-1877421D01*
X-28100788Y-1700788D01*
X-28277422Y-1555829D01*
X-28419288Y-1480000D01*
X-3232279Y-1480000D01*
X-2835455Y-1518909D01*
X-2484792Y-1624780D01*
X-2161375Y-1796744D01*
X-1877516Y-2028254D01*
X-1644035Y-2310486D01*
X-1469817Y-2632695D01*
X-1361498Y-2982614D01*
X-1320000Y-3377443D01*
X-1319999Y-76987711D01*
X-1358909Y-77384545D01*
X-1464780Y-77735206D01*
X-1636743Y-78058623D01*
X-1868252Y-78342482D01*
X-2150486Y-78575965D01*
X-2472696Y-78750184D01*
X-2822615Y-78858502D01*
X-3217443Y-78900000D01*
X-66667721Y-78900000D01*
X-67064545Y-78861091D01*
X-67415206Y-78755220D01*
X-67738623Y-78583257D01*
X-68022482Y-78351748D01*
X-68255965Y-78069514D01*
X-68430184Y-77747304D01*
X-68538502Y-77397385D01*
X-68580000Y-77002557D01*
X-68580000Y-56553740D01*
X-68185000Y-56553740D01*
X-68185000Y-56846260D01*
X-68127932Y-57133158D01*
X-68015990Y-57403411D01*
X-67853475Y-57646632D01*
X-67646632Y-57853475D01*
X-67472240Y-57970000D01*
X-67646632Y-58086525D01*
X-67853475Y-58293368D01*
X-68015990Y-58536589D01*
X-68127932Y-58806842D01*
X-68185000Y-59093740D01*
X-68185000Y-59386260D01*
X-68127932Y-59673158D01*
X-68015990Y-59943411D01*
X-67853475Y-60186632D01*
X-67646632Y-60393475D01*
X-67472240Y-60510000D01*
X-67646632Y-60626525D01*
X-67853475Y-60833368D01*
X-68015990Y-61076589D01*
X-68127932Y-61346842D01*
X-68185000Y-61633740D01*
X-68185000Y-61926260D01*
X-68127932Y-62213158D01*
X-68015990Y-62483411D01*
X-67853475Y-62726632D01*
X-67646632Y-62933475D01*
X-67472240Y-63050000D01*
X-67646632Y-63166525D01*
X-67853475Y-63373368D01*
X-68015990Y-63616589D01*
X-68127932Y-63886842D01*
X-68185000Y-64173740D01*
X-68185000Y-64466260D01*
X-68127932Y-64753158D01*
X-68015990Y-65023411D01*
X-67853475Y-65266632D01*
X-67646632Y-65473475D01*
X-67472240Y-65590000D01*
X-67646632Y-65706525D01*
X-67853475Y-65913368D01*
X-68015990Y-66156589D01*
X-68127932Y-66426842D01*
X-68185000Y-66713740D01*
X-68185000Y-67006260D01*
X-68127932Y-67293158D01*
X-68015990Y-67563411D01*
X-67853475Y-67806632D01*
X-67646632Y-68013475D01*
X-67472240Y-68130000D01*
X-67646632Y-68246525D01*
X-67853475Y-68453368D01*
X-68015990Y-68696589D01*
X-68127932Y-68966842D01*
X-68185000Y-69253740D01*
X-68185000Y-69546260D01*
X-68127932Y-69833158D01*
X-68015990Y-70103411D01*
X-67853475Y-70346632D01*
X-67646632Y-70553475D01*
X-67472240Y-70670000D01*
X-67646632Y-70786525D01*
X-67853475Y-70993368D01*
X-68015990Y-71236589D01*
X-68127932Y-71506842D01*
X-68185000Y-71793740D01*
X-68185000Y-72086260D01*
X-68127932Y-72373158D01*
X-68015990Y-72643411D01*
X-67853475Y-72886632D01*
X-67646632Y-73093475D01*
X-67472240Y-73210000D01*
X-67646632Y-73326525D01*
X-67853475Y-73533368D01*
X-68015990Y-73776589D01*
X-68127932Y-74046842D01*
X-68185000Y-74333740D01*
X-68185000Y-74626260D01*
X-68127932Y-74913158D01*
X-68015990Y-75183411D01*
X-67853475Y-75426632D01*
X-67646632Y-75633475D01*
X-67472240Y-75750000D01*
X-67646632Y-75866525D01*
X-67853475Y-76073368D01*
X-68015990Y-76316589D01*
X-68127932Y-76586842D01*
X-68185000Y-76873740D01*
X-68185000Y-77166260D01*
X-68127932Y-77453158D01*
X-68015990Y-77723411D01*
X-67853475Y-77966632D01*
X-67646632Y-78173475D01*
X-67403411Y-78335990D01*
X-67133158Y-78447932D01*
X-66846260Y-78505000D01*
X-66553740Y-78505000D01*
X-66266842Y-78447932D01*
X-65996589Y-78335990D01*
X-65753368Y-78173475D01*
X-65546525Y-77966632D01*
X-65430000Y-77792240D01*
X-65313475Y-77966632D01*
X-65106632Y-78173475D01*
X-64863411Y-78335990D01*
X-64593158Y-78447932D01*
X-64306260Y-78505000D01*
X-64013740Y-78505000D01*
X-63726842Y-78447932D01*
X-63456589Y-78335990D01*
X-63213368Y-78173475D01*
X-63006525Y-77966632D01*
X-62844010Y-77723411D01*
X-62732068Y-77453158D01*
X-62675000Y-77166260D01*
X-62675000Y-76873740D01*
X-62732068Y-76586842D01*
X-62844010Y-76316589D01*
X-63006525Y-76073368D01*
X-63213368Y-75866525D01*
X-63387760Y-75750000D01*
X-63213368Y-75633475D01*
X-63006525Y-75426632D01*
X-62844010Y-75183411D01*
X-62732068Y-74913158D01*
X-62675000Y-74626260D01*
X-62675000Y-74333740D01*
X-62732068Y-74046842D01*
X-62844010Y-73776589D01*
X-62881822Y-73720000D01*
X-60478178Y-73720000D01*
X-60353475Y-73906632D01*
X-60221620Y-74038487D01*
X-60294180Y-74060498D01*
X-60404494Y-74119463D01*
X-60501185Y-74198815D01*
X-60580537Y-74295506D01*
X-60639502Y-74405820D01*
X-60675812Y-74525518D01*
X-60688072Y-74650000D01*
X-60688072Y-76350000D01*
X-60675812Y-76474482D01*
X-60639502Y-76594180D01*
X-60580537Y-76704494D01*
X-60501185Y-76801185D01*
X-60404494Y-76880537D01*
X-60294180Y-76939502D01*
X-60174482Y-76975812D01*
X-60050000Y-76988072D01*
X-58350000Y-76988072D01*
X-58225518Y-76975812D01*
X-58105820Y-76939502D01*
X-57995506Y-76880537D01*
X-57898815Y-76801185D01*
X-57819463Y-76704494D01*
X-57760498Y-76594180D01*
X-57724188Y-76474482D01*
X-57711928Y-76350000D01*
X-57711928Y-74650000D01*
X-57724188Y-74525518D01*
X-57760498Y-74405820D01*
X-57819463Y-74295506D01*
X-57898815Y-74198815D01*
X-57995506Y-74119463D01*
X-58105820Y-74060498D01*
X-58178380Y-74038487D01*
X-58046525Y-73906632D01*
X-57884010Y-73663411D01*
X-57772068Y-73393158D01*
X-57715000Y-73106260D01*
X-57715000Y-72813740D01*
X-57772068Y-72526842D01*
X-57884010Y-72256589D01*
X-58046525Y-72013368D01*
X-58253368Y-71806525D01*
X-58427760Y-71690000D01*
X-58253368Y-71573475D01*
X-58046525Y-71366632D01*
X-57884010Y-71123411D01*
X-57772068Y-70853158D01*
X-57715000Y-70566260D01*
X-57715000Y-70273740D01*
X-57727584Y-70210475D01*
X-39845000Y-70210475D01*
X-39845000Y-70729525D01*
X-39743739Y-71238601D01*
X-39545107Y-71718141D01*
X-39256738Y-72149715D01*
X-38889715Y-72516738D01*
X-38458141Y-72805107D01*
X-37978601Y-73003739D01*
X-37469525Y-73105000D01*
X-36950475Y-73105000D01*
X-36441399Y-73003739D01*
X-35961859Y-72805107D01*
X-35530285Y-72516738D01*
X-35163262Y-72149715D01*
X-34895289Y-71748665D01*
X-30300000Y-71748665D01*
X-30300000Y-72031335D01*
X-30244853Y-72308574D01*
X-30136680Y-72569727D01*
X-29979637Y-72804759D01*
X-29779759Y-73004637D01*
X-29544727Y-73161680D01*
X-29283574Y-73269853D01*
X-29006335Y-73325000D01*
X-28723665Y-73325000D01*
X-28446426Y-73269853D01*
X-28185273Y-73161680D01*
X-27950241Y-73004637D01*
X-27750363Y-72804759D01*
X-27593320Y-72569727D01*
X-27485147Y-72308574D01*
X-27480000Y-72282699D01*
X-27474853Y-72308574D01*
X-27366680Y-72569727D01*
X-27209637Y-72804759D01*
X-27009759Y-73004637D01*
X-26774727Y-73161680D01*
X-26513574Y-73269853D01*
X-26236335Y-73325000D01*
X-25953665Y-73325000D01*
X-25676426Y-73269853D01*
X-25415273Y-73161680D01*
X-25180241Y-73004637D01*
X-24980363Y-72804759D01*
X-24823320Y-72569727D01*
X-24715147Y-72308574D01*
X-24710000Y-72282699D01*
X-24704853Y-72308574D01*
X-24596680Y-72569727D01*
X-24439637Y-72804759D01*
X-24239759Y-73004637D01*
X-24004727Y-73161680D01*
X-23743574Y-73269853D01*
X-23466335Y-73325000D01*
X-23183665Y-73325000D01*
X-22906426Y-73269853D01*
X-22645273Y-73161680D01*
X-22410241Y-73004637D01*
X-22210363Y-72804759D01*
X-22053320Y-72569727D01*
X-21945147Y-72308574D01*
X-21940000Y-72282699D01*
X-21934853Y-72308574D01*
X-21826680Y-72569727D01*
X-21669637Y-72804759D01*
X-21469759Y-73004637D01*
X-21234727Y-73161680D01*
X-20973574Y-73269853D01*
X-20696335Y-73325000D01*
X-20413665Y-73325000D01*
X-20136426Y-73269853D01*
X-19875273Y-73161680D01*
X-19640241Y-73004637D01*
X-19440363Y-72804759D01*
X-19283320Y-72569727D01*
X-19175147Y-72308574D01*
X-19120000Y-72031335D01*
X-19120000Y-71748665D01*
X-19175147Y-71471426D01*
X-19283320Y-71210273D01*
X-19440363Y-70975241D01*
X-19640241Y-70775363D01*
X-19875273Y-70618320D01*
X-20136426Y-70510147D01*
X-20413665Y-70455000D01*
X-20696335Y-70455000D01*
X-20973574Y-70510147D01*
X-21234727Y-70618320D01*
X-21469759Y-70775363D01*
X-21669637Y-70975241D01*
X-21826680Y-71210273D01*
X-21934853Y-71471426D01*
X-21940000Y-71497301D01*
X-21945147Y-71471426D01*
X-22053320Y-71210273D01*
X-22210363Y-70975241D01*
X-22410241Y-70775363D01*
X-22645273Y-70618320D01*
X-22906426Y-70510147D01*
X-23183665Y-70455000D01*
X-23466335Y-70455000D01*
X-23743574Y-70510147D01*
X-24004727Y-70618320D01*
X-24239759Y-70775363D01*
X-24439637Y-70975241D01*
X-24596680Y-71210273D01*
X-24704853Y-71471426D01*
X-24710000Y-71497301D01*
X-24715147Y-71471426D01*
X-24823320Y-71210273D01*
X-24980363Y-70975241D01*
X-25180241Y-70775363D01*
X-25415273Y-70618320D01*
X-25676426Y-70510147D01*
X-25953665Y-70455000D01*
X-26236335Y-70455000D01*
X-26513574Y-70510147D01*
X-26774727Y-70618320D01*
X-27009759Y-70775363D01*
X-27209637Y-70975241D01*
X-27366680Y-71210273D01*
X-27474853Y-71471426D01*
X-27480000Y-71497301D01*
X-27485147Y-71471426D01*
X-27593320Y-71210273D01*
X-27750363Y-70975241D01*
X-27950241Y-70775363D01*
X-28185273Y-70618320D01*
X-28446426Y-70510147D01*
X-28723665Y-70455000D01*
X-29006335Y-70455000D01*
X-29283574Y-70510147D01*
X-29544727Y-70618320D01*
X-29779759Y-70775363D01*
X-29979637Y-70975241D01*
X-30136680Y-71210273D01*
X-30244853Y-71471426D01*
X-30300000Y-71748665D01*
X-34895289Y-71748665D01*
X-34874893Y-71718141D01*
X-34676261Y-71238601D01*
X-34575000Y-70729525D01*
X-34575000Y-70210475D01*
X-34676261Y-69701399D01*
X-34874893Y-69221859D01*
X-35163262Y-68790285D01*
X-35530285Y-68423262D01*
X-35789589Y-68250000D01*
X-31688072Y-68250000D01*
X-31688072Y-69850000D01*
X-31675812Y-69974482D01*
X-31639502Y-70094180D01*
X-31580537Y-70204494D01*
X-31501185Y-70301185D01*
X-31404494Y-70380537D01*
X-31294180Y-70439502D01*
X-31174482Y-70475812D01*
X-31050000Y-70488072D01*
X-29450000Y-70488072D01*
X-29325518Y-70475812D01*
X-29205820Y-70439502D01*
X-29095506Y-70380537D01*
X-28998815Y-70301185D01*
X-28919463Y-70204494D01*
X-28860498Y-70094180D01*
X-28824188Y-69974482D01*
X-28811928Y-69850000D01*
X-28811928Y-69584275D01*
X-28751680Y-69729727D01*
X-28594637Y-69964759D01*
X-28394759Y-70164637D01*
X-28159727Y-70321680D01*
X-27898574Y-70429853D01*
X-27621335Y-70485000D01*
X-27338665Y-70485000D01*
X-27061426Y-70429853D01*
X-26800273Y-70321680D01*
X-26565241Y-70164637D01*
X-26443306Y-70042702D01*
X-25523097Y-70042702D01*
X-25451514Y-70286671D01*
X-25196004Y-70407571D01*
X-24921816Y-70476300D01*
X-24639488Y-70490217D01*
X-24359870Y-70448787D01*
X-24093708Y-70353603D01*
X-23968486Y-70286671D01*
X-23896903Y-70042702D01*
X-24710000Y-69229605D01*
X-25523097Y-70042702D01*
X-26443306Y-70042702D01*
X-26365363Y-69964759D01*
X-26208320Y-69729727D01*
X-26100147Y-69468574D01*
X-26094487Y-69440118D01*
X-26013603Y-69666292D01*
X-25946671Y-69791514D01*
X-25702702Y-69863097D01*
X-24889605Y-69050000D01*
X-24530395Y-69050000D01*
X-23717298Y-69863097D01*
X-23473329Y-69791514D01*
X-23352429Y-69536004D01*
X-23326788Y-69433711D01*
X-23319853Y-69468574D01*
X-23211680Y-69729727D01*
X-23054637Y-69964759D01*
X-22854759Y-70164637D01*
X-22619727Y-70321680D01*
X-22358574Y-70429853D01*
X-22081335Y-70485000D01*
X-21798665Y-70485000D01*
X-21521426Y-70429853D01*
X-21260273Y-70321680D01*
X-21025241Y-70164637D01*
X-20825363Y-69964759D01*
X-20668320Y-69729727D01*
X-20560147Y-69468574D01*
X-20555000Y-69442699D01*
X-20549853Y-69468574D01*
X-20441680Y-69729727D01*
X-20284637Y-69964759D01*
X-20084759Y-70164637D01*
X-19849727Y-70321680D01*
X-19588574Y-70429853D01*
X-19311335Y-70485000D01*
X-19028665Y-70485000D01*
X-18751426Y-70429853D01*
X-18490273Y-70321680D01*
X-18323843Y-70210475D01*
X-14845000Y-70210475D01*
X-14845000Y-70729525D01*
X-14743739Y-71238601D01*
X-14545107Y-71718141D01*
X-14256738Y-72149715D01*
X-13889715Y-72516738D01*
X-13458141Y-72805107D01*
X-12978601Y-73003739D01*
X-12469525Y-73105000D01*
X-11950475Y-73105000D01*
X-11441399Y-73003739D01*
X-10961859Y-72805107D01*
X-10530285Y-72516738D01*
X-10163262Y-72149715D01*
X-9874893Y-71718141D01*
X-9676261Y-71238601D01*
X-9575000Y-70729525D01*
X-9575000Y-70210475D01*
X-9676261Y-69701399D01*
X-9874893Y-69221859D01*
X-10163262Y-68790285D01*
X-10530285Y-68423262D01*
X-10961859Y-68134893D01*
X-11441399Y-67936261D01*
X-11950475Y-67835000D01*
X-12469525Y-67835000D01*
X-12978601Y-67936261D01*
X-13458141Y-68134893D01*
X-13889715Y-68423262D01*
X-14256738Y-68790285D01*
X-14545107Y-69221859D01*
X-14743739Y-69701399D01*
X-14845000Y-70210475D01*
X-18323843Y-70210475D01*
X-18255241Y-70164637D01*
X-18055363Y-69964759D01*
X-17898320Y-69729727D01*
X-17790147Y-69468574D01*
X-17735000Y-69191335D01*
X-17735000Y-68908665D01*
X-17790147Y-68631426D01*
X-17898320Y-68370273D01*
X-18055363Y-68135241D01*
X-18255241Y-67935363D01*
X-18490273Y-67778320D01*
X-18751426Y-67670147D01*
X-19028665Y-67615000D01*
X-19311335Y-67615000D01*
X-19588574Y-67670147D01*
X-19849727Y-67778320D01*
X-20084759Y-67935363D01*
X-20284637Y-68135241D01*
X-20441680Y-68370273D01*
X-20549853Y-68631426D01*
X-20555000Y-68657301D01*
X-20560147Y-68631426D01*
X-20668320Y-68370273D01*
X-20825363Y-68135241D01*
X-21025241Y-67935363D01*
X-21260273Y-67778320D01*
X-21521426Y-67670147D01*
X-21798665Y-67615000D01*
X-22081335Y-67615000D01*
X-22358574Y-67670147D01*
X-22619727Y-67778320D01*
X-22854759Y-67935363D01*
X-23054637Y-68135241D01*
X-23211680Y-68370273D01*
X-23319853Y-68631426D01*
X-23325513Y-68659882D01*
X-23406397Y-68433708D01*
X-23473329Y-68308486D01*
X-23717298Y-68236903D01*
X-24530395Y-69050000D01*
X-24889605Y-69050000D01*
X-25702702Y-68236903D01*
X-25946671Y-68308486D01*
X-26067571Y-68563996D01*
X-26093212Y-68666289D01*
X-26100147Y-68631426D01*
X-26208320Y-68370273D01*
X-26365363Y-68135241D01*
X-26443306Y-68057298D01*
X-25523097Y-68057298D01*
X-24710000Y-68870395D01*
X-23896903Y-68057298D01*
X-23968486Y-67813329D01*
X-24223996Y-67692429D01*
X-24498184Y-67623700D01*
X-24780512Y-67609783D01*
X-25060130Y-67651213D01*
X-25326292Y-67746397D01*
X-25451514Y-67813329D01*
X-25523097Y-68057298D01*
X-26443306Y-68057298D01*
X-26565241Y-67935363D01*
X-26800273Y-67778320D01*
X-27061426Y-67670147D01*
X-27338665Y-67615000D01*
X-27621335Y-67615000D01*
X-27898574Y-67670147D01*
X-28159727Y-67778320D01*
X-28394759Y-67935363D01*
X-28594637Y-68135241D01*
X-28751680Y-68370273D01*
X-28811928Y-68515725D01*
X-28811928Y-68250000D01*
X-28824188Y-68125518D01*
X-28860498Y-68005820D01*
X-28919463Y-67895506D01*
X-28998815Y-67798815D01*
X-29095506Y-67719463D01*
X-29205820Y-67660498D01*
X-29325518Y-67624188D01*
X-29450000Y-67611928D01*
X-31050000Y-67611928D01*
X-31174482Y-67624188D01*
X-31294180Y-67660498D01*
X-31404494Y-67719463D01*
X-31501185Y-67798815D01*
X-31580537Y-67895506D01*
X-31639502Y-68005820D01*
X-31675812Y-68125518D01*
X-31688072Y-68250000D01*
X-35789589Y-68250000D01*
X-35961859Y-68134893D01*
X-36441399Y-67936261D01*
X-36950475Y-67835000D01*
X-37469525Y-67835000D01*
X-37978601Y-67936261D01*
X-38458141Y-68134893D01*
X-38889715Y-68423262D01*
X-39256738Y-68790285D01*
X-39545107Y-69221859D01*
X-39743739Y-69701399D01*
X-39845000Y-70210475D01*
X-57727584Y-70210475D01*
X-57772068Y-69986842D01*
X-57884010Y-69716589D01*
X-58046525Y-69473368D01*
X-58253368Y-69266525D01*
X-58427760Y-69150000D01*
X-58253368Y-69033475D01*
X-58046525Y-68826632D01*
X-57884010Y-68583411D01*
X-57772068Y-68313158D01*
X-57715000Y-68026260D01*
X-57715000Y-67733740D01*
X-57772068Y-67446842D01*
X-57884010Y-67176589D01*
X-58046525Y-66933368D01*
X-58253368Y-66726525D01*
X-58435534Y-66604805D01*
X-58318645Y-66535178D01*
X-58102412Y-66340269D01*
X-57928359Y-66106920D01*
X-57803175Y-65844099D01*
X-57758524Y-65696890D01*
X-57879845Y-65467000D01*
X-59073000Y-65467000D01*
X-59073000Y-65487000D01*
X-59327000Y-65487000D01*
X-59327000Y-65467000D01*
X-60520155Y-65467000D01*
X-60641476Y-65696890D01*
X-60596825Y-65844099D01*
X-60471641Y-66106920D01*
X-60297588Y-66340269D01*
X-60081355Y-66535178D01*
X-59964466Y-66604805D01*
X-60146632Y-66726525D01*
X-60353475Y-66933368D01*
X-60515990Y-67176589D01*
X-60627932Y-67446842D01*
X-60685000Y-67733740D01*
X-60685000Y-68026260D01*
X-60627932Y-68313158D01*
X-60515990Y-68583411D01*
X-60353475Y-68826632D01*
X-60146632Y-69033475D01*
X-59972240Y-69150000D01*
X-60146632Y-69266525D01*
X-60353475Y-69473368D01*
X-60515990Y-69716589D01*
X-60627932Y-69986842D01*
X-60685000Y-70273740D01*
X-60685000Y-70566260D01*
X-60627932Y-70853158D01*
X-60515990Y-71123411D01*
X-60353475Y-71366632D01*
X-60146632Y-71573475D01*
X-59972240Y-71690000D01*
X-60146632Y-71806525D01*
X-60353475Y-72013368D01*
X-60478178Y-72200000D01*
X-62697624Y-72200000D01*
X-62675000Y-72086260D01*
X-62675000Y-71793740D01*
X-62732068Y-71506842D01*
X-62844010Y-71236589D01*
X-63006525Y-70993368D01*
X-63213368Y-70786525D01*
X-63387760Y-70670000D01*
X-63213368Y-70553475D01*
X-63006525Y-70346632D01*
X-62844010Y-70103411D01*
X-62732068Y-69833158D01*
X-62675000Y-69546260D01*
X-62675000Y-69253740D01*
X-62732068Y-68966842D01*
X-62844010Y-68696589D01*
X-63006525Y-68453368D01*
X-63213368Y-68246525D01*
X-63387760Y-68130000D01*
X-63213368Y-68013475D01*
X-63006525Y-67806632D01*
X-62844010Y-67563411D01*
X-62732068Y-67293158D01*
X-62675000Y-67006260D01*
X-62675000Y-66713740D01*
X-62732068Y-66426842D01*
X-62844010Y-66156589D01*
X-63006525Y-65913368D01*
X-63213368Y-65706525D01*
X-63387760Y-65590000D01*
X-63213368Y-65473475D01*
X-63006525Y-65266632D01*
X-62844010Y-65023411D01*
X-62827317Y-64983110D01*
X-60641476Y-64983110D01*
X-60520155Y-65213000D01*
X-59327000Y-65213000D01*
X-59327000Y-64019186D01*
X-59073000Y-64019186D01*
X-59073000Y-65213000D01*
X-57879845Y-65213000D01*
X-57758524Y-64983110D01*
X-57803175Y-64835901D01*
X-57928359Y-64573080D01*
X-58102412Y-64339731D01*
X-58318645Y-64144822D01*
X-58568748Y-63995843D01*
X-58843109Y-63898519D01*
X-59073000Y-64019186D01*
X-59327000Y-64019186D01*
X-59556891Y-63898519D01*
X-59831252Y-63995843D01*
X-60081355Y-64144822D01*
X-60297588Y-64339731D01*
X-60471641Y-64573080D01*
X-60596825Y-64835901D01*
X-60641476Y-64983110D01*
X-62827317Y-64983110D01*
X-62732068Y-64753158D01*
X-62675000Y-64466260D01*
X-62675000Y-64173740D01*
X-62732068Y-63886842D01*
X-62844010Y-63616589D01*
X-63006525Y-63373368D01*
X-63213368Y-63166525D01*
X-63387760Y-63050000D01*
X-63213368Y-62933475D01*
X-63006525Y-62726632D01*
X-62844010Y-62483411D01*
X-62732068Y-62213158D01*
X-62680467Y-61953740D01*
X-18425000Y-61953740D01*
X-18425000Y-62246260D01*
X-18367932Y-62533158D01*
X-18255990Y-62803411D01*
X-18093475Y-63046632D01*
X-17886632Y-63253475D01*
X-17643411Y-63415990D01*
X-17373158Y-63527932D01*
X-17086260Y-63585000D01*
X-16793740Y-63585000D01*
X-16506842Y-63527932D01*
X-16236589Y-63415990D01*
X-15993368Y-63253475D01*
X-15861513Y-63121620D01*
X-15839502Y-63194180D01*
X-15780537Y-63304494D01*
X-15701185Y-63401185D01*
X-15604494Y-63480537D01*
X-15494180Y-63539502D01*
X-15374482Y-63575812D01*
X-15250000Y-63588072D01*
X-13550000Y-63588072D01*
X-13425518Y-63575812D01*
X-13305820Y-63539502D01*
X-13195506Y-63480537D01*
X-13098815Y-63401185D01*
X-13019463Y-63304494D01*
X-12960498Y-63194180D01*
X-12924188Y-63074482D01*
X-12911928Y-62950000D01*
X-12911928Y-61250000D01*
X-12924188Y-61125518D01*
X-12960498Y-61005820D01*
X-13019463Y-60895506D01*
X-13098815Y-60798815D01*
X-13195506Y-60719463D01*
X-13305820Y-60660498D01*
X-13425518Y-60624188D01*
X-13550000Y-60611928D01*
X-15250000Y-60611928D01*
X-15374482Y-60624188D01*
X-15494180Y-60660498D01*
X-15604494Y-60719463D01*
X-15701185Y-60798815D01*
X-15780537Y-60895506D01*
X-15839502Y-61005820D01*
X-15861513Y-61078380D01*
X-15993368Y-60946525D01*
X-16236589Y-60784010D01*
X-16506842Y-60672068D01*
X-16793740Y-60615000D01*
X-17086260Y-60615000D01*
X-17373158Y-60672068D01*
X-17643411Y-60784010D01*
X-17886632Y-60946525D01*
X-18093475Y-61153368D01*
X-18255990Y-61396589D01*
X-18367932Y-61666842D01*
X-18425000Y-61953740D01*
X-62680467Y-61953740D01*
X-62675000Y-61926260D01*
X-62675000Y-61633740D01*
X-62732068Y-61346842D01*
X-62844010Y-61076589D01*
X-63006525Y-60833368D01*
X-63213368Y-60626525D01*
X-63387760Y-60510000D01*
X-63213368Y-60393475D01*
X-63006525Y-60186632D01*
X-62844010Y-59943411D01*
X-62732068Y-59673158D01*
X-62675000Y-59386260D01*
X-62675000Y-59093740D01*
X-62732068Y-58806842D01*
X-62844010Y-58536589D01*
X-63006525Y-58293368D01*
X-63213368Y-58086525D01*
X-63386729Y-57970689D01*
X-63311208Y-57728397D01*
X-64160000Y-56879605D01*
X-65008792Y-57728397D01*
X-64933271Y-57970689D01*
X-65106632Y-58086525D01*
X-65313475Y-58293368D01*
X-65430000Y-58467760D01*
X-65546525Y-58293368D01*
X-65753368Y-58086525D01*
X-65927760Y-57970000D01*
X-65753368Y-57853475D01*
X-65546525Y-57646632D01*
X-65430689Y-57473271D01*
X-65188397Y-57548792D01*
X-64339605Y-56700000D01*
X-63980395Y-56700000D01*
X-63131603Y-57548792D01*
X-62882528Y-57471157D01*
X-62756629Y-57207117D01*
X-62684661Y-56923589D01*
X-62669389Y-56631469D01*
X-62711401Y-56341981D01*
X-62809081Y-56066253D01*
X-62882528Y-55928843D01*
X-63131603Y-55851208D01*
X-63980395Y-56700000D01*
X-64339605Y-56700000D01*
X-65188397Y-55851208D01*
X-65430689Y-55926729D01*
X-65546525Y-55753368D01*
X-65753368Y-55546525D01*
X-65926729Y-55430689D01*
X-65851208Y-55188397D01*
X-65008792Y-55188397D01*
X-64933486Y-55430000D01*
X-65008792Y-55671603D01*
X-64160000Y-56520395D01*
X-63311208Y-55671603D01*
X-63386514Y-55430000D01*
X-63311208Y-55188397D01*
X-64160000Y-54339605D01*
X-65008792Y-55188397D01*
X-65851208Y-55188397D01*
X-66700000Y-54339605D01*
X-67548792Y-55188397D01*
X-67473271Y-55430689D01*
X-67646632Y-55546525D01*
X-67853475Y-55753368D01*
X-68015990Y-55996589D01*
X-68127932Y-56266842D01*
X-68185000Y-56553740D01*
X-68580000Y-56553740D01*
X-68580000Y-54228531D01*
X-68190611Y-54228531D01*
X-68148599Y-54518019D01*
X-68050919Y-54793747D01*
X-67977472Y-54931157D01*
X-67728397Y-55008792D01*
X-66879605Y-54160000D01*
X-66520395Y-54160000D01*
X-65671603Y-55008792D01*
X-65430000Y-54933486D01*
X-65188397Y-55008792D01*
X-64339605Y-54160000D01*
X-65188397Y-53311208D01*
X-65430000Y-53386514D01*
X-65671603Y-53311208D01*
X-66520395Y-54160000D01*
X-66879605Y-54160000D01*
X-67728397Y-53311208D01*
X-67977472Y-53388843D01*
X-68103371Y-53652883D01*
X-68175339Y-53936411D01*
X-68190611Y-54228531D01*
X-68580000Y-54228531D01*
X-68580000Y-30450000D01*
X-68188072Y-30450000D01*
X-68188072Y-32150000D01*
X-68175812Y-32274482D01*
X-68139502Y-32394180D01*
X-68080537Y-32504494D01*
X-68001185Y-32601185D01*
X-67904494Y-32680537D01*
X-67794180Y-32739502D01*
X-67721620Y-32761513D01*
X-67853475Y-32893368D01*
X-68015990Y-33136589D01*
X-68127932Y-33406842D01*
X-68185000Y-33693740D01*
X-68185000Y-33986260D01*
X-68127932Y-34273158D01*
X-68015990Y-34543411D01*
X-67853475Y-34786632D01*
X-67646632Y-34993475D01*
X-67472240Y-35110000D01*
X-67646632Y-35226525D01*
X-67853475Y-35433368D01*
X-68015990Y-35676589D01*
X-68127932Y-35946842D01*
X-68185000Y-36233740D01*
X-68185000Y-36526260D01*
X-68127932Y-36813158D01*
X-68015990Y-37083411D01*
X-67853475Y-37326632D01*
X-67646632Y-37533475D01*
X-67472240Y-37650000D01*
X-67646632Y-37766525D01*
X-67853475Y-37973368D01*
X-68015990Y-38216589D01*
X-68127932Y-38486842D01*
X-68185000Y-38773740D01*
X-68185000Y-39066260D01*
X-68127932Y-39353158D01*
X-68015990Y-39623411D01*
X-67853475Y-39866632D01*
X-67646632Y-40073475D01*
X-67472240Y-40190000D01*
X-67646632Y-40306525D01*
X-67853475Y-40513368D01*
X-68015990Y-40756589D01*
X-68127932Y-41026842D01*
X-68185000Y-41313740D01*
X-68185000Y-41606260D01*
X-68127932Y-41893158D01*
X-68015990Y-42163411D01*
X-67853475Y-42406632D01*
X-67646632Y-42613475D01*
X-67472240Y-42730000D01*
X-67646632Y-42846525D01*
X-67853475Y-43053368D01*
X-68015990Y-43296589D01*
X-68127932Y-43566842D01*
X-68185000Y-43853740D01*
X-68185000Y-44146260D01*
X-68127932Y-44433158D01*
X-68015990Y-44703411D01*
X-67853475Y-44946632D01*
X-67646632Y-45153475D01*
X-67472240Y-45270000D01*
X-67646632Y-45386525D01*
X-67853475Y-45593368D01*
X-68015990Y-45836589D01*
X-68127932Y-46106842D01*
X-68185000Y-46393740D01*
X-68185000Y-46686260D01*
X-68127932Y-46973158D01*
X-68015990Y-47243411D01*
X-67853475Y-47486632D01*
X-67646632Y-47693475D01*
X-67472240Y-47810000D01*
X-67646632Y-47926525D01*
X-67853475Y-48133368D01*
X-68015990Y-48376589D01*
X-68127932Y-48646842D01*
X-68185000Y-48933740D01*
X-68185000Y-49226260D01*
X-68127932Y-49513158D01*
X-68015990Y-49783411D01*
X-67853475Y-50026632D01*
X-67646632Y-50233475D01*
X-67472240Y-50350000D01*
X-67646632Y-50466525D01*
X-67853475Y-50673368D01*
X-68015990Y-50916589D01*
X-68127932Y-51186842D01*
X-68185000Y-51473740D01*
X-68185000Y-51766260D01*
X-68127932Y-52053158D01*
X-68015990Y-52323411D01*
X-67853475Y-52566632D01*
X-67646632Y-52773475D01*
X-67473271Y-52889311D01*
X-67548792Y-53131603D01*
X-66700000Y-53980395D01*
X-65851208Y-53131603D01*
X-65926729Y-52889311D01*
X-65753368Y-52773475D01*
X-65546525Y-52566632D01*
X-65430000Y-52392240D01*
X-65313475Y-52566632D01*
X-65106632Y-52773475D01*
X-64933271Y-52889311D01*
X-65008792Y-53131603D01*
X-64160000Y-53980395D01*
X-64145857Y-53966253D01*
X-63966252Y-54145858D01*
X-63980395Y-54160000D01*
X-63131603Y-55008792D01*
X-62882528Y-54931157D01*
X-62756629Y-54667117D01*
X-62684661Y-54383589D01*
X-62669389Y-54091469D01*
X-62679521Y-54021651D01*
X-62501898Y-54095226D01*
X-62301939Y-54135000D01*
X-62098061Y-54135000D01*
X-61898102Y-54095226D01*
X-61709744Y-54017205D01*
X-61540226Y-53903937D01*
X-61396063Y-53759774D01*
X-61282795Y-53590256D01*
X-61204774Y-53401898D01*
X-61165000Y-53201939D01*
X-61165000Y-52998061D01*
X-61204774Y-52798102D01*
X-61282795Y-52609744D01*
X-61396063Y-52440226D01*
X-61440000Y-52396289D01*
X-61440000Y-49203711D01*
X-61396063Y-49159774D01*
X-61282795Y-48990256D01*
X-61204774Y-48801898D01*
X-61165000Y-48601939D01*
X-61165000Y-48398061D01*
X-61204774Y-48198102D01*
X-61282795Y-48009744D01*
X-61396063Y-47840226D01*
X-61540226Y-47696063D01*
X-61709744Y-47582795D01*
X-61898102Y-47504774D01*
X-62098061Y-47465000D01*
X-62301939Y-47465000D01*
X-62501898Y-47504774D01*
X-62690256Y-47582795D01*
X-62859774Y-47696063D01*
X-63003937Y-47840226D01*
X-63117205Y-48009744D01*
X-63120996Y-48018897D01*
X-63213368Y-47926525D01*
X-63387760Y-47810000D01*
X-63213368Y-47693475D01*
X-63006525Y-47486632D01*
X-62844010Y-47243411D01*
X-62732068Y-46973158D01*
X-62675000Y-46686260D01*
X-62675000Y-46393740D01*
X-62732068Y-46106842D01*
X-62817744Y-45900000D01*
X-55378072Y-45900000D01*
X-55378072Y-48900000D01*
X-55365812Y-49024482D01*
X-55329502Y-49144180D01*
X-55270537Y-49254494D01*
X-55191185Y-49351185D01*
X-55094494Y-49430537D01*
X-54984180Y-49489502D01*
X-54864482Y-49525812D01*
X-54740000Y-49538072D01*
X-51740000Y-49538072D01*
X-51615518Y-49525812D01*
X-51495820Y-49489502D01*
X-51385506Y-49430537D01*
X-51288815Y-49351185D01*
X-51209463Y-49254494D01*
X-51150498Y-49144180D01*
X-51114188Y-49024482D01*
X-51101928Y-48900000D01*
X-51101928Y-48891653D01*
X-34062048Y-48891653D01*
X-33906038Y-49207214D01*
X-33531255Y-49398020D01*
X-33126449Y-49512044D01*
X-32707176Y-49544902D01*
X-32289549Y-49495334D01*
X-31889617Y-49365243D01*
X-31593962Y-49207214D01*
X-31437952Y-48891653D01*
X-32750000Y-47579605D01*
X-34062048Y-48891653D01*
X-51101928Y-48891653D01*
X-51101928Y-47442824D01*
X-34894902Y-47442824D01*
X-34845334Y-47860451D01*
X-34715243Y-48260383D01*
X-34557214Y-48556038D01*
X-34241653Y-48712048D01*
X-32929605Y-47400000D01*
X-32570395Y-47400000D01*
X-31258347Y-48712048D01*
X-30942786Y-48556038D01*
X-30751980Y-48181255D01*
X-30637956Y-47776449D01*
X-30605098Y-47357176D01*
X-30654666Y-46939549D01*
X-30784757Y-46539617D01*
X-30942786Y-46243962D01*
X-31258347Y-46087952D01*
X-32570395Y-47400000D01*
X-32929605Y-47400000D01*
X-34241653Y-46087952D01*
X-34557214Y-46243962D01*
X-34748020Y-46618745D01*
X-34862044Y-47023551D01*
X-34894902Y-47442824D01*
X-51101928Y-47442824D01*
X-51101928Y-45908347D01*
X-34062048Y-45908347D01*
X-32750000Y-47220395D01*
X-31437952Y-45908347D01*
X-31593962Y-45592786D01*
X-31968745Y-45401980D01*
X-32373551Y-45287956D01*
X-32792824Y-45255098D01*
X-33210451Y-45304666D01*
X-33610383Y-45434757D01*
X-33906038Y-45592786D01*
X-34062048Y-45908347D01*
X-51101928Y-45908347D01*
X-51101928Y-45900000D01*
X-51114188Y-45775518D01*
X-51150498Y-45655820D01*
X-51209463Y-45545506D01*
X-51288815Y-45448815D01*
X-51385506Y-45369463D01*
X-51495820Y-45310498D01*
X-51615518Y-45274188D01*
X-51740000Y-45261928D01*
X-54740000Y-45261928D01*
X-54864482Y-45274188D01*
X-54984180Y-45310498D01*
X-55094494Y-45369463D01*
X-55191185Y-45448815D01*
X-55270537Y-45545506D01*
X-55329502Y-45655820D01*
X-55365812Y-45775518D01*
X-55378072Y-45900000D01*
X-62817744Y-45900000D01*
X-62844010Y-45836589D01*
X-63006525Y-45593368D01*
X-63213368Y-45386525D01*
X-63387760Y-45270000D01*
X-63213368Y-45153475D01*
X-63006525Y-44946632D01*
X-62844010Y-44703411D01*
X-62732068Y-44433158D01*
X-62675000Y-44146260D01*
X-62675000Y-43853740D01*
X-62732068Y-43566842D01*
X-62844010Y-43296589D01*
X-63006525Y-43053368D01*
X-63213368Y-42846525D01*
X-63387760Y-42730000D01*
X-63213368Y-42613475D01*
X-63006525Y-42406632D01*
X-62844010Y-42163411D01*
X-62732068Y-41893158D01*
X-62675000Y-41606260D01*
X-62675000Y-41313740D01*
X-62714715Y-41114080D01*
X-58734475Y-41114080D01*
X-58650792Y-41368261D01*
X-58378225Y-41499158D01*
X-58085358Y-41574365D01*
X-57783447Y-41590991D01*
X-57484093Y-41548397D01*
X-57427516Y-41528531D01*
X-7230611Y-41528531D01*
X-7188599Y-41818019D01*
X-7090919Y-42093747D01*
X-7017472Y-42231157D01*
X-6768397Y-42308792D01*
X-5919605Y-41460000D01*
X-6768397Y-40611208D01*
X-7017472Y-40688843D01*
X-7143371Y-40952883D01*
X-7215339Y-41236411D01*
X-7230611Y-41528531D01*
X-57427516Y-41528531D01*
X-57198801Y-41448222D01*
X-57049208Y-41368261D01*
X-56965525Y-41114080D01*
X-57850000Y-40229605D01*
X-58734475Y-41114080D01*
X-62714715Y-41114080D01*
X-62732068Y-41026842D01*
X-62844010Y-40756589D01*
X-63006525Y-40513368D01*
X-63213368Y-40306525D01*
X-63386729Y-40190689D01*
X-63363622Y-40116553D01*
X-59390991Y-40116553D01*
X-59348397Y-40415907D01*
X-59248222Y-40701199D01*
X-59168261Y-40850792D01*
X-58914080Y-40934475D01*
X-58029605Y-40050000D01*
X-57670395Y-40050000D01*
X-56785920Y-40934475D01*
X-56531739Y-40850792D01*
X-56400842Y-40578225D01*
X-56325635Y-40285358D01*
X-56309009Y-39983447D01*
X-56351603Y-39684093D01*
X-56451778Y-39398801D01*
X-56531739Y-39249208D01*
X-56785920Y-39165525D01*
X-57670395Y-40050000D01*
X-58029605Y-40050000D01*
X-58914080Y-39165525D01*
X-59168261Y-39249208D01*
X-59299158Y-39521775D01*
X-59374365Y-39814642D01*
X-59390991Y-40116553D01*
X-63363622Y-40116553D01*
X-63311208Y-39948397D01*
X-64160000Y-39099605D01*
X-65008792Y-39948397D01*
X-64933271Y-40190689D01*
X-65106632Y-40306525D01*
X-65313475Y-40513368D01*
X-65430000Y-40687760D01*
X-65546525Y-40513368D01*
X-65753368Y-40306525D01*
X-65927760Y-40190000D01*
X-65753368Y-40073475D01*
X-65546525Y-39866632D01*
X-65430689Y-39693271D01*
X-65188397Y-39768792D01*
X-64339605Y-38920000D01*
X-63980395Y-38920000D01*
X-63131603Y-39768792D01*
X-62882528Y-39691157D01*
X-62756629Y-39427117D01*
X-62684661Y-39143589D01*
X-62676419Y-38985920D01*
X-58734475Y-38985920D01*
X-57850000Y-39870395D01*
X-56965525Y-38985920D01*
X-57049208Y-38731739D01*
X-57321775Y-38600842D01*
X-57614642Y-38525635D01*
X-57916553Y-38509009D01*
X-58215907Y-38551603D01*
X-58501199Y-38651778D01*
X-58650792Y-38731739D01*
X-58734475Y-38985920D01*
X-62676419Y-38985920D01*
X-62669389Y-38851469D01*
X-62711401Y-38561981D01*
X-62809081Y-38286253D01*
X-62882528Y-38148843D01*
X-63131603Y-38071208D01*
X-63980395Y-38920000D01*
X-64339605Y-38920000D01*
X-65188397Y-38071208D01*
X-65430689Y-38146729D01*
X-65546525Y-37973368D01*
X-65753368Y-37766525D01*
X-65927760Y-37650000D01*
X-65753368Y-37533475D01*
X-65546525Y-37326632D01*
X-65430000Y-37152240D01*
X-65313475Y-37326632D01*
X-65106632Y-37533475D01*
X-64933271Y-37649311D01*
X-65008792Y-37891603D01*
X-64160000Y-38740395D01*
X-63311208Y-37891603D01*
X-63386729Y-37649311D01*
X-63213368Y-37533475D01*
X-63006525Y-37326632D01*
X-62844010Y-37083411D01*
X-62732068Y-36813158D01*
X-62675000Y-36526260D01*
X-62675000Y-36233740D01*
X-62732068Y-35946842D01*
X-62844010Y-35676589D01*
X-63006525Y-35433368D01*
X-63213368Y-35226525D01*
X-63387760Y-35110000D01*
X-63213368Y-34993475D01*
X-63118709Y-34898816D01*
X-59385000Y-34898816D01*
X-59385000Y-35201184D01*
X-59326011Y-35497743D01*
X-59210299Y-35777095D01*
X-59042312Y-36028505D01*
X-58828505Y-36242312D01*
X-58577095Y-36410299D01*
X-58297743Y-36526011D01*
X-58001184Y-36585000D01*
X-57698816Y-36585000D01*
X-57402257Y-36526011D01*
X-57122905Y-36410299D01*
X-56871495Y-36242312D01*
X-56657688Y-36028505D01*
X-56489701Y-35777095D01*
X-56373989Y-35497743D01*
X-56315000Y-35201184D01*
X-56315000Y-34898816D01*
X-56373989Y-34602257D01*
X-56437859Y-34448061D01*
X-23285002Y-34448061D01*
X-23285002Y-34651939D01*
X-23245228Y-34851898D01*
X-23167207Y-35040256D01*
X-23053939Y-35209774D01*
X-22909776Y-35353937D01*
X-22740258Y-35467205D01*
X-22551900Y-35545226D01*
X-22351941Y-35585000D01*
X-22148063Y-35585000D01*
X-21948104Y-35545226D01*
X-21759746Y-35467205D01*
X-21590228Y-35353937D01*
X-21546291Y-35310000D01*
X-19253711Y-35310000D01*
X-19209774Y-35353937D01*
X-19040256Y-35467205D01*
X-18851898Y-35545226D01*
X-18651939Y-35585000D01*
X-18448061Y-35585000D01*
X-18248102Y-35545226D01*
X-18059744Y-35467205D01*
X-17890226Y-35353937D01*
X-17746063Y-35209774D01*
X-17632795Y-35040256D01*
X-17554774Y-34851898D01*
X-17515000Y-34651939D01*
X-17515000Y-34448061D01*
X-17554774Y-34248102D01*
X-17632795Y-34059744D01*
X-17689419Y-33975000D01*
X-17632795Y-33890256D01*
X-17554774Y-33701898D01*
X-17515000Y-33501939D01*
X-17515000Y-33298061D01*
X-17554774Y-33098102D01*
X-17632795Y-32909744D01*
X-17746063Y-32740226D01*
X-17890226Y-32596063D01*
X-18059744Y-32482795D01*
X-18248102Y-32404774D01*
X-18448061Y-32365000D01*
X-18651939Y-32365000D01*
X-18851898Y-32404774D01*
X-19040256Y-32482795D01*
X-19209774Y-32596063D01*
X-19253711Y-32640000D01*
X-21546289Y-32640000D01*
X-21590226Y-32596063D01*
X-21759744Y-32482795D01*
X-21948102Y-32404774D01*
X-22148061Y-32365000D01*
X-22351939Y-32365000D01*
X-22551898Y-32404774D01*
X-22740256Y-32482795D01*
X-22909774Y-32596063D01*
X-23053937Y-32740226D01*
X-23167205Y-32909744D01*
X-23245226Y-33098102D01*
X-23285000Y-33298061D01*
X-23285000Y-33501939D01*
X-23245226Y-33701898D01*
X-23167205Y-33890256D01*
X-23110582Y-33974999D01*
X-23167207Y-34059744D01*
X-23245228Y-34248102D01*
X-23285002Y-34448061D01*
X-56437859Y-34448061D01*
X-56489701Y-34322905D01*
X-56657688Y-34071495D01*
X-56871495Y-33857688D01*
X-57122905Y-33689701D01*
X-57402257Y-33573989D01*
X-57698816Y-33515000D01*
X-58001184Y-33515000D01*
X-58297743Y-33573989D01*
X-58577095Y-33689701D01*
X-58828505Y-33857688D01*
X-59042312Y-34071495D01*
X-59210299Y-34322905D01*
X-59326011Y-34602257D01*
X-59385000Y-34898816D01*
X-63118709Y-34898816D01*
X-63006525Y-34786632D01*
X-62844010Y-34543411D01*
X-62732068Y-34273158D01*
X-62675000Y-33986260D01*
X-62675000Y-33693740D01*
X-62732068Y-33406842D01*
X-62844010Y-33136589D01*
X-63006525Y-32893368D01*
X-63213368Y-32686525D01*
X-63387760Y-32570000D01*
X-63213368Y-32453475D01*
X-63006525Y-32246632D01*
X-62844010Y-32003411D01*
X-62732068Y-31733158D01*
X-62675000Y-31446260D01*
X-62675000Y-31153740D01*
X-62732068Y-30866842D01*
X-62844010Y-30596589D01*
X-63006525Y-30353368D01*
X-63213368Y-30146525D01*
X-63456589Y-29984010D01*
X-63726842Y-29872068D01*
X-64013740Y-29815000D01*
X-64306260Y-29815000D01*
X-64593158Y-29872068D01*
X-64863411Y-29984010D01*
X-65106632Y-30146525D01*
X-65238487Y-30278380D01*
X-65260498Y-30205820D01*
X-65319463Y-30095506D01*
X-65398815Y-29998815D01*
X-65495506Y-29919463D01*
X-65605820Y-29860498D01*
X-65725518Y-29824188D01*
X-65850000Y-29811928D01*
X-67550000Y-29811928D01*
X-67674482Y-29824188D01*
X-67794180Y-29860498D01*
X-67904494Y-29919463D01*
X-68001185Y-29998815D01*
X-68080537Y-30095506D01*
X-68139502Y-30205820D01*
X-68175812Y-30325518D01*
X-68188072Y-30450000D01*
X-68580000Y-30450000D01*
X-68580000Y-28298061D01*
X-12135000Y-28298061D01*
X-12135000Y-28501939D01*
X-12095226Y-28701898D01*
X-12017205Y-28890256D01*
X-11903937Y-29059774D01*
X-11759774Y-29203937D01*
X-11590256Y-29317205D01*
X-11401898Y-29395226D01*
X-11201939Y-29435000D01*
X-11139802Y-29435000D01*
X-10913799Y-29661002D01*
X-10890001Y-29690001D01*
X-10774276Y-29784974D01*
X-10642247Y-29855546D01*
X-10498986Y-29899003D01*
X-10387333Y-29910000D01*
X-10387324Y-29910000D01*
X-10350001Y-29913676D01*
X-10312678Y-29910000D01*
X-6264734Y-29910000D01*
X-6443411Y-29984010D01*
X-6686632Y-30146525D01*
X-6893475Y-30353368D01*
X-7055990Y-30596589D01*
X-7167932Y-30866842D01*
X-7225000Y-31153740D01*
X-7225000Y-31446260D01*
X-7167932Y-31733158D01*
X-7055990Y-32003411D01*
X-6893475Y-32246632D01*
X-6686632Y-32453475D01*
X-6512240Y-32570000D01*
X-6686632Y-32686525D01*
X-6893475Y-32893368D01*
X-7018178Y-33080000D01*
X-8348737Y-33080000D01*
X-8386062Y-33076324D01*
X-8423387Y-33080000D01*
X-8423395Y-33080000D01*
X-8535048Y-33090997D01*
X-8678309Y-33134454D01*
X-8810338Y-33205026D01*
X-8926063Y-33299999D01*
X-8949861Y-33328997D01*
X-9987243Y-34366380D01*
X-10049381Y-34366380D01*
X-10249340Y-34406154D01*
X-10437698Y-34484175D01*
X-10607216Y-34597443D01*
X-10751379Y-34741606D01*
X-10864647Y-34911124D01*
X-10942668Y-35099482D01*
X-10982442Y-35299441D01*
X-10982442Y-35503319D01*
X-10942668Y-35703278D01*
X-10880130Y-35854257D01*
X-10917205Y-35909744D01*
X-10995226Y-36098102D01*
X-11035000Y-36298061D01*
X-11035000Y-36501939D01*
X-10995226Y-36701898D01*
X-10917205Y-36890256D01*
X-10910693Y-36900002D01*
X-10917205Y-36909747D01*
X-10995226Y-37098105D01*
X-11035000Y-37298064D01*
X-11035000Y-37501942D01*
X-10995226Y-37701901D01*
X-10917205Y-37890259D01*
X-10803937Y-38059777D01*
X-10659774Y-38203940D01*
X-10490256Y-38317208D01*
X-10301898Y-38395229D01*
X-10101939Y-38435003D01*
X-9898061Y-38435003D01*
X-9698102Y-38395229D01*
X-9509744Y-38317208D01*
X-9340226Y-38203940D01*
X-9296289Y-38160003D01*
X-7018180Y-38160003D01*
X-7055990Y-38216589D01*
X-7167932Y-38486842D01*
X-7225000Y-38773740D01*
X-7225000Y-39066260D01*
X-7167932Y-39353158D01*
X-7055990Y-39623411D01*
X-6893475Y-39866632D01*
X-6686632Y-40073475D01*
X-6513271Y-40189311D01*
X-6588792Y-40431603D01*
X-5740000Y-41280395D01*
X-4891208Y-40431603D01*
X-4966729Y-40189311D01*
X-4793368Y-40073475D01*
X-4586525Y-39866632D01*
X-4470000Y-39692240D01*
X-4353475Y-39866632D01*
X-4146632Y-40073475D01*
X-3972240Y-40190000D01*
X-4146632Y-40306525D01*
X-4353475Y-40513368D01*
X-4469311Y-40686729D01*
X-4711603Y-40611208D01*
X-5560395Y-41460000D01*
X-4711603Y-42308792D01*
X-4469311Y-42233271D01*
X-4353475Y-42406632D01*
X-4146632Y-42613475D01*
X-3972240Y-42730000D01*
X-4146632Y-42846525D01*
X-4353475Y-43053368D01*
X-4470000Y-43227760D01*
X-4586525Y-43053368D01*
X-4793368Y-42846525D01*
X-4966729Y-42730689D01*
X-4891208Y-42488397D01*
X-5740000Y-41639605D01*
X-6588792Y-42488397D01*
X-6513271Y-42730689D01*
X-6686632Y-42846525D01*
X-6763198Y-42923091D01*
X-6840226Y-42846063D01*
X-7009744Y-42732795D01*
X-7198102Y-42654774D01*
X-7398061Y-42615000D01*
X-7601939Y-42615000D01*
X-7801898Y-42654774D01*
X-7990256Y-42732795D01*
X-8159774Y-42846063D01*
X-8303937Y-42990226D01*
X-8417205Y-43159744D01*
X-8495226Y-43348102D01*
X-8535000Y-43548061D01*
X-8535000Y-43751939D01*
X-8495226Y-43951898D01*
X-8417205Y-44140256D01*
X-8303937Y-44309774D01*
X-8248987Y-44364724D01*
X-8205546Y-44507932D01*
X-8180963Y-44553921D01*
X-8134974Y-44639961D01*
X-8082901Y-44703411D01*
X-8040000Y-44755686D01*
X-8011002Y-44779484D01*
X-7015098Y-45775390D01*
X-7055990Y-45836589D01*
X-7167932Y-46106842D01*
X-7225000Y-46393740D01*
X-7225000Y-46686260D01*
X-7167932Y-46973158D01*
X-7055990Y-47243411D01*
X-6893475Y-47486632D01*
X-6686632Y-47693475D01*
X-6512240Y-47810000D01*
X-6686632Y-47926525D01*
X-6893475Y-48133368D01*
X-7055990Y-48376589D01*
X-7167932Y-48646842D01*
X-7225000Y-48933740D01*
X-7225000Y-49226260D01*
X-7167932Y-49513158D01*
X-7055990Y-49783411D01*
X-6893475Y-50026632D01*
X-6686632Y-50233475D01*
X-6512240Y-50350000D01*
X-6686632Y-50466525D01*
X-6893475Y-50673368D01*
X-7055990Y-50916589D01*
X-7167932Y-51186842D01*
X-7225000Y-51473740D01*
X-7225000Y-51766260D01*
X-7167932Y-52053158D01*
X-7055990Y-52323411D01*
X-6893475Y-52566632D01*
X-6686632Y-52773475D01*
X-6512240Y-52890000D01*
X-6686632Y-53006525D01*
X-6893475Y-53213368D01*
X-7055990Y-53456589D01*
X-7167932Y-53726842D01*
X-7225000Y-54013740D01*
X-7225000Y-54306260D01*
X-7167932Y-54593158D01*
X-7055990Y-54863411D01*
X-6893475Y-55106632D01*
X-6686632Y-55313475D01*
X-6512240Y-55430000D01*
X-6686632Y-55546525D01*
X-6893475Y-55753368D01*
X-7055990Y-55996589D01*
X-7167932Y-56266842D01*
X-7225000Y-56553740D01*
X-7225000Y-56846260D01*
X-7167932Y-57133158D01*
X-7055990Y-57403411D01*
X-6893475Y-57646632D01*
X-6686632Y-57853475D01*
X-6512240Y-57970000D01*
X-6686632Y-58086525D01*
X-6893475Y-58293368D01*
X-7055990Y-58536589D01*
X-7167932Y-58806842D01*
X-7225000Y-59093740D01*
X-7225000Y-59386260D01*
X-7167932Y-59673158D01*
X-7055990Y-59943411D01*
X-6893475Y-60186632D01*
X-6686632Y-60393475D01*
X-6512240Y-60510000D01*
X-6686632Y-60626525D01*
X-6893475Y-60833368D01*
X-7055990Y-61076589D01*
X-7167932Y-61346842D01*
X-7225000Y-61633740D01*
X-7225000Y-61926260D01*
X-7167932Y-62213158D01*
X-7055990Y-62483411D01*
X-6893475Y-62726632D01*
X-6686632Y-62933475D01*
X-6512240Y-63050000D01*
X-6686632Y-63166525D01*
X-6893475Y-63373368D01*
X-7055990Y-63616589D01*
X-7167932Y-63886842D01*
X-7225000Y-64173740D01*
X-7225000Y-64466260D01*
X-7167932Y-64753158D01*
X-7055990Y-65023411D01*
X-6893475Y-65266632D01*
X-6686632Y-65473475D01*
X-6512240Y-65590000D01*
X-6686632Y-65706525D01*
X-6893475Y-65913368D01*
X-7055990Y-66156589D01*
X-7167932Y-66426842D01*
X-7225000Y-66713740D01*
X-7225000Y-67006260D01*
X-7167932Y-67293158D01*
X-7055990Y-67563411D01*
X-6893475Y-67806632D01*
X-6686632Y-68013475D01*
X-6512240Y-68130000D01*
X-6686632Y-68246525D01*
X-6893475Y-68453368D01*
X-7055990Y-68696589D01*
X-7167932Y-68966842D01*
X-7225000Y-69253740D01*
X-7225000Y-69546260D01*
X-7167932Y-69833158D01*
X-7055990Y-70103411D01*
X-6893475Y-70346632D01*
X-6686632Y-70553475D01*
X-6512240Y-70670000D01*
X-6686632Y-70786525D01*
X-6893475Y-70993368D01*
X-7055990Y-71236589D01*
X-7167932Y-71506842D01*
X-7225000Y-71793740D01*
X-7225000Y-72086260D01*
X-7167932Y-72373158D01*
X-7055990Y-72643411D01*
X-6893475Y-72886632D01*
X-6686632Y-73093475D01*
X-6512240Y-73210000D01*
X-6686632Y-73326525D01*
X-6893475Y-73533368D01*
X-7055990Y-73776589D01*
X-7167932Y-74046842D01*
X-7225000Y-74333740D01*
X-7225000Y-74626260D01*
X-7167932Y-74913158D01*
X-7055990Y-75183411D01*
X-6893475Y-75426632D01*
X-6686632Y-75633475D01*
X-6512240Y-75750000D01*
X-6686632Y-75866525D01*
X-6893475Y-76073368D01*
X-7055990Y-76316589D01*
X-7167932Y-76586842D01*
X-7225000Y-76873740D01*
X-7225000Y-77166260D01*
X-7167932Y-77453158D01*
X-7055990Y-77723411D01*
X-6893475Y-77966632D01*
X-6686632Y-78173475D01*
X-6443411Y-78335990D01*
X-6173158Y-78447932D01*
X-5886260Y-78505000D01*
X-5593740Y-78505000D01*
X-5306842Y-78447932D01*
X-5036589Y-78335990D01*
X-4793368Y-78173475D01*
X-4586525Y-77966632D01*
X-4470000Y-77792240D01*
X-4353475Y-77966632D01*
X-4146632Y-78173475D01*
X-3903411Y-78335990D01*
X-3633158Y-78447932D01*
X-3346260Y-78505000D01*
X-3053740Y-78505000D01*
X-2766842Y-78447932D01*
X-2496589Y-78335990D01*
X-2253368Y-78173475D01*
X-2046525Y-77966632D01*
X-1884010Y-77723411D01*
X-1772068Y-77453158D01*
X-1715000Y-77166260D01*
X-1715000Y-76873740D01*
X-1772068Y-76586842D01*
X-1884010Y-76316589D01*
X-2046525Y-76073368D01*
X-2253368Y-75866525D01*
X-2427760Y-75750000D01*
X-2253368Y-75633475D01*
X-2046525Y-75426632D01*
X-1884010Y-75183411D01*
X-1772068Y-74913158D01*
X-1715000Y-74626260D01*
X-1715000Y-74333740D01*
X-1772068Y-74046842D01*
X-1884010Y-73776589D01*
X-2046525Y-73533368D01*
X-2253368Y-73326525D01*
X-2427760Y-73210000D01*
X-2253368Y-73093475D01*
X-2046525Y-72886632D01*
X-1884010Y-72643411D01*
X-1772068Y-72373158D01*
X-1715000Y-72086260D01*
X-1715000Y-71793740D01*
X-1772068Y-71506842D01*
X-1884010Y-71236589D01*
X-2046525Y-70993368D01*
X-2253368Y-70786525D01*
X-2427760Y-70670000D01*
X-2253368Y-70553475D01*
X-2046525Y-70346632D01*
X-1884010Y-70103411D01*
X-1772068Y-69833158D01*
X-1715000Y-69546260D01*
X-1715000Y-69253740D01*
X-1772068Y-68966842D01*
X-1884010Y-68696589D01*
X-2046525Y-68453368D01*
X-2253368Y-68246525D01*
X-2427760Y-68130000D01*
X-2253368Y-68013475D01*
X-2046525Y-67806632D01*
X-1884010Y-67563411D01*
X-1772068Y-67293158D01*
X-1715000Y-67006260D01*
X-1715000Y-66713740D01*
X-1772068Y-66426842D01*
X-1884010Y-66156589D01*
X-2046525Y-65913368D01*
X-2253368Y-65706525D01*
X-2427760Y-65590000D01*
X-2253368Y-65473475D01*
X-2046525Y-65266632D01*
X-1884010Y-65023411D01*
X-1772068Y-64753158D01*
X-1715000Y-64466260D01*
X-1715000Y-64173740D01*
X-1772068Y-63886842D01*
X-1884010Y-63616589D01*
X-2046525Y-63373368D01*
X-2253368Y-63166525D01*
X-2427760Y-63050000D01*
X-2253368Y-62933475D01*
X-2046525Y-62726632D01*
X-1884010Y-62483411D01*
X-1772068Y-62213158D01*
X-1715000Y-61926260D01*
X-1715000Y-61633740D01*
X-1772068Y-61346842D01*
X-1884010Y-61076589D01*
X-2046525Y-60833368D01*
X-2253368Y-60626525D01*
X-2427760Y-60510000D01*
X-2253368Y-60393475D01*
X-2046525Y-60186632D01*
X-1884010Y-59943411D01*
X-1772068Y-59673158D01*
X-1715000Y-59386260D01*
X-1715000Y-59093740D01*
X-1772068Y-58806842D01*
X-1884010Y-58536589D01*
X-2046525Y-58293368D01*
X-2253368Y-58086525D01*
X-2427760Y-57970000D01*
X-2253368Y-57853475D01*
X-2046525Y-57646632D01*
X-1884010Y-57403411D01*
X-1772068Y-57133158D01*
X-1715000Y-56846260D01*
X-1715000Y-56553740D01*
X-1772068Y-56266842D01*
X-1884010Y-55996589D01*
X-2046525Y-55753368D01*
X-2253368Y-55546525D01*
X-2426729Y-55430689D01*
X-2351208Y-55188397D01*
X-3200000Y-54339605D01*
X-4048792Y-55188397D01*
X-3973271Y-55430689D01*
X-4146632Y-55546525D01*
X-4353475Y-55753368D01*
X-4470000Y-55927760D01*
X-4586525Y-55753368D01*
X-4793368Y-55546525D01*
X-4967760Y-55430000D01*
X-4793368Y-55313475D01*
X-4586525Y-55106632D01*
X-4470689Y-54933271D01*
X-4228397Y-55008792D01*
X-3379605Y-54160000D01*
X-3020395Y-54160000D01*
X-2171603Y-55008792D01*
X-1922528Y-54931157D01*
X-1796629Y-54667117D01*
X-1724661Y-54383589D01*
X-1709389Y-54091469D01*
X-1751401Y-53801981D01*
X-1849081Y-53526253D01*
X-1922528Y-53388843D01*
X-2171603Y-53311208D01*
X-3020395Y-54160000D01*
X-3379605Y-54160000D01*
X-4228397Y-53311208D01*
X-4470689Y-53386729D01*
X-4586525Y-53213368D01*
X-4793368Y-53006525D01*
X-4967760Y-52890000D01*
X-4793368Y-52773475D01*
X-4586525Y-52566632D01*
X-4470000Y-52392240D01*
X-4353475Y-52566632D01*
X-4146632Y-52773475D01*
X-3973271Y-52889311D01*
X-4048792Y-53131603D01*
X-3200000Y-53980395D01*
X-2351208Y-53131603D01*
X-2426729Y-52889311D01*
X-2253368Y-52773475D01*
X-2046525Y-52566632D01*
X-1884010Y-52323411D01*
X-1772068Y-52053158D01*
X-1715000Y-51766260D01*
X-1715000Y-51473740D01*
X-1772068Y-51186842D01*
X-1884010Y-50916589D01*
X-2046525Y-50673368D01*
X-2253368Y-50466525D01*
X-2427760Y-50350000D01*
X-2253368Y-50233475D01*
X-2046525Y-50026632D01*
X-1884010Y-49783411D01*
X-1772068Y-49513158D01*
X-1715000Y-49226260D01*
X-1715000Y-48933740D01*
X-1772068Y-48646842D01*
X-1884010Y-48376589D01*
X-2046525Y-48133368D01*
X-2253368Y-47926525D01*
X-2427760Y-47810000D01*
X-2253368Y-47693475D01*
X-2046525Y-47486632D01*
X-1884010Y-47243411D01*
X-1772068Y-46973158D01*
X-1715000Y-46686260D01*
X-1715000Y-46393740D01*
X-1772068Y-46106842D01*
X-1884010Y-45836589D01*
X-2046525Y-45593368D01*
X-2253368Y-45386525D01*
X-2427760Y-45270000D01*
X-2253368Y-45153475D01*
X-2046525Y-44946632D01*
X-1884010Y-44703411D01*
X-1772068Y-44433158D01*
X-1715000Y-44146260D01*
X-1715000Y-43853740D01*
X-1772068Y-43566842D01*
X-1884010Y-43296589D01*
X-2046525Y-43053368D01*
X-2253368Y-42846525D01*
X-2427760Y-42730000D01*
X-2253368Y-42613475D01*
X-2046525Y-42406632D01*
X-1884010Y-42163411D01*
X-1772068Y-41893158D01*
X-1715000Y-41606260D01*
X-1715000Y-41313740D01*
X-1772068Y-41026842D01*
X-1884010Y-40756589D01*
X-2046525Y-40513368D01*
X-2253368Y-40306525D01*
X-2427760Y-40190000D01*
X-2253368Y-40073475D01*
X-2046525Y-39866632D01*
X-1884010Y-39623411D01*
X-1772068Y-39353158D01*
X-1715000Y-39066260D01*
X-1715000Y-38773740D01*
X-1772068Y-38486842D01*
X-1884010Y-38216589D01*
X-2046525Y-37973368D01*
X-2253368Y-37766525D01*
X-2427760Y-37650000D01*
X-2253368Y-37533475D01*
X-2046525Y-37326632D01*
X-1884010Y-37083411D01*
X-1772068Y-36813158D01*
X-1715000Y-36526260D01*
X-1715000Y-36233740D01*
X-1772068Y-35946842D01*
X-1884010Y-35676589D01*
X-2046525Y-35433368D01*
X-2253368Y-35226525D01*
X-2427760Y-35110000D01*
X-2253368Y-34993475D01*
X-2046525Y-34786632D01*
X-1884010Y-34543411D01*
X-1772068Y-34273158D01*
X-1715000Y-33986260D01*
X-1715000Y-33693740D01*
X-1772068Y-33406842D01*
X-1884010Y-33136589D01*
X-2046525Y-32893368D01*
X-2253368Y-32686525D01*
X-2427760Y-32570000D01*
X-2253368Y-32453475D01*
X-2046525Y-32246632D01*
X-1884010Y-32003411D01*
X-1772068Y-31733158D01*
X-1715000Y-31446260D01*
X-1715000Y-31153740D01*
X-1772068Y-30866842D01*
X-1884010Y-30596589D01*
X-2046525Y-30353368D01*
X-2253368Y-30146525D01*
X-2496589Y-29984010D01*
X-2766842Y-29872068D01*
X-3053740Y-29815000D01*
X-3346260Y-29815000D01*
X-3633158Y-29872068D01*
X-3903411Y-29984010D01*
X-4146632Y-30146525D01*
X-4353475Y-30353368D01*
X-4470000Y-30527760D01*
X-4586525Y-30353368D01*
X-4755626Y-30184267D01*
X-4751939Y-30185000D01*
X-4548061Y-30185000D01*
X-4348102Y-30145226D01*
X-4159744Y-30067205D01*
X-3990226Y-29953937D01*
X-3846063Y-29809774D01*
X-3732795Y-29640256D01*
X-3654774Y-29451898D01*
X-3615000Y-29251939D01*
X-3615000Y-29048061D01*
X-3654774Y-28848102D01*
X-3732795Y-28659744D01*
X-3846063Y-28490226D01*
X-3990226Y-28346063D01*
X-4159744Y-28232795D01*
X-4348102Y-28154774D01*
X-4548061Y-28115000D01*
X-4751939Y-28115000D01*
X-4951898Y-28154774D01*
X-5140256Y-28232795D01*
X-5309774Y-28346063D01*
X-5353711Y-28390000D01*
X-5965000Y-28390000D01*
X-5965000Y-28248061D01*
X-6004774Y-28048102D01*
X-6082795Y-27859744D01*
X-6196063Y-27690226D01*
X-6340226Y-27546063D01*
X-6509744Y-27432795D01*
X-6698102Y-27354774D01*
X-6898061Y-27315000D01*
X-7101939Y-27315000D01*
X-7301898Y-27354774D01*
X-7490256Y-27432795D01*
X-7659774Y-27546063D01*
X-7703711Y-27590000D01*
X-9196289Y-27590000D01*
X-9240226Y-27546063D01*
X-9409744Y-27432795D01*
X-9598102Y-27354774D01*
X-9798061Y-27315000D01*
X-10001939Y-27315000D01*
X-10201898Y-27354774D01*
X-10390256Y-27432795D01*
X-10537415Y-27531123D01*
X-10609744Y-27482795D01*
X-10798102Y-27404774D01*
X-10998061Y-27365000D01*
X-11201939Y-27365000D01*
X-11401898Y-27404774D01*
X-11590256Y-27482795D01*
X-11759774Y-27596063D01*
X-11903937Y-27740226D01*
X-12017205Y-27909744D01*
X-12095226Y-28098102D01*
X-12135000Y-28298061D01*
X-68580000Y-28298061D01*
X-68580000Y-25114080D01*
X-65884475Y-25114080D01*
X-65800792Y-25368261D01*
X-65528225Y-25499158D01*
X-65235358Y-25574365D01*
X-64933447Y-25590991D01*
X-64634093Y-25548397D01*
X-64348801Y-25448222D01*
X-64199208Y-25368261D01*
X-64115525Y-25114080D01*
X-65000000Y-24229605D01*
X-65884475Y-25114080D01*
X-68580000Y-25114080D01*
X-68580000Y-24116553D01*
X-66540991Y-24116553D01*
X-66498397Y-24415907D01*
X-66398222Y-24701199D01*
X-66318261Y-24850792D01*
X-66064080Y-24934475D01*
X-65179605Y-24050000D01*
X-64820395Y-24050000D01*
X-63935920Y-24934475D01*
X-63681739Y-24850792D01*
X-63550842Y-24578225D01*
X-63475635Y-24285358D01*
X-63459009Y-23983447D01*
X-63485386Y-23798061D01*
X-46135000Y-23798061D01*
X-46135000Y-24001939D01*
X-46095226Y-24201898D01*
X-46017205Y-24390256D01*
X-45903937Y-24559774D01*
X-45759774Y-24703937D01*
X-45590256Y-24817205D01*
X-45401898Y-24895226D01*
X-45201939Y-24935000D01*
X-44998061Y-24935000D01*
X-44798102Y-24895226D01*
X-44609744Y-24817205D01*
X-44440226Y-24703937D01*
X-44396289Y-24660000D01*
X-31803701Y-24660000D01*
X-31759764Y-24703937D01*
X-31590246Y-24817205D01*
X-31401888Y-24895226D01*
X-31201929Y-24935000D01*
X-30998051Y-24935000D01*
X-30798092Y-24895226D01*
X-30609734Y-24817205D01*
X-30440216Y-24703937D01*
X-30296053Y-24559774D01*
X-30182785Y-24390256D01*
X-30104764Y-24201898D01*
X-30064990Y-24001939D01*
X-30064990Y-23798061D01*
X-30104764Y-23598102D01*
X-30182785Y-23409744D01*
X-30296053Y-23240226D01*
X-30440216Y-23096063D01*
X-30609734Y-22982795D01*
X-30798092Y-22904774D01*
X-30998051Y-22865000D01*
X-31201929Y-22865000D01*
X-31401888Y-22904774D01*
X-31590246Y-22982795D01*
X-31759764Y-23096063D01*
X-31803701Y-23140000D01*
X-44396289Y-23140000D01*
X-44440226Y-23096063D01*
X-44609744Y-22982795D01*
X-44798102Y-22904774D01*
X-44998061Y-22865000D01*
X-45201939Y-22865000D01*
X-45401898Y-22904774D01*
X-45590256Y-22982795D01*
X-45759774Y-23096063D01*
X-45903937Y-23240226D01*
X-46017205Y-23409744D01*
X-46095226Y-23598102D01*
X-46135000Y-23798061D01*
X-63485386Y-23798061D01*
X-63501603Y-23684093D01*
X-63601778Y-23398801D01*
X-63681739Y-23249208D01*
X-63935920Y-23165525D01*
X-64820395Y-24050000D01*
X-65179605Y-24050000D01*
X-66064080Y-23165525D01*
X-66318261Y-23249208D01*
X-66449158Y-23521775D01*
X-66524365Y-23814642D01*
X-66540991Y-24116553D01*
X-68580000Y-24116553D01*
X-68580000Y-22985920D01*
X-65884475Y-22985920D01*
X-65000000Y-23870395D01*
X-64115525Y-22985920D01*
X-64199208Y-22731739D01*
X-64471775Y-22600842D01*
X-64764642Y-22525635D01*
X-65066553Y-22509009D01*
X-65365907Y-22551603D01*
X-65651199Y-22651778D01*
X-65800792Y-22731739D01*
X-65884475Y-22985920D01*
X-68580000Y-22985920D01*
X-68580000Y-18898816D01*
X-66535000Y-18898816D01*
X-66535000Y-19201184D01*
X-66476011Y-19497743D01*
X-66360299Y-19777095D01*
X-66192312Y-20028505D01*
X-65978505Y-20242312D01*
X-65727095Y-20410299D01*
X-65447743Y-20526011D01*
X-65151184Y-20585000D01*
X-64848816Y-20585000D01*
X-64552257Y-20526011D01*
X-64272905Y-20410299D01*
X-64021495Y-20242312D01*
X-63807688Y-20028505D01*
X-63639701Y-19777095D01*
X-63523989Y-19497743D01*
X-63465000Y-19201184D01*
X-63465000Y-18898816D01*
X-63523989Y-18602257D01*
X-63639701Y-18322905D01*
X-63807688Y-18071495D01*
X-64021495Y-17857688D01*
X-64272905Y-17689701D01*
X-64552257Y-17573989D01*
X-64848816Y-17515000D01*
X-65151184Y-17515000D01*
X-65447743Y-17573989D01*
X-65727095Y-17689701D01*
X-65978505Y-17857688D01*
X-66192312Y-18071495D01*
X-66360299Y-18322905D01*
X-66476011Y-18602257D01*
X-66535000Y-18898816D01*
X-68580000Y-18898816D01*
X-68580000Y-12000000D01*
X-59138072Y-12000000D01*
X-59125812Y-12124482D01*
X-59089502Y-12244180D01*
X-59030537Y-12354494D01*
X-58951185Y-12451185D01*
X-58854494Y-12530537D01*
X-58744180Y-12589502D01*
X-58624482Y-12625812D01*
X-58500000Y-12638072D01*
X-57935750Y-12635000D01*
X-57777000Y-12476250D01*
X-57777000Y-11277000D01*
X-57523000Y-11277000D01*
X-57523000Y-12476250D01*
X-57364250Y-12635000D01*
X-56800000Y-12638072D01*
X-56675518Y-12625812D01*
X-56555820Y-12589502D01*
X-56445506Y-12530537D01*
X-56348815Y-12451185D01*
X-56269463Y-12354494D01*
X-56210498Y-12244180D01*
X-56174188Y-12124482D01*
X-56161928Y-12000000D01*
X-56165000Y-11435750D01*
X-56323750Y-11277000D01*
X-57523000Y-11277000D01*
X-57777000Y-11277000D01*
X-58976250Y-11277000D01*
X-59135000Y-11435750D01*
X-59138072Y-12000000D01*
X-68580000Y-12000000D01*
X-68580000Y-10300000D01*
X-59138072Y-10300000D01*
X-59135000Y-10864250D01*
X-58976250Y-11023000D01*
X-57777000Y-11023000D01*
X-57777000Y-11003000D01*
X-57523000Y-11003000D01*
X-57523000Y-11023000D01*
X-56323750Y-11023000D01*
X-56165000Y-10864250D01*
X-56161928Y-10300000D01*
X-56174188Y-10175518D01*
X-56210498Y-10055820D01*
X-56269463Y-9945506D01*
X-56348815Y-9848815D01*
X-56445506Y-9769463D01*
X-56555820Y-9710498D01*
X-56628380Y-9688487D01*
X-56496525Y-9556632D01*
X-56334010Y-9313411D01*
X-56222068Y-9043158D01*
X-56165000Y-8756260D01*
X-56165000Y-8463740D01*
X-56222068Y-8176842D01*
X-56334010Y-7906589D01*
X-56496525Y-7663368D01*
X-56703368Y-7456525D01*
X-56877760Y-7340000D01*
X-56703368Y-7223475D01*
X-56496525Y-7016632D01*
X-56334010Y-6773411D01*
X-56222068Y-6503158D01*
X-56165000Y-6216260D01*
X-56165000Y-5923740D01*
X-56222068Y-5636842D01*
X-56334010Y-5366589D01*
X-56496525Y-5123368D01*
X-56703368Y-4916525D01*
X-56877760Y-4800000D01*
X-56703368Y-4683475D01*
X-56496525Y-4476632D01*
X-56334010Y-4233411D01*
X-56222068Y-3963158D01*
X-56165000Y-3676260D01*
X-56165000Y-3383740D01*
X-56222068Y-3096842D01*
X-56334010Y-2826589D01*
X-56496525Y-2583368D01*
X-56703368Y-2376525D01*
X-56946589Y-2214010D01*
X-57216842Y-2102068D01*
X-57503740Y-2045000D01*
X-57796260Y-2045000D01*
X-58083158Y-2102068D01*
X-58353411Y-2214010D01*
X-58596632Y-2376525D01*
X-58803475Y-2583368D01*
X-58965990Y-2826589D01*
X-59077932Y-3096842D01*
X-59135000Y-3383740D01*
X-59135000Y-3676260D01*
X-59077932Y-3963158D01*
X-58965990Y-4233411D01*
X-58803475Y-4476632D01*
X-58596632Y-4683475D01*
X-58422240Y-4800000D01*
X-58596632Y-4916525D01*
X-58803475Y-5123368D01*
X-58965990Y-5366589D01*
X-59077932Y-5636842D01*
X-59135000Y-5923740D01*
X-59135000Y-6216260D01*
X-59077932Y-6503158D01*
X-58965990Y-6773411D01*
X-58803475Y-7016632D01*
X-58596632Y-7223475D01*
X-58422240Y-7340000D01*
X-58596632Y-7456525D01*
X-58803475Y-7663368D01*
X-58965990Y-7906589D01*
X-59077932Y-8176842D01*
X-59135000Y-8463740D01*
X-59135000Y-8756260D01*
X-59077932Y-9043158D01*
X-58965990Y-9313411D01*
X-58803475Y-9556632D01*
X-58671620Y-9688487D01*
X-58744180Y-9710498D01*
X-58854494Y-9769463D01*
X-58951185Y-9848815D01*
X-59030537Y-9945506D01*
X-59089502Y-10055820D01*
X-59125812Y-10175518D01*
X-59138072Y-10300000D01*
X-68580000Y-10300000D01*
X-68580000Y-6928397D01*
X-67548792Y-6928397D01*
X-67471157Y-7177472D01*
X-67207117Y-7303371D01*
X-66923589Y-7375339D01*
X-66631469Y-7390611D01*
X-66341981Y-7348599D01*
X-66066253Y-7250919D01*
X-65928843Y-7177472D01*
X-65851208Y-6928397D01*
X-66700000Y-6079605D01*
X-67548792Y-6928397D01*
X-68580000Y-6928397D01*
X-68580000Y-5968531D01*
X-68190611Y-5968531D01*
X-68148599Y-6258019D01*
X-68050919Y-6533747D01*
X-67977472Y-6671157D01*
X-67728397Y-6748792D01*
X-66879605Y-5900000D01*
X-66520395Y-5900000D01*
X-65671603Y-6748792D01*
X-65422528Y-6671157D01*
X-65296629Y-6407117D01*
X-65224661Y-6123589D01*
X-65209389Y-5831469D01*
X-65251401Y-5541981D01*
X-65349081Y-5266253D01*
X-65422528Y-5128843D01*
X-65671603Y-5051208D01*
X-66520395Y-5900000D01*
X-66879605Y-5900000D01*
X-67728397Y-5051208D01*
X-67977472Y-5128843D01*
X-68103371Y-5392883D01*
X-68175339Y-5676411D01*
X-68190611Y-5968531D01*
X-68580000Y-5968531D01*
X-68580000Y-4388397D01*
X-67548792Y-4388397D01*
X-67473486Y-4630000D01*
X-67548792Y-4871603D01*
X-66700000Y-5720395D01*
X-65851208Y-4871603D01*
X-65926514Y-4630000D01*
X-65851208Y-4388397D01*
X-66700000Y-3539605D01*
X-67548792Y-4388397D01*
X-68580000Y-4388397D01*
X-68580000Y-3428531D01*
X-68190611Y-3428531D01*
X-68148599Y-3718019D01*
X-68050919Y-3993747D01*
X-67977472Y-4131157D01*
X-67728397Y-4208792D01*
X-66879605Y-3360000D01*
X-66520395Y-3360000D01*
X-65671603Y-4208792D01*
X-65422528Y-4131157D01*
X-65296629Y-3867117D01*
X-65224661Y-3583589D01*
X-65209389Y-3291469D01*
X-65251401Y-3001981D01*
X-65349081Y-2726253D01*
X-65422528Y-2588843D01*
X-65671603Y-2511208D01*
X-66520395Y-3360000D01*
X-66879605Y-3360000D01*
X-67728397Y-2511208D01*
X-67977472Y-2588843D01*
X-68103371Y-2852883D01*
X-68175339Y-3136411D01*
X-68190611Y-3428531D01*
X-68580000Y-3428531D01*
X-68580000Y-3392279D01*
X-68541091Y-2995455D01*
X-68435220Y-2644792D01*
X-68268695Y-2331603D01*
X-67548792Y-2331603D01*
X-66700000Y-3180395D01*
X-65851208Y-2331603D01*
X-65928843Y-2082528D01*
X-66192883Y-1956629D01*
X-66476411Y-1884661D01*
X-66768531Y-1869389D01*
X-67058019Y-1911401D01*
X-67333747Y-2009081D01*
X-67471157Y-2082528D01*
X-67548792Y-2331603D01*
X-68268695Y-2331603D01*
X-68263256Y-2321375D01*
X-68031746Y-2037516D01*
X-67749514Y-1804035D01*
X-67427305Y-1629817D01*
X-67077386Y-1521498D01*
X-66682557Y-1480000D01*
X-36580712Y-1480000D01*
X-36722578Y-1555829D01*
%TA.AperFunction,Conductor*%
D25*
G36*
X-36722578Y-1555829D02*
G01*
X-36899211Y-1700788D01*
X-37044170Y-1877421D01*
X-37151885Y-2078940D01*
X-37218215Y-2297600D01*
X-37235000Y-2468021D01*
X-37235000Y-3431978D01*
X-37218215Y-3602399D01*
X-37151885Y-3821059D01*
X-37044171Y-4022578D01*
X-36899212Y-4199212D01*
X-36722579Y-4344171D01*
X-36521060Y-4451885D01*
X-36302400Y-4518215D01*
X-36075000Y-4540612D01*
X-35847601Y-4518215D01*
X-35628941Y-4451885D01*
X-35427422Y-4344171D01*
X-35250788Y-4199212D01*
X-35105829Y-4022579D01*
X-34998115Y-3821060D01*
X-34931785Y-3602400D01*
X-34915000Y-3431979D01*
X-34915000Y-2468022D01*
X-34931785Y-2297600D01*
X-34998115Y-2078940D01*
X-35105829Y-1877421D01*
X-35250788Y-1700788D01*
X-35427421Y-1555829D01*
X-35569287Y-1480000D01*
X-29430713Y-1480000D01*
X-29572579Y-1555829D01*
X-29749212Y-1700788D01*
X-29894171Y-1877422D01*
X-30001885Y-2078941D01*
X-30068215Y-2297601D01*
X-30085000Y-2468022D01*
X-30085000Y-3431979D01*
X-30068215Y-3602400D01*
X-30001885Y-3821060D01*
X-29894170Y-4022579D01*
X-29749211Y-4199212D01*
X-29572578Y-4344171D01*
X-29371059Y-4451885D01*
X-29152399Y-4518215D01*
X-28925000Y-4540612D01*
X-28697600Y-4518215D01*
X-28478940Y-4451885D01*
X-28277421Y-4344171D01*
X-28100788Y-4199212D01*
X-27955829Y-4022579D01*
X-27848115Y-3821060D01*
X-27781785Y-3602400D01*
X-27765000Y-3431978D01*
X-27765000Y-3335567D01*
X-16321672Y-3335567D01*
X-16321672Y-5062767D01*
X-16309412Y-5187249D01*
X-16273102Y-5306947D01*
X-16214137Y-5417261D01*
X-16134785Y-5513952D01*
X-16038094Y-5593304D01*
X-15927780Y-5652269D01*
X-15869977Y-5669803D01*
X-15984039Y-5783865D01*
X-16148042Y-6029314D01*
X-16261010Y-6302042D01*
X-16318600Y-6591568D01*
X-16318600Y-6886766D01*
X-16261010Y-7176292D01*
X-16148042Y-7449020D01*
X-15984039Y-7694469D01*
X-15775302Y-7903206D01*
X-15616719Y-8009167D01*
X-15775302Y-8115128D01*
X-15984039Y-8323865D01*
X-16148042Y-8569314D01*
X-16261010Y-8842042D01*
X-16318600Y-9131568D01*
X-16318600Y-9426766D01*
X-16261010Y-9716292D01*
X-16148042Y-9989020D01*
X-15984039Y-10234469D01*
X-15775302Y-10443206D01*
X-15616719Y-10549167D01*
X-15775302Y-10655128D01*
X-15984039Y-10863865D01*
X-16148042Y-11109314D01*
X-16261010Y-11382042D01*
X-16318600Y-11671568D01*
X-16318600Y-11966766D01*
X-16261010Y-12256292D01*
X-16148042Y-12529020D01*
X-15984039Y-12774469D01*
X-15775302Y-12983206D01*
X-15529853Y-13147209D01*
X-15257125Y-13260177D01*
X-14967599Y-13317767D01*
X-14672401Y-13317767D01*
X-14382875Y-13260177D01*
X-14110147Y-13147209D01*
X-13864698Y-12983206D01*
X-13655961Y-12774469D01*
X-13550000Y-12615886D01*
X-13444039Y-12774469D01*
X-13235302Y-12983206D01*
X-12989853Y-13147209D01*
X-12717125Y-13260177D01*
X-12427599Y-13317767D01*
X-12132401Y-13317767D01*
X-11842875Y-13260177D01*
X-11570147Y-13147209D01*
X-11324698Y-12983206D01*
X-11115961Y-12774469D01*
X-10951958Y-12529020D01*
X-10838990Y-12256292D01*
X-10781400Y-11966766D01*
X-10781400Y-11671568D01*
X-10838990Y-11382042D01*
X-10951958Y-11109314D01*
X-11115961Y-10863865D01*
X-11324698Y-10655128D01*
X-11483281Y-10549167D01*
X-11324698Y-10443206D01*
X-11115961Y-10234469D01*
X-10951958Y-9989020D01*
X-10838990Y-9716292D01*
X-10781400Y-9426766D01*
X-10781400Y-9131568D01*
X-10838990Y-8842042D01*
X-10951958Y-8569314D01*
X-11115961Y-8323865D01*
X-11324698Y-8115128D01*
X-11483281Y-8009167D01*
X-11324698Y-7903206D01*
X-11115961Y-7694469D01*
X-10951958Y-7449020D01*
X-10838990Y-7176292D01*
X-10789681Y-6928397D01*
X-4048792Y-6928397D01*
X-3971157Y-7177472D01*
X-3707117Y-7303371D01*
X-3423589Y-7375339D01*
X-3131469Y-7390611D01*
X-2841981Y-7348599D01*
X-2566253Y-7250919D01*
X-2428843Y-7177472D01*
X-2351208Y-6928397D01*
X-3200000Y-6079605D01*
X-4048792Y-6928397D01*
X-10789681Y-6928397D01*
X-10781400Y-6886766D01*
X-10781400Y-6591568D01*
X-10838990Y-6302042D01*
X-10951958Y-6029314D01*
X-10992571Y-5968531D01*
X-4690611Y-5968531D01*
X-4648599Y-6258019D01*
X-4550919Y-6533747D01*
X-4477472Y-6671157D01*
X-4228397Y-6748792D01*
X-3379605Y-5900000D01*
X-3020395Y-5900000D01*
X-2171603Y-6748792D01*
X-1922528Y-6671157D01*
X-1796629Y-6407117D01*
X-1724661Y-6123589D01*
X-1709389Y-5831469D01*
X-1751401Y-5541981D01*
X-1849081Y-5266253D01*
X-1922528Y-5128843D01*
X-2171603Y-5051208D01*
X-3020395Y-5900000D01*
X-3379605Y-5900000D01*
X-4228397Y-5051208D01*
X-4477472Y-5128843D01*
X-4603371Y-5392883D01*
X-4675339Y-5676411D01*
X-4690611Y-5968531D01*
X-10992571Y-5968531D01*
X-11115961Y-5783865D01*
X-11324698Y-5575128D01*
X-11490103Y-5464608D01*
X-11391512Y-5405984D01*
X-11173146Y-5209460D01*
X-10997316Y-4974111D01*
X-10870778Y-4708981D01*
X-10825042Y-4558193D01*
X-10913692Y-4388397D01*
X-4048792Y-4388397D01*
X-3973486Y-4630000D01*
X-4048792Y-4871603D01*
X-3200000Y-5720395D01*
X-2351208Y-4871603D01*
X-2426514Y-4630000D01*
X-2351208Y-4388397D01*
X-3200000Y-3539605D01*
X-4048792Y-4388397D01*
X-10913692Y-4388397D01*
X-10946183Y-4326167D01*
X-12153000Y-4326167D01*
X-12153000Y-4346167D01*
X-12407000Y-4346167D01*
X-12407000Y-4326167D01*
X-12427000Y-4326167D01*
X-12427000Y-4072167D01*
X-12407000Y-4072167D01*
X-12407000Y-2864703D01*
X-12153000Y-2864703D01*
X-12153000Y-4072167D01*
X-10946183Y-4072167D01*
X-10825042Y-3840141D01*
X-10870778Y-3689353D01*
X-10995259Y-3428531D01*
X-4690611Y-3428531D01*
X-4648599Y-3718019D01*
X-4550919Y-3993747D01*
X-4477472Y-4131157D01*
X-4228397Y-4208792D01*
X-3379605Y-3360000D01*
X-3020395Y-3360000D01*
X-2171603Y-4208792D01*
X-1922528Y-4131157D01*
X-1796629Y-3867117D01*
X-1724661Y-3583589D01*
X-1709389Y-3291469D01*
X-1751401Y-3001981D01*
X-1849081Y-2726253D01*
X-1922528Y-2588843D01*
X-2171603Y-2511208D01*
X-3020395Y-3360000D01*
X-3379605Y-3360000D01*
X-4228397Y-2511208D01*
X-4477472Y-2588843D01*
X-4603371Y-2852883D01*
X-4675339Y-3136411D01*
X-4690611Y-3428531D01*
X-10995259Y-3428531D01*
X-10997316Y-3424223D01*
X-11173146Y-3188874D01*
X-11391512Y-2992350D01*
X-11644022Y-2842203D01*
X-11920973Y-2744204D01*
X-12153000Y-2864703D01*
X-12407000Y-2864703D01*
X-12639027Y-2744204D01*
X-12915978Y-2842203D01*
X-13168488Y-2992350D01*
X-13347947Y-3153859D01*
X-13366898Y-3091387D01*
X-13425863Y-2981073D01*
X-13505215Y-2884382D01*
X-13601906Y-2805030D01*
X-13712220Y-2746065D01*
X-13831918Y-2709755D01*
X-13956400Y-2697495D01*
X-15683600Y-2697495D01*
X-15808082Y-2709755D01*
X-15927780Y-2746065D01*
X-16038094Y-2805030D01*
X-16134785Y-2884382D01*
X-16214137Y-2981073D01*
X-16273102Y-3091387D01*
X-16309412Y-3211085D01*
X-16321672Y-3335567D01*
X-27765000Y-3335567D01*
X-27765000Y-2468021D01*
X-27778435Y-2331603D01*
X-4048792Y-2331603D01*
X-3200000Y-3180395D01*
X-2351208Y-2331603D01*
X-2428843Y-2082528D01*
X-2692883Y-1956629D01*
X-2976411Y-1884661D01*
X-3268531Y-1869389D01*
X-3558019Y-1911401D01*
X-3833747Y-2009081D01*
X-3971157Y-2082528D01*
X-4048792Y-2331603D01*
X-27778435Y-2331603D01*
X-27781785Y-2297600D01*
X-27848115Y-2078940D01*
X-27955829Y-1877421D01*
X-28100788Y-1700788D01*
X-28277422Y-1555829D01*
X-28419288Y-1480000D01*
X-3232279Y-1480000D01*
X-2835455Y-1518909D01*
X-2484792Y-1624780D01*
X-2161375Y-1796744D01*
X-1877516Y-2028254D01*
X-1644035Y-2310486D01*
X-1469817Y-2632695D01*
X-1361498Y-2982614D01*
X-1320000Y-3377443D01*
X-1319999Y-76987711D01*
X-1358909Y-77384545D01*
X-1464780Y-77735206D01*
X-1636743Y-78058623D01*
X-1868252Y-78342482D01*
X-2150486Y-78575965D01*
X-2472696Y-78750184D01*
X-2822615Y-78858502D01*
X-3217443Y-78900000D01*
X-66667721Y-78900000D01*
X-67064545Y-78861091D01*
X-67415206Y-78755220D01*
X-67738623Y-78583257D01*
X-68022482Y-78351748D01*
X-68255965Y-78069514D01*
X-68430184Y-77747304D01*
X-68538502Y-77397385D01*
X-68580000Y-77002557D01*
X-68580000Y-56553740D01*
X-68185000Y-56553740D01*
X-68185000Y-56846260D01*
X-68127932Y-57133158D01*
X-68015990Y-57403411D01*
X-67853475Y-57646632D01*
X-67646632Y-57853475D01*
X-67472240Y-57970000D01*
X-67646632Y-58086525D01*
X-67853475Y-58293368D01*
X-68015990Y-58536589D01*
X-68127932Y-58806842D01*
X-68185000Y-59093740D01*
X-68185000Y-59386260D01*
X-68127932Y-59673158D01*
X-68015990Y-59943411D01*
X-67853475Y-60186632D01*
X-67646632Y-60393475D01*
X-67472240Y-60510000D01*
X-67646632Y-60626525D01*
X-67853475Y-60833368D01*
X-68015990Y-61076589D01*
X-68127932Y-61346842D01*
X-68185000Y-61633740D01*
X-68185000Y-61926260D01*
X-68127932Y-62213158D01*
X-68015990Y-62483411D01*
X-67853475Y-62726632D01*
X-67646632Y-62933475D01*
X-67472240Y-63050000D01*
X-67646632Y-63166525D01*
X-67853475Y-63373368D01*
X-68015990Y-63616589D01*
X-68127932Y-63886842D01*
X-68185000Y-64173740D01*
X-68185000Y-64466260D01*
X-68127932Y-64753158D01*
X-68015990Y-65023411D01*
X-67853475Y-65266632D01*
X-67646632Y-65473475D01*
X-67472240Y-65590000D01*
X-67646632Y-65706525D01*
X-67853475Y-65913368D01*
X-68015990Y-66156589D01*
X-68127932Y-66426842D01*
X-68185000Y-66713740D01*
X-68185000Y-67006260D01*
X-68127932Y-67293158D01*
X-68015990Y-67563411D01*
X-67853475Y-67806632D01*
X-67646632Y-68013475D01*
X-67472240Y-68130000D01*
X-67646632Y-68246525D01*
X-67853475Y-68453368D01*
X-68015990Y-68696589D01*
X-68127932Y-68966842D01*
X-68185000Y-69253740D01*
X-68185000Y-69546260D01*
X-68127932Y-69833158D01*
X-68015990Y-70103411D01*
X-67853475Y-70346632D01*
X-67646632Y-70553475D01*
X-67472240Y-70670000D01*
X-67646632Y-70786525D01*
X-67853475Y-70993368D01*
X-68015990Y-71236589D01*
X-68127932Y-71506842D01*
X-68185000Y-71793740D01*
X-68185000Y-72086260D01*
X-68127932Y-72373158D01*
X-68015990Y-72643411D01*
X-67853475Y-72886632D01*
X-67646632Y-73093475D01*
X-67472240Y-73210000D01*
X-67646632Y-73326525D01*
X-67853475Y-73533368D01*
X-68015990Y-73776589D01*
X-68127932Y-74046842D01*
X-68185000Y-74333740D01*
X-68185000Y-74626260D01*
X-68127932Y-74913158D01*
X-68015990Y-75183411D01*
X-67853475Y-75426632D01*
X-67646632Y-75633475D01*
X-67472240Y-75750000D01*
X-67646632Y-75866525D01*
X-67853475Y-76073368D01*
X-68015990Y-76316589D01*
X-68127932Y-76586842D01*
X-68185000Y-76873740D01*
X-68185000Y-77166260D01*
X-68127932Y-77453158D01*
X-68015990Y-77723411D01*
X-67853475Y-77966632D01*
X-67646632Y-78173475D01*
X-67403411Y-78335990D01*
X-67133158Y-78447932D01*
X-66846260Y-78505000D01*
X-66553740Y-78505000D01*
X-66266842Y-78447932D01*
X-65996589Y-78335990D01*
X-65753368Y-78173475D01*
X-65546525Y-77966632D01*
X-65430000Y-77792240D01*
X-65313475Y-77966632D01*
X-65106632Y-78173475D01*
X-64863411Y-78335990D01*
X-64593158Y-78447932D01*
X-64306260Y-78505000D01*
X-64013740Y-78505000D01*
X-63726842Y-78447932D01*
X-63456589Y-78335990D01*
X-63213368Y-78173475D01*
X-63006525Y-77966632D01*
X-62844010Y-77723411D01*
X-62732068Y-77453158D01*
X-62675000Y-77166260D01*
X-62675000Y-76873740D01*
X-62732068Y-76586842D01*
X-62844010Y-76316589D01*
X-63006525Y-76073368D01*
X-63213368Y-75866525D01*
X-63387760Y-75750000D01*
X-63213368Y-75633475D01*
X-63006525Y-75426632D01*
X-62844010Y-75183411D01*
X-62732068Y-74913158D01*
X-62675000Y-74626260D01*
X-62675000Y-74333740D01*
X-62732068Y-74046842D01*
X-62844010Y-73776589D01*
X-62881822Y-73720000D01*
X-60478178Y-73720000D01*
X-60353475Y-73906632D01*
X-60221620Y-74038487D01*
X-60294180Y-74060498D01*
X-60404494Y-74119463D01*
X-60501185Y-74198815D01*
X-60580537Y-74295506D01*
X-60639502Y-74405820D01*
X-60675812Y-74525518D01*
X-60688072Y-74650000D01*
X-60688072Y-76350000D01*
X-60675812Y-76474482D01*
X-60639502Y-76594180D01*
X-60580537Y-76704494D01*
X-60501185Y-76801185D01*
X-60404494Y-76880537D01*
X-60294180Y-76939502D01*
X-60174482Y-76975812D01*
X-60050000Y-76988072D01*
X-58350000Y-76988072D01*
X-58225518Y-76975812D01*
X-58105820Y-76939502D01*
X-57995506Y-76880537D01*
X-57898815Y-76801185D01*
X-57819463Y-76704494D01*
X-57760498Y-76594180D01*
X-57724188Y-76474482D01*
X-57711928Y-76350000D01*
X-57711928Y-74650000D01*
X-57724188Y-74525518D01*
X-57760498Y-74405820D01*
X-57819463Y-74295506D01*
X-57898815Y-74198815D01*
X-57995506Y-74119463D01*
X-58105820Y-74060498D01*
X-58178380Y-74038487D01*
X-58046525Y-73906632D01*
X-57884010Y-73663411D01*
X-57772068Y-73393158D01*
X-57715000Y-73106260D01*
X-57715000Y-72813740D01*
X-57772068Y-72526842D01*
X-57884010Y-72256589D01*
X-58046525Y-72013368D01*
X-58253368Y-71806525D01*
X-58427760Y-71690000D01*
X-58253368Y-71573475D01*
X-58046525Y-71366632D01*
X-57884010Y-71123411D01*
X-57772068Y-70853158D01*
X-57715000Y-70566260D01*
X-57715000Y-70273740D01*
X-57727584Y-70210475D01*
X-39845000Y-70210475D01*
X-39845000Y-70729525D01*
X-39743739Y-71238601D01*
X-39545107Y-71718141D01*
X-39256738Y-72149715D01*
X-38889715Y-72516738D01*
X-38458141Y-72805107D01*
X-37978601Y-73003739D01*
X-37469525Y-73105000D01*
X-36950475Y-73105000D01*
X-36441399Y-73003739D01*
X-35961859Y-72805107D01*
X-35530285Y-72516738D01*
X-35163262Y-72149715D01*
X-34895289Y-71748665D01*
X-30300000Y-71748665D01*
X-30300000Y-72031335D01*
X-30244853Y-72308574D01*
X-30136680Y-72569727D01*
X-29979637Y-72804759D01*
X-29779759Y-73004637D01*
X-29544727Y-73161680D01*
X-29283574Y-73269853D01*
X-29006335Y-73325000D01*
X-28723665Y-73325000D01*
X-28446426Y-73269853D01*
X-28185273Y-73161680D01*
X-27950241Y-73004637D01*
X-27750363Y-72804759D01*
X-27593320Y-72569727D01*
X-27485147Y-72308574D01*
X-27480000Y-72282699D01*
X-27474853Y-72308574D01*
X-27366680Y-72569727D01*
X-27209637Y-72804759D01*
X-27009759Y-73004637D01*
X-26774727Y-73161680D01*
X-26513574Y-73269853D01*
X-26236335Y-73325000D01*
X-25953665Y-73325000D01*
X-25676426Y-73269853D01*
X-25415273Y-73161680D01*
X-25180241Y-73004637D01*
X-24980363Y-72804759D01*
X-24823320Y-72569727D01*
X-24715147Y-72308574D01*
X-24710000Y-72282699D01*
X-24704853Y-72308574D01*
X-24596680Y-72569727D01*
X-24439637Y-72804759D01*
X-24239759Y-73004637D01*
X-24004727Y-73161680D01*
X-23743574Y-73269853D01*
X-23466335Y-73325000D01*
X-23183665Y-73325000D01*
X-22906426Y-73269853D01*
X-22645273Y-73161680D01*
X-22410241Y-73004637D01*
X-22210363Y-72804759D01*
X-22053320Y-72569727D01*
X-21945147Y-72308574D01*
X-21940000Y-72282699D01*
X-21934853Y-72308574D01*
X-21826680Y-72569727D01*
X-21669637Y-72804759D01*
X-21469759Y-73004637D01*
X-21234727Y-73161680D01*
X-20973574Y-73269853D01*
X-20696335Y-73325000D01*
X-20413665Y-73325000D01*
X-20136426Y-73269853D01*
X-19875273Y-73161680D01*
X-19640241Y-73004637D01*
X-19440363Y-72804759D01*
X-19283320Y-72569727D01*
X-19175147Y-72308574D01*
X-19120000Y-72031335D01*
X-19120000Y-71748665D01*
X-19175147Y-71471426D01*
X-19283320Y-71210273D01*
X-19440363Y-70975241D01*
X-19640241Y-70775363D01*
X-19875273Y-70618320D01*
X-20136426Y-70510147D01*
X-20413665Y-70455000D01*
X-20696335Y-70455000D01*
X-20973574Y-70510147D01*
X-21234727Y-70618320D01*
X-21469759Y-70775363D01*
X-21669637Y-70975241D01*
X-21826680Y-71210273D01*
X-21934853Y-71471426D01*
X-21940000Y-71497301D01*
X-21945147Y-71471426D01*
X-22053320Y-71210273D01*
X-22210363Y-70975241D01*
X-22410241Y-70775363D01*
X-22645273Y-70618320D01*
X-22906426Y-70510147D01*
X-23183665Y-70455000D01*
X-23466335Y-70455000D01*
X-23743574Y-70510147D01*
X-24004727Y-70618320D01*
X-24239759Y-70775363D01*
X-24439637Y-70975241D01*
X-24596680Y-71210273D01*
X-24704853Y-71471426D01*
X-24710000Y-71497301D01*
X-24715147Y-71471426D01*
X-24823320Y-71210273D01*
X-24980363Y-70975241D01*
X-25180241Y-70775363D01*
X-25415273Y-70618320D01*
X-25676426Y-70510147D01*
X-25953665Y-70455000D01*
X-26236335Y-70455000D01*
X-26513574Y-70510147D01*
X-26774727Y-70618320D01*
X-27009759Y-70775363D01*
X-27209637Y-70975241D01*
X-27366680Y-71210273D01*
X-27474853Y-71471426D01*
X-27480000Y-71497301D01*
X-27485147Y-71471426D01*
X-27593320Y-71210273D01*
X-27750363Y-70975241D01*
X-27950241Y-70775363D01*
X-28185273Y-70618320D01*
X-28446426Y-70510147D01*
X-28723665Y-70455000D01*
X-29006335Y-70455000D01*
X-29283574Y-70510147D01*
X-29544727Y-70618320D01*
X-29779759Y-70775363D01*
X-29979637Y-70975241D01*
X-30136680Y-71210273D01*
X-30244853Y-71471426D01*
X-30300000Y-71748665D01*
X-34895289Y-71748665D01*
X-34874893Y-71718141D01*
X-34676261Y-71238601D01*
X-34575000Y-70729525D01*
X-34575000Y-70210475D01*
X-34676261Y-69701399D01*
X-34874893Y-69221859D01*
X-35163262Y-68790285D01*
X-35530285Y-68423262D01*
X-35789589Y-68250000D01*
X-31688072Y-68250000D01*
X-31688072Y-69850000D01*
X-31675812Y-69974482D01*
X-31639502Y-70094180D01*
X-31580537Y-70204494D01*
X-31501185Y-70301185D01*
X-31404494Y-70380537D01*
X-31294180Y-70439502D01*
X-31174482Y-70475812D01*
X-31050000Y-70488072D01*
X-29450000Y-70488072D01*
X-29325518Y-70475812D01*
X-29205820Y-70439502D01*
X-29095506Y-70380537D01*
X-28998815Y-70301185D01*
X-28919463Y-70204494D01*
X-28860498Y-70094180D01*
X-28824188Y-69974482D01*
X-28811928Y-69850000D01*
X-28811928Y-69584275D01*
X-28751680Y-69729727D01*
X-28594637Y-69964759D01*
X-28394759Y-70164637D01*
X-28159727Y-70321680D01*
X-27898574Y-70429853D01*
X-27621335Y-70485000D01*
X-27338665Y-70485000D01*
X-27061426Y-70429853D01*
X-26800273Y-70321680D01*
X-26565241Y-70164637D01*
X-26443306Y-70042702D01*
X-25523097Y-70042702D01*
X-25451514Y-70286671D01*
X-25196004Y-70407571D01*
X-24921816Y-70476300D01*
X-24639488Y-70490217D01*
X-24359870Y-70448787D01*
X-24093708Y-70353603D01*
X-23968486Y-70286671D01*
X-23896903Y-70042702D01*
X-24710000Y-69229605D01*
X-25523097Y-70042702D01*
X-26443306Y-70042702D01*
X-26365363Y-69964759D01*
X-26208320Y-69729727D01*
X-26100147Y-69468574D01*
X-26094487Y-69440118D01*
X-26013603Y-69666292D01*
X-25946671Y-69791514D01*
X-25702702Y-69863097D01*
X-24889605Y-69050000D01*
X-24530395Y-69050000D01*
X-23717298Y-69863097D01*
X-23473329Y-69791514D01*
X-23352429Y-69536004D01*
X-23326788Y-69433711D01*
X-23319853Y-69468574D01*
X-23211680Y-69729727D01*
X-23054637Y-69964759D01*
X-22854759Y-70164637D01*
X-22619727Y-70321680D01*
X-22358574Y-70429853D01*
X-22081335Y-70485000D01*
X-21798665Y-70485000D01*
X-21521426Y-70429853D01*
X-21260273Y-70321680D01*
X-21025241Y-70164637D01*
X-20825363Y-69964759D01*
X-20668320Y-69729727D01*
X-20560147Y-69468574D01*
X-20555000Y-69442699D01*
X-20549853Y-69468574D01*
X-20441680Y-69729727D01*
X-20284637Y-69964759D01*
X-20084759Y-70164637D01*
X-19849727Y-70321680D01*
X-19588574Y-70429853D01*
X-19311335Y-70485000D01*
X-19028665Y-70485000D01*
X-18751426Y-70429853D01*
X-18490273Y-70321680D01*
X-18323843Y-70210475D01*
X-14845000Y-70210475D01*
X-14845000Y-70729525D01*
X-14743739Y-71238601D01*
X-14545107Y-71718141D01*
X-14256738Y-72149715D01*
X-13889715Y-72516738D01*
X-13458141Y-72805107D01*
X-12978601Y-73003739D01*
X-12469525Y-73105000D01*
X-11950475Y-73105000D01*
X-11441399Y-73003739D01*
X-10961859Y-72805107D01*
X-10530285Y-72516738D01*
X-10163262Y-72149715D01*
X-9874893Y-71718141D01*
X-9676261Y-71238601D01*
X-9575000Y-70729525D01*
X-9575000Y-70210475D01*
X-9676261Y-69701399D01*
X-9874893Y-69221859D01*
X-10163262Y-68790285D01*
X-10530285Y-68423262D01*
X-10961859Y-68134893D01*
X-11441399Y-67936261D01*
X-11950475Y-67835000D01*
X-12469525Y-67835000D01*
X-12978601Y-67936261D01*
X-13458141Y-68134893D01*
X-13889715Y-68423262D01*
X-14256738Y-68790285D01*
X-14545107Y-69221859D01*
X-14743739Y-69701399D01*
X-14845000Y-70210475D01*
X-18323843Y-70210475D01*
X-18255241Y-70164637D01*
X-18055363Y-69964759D01*
X-17898320Y-69729727D01*
X-17790147Y-69468574D01*
X-17735000Y-69191335D01*
X-17735000Y-68908665D01*
X-17790147Y-68631426D01*
X-17898320Y-68370273D01*
X-18055363Y-68135241D01*
X-18255241Y-67935363D01*
X-18490273Y-67778320D01*
X-18751426Y-67670147D01*
X-19028665Y-67615000D01*
X-19311335Y-67615000D01*
X-19588574Y-67670147D01*
X-19849727Y-67778320D01*
X-20084759Y-67935363D01*
X-20284637Y-68135241D01*
X-20441680Y-68370273D01*
X-20549853Y-68631426D01*
X-20555000Y-68657301D01*
X-20560147Y-68631426D01*
X-20668320Y-68370273D01*
X-20825363Y-68135241D01*
X-21025241Y-67935363D01*
X-21260273Y-67778320D01*
X-21521426Y-67670147D01*
X-21798665Y-67615000D01*
X-22081335Y-67615000D01*
X-22358574Y-67670147D01*
X-22619727Y-67778320D01*
X-22854759Y-67935363D01*
X-23054637Y-68135241D01*
X-23211680Y-68370273D01*
X-23319853Y-68631426D01*
X-23325513Y-68659882D01*
X-23406397Y-68433708D01*
X-23473329Y-68308486D01*
X-23717298Y-68236903D01*
X-24530395Y-69050000D01*
X-24889605Y-69050000D01*
X-25702702Y-68236903D01*
X-25946671Y-68308486D01*
X-26067571Y-68563996D01*
X-26093212Y-68666289D01*
X-26100147Y-68631426D01*
X-26208320Y-68370273D01*
X-26365363Y-68135241D01*
X-26443306Y-68057298D01*
X-25523097Y-68057298D01*
X-24710000Y-68870395D01*
X-23896903Y-68057298D01*
X-23968486Y-67813329D01*
X-24223996Y-67692429D01*
X-24498184Y-67623700D01*
X-24780512Y-67609783D01*
X-25060130Y-67651213D01*
X-25326292Y-67746397D01*
X-25451514Y-67813329D01*
X-25523097Y-68057298D01*
X-26443306Y-68057298D01*
X-26565241Y-67935363D01*
X-26800273Y-67778320D01*
X-27061426Y-67670147D01*
X-27338665Y-67615000D01*
X-27621335Y-67615000D01*
X-27898574Y-67670147D01*
X-28159727Y-67778320D01*
X-28394759Y-67935363D01*
X-28594637Y-68135241D01*
X-28751680Y-68370273D01*
X-28811928Y-68515725D01*
X-28811928Y-68250000D01*
X-28824188Y-68125518D01*
X-28860498Y-68005820D01*
X-28919463Y-67895506D01*
X-28998815Y-67798815D01*
X-29095506Y-67719463D01*
X-29205820Y-67660498D01*
X-29325518Y-67624188D01*
X-29450000Y-67611928D01*
X-31050000Y-67611928D01*
X-31174482Y-67624188D01*
X-31294180Y-67660498D01*
X-31404494Y-67719463D01*
X-31501185Y-67798815D01*
X-31580537Y-67895506D01*
X-31639502Y-68005820D01*
X-31675812Y-68125518D01*
X-31688072Y-68250000D01*
X-35789589Y-68250000D01*
X-35961859Y-68134893D01*
X-36441399Y-67936261D01*
X-36950475Y-67835000D01*
X-37469525Y-67835000D01*
X-37978601Y-67936261D01*
X-38458141Y-68134893D01*
X-38889715Y-68423262D01*
X-39256738Y-68790285D01*
X-39545107Y-69221859D01*
X-39743739Y-69701399D01*
X-39845000Y-70210475D01*
X-57727584Y-70210475D01*
X-57772068Y-69986842D01*
X-57884010Y-69716589D01*
X-58046525Y-69473368D01*
X-58253368Y-69266525D01*
X-58427760Y-69150000D01*
X-58253368Y-69033475D01*
X-58046525Y-68826632D01*
X-57884010Y-68583411D01*
X-57772068Y-68313158D01*
X-57715000Y-68026260D01*
X-57715000Y-67733740D01*
X-57772068Y-67446842D01*
X-57884010Y-67176589D01*
X-58046525Y-66933368D01*
X-58253368Y-66726525D01*
X-58435534Y-66604805D01*
X-58318645Y-66535178D01*
X-58102412Y-66340269D01*
X-57928359Y-66106920D01*
X-57803175Y-65844099D01*
X-57758524Y-65696890D01*
X-57879845Y-65467000D01*
X-59073000Y-65467000D01*
X-59073000Y-65487000D01*
X-59327000Y-65487000D01*
X-59327000Y-65467000D01*
X-60520155Y-65467000D01*
X-60641476Y-65696890D01*
X-60596825Y-65844099D01*
X-60471641Y-66106920D01*
X-60297588Y-66340269D01*
X-60081355Y-66535178D01*
X-59964466Y-66604805D01*
X-60146632Y-66726525D01*
X-60353475Y-66933368D01*
X-60515990Y-67176589D01*
X-60627932Y-67446842D01*
X-60685000Y-67733740D01*
X-60685000Y-68026260D01*
X-60627932Y-68313158D01*
X-60515990Y-68583411D01*
X-60353475Y-68826632D01*
X-60146632Y-69033475D01*
X-59972240Y-69150000D01*
X-60146632Y-69266525D01*
X-60353475Y-69473368D01*
X-60515990Y-69716589D01*
X-60627932Y-69986842D01*
X-60685000Y-70273740D01*
X-60685000Y-70566260D01*
X-60627932Y-70853158D01*
X-60515990Y-71123411D01*
X-60353475Y-71366632D01*
X-60146632Y-71573475D01*
X-59972240Y-71690000D01*
X-60146632Y-71806525D01*
X-60353475Y-72013368D01*
X-60478178Y-72200000D01*
X-62697624Y-72200000D01*
X-62675000Y-72086260D01*
X-62675000Y-71793740D01*
X-62732068Y-71506842D01*
X-62844010Y-71236589D01*
X-63006525Y-70993368D01*
X-63213368Y-70786525D01*
X-63387760Y-70670000D01*
X-63213368Y-70553475D01*
X-63006525Y-70346632D01*
X-62844010Y-70103411D01*
X-62732068Y-69833158D01*
X-62675000Y-69546260D01*
X-62675000Y-69253740D01*
X-62732068Y-68966842D01*
X-62844010Y-68696589D01*
X-63006525Y-68453368D01*
X-63213368Y-68246525D01*
X-63387760Y-68130000D01*
X-63213368Y-68013475D01*
X-63006525Y-67806632D01*
X-62844010Y-67563411D01*
X-62732068Y-67293158D01*
X-62675000Y-67006260D01*
X-62675000Y-66713740D01*
X-62732068Y-66426842D01*
X-62844010Y-66156589D01*
X-63006525Y-65913368D01*
X-63213368Y-65706525D01*
X-63387760Y-65590000D01*
X-63213368Y-65473475D01*
X-63006525Y-65266632D01*
X-62844010Y-65023411D01*
X-62827317Y-64983110D01*
X-60641476Y-64983110D01*
X-60520155Y-65213000D01*
X-59327000Y-65213000D01*
X-59327000Y-64019186D01*
X-59073000Y-64019186D01*
X-59073000Y-65213000D01*
X-57879845Y-65213000D01*
X-57758524Y-64983110D01*
X-57803175Y-64835901D01*
X-57928359Y-64573080D01*
X-58102412Y-64339731D01*
X-58318645Y-64144822D01*
X-58568748Y-63995843D01*
X-58843109Y-63898519D01*
X-59073000Y-64019186D01*
X-59327000Y-64019186D01*
X-59556891Y-63898519D01*
X-59831252Y-63995843D01*
X-60081355Y-64144822D01*
X-60297588Y-64339731D01*
X-60471641Y-64573080D01*
X-60596825Y-64835901D01*
X-60641476Y-64983110D01*
X-62827317Y-64983110D01*
X-62732068Y-64753158D01*
X-62675000Y-64466260D01*
X-62675000Y-64173740D01*
X-62732068Y-63886842D01*
X-62844010Y-63616589D01*
X-63006525Y-63373368D01*
X-63213368Y-63166525D01*
X-63387760Y-63050000D01*
X-63213368Y-62933475D01*
X-63006525Y-62726632D01*
X-62844010Y-62483411D01*
X-62732068Y-62213158D01*
X-62680467Y-61953740D01*
X-18425000Y-61953740D01*
X-18425000Y-62246260D01*
X-18367932Y-62533158D01*
X-18255990Y-62803411D01*
X-18093475Y-63046632D01*
X-17886632Y-63253475D01*
X-17643411Y-63415990D01*
X-17373158Y-63527932D01*
X-17086260Y-63585000D01*
X-16793740Y-63585000D01*
X-16506842Y-63527932D01*
X-16236589Y-63415990D01*
X-15993368Y-63253475D01*
X-15861513Y-63121620D01*
X-15839502Y-63194180D01*
X-15780537Y-63304494D01*
X-15701185Y-63401185D01*
X-15604494Y-63480537D01*
X-15494180Y-63539502D01*
X-15374482Y-63575812D01*
X-15250000Y-63588072D01*
X-13550000Y-63588072D01*
X-13425518Y-63575812D01*
X-13305820Y-63539502D01*
X-13195506Y-63480537D01*
X-13098815Y-63401185D01*
X-13019463Y-63304494D01*
X-12960498Y-63194180D01*
X-12924188Y-63074482D01*
X-12911928Y-62950000D01*
X-12911928Y-61250000D01*
X-12924188Y-61125518D01*
X-12960498Y-61005820D01*
X-13019463Y-60895506D01*
X-13098815Y-60798815D01*
X-13195506Y-60719463D01*
X-13305820Y-60660498D01*
X-13425518Y-60624188D01*
X-13550000Y-60611928D01*
X-15250000Y-60611928D01*
X-15374482Y-60624188D01*
X-15494180Y-60660498D01*
X-15604494Y-60719463D01*
X-15701185Y-60798815D01*
X-15780537Y-60895506D01*
X-15839502Y-61005820D01*
X-15861513Y-61078380D01*
X-15993368Y-60946525D01*
X-16236589Y-60784010D01*
X-16506842Y-60672068D01*
X-16793740Y-60615000D01*
X-17086260Y-60615000D01*
X-17373158Y-60672068D01*
X-17643411Y-60784010D01*
X-17886632Y-60946525D01*
X-18093475Y-61153368D01*
X-18255990Y-61396589D01*
X-18367932Y-61666842D01*
X-18425000Y-61953740D01*
X-62680467Y-61953740D01*
X-62675000Y-61926260D01*
X-62675000Y-61633740D01*
X-62732068Y-61346842D01*
X-62844010Y-61076589D01*
X-63006525Y-60833368D01*
X-63213368Y-60626525D01*
X-63387760Y-60510000D01*
X-63213368Y-60393475D01*
X-63006525Y-60186632D01*
X-62844010Y-59943411D01*
X-62732068Y-59673158D01*
X-62675000Y-59386260D01*
X-62675000Y-59093740D01*
X-62732068Y-58806842D01*
X-62844010Y-58536589D01*
X-63006525Y-58293368D01*
X-63213368Y-58086525D01*
X-63386729Y-57970689D01*
X-63311208Y-57728397D01*
X-64160000Y-56879605D01*
X-65008792Y-57728397D01*
X-64933271Y-57970689D01*
X-65106632Y-58086525D01*
X-65313475Y-58293368D01*
X-65430000Y-58467760D01*
X-65546525Y-58293368D01*
X-65753368Y-58086525D01*
X-65927760Y-57970000D01*
X-65753368Y-57853475D01*
X-65546525Y-57646632D01*
X-65430689Y-57473271D01*
X-65188397Y-57548792D01*
X-64339605Y-56700000D01*
X-63980395Y-56700000D01*
X-63131603Y-57548792D01*
X-62882528Y-57471157D01*
X-62756629Y-57207117D01*
X-62684661Y-56923589D01*
X-62669389Y-56631469D01*
X-62711401Y-56341981D01*
X-62809081Y-56066253D01*
X-62882528Y-55928843D01*
X-63131603Y-55851208D01*
X-63980395Y-56700000D01*
X-64339605Y-56700000D01*
X-65188397Y-55851208D01*
X-65430689Y-55926729D01*
X-65546525Y-55753368D01*
X-65753368Y-55546525D01*
X-65926729Y-55430689D01*
X-65851208Y-55188397D01*
X-65008792Y-55188397D01*
X-64933486Y-55430000D01*
X-65008792Y-55671603D01*
X-64160000Y-56520395D01*
X-63311208Y-55671603D01*
X-63386514Y-55430000D01*
X-63311208Y-55188397D01*
X-64160000Y-54339605D01*
X-65008792Y-55188397D01*
X-65851208Y-55188397D01*
X-66700000Y-54339605D01*
X-67548792Y-55188397D01*
X-67473271Y-55430689D01*
X-67646632Y-55546525D01*
X-67853475Y-55753368D01*
X-68015990Y-55996589D01*
X-68127932Y-56266842D01*
X-68185000Y-56553740D01*
X-68580000Y-56553740D01*
X-68580000Y-54228531D01*
X-68190611Y-54228531D01*
X-68148599Y-54518019D01*
X-68050919Y-54793747D01*
X-67977472Y-54931157D01*
X-67728397Y-55008792D01*
X-66879605Y-54160000D01*
X-66520395Y-54160000D01*
X-65671603Y-55008792D01*
X-65430000Y-54933486D01*
X-65188397Y-55008792D01*
X-64339605Y-54160000D01*
X-65188397Y-53311208D01*
X-65430000Y-53386514D01*
X-65671603Y-53311208D01*
X-66520395Y-54160000D01*
X-66879605Y-54160000D01*
X-67728397Y-53311208D01*
X-67977472Y-53388843D01*
X-68103371Y-53652883D01*
X-68175339Y-53936411D01*
X-68190611Y-54228531D01*
X-68580000Y-54228531D01*
X-68580000Y-30450000D01*
X-68188072Y-30450000D01*
X-68188072Y-32150000D01*
X-68175812Y-32274482D01*
X-68139502Y-32394180D01*
X-68080537Y-32504494D01*
X-68001185Y-32601185D01*
X-67904494Y-32680537D01*
X-67794180Y-32739502D01*
X-67721620Y-32761513D01*
X-67853475Y-32893368D01*
X-68015990Y-33136589D01*
X-68127932Y-33406842D01*
X-68185000Y-33693740D01*
X-68185000Y-33986260D01*
X-68127932Y-34273158D01*
X-68015990Y-34543411D01*
X-67853475Y-34786632D01*
X-67646632Y-34993475D01*
X-67472240Y-35110000D01*
X-67646632Y-35226525D01*
X-67853475Y-35433368D01*
X-68015990Y-35676589D01*
X-68127932Y-35946842D01*
X-68185000Y-36233740D01*
X-68185000Y-36526260D01*
X-68127932Y-36813158D01*
X-68015990Y-37083411D01*
X-67853475Y-37326632D01*
X-67646632Y-37533475D01*
X-67472240Y-37650000D01*
X-67646632Y-37766525D01*
X-67853475Y-37973368D01*
X-68015990Y-38216589D01*
X-68127932Y-38486842D01*
X-68185000Y-38773740D01*
X-68185000Y-39066260D01*
X-68127932Y-39353158D01*
X-68015990Y-39623411D01*
X-67853475Y-39866632D01*
X-67646632Y-40073475D01*
X-67472240Y-40190000D01*
X-67646632Y-40306525D01*
X-67853475Y-40513368D01*
X-68015990Y-40756589D01*
X-68127932Y-41026842D01*
X-68185000Y-41313740D01*
X-68185000Y-41606260D01*
X-68127932Y-41893158D01*
X-68015990Y-42163411D01*
X-67853475Y-42406632D01*
X-67646632Y-42613475D01*
X-67472240Y-42730000D01*
X-67646632Y-42846525D01*
X-67853475Y-43053368D01*
X-68015990Y-43296589D01*
X-68127932Y-43566842D01*
X-68185000Y-43853740D01*
X-68185000Y-44146260D01*
X-68127932Y-44433158D01*
X-68015990Y-44703411D01*
X-67853475Y-44946632D01*
X-67646632Y-45153475D01*
X-67472240Y-45270000D01*
X-67646632Y-45386525D01*
X-67853475Y-45593368D01*
X-68015990Y-45836589D01*
X-68127932Y-46106842D01*
X-68185000Y-46393740D01*
X-68185000Y-46686260D01*
X-68127932Y-46973158D01*
X-68015990Y-47243411D01*
X-67853475Y-47486632D01*
X-67646632Y-47693475D01*
X-67472240Y-47810000D01*
X-67646632Y-47926525D01*
X-67853475Y-48133368D01*
X-68015990Y-48376589D01*
X-68127932Y-48646842D01*
X-68185000Y-48933740D01*
X-68185000Y-49226260D01*
X-68127932Y-49513158D01*
X-68015990Y-49783411D01*
X-67853475Y-50026632D01*
X-67646632Y-50233475D01*
X-67472240Y-50350000D01*
X-67646632Y-50466525D01*
X-67853475Y-50673368D01*
X-68015990Y-50916589D01*
X-68127932Y-51186842D01*
X-68185000Y-51473740D01*
X-68185000Y-51766260D01*
X-68127932Y-52053158D01*
X-68015990Y-52323411D01*
X-67853475Y-52566632D01*
X-67646632Y-52773475D01*
X-67473271Y-52889311D01*
X-67548792Y-53131603D01*
X-66700000Y-53980395D01*
X-65851208Y-53131603D01*
X-65926729Y-52889311D01*
X-65753368Y-52773475D01*
X-65546525Y-52566632D01*
X-65430000Y-52392240D01*
X-65313475Y-52566632D01*
X-65106632Y-52773475D01*
X-64933271Y-52889311D01*
X-65008792Y-53131603D01*
X-64160000Y-53980395D01*
X-64145857Y-53966253D01*
X-63966252Y-54145858D01*
X-63980395Y-54160000D01*
X-63131603Y-55008792D01*
X-62882528Y-54931157D01*
X-62756629Y-54667117D01*
X-62684661Y-54383589D01*
X-62669389Y-54091469D01*
X-62679521Y-54021651D01*
X-62501898Y-54095226D01*
X-62301939Y-54135000D01*
X-62098061Y-54135000D01*
X-61898102Y-54095226D01*
X-61709744Y-54017205D01*
X-61540226Y-53903937D01*
X-61396063Y-53759774D01*
X-61282795Y-53590256D01*
X-61204774Y-53401898D01*
X-61165000Y-53201939D01*
X-61165000Y-52998061D01*
X-61204774Y-52798102D01*
X-61282795Y-52609744D01*
X-61396063Y-52440226D01*
X-61440000Y-52396289D01*
X-61440000Y-49203711D01*
X-61396063Y-49159774D01*
X-61282795Y-48990256D01*
X-61204774Y-48801898D01*
X-61165000Y-48601939D01*
X-61165000Y-48398061D01*
X-61204774Y-48198102D01*
X-61282795Y-48009744D01*
X-61396063Y-47840226D01*
X-61540226Y-47696063D01*
X-61709744Y-47582795D01*
X-61898102Y-47504774D01*
X-62098061Y-47465000D01*
X-62301939Y-47465000D01*
X-62501898Y-47504774D01*
X-62690256Y-47582795D01*
X-62859774Y-47696063D01*
X-63003937Y-47840226D01*
X-63117205Y-48009744D01*
X-63120996Y-48018897D01*
X-63213368Y-47926525D01*
X-63387760Y-47810000D01*
X-63213368Y-47693475D01*
X-63006525Y-47486632D01*
X-62844010Y-47243411D01*
X-62732068Y-46973158D01*
X-62675000Y-46686260D01*
X-62675000Y-46393740D01*
X-62732068Y-46106842D01*
X-62817744Y-45900000D01*
X-55378072Y-45900000D01*
X-55378072Y-48900000D01*
X-55365812Y-49024482D01*
X-55329502Y-49144180D01*
X-55270537Y-49254494D01*
X-55191185Y-49351185D01*
X-55094494Y-49430537D01*
X-54984180Y-49489502D01*
X-54864482Y-49525812D01*
X-54740000Y-49538072D01*
X-51740000Y-49538072D01*
X-51615518Y-49525812D01*
X-51495820Y-49489502D01*
X-51385506Y-49430537D01*
X-51288815Y-49351185D01*
X-51209463Y-49254494D01*
X-51150498Y-49144180D01*
X-51114188Y-49024482D01*
X-51101928Y-48900000D01*
X-51101928Y-48891653D01*
X-34062048Y-48891653D01*
X-33906038Y-49207214D01*
X-33531255Y-49398020D01*
X-33126449Y-49512044D01*
X-32707176Y-49544902D01*
X-32289549Y-49495334D01*
X-31889617Y-49365243D01*
X-31593962Y-49207214D01*
X-31437952Y-48891653D01*
X-32750000Y-47579605D01*
X-34062048Y-48891653D01*
X-51101928Y-48891653D01*
X-51101928Y-47442824D01*
X-34894902Y-47442824D01*
X-34845334Y-47860451D01*
X-34715243Y-48260383D01*
X-34557214Y-48556038D01*
X-34241653Y-48712048D01*
X-32929605Y-47400000D01*
X-32570395Y-47400000D01*
X-31258347Y-48712048D01*
X-30942786Y-48556038D01*
X-30751980Y-48181255D01*
X-30637956Y-47776449D01*
X-30605098Y-47357176D01*
X-30654666Y-46939549D01*
X-30784757Y-46539617D01*
X-30942786Y-46243962D01*
X-31258347Y-46087952D01*
X-32570395Y-47400000D01*
X-32929605Y-47400000D01*
X-34241653Y-46087952D01*
X-34557214Y-46243962D01*
X-34748020Y-46618745D01*
X-34862044Y-47023551D01*
X-34894902Y-47442824D01*
X-51101928Y-47442824D01*
X-51101928Y-45908347D01*
X-34062048Y-45908347D01*
X-32750000Y-47220395D01*
X-31437952Y-45908347D01*
X-31593962Y-45592786D01*
X-31968745Y-45401980D01*
X-32373551Y-45287956D01*
X-32792824Y-45255098D01*
X-33210451Y-45304666D01*
X-33610383Y-45434757D01*
X-33906038Y-45592786D01*
X-34062048Y-45908347D01*
X-51101928Y-45908347D01*
X-51101928Y-45900000D01*
X-51114188Y-45775518D01*
X-51150498Y-45655820D01*
X-51209463Y-45545506D01*
X-51288815Y-45448815D01*
X-51385506Y-45369463D01*
X-51495820Y-45310498D01*
X-51615518Y-45274188D01*
X-51740000Y-45261928D01*
X-54740000Y-45261928D01*
X-54864482Y-45274188D01*
X-54984180Y-45310498D01*
X-55094494Y-45369463D01*
X-55191185Y-45448815D01*
X-55270537Y-45545506D01*
X-55329502Y-45655820D01*
X-55365812Y-45775518D01*
X-55378072Y-45900000D01*
X-62817744Y-45900000D01*
X-62844010Y-45836589D01*
X-63006525Y-45593368D01*
X-63213368Y-45386525D01*
X-63387760Y-45270000D01*
X-63213368Y-45153475D01*
X-63006525Y-44946632D01*
X-62844010Y-44703411D01*
X-62732068Y-44433158D01*
X-62675000Y-44146260D01*
X-62675000Y-43853740D01*
X-62732068Y-43566842D01*
X-62844010Y-43296589D01*
X-63006525Y-43053368D01*
X-63213368Y-42846525D01*
X-63387760Y-42730000D01*
X-63213368Y-42613475D01*
X-63006525Y-42406632D01*
X-62844010Y-42163411D01*
X-62732068Y-41893158D01*
X-62675000Y-41606260D01*
X-62675000Y-41313740D01*
X-62714715Y-41114080D01*
X-58734475Y-41114080D01*
X-58650792Y-41368261D01*
X-58378225Y-41499158D01*
X-58085358Y-41574365D01*
X-57783447Y-41590991D01*
X-57484093Y-41548397D01*
X-57427516Y-41528531D01*
X-7230611Y-41528531D01*
X-7188599Y-41818019D01*
X-7090919Y-42093747D01*
X-7017472Y-42231157D01*
X-6768397Y-42308792D01*
X-5919605Y-41460000D01*
X-6768397Y-40611208D01*
X-7017472Y-40688843D01*
X-7143371Y-40952883D01*
X-7215339Y-41236411D01*
X-7230611Y-41528531D01*
X-57427516Y-41528531D01*
X-57198801Y-41448222D01*
X-57049208Y-41368261D01*
X-56965525Y-41114080D01*
X-57850000Y-40229605D01*
X-58734475Y-41114080D01*
X-62714715Y-41114080D01*
X-62732068Y-41026842D01*
X-62844010Y-40756589D01*
X-63006525Y-40513368D01*
X-63213368Y-40306525D01*
X-63386729Y-40190689D01*
X-63363622Y-40116553D01*
X-59390991Y-40116553D01*
X-59348397Y-40415907D01*
X-59248222Y-40701199D01*
X-59168261Y-40850792D01*
X-58914080Y-40934475D01*
X-58029605Y-40050000D01*
X-57670395Y-40050000D01*
X-56785920Y-40934475D01*
X-56531739Y-40850792D01*
X-56400842Y-40578225D01*
X-56325635Y-40285358D01*
X-56309009Y-39983447D01*
X-56351603Y-39684093D01*
X-56451778Y-39398801D01*
X-56531739Y-39249208D01*
X-56785920Y-39165525D01*
X-57670395Y-40050000D01*
X-58029605Y-40050000D01*
X-58914080Y-39165525D01*
X-59168261Y-39249208D01*
X-59299158Y-39521775D01*
X-59374365Y-39814642D01*
X-59390991Y-40116553D01*
X-63363622Y-40116553D01*
X-63311208Y-39948397D01*
X-64160000Y-39099605D01*
X-65008792Y-39948397D01*
X-64933271Y-40190689D01*
X-65106632Y-40306525D01*
X-65313475Y-40513368D01*
X-65430000Y-40687760D01*
X-65546525Y-40513368D01*
X-65753368Y-40306525D01*
X-65927760Y-40190000D01*
X-65753368Y-40073475D01*
X-65546525Y-39866632D01*
X-65430689Y-39693271D01*
X-65188397Y-39768792D01*
X-64339605Y-38920000D01*
X-63980395Y-38920000D01*
X-63131603Y-39768792D01*
X-62882528Y-39691157D01*
X-62756629Y-39427117D01*
X-62684661Y-39143589D01*
X-62676419Y-38985920D01*
X-58734475Y-38985920D01*
X-57850000Y-39870395D01*
X-56965525Y-38985920D01*
X-57049208Y-38731739D01*
X-57321775Y-38600842D01*
X-57614642Y-38525635D01*
X-57916553Y-38509009D01*
X-58215907Y-38551603D01*
X-58501199Y-38651778D01*
X-58650792Y-38731739D01*
X-58734475Y-38985920D01*
X-62676419Y-38985920D01*
X-62669389Y-38851469D01*
X-62711401Y-38561981D01*
X-62809081Y-38286253D01*
X-62882528Y-38148843D01*
X-63131603Y-38071208D01*
X-63980395Y-38920000D01*
X-64339605Y-38920000D01*
X-65188397Y-38071208D01*
X-65430689Y-38146729D01*
X-65546525Y-37973368D01*
X-65753368Y-37766525D01*
X-65927760Y-37650000D01*
X-65753368Y-37533475D01*
X-65546525Y-37326632D01*
X-65430000Y-37152240D01*
X-65313475Y-37326632D01*
X-65106632Y-37533475D01*
X-64933271Y-37649311D01*
X-65008792Y-37891603D01*
X-64160000Y-38740395D01*
X-63311208Y-37891603D01*
X-63386729Y-37649311D01*
X-63213368Y-37533475D01*
X-63006525Y-37326632D01*
X-62844010Y-37083411D01*
X-62732068Y-36813158D01*
X-62675000Y-36526260D01*
X-62675000Y-36233740D01*
X-62732068Y-35946842D01*
X-62844010Y-35676589D01*
X-63006525Y-35433368D01*
X-63213368Y-35226525D01*
X-63387760Y-35110000D01*
X-63213368Y-34993475D01*
X-63118709Y-34898816D01*
X-59385000Y-34898816D01*
X-59385000Y-35201184D01*
X-59326011Y-35497743D01*
X-59210299Y-35777095D01*
X-59042312Y-36028505D01*
X-58828505Y-36242312D01*
X-58577095Y-36410299D01*
X-58297743Y-36526011D01*
X-58001184Y-36585000D01*
X-57698816Y-36585000D01*
X-57402257Y-36526011D01*
X-57122905Y-36410299D01*
X-56871495Y-36242312D01*
X-56657688Y-36028505D01*
X-56489701Y-35777095D01*
X-56373989Y-35497743D01*
X-56315000Y-35201184D01*
X-56315000Y-34898816D01*
X-56373989Y-34602257D01*
X-56437859Y-34448061D01*
X-23285002Y-34448061D01*
X-23285002Y-34651939D01*
X-23245228Y-34851898D01*
X-23167207Y-35040256D01*
X-23053939Y-35209774D01*
X-22909776Y-35353937D01*
X-22740258Y-35467205D01*
X-22551900Y-35545226D01*
X-22351941Y-35585000D01*
X-22148063Y-35585000D01*
X-21948104Y-35545226D01*
X-21759746Y-35467205D01*
X-21590228Y-35353937D01*
X-21546291Y-35310000D01*
X-19253711Y-35310000D01*
X-19209774Y-35353937D01*
X-19040256Y-35467205D01*
X-18851898Y-35545226D01*
X-18651939Y-35585000D01*
X-18448061Y-35585000D01*
X-18248102Y-35545226D01*
X-18059744Y-35467205D01*
X-17890226Y-35353937D01*
X-17746063Y-35209774D01*
X-17632795Y-35040256D01*
X-17554774Y-34851898D01*
X-17515000Y-34651939D01*
X-17515000Y-34448061D01*
X-17554774Y-34248102D01*
X-17632795Y-34059744D01*
X-17689419Y-33975000D01*
X-17632795Y-33890256D01*
X-17554774Y-33701898D01*
X-17515000Y-33501939D01*
X-17515000Y-33298061D01*
X-17554774Y-33098102D01*
X-17632795Y-32909744D01*
X-17746063Y-32740226D01*
X-17890226Y-32596063D01*
X-18059744Y-32482795D01*
X-18248102Y-32404774D01*
X-18448061Y-32365000D01*
X-18651939Y-32365000D01*
X-18851898Y-32404774D01*
X-19040256Y-32482795D01*
X-19209774Y-32596063D01*
X-19253711Y-32640000D01*
X-21546289Y-32640000D01*
X-21590226Y-32596063D01*
X-21759744Y-32482795D01*
X-21948102Y-32404774D01*
X-22148061Y-32365000D01*
X-22351939Y-32365000D01*
X-22551898Y-32404774D01*
X-22740256Y-32482795D01*
X-22909774Y-32596063D01*
X-23053937Y-32740226D01*
X-23167205Y-32909744D01*
X-23245226Y-33098102D01*
X-23285000Y-33298061D01*
X-23285000Y-33501939D01*
X-23245226Y-33701898D01*
X-23167205Y-33890256D01*
X-23110582Y-33974999D01*
X-23167207Y-34059744D01*
X-23245228Y-34248102D01*
X-23285002Y-34448061D01*
X-56437859Y-34448061D01*
X-56489701Y-34322905D01*
X-56657688Y-34071495D01*
X-56871495Y-33857688D01*
X-57122905Y-33689701D01*
X-57402257Y-33573989D01*
X-57698816Y-33515000D01*
X-58001184Y-33515000D01*
X-58297743Y-33573989D01*
X-58577095Y-33689701D01*
X-58828505Y-33857688D01*
X-59042312Y-34071495D01*
X-59210299Y-34322905D01*
X-59326011Y-34602257D01*
X-59385000Y-34898816D01*
X-63118709Y-34898816D01*
X-63006525Y-34786632D01*
X-62844010Y-34543411D01*
X-62732068Y-34273158D01*
X-62675000Y-33986260D01*
X-62675000Y-33693740D01*
X-62732068Y-33406842D01*
X-62844010Y-33136589D01*
X-63006525Y-32893368D01*
X-63213368Y-32686525D01*
X-63387760Y-32570000D01*
X-63213368Y-32453475D01*
X-63006525Y-32246632D01*
X-62844010Y-32003411D01*
X-62732068Y-31733158D01*
X-62675000Y-31446260D01*
X-62675000Y-31153740D01*
X-62732068Y-30866842D01*
X-62844010Y-30596589D01*
X-63006525Y-30353368D01*
X-63213368Y-30146525D01*
X-63456589Y-29984010D01*
X-63726842Y-29872068D01*
X-64013740Y-29815000D01*
X-64306260Y-29815000D01*
X-64593158Y-29872068D01*
X-64863411Y-29984010D01*
X-65106632Y-30146525D01*
X-65238487Y-30278380D01*
X-65260498Y-30205820D01*
X-65319463Y-30095506D01*
X-65398815Y-29998815D01*
X-65495506Y-29919463D01*
X-65605820Y-29860498D01*
X-65725518Y-29824188D01*
X-65850000Y-29811928D01*
X-67550000Y-29811928D01*
X-67674482Y-29824188D01*
X-67794180Y-29860498D01*
X-67904494Y-29919463D01*
X-68001185Y-29998815D01*
X-68080537Y-30095506D01*
X-68139502Y-30205820D01*
X-68175812Y-30325518D01*
X-68188072Y-30450000D01*
X-68580000Y-30450000D01*
X-68580000Y-28298061D01*
X-12135000Y-28298061D01*
X-12135000Y-28501939D01*
X-12095226Y-28701898D01*
X-12017205Y-28890256D01*
X-11903937Y-29059774D01*
X-11759774Y-29203937D01*
X-11590256Y-29317205D01*
X-11401898Y-29395226D01*
X-11201939Y-29435000D01*
X-11139802Y-29435000D01*
X-10913799Y-29661002D01*
X-10890001Y-29690001D01*
X-10774276Y-29784974D01*
X-10642247Y-29855546D01*
X-10498986Y-29899003D01*
X-10387333Y-29910000D01*
X-10387324Y-29910000D01*
X-10350001Y-29913676D01*
X-10312678Y-29910000D01*
X-6264734Y-29910000D01*
X-6443411Y-29984010D01*
X-6686632Y-30146525D01*
X-6893475Y-30353368D01*
X-7055990Y-30596589D01*
X-7167932Y-30866842D01*
X-7225000Y-31153740D01*
X-7225000Y-31446260D01*
X-7167932Y-31733158D01*
X-7055990Y-32003411D01*
X-6893475Y-32246632D01*
X-6686632Y-32453475D01*
X-6512240Y-32570000D01*
X-6686632Y-32686525D01*
X-6893475Y-32893368D01*
X-7018178Y-33080000D01*
X-8348737Y-33080000D01*
X-8386062Y-33076324D01*
X-8423387Y-33080000D01*
X-8423395Y-33080000D01*
X-8535048Y-33090997D01*
X-8678309Y-33134454D01*
X-8810338Y-33205026D01*
X-8926063Y-33299999D01*
X-8949861Y-33328997D01*
X-9987243Y-34366380D01*
X-10049381Y-34366380D01*
X-10249340Y-34406154D01*
X-10437698Y-34484175D01*
X-10607216Y-34597443D01*
X-10751379Y-34741606D01*
X-10864647Y-34911124D01*
X-10942668Y-35099482D01*
X-10982442Y-35299441D01*
X-10982442Y-35503319D01*
X-10942668Y-35703278D01*
X-10880130Y-35854257D01*
X-10917205Y-35909744D01*
X-10995226Y-36098102D01*
X-11035000Y-36298061D01*
X-11035000Y-36501939D01*
X-10995226Y-36701898D01*
X-10917205Y-36890256D01*
X-10910693Y-36900002D01*
X-10917205Y-36909747D01*
X-10995226Y-37098105D01*
X-11035000Y-37298064D01*
X-11035000Y-37501942D01*
X-10995226Y-37701901D01*
X-10917205Y-37890259D01*
X-10803937Y-38059777D01*
X-10659774Y-38203940D01*
X-10490256Y-38317208D01*
X-10301898Y-38395229D01*
X-10101939Y-38435003D01*
X-9898061Y-38435003D01*
X-9698102Y-38395229D01*
X-9509744Y-38317208D01*
X-9340226Y-38203940D01*
X-9296289Y-38160003D01*
X-7018180Y-38160003D01*
X-7055990Y-38216589D01*
X-7167932Y-38486842D01*
X-7225000Y-38773740D01*
X-7225000Y-39066260D01*
X-7167932Y-39353158D01*
X-7055990Y-39623411D01*
X-6893475Y-39866632D01*
X-6686632Y-40073475D01*
X-6513271Y-40189311D01*
X-6588792Y-40431603D01*
X-5740000Y-41280395D01*
X-4891208Y-40431603D01*
X-4966729Y-40189311D01*
X-4793368Y-40073475D01*
X-4586525Y-39866632D01*
X-4470000Y-39692240D01*
X-4353475Y-39866632D01*
X-4146632Y-40073475D01*
X-3972240Y-40190000D01*
X-4146632Y-40306525D01*
X-4353475Y-40513368D01*
X-4469311Y-40686729D01*
X-4711603Y-40611208D01*
X-5560395Y-41460000D01*
X-4711603Y-42308792D01*
X-4469311Y-42233271D01*
X-4353475Y-42406632D01*
X-4146632Y-42613475D01*
X-3972240Y-42730000D01*
X-4146632Y-42846525D01*
X-4353475Y-43053368D01*
X-4470000Y-43227760D01*
X-4586525Y-43053368D01*
X-4793368Y-42846525D01*
X-4966729Y-42730689D01*
X-4891208Y-42488397D01*
X-5740000Y-41639605D01*
X-6588792Y-42488397D01*
X-6513271Y-42730689D01*
X-6686632Y-42846525D01*
X-6763198Y-42923091D01*
X-6840226Y-42846063D01*
X-7009744Y-42732795D01*
X-7198102Y-42654774D01*
X-7398061Y-42615000D01*
X-7601939Y-42615000D01*
X-7801898Y-42654774D01*
X-7990256Y-42732795D01*
X-8159774Y-42846063D01*
X-8303937Y-42990226D01*
X-8417205Y-43159744D01*
X-8495226Y-43348102D01*
X-8535000Y-43548061D01*
X-8535000Y-43751939D01*
X-8495226Y-43951898D01*
X-8417205Y-44140256D01*
X-8303937Y-44309774D01*
X-8248987Y-44364724D01*
X-8205546Y-44507932D01*
X-8180963Y-44553921D01*
X-8134974Y-44639961D01*
X-8082901Y-44703411D01*
X-8040000Y-44755686D01*
X-8011002Y-44779484D01*
X-7015098Y-45775390D01*
X-7055990Y-45836589D01*
X-7167932Y-46106842D01*
X-7225000Y-46393740D01*
X-7225000Y-46686260D01*
X-7167932Y-46973158D01*
X-7055990Y-47243411D01*
X-6893475Y-47486632D01*
X-6686632Y-47693475D01*
X-6512240Y-47810000D01*
X-6686632Y-47926525D01*
X-6893475Y-48133368D01*
X-7055990Y-48376589D01*
X-7167932Y-48646842D01*
X-7225000Y-48933740D01*
X-7225000Y-49226260D01*
X-7167932Y-49513158D01*
X-7055990Y-49783411D01*
X-6893475Y-50026632D01*
X-6686632Y-50233475D01*
X-6512240Y-50350000D01*
X-6686632Y-50466525D01*
X-6893475Y-50673368D01*
X-7055990Y-50916589D01*
X-7167932Y-51186842D01*
X-7225000Y-51473740D01*
X-7225000Y-51766260D01*
X-7167932Y-52053158D01*
X-7055990Y-52323411D01*
X-6893475Y-52566632D01*
X-6686632Y-52773475D01*
X-6512240Y-52890000D01*
X-6686632Y-53006525D01*
X-6893475Y-53213368D01*
X-7055990Y-53456589D01*
X-7167932Y-53726842D01*
X-7225000Y-54013740D01*
X-7225000Y-54306260D01*
X-7167932Y-54593158D01*
X-7055990Y-54863411D01*
X-6893475Y-55106632D01*
X-6686632Y-55313475D01*
X-6512240Y-55430000D01*
X-6686632Y-55546525D01*
X-6893475Y-55753368D01*
X-7055990Y-55996589D01*
X-7167932Y-56266842D01*
X-7225000Y-56553740D01*
X-7225000Y-56846260D01*
X-7167932Y-57133158D01*
X-7055990Y-57403411D01*
X-6893475Y-57646632D01*
X-6686632Y-57853475D01*
X-6512240Y-57970000D01*
X-6686632Y-58086525D01*
X-6893475Y-58293368D01*
X-7055990Y-58536589D01*
X-7167932Y-58806842D01*
X-7225000Y-59093740D01*
X-7225000Y-59386260D01*
X-7167932Y-59673158D01*
X-7055990Y-59943411D01*
X-6893475Y-60186632D01*
X-6686632Y-60393475D01*
X-6512240Y-60510000D01*
X-6686632Y-60626525D01*
X-6893475Y-60833368D01*
X-7055990Y-61076589D01*
X-7167932Y-61346842D01*
X-7225000Y-61633740D01*
X-7225000Y-61926260D01*
X-7167932Y-62213158D01*
X-7055990Y-62483411D01*
X-6893475Y-62726632D01*
X-6686632Y-62933475D01*
X-6512240Y-63050000D01*
X-6686632Y-63166525D01*
X-6893475Y-63373368D01*
X-7055990Y-63616589D01*
X-7167932Y-63886842D01*
X-7225000Y-64173740D01*
X-7225000Y-64466260D01*
X-7167932Y-64753158D01*
X-7055990Y-65023411D01*
X-6893475Y-65266632D01*
X-6686632Y-65473475D01*
X-6512240Y-65590000D01*
X-6686632Y-65706525D01*
X-6893475Y-65913368D01*
X-7055990Y-66156589D01*
X-7167932Y-66426842D01*
X-7225000Y-66713740D01*
X-7225000Y-67006260D01*
X-7167932Y-67293158D01*
X-7055990Y-67563411D01*
X-6893475Y-67806632D01*
X-6686632Y-68013475D01*
X-6512240Y-68130000D01*
X-6686632Y-68246525D01*
X-6893475Y-68453368D01*
X-7055990Y-68696589D01*
X-7167932Y-68966842D01*
X-7225000Y-69253740D01*
X-7225000Y-69546260D01*
X-7167932Y-69833158D01*
X-7055990Y-70103411D01*
X-6893475Y-70346632D01*
X-6686632Y-70553475D01*
X-6512240Y-70670000D01*
X-6686632Y-70786525D01*
X-6893475Y-70993368D01*
X-7055990Y-71236589D01*
X-7167932Y-71506842D01*
X-7225000Y-71793740D01*
X-7225000Y-72086260D01*
X-7167932Y-72373158D01*
X-7055990Y-72643411D01*
X-6893475Y-72886632D01*
X-6686632Y-73093475D01*
X-6512240Y-73210000D01*
X-6686632Y-73326525D01*
X-6893475Y-73533368D01*
X-7055990Y-73776589D01*
X-7167932Y-74046842D01*
X-7225000Y-74333740D01*
X-7225000Y-74626260D01*
X-7167932Y-74913158D01*
X-7055990Y-75183411D01*
X-6893475Y-75426632D01*
X-6686632Y-75633475D01*
X-6512240Y-75750000D01*
X-6686632Y-75866525D01*
X-6893475Y-76073368D01*
X-7055990Y-76316589D01*
X-7167932Y-76586842D01*
X-7225000Y-76873740D01*
X-7225000Y-77166260D01*
X-7167932Y-77453158D01*
X-7055990Y-77723411D01*
X-6893475Y-77966632D01*
X-6686632Y-78173475D01*
X-6443411Y-78335990D01*
X-6173158Y-78447932D01*
X-5886260Y-78505000D01*
X-5593740Y-78505000D01*
X-5306842Y-78447932D01*
X-5036589Y-78335990D01*
X-4793368Y-78173475D01*
X-4586525Y-77966632D01*
X-4470000Y-77792240D01*
X-4353475Y-77966632D01*
X-4146632Y-78173475D01*
X-3903411Y-78335990D01*
X-3633158Y-78447932D01*
X-3346260Y-78505000D01*
X-3053740Y-78505000D01*
X-2766842Y-78447932D01*
X-2496589Y-78335990D01*
X-2253368Y-78173475D01*
X-2046525Y-77966632D01*
X-1884010Y-77723411D01*
X-1772068Y-77453158D01*
X-1715000Y-77166260D01*
X-1715000Y-76873740D01*
X-1772068Y-76586842D01*
X-1884010Y-76316589D01*
X-2046525Y-76073368D01*
X-2253368Y-75866525D01*
X-2427760Y-75750000D01*
X-2253368Y-75633475D01*
X-2046525Y-75426632D01*
X-1884010Y-75183411D01*
X-1772068Y-74913158D01*
X-1715000Y-74626260D01*
X-1715000Y-74333740D01*
X-1772068Y-74046842D01*
X-1884010Y-73776589D01*
X-2046525Y-73533368D01*
X-2253368Y-73326525D01*
X-2427760Y-73210000D01*
X-2253368Y-73093475D01*
X-2046525Y-72886632D01*
X-1884010Y-72643411D01*
X-1772068Y-72373158D01*
X-1715000Y-72086260D01*
X-1715000Y-71793740D01*
X-1772068Y-71506842D01*
X-1884010Y-71236589D01*
X-2046525Y-70993368D01*
X-2253368Y-70786525D01*
X-2427760Y-70670000D01*
X-2253368Y-70553475D01*
X-2046525Y-70346632D01*
X-1884010Y-70103411D01*
X-1772068Y-69833158D01*
X-1715000Y-69546260D01*
X-1715000Y-69253740D01*
X-1772068Y-68966842D01*
X-1884010Y-68696589D01*
X-2046525Y-68453368D01*
X-2253368Y-68246525D01*
X-2427760Y-68130000D01*
X-2253368Y-68013475D01*
X-2046525Y-67806632D01*
X-1884010Y-67563411D01*
X-1772068Y-67293158D01*
X-1715000Y-67006260D01*
X-1715000Y-66713740D01*
X-1772068Y-66426842D01*
X-1884010Y-66156589D01*
X-2046525Y-65913368D01*
X-2253368Y-65706525D01*
X-2427760Y-65590000D01*
X-2253368Y-65473475D01*
X-2046525Y-65266632D01*
X-1884010Y-65023411D01*
X-1772068Y-64753158D01*
X-1715000Y-64466260D01*
X-1715000Y-64173740D01*
X-1772068Y-63886842D01*
X-1884010Y-63616589D01*
X-2046525Y-63373368D01*
X-2253368Y-63166525D01*
X-2427760Y-63050000D01*
X-2253368Y-62933475D01*
X-2046525Y-62726632D01*
X-1884010Y-62483411D01*
X-1772068Y-62213158D01*
X-1715000Y-61926260D01*
X-1715000Y-61633740D01*
X-1772068Y-61346842D01*
X-1884010Y-61076589D01*
X-2046525Y-60833368D01*
X-2253368Y-60626525D01*
X-2427760Y-60510000D01*
X-2253368Y-60393475D01*
X-2046525Y-60186632D01*
X-1884010Y-59943411D01*
X-1772068Y-59673158D01*
X-1715000Y-59386260D01*
X-1715000Y-59093740D01*
X-1772068Y-58806842D01*
X-1884010Y-58536589D01*
X-2046525Y-58293368D01*
X-2253368Y-58086525D01*
X-2427760Y-57970000D01*
X-2253368Y-57853475D01*
X-2046525Y-57646632D01*
X-1884010Y-57403411D01*
X-1772068Y-57133158D01*
X-1715000Y-56846260D01*
X-1715000Y-56553740D01*
X-1772068Y-56266842D01*
X-1884010Y-55996589D01*
X-2046525Y-55753368D01*
X-2253368Y-55546525D01*
X-2426729Y-55430689D01*
X-2351208Y-55188397D01*
X-3200000Y-54339605D01*
X-4048792Y-55188397D01*
X-3973271Y-55430689D01*
X-4146632Y-55546525D01*
X-4353475Y-55753368D01*
X-4470000Y-55927760D01*
X-4586525Y-55753368D01*
X-4793368Y-55546525D01*
X-4967760Y-55430000D01*
X-4793368Y-55313475D01*
X-4586525Y-55106632D01*
X-4470689Y-54933271D01*
X-4228397Y-55008792D01*
X-3379605Y-54160000D01*
X-3020395Y-54160000D01*
X-2171603Y-55008792D01*
X-1922528Y-54931157D01*
X-1796629Y-54667117D01*
X-1724661Y-54383589D01*
X-1709389Y-54091469D01*
X-1751401Y-53801981D01*
X-1849081Y-53526253D01*
X-1922528Y-53388843D01*
X-2171603Y-53311208D01*
X-3020395Y-54160000D01*
X-3379605Y-54160000D01*
X-4228397Y-53311208D01*
X-4470689Y-53386729D01*
X-4586525Y-53213368D01*
X-4793368Y-53006525D01*
X-4967760Y-52890000D01*
X-4793368Y-52773475D01*
X-4586525Y-52566632D01*
X-4470000Y-52392240D01*
X-4353475Y-52566632D01*
X-4146632Y-52773475D01*
X-3973271Y-52889311D01*
X-4048792Y-53131603D01*
X-3200000Y-53980395D01*
X-2351208Y-53131603D01*
X-2426729Y-52889311D01*
X-2253368Y-52773475D01*
X-2046525Y-52566632D01*
X-1884010Y-52323411D01*
X-1772068Y-52053158D01*
X-1715000Y-51766260D01*
X-1715000Y-51473740D01*
X-1772068Y-51186842D01*
X-1884010Y-50916589D01*
X-2046525Y-50673368D01*
X-2253368Y-50466525D01*
X-2427760Y-50350000D01*
X-2253368Y-50233475D01*
X-2046525Y-50026632D01*
X-1884010Y-49783411D01*
X-1772068Y-49513158D01*
X-1715000Y-49226260D01*
X-1715000Y-48933740D01*
X-1772068Y-48646842D01*
X-1884010Y-48376589D01*
X-2046525Y-48133368D01*
X-2253368Y-47926525D01*
X-2427760Y-47810000D01*
X-2253368Y-47693475D01*
X-2046525Y-47486632D01*
X-1884010Y-47243411D01*
X-1772068Y-46973158D01*
X-1715000Y-46686260D01*
X-1715000Y-46393740D01*
X-1772068Y-46106842D01*
X-1884010Y-45836589D01*
X-2046525Y-45593368D01*
X-2253368Y-45386525D01*
X-2427760Y-45270000D01*
X-2253368Y-45153475D01*
X-2046525Y-44946632D01*
X-1884010Y-44703411D01*
X-1772068Y-44433158D01*
X-1715000Y-44146260D01*
X-1715000Y-43853740D01*
X-1772068Y-43566842D01*
X-1884010Y-43296589D01*
X-2046525Y-43053368D01*
X-2253368Y-42846525D01*
X-2427760Y-42730000D01*
X-2253368Y-42613475D01*
X-2046525Y-42406632D01*
X-1884010Y-42163411D01*
X-1772068Y-41893158D01*
X-1715000Y-41606260D01*
X-1715000Y-41313740D01*
X-1772068Y-41026842D01*
X-1884010Y-40756589D01*
X-2046525Y-40513368D01*
X-2253368Y-40306525D01*
X-2427760Y-40190000D01*
X-2253368Y-40073475D01*
X-2046525Y-39866632D01*
X-1884010Y-39623411D01*
X-1772068Y-39353158D01*
X-1715000Y-39066260D01*
X-1715000Y-38773740D01*
X-1772068Y-38486842D01*
X-1884010Y-38216589D01*
X-2046525Y-37973368D01*
X-2253368Y-37766525D01*
X-2427760Y-37650000D01*
X-2253368Y-37533475D01*
X-2046525Y-37326632D01*
X-1884010Y-37083411D01*
X-1772068Y-36813158D01*
X-1715000Y-36526260D01*
X-1715000Y-36233740D01*
X-1772068Y-35946842D01*
X-1884010Y-35676589D01*
X-2046525Y-35433368D01*
X-2253368Y-35226525D01*
X-2427760Y-35110000D01*
X-2253368Y-34993475D01*
X-2046525Y-34786632D01*
X-1884010Y-34543411D01*
X-1772068Y-34273158D01*
X-1715000Y-33986260D01*
X-1715000Y-33693740D01*
X-1772068Y-33406842D01*
X-1884010Y-33136589D01*
X-2046525Y-32893368D01*
X-2253368Y-32686525D01*
X-2427760Y-32570000D01*
X-2253368Y-32453475D01*
X-2046525Y-32246632D01*
X-1884010Y-32003411D01*
X-1772068Y-31733158D01*
X-1715000Y-31446260D01*
X-1715000Y-31153740D01*
X-1772068Y-30866842D01*
X-1884010Y-30596589D01*
X-2046525Y-30353368D01*
X-2253368Y-30146525D01*
X-2496589Y-29984010D01*
X-2766842Y-29872068D01*
X-3053740Y-29815000D01*
X-3346260Y-29815000D01*
X-3633158Y-29872068D01*
X-3903411Y-29984010D01*
X-4146632Y-30146525D01*
X-4353475Y-30353368D01*
X-4470000Y-30527760D01*
X-4586525Y-30353368D01*
X-4755626Y-30184267D01*
X-4751939Y-30185000D01*
X-4548061Y-30185000D01*
X-4348102Y-30145226D01*
X-4159744Y-30067205D01*
X-3990226Y-29953937D01*
X-3846063Y-29809774D01*
X-3732795Y-29640256D01*
X-3654774Y-29451898D01*
X-3615000Y-29251939D01*
X-3615000Y-29048061D01*
X-3654774Y-28848102D01*
X-3732795Y-28659744D01*
X-3846063Y-28490226D01*
X-3990226Y-28346063D01*
X-4159744Y-28232795D01*
X-4348102Y-28154774D01*
X-4548061Y-28115000D01*
X-4751939Y-28115000D01*
X-4951898Y-28154774D01*
X-5140256Y-28232795D01*
X-5309774Y-28346063D01*
X-5353711Y-28390000D01*
X-5965000Y-28390000D01*
X-5965000Y-28248061D01*
X-6004774Y-28048102D01*
X-6082795Y-27859744D01*
X-6196063Y-27690226D01*
X-6340226Y-27546063D01*
X-6509744Y-27432795D01*
X-6698102Y-27354774D01*
X-6898061Y-27315000D01*
X-7101939Y-27315000D01*
X-7301898Y-27354774D01*
X-7490256Y-27432795D01*
X-7659774Y-27546063D01*
X-7703711Y-27590000D01*
X-9196289Y-27590000D01*
X-9240226Y-27546063D01*
X-9409744Y-27432795D01*
X-9598102Y-27354774D01*
X-9798061Y-27315000D01*
X-10001939Y-27315000D01*
X-10201898Y-27354774D01*
X-10390256Y-27432795D01*
X-10537415Y-27531123D01*
X-10609744Y-27482795D01*
X-10798102Y-27404774D01*
X-10998061Y-27365000D01*
X-11201939Y-27365000D01*
X-11401898Y-27404774D01*
X-11590256Y-27482795D01*
X-11759774Y-27596063D01*
X-11903937Y-27740226D01*
X-12017205Y-27909744D01*
X-12095226Y-28098102D01*
X-12135000Y-28298061D01*
X-68580000Y-28298061D01*
X-68580000Y-25114080D01*
X-65884475Y-25114080D01*
X-65800792Y-25368261D01*
X-65528225Y-25499158D01*
X-65235358Y-25574365D01*
X-64933447Y-25590991D01*
X-64634093Y-25548397D01*
X-64348801Y-25448222D01*
X-64199208Y-25368261D01*
X-64115525Y-25114080D01*
X-65000000Y-24229605D01*
X-65884475Y-25114080D01*
X-68580000Y-25114080D01*
X-68580000Y-24116553D01*
X-66540991Y-24116553D01*
X-66498397Y-24415907D01*
X-66398222Y-24701199D01*
X-66318261Y-24850792D01*
X-66064080Y-24934475D01*
X-65179605Y-24050000D01*
X-64820395Y-24050000D01*
X-63935920Y-24934475D01*
X-63681739Y-24850792D01*
X-63550842Y-24578225D01*
X-63475635Y-24285358D01*
X-63459009Y-23983447D01*
X-63485386Y-23798061D01*
X-46135000Y-23798061D01*
X-46135000Y-24001939D01*
X-46095226Y-24201898D01*
X-46017205Y-24390256D01*
X-45903937Y-24559774D01*
X-45759774Y-24703937D01*
X-45590256Y-24817205D01*
X-45401898Y-24895226D01*
X-45201939Y-24935000D01*
X-44998061Y-24935000D01*
X-44798102Y-24895226D01*
X-44609744Y-24817205D01*
X-44440226Y-24703937D01*
X-44396289Y-24660000D01*
X-31803701Y-24660000D01*
X-31759764Y-24703937D01*
X-31590246Y-24817205D01*
X-31401888Y-24895226D01*
X-31201929Y-24935000D01*
X-30998051Y-24935000D01*
X-30798092Y-24895226D01*
X-30609734Y-24817205D01*
X-30440216Y-24703937D01*
X-30296053Y-24559774D01*
X-30182785Y-24390256D01*
X-30104764Y-24201898D01*
X-30064990Y-24001939D01*
X-30064990Y-23798061D01*
X-30104764Y-23598102D01*
X-30182785Y-23409744D01*
X-30296053Y-23240226D01*
X-30440216Y-23096063D01*
X-30609734Y-22982795D01*
X-30798092Y-22904774D01*
X-30998051Y-22865000D01*
X-31201929Y-22865000D01*
X-31401888Y-22904774D01*
X-31590246Y-22982795D01*
X-31759764Y-23096063D01*
X-31803701Y-23140000D01*
X-44396289Y-23140000D01*
X-44440226Y-23096063D01*
X-44609744Y-22982795D01*
X-44798102Y-22904774D01*
X-44998061Y-22865000D01*
X-45201939Y-22865000D01*
X-45401898Y-22904774D01*
X-45590256Y-22982795D01*
X-45759774Y-23096063D01*
X-45903937Y-23240226D01*
X-46017205Y-23409744D01*
X-46095226Y-23598102D01*
X-46135000Y-23798061D01*
X-63485386Y-23798061D01*
X-63501603Y-23684093D01*
X-63601778Y-23398801D01*
X-63681739Y-23249208D01*
X-63935920Y-23165525D01*
X-64820395Y-24050000D01*
X-65179605Y-24050000D01*
X-66064080Y-23165525D01*
X-66318261Y-23249208D01*
X-66449158Y-23521775D01*
X-66524365Y-23814642D01*
X-66540991Y-24116553D01*
X-68580000Y-24116553D01*
X-68580000Y-22985920D01*
X-65884475Y-22985920D01*
X-65000000Y-23870395D01*
X-64115525Y-22985920D01*
X-64199208Y-22731739D01*
X-64471775Y-22600842D01*
X-64764642Y-22525635D01*
X-65066553Y-22509009D01*
X-65365907Y-22551603D01*
X-65651199Y-22651778D01*
X-65800792Y-22731739D01*
X-65884475Y-22985920D01*
X-68580000Y-22985920D01*
X-68580000Y-18898816D01*
X-66535000Y-18898816D01*
X-66535000Y-19201184D01*
X-66476011Y-19497743D01*
X-66360299Y-19777095D01*
X-66192312Y-20028505D01*
X-65978505Y-20242312D01*
X-65727095Y-20410299D01*
X-65447743Y-20526011D01*
X-65151184Y-20585000D01*
X-64848816Y-20585000D01*
X-64552257Y-20526011D01*
X-64272905Y-20410299D01*
X-64021495Y-20242312D01*
X-63807688Y-20028505D01*
X-63639701Y-19777095D01*
X-63523989Y-19497743D01*
X-63465000Y-19201184D01*
X-63465000Y-18898816D01*
X-63523989Y-18602257D01*
X-63639701Y-18322905D01*
X-63807688Y-18071495D01*
X-64021495Y-17857688D01*
X-64272905Y-17689701D01*
X-64552257Y-17573989D01*
X-64848816Y-17515000D01*
X-65151184Y-17515000D01*
X-65447743Y-17573989D01*
X-65727095Y-17689701D01*
X-65978505Y-17857688D01*
X-66192312Y-18071495D01*
X-66360299Y-18322905D01*
X-66476011Y-18602257D01*
X-66535000Y-18898816D01*
X-68580000Y-18898816D01*
X-68580000Y-12000000D01*
X-59138072Y-12000000D01*
X-59125812Y-12124482D01*
X-59089502Y-12244180D01*
X-59030537Y-12354494D01*
X-58951185Y-12451185D01*
X-58854494Y-12530537D01*
X-58744180Y-12589502D01*
X-58624482Y-12625812D01*
X-58500000Y-12638072D01*
X-57935750Y-12635000D01*
X-57777000Y-12476250D01*
X-57777000Y-11277000D01*
X-57523000Y-11277000D01*
X-57523000Y-12476250D01*
X-57364250Y-12635000D01*
X-56800000Y-12638072D01*
X-56675518Y-12625812D01*
X-56555820Y-12589502D01*
X-56445506Y-12530537D01*
X-56348815Y-12451185D01*
X-56269463Y-12354494D01*
X-56210498Y-12244180D01*
X-56174188Y-12124482D01*
X-56161928Y-12000000D01*
X-56165000Y-11435750D01*
X-56323750Y-11277000D01*
X-57523000Y-11277000D01*
X-57777000Y-11277000D01*
X-58976250Y-11277000D01*
X-59135000Y-11435750D01*
X-59138072Y-12000000D01*
X-68580000Y-12000000D01*
X-68580000Y-10300000D01*
X-59138072Y-10300000D01*
X-59135000Y-10864250D01*
X-58976250Y-11023000D01*
X-57777000Y-11023000D01*
X-57777000Y-11003000D01*
X-57523000Y-11003000D01*
X-57523000Y-11023000D01*
X-56323750Y-11023000D01*
X-56165000Y-10864250D01*
X-56161928Y-10300000D01*
X-56174188Y-10175518D01*
X-56210498Y-10055820D01*
X-56269463Y-9945506D01*
X-56348815Y-9848815D01*
X-56445506Y-9769463D01*
X-56555820Y-9710498D01*
X-56628380Y-9688487D01*
X-56496525Y-9556632D01*
X-56334010Y-9313411D01*
X-56222068Y-9043158D01*
X-56165000Y-8756260D01*
X-56165000Y-8463740D01*
X-56222068Y-8176842D01*
X-56334010Y-7906589D01*
X-56496525Y-7663368D01*
X-56703368Y-7456525D01*
X-56877760Y-7340000D01*
X-56703368Y-7223475D01*
X-56496525Y-7016632D01*
X-56334010Y-6773411D01*
X-56222068Y-6503158D01*
X-56165000Y-6216260D01*
X-56165000Y-5923740D01*
X-56222068Y-5636842D01*
X-56334010Y-5366589D01*
X-56496525Y-5123368D01*
X-56703368Y-4916525D01*
X-56877760Y-4800000D01*
X-56703368Y-4683475D01*
X-56496525Y-4476632D01*
X-56334010Y-4233411D01*
X-56222068Y-3963158D01*
X-56165000Y-3676260D01*
X-56165000Y-3383740D01*
X-56222068Y-3096842D01*
X-56334010Y-2826589D01*
X-56496525Y-2583368D01*
X-56703368Y-2376525D01*
X-56946589Y-2214010D01*
X-57216842Y-2102068D01*
X-57503740Y-2045000D01*
X-57796260Y-2045000D01*
X-58083158Y-2102068D01*
X-58353411Y-2214010D01*
X-58596632Y-2376525D01*
X-58803475Y-2583368D01*
X-58965990Y-2826589D01*
X-59077932Y-3096842D01*
X-59135000Y-3383740D01*
X-59135000Y-3676260D01*
X-59077932Y-3963158D01*
X-58965990Y-4233411D01*
X-58803475Y-4476632D01*
X-58596632Y-4683475D01*
X-58422240Y-4800000D01*
X-58596632Y-4916525D01*
X-58803475Y-5123368D01*
X-58965990Y-5366589D01*
X-59077932Y-5636842D01*
X-59135000Y-5923740D01*
X-59135000Y-6216260D01*
X-59077932Y-6503158D01*
X-58965990Y-6773411D01*
X-58803475Y-7016632D01*
X-58596632Y-7223475D01*
X-58422240Y-7340000D01*
X-58596632Y-7456525D01*
X-58803475Y-7663368D01*
X-58965990Y-7906589D01*
X-59077932Y-8176842D01*
X-59135000Y-8463740D01*
X-59135000Y-8756260D01*
X-59077932Y-9043158D01*
X-58965990Y-9313411D01*
X-58803475Y-9556632D01*
X-58671620Y-9688487D01*
X-58744180Y-9710498D01*
X-58854494Y-9769463D01*
X-58951185Y-9848815D01*
X-59030537Y-9945506D01*
X-59089502Y-10055820D01*
X-59125812Y-10175518D01*
X-59138072Y-10300000D01*
X-68580000Y-10300000D01*
X-68580000Y-6928397D01*
X-67548792Y-6928397D01*
X-67471157Y-7177472D01*
X-67207117Y-7303371D01*
X-66923589Y-7375339D01*
X-66631469Y-7390611D01*
X-66341981Y-7348599D01*
X-66066253Y-7250919D01*
X-65928843Y-7177472D01*
X-65851208Y-6928397D01*
X-66700000Y-6079605D01*
X-67548792Y-6928397D01*
X-68580000Y-6928397D01*
X-68580000Y-5968531D01*
X-68190611Y-5968531D01*
X-68148599Y-6258019D01*
X-68050919Y-6533747D01*
X-67977472Y-6671157D01*
X-67728397Y-6748792D01*
X-66879605Y-5900000D01*
X-66520395Y-5900000D01*
X-65671603Y-6748792D01*
X-65422528Y-6671157D01*
X-65296629Y-6407117D01*
X-65224661Y-6123589D01*
X-65209389Y-5831469D01*
X-65251401Y-5541981D01*
X-65349081Y-5266253D01*
X-65422528Y-5128843D01*
X-65671603Y-5051208D01*
X-66520395Y-5900000D01*
X-66879605Y-5900000D01*
X-67728397Y-5051208D01*
X-67977472Y-5128843D01*
X-68103371Y-5392883D01*
X-68175339Y-5676411D01*
X-68190611Y-5968531D01*
X-68580000Y-5968531D01*
X-68580000Y-4388397D01*
X-67548792Y-4388397D01*
X-67473486Y-4630000D01*
X-67548792Y-4871603D01*
X-66700000Y-5720395D01*
X-65851208Y-4871603D01*
X-65926514Y-4630000D01*
X-65851208Y-4388397D01*
X-66700000Y-3539605D01*
X-67548792Y-4388397D01*
X-68580000Y-4388397D01*
X-68580000Y-3428531D01*
X-68190611Y-3428531D01*
X-68148599Y-3718019D01*
X-68050919Y-3993747D01*
X-67977472Y-4131157D01*
X-67728397Y-4208792D01*
X-66879605Y-3360000D01*
X-66520395Y-3360000D01*
X-65671603Y-4208792D01*
X-65422528Y-4131157D01*
X-65296629Y-3867117D01*
X-65224661Y-3583589D01*
X-65209389Y-3291469D01*
X-65251401Y-3001981D01*
X-65349081Y-2726253D01*
X-65422528Y-2588843D01*
X-65671603Y-2511208D01*
X-66520395Y-3360000D01*
X-66879605Y-3360000D01*
X-67728397Y-2511208D01*
X-67977472Y-2588843D01*
X-68103371Y-2852883D01*
X-68175339Y-3136411D01*
X-68190611Y-3428531D01*
X-68580000Y-3428531D01*
X-68580000Y-3392279D01*
X-68541091Y-2995455D01*
X-68435220Y-2644792D01*
X-68268695Y-2331603D01*
X-67548792Y-2331603D01*
X-66700000Y-3180395D01*
X-65851208Y-2331603D01*
X-65928843Y-2082528D01*
X-66192883Y-1956629D01*
X-66476411Y-1884661D01*
X-66768531Y-1869389D01*
X-67058019Y-1911401D01*
X-67333747Y-2009081D01*
X-67471157Y-2082528D01*
X-67548792Y-2331603D01*
X-68268695Y-2331603D01*
X-68263256Y-2321375D01*
X-68031746Y-2037516D01*
X-67749514Y-1804035D01*
X-67427305Y-1629817D01*
X-67077386Y-1521498D01*
X-66682557Y-1480000D01*
X-36580712Y-1480000D01*
X-36722578Y-1555829D01*
G37*
%TD.AperFunction*%
%TD*%
M02*
