%TF.GenerationSoftware,KiCad,Pcbnew,5.1.9*%
%TF.CreationDate,2021-01-24T08:51:39-05:00*%
%TF.ProjectId,CANalog_nucleo,43414e61-6c6f-4675-9f6e-75636c656f2e,rev?*%
%TF.SameCoordinates,PX700e860PY1298be0*%
%TF.FileFunction,Soldermask,Bot*%
%TF.FilePolarity,Negative*%
%FSLAX46Y46*%
G04 Gerber Fmt 4.6, Leading zero omitted, Abs format (unit mm)*
G04 Created by KiCad (PCBNEW 5.1.9) date 2021-01-24 08:51:39*
%MOMM*%
%LPD*%
G01*
G04 APERTURE LIST*
%ADD10O,1.727200X1.727200*%
%ADD11R,1.727200X1.727200*%
%ADD12O,1.050000X1.900000*%
%ADD13C,1.700000*%
%ADD14R,1.700000X1.700000*%
%ADD15O,1.700000X1.700000*%
%ADD16C,4.000000*%
%ADD17C,1.600000*%
%ADD18R,1.600000X1.600000*%
%ADD19C,1.800000*%
%ADD20R,3.000000X3.000000*%
%ADD21C,3.000000*%
G04 APERTURE END LIST*
D10*
%TO.C,U2*%
X-12280000Y-11819167D03*
X-14820000Y-11819167D03*
X-12280000Y-9279167D03*
X-14820000Y-9279167D03*
X-12280000Y-6739167D03*
X-14820000Y-6739167D03*
X-12280000Y-4199167D03*
D11*
X-14820000Y-4199167D03*
%TD*%
D12*
%TO.C,J1*%
X-36075000Y-2950000D03*
X-28925000Y-2950000D03*
%TD*%
D13*
%TO.C,U1*%
X-3200000Y-5900000D03*
X-3200000Y-3360000D03*
X-66700000Y-5900000D03*
X-66700000Y-3360000D03*
X-3200000Y-77020000D03*
X-5740000Y-77020000D03*
X-3200000Y-74480000D03*
X-5740000Y-74480000D03*
X-3200000Y-71940000D03*
X-5740000Y-71940000D03*
X-3200000Y-69400000D03*
X-5740000Y-69400000D03*
X-3200000Y-66860000D03*
X-5740000Y-66860000D03*
X-3200000Y-64320000D03*
X-5740000Y-64320000D03*
X-3200000Y-61780000D03*
X-5740000Y-61780000D03*
X-3200000Y-59240000D03*
X-5740000Y-59240000D03*
X-3200000Y-56700000D03*
X-5740000Y-56700000D03*
X-3200000Y-54160000D03*
X-5740000Y-54160000D03*
X-3200000Y-51620000D03*
X-5740000Y-51620000D03*
X-3200000Y-49080000D03*
X-5740000Y-49080000D03*
X-3200000Y-46540000D03*
X-5740000Y-46540000D03*
X-3200000Y-44000000D03*
X-5740000Y-44000000D03*
X-3200000Y-41460000D03*
X-5740000Y-41460000D03*
X-3200000Y-38920000D03*
X-5740000Y-38920000D03*
X-3200000Y-36380000D03*
X-5740000Y-36380000D03*
X-3200000Y-33840000D03*
X-5740000Y-33840000D03*
X-3200000Y-31300000D03*
X-5740000Y-31300000D03*
X-64160000Y-77020000D03*
X-66700000Y-77020000D03*
X-64160000Y-74480000D03*
X-66700000Y-74480000D03*
X-64160000Y-71940000D03*
X-66700000Y-71940000D03*
X-64160000Y-69400000D03*
X-66700000Y-69400000D03*
X-64160000Y-66860000D03*
X-66700000Y-66860000D03*
X-64160000Y-64320000D03*
X-66700000Y-64320000D03*
X-64160000Y-61780000D03*
X-66700000Y-61780000D03*
X-64160000Y-59240000D03*
X-66700000Y-59240000D03*
X-64160000Y-56700000D03*
X-66700000Y-56700000D03*
X-64160000Y-54160000D03*
X-66700000Y-54160000D03*
X-64160000Y-51620000D03*
X-66700000Y-51620000D03*
X-64160000Y-49080000D03*
X-66700000Y-49080000D03*
X-64160000Y-46540000D03*
X-66700000Y-46540000D03*
X-64160000Y-44000000D03*
X-66700000Y-44000000D03*
X-64160000Y-41460000D03*
X-66700000Y-41460000D03*
X-64160000Y-38920000D03*
X-66700000Y-38920000D03*
X-64160000Y-36380000D03*
X-66700000Y-36380000D03*
X-64160000Y-33840000D03*
X-66700000Y-33840000D03*
X-64160000Y-31300000D03*
D14*
X-66700000Y-31300000D03*
%TD*%
D15*
%TO.C,JP1*%
X-16940000Y-62100000D03*
D14*
X-14400000Y-62100000D03*
%TD*%
D16*
%TO.C,J6*%
X-12210000Y-70470000D03*
X-37210000Y-70470000D03*
D17*
X-20555000Y-71890000D03*
X-23325000Y-71890000D03*
X-26095000Y-71890000D03*
X-28865000Y-71890000D03*
X-19170000Y-69050000D03*
X-21940000Y-69050000D03*
X-24710000Y-69050000D03*
X-27480000Y-69050000D03*
D18*
X-30250000Y-69050000D03*
%TD*%
D19*
%TO.C,J5*%
X-65000000Y-24050000D03*
X-65000000Y-19050000D03*
%TD*%
D15*
%TO.C,J4*%
X-57650000Y-3530000D03*
X-57650000Y-6070000D03*
X-57650000Y-8610000D03*
D14*
X-57650000Y-11150000D03*
%TD*%
D19*
%TO.C,J3*%
X-57850000Y-40050000D03*
X-57850000Y-35050000D03*
%TD*%
D15*
%TO.C,J2*%
X-59200000Y-65340000D03*
X-59200000Y-67880000D03*
X-59200000Y-70420000D03*
X-59200000Y-72960000D03*
D14*
X-59200000Y-75500000D03*
%TD*%
D20*
%TO.C,BT1*%
X-53240000Y-47400000D03*
D21*
X-32750000Y-47400000D03*
%TD*%
M02*
