%TF.GenerationSoftware,KiCad,Pcbnew,5.1.9*%
%TF.CreationDate,2021-03-01T19:41:54-05:00*%
%TF.ProjectId,CANalog_nucleo,43414e61-6c6f-4675-9f6e-75636c656f2e,rev?*%
%TF.SameCoordinates,PX700e860PY1298be0*%
%TF.FileFunction,Soldermask,Top*%
%TF.FilePolarity,Negative*%
%FSLAX46Y46*%
G04 Gerber Fmt 4.6, Leading zero omitted, Abs format (unit mm)*
G04 Created by KiCad (PCBNEW 5.1.9) date 2021-03-01 19:41:54*
%MOMM*%
%LPD*%
G01*
G04 APERTURE LIST*
%ADD10R,2.500000X1.100000*%
%ADD11R,1.100000X2.500000*%
%ADD12R,1.700000X1.700000*%
%ADD13C,1.700000*%
%ADD14R,0.650000X0.400000*%
%ADD15R,1.060000X0.650000*%
%ADD16R,0.650000X1.060000*%
%ADD17C,2.000000*%
%ADD18R,0.900000X0.800000*%
%ADD19R,1.100000X3.000000*%
%ADD20R,1.300000X3.000000*%
%ADD21O,1.700000X1.700000*%
%ADD22C,1.800000*%
%ADD23R,1.430000X2.500000*%
%ADD24O,1.350000X1.700000*%
%ADD25O,1.100000X1.500000*%
%ADD26R,0.400000X1.650000*%
%ADD27R,2.000000X1.500000*%
%ADD28R,1.825000X0.700000*%
%ADD29R,1.350000X2.000000*%
%ADD30R,0.450000X0.700000*%
%ADD31R,1.600000X1.800000*%
%ADD32O,1.600000X1.600000*%
%ADD33R,1.600000X1.600000*%
%ADD34R,1.800000X1.600000*%
%ADD35R,1.000000X1.700000*%
%ADD36C,1.600000*%
%ADD37C,4.000000*%
G04 APERTURE END LIST*
D10*
%TO.C,U5*%
X-18950000Y-23590000D03*
X-18950000Y-21590000D03*
X-18950000Y-19590000D03*
X-18950000Y-17590000D03*
X-18950000Y-15590000D03*
X-18950000Y-13590000D03*
D11*
X-3250000Y-26300000D03*
X-5250000Y-26300000D03*
X-7250000Y-26300000D03*
X-9250000Y-26300000D03*
X-11250000Y-26300000D03*
X-13250000Y-26300000D03*
X-15250000Y-26300000D03*
X-17250000Y-26300000D03*
X-17250000Y-10900000D03*
X-15250000Y-10900000D03*
X-13250000Y-10900000D03*
X-11250000Y-10900000D03*
X-9250000Y-10900000D03*
X-7250000Y-10900000D03*
X-5250000Y-10900000D03*
X-3250000Y-10900000D03*
%TD*%
D12*
%TO.C,U1*%
X-66700000Y-31300000D03*
D13*
X-64160000Y-31300000D03*
X-66700000Y-33840000D03*
X-64160000Y-33840000D03*
X-66700000Y-36380000D03*
X-64160000Y-36380000D03*
X-66700000Y-38920000D03*
X-64160000Y-38920000D03*
X-66700000Y-41460000D03*
X-64160000Y-41460000D03*
X-66700000Y-44000000D03*
X-64160000Y-44000000D03*
X-66700000Y-46540000D03*
X-64160000Y-46540000D03*
X-66700000Y-49080000D03*
X-64160000Y-49080000D03*
X-66700000Y-51620000D03*
X-64160000Y-51620000D03*
X-66700000Y-54160000D03*
X-64160000Y-54160000D03*
X-66700000Y-56700000D03*
X-64160000Y-56700000D03*
X-66700000Y-59240000D03*
X-64160000Y-59240000D03*
X-66700000Y-61780000D03*
X-64160000Y-61780000D03*
X-66700000Y-64320000D03*
X-64160000Y-64320000D03*
X-66700000Y-66860000D03*
X-64160000Y-66860000D03*
X-66700000Y-69400000D03*
X-64160000Y-69400000D03*
X-66700000Y-71940000D03*
X-64160000Y-71940000D03*
X-66700000Y-74480000D03*
X-64160000Y-74480000D03*
X-66700000Y-77020000D03*
X-64160000Y-77020000D03*
X-5740000Y-31300000D03*
X-3200000Y-31300000D03*
X-5740000Y-33840000D03*
X-3200000Y-33840000D03*
X-5740000Y-36380000D03*
X-3200000Y-36380000D03*
X-5740000Y-38920000D03*
X-3200000Y-38920000D03*
X-5740000Y-41460000D03*
X-3200000Y-41460000D03*
X-5740000Y-44000000D03*
X-3200000Y-44000000D03*
X-5740000Y-46540000D03*
X-3200000Y-46540000D03*
X-5740000Y-49080000D03*
X-3200000Y-49080000D03*
X-5740000Y-51620000D03*
X-3200000Y-51620000D03*
X-5740000Y-54160000D03*
X-3200000Y-54160000D03*
X-5740000Y-56700000D03*
X-3200000Y-56700000D03*
X-5740000Y-59240000D03*
X-3200000Y-59240000D03*
X-5740000Y-61780000D03*
X-3200000Y-61780000D03*
X-5740000Y-64320000D03*
X-3200000Y-64320000D03*
X-5740000Y-66860000D03*
X-3200000Y-66860000D03*
X-5740000Y-69400000D03*
X-3200000Y-69400000D03*
X-5740000Y-71940000D03*
X-3200000Y-71940000D03*
X-5740000Y-74480000D03*
X-3200000Y-74480000D03*
X-5740000Y-77020000D03*
X-3200000Y-77020000D03*
X-66700000Y-3360000D03*
X-66700000Y-5900000D03*
X-3200000Y-3360000D03*
X-3200000Y-5900000D03*
%TD*%
D14*
%TO.C,U7*%
X-31250000Y-63000000D03*
X-31250000Y-64300000D03*
X-33150000Y-63650000D03*
X-33150000Y-64300000D03*
X-33150000Y-63000000D03*
%TD*%
D15*
%TO.C,U6*%
X-58800000Y-21950000D03*
X-58800000Y-23850000D03*
X-61000000Y-23850000D03*
X-61000000Y-22900000D03*
X-61000000Y-21950000D03*
%TD*%
D16*
%TO.C,U2*%
X-40700000Y-41950000D03*
X-39750000Y-41950000D03*
X-41650000Y-41950000D03*
X-41650000Y-39750000D03*
X-40700000Y-39750000D03*
X-39750000Y-39750000D03*
%TD*%
D17*
%TO.C,SW2*%
X-32750000Y-7600000D03*
X-32750000Y-3100000D03*
X-26250000Y-7600000D03*
X-26250000Y-3100000D03*
%TD*%
%TO.C,SW1*%
X-44300000Y-7600000D03*
X-44300000Y-3100000D03*
X-37800000Y-7600000D03*
X-37800000Y-3100000D03*
%TD*%
%TO.C,R28*%
G36*
G01*
X-17650001Y-60900000D02*
X-16749999Y-60900000D01*
G75*
G02*
X-16500000Y-61149999I0J-249999D01*
G01*
X-16500000Y-61675001D01*
G75*
G02*
X-16749999Y-61925000I-249999J0D01*
G01*
X-17650001Y-61925000D01*
G75*
G02*
X-17900000Y-61675001I0J249999D01*
G01*
X-17900000Y-61149999D01*
G75*
G02*
X-17650001Y-60900000I249999J0D01*
G01*
G37*
G36*
G01*
X-17650001Y-59075000D02*
X-16749999Y-59075000D01*
G75*
G02*
X-16500000Y-59324999I0J-249999D01*
G01*
X-16500000Y-59850001D01*
G75*
G02*
X-16749999Y-60100000I-249999J0D01*
G01*
X-17650001Y-60100000D01*
G75*
G02*
X-17900000Y-59850001I0J249999D01*
G01*
X-17900000Y-59324999D01*
G75*
G02*
X-17650001Y-59075000I249999J0D01*
G01*
G37*
%TD*%
%TO.C,R27*%
G36*
G01*
X-57650000Y-56899999D02*
X-57650000Y-57800001D01*
G75*
G02*
X-57899999Y-58050000I-249999J0D01*
G01*
X-58425001Y-58050000D01*
G75*
G02*
X-58675000Y-57800001I0J249999D01*
G01*
X-58675000Y-56899999D01*
G75*
G02*
X-58425001Y-56650000I249999J0D01*
G01*
X-57899999Y-56650000D01*
G75*
G02*
X-57650000Y-56899999I0J-249999D01*
G01*
G37*
G36*
G01*
X-55825000Y-56899999D02*
X-55825000Y-57800001D01*
G75*
G02*
X-56074999Y-58050000I-249999J0D01*
G01*
X-56600001Y-58050000D01*
G75*
G02*
X-56850000Y-57800001I0J249999D01*
G01*
X-56850000Y-56899999D01*
G75*
G02*
X-56600001Y-56650000I249999J0D01*
G01*
X-56074999Y-56650000D01*
G75*
G02*
X-55825000Y-56899999I0J-249999D01*
G01*
G37*
%TD*%
%TO.C,R26*%
G36*
G01*
X-57650000Y-59849999D02*
X-57650000Y-60750001D01*
G75*
G02*
X-57899999Y-61000000I-249999J0D01*
G01*
X-58425001Y-61000000D01*
G75*
G02*
X-58675000Y-60750001I0J249999D01*
G01*
X-58675000Y-59849999D01*
G75*
G02*
X-58425001Y-59600000I249999J0D01*
G01*
X-57899999Y-59600000D01*
G75*
G02*
X-57650000Y-59849999I0J-249999D01*
G01*
G37*
G36*
G01*
X-55825000Y-59849999D02*
X-55825000Y-60750001D01*
G75*
G02*
X-56074999Y-61000000I-249999J0D01*
G01*
X-56600001Y-61000000D01*
G75*
G02*
X-56850000Y-60750001I0J249999D01*
G01*
X-56850000Y-59849999D01*
G75*
G02*
X-56600001Y-59600000I249999J0D01*
G01*
X-56074999Y-59600000D01*
G75*
G02*
X-55825000Y-59849999I0J-249999D01*
G01*
G37*
%TD*%
%TO.C,R25*%
G36*
G01*
X-57650000Y-53949999D02*
X-57650000Y-54850001D01*
G75*
G02*
X-57899999Y-55100000I-249999J0D01*
G01*
X-58425001Y-55100000D01*
G75*
G02*
X-58675000Y-54850001I0J249999D01*
G01*
X-58675000Y-53949999D01*
G75*
G02*
X-58425001Y-53700000I249999J0D01*
G01*
X-57899999Y-53700000D01*
G75*
G02*
X-57650000Y-53949999I0J-249999D01*
G01*
G37*
G36*
G01*
X-55825000Y-53949999D02*
X-55825000Y-54850001D01*
G75*
G02*
X-56074999Y-55100000I-249999J0D01*
G01*
X-56600001Y-55100000D01*
G75*
G02*
X-56850000Y-54850001I0J249999D01*
G01*
X-56850000Y-53949999D01*
G75*
G02*
X-56600001Y-53700000I249999J0D01*
G01*
X-56074999Y-53700000D01*
G75*
G02*
X-55825000Y-53949999I0J-249999D01*
G01*
G37*
%TD*%
%TO.C,R24*%
G36*
G01*
X-64900000Y-19499999D02*
X-64900000Y-20400001D01*
G75*
G02*
X-65149999Y-20650000I-249999J0D01*
G01*
X-65675001Y-20650000D01*
G75*
G02*
X-65925000Y-20400001I0J249999D01*
G01*
X-65925000Y-19499999D01*
G75*
G02*
X-65675001Y-19250000I249999J0D01*
G01*
X-65149999Y-19250000D01*
G75*
G02*
X-64900000Y-19499999I0J-249999D01*
G01*
G37*
G36*
G01*
X-63075000Y-19499999D02*
X-63075000Y-20400001D01*
G75*
G02*
X-63324999Y-20650000I-249999J0D01*
G01*
X-63850001Y-20650000D01*
G75*
G02*
X-64100000Y-20400001I0J249999D01*
G01*
X-64100000Y-19499999D01*
G75*
G02*
X-63850001Y-19250000I249999J0D01*
G01*
X-63324999Y-19250000D01*
G75*
G02*
X-63075000Y-19499999I0J-249999D01*
G01*
G37*
%TD*%
%TO.C,R23*%
G36*
G01*
X-64900000Y-22449999D02*
X-64900000Y-23350001D01*
G75*
G02*
X-65149999Y-23600000I-249999J0D01*
G01*
X-65675001Y-23600000D01*
G75*
G02*
X-65925000Y-23350001I0J249999D01*
G01*
X-65925000Y-22449999D01*
G75*
G02*
X-65675001Y-22200000I249999J0D01*
G01*
X-65149999Y-22200000D01*
G75*
G02*
X-64900000Y-22449999I0J-249999D01*
G01*
G37*
G36*
G01*
X-63075000Y-22449999D02*
X-63075000Y-23350001D01*
G75*
G02*
X-63324999Y-23600000I-249999J0D01*
G01*
X-63850001Y-23600000D01*
G75*
G02*
X-64100000Y-23350001I0J249999D01*
G01*
X-64100000Y-22449999D01*
G75*
G02*
X-63850001Y-22200000I249999J0D01*
G01*
X-63324999Y-22200000D01*
G75*
G02*
X-63075000Y-22449999I0J-249999D01*
G01*
G37*
%TD*%
%TO.C,R22*%
G36*
G01*
X-64900000Y-25399999D02*
X-64900000Y-26300001D01*
G75*
G02*
X-65149999Y-26550000I-249999J0D01*
G01*
X-65675001Y-26550000D01*
G75*
G02*
X-65925000Y-26300001I0J249999D01*
G01*
X-65925000Y-25399999D01*
G75*
G02*
X-65675001Y-25150000I249999J0D01*
G01*
X-65149999Y-25150000D01*
G75*
G02*
X-64900000Y-25399999I0J-249999D01*
G01*
G37*
G36*
G01*
X-63075000Y-25399999D02*
X-63075000Y-26300001D01*
G75*
G02*
X-63324999Y-26550000I-249999J0D01*
G01*
X-63850001Y-26550000D01*
G75*
G02*
X-64100000Y-26300001I0J249999D01*
G01*
X-64100000Y-25399999D01*
G75*
G02*
X-63850001Y-25150000I249999J0D01*
G01*
X-63324999Y-25150000D01*
G75*
G02*
X-63075000Y-25399999I0J-249999D01*
G01*
G37*
%TD*%
%TO.C,R21*%
G36*
G01*
X-59849999Y-47800000D02*
X-60750001Y-47800000D01*
G75*
G02*
X-61000000Y-47550001I0J249999D01*
G01*
X-61000000Y-47024999D01*
G75*
G02*
X-60750001Y-46775000I249999J0D01*
G01*
X-59849999Y-46775000D01*
G75*
G02*
X-59600000Y-47024999I0J-249999D01*
G01*
X-59600000Y-47550001D01*
G75*
G02*
X-59849999Y-47800000I-249999J0D01*
G01*
G37*
G36*
G01*
X-59849999Y-49625000D02*
X-60750001Y-49625000D01*
G75*
G02*
X-61000000Y-49375001I0J249999D01*
G01*
X-61000000Y-48849999D01*
G75*
G02*
X-60750001Y-48600000I249999J0D01*
G01*
X-59849999Y-48600000D01*
G75*
G02*
X-59600000Y-48849999I0J-249999D01*
G01*
X-59600000Y-49375001D01*
G75*
G02*
X-59849999Y-49625000I-249999J0D01*
G01*
G37*
%TD*%
%TO.C,R20*%
G36*
G01*
X-59849999Y-43300000D02*
X-60750001Y-43300000D01*
G75*
G02*
X-61000000Y-43050001I0J249999D01*
G01*
X-61000000Y-42524999D01*
G75*
G02*
X-60750001Y-42275000I249999J0D01*
G01*
X-59849999Y-42275000D01*
G75*
G02*
X-59600000Y-42524999I0J-249999D01*
G01*
X-59600000Y-43050001D01*
G75*
G02*
X-59849999Y-43300000I-249999J0D01*
G01*
G37*
G36*
G01*
X-59849999Y-45125000D02*
X-60750001Y-45125000D01*
G75*
G02*
X-61000000Y-44875001I0J249999D01*
G01*
X-61000000Y-44349999D01*
G75*
G02*
X-60750001Y-44100000I249999J0D01*
G01*
X-59849999Y-44100000D01*
G75*
G02*
X-59600000Y-44349999I0J-249999D01*
G01*
X-59600000Y-44875001D01*
G75*
G02*
X-59849999Y-45125000I-249999J0D01*
G01*
G37*
%TD*%
%TO.C,R19*%
G36*
G01*
X-41200000Y-36499999D02*
X-41200000Y-37400001D01*
G75*
G02*
X-41449999Y-37650000I-249999J0D01*
G01*
X-41975001Y-37650000D01*
G75*
G02*
X-42225000Y-37400001I0J249999D01*
G01*
X-42225000Y-36499999D01*
G75*
G02*
X-41975001Y-36250000I249999J0D01*
G01*
X-41449999Y-36250000D01*
G75*
G02*
X-41200000Y-36499999I0J-249999D01*
G01*
G37*
G36*
G01*
X-39375000Y-36499999D02*
X-39375000Y-37400001D01*
G75*
G02*
X-39624999Y-37650000I-249999J0D01*
G01*
X-40150001Y-37650000D01*
G75*
G02*
X-40400000Y-37400001I0J249999D01*
G01*
X-40400000Y-36499999D01*
G75*
G02*
X-40150001Y-36250000I249999J0D01*
G01*
X-39624999Y-36250000D01*
G75*
G02*
X-39375000Y-36499999I0J-249999D01*
G01*
G37*
%TD*%
%TO.C,R18*%
G36*
G01*
X-36800000Y-36499999D02*
X-36800000Y-37400001D01*
G75*
G02*
X-37049999Y-37650000I-249999J0D01*
G01*
X-37575001Y-37650000D01*
G75*
G02*
X-37825000Y-37400001I0J249999D01*
G01*
X-37825000Y-36499999D01*
G75*
G02*
X-37575001Y-36250000I249999J0D01*
G01*
X-37049999Y-36250000D01*
G75*
G02*
X-36800000Y-36499999I0J-249999D01*
G01*
G37*
G36*
G01*
X-34975000Y-36499999D02*
X-34975000Y-37400001D01*
G75*
G02*
X-35224999Y-37650000I-249999J0D01*
G01*
X-35750001Y-37650000D01*
G75*
G02*
X-36000000Y-37400001I0J249999D01*
G01*
X-36000000Y-36499999D01*
G75*
G02*
X-35750001Y-36250000I249999J0D01*
G01*
X-35224999Y-36250000D01*
G75*
G02*
X-34975000Y-36499999I0J-249999D01*
G01*
G37*
%TD*%
%TO.C,R17*%
G36*
G01*
X-24000000Y-16949999D02*
X-24000000Y-17850001D01*
G75*
G02*
X-24249999Y-18100000I-249999J0D01*
G01*
X-24775001Y-18100000D01*
G75*
G02*
X-25025000Y-17850001I0J249999D01*
G01*
X-25025000Y-16949999D01*
G75*
G02*
X-24775001Y-16700000I249999J0D01*
G01*
X-24249999Y-16700000D01*
G75*
G02*
X-24000000Y-16949999I0J-249999D01*
G01*
G37*
G36*
G01*
X-22175000Y-16949999D02*
X-22175000Y-17850001D01*
G75*
G02*
X-22424999Y-18100000I-249999J0D01*
G01*
X-22950001Y-18100000D01*
G75*
G02*
X-23200000Y-17850001I0J249999D01*
G01*
X-23200000Y-16949999D01*
G75*
G02*
X-22950001Y-16700000I249999J0D01*
G01*
X-22424999Y-16700000D01*
G75*
G02*
X-22175000Y-16949999I0J-249999D01*
G01*
G37*
%TD*%
%TO.C,R16*%
G36*
G01*
X-13799999Y-60100000D02*
X-14700001Y-60100000D01*
G75*
G02*
X-14950000Y-59850001I0J249999D01*
G01*
X-14950000Y-59324999D01*
G75*
G02*
X-14700001Y-59075000I249999J0D01*
G01*
X-13799999Y-59075000D01*
G75*
G02*
X-13550000Y-59324999I0J-249999D01*
G01*
X-13550000Y-59850001D01*
G75*
G02*
X-13799999Y-60100000I-249999J0D01*
G01*
G37*
G36*
G01*
X-13799999Y-61925000D02*
X-14700001Y-61925000D01*
G75*
G02*
X-14950000Y-61675001I0J249999D01*
G01*
X-14950000Y-61149999D01*
G75*
G02*
X-14700001Y-60900000I249999J0D01*
G01*
X-13799999Y-60900000D01*
G75*
G02*
X-13550000Y-61149999I0J-249999D01*
G01*
X-13550000Y-61675001D01*
G75*
G02*
X-13799999Y-61925000I-249999J0D01*
G01*
G37*
%TD*%
%TO.C,R15*%
G36*
G01*
X-8749999Y-66450000D02*
X-9650001Y-66450000D01*
G75*
G02*
X-9900000Y-66200001I0J249999D01*
G01*
X-9900000Y-65674999D01*
G75*
G02*
X-9650001Y-65425000I249999J0D01*
G01*
X-8749999Y-65425000D01*
G75*
G02*
X-8500000Y-65674999I0J-249999D01*
G01*
X-8500000Y-66200001D01*
G75*
G02*
X-8749999Y-66450000I-249999J0D01*
G01*
G37*
G36*
G01*
X-8749999Y-68275000D02*
X-9650001Y-68275000D01*
G75*
G02*
X-9900000Y-68025001I0J249999D01*
G01*
X-9900000Y-67499999D01*
G75*
G02*
X-9650001Y-67250000I249999J0D01*
G01*
X-8749999Y-67250000D01*
G75*
G02*
X-8500000Y-67499999I0J-249999D01*
G01*
X-8500000Y-68025001D01*
G75*
G02*
X-8749999Y-68275000I-249999J0D01*
G01*
G37*
%TD*%
%TO.C,R14*%
G36*
G01*
X-24000000Y-19399999D02*
X-24000000Y-20300001D01*
G75*
G02*
X-24249999Y-20550000I-249999J0D01*
G01*
X-24775001Y-20550000D01*
G75*
G02*
X-25025000Y-20300001I0J249999D01*
G01*
X-25025000Y-19399999D01*
G75*
G02*
X-24775001Y-19150000I249999J0D01*
G01*
X-24249999Y-19150000D01*
G75*
G02*
X-24000000Y-19399999I0J-249999D01*
G01*
G37*
G36*
G01*
X-22175000Y-19399999D02*
X-22175000Y-20300001D01*
G75*
G02*
X-22424999Y-20550000I-249999J0D01*
G01*
X-22950001Y-20550000D01*
G75*
G02*
X-23200000Y-20300001I0J249999D01*
G01*
X-23200000Y-19399999D01*
G75*
G02*
X-22950001Y-19150000I249999J0D01*
G01*
X-22424999Y-19150000D01*
G75*
G02*
X-22175000Y-19399999I0J-249999D01*
G01*
G37*
%TD*%
%TO.C,R13*%
G36*
G01*
X-36200001Y-64350000D02*
X-35299999Y-64350000D01*
G75*
G02*
X-35050000Y-64599999I0J-249999D01*
G01*
X-35050000Y-65125001D01*
G75*
G02*
X-35299999Y-65375000I-249999J0D01*
G01*
X-36200001Y-65375000D01*
G75*
G02*
X-36450000Y-65125001I0J249999D01*
G01*
X-36450000Y-64599999D01*
G75*
G02*
X-36200001Y-64350000I249999J0D01*
G01*
G37*
G36*
G01*
X-36200001Y-62525000D02*
X-35299999Y-62525000D01*
G75*
G02*
X-35050000Y-62774999I0J-249999D01*
G01*
X-35050000Y-63300001D01*
G75*
G02*
X-35299999Y-63550000I-249999J0D01*
G01*
X-36200001Y-63550000D01*
G75*
G02*
X-36450000Y-63300001I0J249999D01*
G01*
X-36450000Y-62774999D01*
G75*
G02*
X-36200001Y-62525000I249999J0D01*
G01*
G37*
%TD*%
%TO.C,R12*%
G36*
G01*
X-22149999Y-57750000D02*
X-23050001Y-57750000D01*
G75*
G02*
X-23300000Y-57500001I0J249999D01*
G01*
X-23300000Y-56974999D01*
G75*
G02*
X-23050001Y-56725000I249999J0D01*
G01*
X-22149999Y-56725000D01*
G75*
G02*
X-21900000Y-56974999I0J-249999D01*
G01*
X-21900000Y-57500001D01*
G75*
G02*
X-22149999Y-57750000I-249999J0D01*
G01*
G37*
G36*
G01*
X-22149999Y-59575000D02*
X-23050001Y-59575000D01*
G75*
G02*
X-23300000Y-59325001I0J249999D01*
G01*
X-23300000Y-58799999D01*
G75*
G02*
X-23050001Y-58550000I249999J0D01*
G01*
X-22149999Y-58550000D01*
G75*
G02*
X-21900000Y-58799999I0J-249999D01*
G01*
X-21900000Y-59325001D01*
G75*
G02*
X-22149999Y-59575000I-249999J0D01*
G01*
G37*
%TD*%
%TO.C,R11*%
G36*
G01*
X-37550000Y-27400001D02*
X-37550000Y-26499999D01*
G75*
G02*
X-37300001Y-26250000I249999J0D01*
G01*
X-36774999Y-26250000D01*
G75*
G02*
X-36525000Y-26499999I0J-249999D01*
G01*
X-36525000Y-27400001D01*
G75*
G02*
X-36774999Y-27650000I-249999J0D01*
G01*
X-37300001Y-27650000D01*
G75*
G02*
X-37550000Y-27400001I0J249999D01*
G01*
G37*
G36*
G01*
X-39375000Y-27400001D02*
X-39375000Y-26499999D01*
G75*
G02*
X-39125001Y-26250000I249999J0D01*
G01*
X-38599999Y-26250000D01*
G75*
G02*
X-38350000Y-26499999I0J-249999D01*
G01*
X-38350000Y-27400001D01*
G75*
G02*
X-38599999Y-27650000I-249999J0D01*
G01*
X-39125001Y-27650000D01*
G75*
G02*
X-39375000Y-27400001I0J249999D01*
G01*
G37*
%TD*%
%TO.C,R10*%
G36*
G01*
X-39300001Y-24050000D02*
X-38399999Y-24050000D01*
G75*
G02*
X-38150000Y-24299999I0J-249999D01*
G01*
X-38150000Y-24825001D01*
G75*
G02*
X-38399999Y-25075000I-249999J0D01*
G01*
X-39300001Y-25075000D01*
G75*
G02*
X-39550000Y-24825001I0J249999D01*
G01*
X-39550000Y-24299999D01*
G75*
G02*
X-39300001Y-24050000I249999J0D01*
G01*
G37*
G36*
G01*
X-39300001Y-22225000D02*
X-38399999Y-22225000D01*
G75*
G02*
X-38150000Y-22474999I0J-249999D01*
G01*
X-38150000Y-23000001D01*
G75*
G02*
X-38399999Y-23250000I-249999J0D01*
G01*
X-39300001Y-23250000D01*
G75*
G02*
X-39550000Y-23000001I0J249999D01*
G01*
X-39550000Y-22474999D01*
G75*
G02*
X-39300001Y-22225000I249999J0D01*
G01*
G37*
%TD*%
%TO.C,R9*%
G36*
G01*
X-49600001Y-24050000D02*
X-48699999Y-24050000D01*
G75*
G02*
X-48450000Y-24299999I0J-249999D01*
G01*
X-48450000Y-24825001D01*
G75*
G02*
X-48699999Y-25075000I-249999J0D01*
G01*
X-49600001Y-25075000D01*
G75*
G02*
X-49850000Y-24825001I0J249999D01*
G01*
X-49850000Y-24299999D01*
G75*
G02*
X-49600001Y-24050000I249999J0D01*
G01*
G37*
G36*
G01*
X-49600001Y-22225000D02*
X-48699999Y-22225000D01*
G75*
G02*
X-48450000Y-22474999I0J-249999D01*
G01*
X-48450000Y-23000001D01*
G75*
G02*
X-48699999Y-23250000I-249999J0D01*
G01*
X-49600001Y-23250000D01*
G75*
G02*
X-49850000Y-23000001I0J249999D01*
G01*
X-49850000Y-22474999D01*
G75*
G02*
X-49600001Y-22225000I249999J0D01*
G01*
G37*
%TD*%
%TO.C,R8*%
G36*
G01*
X-50250000Y-20800001D02*
X-50250000Y-19899999D01*
G75*
G02*
X-50000001Y-19650000I249999J0D01*
G01*
X-49474999Y-19650000D01*
G75*
G02*
X-49225000Y-19899999I0J-249999D01*
G01*
X-49225000Y-20800001D01*
G75*
G02*
X-49474999Y-21050000I-249999J0D01*
G01*
X-50000001Y-21050000D01*
G75*
G02*
X-50250000Y-20800001I0J249999D01*
G01*
G37*
G36*
G01*
X-52075000Y-20800001D02*
X-52075000Y-19899999D01*
G75*
G02*
X-51825001Y-19650000I249999J0D01*
G01*
X-51299999Y-19650000D01*
G75*
G02*
X-51050000Y-19899999I0J-249999D01*
G01*
X-51050000Y-20800001D01*
G75*
G02*
X-51299999Y-21050000I-249999J0D01*
G01*
X-51825001Y-21050000D01*
G75*
G02*
X-52075000Y-20800001I0J249999D01*
G01*
G37*
%TD*%
%TO.C,R7*%
G36*
G01*
X-52000001Y-24050000D02*
X-51099999Y-24050000D01*
G75*
G02*
X-50850000Y-24299999I0J-249999D01*
G01*
X-50850000Y-24825001D01*
G75*
G02*
X-51099999Y-25075000I-249999J0D01*
G01*
X-52000001Y-25075000D01*
G75*
G02*
X-52250000Y-24825001I0J249999D01*
G01*
X-52250000Y-24299999D01*
G75*
G02*
X-52000001Y-24050000I249999J0D01*
G01*
G37*
G36*
G01*
X-52000001Y-22225000D02*
X-51099999Y-22225000D01*
G75*
G02*
X-50850000Y-22474999I0J-249999D01*
G01*
X-50850000Y-23000001D01*
G75*
G02*
X-51099999Y-23250000I-249999J0D01*
G01*
X-52000001Y-23250000D01*
G75*
G02*
X-52250000Y-23000001I0J249999D01*
G01*
X-52250000Y-22474999D01*
G75*
G02*
X-52000001Y-22225000I249999J0D01*
G01*
G37*
%TD*%
%TO.C,R6*%
G36*
G01*
X-24000000Y-11949999D02*
X-24000000Y-12850001D01*
G75*
G02*
X-24249999Y-13100000I-249999J0D01*
G01*
X-24775001Y-13100000D01*
G75*
G02*
X-25025000Y-12850001I0J249999D01*
G01*
X-25025000Y-11949999D01*
G75*
G02*
X-24775001Y-11700000I249999J0D01*
G01*
X-24249999Y-11700000D01*
G75*
G02*
X-24000000Y-11949999I0J-249999D01*
G01*
G37*
G36*
G01*
X-22175000Y-11949999D02*
X-22175000Y-12850001D01*
G75*
G02*
X-22424999Y-13100000I-249999J0D01*
G01*
X-22950001Y-13100000D01*
G75*
G02*
X-23200000Y-12850001I0J249999D01*
G01*
X-23200000Y-11949999D01*
G75*
G02*
X-22950001Y-11700000I249999J0D01*
G01*
X-22424999Y-11700000D01*
G75*
G02*
X-22175000Y-11949999I0J-249999D01*
G01*
G37*
%TD*%
%TO.C,R5*%
G36*
G01*
X-16749999Y-51150000D02*
X-17650001Y-51150000D01*
G75*
G02*
X-17900000Y-50900001I0J249999D01*
G01*
X-17900000Y-50374999D01*
G75*
G02*
X-17650001Y-50125000I249999J0D01*
G01*
X-16749999Y-50125000D01*
G75*
G02*
X-16500000Y-50374999I0J-249999D01*
G01*
X-16500000Y-50900001D01*
G75*
G02*
X-16749999Y-51150000I-249999J0D01*
G01*
G37*
G36*
G01*
X-16749999Y-52975000D02*
X-17650001Y-52975000D01*
G75*
G02*
X-17900000Y-52725001I0J249999D01*
G01*
X-17900000Y-52199999D01*
G75*
G02*
X-17650001Y-51950000I249999J0D01*
G01*
X-16749999Y-51950000D01*
G75*
G02*
X-16500000Y-52199999I0J-249999D01*
G01*
X-16500000Y-52725001D01*
G75*
G02*
X-16749999Y-52975000I-249999J0D01*
G01*
G37*
%TD*%
%TO.C,R4*%
G36*
G01*
X-48600000Y-59300001D02*
X-48600000Y-58399999D01*
G75*
G02*
X-48350001Y-58150000I249999J0D01*
G01*
X-47824999Y-58150000D01*
G75*
G02*
X-47575000Y-58399999I0J-249999D01*
G01*
X-47575000Y-59300001D01*
G75*
G02*
X-47824999Y-59550000I-249999J0D01*
G01*
X-48350001Y-59550000D01*
G75*
G02*
X-48600000Y-59300001I0J249999D01*
G01*
G37*
G36*
G01*
X-50425000Y-59300001D02*
X-50425000Y-58399999D01*
G75*
G02*
X-50175001Y-58150000I249999J0D01*
G01*
X-49649999Y-58150000D01*
G75*
G02*
X-49400000Y-58399999I0J-249999D01*
G01*
X-49400000Y-59300001D01*
G75*
G02*
X-49649999Y-59550000I-249999J0D01*
G01*
X-50175001Y-59550000D01*
G75*
G02*
X-50425000Y-59300001I0J249999D01*
G01*
G37*
%TD*%
%TO.C,R3*%
G36*
G01*
X-11750001Y-51950000D02*
X-10849999Y-51950000D01*
G75*
G02*
X-10600000Y-52199999I0J-249999D01*
G01*
X-10600000Y-52725001D01*
G75*
G02*
X-10849999Y-52975000I-249999J0D01*
G01*
X-11750001Y-52975000D01*
G75*
G02*
X-12000000Y-52725001I0J249999D01*
G01*
X-12000000Y-52199999D01*
G75*
G02*
X-11750001Y-51950000I249999J0D01*
G01*
G37*
G36*
G01*
X-11750001Y-50125000D02*
X-10849999Y-50125000D01*
G75*
G02*
X-10600000Y-50374999I0J-249999D01*
G01*
X-10600000Y-50900001D01*
G75*
G02*
X-10849999Y-51150000I-249999J0D01*
G01*
X-11750001Y-51150000D01*
G75*
G02*
X-12000000Y-50900001I0J249999D01*
G01*
X-12000000Y-50374999D01*
G75*
G02*
X-11750001Y-50125000I249999J0D01*
G01*
G37*
%TD*%
%TO.C,R2*%
G36*
G01*
X-14700001Y-51950000D02*
X-13799999Y-51950000D01*
G75*
G02*
X-13550000Y-52199999I0J-249999D01*
G01*
X-13550000Y-52725001D01*
G75*
G02*
X-13799999Y-52975000I-249999J0D01*
G01*
X-14700001Y-52975000D01*
G75*
G02*
X-14950000Y-52725001I0J249999D01*
G01*
X-14950000Y-52199999D01*
G75*
G02*
X-14700001Y-51950000I249999J0D01*
G01*
G37*
G36*
G01*
X-14700001Y-50125000D02*
X-13799999Y-50125000D01*
G75*
G02*
X-13550000Y-50374999I0J-249999D01*
G01*
X-13550000Y-50900001D01*
G75*
G02*
X-13799999Y-51150000I-249999J0D01*
G01*
X-14700001Y-51150000D01*
G75*
G02*
X-14950000Y-50900001I0J249999D01*
G01*
X-14950000Y-50374999D01*
G75*
G02*
X-14700001Y-50125000I249999J0D01*
G01*
G37*
%TD*%
%TO.C,R1*%
G36*
G01*
X-23950000Y-23899999D02*
X-23950000Y-24800001D01*
G75*
G02*
X-24199999Y-25050000I-249999J0D01*
G01*
X-24725001Y-25050000D01*
G75*
G02*
X-24975000Y-24800001I0J249999D01*
G01*
X-24975000Y-23899999D01*
G75*
G02*
X-24725001Y-23650000I249999J0D01*
G01*
X-24199999Y-23650000D01*
G75*
G02*
X-23950000Y-23899999I0J-249999D01*
G01*
G37*
G36*
G01*
X-22125000Y-23899999D02*
X-22125000Y-24800001D01*
G75*
G02*
X-22374999Y-25050000I-249999J0D01*
G01*
X-22900001Y-25050000D01*
G75*
G02*
X-23150000Y-24800001I0J249999D01*
G01*
X-23150000Y-23899999D01*
G75*
G02*
X-22900001Y-23650000I249999J0D01*
G01*
X-22374999Y-23650000D01*
G75*
G02*
X-22125000Y-23899999I0J-249999D01*
G01*
G37*
%TD*%
D18*
%TO.C,Q2*%
X-16000000Y-56000000D03*
X-14000000Y-55050000D03*
X-14000000Y-56950000D03*
%TD*%
%TO.C,Q1*%
X-54400000Y-57400000D03*
X-52400000Y-56450000D03*
X-52400000Y-58350000D03*
%TD*%
D19*
%TO.C,L1*%
X-31350000Y-40850000D03*
D20*
X-33450000Y-40850000D03*
%TD*%
D21*
%TO.C,JP8*%
X-51170000Y-14550000D03*
X-53710000Y-14550000D03*
D12*
X-56250000Y-14550000D03*
%TD*%
D21*
%TO.C,JP7*%
X-51195000Y-29050000D03*
X-53735000Y-29050000D03*
D12*
X-56275000Y-29050000D03*
%TD*%
D21*
%TO.C,JP4*%
X-60300000Y-36410000D03*
D12*
X-60300000Y-38950000D03*
%TD*%
D21*
%TO.C,JP1*%
X-53330000Y-63900000D03*
X-50790000Y-63900000D03*
D12*
X-48250000Y-63900000D03*
%TD*%
D21*
%TO.C,J3*%
X-8200000Y-3350000D03*
X-10740000Y-3350000D03*
X-13280000Y-3350000D03*
X-15820000Y-3350000D03*
X-18360000Y-3350000D03*
D12*
X-20900000Y-3350000D03*
%TD*%
D22*
%TO.C,J2*%
X-53850000Y-75350000D03*
X-58850000Y-75350000D03*
%TD*%
D23*
%TO.C,J1*%
X-10065000Y-78085000D03*
X-11985000Y-78085000D03*
D24*
X-8295000Y-77815000D03*
X-13755000Y-77815000D03*
D25*
X-8605000Y-74815000D03*
X-13445000Y-74815000D03*
D26*
X-9725000Y-74935000D03*
X-10375000Y-74935000D03*
X-11025000Y-74935000D03*
X-11675000Y-74935000D03*
X-12325000Y-74935000D03*
D27*
X-8125000Y-74815000D03*
X-13875000Y-74835000D03*
D28*
X-8025000Y-76135000D03*
X-13975000Y-76135000D03*
D29*
X-13755000Y-76885000D03*
X-8275000Y-76885000D03*
%TD*%
%TO.C,D10*%
G36*
G01*
X-61350000Y-57093750D02*
X-61350000Y-57606250D01*
G75*
G02*
X-61568750Y-57825000I-218750J0D01*
G01*
X-62006250Y-57825000D01*
G75*
G02*
X-62225000Y-57606250I0J218750D01*
G01*
X-62225000Y-57093750D01*
G75*
G02*
X-62006250Y-56875000I218750J0D01*
G01*
X-61568750Y-56875000D01*
G75*
G02*
X-61350000Y-57093750I0J-218750D01*
G01*
G37*
G36*
G01*
X-59775000Y-57093750D02*
X-59775000Y-57606250D01*
G75*
G02*
X-59993750Y-57825000I-218750J0D01*
G01*
X-60431250Y-57825000D01*
G75*
G02*
X-60650000Y-57606250I0J218750D01*
G01*
X-60650000Y-57093750D01*
G75*
G02*
X-60431250Y-56875000I218750J0D01*
G01*
X-59993750Y-56875000D01*
G75*
G02*
X-59775000Y-57093750I0J-218750D01*
G01*
G37*
%TD*%
%TO.C,D9*%
G36*
G01*
X-61350000Y-60043750D02*
X-61350000Y-60556250D01*
G75*
G02*
X-61568750Y-60775000I-218750J0D01*
G01*
X-62006250Y-60775000D01*
G75*
G02*
X-62225000Y-60556250I0J218750D01*
G01*
X-62225000Y-60043750D01*
G75*
G02*
X-62006250Y-59825000I218750J0D01*
G01*
X-61568750Y-59825000D01*
G75*
G02*
X-61350000Y-60043750I0J-218750D01*
G01*
G37*
G36*
G01*
X-59775000Y-60043750D02*
X-59775000Y-60556250D01*
G75*
G02*
X-59993750Y-60775000I-218750J0D01*
G01*
X-60431250Y-60775000D01*
G75*
G02*
X-60650000Y-60556250I0J218750D01*
G01*
X-60650000Y-60043750D01*
G75*
G02*
X-60431250Y-59825000I218750J0D01*
G01*
X-59993750Y-59825000D01*
G75*
G02*
X-59775000Y-60043750I0J-218750D01*
G01*
G37*
%TD*%
%TO.C,D8*%
G36*
G01*
X-61350000Y-54143750D02*
X-61350000Y-54656250D01*
G75*
G02*
X-61568750Y-54875000I-218750J0D01*
G01*
X-62006250Y-54875000D01*
G75*
G02*
X-62225000Y-54656250I0J218750D01*
G01*
X-62225000Y-54143750D01*
G75*
G02*
X-62006250Y-53925000I218750J0D01*
G01*
X-61568750Y-53925000D01*
G75*
G02*
X-61350000Y-54143750I0J-218750D01*
G01*
G37*
G36*
G01*
X-59775000Y-54143750D02*
X-59775000Y-54656250D01*
G75*
G02*
X-59993750Y-54875000I-218750J0D01*
G01*
X-60431250Y-54875000D01*
G75*
G02*
X-60650000Y-54656250I0J218750D01*
G01*
X-60650000Y-54143750D01*
G75*
G02*
X-60431250Y-53925000I218750J0D01*
G01*
X-59993750Y-53925000D01*
G75*
G02*
X-59775000Y-54143750I0J-218750D01*
G01*
G37*
%TD*%
D30*
%TO.C,D7*%
X-35100000Y-58500000D03*
X-34450000Y-60500000D03*
X-35750000Y-60500000D03*
%TD*%
D31*
%TO.C,D6*%
X-23900000Y-40850000D03*
X-27700000Y-40850000D03*
%TD*%
D32*
%TO.C,D5*%
X-18370000Y-6950000D03*
D33*
X-10750000Y-6950000D03*
%TD*%
D34*
%TO.C,D4*%
X-36100000Y-44050000D03*
X-36100000Y-47850000D03*
%TD*%
D35*
%TO.C,D3*%
X-46800000Y-55750000D03*
X-50100000Y-55750000D03*
%TD*%
D34*
%TO.C,D2*%
X-13450000Y-64950000D03*
X-13450000Y-68750000D03*
%TD*%
%TO.C,D1*%
G36*
G01*
X-23200000Y-22356250D02*
X-23200000Y-21843750D01*
G75*
G02*
X-22981250Y-21625000I218750J0D01*
G01*
X-22543750Y-21625000D01*
G75*
G02*
X-22325000Y-21843750I0J-218750D01*
G01*
X-22325000Y-22356250D01*
G75*
G02*
X-22543750Y-22575000I-218750J0D01*
G01*
X-22981250Y-22575000D01*
G75*
G02*
X-23200000Y-22356250I0J218750D01*
G01*
G37*
G36*
G01*
X-24775000Y-22356250D02*
X-24775000Y-21843750D01*
G75*
G02*
X-24556250Y-21625000I218750J0D01*
G01*
X-24118750Y-21625000D01*
G75*
G02*
X-23900000Y-21843750I0J-218750D01*
G01*
X-23900000Y-22356250D01*
G75*
G02*
X-24118750Y-22575000I-218750J0D01*
G01*
X-24556250Y-22575000D01*
G75*
G02*
X-24775000Y-22356250I0J218750D01*
G01*
G37*
%TD*%
%TO.C,C11*%
G36*
G01*
X-29075000Y-64400000D02*
X-28125000Y-64400000D01*
G75*
G02*
X-27875000Y-64650000I0J-250000D01*
G01*
X-27875000Y-65150000D01*
G75*
G02*
X-28125000Y-65400000I-250000J0D01*
G01*
X-29075000Y-65400000D01*
G75*
G02*
X-29325000Y-65150000I0J250000D01*
G01*
X-29325000Y-64650000D01*
G75*
G02*
X-29075000Y-64400000I250000J0D01*
G01*
G37*
G36*
G01*
X-29075000Y-62500000D02*
X-28125000Y-62500000D01*
G75*
G02*
X-27875000Y-62750000I0J-250000D01*
G01*
X-27875000Y-63250000D01*
G75*
G02*
X-28125000Y-63500000I-250000J0D01*
G01*
X-29075000Y-63500000D01*
G75*
G02*
X-29325000Y-63250000I0J250000D01*
G01*
X-29325000Y-62750000D01*
G75*
G02*
X-29075000Y-62500000I250000J0D01*
G01*
G37*
%TD*%
%TO.C,C10*%
G36*
G01*
X-54800000Y-21825000D02*
X-54800000Y-20875000D01*
G75*
G02*
X-54550000Y-20625000I250000J0D01*
G01*
X-54050000Y-20625000D01*
G75*
G02*
X-53800000Y-20875000I0J-250000D01*
G01*
X-53800000Y-21825000D01*
G75*
G02*
X-54050000Y-22075000I-250000J0D01*
G01*
X-54550000Y-22075000D01*
G75*
G02*
X-54800000Y-21825000I0J250000D01*
G01*
G37*
G36*
G01*
X-56700000Y-21825000D02*
X-56700000Y-20875000D01*
G75*
G02*
X-56450000Y-20625000I250000J0D01*
G01*
X-55950000Y-20625000D01*
G75*
G02*
X-55700000Y-20875000I0J-250000D01*
G01*
X-55700000Y-21825000D01*
G75*
G02*
X-55950000Y-22075000I-250000J0D01*
G01*
X-56450000Y-22075000D01*
G75*
G02*
X-56700000Y-21825000I0J250000D01*
G01*
G37*
%TD*%
%TO.C,C9*%
G36*
G01*
X-54800000Y-25175000D02*
X-54800000Y-24225000D01*
G75*
G02*
X-54550000Y-23975000I250000J0D01*
G01*
X-54050000Y-23975000D01*
G75*
G02*
X-53800000Y-24225000I0J-250000D01*
G01*
X-53800000Y-25175000D01*
G75*
G02*
X-54050000Y-25425000I-250000J0D01*
G01*
X-54550000Y-25425000D01*
G75*
G02*
X-54800000Y-25175000I0J250000D01*
G01*
G37*
G36*
G01*
X-56700000Y-25175000D02*
X-56700000Y-24225000D01*
G75*
G02*
X-56450000Y-23975000I250000J0D01*
G01*
X-55950000Y-23975000D01*
G75*
G02*
X-55700000Y-24225000I0J-250000D01*
G01*
X-55700000Y-25175000D01*
G75*
G02*
X-55950000Y-25425000I-250000J0D01*
G01*
X-56450000Y-25425000D01*
G75*
G02*
X-56700000Y-25175000I0J250000D01*
G01*
G37*
%TD*%
%TO.C,C8*%
G36*
G01*
X-32050000Y-45625000D02*
X-32550000Y-45625000D01*
G75*
G02*
X-32775000Y-45400000I0J225000D01*
G01*
X-32775000Y-44950000D01*
G75*
G02*
X-32550000Y-44725000I225000J0D01*
G01*
X-32050000Y-44725000D01*
G75*
G02*
X-31825000Y-44950000I0J-225000D01*
G01*
X-31825000Y-45400000D01*
G75*
G02*
X-32050000Y-45625000I-225000J0D01*
G01*
G37*
G36*
G01*
X-32050000Y-47175000D02*
X-32550000Y-47175000D01*
G75*
G02*
X-32775000Y-46950000I0J225000D01*
G01*
X-32775000Y-46500000D01*
G75*
G02*
X-32550000Y-46275000I225000J0D01*
G01*
X-32050000Y-46275000D01*
G75*
G02*
X-31825000Y-46500000I0J-225000D01*
G01*
X-31825000Y-46950000D01*
G75*
G02*
X-32050000Y-47175000I-225000J0D01*
G01*
G37*
%TD*%
%TO.C,C7*%
G36*
G01*
X-29675000Y-46400000D02*
X-28725000Y-46400000D01*
G75*
G02*
X-28475000Y-46650000I0J-250000D01*
G01*
X-28475000Y-47150000D01*
G75*
G02*
X-28725000Y-47400000I-250000J0D01*
G01*
X-29675000Y-47400000D01*
G75*
G02*
X-29925000Y-47150000I0J250000D01*
G01*
X-29925000Y-46650000D01*
G75*
G02*
X-29675000Y-46400000I250000J0D01*
G01*
G37*
G36*
G01*
X-29675000Y-44500000D02*
X-28725000Y-44500000D01*
G75*
G02*
X-28475000Y-44750000I0J-250000D01*
G01*
X-28475000Y-45250000D01*
G75*
G02*
X-28725000Y-45500000I-250000J0D01*
G01*
X-29675000Y-45500000D01*
G75*
G02*
X-29925000Y-45250000I0J250000D01*
G01*
X-29925000Y-44750000D01*
G75*
G02*
X-29675000Y-44500000I250000J0D01*
G01*
G37*
%TD*%
%TO.C,C6*%
G36*
G01*
X-35625000Y-40400000D02*
X-36575000Y-40400000D01*
G75*
G02*
X-36825000Y-40150000I0J250000D01*
G01*
X-36825000Y-39650000D01*
G75*
G02*
X-36575000Y-39400000I250000J0D01*
G01*
X-35625000Y-39400000D01*
G75*
G02*
X-35375000Y-39650000I0J-250000D01*
G01*
X-35375000Y-40150000D01*
G75*
G02*
X-35625000Y-40400000I-250000J0D01*
G01*
G37*
G36*
G01*
X-35625000Y-42300000D02*
X-36575000Y-42300000D01*
G75*
G02*
X-36825000Y-42050000I0J250000D01*
G01*
X-36825000Y-41550000D01*
G75*
G02*
X-36575000Y-41300000I250000J0D01*
G01*
X-35625000Y-41300000D01*
G75*
G02*
X-35375000Y-41550000I0J-250000D01*
G01*
X-35375000Y-42050000D01*
G75*
G02*
X-35625000Y-42300000I-250000J0D01*
G01*
G37*
%TD*%
%TO.C,C5*%
G36*
G01*
X-24050000Y-14425000D02*
X-24050000Y-15375000D01*
G75*
G02*
X-24300000Y-15625000I-250000J0D01*
G01*
X-24800000Y-15625000D01*
G75*
G02*
X-25050000Y-15375000I0J250000D01*
G01*
X-25050000Y-14425000D01*
G75*
G02*
X-24800000Y-14175000I250000J0D01*
G01*
X-24300000Y-14175000D01*
G75*
G02*
X-24050000Y-14425000I0J-250000D01*
G01*
G37*
G36*
G01*
X-22150000Y-14425000D02*
X-22150000Y-15375000D01*
G75*
G02*
X-22400000Y-15625000I-250000J0D01*
G01*
X-22900000Y-15625000D01*
G75*
G02*
X-23150000Y-15375000I0J250000D01*
G01*
X-23150000Y-14425000D01*
G75*
G02*
X-22900000Y-14175000I250000J0D01*
G01*
X-22400000Y-14175000D01*
G75*
G02*
X-22150000Y-14425000I0J-250000D01*
G01*
G37*
%TD*%
%TO.C,C4*%
G36*
G01*
X-41175000Y-46350000D02*
X-40225000Y-46350000D01*
G75*
G02*
X-39975000Y-46600000I0J-250000D01*
G01*
X-39975000Y-47100000D01*
G75*
G02*
X-40225000Y-47350000I-250000J0D01*
G01*
X-41175000Y-47350000D01*
G75*
G02*
X-41425000Y-47100000I0J250000D01*
G01*
X-41425000Y-46600000D01*
G75*
G02*
X-41175000Y-46350000I250000J0D01*
G01*
G37*
G36*
G01*
X-41175000Y-44450000D02*
X-40225000Y-44450000D01*
G75*
G02*
X-39975000Y-44700000I0J-250000D01*
G01*
X-39975000Y-45200000D01*
G75*
G02*
X-40225000Y-45450000I-250000J0D01*
G01*
X-41175000Y-45450000D01*
G75*
G02*
X-41425000Y-45200000I0J250000D01*
G01*
X-41425000Y-44700000D01*
G75*
G02*
X-41175000Y-44450000I250000J0D01*
G01*
G37*
%TD*%
%TO.C,C3*%
G36*
G01*
X-32375000Y-56650000D02*
X-31425000Y-56650000D01*
G75*
G02*
X-31175000Y-56900000I0J-250000D01*
G01*
X-31175000Y-57400000D01*
G75*
G02*
X-31425000Y-57650000I-250000J0D01*
G01*
X-32375000Y-57650000D01*
G75*
G02*
X-32625000Y-57400000I0J250000D01*
G01*
X-32625000Y-56900000D01*
G75*
G02*
X-32375000Y-56650000I250000J0D01*
G01*
G37*
G36*
G01*
X-32375000Y-54750000D02*
X-31425000Y-54750000D01*
G75*
G02*
X-31175000Y-55000000I0J-250000D01*
G01*
X-31175000Y-55500000D01*
G75*
G02*
X-31425000Y-55750000I-250000J0D01*
G01*
X-32375000Y-55750000D01*
G75*
G02*
X-32625000Y-55500000I0J250000D01*
G01*
X-32625000Y-55000000D01*
G75*
G02*
X-32375000Y-54750000I250000J0D01*
G01*
G37*
%TD*%
%TO.C,C2*%
G36*
G01*
X-43000000Y-19825000D02*
X-43000000Y-20775000D01*
G75*
G02*
X-43250000Y-21025000I-250000J0D01*
G01*
X-43750000Y-21025000D01*
G75*
G02*
X-44000000Y-20775000I0J250000D01*
G01*
X-44000000Y-19825000D01*
G75*
G02*
X-43750000Y-19575000I250000J0D01*
G01*
X-43250000Y-19575000D01*
G75*
G02*
X-43000000Y-19825000I0J-250000D01*
G01*
G37*
G36*
G01*
X-41100000Y-19825000D02*
X-41100000Y-20775000D01*
G75*
G02*
X-41350000Y-21025000I-250000J0D01*
G01*
X-41850000Y-21025000D01*
G75*
G02*
X-42100000Y-20775000I0J250000D01*
G01*
X-42100000Y-19825000D01*
G75*
G02*
X-41850000Y-19575000I250000J0D01*
G01*
X-41350000Y-19575000D01*
G75*
G02*
X-41100000Y-19825000I0J-250000D01*
G01*
G37*
%TD*%
%TO.C,C1*%
G36*
G01*
X-43000000Y-17375000D02*
X-43000000Y-18325000D01*
G75*
G02*
X-43250000Y-18575000I-250000J0D01*
G01*
X-43750000Y-18575000D01*
G75*
G02*
X-44000000Y-18325000I0J250000D01*
G01*
X-44000000Y-17375000D01*
G75*
G02*
X-43750000Y-17125000I250000J0D01*
G01*
X-43250000Y-17125000D01*
G75*
G02*
X-43000000Y-17375000I0J-250000D01*
G01*
G37*
G36*
G01*
X-41100000Y-17375000D02*
X-41100000Y-18325000D01*
G75*
G02*
X-41350000Y-18575000I-250000J0D01*
G01*
X-41850000Y-18575000D01*
G75*
G02*
X-42100000Y-18325000I0J250000D01*
G01*
X-42100000Y-17375000D01*
G75*
G02*
X-41850000Y-17125000I250000J0D01*
G01*
X-41350000Y-17125000D01*
G75*
G02*
X-41100000Y-17375000I0J-250000D01*
G01*
G37*
%TD*%
%TO.C,U4*%
G36*
G01*
X-25945000Y-59500000D02*
X-25645000Y-59500000D01*
G75*
G02*
X-25495000Y-59650000I0J-150000D01*
G01*
X-25495000Y-61300000D01*
G75*
G02*
X-25645000Y-61450000I-150000J0D01*
G01*
X-25945000Y-61450000D01*
G75*
G02*
X-26095000Y-61300000I0J150000D01*
G01*
X-26095000Y-59650000D01*
G75*
G02*
X-25945000Y-59500000I150000J0D01*
G01*
G37*
G36*
G01*
X-27215000Y-59500000D02*
X-26915000Y-59500000D01*
G75*
G02*
X-26765000Y-59650000I0J-150000D01*
G01*
X-26765000Y-61300000D01*
G75*
G02*
X-26915000Y-61450000I-150000J0D01*
G01*
X-27215000Y-61450000D01*
G75*
G02*
X-27365000Y-61300000I0J150000D01*
G01*
X-27365000Y-59650000D01*
G75*
G02*
X-27215000Y-59500000I150000J0D01*
G01*
G37*
G36*
G01*
X-28485000Y-59500000D02*
X-28185000Y-59500000D01*
G75*
G02*
X-28035000Y-59650000I0J-150000D01*
G01*
X-28035000Y-61300000D01*
G75*
G02*
X-28185000Y-61450000I-150000J0D01*
G01*
X-28485000Y-61450000D01*
G75*
G02*
X-28635000Y-61300000I0J150000D01*
G01*
X-28635000Y-59650000D01*
G75*
G02*
X-28485000Y-59500000I150000J0D01*
G01*
G37*
G36*
G01*
X-29755000Y-59500000D02*
X-29455000Y-59500000D01*
G75*
G02*
X-29305000Y-59650000I0J-150000D01*
G01*
X-29305000Y-61300000D01*
G75*
G02*
X-29455000Y-61450000I-150000J0D01*
G01*
X-29755000Y-61450000D01*
G75*
G02*
X-29905000Y-61300000I0J150000D01*
G01*
X-29905000Y-59650000D01*
G75*
G02*
X-29755000Y-59500000I150000J0D01*
G01*
G37*
G36*
G01*
X-29755000Y-54550000D02*
X-29455000Y-54550000D01*
G75*
G02*
X-29305000Y-54700000I0J-150000D01*
G01*
X-29305000Y-56350000D01*
G75*
G02*
X-29455000Y-56500000I-150000J0D01*
G01*
X-29755000Y-56500000D01*
G75*
G02*
X-29905000Y-56350000I0J150000D01*
G01*
X-29905000Y-54700000D01*
G75*
G02*
X-29755000Y-54550000I150000J0D01*
G01*
G37*
G36*
G01*
X-28485000Y-54550000D02*
X-28185000Y-54550000D01*
G75*
G02*
X-28035000Y-54700000I0J-150000D01*
G01*
X-28035000Y-56350000D01*
G75*
G02*
X-28185000Y-56500000I-150000J0D01*
G01*
X-28485000Y-56500000D01*
G75*
G02*
X-28635000Y-56350000I0J150000D01*
G01*
X-28635000Y-54700000D01*
G75*
G02*
X-28485000Y-54550000I150000J0D01*
G01*
G37*
G36*
G01*
X-27215000Y-54550000D02*
X-26915000Y-54550000D01*
G75*
G02*
X-26765000Y-54700000I0J-150000D01*
G01*
X-26765000Y-56350000D01*
G75*
G02*
X-26915000Y-56500000I-150000J0D01*
G01*
X-27215000Y-56500000D01*
G75*
G02*
X-27365000Y-56350000I0J150000D01*
G01*
X-27365000Y-54700000D01*
G75*
G02*
X-27215000Y-54550000I150000J0D01*
G01*
G37*
G36*
G01*
X-25945000Y-54550000D02*
X-25645000Y-54550000D01*
G75*
G02*
X-25495000Y-54700000I0J-150000D01*
G01*
X-25495000Y-56350000D01*
G75*
G02*
X-25645000Y-56500000I-150000J0D01*
G01*
X-25945000Y-56500000D01*
G75*
G02*
X-26095000Y-56350000I0J150000D01*
G01*
X-26095000Y-54700000D01*
G75*
G02*
X-25945000Y-54550000I150000J0D01*
G01*
G37*
%TD*%
%TO.C,U3*%
G36*
G01*
X-42500000Y-22745000D02*
X-42500000Y-22445000D01*
G75*
G02*
X-42350000Y-22295000I150000J0D01*
G01*
X-40700000Y-22295000D01*
G75*
G02*
X-40550000Y-22445000I0J-150000D01*
G01*
X-40550000Y-22745000D01*
G75*
G02*
X-40700000Y-22895000I-150000J0D01*
G01*
X-42350000Y-22895000D01*
G75*
G02*
X-42500000Y-22745000I0J150000D01*
G01*
G37*
G36*
G01*
X-42500000Y-24015000D02*
X-42500000Y-23715000D01*
G75*
G02*
X-42350000Y-23565000I150000J0D01*
G01*
X-40700000Y-23565000D01*
G75*
G02*
X-40550000Y-23715000I0J-150000D01*
G01*
X-40550000Y-24015000D01*
G75*
G02*
X-40700000Y-24165000I-150000J0D01*
G01*
X-42350000Y-24165000D01*
G75*
G02*
X-42500000Y-24015000I0J150000D01*
G01*
G37*
G36*
G01*
X-42500000Y-25285000D02*
X-42500000Y-24985000D01*
G75*
G02*
X-42350000Y-24835000I150000J0D01*
G01*
X-40700000Y-24835000D01*
G75*
G02*
X-40550000Y-24985000I0J-150000D01*
G01*
X-40550000Y-25285000D01*
G75*
G02*
X-40700000Y-25435000I-150000J0D01*
G01*
X-42350000Y-25435000D01*
G75*
G02*
X-42500000Y-25285000I0J150000D01*
G01*
G37*
G36*
G01*
X-42500000Y-26555000D02*
X-42500000Y-26255000D01*
G75*
G02*
X-42350000Y-26105000I150000J0D01*
G01*
X-40700000Y-26105000D01*
G75*
G02*
X-40550000Y-26255000I0J-150000D01*
G01*
X-40550000Y-26555000D01*
G75*
G02*
X-40700000Y-26705000I-150000J0D01*
G01*
X-42350000Y-26705000D01*
G75*
G02*
X-42500000Y-26555000I0J150000D01*
G01*
G37*
G36*
G01*
X-47450000Y-26555000D02*
X-47450000Y-26255000D01*
G75*
G02*
X-47300000Y-26105000I150000J0D01*
G01*
X-45650000Y-26105000D01*
G75*
G02*
X-45500000Y-26255000I0J-150000D01*
G01*
X-45500000Y-26555000D01*
G75*
G02*
X-45650000Y-26705000I-150000J0D01*
G01*
X-47300000Y-26705000D01*
G75*
G02*
X-47450000Y-26555000I0J150000D01*
G01*
G37*
G36*
G01*
X-47450000Y-25285000D02*
X-47450000Y-24985000D01*
G75*
G02*
X-47300000Y-24835000I150000J0D01*
G01*
X-45650000Y-24835000D01*
G75*
G02*
X-45500000Y-24985000I0J-150000D01*
G01*
X-45500000Y-25285000D01*
G75*
G02*
X-45650000Y-25435000I-150000J0D01*
G01*
X-47300000Y-25435000D01*
G75*
G02*
X-47450000Y-25285000I0J150000D01*
G01*
G37*
G36*
G01*
X-47450000Y-24015000D02*
X-47450000Y-23715000D01*
G75*
G02*
X-47300000Y-23565000I150000J0D01*
G01*
X-45650000Y-23565000D01*
G75*
G02*
X-45500000Y-23715000I0J-150000D01*
G01*
X-45500000Y-24015000D01*
G75*
G02*
X-45650000Y-24165000I-150000J0D01*
G01*
X-47300000Y-24165000D01*
G75*
G02*
X-47450000Y-24015000I0J150000D01*
G01*
G37*
G36*
G01*
X-47450000Y-22745000D02*
X-47450000Y-22445000D01*
G75*
G02*
X-47300000Y-22295000I150000J0D01*
G01*
X-45650000Y-22295000D01*
G75*
G02*
X-45500000Y-22445000I0J-150000D01*
G01*
X-45500000Y-22745000D01*
G75*
G02*
X-45650000Y-22895000I-150000J0D01*
G01*
X-47300000Y-22895000D01*
G75*
G02*
X-47450000Y-22745000I0J150000D01*
G01*
G37*
%TD*%
D33*
%TO.C,J6*%
X-37750000Y-69050000D03*
D36*
X-34980000Y-69050000D03*
X-32210000Y-69050000D03*
X-29440000Y-69050000D03*
X-26670000Y-69050000D03*
X-36365000Y-71890000D03*
X-33595000Y-71890000D03*
X-30825000Y-71890000D03*
X-28055000Y-71890000D03*
D37*
X-44710000Y-70470000D03*
X-19710000Y-70470000D03*
%TD*%
D22*
%TO.C,J5*%
X-60950000Y-5050000D03*
X-55950000Y-5050000D03*
%TD*%
M02*
