%TF.GenerationSoftware,KiCad,Pcbnew,5.1.10*%
%TF.CreationDate,2021-06-21T15:48:10-04:00*%
%TF.ProjectId,CANalog,43414e61-6c6f-4672-9e6b-696361645f70,rev?*%
%TF.SameCoordinates,PX5b8d800PY848f8c0*%
%TF.FileFunction,Copper,L2,Bot*%
%TF.FilePolarity,Positive*%
%FSLAX46Y46*%
G04 Gerber Fmt 4.6, Leading zero omitted, Abs format (unit mm)*
G04 Created by KiCad (PCBNEW 5.1.10) date 2021-06-21 15:48:10*
%MOMM*%
%LPD*%
G01*
G04 APERTURE LIST*
%TA.AperFunction,EtchedComponent*%
%ADD10C,0.100000*%
%TD*%
%TA.AperFunction,SMDPad,CuDef*%
%ADD11C,0.500000*%
%TD*%
%TA.AperFunction,ComponentPad*%
%ADD12O,1.700000X1.700000*%
%TD*%
%TA.AperFunction,ComponentPad*%
%ADD13R,1.700000X1.700000*%
%TD*%
%TA.AperFunction,ComponentPad*%
%ADD14C,1.800000*%
%TD*%
%TA.AperFunction,ViaPad*%
%ADD15C,0.800000*%
%TD*%
%TA.AperFunction,Conductor*%
%ADD16C,0.700000*%
%TD*%
%TA.AperFunction,Conductor*%
%ADD17C,0.300000*%
%TD*%
%TA.AperFunction,Conductor*%
%ADD18C,0.250000*%
%TD*%
%TA.AperFunction,Conductor*%
%ADD19C,0.254000*%
%TD*%
%TA.AperFunction,Conductor*%
%ADD20C,0.100000*%
%TD*%
G04 APERTURE END LIST*
D10*
%TO.C,NT1*%
G36*
X-18750000Y-31000000D02*
G01*
X-17750000Y-31000000D01*
X-17750000Y-30500000D01*
X-18750000Y-30500000D01*
X-18750000Y-31000000D01*
G37*
%TD*%
D11*
%TO.P,NT1,2*%
%TO.N,GNDA*%
X-17750000Y-30750000D03*
%TO.P,NT1,1*%
%TO.N,GND*%
X-18750000Y-30750000D03*
%TD*%
D12*
%TO.P,JP2,2*%
%TO.N,/BOOT0*%
X-18000000Y-40510000D03*
D13*
%TO.P,JP2,1*%
%TO.N,Net-(JP2-Pad1)*%
X-18000000Y-43050000D03*
%TD*%
D14*
%TO.P,J7,2*%
%TO.N,/CANL*%
X-33800000Y-5300000D03*
%TO.P,J7,1*%
%TO.N,/CANH*%
X-28800000Y-5300000D03*
%TO.P,J7,3*%
%TO.N,GND*%
X-38800000Y-5300000D03*
%TD*%
%TO.P,J6,2*%
%TO.N,GNDA*%
X-16300000Y-5300000D03*
%TO.P,J6,1*%
%TO.N,Net-(J6-Pad1)*%
X-11300000Y-5300000D03*
%TD*%
%TO.P,J1,2*%
%TO.N,GND*%
X-61300000Y-5300000D03*
%TO.P,J1,1*%
%TO.N,Net-(J1-Pad1)*%
X-56300000Y-5300000D03*
%TD*%
D15*
%TO.N,GND*%
X-63100000Y-12000000D03*
X-52375000Y-12625000D03*
X-53675000Y-12625000D03*
X-44700000Y-13650000D03*
X-43700000Y-13650000D03*
X-39300000Y-12500000D03*
X-60500000Y-17200000D03*
X-61500000Y-17200000D03*
X-48000000Y-21500000D03*
X-48000000Y-23200000D03*
X-35350000Y-11475000D03*
X-29000000Y-15175000D03*
X-63250000Y-43850000D03*
X-41850000Y-18550000D03*
X-42450010Y-37050000D03*
X-39100000Y-16550000D03*
X-33100000Y-11774998D03*
X-28750000Y-34250000D03*
X-21850000Y-33000000D03*
X-20700000Y-25950000D03*
X-21699994Y-40899994D03*
X-13050000Y-38950000D03*
X-23900000Y-4800000D03*
X-23900000Y-7650000D03*
X-31700000Y-40900000D03*
X-12850000Y-40250000D03*
X-3350000Y-34250000D03*
X-8900000Y-36250000D03*
X-26622938Y-40829513D03*
X-33000000Y-38450000D03*
X-45975000Y-41875000D03*
X-20825000Y-18225000D03*
X-23875000Y-10475000D03*
X-28475000Y-23750000D03*
X-37550000Y-23900000D03*
X-21875000Y-22000000D03*
X-23500000Y-25650000D03*
X-50575000Y-3225000D03*
X-65575000Y-16150000D03*
X-44725000Y-3225000D03*
X-17200000Y-37175000D03*
%TO.N,GNDA*%
X-8900000Y-29750000D03*
X-13100000Y-30500000D03*
X-12300000Y-10500000D03*
X-8000000Y-15000000D03*
X-6000000Y-14950000D03*
X-9500000Y-19700000D03*
%TO.N,+5V*%
X-42550000Y-10350000D03*
X-42500000Y-14649980D03*
%TO.N,STM_RESET*%
X-59250000Y-33450000D03*
X-41650000Y-36425000D03*
X-19225000Y-39450000D03*
X-21675000Y-39450000D03*
%TO.N,Net-(D8-Pad1)*%
X-30350000Y-43300000D03*
X-30350000Y-40900000D03*
%TO.N,Net-(D9-Pad1)*%
X-25350000Y-43300000D03*
X-25350000Y-40900000D03*
%TO.N,/SWCLK*%
X-33650000Y-35275019D03*
X-30381645Y-34568355D03*
%TO.N,STM_CS*%
X-42969130Y-31975000D03*
X-51250000Y-20500000D03*
X-32360953Y-31951396D03*
X-28375000Y-31950000D03*
%TO.N,GPIO0*%
X-44000000Y-22550000D03*
X-41849990Y-23600000D03*
%TO.N,CAN_TX*%
X-27350000Y-32000000D03*
X-27150000Y-27200000D03*
%TO.N,CAN_RX*%
X-26300000Y-32000000D03*
X-26150000Y-27150000D03*
%TO.N,CAN_TERM*%
X-25000000Y-31500000D03*
X-25125000Y-27125000D03*
%TO.N,MOSI*%
X-51250000Y-35850000D03*
X-43750000Y-35700000D03*
%TO.N,MISO*%
X-43050000Y-34950000D03*
X-53250000Y-35850000D03*
%TO.N,SCLK*%
X-55250000Y-35850000D03*
X-43750000Y-34200000D03*
%TO.N,STM_RDY*%
X-43750000Y-32700000D03*
X-57250000Y-32700000D03*
%TO.N,Net-(R26-Pad2)*%
X-26182024Y-13971104D03*
X-29000000Y-13975000D03*
%TO.N,/GPIO15*%
X-59250000Y-18900000D03*
X-59250000Y-20400000D03*
%TO.N,I2C_SCL*%
X-14800000Y-18000000D03*
X-20050000Y-34225000D03*
X-20050000Y-32175000D03*
X-20050000Y-28675000D03*
%TO.N,I2C_SDA*%
X-16800000Y-19400000D03*
X-18925000Y-28700000D03*
X-18950000Y-34225000D03*
X-19050000Y-32225000D03*
%TD*%
D16*
%TO.N,GND*%
X-18750000Y-30750000D02*
X-18750000Y-29825000D01*
X-18750000Y-30750000D02*
X-18750000Y-31200000D01*
%TO.N,GNDA*%
X-17750000Y-30750000D02*
X-17750000Y-29850000D01*
X-17750000Y-29850000D02*
X-17750000Y-31050000D01*
X-17750000Y-31050000D02*
X-16775000Y-31050000D01*
D17*
%TO.N,+5V*%
X-42500000Y-10400000D02*
X-42550000Y-10350000D01*
X-42500000Y-14649980D02*
X-42500000Y-10400000D01*
D18*
%TO.N,STM_RESET*%
X-59250000Y-33450000D02*
X-44150000Y-33450000D01*
X-41650000Y-36425000D02*
X-41650000Y-33800000D01*
X-42000000Y-33450000D02*
X-44150000Y-33450000D01*
X-41650000Y-33800000D02*
X-42000000Y-33450000D01*
X-21675000Y-39450000D02*
X-19225000Y-39450000D01*
%TO.N,Net-(D8-Pad1)*%
X-30350000Y-43300000D02*
X-30350000Y-40900000D01*
%TO.N,Net-(D9-Pad1)*%
X-25350000Y-43300000D02*
X-25350000Y-40900000D01*
%TO.N,/SWCLK*%
X-33650000Y-35275019D02*
X-32924981Y-34550000D01*
X-30400000Y-34550000D02*
X-30381645Y-34568355D01*
X-32924981Y-34550000D02*
X-30400000Y-34550000D01*
%TO.N,STM_CS*%
X-51250000Y-31450000D02*
X-50725000Y-31975000D01*
X-51250000Y-20500000D02*
X-51250000Y-31450000D01*
X-50725000Y-31975000D02*
X-42969130Y-31975000D01*
X-28376396Y-31951396D02*
X-32360953Y-31951396D01*
X-28375000Y-31950000D02*
X-28376396Y-31951396D01*
D17*
%TO.N,GPIO0*%
X-42950000Y-23600000D02*
X-41849990Y-23600000D01*
X-44000000Y-22550000D02*
X-42950000Y-23600000D01*
D18*
%TO.N,CAN_TX*%
X-26250000Y-30900000D02*
X-27350000Y-32000000D01*
X-26250000Y-28100000D02*
X-26250000Y-30900000D01*
X-27150000Y-27200000D02*
X-26250000Y-28100000D01*
%TO.N,CAN_RX*%
X-25770137Y-31470137D02*
X-26300000Y-32000000D01*
X-26150000Y-27150000D02*
X-25770137Y-27529863D01*
X-25770137Y-27529863D02*
X-25770137Y-31470137D01*
%TO.N,CAN_TERM*%
X-25300000Y-31200000D02*
X-25000000Y-31500000D01*
X-25300000Y-27300000D02*
X-25300000Y-31200000D01*
X-25125000Y-27125000D02*
X-25300000Y-27300000D01*
%TO.N,MOSI*%
X-43900000Y-35850000D02*
X-51250000Y-35850000D01*
X-43750000Y-35700000D02*
X-43900000Y-35850000D01*
%TO.N,MISO*%
X-52350000Y-34950000D02*
X-43050000Y-34950000D01*
X-53250000Y-35850000D02*
X-52350000Y-34950000D01*
%TO.N,SCLK*%
X-53600000Y-34200000D02*
X-55250000Y-35850000D01*
X-43750000Y-34200000D02*
X-53600000Y-34200000D01*
%TO.N,STM_RDY*%
X-43750000Y-32700000D02*
X-57250000Y-32700000D01*
D17*
%TO.N,Net-(R26-Pad2)*%
X-28996104Y-13971104D02*
X-29000000Y-13975000D01*
X-26182024Y-13971104D02*
X-28996104Y-13971104D01*
%TO.N,/GPIO15*%
X-59250000Y-18900000D02*
X-59250000Y-20400000D01*
D18*
%TO.N,I2C_SCL*%
X-19725000Y-33900000D02*
X-20050000Y-34225000D01*
X-19725000Y-32500000D02*
X-19725000Y-33900000D01*
X-20050000Y-32175000D02*
X-19725000Y-32500000D01*
X-18700000Y-18675000D02*
X-15475000Y-18675000D01*
X-19800000Y-19775000D02*
X-18700000Y-18675000D01*
X-15475000Y-18675000D02*
X-14800000Y-18000000D01*
X-19800000Y-28425000D02*
X-19800000Y-19775000D01*
X-20050000Y-28675000D02*
X-19800000Y-28425000D01*
%TO.N,I2C_SDA*%
X-18750000Y-19400000D02*
X-16800000Y-19400000D01*
X-19350000Y-20000000D02*
X-18750000Y-19400000D01*
X-19350000Y-28275000D02*
X-19350000Y-20000000D01*
X-18925000Y-28700000D02*
X-19350000Y-28275000D01*
X-19275000Y-32450000D02*
X-19275000Y-33900000D01*
X-19050000Y-32225000D02*
X-19275000Y-32450000D01*
X-19275000Y-33900000D02*
X-18950000Y-34225000D01*
%TD*%
D19*
%TO.N,GND*%
X-18527000Y-18173000D02*
X-18675357Y-18173000D01*
X-18700000Y-18170573D01*
X-18724643Y-18173000D01*
X-18724653Y-18173000D01*
X-18798409Y-18180264D01*
X-18893036Y-18208969D01*
X-18980245Y-18255583D01*
X-18980247Y-18255584D01*
X-18980246Y-18255584D01*
X-19010296Y-18280246D01*
X-19056684Y-18318316D01*
X-19072397Y-18337462D01*
X-20137537Y-19402603D01*
X-20156683Y-19418316D01*
X-20172396Y-19437462D01*
X-20172399Y-19437465D01*
X-20219416Y-19494755D01*
X-20266030Y-19581964D01*
X-20294735Y-19676591D01*
X-20304427Y-19775000D01*
X-20301999Y-19799653D01*
X-20302000Y-27938362D01*
X-20418048Y-27986431D01*
X-20545309Y-28071464D01*
X-20653536Y-28179691D01*
X-20738569Y-28306952D01*
X-20797141Y-28448357D01*
X-20827000Y-28598472D01*
X-20827000Y-28751528D01*
X-20797141Y-28901643D01*
X-20738569Y-29043048D01*
X-20653536Y-29170309D01*
X-20545309Y-29278536D01*
X-20418048Y-29363569D01*
X-20276643Y-29422141D01*
X-20126528Y-29452000D01*
X-19973472Y-29452000D01*
X-19823357Y-29422141D01*
X-19681952Y-29363569D01*
X-19554691Y-29278536D01*
X-19500000Y-29223845D01*
X-19420309Y-29303536D01*
X-19293048Y-29388569D01*
X-19151643Y-29447141D01*
X-19001528Y-29477000D01*
X-18848472Y-29477000D01*
X-18698357Y-29447141D01*
X-18556952Y-29388569D01*
X-18527000Y-29368556D01*
X-18527000Y-30123000D01*
X-18750000Y-30123000D01*
X-18785308Y-30126462D01*
X-18820643Y-30129678D01*
X-18821910Y-30130051D01*
X-18823226Y-30130180D01*
X-18857225Y-30140445D01*
X-18891227Y-30150452D01*
X-18892396Y-30151063D01*
X-18893664Y-30151446D01*
X-18925034Y-30168126D01*
X-18956431Y-30184540D01*
X-18957460Y-30185368D01*
X-18958629Y-30185989D01*
X-18986142Y-30208428D01*
X-19013773Y-30230644D01*
X-19014623Y-30231657D01*
X-19015647Y-30232492D01*
X-19038243Y-30259806D01*
X-19061068Y-30287007D01*
X-19061706Y-30288167D01*
X-19062547Y-30289184D01*
X-19079393Y-30320340D01*
X-19096514Y-30351484D01*
X-19096914Y-30352746D01*
X-19097542Y-30353907D01*
X-19108015Y-30387738D01*
X-19118762Y-30421617D01*
X-19118910Y-30422933D01*
X-19119300Y-30424194D01*
X-19123010Y-30459488D01*
X-19126963Y-30494736D01*
X-19126981Y-30497271D01*
X-19126991Y-30497368D01*
X-19126982Y-30497465D01*
X-19127000Y-30500000D01*
X-19127000Y-31000000D01*
X-19123538Y-31035308D01*
X-19120322Y-31070643D01*
X-19119949Y-31071910D01*
X-19119820Y-31073226D01*
X-19109555Y-31107225D01*
X-19099548Y-31141227D01*
X-19098937Y-31142396D01*
X-19098554Y-31143664D01*
X-19081874Y-31175034D01*
X-19065460Y-31206431D01*
X-19064632Y-31207460D01*
X-19064011Y-31208629D01*
X-19041572Y-31236142D01*
X-19019356Y-31263773D01*
X-19018343Y-31264623D01*
X-19017508Y-31265647D01*
X-18990194Y-31288243D01*
X-18962993Y-31311068D01*
X-18961833Y-31311706D01*
X-18960816Y-31312547D01*
X-18929660Y-31329393D01*
X-18898516Y-31346514D01*
X-18897254Y-31346914D01*
X-18896093Y-31347542D01*
X-18862262Y-31358015D01*
X-18828383Y-31368762D01*
X-18827067Y-31368910D01*
X-18825806Y-31369300D01*
X-18790512Y-31373010D01*
X-18755264Y-31376963D01*
X-18752729Y-31376981D01*
X-18752632Y-31376991D01*
X-18752535Y-31376982D01*
X-18750000Y-31377000D01*
X-18527000Y-31377000D01*
X-18527000Y-31400000D01*
X-18519756Y-31473549D01*
X-18498303Y-31544272D01*
X-18463464Y-31609450D01*
X-18416579Y-31666579D01*
X-18359450Y-31713464D01*
X-18294272Y-31748303D01*
X-18223549Y-31769756D01*
X-18150000Y-31777000D01*
X-17785708Y-31777000D01*
X-17750000Y-31780517D01*
X-17714292Y-31777000D01*
X-1401999Y-31777000D01*
X-1401999Y-42980333D01*
X-1453369Y-43504243D01*
X-1599813Y-43989288D01*
X-1837676Y-44436646D01*
X-2157904Y-44829282D01*
X-2548294Y-45152241D01*
X-2993982Y-45393223D01*
X-3477987Y-45543048D01*
X-4000820Y-45598000D01*
X-67980343Y-45598000D01*
X-68504243Y-45546631D01*
X-68989288Y-45400187D01*
X-69436646Y-45162324D01*
X-69829282Y-44842096D01*
X-70152241Y-44451706D01*
X-70393223Y-44006018D01*
X-70543048Y-43522013D01*
X-70598000Y-42999180D01*
X-70598000Y-42829905D01*
X-69727000Y-42829905D01*
X-69727000Y-43170095D01*
X-69660632Y-43503747D01*
X-69530447Y-43818041D01*
X-69341448Y-44100898D01*
X-69100898Y-44341448D01*
X-68818041Y-44530447D01*
X-68503747Y-44660632D01*
X-68170095Y-44727000D01*
X-67829905Y-44727000D01*
X-67496253Y-44660632D01*
X-67181959Y-44530447D01*
X-66899102Y-44341448D01*
X-66658552Y-44100898D01*
X-66469553Y-43818041D01*
X-66339368Y-43503747D01*
X-66273000Y-43170095D01*
X-66273000Y-42829905D01*
X-66339368Y-42496253D01*
X-66469553Y-42181959D01*
X-66658552Y-41899102D01*
X-66899102Y-41658552D01*
X-67181959Y-41469553D01*
X-67496253Y-41339368D01*
X-67829905Y-41273000D01*
X-68170095Y-41273000D01*
X-68503747Y-41339368D01*
X-68818041Y-41469553D01*
X-69100898Y-41658552D01*
X-69341448Y-41899102D01*
X-69530447Y-42181959D01*
X-69660632Y-42496253D01*
X-69727000Y-42829905D01*
X-70598000Y-42829905D01*
X-70598000Y-40823472D01*
X-31127000Y-40823472D01*
X-31127000Y-40976528D01*
X-31097141Y-41126643D01*
X-31038569Y-41268048D01*
X-30953536Y-41395309D01*
X-30851999Y-41496846D01*
X-30852000Y-42703155D01*
X-30953536Y-42804691D01*
X-31038569Y-42931952D01*
X-31097141Y-43073357D01*
X-31127000Y-43223472D01*
X-31127000Y-43376528D01*
X-31097141Y-43526643D01*
X-31038569Y-43668048D01*
X-30953536Y-43795309D01*
X-30845309Y-43903536D01*
X-30718048Y-43988569D01*
X-30576643Y-44047141D01*
X-30426528Y-44077000D01*
X-30273472Y-44077000D01*
X-30123357Y-44047141D01*
X-29981952Y-43988569D01*
X-29854691Y-43903536D01*
X-29746464Y-43795309D01*
X-29661431Y-43668048D01*
X-29602859Y-43526643D01*
X-29573000Y-43376528D01*
X-29573000Y-43223472D01*
X-29602859Y-43073357D01*
X-29661431Y-42931952D01*
X-29746464Y-42804691D01*
X-29848000Y-42703155D01*
X-29848000Y-41496845D01*
X-29746464Y-41395309D01*
X-29661431Y-41268048D01*
X-29602859Y-41126643D01*
X-29573000Y-40976528D01*
X-29573000Y-40823472D01*
X-26127000Y-40823472D01*
X-26127000Y-40976528D01*
X-26097141Y-41126643D01*
X-26038569Y-41268048D01*
X-25953536Y-41395309D01*
X-25851999Y-41496846D01*
X-25852000Y-42703155D01*
X-25953536Y-42804691D01*
X-26038569Y-42931952D01*
X-26097141Y-43073357D01*
X-26127000Y-43223472D01*
X-26127000Y-43376528D01*
X-26097141Y-43526643D01*
X-26038569Y-43668048D01*
X-25953536Y-43795309D01*
X-25845309Y-43903536D01*
X-25718048Y-43988569D01*
X-25576643Y-44047141D01*
X-25426528Y-44077000D01*
X-25273472Y-44077000D01*
X-25123357Y-44047141D01*
X-24981952Y-43988569D01*
X-24854691Y-43903536D01*
X-24746464Y-43795309D01*
X-24661431Y-43668048D01*
X-24602859Y-43526643D01*
X-24573000Y-43376528D01*
X-24573000Y-43223472D01*
X-24602859Y-43073357D01*
X-24661431Y-42931952D01*
X-24746464Y-42804691D01*
X-24848000Y-42703155D01*
X-24848000Y-42200000D01*
X-19228824Y-42200000D01*
X-19228824Y-43900000D01*
X-19221545Y-43973905D01*
X-19199988Y-44044970D01*
X-19164981Y-44110463D01*
X-19117869Y-44167869D01*
X-19060463Y-44214981D01*
X-18994970Y-44249988D01*
X-18923905Y-44271545D01*
X-18850000Y-44278824D01*
X-17150000Y-44278824D01*
X-17076095Y-44271545D01*
X-17005030Y-44249988D01*
X-16939537Y-44214981D01*
X-16882131Y-44167869D01*
X-16835019Y-44110463D01*
X-16800012Y-44044970D01*
X-16778455Y-43973905D01*
X-16771176Y-43900000D01*
X-16771176Y-42829905D01*
X-5727000Y-42829905D01*
X-5727000Y-43170095D01*
X-5660632Y-43503747D01*
X-5530447Y-43818041D01*
X-5341448Y-44100898D01*
X-5100898Y-44341448D01*
X-4818041Y-44530447D01*
X-4503747Y-44660632D01*
X-4170095Y-44727000D01*
X-3829905Y-44727000D01*
X-3496253Y-44660632D01*
X-3181959Y-44530447D01*
X-2899102Y-44341448D01*
X-2658552Y-44100898D01*
X-2469553Y-43818041D01*
X-2339368Y-43503747D01*
X-2273000Y-43170095D01*
X-2273000Y-42829905D01*
X-2339368Y-42496253D01*
X-2469553Y-42181959D01*
X-2658552Y-41899102D01*
X-2899102Y-41658552D01*
X-3181959Y-41469553D01*
X-3496253Y-41339368D01*
X-3829905Y-41273000D01*
X-4170095Y-41273000D01*
X-4503747Y-41339368D01*
X-4818041Y-41469553D01*
X-5100898Y-41658552D01*
X-5341448Y-41899102D01*
X-5530447Y-42181959D01*
X-5660632Y-42496253D01*
X-5727000Y-42829905D01*
X-16771176Y-42829905D01*
X-16771176Y-42200000D01*
X-16778455Y-42126095D01*
X-16800012Y-42055030D01*
X-16835019Y-41989537D01*
X-16882131Y-41932131D01*
X-16939537Y-41885019D01*
X-17005030Y-41850012D01*
X-17076095Y-41828455D01*
X-17150000Y-41821176D01*
X-18850000Y-41821176D01*
X-18923905Y-41828455D01*
X-18994970Y-41850012D01*
X-19060463Y-41885019D01*
X-19117869Y-41932131D01*
X-19164981Y-41989537D01*
X-19199988Y-42055030D01*
X-19221545Y-42126095D01*
X-19228824Y-42200000D01*
X-24848000Y-42200000D01*
X-24848000Y-41496845D01*
X-24746464Y-41395309D01*
X-24661431Y-41268048D01*
X-24602859Y-41126643D01*
X-24573000Y-40976528D01*
X-24573000Y-40823472D01*
X-24602859Y-40673357D01*
X-24661431Y-40531952D01*
X-24746464Y-40404691D01*
X-24854691Y-40296464D01*
X-24981952Y-40211431D01*
X-25123357Y-40152859D01*
X-25273472Y-40123000D01*
X-25426528Y-40123000D01*
X-25576643Y-40152859D01*
X-25718048Y-40211431D01*
X-25845309Y-40296464D01*
X-25953536Y-40404691D01*
X-26038569Y-40531952D01*
X-26097141Y-40673357D01*
X-26127000Y-40823472D01*
X-29573000Y-40823472D01*
X-29602859Y-40673357D01*
X-29661431Y-40531952D01*
X-29746464Y-40404691D01*
X-29854691Y-40296464D01*
X-29981952Y-40211431D01*
X-30123357Y-40152859D01*
X-30273472Y-40123000D01*
X-30426528Y-40123000D01*
X-30576643Y-40152859D01*
X-30718048Y-40211431D01*
X-30845309Y-40296464D01*
X-30953536Y-40404691D01*
X-31038569Y-40531952D01*
X-31097141Y-40673357D01*
X-31127000Y-40823472D01*
X-70598000Y-40823472D01*
X-70598000Y-39373472D01*
X-22452000Y-39373472D01*
X-22452000Y-39526528D01*
X-22422141Y-39676643D01*
X-22363569Y-39818048D01*
X-22278536Y-39945309D01*
X-22170309Y-40053536D01*
X-22043048Y-40138569D01*
X-21901643Y-40197141D01*
X-21751528Y-40227000D01*
X-21598472Y-40227000D01*
X-21448357Y-40197141D01*
X-21306952Y-40138569D01*
X-21179691Y-40053536D01*
X-21078155Y-39952000D01*
X-19821845Y-39952000D01*
X-19720309Y-40053536D01*
X-19593048Y-40138569D01*
X-19451643Y-40197141D01*
X-19301528Y-40227000D01*
X-19194746Y-40227000D01*
X-19227000Y-40389151D01*
X-19227000Y-40630849D01*
X-19179847Y-40867903D01*
X-19087353Y-41091202D01*
X-18953073Y-41292167D01*
X-18782167Y-41463073D01*
X-18581202Y-41597353D01*
X-18357903Y-41689847D01*
X-18120849Y-41737000D01*
X-17879151Y-41737000D01*
X-17642097Y-41689847D01*
X-17418798Y-41597353D01*
X-17217833Y-41463073D01*
X-17046927Y-41292167D01*
X-16912647Y-41091202D01*
X-16820153Y-40867903D01*
X-16773000Y-40630849D01*
X-16773000Y-40389151D01*
X-16820153Y-40152097D01*
X-16912647Y-39928798D01*
X-17046927Y-39727833D01*
X-17217833Y-39556927D01*
X-17418798Y-39422647D01*
X-17642097Y-39330153D01*
X-17879151Y-39283000D01*
X-18120849Y-39283000D01*
X-18357903Y-39330153D01*
X-18449102Y-39367929D01*
X-18477859Y-39223357D01*
X-18536431Y-39081952D01*
X-18621464Y-38954691D01*
X-18729691Y-38846464D01*
X-18856952Y-38761431D01*
X-18998357Y-38702859D01*
X-19148472Y-38673000D01*
X-19301528Y-38673000D01*
X-19451643Y-38702859D01*
X-19593048Y-38761431D01*
X-19720309Y-38846464D01*
X-19821845Y-38948000D01*
X-21078155Y-38948000D01*
X-21179691Y-38846464D01*
X-21306952Y-38761431D01*
X-21448357Y-38702859D01*
X-21598472Y-38673000D01*
X-21751528Y-38673000D01*
X-21901643Y-38702859D01*
X-22043048Y-38761431D01*
X-22170309Y-38846464D01*
X-22278536Y-38954691D01*
X-22363569Y-39081952D01*
X-22422141Y-39223357D01*
X-22452000Y-39373472D01*
X-70598000Y-39373472D01*
X-70598000Y-39019665D01*
X-70594242Y-38981337D01*
X-70588824Y-38963391D01*
X-70580021Y-38946834D01*
X-70568171Y-38932305D01*
X-70553721Y-38920352D01*
X-70537228Y-38911434D01*
X-70519320Y-38905890D01*
X-70482308Y-38902000D01*
X-66480253Y-38902000D01*
X-66462777Y-38900279D01*
X-66456584Y-38900322D01*
X-66450997Y-38899774D01*
X-66256901Y-38879373D01*
X-66221202Y-38872045D01*
X-66185421Y-38865220D01*
X-66180050Y-38863598D01*
X-66180044Y-38863596D01*
X-65993610Y-38805885D01*
X-65960013Y-38791762D01*
X-65926240Y-38778117D01*
X-65921284Y-38775482D01*
X-65749607Y-38682657D01*
X-65719420Y-38662296D01*
X-65688912Y-38642332D01*
X-65684562Y-38638784D01*
X-65534184Y-38514380D01*
X-65508497Y-38488514D01*
X-65482479Y-38463035D01*
X-65478901Y-38458710D01*
X-65355551Y-38307468D01*
X-65335383Y-38277112D01*
X-65314803Y-38247057D01*
X-65312137Y-38242124D01*
X-65312134Y-38242120D01*
X-65312132Y-38242116D01*
X-65220509Y-38069797D01*
X-65206622Y-38036106D01*
X-65192271Y-38002623D01*
X-65190611Y-37997261D01*
X-65134202Y-37810424D01*
X-65127125Y-37774680D01*
X-65119550Y-37739045D01*
X-65118964Y-37733463D01*
X-65118633Y-37730086D01*
X-32582300Y-37730086D01*
X-32582300Y-37901914D01*
X-32548778Y-38070441D01*
X-32483023Y-38229189D01*
X-32387560Y-38372059D01*
X-32266059Y-38493560D01*
X-32123189Y-38589023D01*
X-31964441Y-38654778D01*
X-31795914Y-38688300D01*
X-31624086Y-38688300D01*
X-31455559Y-38654778D01*
X-31296811Y-38589023D01*
X-31153941Y-38493560D01*
X-31032440Y-38372059D01*
X-30936977Y-38229189D01*
X-30871222Y-38070441D01*
X-30837700Y-37901914D01*
X-30837700Y-37730086D01*
X-30871222Y-37561559D01*
X-30936977Y-37402811D01*
X-31032440Y-37259941D01*
X-31153941Y-37138440D01*
X-31296811Y-37042977D01*
X-31455559Y-36977222D01*
X-31624086Y-36943700D01*
X-31795914Y-36943700D01*
X-31964441Y-36977222D01*
X-32123189Y-37042977D01*
X-32266059Y-37138440D01*
X-32387560Y-37259941D01*
X-32483023Y-37402811D01*
X-32548778Y-37561559D01*
X-32582300Y-37730086D01*
X-65118633Y-37730086D01*
X-65099919Y-37539229D01*
X-65098000Y-37519747D01*
X-65098000Y-33373472D01*
X-60027000Y-33373472D01*
X-60027000Y-33526528D01*
X-59997141Y-33676643D01*
X-59938569Y-33818048D01*
X-59853536Y-33945309D01*
X-59745309Y-34053536D01*
X-59618048Y-34138569D01*
X-59476643Y-34197141D01*
X-59326528Y-34227000D01*
X-59173472Y-34227000D01*
X-59023357Y-34197141D01*
X-58881952Y-34138569D01*
X-58754691Y-34053536D01*
X-58653155Y-33952000D01*
X-54061935Y-33952000D01*
X-55182934Y-35073000D01*
X-55326528Y-35073000D01*
X-55476643Y-35102859D01*
X-55618048Y-35161431D01*
X-55745309Y-35246464D01*
X-55853536Y-35354691D01*
X-55938569Y-35481952D01*
X-55997141Y-35623357D01*
X-56027000Y-35773472D01*
X-56027000Y-35926528D01*
X-55997141Y-36076643D01*
X-55938569Y-36218048D01*
X-55853536Y-36345309D01*
X-55745309Y-36453536D01*
X-55618048Y-36538569D01*
X-55476643Y-36597141D01*
X-55326528Y-36627000D01*
X-55173472Y-36627000D01*
X-55023357Y-36597141D01*
X-54881952Y-36538569D01*
X-54754691Y-36453536D01*
X-54646464Y-36345309D01*
X-54561431Y-36218048D01*
X-54502859Y-36076643D01*
X-54473000Y-35926528D01*
X-54473000Y-35782934D01*
X-53392065Y-34702000D01*
X-52811935Y-34702000D01*
X-53182934Y-35073000D01*
X-53326528Y-35073000D01*
X-53476643Y-35102859D01*
X-53618048Y-35161431D01*
X-53745309Y-35246464D01*
X-53853536Y-35354691D01*
X-53938569Y-35481952D01*
X-53997141Y-35623357D01*
X-54027000Y-35773472D01*
X-54027000Y-35926528D01*
X-53997141Y-36076643D01*
X-53938569Y-36218048D01*
X-53853536Y-36345309D01*
X-53745309Y-36453536D01*
X-53618048Y-36538569D01*
X-53476643Y-36597141D01*
X-53326528Y-36627000D01*
X-53173472Y-36627000D01*
X-53023357Y-36597141D01*
X-52881952Y-36538569D01*
X-52754691Y-36453536D01*
X-52646464Y-36345309D01*
X-52561431Y-36218048D01*
X-52502859Y-36076643D01*
X-52473000Y-35926528D01*
X-52473000Y-35782934D01*
X-52142065Y-35452000D01*
X-51918556Y-35452000D01*
X-51938569Y-35481952D01*
X-51997141Y-35623357D01*
X-52027000Y-35773472D01*
X-52027000Y-35926528D01*
X-51997141Y-36076643D01*
X-51938569Y-36218048D01*
X-51853536Y-36345309D01*
X-51745309Y-36453536D01*
X-51618048Y-36538569D01*
X-51476643Y-36597141D01*
X-51326528Y-36627000D01*
X-51173472Y-36627000D01*
X-51023357Y-36597141D01*
X-50881952Y-36538569D01*
X-50754691Y-36453536D01*
X-50653155Y-36352000D01*
X-44172777Y-36352000D01*
X-44118048Y-36388569D01*
X-43976643Y-36447141D01*
X-43826528Y-36477000D01*
X-43673472Y-36477000D01*
X-43523357Y-36447141D01*
X-43381952Y-36388569D01*
X-43254691Y-36303536D01*
X-43146464Y-36195309D01*
X-43061431Y-36068048D01*
X-43002859Y-35926643D01*
X-42973000Y-35776528D01*
X-42973000Y-35726906D01*
X-42823357Y-35697141D01*
X-42681952Y-35638569D01*
X-42554691Y-35553536D01*
X-42446464Y-35445309D01*
X-42361431Y-35318048D01*
X-42302859Y-35176643D01*
X-42273000Y-35026528D01*
X-42273000Y-34873472D01*
X-42302859Y-34723357D01*
X-42361431Y-34581952D01*
X-42446464Y-34454691D01*
X-42554691Y-34346464D01*
X-42681952Y-34261431D01*
X-42823357Y-34202859D01*
X-42973000Y-34173094D01*
X-42973000Y-34123472D01*
X-43002859Y-33973357D01*
X-43011705Y-33952000D01*
X-42207935Y-33952000D01*
X-42151999Y-34007936D01*
X-42152000Y-35828155D01*
X-42253536Y-35929691D01*
X-42338569Y-36056952D01*
X-42397141Y-36198357D01*
X-42427000Y-36348472D01*
X-42427000Y-36501528D01*
X-42397141Y-36651643D01*
X-42338569Y-36793048D01*
X-42253536Y-36920309D01*
X-42145309Y-37028536D01*
X-42018048Y-37113569D01*
X-41876643Y-37172141D01*
X-41726528Y-37202000D01*
X-41573472Y-37202000D01*
X-41423357Y-37172141D01*
X-41281952Y-37113569D01*
X-41154691Y-37028536D01*
X-41046464Y-36920309D01*
X-40961431Y-36793048D01*
X-40928724Y-36714086D01*
X-37662300Y-36714086D01*
X-37662300Y-36885914D01*
X-37628778Y-37054441D01*
X-37563023Y-37213189D01*
X-37467560Y-37356059D01*
X-37346059Y-37477560D01*
X-37203189Y-37573023D01*
X-37044441Y-37638778D01*
X-36875914Y-37672300D01*
X-36704086Y-37672300D01*
X-36535559Y-37638778D01*
X-36376811Y-37573023D01*
X-36233941Y-37477560D01*
X-36112440Y-37356059D01*
X-36016977Y-37213189D01*
X-35951222Y-37054441D01*
X-35917700Y-36885914D01*
X-35917700Y-36714086D01*
X-35951222Y-36545559D01*
X-36016977Y-36386811D01*
X-36112440Y-36243941D01*
X-36233941Y-36122440D01*
X-36376811Y-36026977D01*
X-36535559Y-35961222D01*
X-36704086Y-35927700D01*
X-36875914Y-35927700D01*
X-37044441Y-35961222D01*
X-37203189Y-36026977D01*
X-37346059Y-36122440D01*
X-37467560Y-36243941D01*
X-37563023Y-36386811D01*
X-37628778Y-36545559D01*
X-37662300Y-36714086D01*
X-40928724Y-36714086D01*
X-40902859Y-36651643D01*
X-40873000Y-36501528D01*
X-40873000Y-36348472D01*
X-40902859Y-36198357D01*
X-40961431Y-36056952D01*
X-41046464Y-35929691D01*
X-41148000Y-35828155D01*
X-41148000Y-35198491D01*
X-34427000Y-35198491D01*
X-34427000Y-35351547D01*
X-34397141Y-35501662D01*
X-34338569Y-35643067D01*
X-34253536Y-35770328D01*
X-34145309Y-35878555D01*
X-34018048Y-35963588D01*
X-33876643Y-36022160D01*
X-33726528Y-36052019D01*
X-33573472Y-36052019D01*
X-33423357Y-36022160D01*
X-33281952Y-35963588D01*
X-33154691Y-35878555D01*
X-33046464Y-35770328D01*
X-32961431Y-35643067D01*
X-32902859Y-35501662D01*
X-32873000Y-35351547D01*
X-32873000Y-35207954D01*
X-32717045Y-35052000D01*
X-32184584Y-35052000D01*
X-32266059Y-35106440D01*
X-32387560Y-35227941D01*
X-32483023Y-35370811D01*
X-32548778Y-35529559D01*
X-32582300Y-35698086D01*
X-32582300Y-35869914D01*
X-32548778Y-36038441D01*
X-32483023Y-36197189D01*
X-32387560Y-36340059D01*
X-32266059Y-36461560D01*
X-32123189Y-36557023D01*
X-31964441Y-36622778D01*
X-31795914Y-36656300D01*
X-31624086Y-36656300D01*
X-31455559Y-36622778D01*
X-31296811Y-36557023D01*
X-31153941Y-36461560D01*
X-31032440Y-36340059D01*
X-30936977Y-36197189D01*
X-30871222Y-36038441D01*
X-30837700Y-35869914D01*
X-30837700Y-35698086D01*
X-30871222Y-35529559D01*
X-30936977Y-35370811D01*
X-31032440Y-35227941D01*
X-31153941Y-35106440D01*
X-31235416Y-35052000D01*
X-30992975Y-35052000D01*
X-30985181Y-35063664D01*
X-30876954Y-35171891D01*
X-30749693Y-35256924D01*
X-30608288Y-35315496D01*
X-30458173Y-35345355D01*
X-30305117Y-35345355D01*
X-30155002Y-35315496D01*
X-30013597Y-35256924D01*
X-29886336Y-35171891D01*
X-29778109Y-35063664D01*
X-29693076Y-34936403D01*
X-29634504Y-34794998D01*
X-29604645Y-34644883D01*
X-29604645Y-34491827D01*
X-29634504Y-34341712D01*
X-29693076Y-34200307D01*
X-29778109Y-34073046D01*
X-29886336Y-33964819D01*
X-30013597Y-33879786D01*
X-30155002Y-33821214D01*
X-30305117Y-33791355D01*
X-30458173Y-33791355D01*
X-30608288Y-33821214D01*
X-30749693Y-33879786D01*
X-30876954Y-33964819D01*
X-30960135Y-34048000D01*
X-32900338Y-34048000D01*
X-32924981Y-34045573D01*
X-32949624Y-34048000D01*
X-32949634Y-34048000D01*
X-33023390Y-34055264D01*
X-33118017Y-34083969D01*
X-33158613Y-34105668D01*
X-33205227Y-34130583D01*
X-33262517Y-34177600D01*
X-33262525Y-34177608D01*
X-33281665Y-34193316D01*
X-33297374Y-34212457D01*
X-33582935Y-34498019D01*
X-33726528Y-34498019D01*
X-33876643Y-34527878D01*
X-34018048Y-34586450D01*
X-34145309Y-34671483D01*
X-34253536Y-34779710D01*
X-34338569Y-34906971D01*
X-34397141Y-35048376D01*
X-34427000Y-35198491D01*
X-41148000Y-35198491D01*
X-41148000Y-33824643D01*
X-41145573Y-33800000D01*
X-41148000Y-33775357D01*
X-41148000Y-33775347D01*
X-41155264Y-33701591D01*
X-41183969Y-33606964D01*
X-41217989Y-33543316D01*
X-41230583Y-33519754D01*
X-41277600Y-33462464D01*
X-41277608Y-33462456D01*
X-41293316Y-33443316D01*
X-41312457Y-33427607D01*
X-41627599Y-33112467D01*
X-41643316Y-33093316D01*
X-41719755Y-33030583D01*
X-41806964Y-32983969D01*
X-41901591Y-32955264D01*
X-41975347Y-32948000D01*
X-41975357Y-32948000D01*
X-42000000Y-32945573D01*
X-42024643Y-32948000D01*
X-43011705Y-32948000D01*
X-43002859Y-32926643D01*
X-42973000Y-32776528D01*
X-42973000Y-32752000D01*
X-42892602Y-32752000D01*
X-42742487Y-32722141D01*
X-42601082Y-32663569D01*
X-42473821Y-32578536D01*
X-42365594Y-32470309D01*
X-42280561Y-32343048D01*
X-42221989Y-32201643D01*
X-42192130Y-32051528D01*
X-42192130Y-31898472D01*
X-42196825Y-31874868D01*
X-33137953Y-31874868D01*
X-33137953Y-32027924D01*
X-33108094Y-32178039D01*
X-33049522Y-32319444D01*
X-32964489Y-32446705D01*
X-32856262Y-32554932D01*
X-32729001Y-32639965D01*
X-32587596Y-32698537D01*
X-32437481Y-32728396D01*
X-32284425Y-32728396D01*
X-32134310Y-32698537D01*
X-31992905Y-32639965D01*
X-31865644Y-32554932D01*
X-31764108Y-32453396D01*
X-28970449Y-32453396D01*
X-28870309Y-32553536D01*
X-28743048Y-32638569D01*
X-28601643Y-32697141D01*
X-28451528Y-32727000D01*
X-28298472Y-32727000D01*
X-28148357Y-32697141D01*
X-28006952Y-32638569D01*
X-27889053Y-32559792D01*
X-27845309Y-32603536D01*
X-27718048Y-32688569D01*
X-27576643Y-32747141D01*
X-27426528Y-32777000D01*
X-27273472Y-32777000D01*
X-27123357Y-32747141D01*
X-26981952Y-32688569D01*
X-26854691Y-32603536D01*
X-26825000Y-32573845D01*
X-26795309Y-32603536D01*
X-26668048Y-32688569D01*
X-26526643Y-32747141D01*
X-26376528Y-32777000D01*
X-26223472Y-32777000D01*
X-26073357Y-32747141D01*
X-25931952Y-32688569D01*
X-25804691Y-32603536D01*
X-25696464Y-32495309D01*
X-25611431Y-32368048D01*
X-25552859Y-32226643D01*
X-25523000Y-32076528D01*
X-25523000Y-32075845D01*
X-25495309Y-32103536D01*
X-25368048Y-32188569D01*
X-25226643Y-32247141D01*
X-25076528Y-32277000D01*
X-24923472Y-32277000D01*
X-24773357Y-32247141D01*
X-24631952Y-32188569D01*
X-24504691Y-32103536D01*
X-24499627Y-32098472D01*
X-20827000Y-32098472D01*
X-20827000Y-32251528D01*
X-20797141Y-32401643D01*
X-20738569Y-32543048D01*
X-20653536Y-32670309D01*
X-20545309Y-32778536D01*
X-20418048Y-32863569D01*
X-20276643Y-32922141D01*
X-20227000Y-32932015D01*
X-20226999Y-33467984D01*
X-20276643Y-33477859D01*
X-20418048Y-33536431D01*
X-20545309Y-33621464D01*
X-20653536Y-33729691D01*
X-20738569Y-33856952D01*
X-20797141Y-33998357D01*
X-20827000Y-34148472D01*
X-20827000Y-34301528D01*
X-20797141Y-34451643D01*
X-20738569Y-34593048D01*
X-20653536Y-34720309D01*
X-20545309Y-34828536D01*
X-20418048Y-34913569D01*
X-20276643Y-34972141D01*
X-20126528Y-35002000D01*
X-19973472Y-35002000D01*
X-19823357Y-34972141D01*
X-19681952Y-34913569D01*
X-19554691Y-34828536D01*
X-19500000Y-34773845D01*
X-19445309Y-34828536D01*
X-19318048Y-34913569D01*
X-19176643Y-34972141D01*
X-19026528Y-35002000D01*
X-18873472Y-35002000D01*
X-18723357Y-34972141D01*
X-18581952Y-34913569D01*
X-18454691Y-34828536D01*
X-18346464Y-34720309D01*
X-18261431Y-34593048D01*
X-18202859Y-34451643D01*
X-18173000Y-34301528D01*
X-18173000Y-34148472D01*
X-18202859Y-33998357D01*
X-18261431Y-33856952D01*
X-18346464Y-33729691D01*
X-18454691Y-33621464D01*
X-18581952Y-33536431D01*
X-18723357Y-33477859D01*
X-18773000Y-33467985D01*
X-18773000Y-32951282D01*
X-18681952Y-32913569D01*
X-18554691Y-32828536D01*
X-18446464Y-32720309D01*
X-18361431Y-32593048D01*
X-18302859Y-32451643D01*
X-18273000Y-32301528D01*
X-18273000Y-32148472D01*
X-18302859Y-31998357D01*
X-18361431Y-31856952D01*
X-18446464Y-31729691D01*
X-18554691Y-31621464D01*
X-18681952Y-31536431D01*
X-18823357Y-31477859D01*
X-18973472Y-31448000D01*
X-19126528Y-31448000D01*
X-19276643Y-31477859D01*
X-19418048Y-31536431D01*
X-19520960Y-31605195D01*
X-19554691Y-31571464D01*
X-19681952Y-31486431D01*
X-19823357Y-31427859D01*
X-19973472Y-31398000D01*
X-20126528Y-31398000D01*
X-20276643Y-31427859D01*
X-20418048Y-31486431D01*
X-20545309Y-31571464D01*
X-20653536Y-31679691D01*
X-20738569Y-31806952D01*
X-20797141Y-31948357D01*
X-20827000Y-32098472D01*
X-24499627Y-32098472D01*
X-24396464Y-31995309D01*
X-24311431Y-31868048D01*
X-24252859Y-31726643D01*
X-24223000Y-31576528D01*
X-24223000Y-31423472D01*
X-24252859Y-31273357D01*
X-24311431Y-31131952D01*
X-24396464Y-31004691D01*
X-24504691Y-30896464D01*
X-24631952Y-30811431D01*
X-24773357Y-30752859D01*
X-24798000Y-30747957D01*
X-24798000Y-27830572D01*
X-24756952Y-27813569D01*
X-24629691Y-27728536D01*
X-24521464Y-27620309D01*
X-24436431Y-27493048D01*
X-24377859Y-27351643D01*
X-24348000Y-27201528D01*
X-24348000Y-27048472D01*
X-24377859Y-26898357D01*
X-24436431Y-26756952D01*
X-24521464Y-26629691D01*
X-24629691Y-26521464D01*
X-24756952Y-26436431D01*
X-24898357Y-26377859D01*
X-25048472Y-26348000D01*
X-25201528Y-26348000D01*
X-25351643Y-26377859D01*
X-25493048Y-26436431D01*
X-25620309Y-26521464D01*
X-25650000Y-26551155D01*
X-25654691Y-26546464D01*
X-25781952Y-26461431D01*
X-25923357Y-26402859D01*
X-26073472Y-26373000D01*
X-26226528Y-26373000D01*
X-26376643Y-26402859D01*
X-26518048Y-26461431D01*
X-26645309Y-26546464D01*
X-26679040Y-26580195D01*
X-26781952Y-26511431D01*
X-26923357Y-26452859D01*
X-27073472Y-26423000D01*
X-27226528Y-26423000D01*
X-27376643Y-26452859D01*
X-27518048Y-26511431D01*
X-27645309Y-26596464D01*
X-27753536Y-26704691D01*
X-27838569Y-26831952D01*
X-27897141Y-26973357D01*
X-27927000Y-27123472D01*
X-27927000Y-27276528D01*
X-27897141Y-27426643D01*
X-27838569Y-27568048D01*
X-27753536Y-27695309D01*
X-27645309Y-27803536D01*
X-27518048Y-27888569D01*
X-27376643Y-27947141D01*
X-27226528Y-27977000D01*
X-27082934Y-27977000D01*
X-26752000Y-28307935D01*
X-26751999Y-30692064D01*
X-27282934Y-31223000D01*
X-27426528Y-31223000D01*
X-27576643Y-31252859D01*
X-27718048Y-31311431D01*
X-27835947Y-31390208D01*
X-27879691Y-31346464D01*
X-28006952Y-31261431D01*
X-28148357Y-31202859D01*
X-28298472Y-31173000D01*
X-28451528Y-31173000D01*
X-28601643Y-31202859D01*
X-28743048Y-31261431D01*
X-28870309Y-31346464D01*
X-28973241Y-31449396D01*
X-31764108Y-31449396D01*
X-31865644Y-31347860D01*
X-31992905Y-31262827D01*
X-32134310Y-31204255D01*
X-32284425Y-31174396D01*
X-32437481Y-31174396D01*
X-32587596Y-31204255D01*
X-32729001Y-31262827D01*
X-32856262Y-31347860D01*
X-32964489Y-31456087D01*
X-33049522Y-31583348D01*
X-33108094Y-31724753D01*
X-33137953Y-31874868D01*
X-42196825Y-31874868D01*
X-42221989Y-31748357D01*
X-42280561Y-31606952D01*
X-42365594Y-31479691D01*
X-42473821Y-31371464D01*
X-42601082Y-31286431D01*
X-42742487Y-31227859D01*
X-42892602Y-31198000D01*
X-43045658Y-31198000D01*
X-43195773Y-31227859D01*
X-43337178Y-31286431D01*
X-43464439Y-31371464D01*
X-43565975Y-31473000D01*
X-50517065Y-31473000D01*
X-50748000Y-31242066D01*
X-50748000Y-22473472D01*
X-44777000Y-22473472D01*
X-44777000Y-22626528D01*
X-44747141Y-22776643D01*
X-44688569Y-22918048D01*
X-44603536Y-23045309D01*
X-44495309Y-23153536D01*
X-44368048Y-23238569D01*
X-44226643Y-23297141D01*
X-44076528Y-23327000D01*
X-43968289Y-23327000D01*
X-43340951Y-23954339D01*
X-43324448Y-23974448D01*
X-43244202Y-24040304D01*
X-43152650Y-24089239D01*
X-43053310Y-24119374D01*
X-42950001Y-24129549D01*
X-42924120Y-24127000D01*
X-42421835Y-24127000D01*
X-42345299Y-24203536D01*
X-42218038Y-24288569D01*
X-42076633Y-24347141D01*
X-41926518Y-24377000D01*
X-41773462Y-24377000D01*
X-41623347Y-24347141D01*
X-41481942Y-24288569D01*
X-41354681Y-24203536D01*
X-41246454Y-24095309D01*
X-41161421Y-23968048D01*
X-41102849Y-23826643D01*
X-41072990Y-23676528D01*
X-41072990Y-23523472D01*
X-41102849Y-23373357D01*
X-41161421Y-23231952D01*
X-41246454Y-23104691D01*
X-41354681Y-22996464D01*
X-41481942Y-22911431D01*
X-41623347Y-22852859D01*
X-41773462Y-22823000D01*
X-41926518Y-22823000D01*
X-42076633Y-22852859D01*
X-42218038Y-22911431D01*
X-42345299Y-22996464D01*
X-42421835Y-23073000D01*
X-42731710Y-23073000D01*
X-43223000Y-22581711D01*
X-43223000Y-22473472D01*
X-43252859Y-22323357D01*
X-43311431Y-22181952D01*
X-43396464Y-22054691D01*
X-43504691Y-21946464D01*
X-43631952Y-21861431D01*
X-43773357Y-21802859D01*
X-43923472Y-21773000D01*
X-44076528Y-21773000D01*
X-44226643Y-21802859D01*
X-44368048Y-21861431D01*
X-44495309Y-21946464D01*
X-44603536Y-22054691D01*
X-44688569Y-22181952D01*
X-44747141Y-22323357D01*
X-44777000Y-22473472D01*
X-50748000Y-22473472D01*
X-50748000Y-21096845D01*
X-50646464Y-20995309D01*
X-50561431Y-20868048D01*
X-50502859Y-20726643D01*
X-50473000Y-20576528D01*
X-50473000Y-20423472D01*
X-50502859Y-20273357D01*
X-50561431Y-20131952D01*
X-50646464Y-20004691D01*
X-50754691Y-19896464D01*
X-50881952Y-19811431D01*
X-51023357Y-19752859D01*
X-51173472Y-19723000D01*
X-51326528Y-19723000D01*
X-51476643Y-19752859D01*
X-51618048Y-19811431D01*
X-51745309Y-19896464D01*
X-51853536Y-20004691D01*
X-51938569Y-20131952D01*
X-51997141Y-20273357D01*
X-52027000Y-20423472D01*
X-52027000Y-20576528D01*
X-51997141Y-20726643D01*
X-51938569Y-20868048D01*
X-51853536Y-20995309D01*
X-51752000Y-21096845D01*
X-51751999Y-31425347D01*
X-51754427Y-31450000D01*
X-51744735Y-31548409D01*
X-51716030Y-31643036D01*
X-51669416Y-31730245D01*
X-51622399Y-31787535D01*
X-51622396Y-31787538D01*
X-51606683Y-31806684D01*
X-51587537Y-31822397D01*
X-51211935Y-32198000D01*
X-56653155Y-32198000D01*
X-56754691Y-32096464D01*
X-56881952Y-32011431D01*
X-57023357Y-31952859D01*
X-57173472Y-31923000D01*
X-57326528Y-31923000D01*
X-57476643Y-31952859D01*
X-57618048Y-32011431D01*
X-57745309Y-32096464D01*
X-57853536Y-32204691D01*
X-57938569Y-32331952D01*
X-57997141Y-32473357D01*
X-58027000Y-32623472D01*
X-58027000Y-32776528D01*
X-57997141Y-32926643D01*
X-57988295Y-32948000D01*
X-58653155Y-32948000D01*
X-58754691Y-32846464D01*
X-58881952Y-32761431D01*
X-59023357Y-32702859D01*
X-59173472Y-32673000D01*
X-59326528Y-32673000D01*
X-59476643Y-32702859D01*
X-59618048Y-32761431D01*
X-59745309Y-32846464D01*
X-59853536Y-32954691D01*
X-59938569Y-33081952D01*
X-59997141Y-33223357D01*
X-60027000Y-33373472D01*
X-65098000Y-33373472D01*
X-65098000Y-22580253D01*
X-65099721Y-22562777D01*
X-65099678Y-22556583D01*
X-65100226Y-22550997D01*
X-65120627Y-22356900D01*
X-65127958Y-22321188D01*
X-65134780Y-22285421D01*
X-65136403Y-22280048D01*
X-65136403Y-22280046D01*
X-65136405Y-22280040D01*
X-65194115Y-22093610D01*
X-65208238Y-22060013D01*
X-65221883Y-22026240D01*
X-65224518Y-22021284D01*
X-65317343Y-21849607D01*
X-65337721Y-21819395D01*
X-65357669Y-21788911D01*
X-65361216Y-21784562D01*
X-65485620Y-21634184D01*
X-65511470Y-21608514D01*
X-65536965Y-21582479D01*
X-65541290Y-21578901D01*
X-65692532Y-21455551D01*
X-65722914Y-21435365D01*
X-65752943Y-21414804D01*
X-65757880Y-21412134D01*
X-65930203Y-21320509D01*
X-65963877Y-21306630D01*
X-65997377Y-21292271D01*
X-66002739Y-21290612D01*
X-66189575Y-21234202D01*
X-66225334Y-21227122D01*
X-66260955Y-21219550D01*
X-66266538Y-21218964D01*
X-66460487Y-21199947D01*
X-66480253Y-21198000D01*
X-70480335Y-21198000D01*
X-70518663Y-21194242D01*
X-70536609Y-21188824D01*
X-70553166Y-21180021D01*
X-70567695Y-21168171D01*
X-70579648Y-21153722D01*
X-70588567Y-21137227D01*
X-70594110Y-21119319D01*
X-70598000Y-21082308D01*
X-70598000Y-18823472D01*
X-60027000Y-18823472D01*
X-60027000Y-18976528D01*
X-59997141Y-19126643D01*
X-59938569Y-19268048D01*
X-59853536Y-19395309D01*
X-59777000Y-19471845D01*
X-59776999Y-19828154D01*
X-59853536Y-19904691D01*
X-59938569Y-20031952D01*
X-59997141Y-20173357D01*
X-60027000Y-20323472D01*
X-60027000Y-20476528D01*
X-59997141Y-20626643D01*
X-59938569Y-20768048D01*
X-59853536Y-20895309D01*
X-59745309Y-21003536D01*
X-59618048Y-21088569D01*
X-59476643Y-21147141D01*
X-59326528Y-21177000D01*
X-59173472Y-21177000D01*
X-59023357Y-21147141D01*
X-58881952Y-21088569D01*
X-58754691Y-21003536D01*
X-58646464Y-20895309D01*
X-58561431Y-20768048D01*
X-58502859Y-20626643D01*
X-58473000Y-20476528D01*
X-58473000Y-20323472D01*
X-58502859Y-20173357D01*
X-58561431Y-20031952D01*
X-58646464Y-19904691D01*
X-58723000Y-19828155D01*
X-58723000Y-19471845D01*
X-58646464Y-19395309D01*
X-58561431Y-19268048D01*
X-58524996Y-19180086D01*
X-47832300Y-19180086D01*
X-47832300Y-19351914D01*
X-47798778Y-19520441D01*
X-47733023Y-19679189D01*
X-47637560Y-19822059D01*
X-47516059Y-19943560D01*
X-47373189Y-20039023D01*
X-47214441Y-20104778D01*
X-47045914Y-20138300D01*
X-46874086Y-20138300D01*
X-46705559Y-20104778D01*
X-46546811Y-20039023D01*
X-46403941Y-19943560D01*
X-46282440Y-19822059D01*
X-46186977Y-19679189D01*
X-46121222Y-19520441D01*
X-46087700Y-19351914D01*
X-46087700Y-19180086D01*
X-46121222Y-19011559D01*
X-46186977Y-18852811D01*
X-46282440Y-18709941D01*
X-46403941Y-18588440D01*
X-46546811Y-18492977D01*
X-46705559Y-18427222D01*
X-46874086Y-18393700D01*
X-47045914Y-18393700D01*
X-47214441Y-18427222D01*
X-47373189Y-18492977D01*
X-47516059Y-18588440D01*
X-47637560Y-18709941D01*
X-47733023Y-18852811D01*
X-47798778Y-19011559D01*
X-47832300Y-19180086D01*
X-58524996Y-19180086D01*
X-58502859Y-19126643D01*
X-58473000Y-18976528D01*
X-58473000Y-18823472D01*
X-58502859Y-18673357D01*
X-58561431Y-18531952D01*
X-58646464Y-18404691D01*
X-58754691Y-18296464D01*
X-58881952Y-18211431D01*
X-58996252Y-18164086D01*
X-52912300Y-18164086D01*
X-52912300Y-18335914D01*
X-52878778Y-18504441D01*
X-52813023Y-18663189D01*
X-52717560Y-18806059D01*
X-52596059Y-18927560D01*
X-52453189Y-19023023D01*
X-52294441Y-19088778D01*
X-52125914Y-19122300D01*
X-51954086Y-19122300D01*
X-51785559Y-19088778D01*
X-51626811Y-19023023D01*
X-51483941Y-18927560D01*
X-51362440Y-18806059D01*
X-51266977Y-18663189D01*
X-51201222Y-18504441D01*
X-51167700Y-18335914D01*
X-51167700Y-18164086D01*
X-51201222Y-17995559D01*
X-51266977Y-17836811D01*
X-51362440Y-17693941D01*
X-51483941Y-17572440D01*
X-51626811Y-17476977D01*
X-51785559Y-17411222D01*
X-51954086Y-17377700D01*
X-52125914Y-17377700D01*
X-52294441Y-17411222D01*
X-52453189Y-17476977D01*
X-52596059Y-17572440D01*
X-52717560Y-17693941D01*
X-52813023Y-17836811D01*
X-52878778Y-17995559D01*
X-52912300Y-18164086D01*
X-58996252Y-18164086D01*
X-59023357Y-18152859D01*
X-59173472Y-18123000D01*
X-59326528Y-18123000D01*
X-59476643Y-18152859D01*
X-59618048Y-18211431D01*
X-59745309Y-18296464D01*
X-59853536Y-18404691D01*
X-59938569Y-18531952D01*
X-59997141Y-18673357D01*
X-60027000Y-18823472D01*
X-70598000Y-18823472D01*
X-70598000Y-17148086D01*
X-47832300Y-17148086D01*
X-47832300Y-17319914D01*
X-47798778Y-17488441D01*
X-47733023Y-17647189D01*
X-47637560Y-17790059D01*
X-47516059Y-17911560D01*
X-47373189Y-18007023D01*
X-47214441Y-18072778D01*
X-47045914Y-18106300D01*
X-46874086Y-18106300D01*
X-46705559Y-18072778D01*
X-46546811Y-18007023D01*
X-46403941Y-17911560D01*
X-46282440Y-17790059D01*
X-46186977Y-17647189D01*
X-46121222Y-17488441D01*
X-46087700Y-17319914D01*
X-46087700Y-17148086D01*
X-46121222Y-16979559D01*
X-46186977Y-16820811D01*
X-46282440Y-16677941D01*
X-46403941Y-16556440D01*
X-46546811Y-16460977D01*
X-46705559Y-16395222D01*
X-46874086Y-16361700D01*
X-47045914Y-16361700D01*
X-47214441Y-16395222D01*
X-47373189Y-16460977D01*
X-47516059Y-16556440D01*
X-47637560Y-16677941D01*
X-47733023Y-16820811D01*
X-47798778Y-16979559D01*
X-47832300Y-17148086D01*
X-70598000Y-17148086D01*
X-70598000Y-10273472D01*
X-43327000Y-10273472D01*
X-43327000Y-10426528D01*
X-43297141Y-10576643D01*
X-43238569Y-10718048D01*
X-43153536Y-10845309D01*
X-43045309Y-10953536D01*
X-43026999Y-10965770D01*
X-43027000Y-14078135D01*
X-43103536Y-14154671D01*
X-43188569Y-14281932D01*
X-43247141Y-14423337D01*
X-43277000Y-14573452D01*
X-43277000Y-14726508D01*
X-43247141Y-14876623D01*
X-43188569Y-15018028D01*
X-43103536Y-15145289D01*
X-42995309Y-15253516D01*
X-42868048Y-15338549D01*
X-42726643Y-15397121D01*
X-42576528Y-15426980D01*
X-42423472Y-15426980D01*
X-42273357Y-15397121D01*
X-42131952Y-15338549D01*
X-42004691Y-15253516D01*
X-41896464Y-15145289D01*
X-41811431Y-15018028D01*
X-41752859Y-14876623D01*
X-41723000Y-14726508D01*
X-41723000Y-14573452D01*
X-41752859Y-14423337D01*
X-41811431Y-14281932D01*
X-41896464Y-14154671D01*
X-41973000Y-14078135D01*
X-41973000Y-13898472D01*
X-29777000Y-13898472D01*
X-29777000Y-14051528D01*
X-29747141Y-14201643D01*
X-29688569Y-14343048D01*
X-29603536Y-14470309D01*
X-29495309Y-14578536D01*
X-29368048Y-14663569D01*
X-29226643Y-14722141D01*
X-29076528Y-14752000D01*
X-28923472Y-14752000D01*
X-28773357Y-14722141D01*
X-28631952Y-14663569D01*
X-28504691Y-14578536D01*
X-28424259Y-14498104D01*
X-26753869Y-14498104D01*
X-26677333Y-14574640D01*
X-26550072Y-14659673D01*
X-26408667Y-14718245D01*
X-26258552Y-14748104D01*
X-26105496Y-14748104D01*
X-25955381Y-14718245D01*
X-25813976Y-14659673D01*
X-25686715Y-14574640D01*
X-25578488Y-14466413D01*
X-25493455Y-14339152D01*
X-25434883Y-14197747D01*
X-25405024Y-14047632D01*
X-25405024Y-13894576D01*
X-25434883Y-13744461D01*
X-25493455Y-13603056D01*
X-25578488Y-13475795D01*
X-25686715Y-13367568D01*
X-25813976Y-13282535D01*
X-25955381Y-13223963D01*
X-26105496Y-13194104D01*
X-26258552Y-13194104D01*
X-26408667Y-13223963D01*
X-26550072Y-13282535D01*
X-26677333Y-13367568D01*
X-26753869Y-13444104D01*
X-28432051Y-13444104D01*
X-28504691Y-13371464D01*
X-28631952Y-13286431D01*
X-28773357Y-13227859D01*
X-28923472Y-13198000D01*
X-29076528Y-13198000D01*
X-29226643Y-13227859D01*
X-29368048Y-13286431D01*
X-29495309Y-13371464D01*
X-29603536Y-13479691D01*
X-29688569Y-13606952D01*
X-29747141Y-13748357D01*
X-29777000Y-13898472D01*
X-41973000Y-13898472D01*
X-41973000Y-10871845D01*
X-41946464Y-10845309D01*
X-41861431Y-10718048D01*
X-41802859Y-10576643D01*
X-41773000Y-10426528D01*
X-41773000Y-10273472D01*
X-41802859Y-10123357D01*
X-41861431Y-9981952D01*
X-41946464Y-9854691D01*
X-42054691Y-9746464D01*
X-42181952Y-9661431D01*
X-42323357Y-9602859D01*
X-42473472Y-9573000D01*
X-42626528Y-9573000D01*
X-42776643Y-9602859D01*
X-42918048Y-9661431D01*
X-43045309Y-9746464D01*
X-43153536Y-9854691D01*
X-43238569Y-9981952D01*
X-43297141Y-10123357D01*
X-43327000Y-10273472D01*
X-70598000Y-10273472D01*
X-70598000Y-6364080D01*
X-62184475Y-6364080D01*
X-62100792Y-6618261D01*
X-61828225Y-6749158D01*
X-61535358Y-6824365D01*
X-61233447Y-6840991D01*
X-60934093Y-6798397D01*
X-60648801Y-6698222D01*
X-60499208Y-6618261D01*
X-60415525Y-6364080D01*
X-61300000Y-5479605D01*
X-62184475Y-6364080D01*
X-70598000Y-6364080D01*
X-70598000Y-4019658D01*
X-70579395Y-3829905D01*
X-69727000Y-3829905D01*
X-69727000Y-4170095D01*
X-69660632Y-4503747D01*
X-69530447Y-4818041D01*
X-69341448Y-5100898D01*
X-69100898Y-5341448D01*
X-68818041Y-5530447D01*
X-68503747Y-5660632D01*
X-68170095Y-5727000D01*
X-67829905Y-5727000D01*
X-67496253Y-5660632D01*
X-67181959Y-5530447D01*
X-66936675Y-5366553D01*
X-62840991Y-5366553D01*
X-62798397Y-5665907D01*
X-62698222Y-5951199D01*
X-62618261Y-6100792D01*
X-62364080Y-6184475D01*
X-61479605Y-5300000D01*
X-61120395Y-5300000D01*
X-60235920Y-6184475D01*
X-59981739Y-6100792D01*
X-59850842Y-5828225D01*
X-59775635Y-5535358D01*
X-59759009Y-5233447D01*
X-59767435Y-5174226D01*
X-57577000Y-5174226D01*
X-57577000Y-5425774D01*
X-57527926Y-5672487D01*
X-57431663Y-5904886D01*
X-57291911Y-6114040D01*
X-57114040Y-6291911D01*
X-56904886Y-6431663D01*
X-56672487Y-6527926D01*
X-56425774Y-6577000D01*
X-56174226Y-6577000D01*
X-55927513Y-6527926D01*
X-55695114Y-6431663D01*
X-55593969Y-6364080D01*
X-39684475Y-6364080D01*
X-39600792Y-6618261D01*
X-39328225Y-6749158D01*
X-39035358Y-6824365D01*
X-38733447Y-6840991D01*
X-38434093Y-6798397D01*
X-38148801Y-6698222D01*
X-37999208Y-6618261D01*
X-37915525Y-6364080D01*
X-38800000Y-5479605D01*
X-39684475Y-6364080D01*
X-55593969Y-6364080D01*
X-55485960Y-6291911D01*
X-55308089Y-6114040D01*
X-55168337Y-5904886D01*
X-55072074Y-5672487D01*
X-55023000Y-5425774D01*
X-55023000Y-5366553D01*
X-40340991Y-5366553D01*
X-40298397Y-5665907D01*
X-40198222Y-5951199D01*
X-40118261Y-6100792D01*
X-39864080Y-6184475D01*
X-38979605Y-5300000D01*
X-38620395Y-5300000D01*
X-37735920Y-6184475D01*
X-37481739Y-6100792D01*
X-37350842Y-5828225D01*
X-37275635Y-5535358D01*
X-37259009Y-5233447D01*
X-37267435Y-5174226D01*
X-35077000Y-5174226D01*
X-35077000Y-5425774D01*
X-35027926Y-5672487D01*
X-34931663Y-5904886D01*
X-34791911Y-6114040D01*
X-34614040Y-6291911D01*
X-34404886Y-6431663D01*
X-34172487Y-6527926D01*
X-33925774Y-6577000D01*
X-33674226Y-6577000D01*
X-33427513Y-6527926D01*
X-33195114Y-6431663D01*
X-32985960Y-6291911D01*
X-32808089Y-6114040D01*
X-32668337Y-5904886D01*
X-32572074Y-5672487D01*
X-32523000Y-5425774D01*
X-32523000Y-5174226D01*
X-30077000Y-5174226D01*
X-30077000Y-5425774D01*
X-30027926Y-5672487D01*
X-29931663Y-5904886D01*
X-29791911Y-6114040D01*
X-29614040Y-6291911D01*
X-29404886Y-6431663D01*
X-29172487Y-6527926D01*
X-28925774Y-6577000D01*
X-28674226Y-6577000D01*
X-28427513Y-6527926D01*
X-28195114Y-6431663D01*
X-27985960Y-6291911D01*
X-27808089Y-6114040D01*
X-27668337Y-5904886D01*
X-27572074Y-5672487D01*
X-27523000Y-5425774D01*
X-27523000Y-5174226D01*
X-27572074Y-4927513D01*
X-27668337Y-4695114D01*
X-27808089Y-4485960D01*
X-27985960Y-4308089D01*
X-28195114Y-4168337D01*
X-28427513Y-4072074D01*
X-28674226Y-4023000D01*
X-28925774Y-4023000D01*
X-29172487Y-4072074D01*
X-29404886Y-4168337D01*
X-29614040Y-4308089D01*
X-29791911Y-4485960D01*
X-29931663Y-4695114D01*
X-30027926Y-4927513D01*
X-30077000Y-5174226D01*
X-32523000Y-5174226D01*
X-32572074Y-4927513D01*
X-32668337Y-4695114D01*
X-32808089Y-4485960D01*
X-32985960Y-4308089D01*
X-33195114Y-4168337D01*
X-33427513Y-4072074D01*
X-33674226Y-4023000D01*
X-33925774Y-4023000D01*
X-34172487Y-4072074D01*
X-34404886Y-4168337D01*
X-34614040Y-4308089D01*
X-34791911Y-4485960D01*
X-34931663Y-4695114D01*
X-35027926Y-4927513D01*
X-35077000Y-5174226D01*
X-37267435Y-5174226D01*
X-37301603Y-4934093D01*
X-37401778Y-4648801D01*
X-37481739Y-4499208D01*
X-37735920Y-4415525D01*
X-38620395Y-5300000D01*
X-38979605Y-5300000D01*
X-39864080Y-4415525D01*
X-40118261Y-4499208D01*
X-40249158Y-4771775D01*
X-40324365Y-5064642D01*
X-40340991Y-5366553D01*
X-55023000Y-5366553D01*
X-55023000Y-5174226D01*
X-55072074Y-4927513D01*
X-55168337Y-4695114D01*
X-55308089Y-4485960D01*
X-55485960Y-4308089D01*
X-55593968Y-4235920D01*
X-39684475Y-4235920D01*
X-38800000Y-5120395D01*
X-37915525Y-4235920D01*
X-37999208Y-3981739D01*
X-38271775Y-3850842D01*
X-38564642Y-3775635D01*
X-38866553Y-3759009D01*
X-39165907Y-3801603D01*
X-39451199Y-3901778D01*
X-39600792Y-3981739D01*
X-39684475Y-4235920D01*
X-55593968Y-4235920D01*
X-55695114Y-4168337D01*
X-55927513Y-4072074D01*
X-56174226Y-4023000D01*
X-56425774Y-4023000D01*
X-56672487Y-4072074D01*
X-56904886Y-4168337D01*
X-57114040Y-4308089D01*
X-57291911Y-4485960D01*
X-57431663Y-4695114D01*
X-57527926Y-4927513D01*
X-57577000Y-5174226D01*
X-59767435Y-5174226D01*
X-59801603Y-4934093D01*
X-59901778Y-4648801D01*
X-59981739Y-4499208D01*
X-60235920Y-4415525D01*
X-61120395Y-5300000D01*
X-61479605Y-5300000D01*
X-62364080Y-4415525D01*
X-62618261Y-4499208D01*
X-62749158Y-4771775D01*
X-62824365Y-5064642D01*
X-62840991Y-5366553D01*
X-66936675Y-5366553D01*
X-66899102Y-5341448D01*
X-66658552Y-5100898D01*
X-66469553Y-4818041D01*
X-66339368Y-4503747D01*
X-66286094Y-4235920D01*
X-62184475Y-4235920D01*
X-61300000Y-5120395D01*
X-60415525Y-4235920D01*
X-60499208Y-3981739D01*
X-60771775Y-3850842D01*
X-61064642Y-3775635D01*
X-61366553Y-3759009D01*
X-61665907Y-3801603D01*
X-61951199Y-3901778D01*
X-62100792Y-3981739D01*
X-62184475Y-4235920D01*
X-66286094Y-4235920D01*
X-66273000Y-4170095D01*
X-66273000Y-3829905D01*
X-66339368Y-3496253D01*
X-66469553Y-3181959D01*
X-66658552Y-2899102D01*
X-66899102Y-2658552D01*
X-67181959Y-2469553D01*
X-67496253Y-2339368D01*
X-67829905Y-2273000D01*
X-68170095Y-2273000D01*
X-68503747Y-2339368D01*
X-68818041Y-2469553D01*
X-69100898Y-2658552D01*
X-69341448Y-2899102D01*
X-69530447Y-3181959D01*
X-69660632Y-3496253D01*
X-69727000Y-3829905D01*
X-70579395Y-3829905D01*
X-70546631Y-3495758D01*
X-70400188Y-3010714D01*
X-70162326Y-2563358D01*
X-69842096Y-2170718D01*
X-69451706Y-1847759D01*
X-69006020Y-1606778D01*
X-68522013Y-1456952D01*
X-67999180Y-1402000D01*
X-18527000Y-1402000D01*
X-18527000Y-18173000D01*
%TA.AperFunction,Conductor*%
D20*
G36*
X-18527000Y-18173000D02*
G01*
X-18675357Y-18173000D01*
X-18700000Y-18170573D01*
X-18724643Y-18173000D01*
X-18724653Y-18173000D01*
X-18798409Y-18180264D01*
X-18893036Y-18208969D01*
X-18980245Y-18255583D01*
X-18980247Y-18255584D01*
X-18980246Y-18255584D01*
X-19010296Y-18280246D01*
X-19056684Y-18318316D01*
X-19072397Y-18337462D01*
X-20137537Y-19402603D01*
X-20156683Y-19418316D01*
X-20172396Y-19437462D01*
X-20172399Y-19437465D01*
X-20219416Y-19494755D01*
X-20266030Y-19581964D01*
X-20294735Y-19676591D01*
X-20304427Y-19775000D01*
X-20301999Y-19799653D01*
X-20302000Y-27938362D01*
X-20418048Y-27986431D01*
X-20545309Y-28071464D01*
X-20653536Y-28179691D01*
X-20738569Y-28306952D01*
X-20797141Y-28448357D01*
X-20827000Y-28598472D01*
X-20827000Y-28751528D01*
X-20797141Y-28901643D01*
X-20738569Y-29043048D01*
X-20653536Y-29170309D01*
X-20545309Y-29278536D01*
X-20418048Y-29363569D01*
X-20276643Y-29422141D01*
X-20126528Y-29452000D01*
X-19973472Y-29452000D01*
X-19823357Y-29422141D01*
X-19681952Y-29363569D01*
X-19554691Y-29278536D01*
X-19500000Y-29223845D01*
X-19420309Y-29303536D01*
X-19293048Y-29388569D01*
X-19151643Y-29447141D01*
X-19001528Y-29477000D01*
X-18848472Y-29477000D01*
X-18698357Y-29447141D01*
X-18556952Y-29388569D01*
X-18527000Y-29368556D01*
X-18527000Y-30123000D01*
X-18750000Y-30123000D01*
X-18785308Y-30126462D01*
X-18820643Y-30129678D01*
X-18821910Y-30130051D01*
X-18823226Y-30130180D01*
X-18857225Y-30140445D01*
X-18891227Y-30150452D01*
X-18892396Y-30151063D01*
X-18893664Y-30151446D01*
X-18925034Y-30168126D01*
X-18956431Y-30184540D01*
X-18957460Y-30185368D01*
X-18958629Y-30185989D01*
X-18986142Y-30208428D01*
X-19013773Y-30230644D01*
X-19014623Y-30231657D01*
X-19015647Y-30232492D01*
X-19038243Y-30259806D01*
X-19061068Y-30287007D01*
X-19061706Y-30288167D01*
X-19062547Y-30289184D01*
X-19079393Y-30320340D01*
X-19096514Y-30351484D01*
X-19096914Y-30352746D01*
X-19097542Y-30353907D01*
X-19108015Y-30387738D01*
X-19118762Y-30421617D01*
X-19118910Y-30422933D01*
X-19119300Y-30424194D01*
X-19123010Y-30459488D01*
X-19126963Y-30494736D01*
X-19126981Y-30497271D01*
X-19126991Y-30497368D01*
X-19126982Y-30497465D01*
X-19127000Y-30500000D01*
X-19127000Y-31000000D01*
X-19123538Y-31035308D01*
X-19120322Y-31070643D01*
X-19119949Y-31071910D01*
X-19119820Y-31073226D01*
X-19109555Y-31107225D01*
X-19099548Y-31141227D01*
X-19098937Y-31142396D01*
X-19098554Y-31143664D01*
X-19081874Y-31175034D01*
X-19065460Y-31206431D01*
X-19064632Y-31207460D01*
X-19064011Y-31208629D01*
X-19041572Y-31236142D01*
X-19019356Y-31263773D01*
X-19018343Y-31264623D01*
X-19017508Y-31265647D01*
X-18990194Y-31288243D01*
X-18962993Y-31311068D01*
X-18961833Y-31311706D01*
X-18960816Y-31312547D01*
X-18929660Y-31329393D01*
X-18898516Y-31346514D01*
X-18897254Y-31346914D01*
X-18896093Y-31347542D01*
X-18862262Y-31358015D01*
X-18828383Y-31368762D01*
X-18827067Y-31368910D01*
X-18825806Y-31369300D01*
X-18790512Y-31373010D01*
X-18755264Y-31376963D01*
X-18752729Y-31376981D01*
X-18752632Y-31376991D01*
X-18752535Y-31376982D01*
X-18750000Y-31377000D01*
X-18527000Y-31377000D01*
X-18527000Y-31400000D01*
X-18519756Y-31473549D01*
X-18498303Y-31544272D01*
X-18463464Y-31609450D01*
X-18416579Y-31666579D01*
X-18359450Y-31713464D01*
X-18294272Y-31748303D01*
X-18223549Y-31769756D01*
X-18150000Y-31777000D01*
X-17785708Y-31777000D01*
X-17750000Y-31780517D01*
X-17714292Y-31777000D01*
X-1401999Y-31777000D01*
X-1401999Y-42980333D01*
X-1453369Y-43504243D01*
X-1599813Y-43989288D01*
X-1837676Y-44436646D01*
X-2157904Y-44829282D01*
X-2548294Y-45152241D01*
X-2993982Y-45393223D01*
X-3477987Y-45543048D01*
X-4000820Y-45598000D01*
X-67980343Y-45598000D01*
X-68504243Y-45546631D01*
X-68989288Y-45400187D01*
X-69436646Y-45162324D01*
X-69829282Y-44842096D01*
X-70152241Y-44451706D01*
X-70393223Y-44006018D01*
X-70543048Y-43522013D01*
X-70598000Y-42999180D01*
X-70598000Y-42829905D01*
X-69727000Y-42829905D01*
X-69727000Y-43170095D01*
X-69660632Y-43503747D01*
X-69530447Y-43818041D01*
X-69341448Y-44100898D01*
X-69100898Y-44341448D01*
X-68818041Y-44530447D01*
X-68503747Y-44660632D01*
X-68170095Y-44727000D01*
X-67829905Y-44727000D01*
X-67496253Y-44660632D01*
X-67181959Y-44530447D01*
X-66899102Y-44341448D01*
X-66658552Y-44100898D01*
X-66469553Y-43818041D01*
X-66339368Y-43503747D01*
X-66273000Y-43170095D01*
X-66273000Y-42829905D01*
X-66339368Y-42496253D01*
X-66469553Y-42181959D01*
X-66658552Y-41899102D01*
X-66899102Y-41658552D01*
X-67181959Y-41469553D01*
X-67496253Y-41339368D01*
X-67829905Y-41273000D01*
X-68170095Y-41273000D01*
X-68503747Y-41339368D01*
X-68818041Y-41469553D01*
X-69100898Y-41658552D01*
X-69341448Y-41899102D01*
X-69530447Y-42181959D01*
X-69660632Y-42496253D01*
X-69727000Y-42829905D01*
X-70598000Y-42829905D01*
X-70598000Y-40823472D01*
X-31127000Y-40823472D01*
X-31127000Y-40976528D01*
X-31097141Y-41126643D01*
X-31038569Y-41268048D01*
X-30953536Y-41395309D01*
X-30851999Y-41496846D01*
X-30852000Y-42703155D01*
X-30953536Y-42804691D01*
X-31038569Y-42931952D01*
X-31097141Y-43073357D01*
X-31127000Y-43223472D01*
X-31127000Y-43376528D01*
X-31097141Y-43526643D01*
X-31038569Y-43668048D01*
X-30953536Y-43795309D01*
X-30845309Y-43903536D01*
X-30718048Y-43988569D01*
X-30576643Y-44047141D01*
X-30426528Y-44077000D01*
X-30273472Y-44077000D01*
X-30123357Y-44047141D01*
X-29981952Y-43988569D01*
X-29854691Y-43903536D01*
X-29746464Y-43795309D01*
X-29661431Y-43668048D01*
X-29602859Y-43526643D01*
X-29573000Y-43376528D01*
X-29573000Y-43223472D01*
X-29602859Y-43073357D01*
X-29661431Y-42931952D01*
X-29746464Y-42804691D01*
X-29848000Y-42703155D01*
X-29848000Y-41496845D01*
X-29746464Y-41395309D01*
X-29661431Y-41268048D01*
X-29602859Y-41126643D01*
X-29573000Y-40976528D01*
X-29573000Y-40823472D01*
X-26127000Y-40823472D01*
X-26127000Y-40976528D01*
X-26097141Y-41126643D01*
X-26038569Y-41268048D01*
X-25953536Y-41395309D01*
X-25851999Y-41496846D01*
X-25852000Y-42703155D01*
X-25953536Y-42804691D01*
X-26038569Y-42931952D01*
X-26097141Y-43073357D01*
X-26127000Y-43223472D01*
X-26127000Y-43376528D01*
X-26097141Y-43526643D01*
X-26038569Y-43668048D01*
X-25953536Y-43795309D01*
X-25845309Y-43903536D01*
X-25718048Y-43988569D01*
X-25576643Y-44047141D01*
X-25426528Y-44077000D01*
X-25273472Y-44077000D01*
X-25123357Y-44047141D01*
X-24981952Y-43988569D01*
X-24854691Y-43903536D01*
X-24746464Y-43795309D01*
X-24661431Y-43668048D01*
X-24602859Y-43526643D01*
X-24573000Y-43376528D01*
X-24573000Y-43223472D01*
X-24602859Y-43073357D01*
X-24661431Y-42931952D01*
X-24746464Y-42804691D01*
X-24848000Y-42703155D01*
X-24848000Y-42200000D01*
X-19228824Y-42200000D01*
X-19228824Y-43900000D01*
X-19221545Y-43973905D01*
X-19199988Y-44044970D01*
X-19164981Y-44110463D01*
X-19117869Y-44167869D01*
X-19060463Y-44214981D01*
X-18994970Y-44249988D01*
X-18923905Y-44271545D01*
X-18850000Y-44278824D01*
X-17150000Y-44278824D01*
X-17076095Y-44271545D01*
X-17005030Y-44249988D01*
X-16939537Y-44214981D01*
X-16882131Y-44167869D01*
X-16835019Y-44110463D01*
X-16800012Y-44044970D01*
X-16778455Y-43973905D01*
X-16771176Y-43900000D01*
X-16771176Y-42829905D01*
X-5727000Y-42829905D01*
X-5727000Y-43170095D01*
X-5660632Y-43503747D01*
X-5530447Y-43818041D01*
X-5341448Y-44100898D01*
X-5100898Y-44341448D01*
X-4818041Y-44530447D01*
X-4503747Y-44660632D01*
X-4170095Y-44727000D01*
X-3829905Y-44727000D01*
X-3496253Y-44660632D01*
X-3181959Y-44530447D01*
X-2899102Y-44341448D01*
X-2658552Y-44100898D01*
X-2469553Y-43818041D01*
X-2339368Y-43503747D01*
X-2273000Y-43170095D01*
X-2273000Y-42829905D01*
X-2339368Y-42496253D01*
X-2469553Y-42181959D01*
X-2658552Y-41899102D01*
X-2899102Y-41658552D01*
X-3181959Y-41469553D01*
X-3496253Y-41339368D01*
X-3829905Y-41273000D01*
X-4170095Y-41273000D01*
X-4503747Y-41339368D01*
X-4818041Y-41469553D01*
X-5100898Y-41658552D01*
X-5341448Y-41899102D01*
X-5530447Y-42181959D01*
X-5660632Y-42496253D01*
X-5727000Y-42829905D01*
X-16771176Y-42829905D01*
X-16771176Y-42200000D01*
X-16778455Y-42126095D01*
X-16800012Y-42055030D01*
X-16835019Y-41989537D01*
X-16882131Y-41932131D01*
X-16939537Y-41885019D01*
X-17005030Y-41850012D01*
X-17076095Y-41828455D01*
X-17150000Y-41821176D01*
X-18850000Y-41821176D01*
X-18923905Y-41828455D01*
X-18994970Y-41850012D01*
X-19060463Y-41885019D01*
X-19117869Y-41932131D01*
X-19164981Y-41989537D01*
X-19199988Y-42055030D01*
X-19221545Y-42126095D01*
X-19228824Y-42200000D01*
X-24848000Y-42200000D01*
X-24848000Y-41496845D01*
X-24746464Y-41395309D01*
X-24661431Y-41268048D01*
X-24602859Y-41126643D01*
X-24573000Y-40976528D01*
X-24573000Y-40823472D01*
X-24602859Y-40673357D01*
X-24661431Y-40531952D01*
X-24746464Y-40404691D01*
X-24854691Y-40296464D01*
X-24981952Y-40211431D01*
X-25123357Y-40152859D01*
X-25273472Y-40123000D01*
X-25426528Y-40123000D01*
X-25576643Y-40152859D01*
X-25718048Y-40211431D01*
X-25845309Y-40296464D01*
X-25953536Y-40404691D01*
X-26038569Y-40531952D01*
X-26097141Y-40673357D01*
X-26127000Y-40823472D01*
X-29573000Y-40823472D01*
X-29602859Y-40673357D01*
X-29661431Y-40531952D01*
X-29746464Y-40404691D01*
X-29854691Y-40296464D01*
X-29981952Y-40211431D01*
X-30123357Y-40152859D01*
X-30273472Y-40123000D01*
X-30426528Y-40123000D01*
X-30576643Y-40152859D01*
X-30718048Y-40211431D01*
X-30845309Y-40296464D01*
X-30953536Y-40404691D01*
X-31038569Y-40531952D01*
X-31097141Y-40673357D01*
X-31127000Y-40823472D01*
X-70598000Y-40823472D01*
X-70598000Y-39373472D01*
X-22452000Y-39373472D01*
X-22452000Y-39526528D01*
X-22422141Y-39676643D01*
X-22363569Y-39818048D01*
X-22278536Y-39945309D01*
X-22170309Y-40053536D01*
X-22043048Y-40138569D01*
X-21901643Y-40197141D01*
X-21751528Y-40227000D01*
X-21598472Y-40227000D01*
X-21448357Y-40197141D01*
X-21306952Y-40138569D01*
X-21179691Y-40053536D01*
X-21078155Y-39952000D01*
X-19821845Y-39952000D01*
X-19720309Y-40053536D01*
X-19593048Y-40138569D01*
X-19451643Y-40197141D01*
X-19301528Y-40227000D01*
X-19194746Y-40227000D01*
X-19227000Y-40389151D01*
X-19227000Y-40630849D01*
X-19179847Y-40867903D01*
X-19087353Y-41091202D01*
X-18953073Y-41292167D01*
X-18782167Y-41463073D01*
X-18581202Y-41597353D01*
X-18357903Y-41689847D01*
X-18120849Y-41737000D01*
X-17879151Y-41737000D01*
X-17642097Y-41689847D01*
X-17418798Y-41597353D01*
X-17217833Y-41463073D01*
X-17046927Y-41292167D01*
X-16912647Y-41091202D01*
X-16820153Y-40867903D01*
X-16773000Y-40630849D01*
X-16773000Y-40389151D01*
X-16820153Y-40152097D01*
X-16912647Y-39928798D01*
X-17046927Y-39727833D01*
X-17217833Y-39556927D01*
X-17418798Y-39422647D01*
X-17642097Y-39330153D01*
X-17879151Y-39283000D01*
X-18120849Y-39283000D01*
X-18357903Y-39330153D01*
X-18449102Y-39367929D01*
X-18477859Y-39223357D01*
X-18536431Y-39081952D01*
X-18621464Y-38954691D01*
X-18729691Y-38846464D01*
X-18856952Y-38761431D01*
X-18998357Y-38702859D01*
X-19148472Y-38673000D01*
X-19301528Y-38673000D01*
X-19451643Y-38702859D01*
X-19593048Y-38761431D01*
X-19720309Y-38846464D01*
X-19821845Y-38948000D01*
X-21078155Y-38948000D01*
X-21179691Y-38846464D01*
X-21306952Y-38761431D01*
X-21448357Y-38702859D01*
X-21598472Y-38673000D01*
X-21751528Y-38673000D01*
X-21901643Y-38702859D01*
X-22043048Y-38761431D01*
X-22170309Y-38846464D01*
X-22278536Y-38954691D01*
X-22363569Y-39081952D01*
X-22422141Y-39223357D01*
X-22452000Y-39373472D01*
X-70598000Y-39373472D01*
X-70598000Y-39019665D01*
X-70594242Y-38981337D01*
X-70588824Y-38963391D01*
X-70580021Y-38946834D01*
X-70568171Y-38932305D01*
X-70553721Y-38920352D01*
X-70537228Y-38911434D01*
X-70519320Y-38905890D01*
X-70482308Y-38902000D01*
X-66480253Y-38902000D01*
X-66462777Y-38900279D01*
X-66456584Y-38900322D01*
X-66450997Y-38899774D01*
X-66256901Y-38879373D01*
X-66221202Y-38872045D01*
X-66185421Y-38865220D01*
X-66180050Y-38863598D01*
X-66180044Y-38863596D01*
X-65993610Y-38805885D01*
X-65960013Y-38791762D01*
X-65926240Y-38778117D01*
X-65921284Y-38775482D01*
X-65749607Y-38682657D01*
X-65719420Y-38662296D01*
X-65688912Y-38642332D01*
X-65684562Y-38638784D01*
X-65534184Y-38514380D01*
X-65508497Y-38488514D01*
X-65482479Y-38463035D01*
X-65478901Y-38458710D01*
X-65355551Y-38307468D01*
X-65335383Y-38277112D01*
X-65314803Y-38247057D01*
X-65312137Y-38242124D01*
X-65312134Y-38242120D01*
X-65312132Y-38242116D01*
X-65220509Y-38069797D01*
X-65206622Y-38036106D01*
X-65192271Y-38002623D01*
X-65190611Y-37997261D01*
X-65134202Y-37810424D01*
X-65127125Y-37774680D01*
X-65119550Y-37739045D01*
X-65118964Y-37733463D01*
X-65118633Y-37730086D01*
X-32582300Y-37730086D01*
X-32582300Y-37901914D01*
X-32548778Y-38070441D01*
X-32483023Y-38229189D01*
X-32387560Y-38372059D01*
X-32266059Y-38493560D01*
X-32123189Y-38589023D01*
X-31964441Y-38654778D01*
X-31795914Y-38688300D01*
X-31624086Y-38688300D01*
X-31455559Y-38654778D01*
X-31296811Y-38589023D01*
X-31153941Y-38493560D01*
X-31032440Y-38372059D01*
X-30936977Y-38229189D01*
X-30871222Y-38070441D01*
X-30837700Y-37901914D01*
X-30837700Y-37730086D01*
X-30871222Y-37561559D01*
X-30936977Y-37402811D01*
X-31032440Y-37259941D01*
X-31153941Y-37138440D01*
X-31296811Y-37042977D01*
X-31455559Y-36977222D01*
X-31624086Y-36943700D01*
X-31795914Y-36943700D01*
X-31964441Y-36977222D01*
X-32123189Y-37042977D01*
X-32266059Y-37138440D01*
X-32387560Y-37259941D01*
X-32483023Y-37402811D01*
X-32548778Y-37561559D01*
X-32582300Y-37730086D01*
X-65118633Y-37730086D01*
X-65099919Y-37539229D01*
X-65098000Y-37519747D01*
X-65098000Y-33373472D01*
X-60027000Y-33373472D01*
X-60027000Y-33526528D01*
X-59997141Y-33676643D01*
X-59938569Y-33818048D01*
X-59853536Y-33945309D01*
X-59745309Y-34053536D01*
X-59618048Y-34138569D01*
X-59476643Y-34197141D01*
X-59326528Y-34227000D01*
X-59173472Y-34227000D01*
X-59023357Y-34197141D01*
X-58881952Y-34138569D01*
X-58754691Y-34053536D01*
X-58653155Y-33952000D01*
X-54061935Y-33952000D01*
X-55182934Y-35073000D01*
X-55326528Y-35073000D01*
X-55476643Y-35102859D01*
X-55618048Y-35161431D01*
X-55745309Y-35246464D01*
X-55853536Y-35354691D01*
X-55938569Y-35481952D01*
X-55997141Y-35623357D01*
X-56027000Y-35773472D01*
X-56027000Y-35926528D01*
X-55997141Y-36076643D01*
X-55938569Y-36218048D01*
X-55853536Y-36345309D01*
X-55745309Y-36453536D01*
X-55618048Y-36538569D01*
X-55476643Y-36597141D01*
X-55326528Y-36627000D01*
X-55173472Y-36627000D01*
X-55023357Y-36597141D01*
X-54881952Y-36538569D01*
X-54754691Y-36453536D01*
X-54646464Y-36345309D01*
X-54561431Y-36218048D01*
X-54502859Y-36076643D01*
X-54473000Y-35926528D01*
X-54473000Y-35782934D01*
X-53392065Y-34702000D01*
X-52811935Y-34702000D01*
X-53182934Y-35073000D01*
X-53326528Y-35073000D01*
X-53476643Y-35102859D01*
X-53618048Y-35161431D01*
X-53745309Y-35246464D01*
X-53853536Y-35354691D01*
X-53938569Y-35481952D01*
X-53997141Y-35623357D01*
X-54027000Y-35773472D01*
X-54027000Y-35926528D01*
X-53997141Y-36076643D01*
X-53938569Y-36218048D01*
X-53853536Y-36345309D01*
X-53745309Y-36453536D01*
X-53618048Y-36538569D01*
X-53476643Y-36597141D01*
X-53326528Y-36627000D01*
X-53173472Y-36627000D01*
X-53023357Y-36597141D01*
X-52881952Y-36538569D01*
X-52754691Y-36453536D01*
X-52646464Y-36345309D01*
X-52561431Y-36218048D01*
X-52502859Y-36076643D01*
X-52473000Y-35926528D01*
X-52473000Y-35782934D01*
X-52142065Y-35452000D01*
X-51918556Y-35452000D01*
X-51938569Y-35481952D01*
X-51997141Y-35623357D01*
X-52027000Y-35773472D01*
X-52027000Y-35926528D01*
X-51997141Y-36076643D01*
X-51938569Y-36218048D01*
X-51853536Y-36345309D01*
X-51745309Y-36453536D01*
X-51618048Y-36538569D01*
X-51476643Y-36597141D01*
X-51326528Y-36627000D01*
X-51173472Y-36627000D01*
X-51023357Y-36597141D01*
X-50881952Y-36538569D01*
X-50754691Y-36453536D01*
X-50653155Y-36352000D01*
X-44172777Y-36352000D01*
X-44118048Y-36388569D01*
X-43976643Y-36447141D01*
X-43826528Y-36477000D01*
X-43673472Y-36477000D01*
X-43523357Y-36447141D01*
X-43381952Y-36388569D01*
X-43254691Y-36303536D01*
X-43146464Y-36195309D01*
X-43061431Y-36068048D01*
X-43002859Y-35926643D01*
X-42973000Y-35776528D01*
X-42973000Y-35726906D01*
X-42823357Y-35697141D01*
X-42681952Y-35638569D01*
X-42554691Y-35553536D01*
X-42446464Y-35445309D01*
X-42361431Y-35318048D01*
X-42302859Y-35176643D01*
X-42273000Y-35026528D01*
X-42273000Y-34873472D01*
X-42302859Y-34723357D01*
X-42361431Y-34581952D01*
X-42446464Y-34454691D01*
X-42554691Y-34346464D01*
X-42681952Y-34261431D01*
X-42823357Y-34202859D01*
X-42973000Y-34173094D01*
X-42973000Y-34123472D01*
X-43002859Y-33973357D01*
X-43011705Y-33952000D01*
X-42207935Y-33952000D01*
X-42151999Y-34007936D01*
X-42152000Y-35828155D01*
X-42253536Y-35929691D01*
X-42338569Y-36056952D01*
X-42397141Y-36198357D01*
X-42427000Y-36348472D01*
X-42427000Y-36501528D01*
X-42397141Y-36651643D01*
X-42338569Y-36793048D01*
X-42253536Y-36920309D01*
X-42145309Y-37028536D01*
X-42018048Y-37113569D01*
X-41876643Y-37172141D01*
X-41726528Y-37202000D01*
X-41573472Y-37202000D01*
X-41423357Y-37172141D01*
X-41281952Y-37113569D01*
X-41154691Y-37028536D01*
X-41046464Y-36920309D01*
X-40961431Y-36793048D01*
X-40928724Y-36714086D01*
X-37662300Y-36714086D01*
X-37662300Y-36885914D01*
X-37628778Y-37054441D01*
X-37563023Y-37213189D01*
X-37467560Y-37356059D01*
X-37346059Y-37477560D01*
X-37203189Y-37573023D01*
X-37044441Y-37638778D01*
X-36875914Y-37672300D01*
X-36704086Y-37672300D01*
X-36535559Y-37638778D01*
X-36376811Y-37573023D01*
X-36233941Y-37477560D01*
X-36112440Y-37356059D01*
X-36016977Y-37213189D01*
X-35951222Y-37054441D01*
X-35917700Y-36885914D01*
X-35917700Y-36714086D01*
X-35951222Y-36545559D01*
X-36016977Y-36386811D01*
X-36112440Y-36243941D01*
X-36233941Y-36122440D01*
X-36376811Y-36026977D01*
X-36535559Y-35961222D01*
X-36704086Y-35927700D01*
X-36875914Y-35927700D01*
X-37044441Y-35961222D01*
X-37203189Y-36026977D01*
X-37346059Y-36122440D01*
X-37467560Y-36243941D01*
X-37563023Y-36386811D01*
X-37628778Y-36545559D01*
X-37662300Y-36714086D01*
X-40928724Y-36714086D01*
X-40902859Y-36651643D01*
X-40873000Y-36501528D01*
X-40873000Y-36348472D01*
X-40902859Y-36198357D01*
X-40961431Y-36056952D01*
X-41046464Y-35929691D01*
X-41148000Y-35828155D01*
X-41148000Y-35198491D01*
X-34427000Y-35198491D01*
X-34427000Y-35351547D01*
X-34397141Y-35501662D01*
X-34338569Y-35643067D01*
X-34253536Y-35770328D01*
X-34145309Y-35878555D01*
X-34018048Y-35963588D01*
X-33876643Y-36022160D01*
X-33726528Y-36052019D01*
X-33573472Y-36052019D01*
X-33423357Y-36022160D01*
X-33281952Y-35963588D01*
X-33154691Y-35878555D01*
X-33046464Y-35770328D01*
X-32961431Y-35643067D01*
X-32902859Y-35501662D01*
X-32873000Y-35351547D01*
X-32873000Y-35207954D01*
X-32717045Y-35052000D01*
X-32184584Y-35052000D01*
X-32266059Y-35106440D01*
X-32387560Y-35227941D01*
X-32483023Y-35370811D01*
X-32548778Y-35529559D01*
X-32582300Y-35698086D01*
X-32582300Y-35869914D01*
X-32548778Y-36038441D01*
X-32483023Y-36197189D01*
X-32387560Y-36340059D01*
X-32266059Y-36461560D01*
X-32123189Y-36557023D01*
X-31964441Y-36622778D01*
X-31795914Y-36656300D01*
X-31624086Y-36656300D01*
X-31455559Y-36622778D01*
X-31296811Y-36557023D01*
X-31153941Y-36461560D01*
X-31032440Y-36340059D01*
X-30936977Y-36197189D01*
X-30871222Y-36038441D01*
X-30837700Y-35869914D01*
X-30837700Y-35698086D01*
X-30871222Y-35529559D01*
X-30936977Y-35370811D01*
X-31032440Y-35227941D01*
X-31153941Y-35106440D01*
X-31235416Y-35052000D01*
X-30992975Y-35052000D01*
X-30985181Y-35063664D01*
X-30876954Y-35171891D01*
X-30749693Y-35256924D01*
X-30608288Y-35315496D01*
X-30458173Y-35345355D01*
X-30305117Y-35345355D01*
X-30155002Y-35315496D01*
X-30013597Y-35256924D01*
X-29886336Y-35171891D01*
X-29778109Y-35063664D01*
X-29693076Y-34936403D01*
X-29634504Y-34794998D01*
X-29604645Y-34644883D01*
X-29604645Y-34491827D01*
X-29634504Y-34341712D01*
X-29693076Y-34200307D01*
X-29778109Y-34073046D01*
X-29886336Y-33964819D01*
X-30013597Y-33879786D01*
X-30155002Y-33821214D01*
X-30305117Y-33791355D01*
X-30458173Y-33791355D01*
X-30608288Y-33821214D01*
X-30749693Y-33879786D01*
X-30876954Y-33964819D01*
X-30960135Y-34048000D01*
X-32900338Y-34048000D01*
X-32924981Y-34045573D01*
X-32949624Y-34048000D01*
X-32949634Y-34048000D01*
X-33023390Y-34055264D01*
X-33118017Y-34083969D01*
X-33158613Y-34105668D01*
X-33205227Y-34130583D01*
X-33262517Y-34177600D01*
X-33262525Y-34177608D01*
X-33281665Y-34193316D01*
X-33297374Y-34212457D01*
X-33582935Y-34498019D01*
X-33726528Y-34498019D01*
X-33876643Y-34527878D01*
X-34018048Y-34586450D01*
X-34145309Y-34671483D01*
X-34253536Y-34779710D01*
X-34338569Y-34906971D01*
X-34397141Y-35048376D01*
X-34427000Y-35198491D01*
X-41148000Y-35198491D01*
X-41148000Y-33824643D01*
X-41145573Y-33800000D01*
X-41148000Y-33775357D01*
X-41148000Y-33775347D01*
X-41155264Y-33701591D01*
X-41183969Y-33606964D01*
X-41217989Y-33543316D01*
X-41230583Y-33519754D01*
X-41277600Y-33462464D01*
X-41277608Y-33462456D01*
X-41293316Y-33443316D01*
X-41312457Y-33427607D01*
X-41627599Y-33112467D01*
X-41643316Y-33093316D01*
X-41719755Y-33030583D01*
X-41806964Y-32983969D01*
X-41901591Y-32955264D01*
X-41975347Y-32948000D01*
X-41975357Y-32948000D01*
X-42000000Y-32945573D01*
X-42024643Y-32948000D01*
X-43011705Y-32948000D01*
X-43002859Y-32926643D01*
X-42973000Y-32776528D01*
X-42973000Y-32752000D01*
X-42892602Y-32752000D01*
X-42742487Y-32722141D01*
X-42601082Y-32663569D01*
X-42473821Y-32578536D01*
X-42365594Y-32470309D01*
X-42280561Y-32343048D01*
X-42221989Y-32201643D01*
X-42192130Y-32051528D01*
X-42192130Y-31898472D01*
X-42196825Y-31874868D01*
X-33137953Y-31874868D01*
X-33137953Y-32027924D01*
X-33108094Y-32178039D01*
X-33049522Y-32319444D01*
X-32964489Y-32446705D01*
X-32856262Y-32554932D01*
X-32729001Y-32639965D01*
X-32587596Y-32698537D01*
X-32437481Y-32728396D01*
X-32284425Y-32728396D01*
X-32134310Y-32698537D01*
X-31992905Y-32639965D01*
X-31865644Y-32554932D01*
X-31764108Y-32453396D01*
X-28970449Y-32453396D01*
X-28870309Y-32553536D01*
X-28743048Y-32638569D01*
X-28601643Y-32697141D01*
X-28451528Y-32727000D01*
X-28298472Y-32727000D01*
X-28148357Y-32697141D01*
X-28006952Y-32638569D01*
X-27889053Y-32559792D01*
X-27845309Y-32603536D01*
X-27718048Y-32688569D01*
X-27576643Y-32747141D01*
X-27426528Y-32777000D01*
X-27273472Y-32777000D01*
X-27123357Y-32747141D01*
X-26981952Y-32688569D01*
X-26854691Y-32603536D01*
X-26825000Y-32573845D01*
X-26795309Y-32603536D01*
X-26668048Y-32688569D01*
X-26526643Y-32747141D01*
X-26376528Y-32777000D01*
X-26223472Y-32777000D01*
X-26073357Y-32747141D01*
X-25931952Y-32688569D01*
X-25804691Y-32603536D01*
X-25696464Y-32495309D01*
X-25611431Y-32368048D01*
X-25552859Y-32226643D01*
X-25523000Y-32076528D01*
X-25523000Y-32075845D01*
X-25495309Y-32103536D01*
X-25368048Y-32188569D01*
X-25226643Y-32247141D01*
X-25076528Y-32277000D01*
X-24923472Y-32277000D01*
X-24773357Y-32247141D01*
X-24631952Y-32188569D01*
X-24504691Y-32103536D01*
X-24499627Y-32098472D01*
X-20827000Y-32098472D01*
X-20827000Y-32251528D01*
X-20797141Y-32401643D01*
X-20738569Y-32543048D01*
X-20653536Y-32670309D01*
X-20545309Y-32778536D01*
X-20418048Y-32863569D01*
X-20276643Y-32922141D01*
X-20227000Y-32932015D01*
X-20226999Y-33467984D01*
X-20276643Y-33477859D01*
X-20418048Y-33536431D01*
X-20545309Y-33621464D01*
X-20653536Y-33729691D01*
X-20738569Y-33856952D01*
X-20797141Y-33998357D01*
X-20827000Y-34148472D01*
X-20827000Y-34301528D01*
X-20797141Y-34451643D01*
X-20738569Y-34593048D01*
X-20653536Y-34720309D01*
X-20545309Y-34828536D01*
X-20418048Y-34913569D01*
X-20276643Y-34972141D01*
X-20126528Y-35002000D01*
X-19973472Y-35002000D01*
X-19823357Y-34972141D01*
X-19681952Y-34913569D01*
X-19554691Y-34828536D01*
X-19500000Y-34773845D01*
X-19445309Y-34828536D01*
X-19318048Y-34913569D01*
X-19176643Y-34972141D01*
X-19026528Y-35002000D01*
X-18873472Y-35002000D01*
X-18723357Y-34972141D01*
X-18581952Y-34913569D01*
X-18454691Y-34828536D01*
X-18346464Y-34720309D01*
X-18261431Y-34593048D01*
X-18202859Y-34451643D01*
X-18173000Y-34301528D01*
X-18173000Y-34148472D01*
X-18202859Y-33998357D01*
X-18261431Y-33856952D01*
X-18346464Y-33729691D01*
X-18454691Y-33621464D01*
X-18581952Y-33536431D01*
X-18723357Y-33477859D01*
X-18773000Y-33467985D01*
X-18773000Y-32951282D01*
X-18681952Y-32913569D01*
X-18554691Y-32828536D01*
X-18446464Y-32720309D01*
X-18361431Y-32593048D01*
X-18302859Y-32451643D01*
X-18273000Y-32301528D01*
X-18273000Y-32148472D01*
X-18302859Y-31998357D01*
X-18361431Y-31856952D01*
X-18446464Y-31729691D01*
X-18554691Y-31621464D01*
X-18681952Y-31536431D01*
X-18823357Y-31477859D01*
X-18973472Y-31448000D01*
X-19126528Y-31448000D01*
X-19276643Y-31477859D01*
X-19418048Y-31536431D01*
X-19520960Y-31605195D01*
X-19554691Y-31571464D01*
X-19681952Y-31486431D01*
X-19823357Y-31427859D01*
X-19973472Y-31398000D01*
X-20126528Y-31398000D01*
X-20276643Y-31427859D01*
X-20418048Y-31486431D01*
X-20545309Y-31571464D01*
X-20653536Y-31679691D01*
X-20738569Y-31806952D01*
X-20797141Y-31948357D01*
X-20827000Y-32098472D01*
X-24499627Y-32098472D01*
X-24396464Y-31995309D01*
X-24311431Y-31868048D01*
X-24252859Y-31726643D01*
X-24223000Y-31576528D01*
X-24223000Y-31423472D01*
X-24252859Y-31273357D01*
X-24311431Y-31131952D01*
X-24396464Y-31004691D01*
X-24504691Y-30896464D01*
X-24631952Y-30811431D01*
X-24773357Y-30752859D01*
X-24798000Y-30747957D01*
X-24798000Y-27830572D01*
X-24756952Y-27813569D01*
X-24629691Y-27728536D01*
X-24521464Y-27620309D01*
X-24436431Y-27493048D01*
X-24377859Y-27351643D01*
X-24348000Y-27201528D01*
X-24348000Y-27048472D01*
X-24377859Y-26898357D01*
X-24436431Y-26756952D01*
X-24521464Y-26629691D01*
X-24629691Y-26521464D01*
X-24756952Y-26436431D01*
X-24898357Y-26377859D01*
X-25048472Y-26348000D01*
X-25201528Y-26348000D01*
X-25351643Y-26377859D01*
X-25493048Y-26436431D01*
X-25620309Y-26521464D01*
X-25650000Y-26551155D01*
X-25654691Y-26546464D01*
X-25781952Y-26461431D01*
X-25923357Y-26402859D01*
X-26073472Y-26373000D01*
X-26226528Y-26373000D01*
X-26376643Y-26402859D01*
X-26518048Y-26461431D01*
X-26645309Y-26546464D01*
X-26679040Y-26580195D01*
X-26781952Y-26511431D01*
X-26923357Y-26452859D01*
X-27073472Y-26423000D01*
X-27226528Y-26423000D01*
X-27376643Y-26452859D01*
X-27518048Y-26511431D01*
X-27645309Y-26596464D01*
X-27753536Y-26704691D01*
X-27838569Y-26831952D01*
X-27897141Y-26973357D01*
X-27927000Y-27123472D01*
X-27927000Y-27276528D01*
X-27897141Y-27426643D01*
X-27838569Y-27568048D01*
X-27753536Y-27695309D01*
X-27645309Y-27803536D01*
X-27518048Y-27888569D01*
X-27376643Y-27947141D01*
X-27226528Y-27977000D01*
X-27082934Y-27977000D01*
X-26752000Y-28307935D01*
X-26751999Y-30692064D01*
X-27282934Y-31223000D01*
X-27426528Y-31223000D01*
X-27576643Y-31252859D01*
X-27718048Y-31311431D01*
X-27835947Y-31390208D01*
X-27879691Y-31346464D01*
X-28006952Y-31261431D01*
X-28148357Y-31202859D01*
X-28298472Y-31173000D01*
X-28451528Y-31173000D01*
X-28601643Y-31202859D01*
X-28743048Y-31261431D01*
X-28870309Y-31346464D01*
X-28973241Y-31449396D01*
X-31764108Y-31449396D01*
X-31865644Y-31347860D01*
X-31992905Y-31262827D01*
X-32134310Y-31204255D01*
X-32284425Y-31174396D01*
X-32437481Y-31174396D01*
X-32587596Y-31204255D01*
X-32729001Y-31262827D01*
X-32856262Y-31347860D01*
X-32964489Y-31456087D01*
X-33049522Y-31583348D01*
X-33108094Y-31724753D01*
X-33137953Y-31874868D01*
X-42196825Y-31874868D01*
X-42221989Y-31748357D01*
X-42280561Y-31606952D01*
X-42365594Y-31479691D01*
X-42473821Y-31371464D01*
X-42601082Y-31286431D01*
X-42742487Y-31227859D01*
X-42892602Y-31198000D01*
X-43045658Y-31198000D01*
X-43195773Y-31227859D01*
X-43337178Y-31286431D01*
X-43464439Y-31371464D01*
X-43565975Y-31473000D01*
X-50517065Y-31473000D01*
X-50748000Y-31242066D01*
X-50748000Y-22473472D01*
X-44777000Y-22473472D01*
X-44777000Y-22626528D01*
X-44747141Y-22776643D01*
X-44688569Y-22918048D01*
X-44603536Y-23045309D01*
X-44495309Y-23153536D01*
X-44368048Y-23238569D01*
X-44226643Y-23297141D01*
X-44076528Y-23327000D01*
X-43968289Y-23327000D01*
X-43340951Y-23954339D01*
X-43324448Y-23974448D01*
X-43244202Y-24040304D01*
X-43152650Y-24089239D01*
X-43053310Y-24119374D01*
X-42950001Y-24129549D01*
X-42924120Y-24127000D01*
X-42421835Y-24127000D01*
X-42345299Y-24203536D01*
X-42218038Y-24288569D01*
X-42076633Y-24347141D01*
X-41926518Y-24377000D01*
X-41773462Y-24377000D01*
X-41623347Y-24347141D01*
X-41481942Y-24288569D01*
X-41354681Y-24203536D01*
X-41246454Y-24095309D01*
X-41161421Y-23968048D01*
X-41102849Y-23826643D01*
X-41072990Y-23676528D01*
X-41072990Y-23523472D01*
X-41102849Y-23373357D01*
X-41161421Y-23231952D01*
X-41246454Y-23104691D01*
X-41354681Y-22996464D01*
X-41481942Y-22911431D01*
X-41623347Y-22852859D01*
X-41773462Y-22823000D01*
X-41926518Y-22823000D01*
X-42076633Y-22852859D01*
X-42218038Y-22911431D01*
X-42345299Y-22996464D01*
X-42421835Y-23073000D01*
X-42731710Y-23073000D01*
X-43223000Y-22581711D01*
X-43223000Y-22473472D01*
X-43252859Y-22323357D01*
X-43311431Y-22181952D01*
X-43396464Y-22054691D01*
X-43504691Y-21946464D01*
X-43631952Y-21861431D01*
X-43773357Y-21802859D01*
X-43923472Y-21773000D01*
X-44076528Y-21773000D01*
X-44226643Y-21802859D01*
X-44368048Y-21861431D01*
X-44495309Y-21946464D01*
X-44603536Y-22054691D01*
X-44688569Y-22181952D01*
X-44747141Y-22323357D01*
X-44777000Y-22473472D01*
X-50748000Y-22473472D01*
X-50748000Y-21096845D01*
X-50646464Y-20995309D01*
X-50561431Y-20868048D01*
X-50502859Y-20726643D01*
X-50473000Y-20576528D01*
X-50473000Y-20423472D01*
X-50502859Y-20273357D01*
X-50561431Y-20131952D01*
X-50646464Y-20004691D01*
X-50754691Y-19896464D01*
X-50881952Y-19811431D01*
X-51023357Y-19752859D01*
X-51173472Y-19723000D01*
X-51326528Y-19723000D01*
X-51476643Y-19752859D01*
X-51618048Y-19811431D01*
X-51745309Y-19896464D01*
X-51853536Y-20004691D01*
X-51938569Y-20131952D01*
X-51997141Y-20273357D01*
X-52027000Y-20423472D01*
X-52027000Y-20576528D01*
X-51997141Y-20726643D01*
X-51938569Y-20868048D01*
X-51853536Y-20995309D01*
X-51752000Y-21096845D01*
X-51751999Y-31425347D01*
X-51754427Y-31450000D01*
X-51744735Y-31548409D01*
X-51716030Y-31643036D01*
X-51669416Y-31730245D01*
X-51622399Y-31787535D01*
X-51622396Y-31787538D01*
X-51606683Y-31806684D01*
X-51587537Y-31822397D01*
X-51211935Y-32198000D01*
X-56653155Y-32198000D01*
X-56754691Y-32096464D01*
X-56881952Y-32011431D01*
X-57023357Y-31952859D01*
X-57173472Y-31923000D01*
X-57326528Y-31923000D01*
X-57476643Y-31952859D01*
X-57618048Y-32011431D01*
X-57745309Y-32096464D01*
X-57853536Y-32204691D01*
X-57938569Y-32331952D01*
X-57997141Y-32473357D01*
X-58027000Y-32623472D01*
X-58027000Y-32776528D01*
X-57997141Y-32926643D01*
X-57988295Y-32948000D01*
X-58653155Y-32948000D01*
X-58754691Y-32846464D01*
X-58881952Y-32761431D01*
X-59023357Y-32702859D01*
X-59173472Y-32673000D01*
X-59326528Y-32673000D01*
X-59476643Y-32702859D01*
X-59618048Y-32761431D01*
X-59745309Y-32846464D01*
X-59853536Y-32954691D01*
X-59938569Y-33081952D01*
X-59997141Y-33223357D01*
X-60027000Y-33373472D01*
X-65098000Y-33373472D01*
X-65098000Y-22580253D01*
X-65099721Y-22562777D01*
X-65099678Y-22556583D01*
X-65100226Y-22550997D01*
X-65120627Y-22356900D01*
X-65127958Y-22321188D01*
X-65134780Y-22285421D01*
X-65136403Y-22280048D01*
X-65136403Y-22280046D01*
X-65136405Y-22280040D01*
X-65194115Y-22093610D01*
X-65208238Y-22060013D01*
X-65221883Y-22026240D01*
X-65224518Y-22021284D01*
X-65317343Y-21849607D01*
X-65337721Y-21819395D01*
X-65357669Y-21788911D01*
X-65361216Y-21784562D01*
X-65485620Y-21634184D01*
X-65511470Y-21608514D01*
X-65536965Y-21582479D01*
X-65541290Y-21578901D01*
X-65692532Y-21455551D01*
X-65722914Y-21435365D01*
X-65752943Y-21414804D01*
X-65757880Y-21412134D01*
X-65930203Y-21320509D01*
X-65963877Y-21306630D01*
X-65997377Y-21292271D01*
X-66002739Y-21290612D01*
X-66189575Y-21234202D01*
X-66225334Y-21227122D01*
X-66260955Y-21219550D01*
X-66266538Y-21218964D01*
X-66460487Y-21199947D01*
X-66480253Y-21198000D01*
X-70480335Y-21198000D01*
X-70518663Y-21194242D01*
X-70536609Y-21188824D01*
X-70553166Y-21180021D01*
X-70567695Y-21168171D01*
X-70579648Y-21153722D01*
X-70588567Y-21137227D01*
X-70594110Y-21119319D01*
X-70598000Y-21082308D01*
X-70598000Y-18823472D01*
X-60027000Y-18823472D01*
X-60027000Y-18976528D01*
X-59997141Y-19126643D01*
X-59938569Y-19268048D01*
X-59853536Y-19395309D01*
X-59777000Y-19471845D01*
X-59776999Y-19828154D01*
X-59853536Y-19904691D01*
X-59938569Y-20031952D01*
X-59997141Y-20173357D01*
X-60027000Y-20323472D01*
X-60027000Y-20476528D01*
X-59997141Y-20626643D01*
X-59938569Y-20768048D01*
X-59853536Y-20895309D01*
X-59745309Y-21003536D01*
X-59618048Y-21088569D01*
X-59476643Y-21147141D01*
X-59326528Y-21177000D01*
X-59173472Y-21177000D01*
X-59023357Y-21147141D01*
X-58881952Y-21088569D01*
X-58754691Y-21003536D01*
X-58646464Y-20895309D01*
X-58561431Y-20768048D01*
X-58502859Y-20626643D01*
X-58473000Y-20476528D01*
X-58473000Y-20323472D01*
X-58502859Y-20173357D01*
X-58561431Y-20031952D01*
X-58646464Y-19904691D01*
X-58723000Y-19828155D01*
X-58723000Y-19471845D01*
X-58646464Y-19395309D01*
X-58561431Y-19268048D01*
X-58524996Y-19180086D01*
X-47832300Y-19180086D01*
X-47832300Y-19351914D01*
X-47798778Y-19520441D01*
X-47733023Y-19679189D01*
X-47637560Y-19822059D01*
X-47516059Y-19943560D01*
X-47373189Y-20039023D01*
X-47214441Y-20104778D01*
X-47045914Y-20138300D01*
X-46874086Y-20138300D01*
X-46705559Y-20104778D01*
X-46546811Y-20039023D01*
X-46403941Y-19943560D01*
X-46282440Y-19822059D01*
X-46186977Y-19679189D01*
X-46121222Y-19520441D01*
X-46087700Y-19351914D01*
X-46087700Y-19180086D01*
X-46121222Y-19011559D01*
X-46186977Y-18852811D01*
X-46282440Y-18709941D01*
X-46403941Y-18588440D01*
X-46546811Y-18492977D01*
X-46705559Y-18427222D01*
X-46874086Y-18393700D01*
X-47045914Y-18393700D01*
X-47214441Y-18427222D01*
X-47373189Y-18492977D01*
X-47516059Y-18588440D01*
X-47637560Y-18709941D01*
X-47733023Y-18852811D01*
X-47798778Y-19011559D01*
X-47832300Y-19180086D01*
X-58524996Y-19180086D01*
X-58502859Y-19126643D01*
X-58473000Y-18976528D01*
X-58473000Y-18823472D01*
X-58502859Y-18673357D01*
X-58561431Y-18531952D01*
X-58646464Y-18404691D01*
X-58754691Y-18296464D01*
X-58881952Y-18211431D01*
X-58996252Y-18164086D01*
X-52912300Y-18164086D01*
X-52912300Y-18335914D01*
X-52878778Y-18504441D01*
X-52813023Y-18663189D01*
X-52717560Y-18806059D01*
X-52596059Y-18927560D01*
X-52453189Y-19023023D01*
X-52294441Y-19088778D01*
X-52125914Y-19122300D01*
X-51954086Y-19122300D01*
X-51785559Y-19088778D01*
X-51626811Y-19023023D01*
X-51483941Y-18927560D01*
X-51362440Y-18806059D01*
X-51266977Y-18663189D01*
X-51201222Y-18504441D01*
X-51167700Y-18335914D01*
X-51167700Y-18164086D01*
X-51201222Y-17995559D01*
X-51266977Y-17836811D01*
X-51362440Y-17693941D01*
X-51483941Y-17572440D01*
X-51626811Y-17476977D01*
X-51785559Y-17411222D01*
X-51954086Y-17377700D01*
X-52125914Y-17377700D01*
X-52294441Y-17411222D01*
X-52453189Y-17476977D01*
X-52596059Y-17572440D01*
X-52717560Y-17693941D01*
X-52813023Y-17836811D01*
X-52878778Y-17995559D01*
X-52912300Y-18164086D01*
X-58996252Y-18164086D01*
X-59023357Y-18152859D01*
X-59173472Y-18123000D01*
X-59326528Y-18123000D01*
X-59476643Y-18152859D01*
X-59618048Y-18211431D01*
X-59745309Y-18296464D01*
X-59853536Y-18404691D01*
X-59938569Y-18531952D01*
X-59997141Y-18673357D01*
X-60027000Y-18823472D01*
X-70598000Y-18823472D01*
X-70598000Y-17148086D01*
X-47832300Y-17148086D01*
X-47832300Y-17319914D01*
X-47798778Y-17488441D01*
X-47733023Y-17647189D01*
X-47637560Y-17790059D01*
X-47516059Y-17911560D01*
X-47373189Y-18007023D01*
X-47214441Y-18072778D01*
X-47045914Y-18106300D01*
X-46874086Y-18106300D01*
X-46705559Y-18072778D01*
X-46546811Y-18007023D01*
X-46403941Y-17911560D01*
X-46282440Y-17790059D01*
X-46186977Y-17647189D01*
X-46121222Y-17488441D01*
X-46087700Y-17319914D01*
X-46087700Y-17148086D01*
X-46121222Y-16979559D01*
X-46186977Y-16820811D01*
X-46282440Y-16677941D01*
X-46403941Y-16556440D01*
X-46546811Y-16460977D01*
X-46705559Y-16395222D01*
X-46874086Y-16361700D01*
X-47045914Y-16361700D01*
X-47214441Y-16395222D01*
X-47373189Y-16460977D01*
X-47516059Y-16556440D01*
X-47637560Y-16677941D01*
X-47733023Y-16820811D01*
X-47798778Y-16979559D01*
X-47832300Y-17148086D01*
X-70598000Y-17148086D01*
X-70598000Y-10273472D01*
X-43327000Y-10273472D01*
X-43327000Y-10426528D01*
X-43297141Y-10576643D01*
X-43238569Y-10718048D01*
X-43153536Y-10845309D01*
X-43045309Y-10953536D01*
X-43026999Y-10965770D01*
X-43027000Y-14078135D01*
X-43103536Y-14154671D01*
X-43188569Y-14281932D01*
X-43247141Y-14423337D01*
X-43277000Y-14573452D01*
X-43277000Y-14726508D01*
X-43247141Y-14876623D01*
X-43188569Y-15018028D01*
X-43103536Y-15145289D01*
X-42995309Y-15253516D01*
X-42868048Y-15338549D01*
X-42726643Y-15397121D01*
X-42576528Y-15426980D01*
X-42423472Y-15426980D01*
X-42273357Y-15397121D01*
X-42131952Y-15338549D01*
X-42004691Y-15253516D01*
X-41896464Y-15145289D01*
X-41811431Y-15018028D01*
X-41752859Y-14876623D01*
X-41723000Y-14726508D01*
X-41723000Y-14573452D01*
X-41752859Y-14423337D01*
X-41811431Y-14281932D01*
X-41896464Y-14154671D01*
X-41973000Y-14078135D01*
X-41973000Y-13898472D01*
X-29777000Y-13898472D01*
X-29777000Y-14051528D01*
X-29747141Y-14201643D01*
X-29688569Y-14343048D01*
X-29603536Y-14470309D01*
X-29495309Y-14578536D01*
X-29368048Y-14663569D01*
X-29226643Y-14722141D01*
X-29076528Y-14752000D01*
X-28923472Y-14752000D01*
X-28773357Y-14722141D01*
X-28631952Y-14663569D01*
X-28504691Y-14578536D01*
X-28424259Y-14498104D01*
X-26753869Y-14498104D01*
X-26677333Y-14574640D01*
X-26550072Y-14659673D01*
X-26408667Y-14718245D01*
X-26258552Y-14748104D01*
X-26105496Y-14748104D01*
X-25955381Y-14718245D01*
X-25813976Y-14659673D01*
X-25686715Y-14574640D01*
X-25578488Y-14466413D01*
X-25493455Y-14339152D01*
X-25434883Y-14197747D01*
X-25405024Y-14047632D01*
X-25405024Y-13894576D01*
X-25434883Y-13744461D01*
X-25493455Y-13603056D01*
X-25578488Y-13475795D01*
X-25686715Y-13367568D01*
X-25813976Y-13282535D01*
X-25955381Y-13223963D01*
X-26105496Y-13194104D01*
X-26258552Y-13194104D01*
X-26408667Y-13223963D01*
X-26550072Y-13282535D01*
X-26677333Y-13367568D01*
X-26753869Y-13444104D01*
X-28432051Y-13444104D01*
X-28504691Y-13371464D01*
X-28631952Y-13286431D01*
X-28773357Y-13227859D01*
X-28923472Y-13198000D01*
X-29076528Y-13198000D01*
X-29226643Y-13227859D01*
X-29368048Y-13286431D01*
X-29495309Y-13371464D01*
X-29603536Y-13479691D01*
X-29688569Y-13606952D01*
X-29747141Y-13748357D01*
X-29777000Y-13898472D01*
X-41973000Y-13898472D01*
X-41973000Y-10871845D01*
X-41946464Y-10845309D01*
X-41861431Y-10718048D01*
X-41802859Y-10576643D01*
X-41773000Y-10426528D01*
X-41773000Y-10273472D01*
X-41802859Y-10123357D01*
X-41861431Y-9981952D01*
X-41946464Y-9854691D01*
X-42054691Y-9746464D01*
X-42181952Y-9661431D01*
X-42323357Y-9602859D01*
X-42473472Y-9573000D01*
X-42626528Y-9573000D01*
X-42776643Y-9602859D01*
X-42918048Y-9661431D01*
X-43045309Y-9746464D01*
X-43153536Y-9854691D01*
X-43238569Y-9981952D01*
X-43297141Y-10123357D01*
X-43327000Y-10273472D01*
X-70598000Y-10273472D01*
X-70598000Y-6364080D01*
X-62184475Y-6364080D01*
X-62100792Y-6618261D01*
X-61828225Y-6749158D01*
X-61535358Y-6824365D01*
X-61233447Y-6840991D01*
X-60934093Y-6798397D01*
X-60648801Y-6698222D01*
X-60499208Y-6618261D01*
X-60415525Y-6364080D01*
X-61300000Y-5479605D01*
X-62184475Y-6364080D01*
X-70598000Y-6364080D01*
X-70598000Y-4019658D01*
X-70579395Y-3829905D01*
X-69727000Y-3829905D01*
X-69727000Y-4170095D01*
X-69660632Y-4503747D01*
X-69530447Y-4818041D01*
X-69341448Y-5100898D01*
X-69100898Y-5341448D01*
X-68818041Y-5530447D01*
X-68503747Y-5660632D01*
X-68170095Y-5727000D01*
X-67829905Y-5727000D01*
X-67496253Y-5660632D01*
X-67181959Y-5530447D01*
X-66936675Y-5366553D01*
X-62840991Y-5366553D01*
X-62798397Y-5665907D01*
X-62698222Y-5951199D01*
X-62618261Y-6100792D01*
X-62364080Y-6184475D01*
X-61479605Y-5300000D01*
X-61120395Y-5300000D01*
X-60235920Y-6184475D01*
X-59981739Y-6100792D01*
X-59850842Y-5828225D01*
X-59775635Y-5535358D01*
X-59759009Y-5233447D01*
X-59767435Y-5174226D01*
X-57577000Y-5174226D01*
X-57577000Y-5425774D01*
X-57527926Y-5672487D01*
X-57431663Y-5904886D01*
X-57291911Y-6114040D01*
X-57114040Y-6291911D01*
X-56904886Y-6431663D01*
X-56672487Y-6527926D01*
X-56425774Y-6577000D01*
X-56174226Y-6577000D01*
X-55927513Y-6527926D01*
X-55695114Y-6431663D01*
X-55593969Y-6364080D01*
X-39684475Y-6364080D01*
X-39600792Y-6618261D01*
X-39328225Y-6749158D01*
X-39035358Y-6824365D01*
X-38733447Y-6840991D01*
X-38434093Y-6798397D01*
X-38148801Y-6698222D01*
X-37999208Y-6618261D01*
X-37915525Y-6364080D01*
X-38800000Y-5479605D01*
X-39684475Y-6364080D01*
X-55593969Y-6364080D01*
X-55485960Y-6291911D01*
X-55308089Y-6114040D01*
X-55168337Y-5904886D01*
X-55072074Y-5672487D01*
X-55023000Y-5425774D01*
X-55023000Y-5366553D01*
X-40340991Y-5366553D01*
X-40298397Y-5665907D01*
X-40198222Y-5951199D01*
X-40118261Y-6100792D01*
X-39864080Y-6184475D01*
X-38979605Y-5300000D01*
X-38620395Y-5300000D01*
X-37735920Y-6184475D01*
X-37481739Y-6100792D01*
X-37350842Y-5828225D01*
X-37275635Y-5535358D01*
X-37259009Y-5233447D01*
X-37267435Y-5174226D01*
X-35077000Y-5174226D01*
X-35077000Y-5425774D01*
X-35027926Y-5672487D01*
X-34931663Y-5904886D01*
X-34791911Y-6114040D01*
X-34614040Y-6291911D01*
X-34404886Y-6431663D01*
X-34172487Y-6527926D01*
X-33925774Y-6577000D01*
X-33674226Y-6577000D01*
X-33427513Y-6527926D01*
X-33195114Y-6431663D01*
X-32985960Y-6291911D01*
X-32808089Y-6114040D01*
X-32668337Y-5904886D01*
X-32572074Y-5672487D01*
X-32523000Y-5425774D01*
X-32523000Y-5174226D01*
X-30077000Y-5174226D01*
X-30077000Y-5425774D01*
X-30027926Y-5672487D01*
X-29931663Y-5904886D01*
X-29791911Y-6114040D01*
X-29614040Y-6291911D01*
X-29404886Y-6431663D01*
X-29172487Y-6527926D01*
X-28925774Y-6577000D01*
X-28674226Y-6577000D01*
X-28427513Y-6527926D01*
X-28195114Y-6431663D01*
X-27985960Y-6291911D01*
X-27808089Y-6114040D01*
X-27668337Y-5904886D01*
X-27572074Y-5672487D01*
X-27523000Y-5425774D01*
X-27523000Y-5174226D01*
X-27572074Y-4927513D01*
X-27668337Y-4695114D01*
X-27808089Y-4485960D01*
X-27985960Y-4308089D01*
X-28195114Y-4168337D01*
X-28427513Y-4072074D01*
X-28674226Y-4023000D01*
X-28925774Y-4023000D01*
X-29172487Y-4072074D01*
X-29404886Y-4168337D01*
X-29614040Y-4308089D01*
X-29791911Y-4485960D01*
X-29931663Y-4695114D01*
X-30027926Y-4927513D01*
X-30077000Y-5174226D01*
X-32523000Y-5174226D01*
X-32572074Y-4927513D01*
X-32668337Y-4695114D01*
X-32808089Y-4485960D01*
X-32985960Y-4308089D01*
X-33195114Y-4168337D01*
X-33427513Y-4072074D01*
X-33674226Y-4023000D01*
X-33925774Y-4023000D01*
X-34172487Y-4072074D01*
X-34404886Y-4168337D01*
X-34614040Y-4308089D01*
X-34791911Y-4485960D01*
X-34931663Y-4695114D01*
X-35027926Y-4927513D01*
X-35077000Y-5174226D01*
X-37267435Y-5174226D01*
X-37301603Y-4934093D01*
X-37401778Y-4648801D01*
X-37481739Y-4499208D01*
X-37735920Y-4415525D01*
X-38620395Y-5300000D01*
X-38979605Y-5300000D01*
X-39864080Y-4415525D01*
X-40118261Y-4499208D01*
X-40249158Y-4771775D01*
X-40324365Y-5064642D01*
X-40340991Y-5366553D01*
X-55023000Y-5366553D01*
X-55023000Y-5174226D01*
X-55072074Y-4927513D01*
X-55168337Y-4695114D01*
X-55308089Y-4485960D01*
X-55485960Y-4308089D01*
X-55593968Y-4235920D01*
X-39684475Y-4235920D01*
X-38800000Y-5120395D01*
X-37915525Y-4235920D01*
X-37999208Y-3981739D01*
X-38271775Y-3850842D01*
X-38564642Y-3775635D01*
X-38866553Y-3759009D01*
X-39165907Y-3801603D01*
X-39451199Y-3901778D01*
X-39600792Y-3981739D01*
X-39684475Y-4235920D01*
X-55593968Y-4235920D01*
X-55695114Y-4168337D01*
X-55927513Y-4072074D01*
X-56174226Y-4023000D01*
X-56425774Y-4023000D01*
X-56672487Y-4072074D01*
X-56904886Y-4168337D01*
X-57114040Y-4308089D01*
X-57291911Y-4485960D01*
X-57431663Y-4695114D01*
X-57527926Y-4927513D01*
X-57577000Y-5174226D01*
X-59767435Y-5174226D01*
X-59801603Y-4934093D01*
X-59901778Y-4648801D01*
X-59981739Y-4499208D01*
X-60235920Y-4415525D01*
X-61120395Y-5300000D01*
X-61479605Y-5300000D01*
X-62364080Y-4415525D01*
X-62618261Y-4499208D01*
X-62749158Y-4771775D01*
X-62824365Y-5064642D01*
X-62840991Y-5366553D01*
X-66936675Y-5366553D01*
X-66899102Y-5341448D01*
X-66658552Y-5100898D01*
X-66469553Y-4818041D01*
X-66339368Y-4503747D01*
X-66286094Y-4235920D01*
X-62184475Y-4235920D01*
X-61300000Y-5120395D01*
X-60415525Y-4235920D01*
X-60499208Y-3981739D01*
X-60771775Y-3850842D01*
X-61064642Y-3775635D01*
X-61366553Y-3759009D01*
X-61665907Y-3801603D01*
X-61951199Y-3901778D01*
X-62100792Y-3981739D01*
X-62184475Y-4235920D01*
X-66286094Y-4235920D01*
X-66273000Y-4170095D01*
X-66273000Y-3829905D01*
X-66339368Y-3496253D01*
X-66469553Y-3181959D01*
X-66658552Y-2899102D01*
X-66899102Y-2658552D01*
X-67181959Y-2469553D01*
X-67496253Y-2339368D01*
X-67829905Y-2273000D01*
X-68170095Y-2273000D01*
X-68503747Y-2339368D01*
X-68818041Y-2469553D01*
X-69100898Y-2658552D01*
X-69341448Y-2899102D01*
X-69530447Y-3181959D01*
X-69660632Y-3496253D01*
X-69727000Y-3829905D01*
X-70579395Y-3829905D01*
X-70546631Y-3495758D01*
X-70400188Y-3010714D01*
X-70162326Y-2563358D01*
X-69842096Y-2170718D01*
X-69451706Y-1847759D01*
X-69006020Y-1606778D01*
X-68522013Y-1456952D01*
X-67999180Y-1402000D01*
X-18527000Y-1402000D01*
X-18527000Y-18173000D01*
G37*
%TD.AperFunction*%
%TD*%
D19*
%TO.N,GNDA*%
X-3495758Y-1453369D02*
X-3010714Y-1599812D01*
X-2563358Y-1837674D01*
X-2170718Y-2157904D01*
X-1847759Y-2548294D01*
X-1606778Y-2993980D01*
X-1456952Y-3477987D01*
X-1402000Y-4000820D01*
X-1402000Y-4000827D01*
X-1401999Y-31273000D01*
X-17490759Y-31273000D01*
X-17486227Y-31269356D01*
X-17485377Y-31268343D01*
X-17484353Y-31267508D01*
X-17461757Y-31240194D01*
X-17438932Y-31212993D01*
X-17438294Y-31211833D01*
X-17437453Y-31210816D01*
X-17420607Y-31179660D01*
X-17403486Y-31148516D01*
X-17403086Y-31147254D01*
X-17402458Y-31146093D01*
X-17391985Y-31112262D01*
X-17381238Y-31078383D01*
X-17381090Y-31077067D01*
X-17380700Y-31075806D01*
X-17376990Y-31040512D01*
X-17373037Y-31005264D01*
X-17373019Y-31002729D01*
X-17373009Y-31002632D01*
X-17373018Y-31002535D01*
X-17373000Y-31000000D01*
X-17373000Y-30500000D01*
X-17376462Y-30464692D01*
X-17379678Y-30429357D01*
X-17380051Y-30428090D01*
X-17380180Y-30426774D01*
X-17390445Y-30392775D01*
X-17400452Y-30358773D01*
X-17401063Y-30357604D01*
X-17401446Y-30356336D01*
X-17418126Y-30324966D01*
X-17434540Y-30293569D01*
X-17435368Y-30292540D01*
X-17435989Y-30291371D01*
X-17458428Y-30263858D01*
X-17480644Y-30236227D01*
X-17481657Y-30235377D01*
X-17482492Y-30234353D01*
X-17509806Y-30211757D01*
X-17537007Y-30188932D01*
X-17538167Y-30188294D01*
X-17539184Y-30187453D01*
X-17570340Y-30170607D01*
X-17601484Y-30153486D01*
X-17602746Y-30153086D01*
X-17603907Y-30152458D01*
X-17637738Y-30141985D01*
X-17671617Y-30131238D01*
X-17672933Y-30131090D01*
X-17674194Y-30130700D01*
X-17709488Y-30126990D01*
X-17744736Y-30123037D01*
X-17747271Y-30123019D01*
X-17747368Y-30123009D01*
X-17747465Y-30123018D01*
X-17750000Y-30123000D01*
X-18023000Y-30123000D01*
X-18023000Y-19902000D01*
X-17396845Y-19902000D01*
X-17295309Y-20003536D01*
X-17168048Y-20088569D01*
X-17026643Y-20147141D01*
X-16876528Y-20177000D01*
X-16723472Y-20177000D01*
X-16573357Y-20147141D01*
X-16431952Y-20088569D01*
X-16304691Y-20003536D01*
X-16196464Y-19895309D01*
X-16111431Y-19768048D01*
X-16052859Y-19626643D01*
X-16023000Y-19476528D01*
X-16023000Y-19323472D01*
X-16052134Y-19177000D01*
X-15499643Y-19177000D01*
X-15475000Y-19179427D01*
X-15450357Y-19177000D01*
X-15450347Y-19177000D01*
X-15376591Y-19169736D01*
X-15281964Y-19141031D01*
X-15194755Y-19094417D01*
X-15118316Y-19031684D01*
X-15102599Y-19012533D01*
X-14867066Y-18777000D01*
X-14723472Y-18777000D01*
X-14573357Y-18747141D01*
X-14431952Y-18688569D01*
X-14304691Y-18603536D01*
X-14196464Y-18495309D01*
X-14111431Y-18368048D01*
X-14052859Y-18226643D01*
X-14023000Y-18076528D01*
X-14023000Y-17923472D01*
X-14052859Y-17773357D01*
X-14111431Y-17631952D01*
X-14196464Y-17504691D01*
X-14304691Y-17396464D01*
X-14431952Y-17311431D01*
X-14573357Y-17252859D01*
X-14723472Y-17223000D01*
X-14876528Y-17223000D01*
X-15026643Y-17252859D01*
X-15168048Y-17311431D01*
X-15295309Y-17396464D01*
X-15403536Y-17504691D01*
X-15488569Y-17631952D01*
X-15547141Y-17773357D01*
X-15577000Y-17923472D01*
X-15577000Y-18067066D01*
X-15682934Y-18173000D01*
X-18023000Y-18173000D01*
X-18023000Y-6364080D01*
X-17184475Y-6364080D01*
X-17100792Y-6618261D01*
X-16828225Y-6749158D01*
X-16535358Y-6824365D01*
X-16233447Y-6840991D01*
X-15934093Y-6798397D01*
X-15648801Y-6698222D01*
X-15499208Y-6618261D01*
X-15415525Y-6364080D01*
X-16300000Y-5479605D01*
X-17184475Y-6364080D01*
X-18023000Y-6364080D01*
X-18023000Y-5366553D01*
X-17840991Y-5366553D01*
X-17798397Y-5665907D01*
X-17698222Y-5951199D01*
X-17618261Y-6100792D01*
X-17364080Y-6184475D01*
X-16479605Y-5300000D01*
X-16120395Y-5300000D01*
X-15235920Y-6184475D01*
X-14981739Y-6100792D01*
X-14850842Y-5828225D01*
X-14775635Y-5535358D01*
X-14759009Y-5233447D01*
X-14767435Y-5174226D01*
X-12577000Y-5174226D01*
X-12577000Y-5425774D01*
X-12527926Y-5672487D01*
X-12431663Y-5904886D01*
X-12291911Y-6114040D01*
X-12114040Y-6291911D01*
X-11904886Y-6431663D01*
X-11672487Y-6527926D01*
X-11425774Y-6577000D01*
X-11174226Y-6577000D01*
X-10927513Y-6527926D01*
X-10695114Y-6431663D01*
X-10485960Y-6291911D01*
X-10308089Y-6114040D01*
X-10168337Y-5904886D01*
X-10072074Y-5672487D01*
X-10023000Y-5425774D01*
X-10023000Y-5174226D01*
X-10072074Y-4927513D01*
X-10168337Y-4695114D01*
X-10308089Y-4485960D01*
X-10485960Y-4308089D01*
X-10695114Y-4168337D01*
X-10927513Y-4072074D01*
X-11174226Y-4023000D01*
X-11425774Y-4023000D01*
X-11672487Y-4072074D01*
X-11904886Y-4168337D01*
X-12114040Y-4308089D01*
X-12291911Y-4485960D01*
X-12431663Y-4695114D01*
X-12527926Y-4927513D01*
X-12577000Y-5174226D01*
X-14767435Y-5174226D01*
X-14801603Y-4934093D01*
X-14901778Y-4648801D01*
X-14981739Y-4499208D01*
X-15235920Y-4415525D01*
X-16120395Y-5300000D01*
X-16479605Y-5300000D01*
X-17364080Y-4415525D01*
X-17618261Y-4499208D01*
X-17749158Y-4771775D01*
X-17824365Y-5064642D01*
X-17840991Y-5366553D01*
X-18023000Y-5366553D01*
X-18023000Y-4235920D01*
X-17184475Y-4235920D01*
X-16300000Y-5120395D01*
X-15415525Y-4235920D01*
X-15499208Y-3981739D01*
X-15771775Y-3850842D01*
X-15853306Y-3829905D01*
X-5727000Y-3829905D01*
X-5727000Y-4170095D01*
X-5660632Y-4503747D01*
X-5530447Y-4818041D01*
X-5341448Y-5100898D01*
X-5100898Y-5341448D01*
X-4818041Y-5530447D01*
X-4503747Y-5660632D01*
X-4170095Y-5727000D01*
X-3829905Y-5727000D01*
X-3496253Y-5660632D01*
X-3181959Y-5530447D01*
X-2899102Y-5341448D01*
X-2658552Y-5100898D01*
X-2469553Y-4818041D01*
X-2339368Y-4503747D01*
X-2273000Y-4170095D01*
X-2273000Y-3829905D01*
X-2339368Y-3496253D01*
X-2469553Y-3181959D01*
X-2658552Y-2899102D01*
X-2899102Y-2658552D01*
X-3181959Y-2469553D01*
X-3496253Y-2339368D01*
X-3829905Y-2273000D01*
X-4170095Y-2273000D01*
X-4503747Y-2339368D01*
X-4818041Y-2469553D01*
X-5100898Y-2658552D01*
X-5341448Y-2899102D01*
X-5530447Y-3181959D01*
X-5660632Y-3496253D01*
X-5727000Y-3829905D01*
X-15853306Y-3829905D01*
X-16064642Y-3775635D01*
X-16366553Y-3759009D01*
X-16665907Y-3801603D01*
X-16951199Y-3901778D01*
X-17100792Y-3981739D01*
X-17184475Y-4235920D01*
X-18023000Y-4235920D01*
X-18023000Y-1402000D01*
X-4019658Y-1402000D01*
X-3495758Y-1453369D01*
%TA.AperFunction,Conductor*%
D20*
G36*
X-3495758Y-1453369D02*
G01*
X-3010714Y-1599812D01*
X-2563358Y-1837674D01*
X-2170718Y-2157904D01*
X-1847759Y-2548294D01*
X-1606778Y-2993980D01*
X-1456952Y-3477987D01*
X-1402000Y-4000820D01*
X-1402000Y-4000827D01*
X-1401999Y-31273000D01*
X-17490759Y-31273000D01*
X-17486227Y-31269356D01*
X-17485377Y-31268343D01*
X-17484353Y-31267508D01*
X-17461757Y-31240194D01*
X-17438932Y-31212993D01*
X-17438294Y-31211833D01*
X-17437453Y-31210816D01*
X-17420607Y-31179660D01*
X-17403486Y-31148516D01*
X-17403086Y-31147254D01*
X-17402458Y-31146093D01*
X-17391985Y-31112262D01*
X-17381238Y-31078383D01*
X-17381090Y-31077067D01*
X-17380700Y-31075806D01*
X-17376990Y-31040512D01*
X-17373037Y-31005264D01*
X-17373019Y-31002729D01*
X-17373009Y-31002632D01*
X-17373018Y-31002535D01*
X-17373000Y-31000000D01*
X-17373000Y-30500000D01*
X-17376462Y-30464692D01*
X-17379678Y-30429357D01*
X-17380051Y-30428090D01*
X-17380180Y-30426774D01*
X-17390445Y-30392775D01*
X-17400452Y-30358773D01*
X-17401063Y-30357604D01*
X-17401446Y-30356336D01*
X-17418126Y-30324966D01*
X-17434540Y-30293569D01*
X-17435368Y-30292540D01*
X-17435989Y-30291371D01*
X-17458428Y-30263858D01*
X-17480644Y-30236227D01*
X-17481657Y-30235377D01*
X-17482492Y-30234353D01*
X-17509806Y-30211757D01*
X-17537007Y-30188932D01*
X-17538167Y-30188294D01*
X-17539184Y-30187453D01*
X-17570340Y-30170607D01*
X-17601484Y-30153486D01*
X-17602746Y-30153086D01*
X-17603907Y-30152458D01*
X-17637738Y-30141985D01*
X-17671617Y-30131238D01*
X-17672933Y-30131090D01*
X-17674194Y-30130700D01*
X-17709488Y-30126990D01*
X-17744736Y-30123037D01*
X-17747271Y-30123019D01*
X-17747368Y-30123009D01*
X-17747465Y-30123018D01*
X-17750000Y-30123000D01*
X-18023000Y-30123000D01*
X-18023000Y-19902000D01*
X-17396845Y-19902000D01*
X-17295309Y-20003536D01*
X-17168048Y-20088569D01*
X-17026643Y-20147141D01*
X-16876528Y-20177000D01*
X-16723472Y-20177000D01*
X-16573357Y-20147141D01*
X-16431952Y-20088569D01*
X-16304691Y-20003536D01*
X-16196464Y-19895309D01*
X-16111431Y-19768048D01*
X-16052859Y-19626643D01*
X-16023000Y-19476528D01*
X-16023000Y-19323472D01*
X-16052134Y-19177000D01*
X-15499643Y-19177000D01*
X-15475000Y-19179427D01*
X-15450357Y-19177000D01*
X-15450347Y-19177000D01*
X-15376591Y-19169736D01*
X-15281964Y-19141031D01*
X-15194755Y-19094417D01*
X-15118316Y-19031684D01*
X-15102599Y-19012533D01*
X-14867066Y-18777000D01*
X-14723472Y-18777000D01*
X-14573357Y-18747141D01*
X-14431952Y-18688569D01*
X-14304691Y-18603536D01*
X-14196464Y-18495309D01*
X-14111431Y-18368048D01*
X-14052859Y-18226643D01*
X-14023000Y-18076528D01*
X-14023000Y-17923472D01*
X-14052859Y-17773357D01*
X-14111431Y-17631952D01*
X-14196464Y-17504691D01*
X-14304691Y-17396464D01*
X-14431952Y-17311431D01*
X-14573357Y-17252859D01*
X-14723472Y-17223000D01*
X-14876528Y-17223000D01*
X-15026643Y-17252859D01*
X-15168048Y-17311431D01*
X-15295309Y-17396464D01*
X-15403536Y-17504691D01*
X-15488569Y-17631952D01*
X-15547141Y-17773357D01*
X-15577000Y-17923472D01*
X-15577000Y-18067066D01*
X-15682934Y-18173000D01*
X-18023000Y-18173000D01*
X-18023000Y-6364080D01*
X-17184475Y-6364080D01*
X-17100792Y-6618261D01*
X-16828225Y-6749158D01*
X-16535358Y-6824365D01*
X-16233447Y-6840991D01*
X-15934093Y-6798397D01*
X-15648801Y-6698222D01*
X-15499208Y-6618261D01*
X-15415525Y-6364080D01*
X-16300000Y-5479605D01*
X-17184475Y-6364080D01*
X-18023000Y-6364080D01*
X-18023000Y-5366553D01*
X-17840991Y-5366553D01*
X-17798397Y-5665907D01*
X-17698222Y-5951199D01*
X-17618261Y-6100792D01*
X-17364080Y-6184475D01*
X-16479605Y-5300000D01*
X-16120395Y-5300000D01*
X-15235920Y-6184475D01*
X-14981739Y-6100792D01*
X-14850842Y-5828225D01*
X-14775635Y-5535358D01*
X-14759009Y-5233447D01*
X-14767435Y-5174226D01*
X-12577000Y-5174226D01*
X-12577000Y-5425774D01*
X-12527926Y-5672487D01*
X-12431663Y-5904886D01*
X-12291911Y-6114040D01*
X-12114040Y-6291911D01*
X-11904886Y-6431663D01*
X-11672487Y-6527926D01*
X-11425774Y-6577000D01*
X-11174226Y-6577000D01*
X-10927513Y-6527926D01*
X-10695114Y-6431663D01*
X-10485960Y-6291911D01*
X-10308089Y-6114040D01*
X-10168337Y-5904886D01*
X-10072074Y-5672487D01*
X-10023000Y-5425774D01*
X-10023000Y-5174226D01*
X-10072074Y-4927513D01*
X-10168337Y-4695114D01*
X-10308089Y-4485960D01*
X-10485960Y-4308089D01*
X-10695114Y-4168337D01*
X-10927513Y-4072074D01*
X-11174226Y-4023000D01*
X-11425774Y-4023000D01*
X-11672487Y-4072074D01*
X-11904886Y-4168337D01*
X-12114040Y-4308089D01*
X-12291911Y-4485960D01*
X-12431663Y-4695114D01*
X-12527926Y-4927513D01*
X-12577000Y-5174226D01*
X-14767435Y-5174226D01*
X-14801603Y-4934093D01*
X-14901778Y-4648801D01*
X-14981739Y-4499208D01*
X-15235920Y-4415525D01*
X-16120395Y-5300000D01*
X-16479605Y-5300000D01*
X-17364080Y-4415525D01*
X-17618261Y-4499208D01*
X-17749158Y-4771775D01*
X-17824365Y-5064642D01*
X-17840991Y-5366553D01*
X-18023000Y-5366553D01*
X-18023000Y-4235920D01*
X-17184475Y-4235920D01*
X-16300000Y-5120395D01*
X-15415525Y-4235920D01*
X-15499208Y-3981739D01*
X-15771775Y-3850842D01*
X-15853306Y-3829905D01*
X-5727000Y-3829905D01*
X-5727000Y-4170095D01*
X-5660632Y-4503747D01*
X-5530447Y-4818041D01*
X-5341448Y-5100898D01*
X-5100898Y-5341448D01*
X-4818041Y-5530447D01*
X-4503747Y-5660632D01*
X-4170095Y-5727000D01*
X-3829905Y-5727000D01*
X-3496253Y-5660632D01*
X-3181959Y-5530447D01*
X-2899102Y-5341448D01*
X-2658552Y-5100898D01*
X-2469553Y-4818041D01*
X-2339368Y-4503747D01*
X-2273000Y-4170095D01*
X-2273000Y-3829905D01*
X-2339368Y-3496253D01*
X-2469553Y-3181959D01*
X-2658552Y-2899102D01*
X-2899102Y-2658552D01*
X-3181959Y-2469553D01*
X-3496253Y-2339368D01*
X-3829905Y-2273000D01*
X-4170095Y-2273000D01*
X-4503747Y-2339368D01*
X-4818041Y-2469553D01*
X-5100898Y-2658552D01*
X-5341448Y-2899102D01*
X-5530447Y-3181959D01*
X-5660632Y-3496253D01*
X-5727000Y-3829905D01*
X-15853306Y-3829905D01*
X-16064642Y-3775635D01*
X-16366553Y-3759009D01*
X-16665907Y-3801603D01*
X-16951199Y-3901778D01*
X-17100792Y-3981739D01*
X-17184475Y-4235920D01*
X-18023000Y-4235920D01*
X-18023000Y-1402000D01*
X-4019658Y-1402000D01*
X-3495758Y-1453369D01*
G37*
%TD.AperFunction*%
%TD*%
M02*
