%TF.GenerationSoftware,KiCad,Pcbnew,5.1.9*%
%TF.CreationDate,2021-01-24T08:51:39-05:00*%
%TF.ProjectId,CANalog_nucleo,43414e61-6c6f-4675-9f6e-75636c656f2e,rev?*%
%TF.SameCoordinates,PX700e860PY1298be0*%
%TF.FileFunction,Copper,L1,Top*%
%TF.FilePolarity,Positive*%
%FSLAX46Y46*%
G04 Gerber Fmt 4.6, Leading zero omitted, Abs format (unit mm)*
G04 Created by KiCad (PCBNEW 5.1.9) date 2021-01-24 08:51:39*
%MOMM*%
%LPD*%
G01*
G04 APERTURE LIST*
%TA.AperFunction,ComponentPad*%
%ADD10O,1.727200X1.727200*%
%TD*%
%TA.AperFunction,ComponentPad*%
%ADD11R,1.727200X1.727200*%
%TD*%
%TA.AperFunction,SMDPad,CuDef*%
%ADD12R,1.150000X1.450000*%
%TD*%
%TA.AperFunction,ComponentPad*%
%ADD13O,1.050000X1.900000*%
%TD*%
%TA.AperFunction,SMDPad,CuDef*%
%ADD14R,1.750000X1.900000*%
%TD*%
%TA.AperFunction,SMDPad,CuDef*%
%ADD15R,0.400000X1.400000*%
%TD*%
%TA.AperFunction,ComponentPad*%
%ADD16C,1.700000*%
%TD*%
%TA.AperFunction,ComponentPad*%
%ADD17R,1.700000X1.700000*%
%TD*%
%TA.AperFunction,ComponentPad*%
%ADD18O,1.700000X1.700000*%
%TD*%
%TA.AperFunction,ComponentPad*%
%ADD19C,4.000000*%
%TD*%
%TA.AperFunction,ComponentPad*%
%ADD20C,1.600000*%
%TD*%
%TA.AperFunction,ComponentPad*%
%ADD21R,1.600000X1.600000*%
%TD*%
%TA.AperFunction,ComponentPad*%
%ADD22C,1.800000*%
%TD*%
%TA.AperFunction,ComponentPad*%
%ADD23R,3.000000X3.000000*%
%TD*%
%TA.AperFunction,ComponentPad*%
%ADD24C,3.000000*%
%TD*%
%TA.AperFunction,ViaPad*%
%ADD25C,0.800000*%
%TD*%
%TA.AperFunction,Conductor*%
%ADD26C,0.250000*%
%TD*%
%TA.AperFunction,Conductor*%
%ADD27C,0.254000*%
%TD*%
%TA.AperFunction,Conductor*%
%ADD28C,0.100000*%
%TD*%
G04 APERTURE END LIST*
D10*
%TO.P,U2,8*%
%TO.N,Net-(R6-Pad1)*%
X-12280000Y-11819167D03*
%TO.P,U2,7*%
%TO.N,+3V3*%
X-14820000Y-11819167D03*
%TO.P,U2,6*%
%TO.N,Net-(U2-Pad6)*%
X-12280000Y-9279167D03*
%TO.P,U2,5*%
%TO.N,Net-(U2-Pad5)*%
X-14820000Y-9279167D03*
%TO.P,U2,4*%
%TO.N,Net-(U2-Pad4)*%
X-12280000Y-6739167D03*
%TO.P,U2,3*%
%TO.N,Net-(R2-Pad1)*%
X-14820000Y-6739167D03*
%TO.P,U2,2*%
%TO.N,GND*%
X-12280000Y-4199167D03*
D11*
%TO.P,U2,1*%
%TO.N,Net-(R1-Pad2)*%
X-14820000Y-4199167D03*
%TD*%
D12*
%TO.P,J1,6*%
%TO.N,N/C*%
X-30180000Y-5180000D03*
X-34820000Y-5180000D03*
D13*
X-36075000Y-2950000D03*
X-28925000Y-2950000D03*
D14*
X-31375000Y-2950000D03*
D15*
%TO.P,J1,3*%
%TO.N,USB_DP*%
X-32500000Y-5600000D03*
%TO.P,J1,4*%
%TO.N,Net-(J1-Pad4)*%
X-33150000Y-5600000D03*
%TO.P,J1,5*%
%TO.N,GND*%
X-33800000Y-5600000D03*
%TO.P,J1,1*%
%TO.N,+5V*%
X-31200000Y-5600000D03*
%TO.P,J1,2*%
%TO.N,USB_DM*%
X-31850000Y-5600000D03*
D14*
%TO.P,J1,6*%
%TO.N,N/C*%
X-33625000Y-2950000D03*
%TD*%
D16*
%TO.P,U1,80*%
%TO.N,GND*%
X-3200000Y-5900000D03*
%TO.P,U1,79*%
X-3200000Y-3360000D03*
%TO.P,U1,78*%
X-66700000Y-5900000D03*
%TO.P,U1,77*%
X-66700000Y-3360000D03*
%TO.P,U1,76*%
%TO.N,Net-(U1-Pad76)*%
X-3200000Y-77020000D03*
%TO.P,U1,75*%
%TO.N,Net-(U1-Pad75)*%
X-5740000Y-77020000D03*
%TO.P,U1,74*%
%TO.N,Net-(U1-Pad74)*%
X-3200000Y-74480000D03*
%TO.P,U1,73*%
%TO.N,Net-(U1-Pad73)*%
X-5740000Y-74480000D03*
%TO.P,U1,72*%
%TO.N,USART1_TX*%
X-3200000Y-71940000D03*
%TO.P,U1,71*%
%TO.N,Net-(U1-Pad71)*%
X-5740000Y-71940000D03*
%TO.P,U1,70*%
%TO.N,Net-(U1-Pad70)*%
X-3200000Y-69400000D03*
%TO.P,U1,69*%
%TO.N,Net-(U1-Pad69)*%
X-5740000Y-69400000D03*
%TO.P,U1,68*%
%TO.N,Net-(U1-Pad68)*%
X-3200000Y-66860000D03*
%TO.P,U1,67*%
%TO.N,Net-(U1-Pad67)*%
X-5740000Y-66860000D03*
%TO.P,U1,66*%
%TO.N,Net-(U1-Pad66)*%
X-3200000Y-64320000D03*
%TO.P,U1,65*%
%TO.N,Net-(U1-Pad65)*%
X-5740000Y-64320000D03*
%TO.P,U1,64*%
%TO.N,Net-(U1-Pad64)*%
X-3200000Y-61780000D03*
%TO.P,U1,63*%
%TO.N,Net-(U1-Pad63)*%
X-5740000Y-61780000D03*
%TO.P,U1,62*%
%TO.N,Net-(U1-Pad62)*%
X-3200000Y-59240000D03*
%TO.P,U1,61*%
%TO.N,Net-(U1-Pad61)*%
X-5740000Y-59240000D03*
%TO.P,U1,60*%
%TO.N,Net-(U1-Pad60)*%
X-3200000Y-56700000D03*
%TO.P,U1,59*%
%TO.N,Net-(U1-Pad59)*%
X-5740000Y-56700000D03*
%TO.P,U1,58*%
%TO.N,GND*%
X-3200000Y-54160000D03*
%TO.P,U1,57*%
%TO.N,Net-(U1-Pad57)*%
X-5740000Y-54160000D03*
%TO.P,U1,56*%
%TO.N,Net-(U1-Pad56)*%
X-3200000Y-51620000D03*
%TO.P,U1,55*%
%TO.N,Net-(U1-Pad55)*%
X-5740000Y-51620000D03*
%TO.P,U1,54*%
%TO.N,Net-(U1-Pad54)*%
X-3200000Y-49080000D03*
%TO.P,U1,53*%
%TO.N,Net-(U1-Pad53)*%
X-5740000Y-49080000D03*
%TO.P,U1,52*%
%TO.N,USB_DM*%
X-3200000Y-46540000D03*
%TO.P,U1,51*%
%TO.N,Net-(U1-Pad51)*%
X-5740000Y-46540000D03*
%TO.P,U1,50*%
%TO.N,USB_DP*%
X-3200000Y-44000000D03*
%TO.P,U1,49*%
%TO.N,Net-(U1-Pad49)*%
X-5740000Y-44000000D03*
%TO.P,U1,48*%
%TO.N,Net-(U1-Pad48)*%
X-3200000Y-41460000D03*
%TO.P,U1,47*%
%TO.N,GND*%
X-5740000Y-41460000D03*
%TO.P,U1,46*%
%TO.N,Net-(U1-Pad46)*%
X-3200000Y-38920000D03*
%TO.P,U1,45*%
%TO.N,Net-(U1-Pad45)*%
X-5740000Y-38920000D03*
%TO.P,U1,44*%
%TO.N,USART1_RX*%
X-3200000Y-36380000D03*
%TO.P,U1,43*%
%TO.N,CAN_TX*%
X-5740000Y-36380000D03*
%TO.P,U1,42*%
%TO.N,CAN_RS*%
X-3200000Y-33840000D03*
%TO.P,U1,41*%
%TO.N,CAN_RX*%
X-5740000Y-33840000D03*
%TO.P,U1,40*%
%TO.N,Net-(U1-Pad40)*%
X-3200000Y-31300000D03*
%TO.P,U1,39*%
%TO.N,Net-(U1-Pad39)*%
X-5740000Y-31300000D03*
%TO.P,U1,38*%
%TO.N,/ENC_B*%
X-64160000Y-77020000D03*
%TO.P,U1,37*%
%TO.N,Net-(U1-Pad37)*%
X-66700000Y-77020000D03*
%TO.P,U1,36*%
%TO.N,/ENC_A*%
X-64160000Y-74480000D03*
%TO.P,U1,35*%
%TO.N,/ENC_SW*%
X-66700000Y-74480000D03*
%TO.P,U1,34*%
%TO.N,Net-(U1-Pad34)*%
X-64160000Y-71940000D03*
%TO.P,U1,33*%
%TO.N,Net-(BT1-Pad1)*%
X-66700000Y-71940000D03*
%TO.P,U1,32*%
%TO.N,/DAC_OUT1*%
X-64160000Y-69400000D03*
%TO.P,U1,31*%
%TO.N,Net-(U1-Pad31)*%
X-66700000Y-69400000D03*
%TO.P,U1,30*%
%TO.N,Net-(U1-Pad30)*%
X-64160000Y-66860000D03*
%TO.P,U1,29*%
%TO.N,Net-(U1-Pad29)*%
X-66700000Y-66860000D03*
%TO.P,U1,28*%
%TO.N,/ADC_IN1*%
X-64160000Y-64320000D03*
%TO.P,U1,27*%
%TO.N,Net-(U1-Pad27)*%
X-66700000Y-64320000D03*
%TO.P,U1,26*%
%TO.N,Net-(U1-Pad26)*%
X-64160000Y-61780000D03*
%TO.P,U1,25*%
%TO.N,Net-(U1-Pad25)*%
X-66700000Y-61780000D03*
%TO.P,U1,24*%
%TO.N,Net-(U1-Pad24)*%
X-64160000Y-59240000D03*
%TO.P,U1,23*%
%TO.N,Net-(U1-Pad23)*%
X-66700000Y-59240000D03*
%TO.P,U1,22*%
%TO.N,GND*%
X-64160000Y-56700000D03*
%TO.P,U1,21*%
%TO.N,/I2C_SDA*%
X-66700000Y-56700000D03*
%TO.P,U1,20*%
%TO.N,GND*%
X-64160000Y-54160000D03*
%TO.P,U1,19*%
X-66700000Y-54160000D03*
%TO.P,U1,18*%
%TO.N,Net-(U1-Pad18)*%
X-64160000Y-51620000D03*
%TO.P,U1,17*%
%TO.N,/I2C_SCL*%
X-66700000Y-51620000D03*
%TO.P,U1,16*%
%TO.N,+3V3*%
X-64160000Y-49080000D03*
%TO.P,U1,15*%
%TO.N,Net-(U1-Pad15)*%
X-66700000Y-49080000D03*
%TO.P,U1,14*%
%TO.N,Net-(U1-Pad14)*%
X-64160000Y-46540000D03*
%TO.P,U1,13*%
%TO.N,Net-(U1-Pad13)*%
X-66700000Y-46540000D03*
%TO.P,U1,12*%
%TO.N,Net-(U1-Pad12)*%
X-64160000Y-44000000D03*
%TO.P,U1,11*%
%TO.N,Net-(U1-Pad11)*%
X-66700000Y-44000000D03*
%TO.P,U1,10*%
%TO.N,Net-(U1-Pad10)*%
X-64160000Y-41460000D03*
%TO.P,U1,9*%
%TO.N,Net-(U1-Pad9)*%
X-66700000Y-41460000D03*
%TO.P,U1,8*%
%TO.N,GND*%
X-64160000Y-38920000D03*
%TO.P,U1,7*%
%TO.N,Net-(U1-Pad7)*%
X-66700000Y-38920000D03*
%TO.P,U1,6*%
%TO.N,+5V*%
X-64160000Y-36380000D03*
%TO.P,U1,5*%
%TO.N,Net-(U1-Pad5)*%
X-66700000Y-36380000D03*
%TO.P,U1,4*%
%TO.N,Net-(U1-Pad4)*%
X-64160000Y-33840000D03*
%TO.P,U1,3*%
%TO.N,Net-(U1-Pad3)*%
X-66700000Y-33840000D03*
%TO.P,U1,2*%
%TO.N,Net-(U1-Pad2)*%
X-64160000Y-31300000D03*
D17*
%TO.P,U1,1*%
%TO.N,Net-(U1-Pad1)*%
X-66700000Y-31300000D03*
%TD*%
%TO.P,U4,8*%
%TO.N,Net-(R12-Pad1)*%
%TA.AperFunction,SMDPad,CuDef*%
G36*
G01*
X-18445000Y-57650000D02*
X-18145000Y-57650000D01*
G75*
G02*
X-17995000Y-57800000I0J-150000D01*
G01*
X-17995000Y-59450000D01*
G75*
G02*
X-18145000Y-59600000I-150000J0D01*
G01*
X-18445000Y-59600000D01*
G75*
G02*
X-18595000Y-59450000I0J150000D01*
G01*
X-18595000Y-57800000D01*
G75*
G02*
X-18445000Y-57650000I150000J0D01*
G01*
G37*
%TD.AperFunction*%
%TO.P,U4,7*%
%TO.N,/CANH*%
%TA.AperFunction,SMDPad,CuDef*%
G36*
G01*
X-19715000Y-57650000D02*
X-19415000Y-57650000D01*
G75*
G02*
X-19265000Y-57800000I0J-150000D01*
G01*
X-19265000Y-59450000D01*
G75*
G02*
X-19415000Y-59600000I-150000J0D01*
G01*
X-19715000Y-59600000D01*
G75*
G02*
X-19865000Y-59450000I0J150000D01*
G01*
X-19865000Y-57800000D01*
G75*
G02*
X-19715000Y-57650000I150000J0D01*
G01*
G37*
%TD.AperFunction*%
%TO.P,U4,6*%
%TO.N,/CANL*%
%TA.AperFunction,SMDPad,CuDef*%
G36*
G01*
X-20985000Y-57650000D02*
X-20685000Y-57650000D01*
G75*
G02*
X-20535000Y-57800000I0J-150000D01*
G01*
X-20535000Y-59450000D01*
G75*
G02*
X-20685000Y-59600000I-150000J0D01*
G01*
X-20985000Y-59600000D01*
G75*
G02*
X-21135000Y-59450000I0J150000D01*
G01*
X-21135000Y-57800000D01*
G75*
G02*
X-20985000Y-57650000I150000J0D01*
G01*
G37*
%TD.AperFunction*%
%TO.P,U4,5*%
%TO.N,Net-(U4-Pad5)*%
%TA.AperFunction,SMDPad,CuDef*%
G36*
G01*
X-22255000Y-57650000D02*
X-21955000Y-57650000D01*
G75*
G02*
X-21805000Y-57800000I0J-150000D01*
G01*
X-21805000Y-59450000D01*
G75*
G02*
X-21955000Y-59600000I-150000J0D01*
G01*
X-22255000Y-59600000D01*
G75*
G02*
X-22405000Y-59450000I0J150000D01*
G01*
X-22405000Y-57800000D01*
G75*
G02*
X-22255000Y-57650000I150000J0D01*
G01*
G37*
%TD.AperFunction*%
%TO.P,U4,4*%
%TO.N,CAN_RX*%
%TA.AperFunction,SMDPad,CuDef*%
G36*
G01*
X-22255000Y-52700000D02*
X-21955000Y-52700000D01*
G75*
G02*
X-21805000Y-52850000I0J-150000D01*
G01*
X-21805000Y-54500000D01*
G75*
G02*
X-21955000Y-54650000I-150000J0D01*
G01*
X-22255000Y-54650000D01*
G75*
G02*
X-22405000Y-54500000I0J150000D01*
G01*
X-22405000Y-52850000D01*
G75*
G02*
X-22255000Y-52700000I150000J0D01*
G01*
G37*
%TD.AperFunction*%
%TO.P,U4,3*%
%TO.N,+3V3*%
%TA.AperFunction,SMDPad,CuDef*%
G36*
G01*
X-20985000Y-52700000D02*
X-20685000Y-52700000D01*
G75*
G02*
X-20535000Y-52850000I0J-150000D01*
G01*
X-20535000Y-54500000D01*
G75*
G02*
X-20685000Y-54650000I-150000J0D01*
G01*
X-20985000Y-54650000D01*
G75*
G02*
X-21135000Y-54500000I0J150000D01*
G01*
X-21135000Y-52850000D01*
G75*
G02*
X-20985000Y-52700000I150000J0D01*
G01*
G37*
%TD.AperFunction*%
%TO.P,U4,2*%
%TO.N,GND*%
%TA.AperFunction,SMDPad,CuDef*%
G36*
G01*
X-19715000Y-52700000D02*
X-19415000Y-52700000D01*
G75*
G02*
X-19265000Y-52850000I0J-150000D01*
G01*
X-19265000Y-54500000D01*
G75*
G02*
X-19415000Y-54650000I-150000J0D01*
G01*
X-19715000Y-54650000D01*
G75*
G02*
X-19865000Y-54500000I0J150000D01*
G01*
X-19865000Y-52850000D01*
G75*
G02*
X-19715000Y-52700000I150000J0D01*
G01*
G37*
%TD.AperFunction*%
%TO.P,U4,1*%
%TO.N,CAN_TX*%
%TA.AperFunction,SMDPad,CuDef*%
G36*
G01*
X-18445000Y-52700000D02*
X-18145000Y-52700000D01*
G75*
G02*
X-17995000Y-52850000I0J-150000D01*
G01*
X-17995000Y-54500000D01*
G75*
G02*
X-18145000Y-54650000I-150000J0D01*
G01*
X-18445000Y-54650000D01*
G75*
G02*
X-18595000Y-54500000I0J150000D01*
G01*
X-18595000Y-52850000D01*
G75*
G02*
X-18445000Y-52700000I150000J0D01*
G01*
G37*
%TD.AperFunction*%
%TD*%
%TO.P,U3,8*%
%TO.N,+5V*%
%TA.AperFunction,SMDPad,CuDef*%
G36*
G01*
X-52345000Y-22950000D02*
X-52045000Y-22950000D01*
G75*
G02*
X-51895000Y-23100000I0J-150000D01*
G01*
X-51895000Y-24750000D01*
G75*
G02*
X-52045000Y-24900000I-150000J0D01*
G01*
X-52345000Y-24900000D01*
G75*
G02*
X-52495000Y-24750000I0J150000D01*
G01*
X-52495000Y-23100000D01*
G75*
G02*
X-52345000Y-22950000I150000J0D01*
G01*
G37*
%TD.AperFunction*%
%TO.P,U3,7*%
%TO.N,Net-(U3-Pad6)*%
%TA.AperFunction,SMDPad,CuDef*%
G36*
G01*
X-53615000Y-22950000D02*
X-53315000Y-22950000D01*
G75*
G02*
X-53165000Y-23100000I0J-150000D01*
G01*
X-53165000Y-24750000D01*
G75*
G02*
X-53315000Y-24900000I-150000J0D01*
G01*
X-53615000Y-24900000D01*
G75*
G02*
X-53765000Y-24750000I0J150000D01*
G01*
X-53765000Y-23100000D01*
G75*
G02*
X-53615000Y-22950000I150000J0D01*
G01*
G37*
%TD.AperFunction*%
%TO.P,U3,6*%
%TA.AperFunction,SMDPad,CuDef*%
G36*
G01*
X-54885000Y-22950000D02*
X-54585000Y-22950000D01*
G75*
G02*
X-54435000Y-23100000I0J-150000D01*
G01*
X-54435000Y-24750000D01*
G75*
G02*
X-54585000Y-24900000I-150000J0D01*
G01*
X-54885000Y-24900000D01*
G75*
G02*
X-55035000Y-24750000I0J150000D01*
G01*
X-55035000Y-23100000D01*
G75*
G02*
X-54885000Y-22950000I150000J0D01*
G01*
G37*
%TD.AperFunction*%
%TO.P,U3,5*%
%TO.N,Net-(R10-Pad2)*%
%TA.AperFunction,SMDPad,CuDef*%
G36*
G01*
X-56155000Y-22950000D02*
X-55855000Y-22950000D01*
G75*
G02*
X-55705000Y-23100000I0J-150000D01*
G01*
X-55705000Y-24750000D01*
G75*
G02*
X-55855000Y-24900000I-150000J0D01*
G01*
X-56155000Y-24900000D01*
G75*
G02*
X-56305000Y-24750000I0J150000D01*
G01*
X-56305000Y-23100000D01*
G75*
G02*
X-56155000Y-22950000I150000J0D01*
G01*
G37*
%TD.AperFunction*%
%TO.P,U3,4*%
%TO.N,GND*%
%TA.AperFunction,SMDPad,CuDef*%
G36*
G01*
X-56155000Y-18000000D02*
X-55855000Y-18000000D01*
G75*
G02*
X-55705000Y-18150000I0J-150000D01*
G01*
X-55705000Y-19800000D01*
G75*
G02*
X-55855000Y-19950000I-150000J0D01*
G01*
X-56155000Y-19950000D01*
G75*
G02*
X-56305000Y-19800000I0J150000D01*
G01*
X-56305000Y-18150000D01*
G75*
G02*
X-56155000Y-18000000I150000J0D01*
G01*
G37*
%TD.AperFunction*%
%TO.P,U3,3*%
%TO.N,/DAC_OUT1*%
%TA.AperFunction,SMDPad,CuDef*%
G36*
G01*
X-54885000Y-18000000D02*
X-54585000Y-18000000D01*
G75*
G02*
X-54435000Y-18150000I0J-150000D01*
G01*
X-54435000Y-19800000D01*
G75*
G02*
X-54585000Y-19950000I-150000J0D01*
G01*
X-54885000Y-19950000D01*
G75*
G02*
X-55035000Y-19800000I0J150000D01*
G01*
X-55035000Y-18150000D01*
G75*
G02*
X-54885000Y-18000000I150000J0D01*
G01*
G37*
%TD.AperFunction*%
%TO.P,U3,2*%
%TO.N,Net-(R7-Pad2)*%
%TA.AperFunction,SMDPad,CuDef*%
G36*
G01*
X-53615000Y-18000000D02*
X-53315000Y-18000000D01*
G75*
G02*
X-53165000Y-18150000I0J-150000D01*
G01*
X-53165000Y-19800000D01*
G75*
G02*
X-53315000Y-19950000I-150000J0D01*
G01*
X-53615000Y-19950000D01*
G75*
G02*
X-53765000Y-19800000I0J150000D01*
G01*
X-53765000Y-18150000D01*
G75*
G02*
X-53615000Y-18000000I150000J0D01*
G01*
G37*
%TD.AperFunction*%
%TO.P,U3,1*%
%TO.N,/AOUT*%
%TA.AperFunction,SMDPad,CuDef*%
G36*
G01*
X-52345000Y-18000000D02*
X-52045000Y-18000000D01*
G75*
G02*
X-51895000Y-18150000I0J-150000D01*
G01*
X-51895000Y-19800000D01*
G75*
G02*
X-52045000Y-19950000I-150000J0D01*
G01*
X-52345000Y-19950000D01*
G75*
G02*
X-52495000Y-19800000I0J150000D01*
G01*
X-52495000Y-18150000D01*
G75*
G02*
X-52345000Y-18000000I150000J0D01*
G01*
G37*
%TD.AperFunction*%
%TD*%
%TO.P,R13,2*%
%TO.N,/CANL*%
%TA.AperFunction,SMDPad,CuDef*%
G36*
G01*
X-21450000Y-60799999D02*
X-21450000Y-61700001D01*
G75*
G02*
X-21699999Y-61950000I-249999J0D01*
G01*
X-22400001Y-61950000D01*
G75*
G02*
X-22650000Y-61700001I0J249999D01*
G01*
X-22650000Y-60799999D01*
G75*
G02*
X-22400001Y-60550000I249999J0D01*
G01*
X-21699999Y-60550000D01*
G75*
G02*
X-21450000Y-60799999I0J-249999D01*
G01*
G37*
%TD.AperFunction*%
%TO.P,R13,1*%
%TO.N,Net-(JP1-Pad2)*%
%TA.AperFunction,SMDPad,CuDef*%
G36*
G01*
X-19450000Y-60799999D02*
X-19450000Y-61700001D01*
G75*
G02*
X-19699999Y-61950000I-249999J0D01*
G01*
X-20400001Y-61950000D01*
G75*
G02*
X-20650000Y-61700001I0J249999D01*
G01*
X-20650000Y-60799999D01*
G75*
G02*
X-20400001Y-60550000I249999J0D01*
G01*
X-19699999Y-60550000D01*
G75*
G02*
X-19450000Y-60799999I0J-249999D01*
G01*
G37*
%TD.AperFunction*%
%TD*%
%TO.P,R12,2*%
%TO.N,CAN_RS*%
%TA.AperFunction,SMDPad,CuDef*%
G36*
G01*
X-14649999Y-55900000D02*
X-15550001Y-55900000D01*
G75*
G02*
X-15800000Y-55650001I0J249999D01*
G01*
X-15800000Y-54949999D01*
G75*
G02*
X-15550001Y-54700000I249999J0D01*
G01*
X-14649999Y-54700000D01*
G75*
G02*
X-14400000Y-54949999I0J-249999D01*
G01*
X-14400000Y-55650001D01*
G75*
G02*
X-14649999Y-55900000I-249999J0D01*
G01*
G37*
%TD.AperFunction*%
%TO.P,R12,1*%
%TO.N,Net-(R12-Pad1)*%
%TA.AperFunction,SMDPad,CuDef*%
G36*
G01*
X-14649999Y-57900000D02*
X-15550001Y-57900000D01*
G75*
G02*
X-15800000Y-57650001I0J249999D01*
G01*
X-15800000Y-56949999D01*
G75*
G02*
X-15550001Y-56700000I249999J0D01*
G01*
X-14649999Y-56700000D01*
G75*
G02*
X-14400000Y-56949999I0J-249999D01*
G01*
X-14400000Y-57650001D01*
G75*
G02*
X-14649999Y-57900000I-249999J0D01*
G01*
G37*
%TD.AperFunction*%
%TD*%
%TO.P,R11,2*%
%TO.N,GND*%
%TA.AperFunction,SMDPad,CuDef*%
G36*
G01*
X-57000001Y-27900000D02*
X-56099999Y-27900000D01*
G75*
G02*
X-55850000Y-28149999I0J-249999D01*
G01*
X-55850000Y-28850001D01*
G75*
G02*
X-56099999Y-29100000I-249999J0D01*
G01*
X-57000001Y-29100000D01*
G75*
G02*
X-57250000Y-28850001I0J249999D01*
G01*
X-57250000Y-28149999D01*
G75*
G02*
X-57000001Y-27900000I249999J0D01*
G01*
G37*
%TD.AperFunction*%
%TO.P,R11,1*%
%TO.N,Net-(R10-Pad2)*%
%TA.AperFunction,SMDPad,CuDef*%
G36*
G01*
X-57000001Y-25900000D02*
X-56099999Y-25900000D01*
G75*
G02*
X-55850000Y-26149999I0J-249999D01*
G01*
X-55850000Y-26850001D01*
G75*
G02*
X-56099999Y-27100000I-249999J0D01*
G01*
X-57000001Y-27100000D01*
G75*
G02*
X-57250000Y-26850001I0J249999D01*
G01*
X-57250000Y-26149999D01*
G75*
G02*
X-57000001Y-25900000I249999J0D01*
G01*
G37*
%TD.AperFunction*%
%TD*%
%TO.P,R10,2*%
%TO.N,Net-(R10-Pad2)*%
%TA.AperFunction,SMDPad,CuDef*%
G36*
G01*
X-53650000Y-26149999D02*
X-53650000Y-27050001D01*
G75*
G02*
X-53899999Y-27300000I-249999J0D01*
G01*
X-54600001Y-27300000D01*
G75*
G02*
X-54850000Y-27050001I0J249999D01*
G01*
X-54850000Y-26149999D01*
G75*
G02*
X-54600001Y-25900000I249999J0D01*
G01*
X-53899999Y-25900000D01*
G75*
G02*
X-53650000Y-26149999I0J-249999D01*
G01*
G37*
%TD.AperFunction*%
%TO.P,R10,1*%
%TO.N,+5V*%
%TA.AperFunction,SMDPad,CuDef*%
G36*
G01*
X-51650000Y-26149999D02*
X-51650000Y-27050001D01*
G75*
G02*
X-51899999Y-27300000I-249999J0D01*
G01*
X-52600001Y-27300000D01*
G75*
G02*
X-52850000Y-27050001I0J249999D01*
G01*
X-52850000Y-26149999D01*
G75*
G02*
X-52600001Y-25900000I249999J0D01*
G01*
X-51899999Y-25900000D01*
G75*
G02*
X-51650000Y-26149999I0J-249999D01*
G01*
G37*
%TD.AperFunction*%
%TD*%
%TO.P,R9,2*%
%TO.N,Net-(R7-Pad2)*%
%TA.AperFunction,SMDPad,CuDef*%
G36*
G01*
X-53650000Y-15849999D02*
X-53650000Y-16750001D01*
G75*
G02*
X-53899999Y-17000000I-249999J0D01*
G01*
X-54600001Y-17000000D01*
G75*
G02*
X-54850000Y-16750001I0J249999D01*
G01*
X-54850000Y-15849999D01*
G75*
G02*
X-54600001Y-15600000I249999J0D01*
G01*
X-53899999Y-15600000D01*
G75*
G02*
X-53650000Y-15849999I0J-249999D01*
G01*
G37*
%TD.AperFunction*%
%TO.P,R9,1*%
%TO.N,/AOUT*%
%TA.AperFunction,SMDPad,CuDef*%
G36*
G01*
X-51650000Y-15849999D02*
X-51650000Y-16750001D01*
G75*
G02*
X-51899999Y-17000000I-249999J0D01*
G01*
X-52600001Y-17000000D01*
G75*
G02*
X-52850000Y-16750001I0J249999D01*
G01*
X-52850000Y-15849999D01*
G75*
G02*
X-52600001Y-15600000I249999J0D01*
G01*
X-51899999Y-15600000D01*
G75*
G02*
X-51650000Y-15849999I0J-249999D01*
G01*
G37*
%TD.AperFunction*%
%TD*%
%TO.P,R8,2*%
%TO.N,Net-(R7-Pad1)*%
%TA.AperFunction,SMDPad,CuDef*%
G36*
G01*
X-49499999Y-14400000D02*
X-50400001Y-14400000D01*
G75*
G02*
X-50650000Y-14150001I0J249999D01*
G01*
X-50650000Y-13449999D01*
G75*
G02*
X-50400001Y-13200000I249999J0D01*
G01*
X-49499999Y-13200000D01*
G75*
G02*
X-49250000Y-13449999I0J-249999D01*
G01*
X-49250000Y-14150001D01*
G75*
G02*
X-49499999Y-14400000I-249999J0D01*
G01*
G37*
%TD.AperFunction*%
%TO.P,R8,1*%
%TO.N,GND*%
%TA.AperFunction,SMDPad,CuDef*%
G36*
G01*
X-49499999Y-16400000D02*
X-50400001Y-16400000D01*
G75*
G02*
X-50650000Y-16150001I0J249999D01*
G01*
X-50650000Y-15449999D01*
G75*
G02*
X-50400001Y-15200000I249999J0D01*
G01*
X-49499999Y-15200000D01*
G75*
G02*
X-49250000Y-15449999I0J-249999D01*
G01*
X-49250000Y-16150001D01*
G75*
G02*
X-49499999Y-16400000I-249999J0D01*
G01*
G37*
%TD.AperFunction*%
%TD*%
%TO.P,R7,2*%
%TO.N,Net-(R7-Pad2)*%
%TA.AperFunction,SMDPad,CuDef*%
G36*
G01*
X-53650000Y-13449999D02*
X-53650000Y-14350001D01*
G75*
G02*
X-53899999Y-14600000I-249999J0D01*
G01*
X-54600001Y-14600000D01*
G75*
G02*
X-54850000Y-14350001I0J249999D01*
G01*
X-54850000Y-13449999D01*
G75*
G02*
X-54600001Y-13200000I249999J0D01*
G01*
X-53899999Y-13200000D01*
G75*
G02*
X-53650000Y-13449999I0J-249999D01*
G01*
G37*
%TD.AperFunction*%
%TO.P,R7,1*%
%TO.N,Net-(R7-Pad1)*%
%TA.AperFunction,SMDPad,CuDef*%
G36*
G01*
X-51650000Y-13449999D02*
X-51650000Y-14350001D01*
G75*
G02*
X-51899999Y-14600000I-249999J0D01*
G01*
X-52600001Y-14600000D01*
G75*
G02*
X-52850000Y-14350001I0J249999D01*
G01*
X-52850000Y-13449999D01*
G75*
G02*
X-52600001Y-13200000I249999J0D01*
G01*
X-51899999Y-13200000D01*
G75*
G02*
X-51650000Y-13449999I0J-249999D01*
G01*
G37*
%TD.AperFunction*%
%TD*%
%TO.P,R6,2*%
%TO.N,USART1_TX*%
%TA.AperFunction,SMDPad,CuDef*%
G36*
G01*
X-7250000Y-9950001D02*
X-7250000Y-9049999D01*
G75*
G02*
X-7000001Y-8800000I249999J0D01*
G01*
X-6299999Y-8800000D01*
G75*
G02*
X-6050000Y-9049999I0J-249999D01*
G01*
X-6050000Y-9950001D01*
G75*
G02*
X-6299999Y-10200000I-249999J0D01*
G01*
X-7000001Y-10200000D01*
G75*
G02*
X-7250000Y-9950001I0J249999D01*
G01*
G37*
%TD.AperFunction*%
%TO.P,R6,1*%
%TO.N,Net-(R6-Pad1)*%
%TA.AperFunction,SMDPad,CuDef*%
G36*
G01*
X-9250000Y-9950001D02*
X-9250000Y-9049999D01*
G75*
G02*
X-9000001Y-8800000I249999J0D01*
G01*
X-8299999Y-8800000D01*
G75*
G02*
X-8050000Y-9049999I0J-249999D01*
G01*
X-8050000Y-9950001D01*
G75*
G02*
X-8299999Y-10200000I-249999J0D01*
G01*
X-9000001Y-10200000D01*
G75*
G02*
X-9250000Y-9950001I0J249999D01*
G01*
G37*
%TD.AperFunction*%
%TD*%
%TO.P,R5,2*%
%TO.N,USB_DP*%
%TA.AperFunction,SMDPad,CuDef*%
G36*
G01*
X-10099999Y-46500000D02*
X-11000001Y-46500000D01*
G75*
G02*
X-11250000Y-46250001I0J249999D01*
G01*
X-11250000Y-45549999D01*
G75*
G02*
X-11000001Y-45300000I249999J0D01*
G01*
X-10099999Y-45300000D01*
G75*
G02*
X-9850000Y-45549999I0J-249999D01*
G01*
X-9850000Y-46250001D01*
G75*
G02*
X-10099999Y-46500000I-249999J0D01*
G01*
G37*
%TD.AperFunction*%
%TO.P,R5,1*%
%TO.N,+3V3*%
%TA.AperFunction,SMDPad,CuDef*%
G36*
G01*
X-10099999Y-48500000D02*
X-11000001Y-48500000D01*
G75*
G02*
X-11250000Y-48250001I0J249999D01*
G01*
X-11250000Y-47549999D01*
G75*
G02*
X-11000001Y-47300000I249999J0D01*
G01*
X-10099999Y-47300000D01*
G75*
G02*
X-9850000Y-47549999I0J-249999D01*
G01*
X-9850000Y-48250001D01*
G75*
G02*
X-10099999Y-48500000I-249999J0D01*
G01*
G37*
%TD.AperFunction*%
%TD*%
%TO.P,R4,2*%
%TO.N,/ADC_IN1*%
%TA.AperFunction,SMDPad,CuDef*%
G36*
G01*
X-50900000Y-35049999D02*
X-50900000Y-35950001D01*
G75*
G02*
X-51149999Y-36200000I-249999J0D01*
G01*
X-51850001Y-36200000D01*
G75*
G02*
X-52100000Y-35950001I0J249999D01*
G01*
X-52100000Y-35049999D01*
G75*
G02*
X-51850001Y-34800000I249999J0D01*
G01*
X-51149999Y-34800000D01*
G75*
G02*
X-50900000Y-35049999I0J-249999D01*
G01*
G37*
%TD.AperFunction*%
%TO.P,R4,1*%
%TO.N,GND*%
%TA.AperFunction,SMDPad,CuDef*%
G36*
G01*
X-48900000Y-35049999D02*
X-48900000Y-35950001D01*
G75*
G02*
X-49149999Y-36200000I-249999J0D01*
G01*
X-49850001Y-36200000D01*
G75*
G02*
X-50100000Y-35950001I0J249999D01*
G01*
X-50100000Y-35049999D01*
G75*
G02*
X-49850001Y-34800000I249999J0D01*
G01*
X-49149999Y-34800000D01*
G75*
G02*
X-48900000Y-35049999I0J-249999D01*
G01*
G37*
%TD.AperFunction*%
%TD*%
%TO.P,R3,2*%
%TO.N,/ADC_IN1*%
%TA.AperFunction,SMDPad,CuDef*%
G36*
G01*
X-50100000Y-33550001D02*
X-50100000Y-32649999D01*
G75*
G02*
X-49850001Y-32400000I249999J0D01*
G01*
X-49149999Y-32400000D01*
G75*
G02*
X-48900000Y-32649999I0J-249999D01*
G01*
X-48900000Y-33550001D01*
G75*
G02*
X-49149999Y-33800000I-249999J0D01*
G01*
X-49850001Y-33800000D01*
G75*
G02*
X-50100000Y-33550001I0J249999D01*
G01*
G37*
%TD.AperFunction*%
%TO.P,R3,1*%
%TO.N,Net-(J3-Pad1)*%
%TA.AperFunction,SMDPad,CuDef*%
G36*
G01*
X-52100000Y-33550001D02*
X-52100000Y-32649999D01*
G75*
G02*
X-51850001Y-32400000I249999J0D01*
G01*
X-51149999Y-32400000D01*
G75*
G02*
X-50900000Y-32649999I0J-249999D01*
G01*
X-50900000Y-33550001D01*
G75*
G02*
X-51149999Y-33800000I-249999J0D01*
G01*
X-51850001Y-33800000D01*
G75*
G02*
X-52100000Y-33550001I0J249999D01*
G01*
G37*
%TD.AperFunction*%
%TD*%
%TO.P,R2,2*%
%TO.N,+3V3*%
%TA.AperFunction,SMDPad,CuDef*%
G36*
G01*
X-18650001Y-11250000D02*
X-17749999Y-11250000D01*
G75*
G02*
X-17500000Y-11499999I0J-249999D01*
G01*
X-17500000Y-12200001D01*
G75*
G02*
X-17749999Y-12450000I-249999J0D01*
G01*
X-18650001Y-12450000D01*
G75*
G02*
X-18900000Y-12200001I0J249999D01*
G01*
X-18900000Y-11499999D01*
G75*
G02*
X-18650001Y-11250000I249999J0D01*
G01*
G37*
%TD.AperFunction*%
%TO.P,R2,1*%
%TO.N,Net-(R2-Pad1)*%
%TA.AperFunction,SMDPad,CuDef*%
G36*
G01*
X-18650001Y-9250000D02*
X-17749999Y-9250000D01*
G75*
G02*
X-17500000Y-9499999I0J-249999D01*
G01*
X-17500000Y-10200001D01*
G75*
G02*
X-17749999Y-10450000I-249999J0D01*
G01*
X-18650001Y-10450000D01*
G75*
G02*
X-18900000Y-10200001I0J249999D01*
G01*
X-18900000Y-9499999D01*
G75*
G02*
X-18650001Y-9250000I249999J0D01*
G01*
G37*
%TD.AperFunction*%
%TD*%
%TO.P,R1,2*%
%TO.N,Net-(R1-Pad2)*%
%TA.AperFunction,SMDPad,CuDef*%
G36*
G01*
X-8050000Y-6149999D02*
X-8050000Y-7050001D01*
G75*
G02*
X-8299999Y-7300000I-249999J0D01*
G01*
X-9000001Y-7300000D01*
G75*
G02*
X-9250000Y-7050001I0J249999D01*
G01*
X-9250000Y-6149999D01*
G75*
G02*
X-9000001Y-5900000I249999J0D01*
G01*
X-8299999Y-5900000D01*
G75*
G02*
X-8050000Y-6149999I0J-249999D01*
G01*
G37*
%TD.AperFunction*%
%TO.P,R1,1*%
%TO.N,USART1_RX*%
%TA.AperFunction,SMDPad,CuDef*%
G36*
G01*
X-6050000Y-6149999D02*
X-6050000Y-7050001D01*
G75*
G02*
X-6299999Y-7300000I-249999J0D01*
G01*
X-7000001Y-7300000D01*
G75*
G02*
X-7250000Y-7050001I0J249999D01*
G01*
X-7250000Y-6149999D01*
G75*
G02*
X-7000001Y-5900000I249999J0D01*
G01*
X-6299999Y-5900000D01*
G75*
G02*
X-6050000Y-6149999I0J-249999D01*
G01*
G37*
%TD.AperFunction*%
%TD*%
D18*
%TO.P,JP1,2*%
%TO.N,Net-(JP1-Pad2)*%
X-16940000Y-62100000D03*
D17*
%TO.P,JP1,1*%
%TO.N,/CANH*%
X-14400000Y-62100000D03*
%TD*%
D19*
%TO.P,J6,0*%
%TO.N,N/C*%
X-12210000Y-70470000D03*
X-37210000Y-70470000D03*
D20*
%TO.P,J6,9*%
%TO.N,Net-(J6-Pad9)*%
X-20555000Y-71890000D03*
%TO.P,J6,8*%
%TO.N,Net-(J6-Pad8)*%
X-23325000Y-71890000D03*
%TO.P,J6,7*%
%TO.N,/CANH*%
X-26095000Y-71890000D03*
%TO.P,J6,6*%
%TO.N,Net-(J6-Pad6)*%
X-28865000Y-71890000D03*
%TO.P,J6,5*%
%TO.N,Net-(J6-Pad5)*%
X-19170000Y-69050000D03*
%TO.P,J6,4*%
%TO.N,Net-(J6-Pad4)*%
X-21940000Y-69050000D03*
%TO.P,J6,3*%
%TO.N,GND*%
X-24710000Y-69050000D03*
%TO.P,J6,2*%
%TO.N,/CANL*%
X-27480000Y-69050000D03*
D21*
%TO.P,J6,1*%
%TO.N,Net-(J6-Pad1)*%
X-30250000Y-69050000D03*
%TD*%
D22*
%TO.P,J5,2*%
%TO.N,GND*%
X-65000000Y-24050000D03*
%TO.P,J5,1*%
%TO.N,/AOUT*%
X-65000000Y-19050000D03*
%TD*%
D18*
%TO.P,J4,4*%
%TO.N,/I2C_SDA*%
X-57650000Y-3530000D03*
%TO.P,J4,3*%
%TO.N,/I2C_SCL*%
X-57650000Y-6070000D03*
%TO.P,J4,2*%
%TO.N,+3V3*%
X-57650000Y-8610000D03*
D17*
%TO.P,J4,1*%
%TO.N,GND*%
X-57650000Y-11150000D03*
%TD*%
D22*
%TO.P,J3,2*%
%TO.N,GND*%
X-57850000Y-40050000D03*
%TO.P,J3,1*%
%TO.N,Net-(J3-Pad1)*%
X-57850000Y-35050000D03*
%TD*%
D18*
%TO.P,J2,5*%
%TO.N,GND*%
X-59200000Y-65340000D03*
%TO.P,J2,4*%
%TO.N,/ENC_A*%
X-59200000Y-67880000D03*
%TO.P,J2,3*%
%TO.N,/ENC_B*%
X-59200000Y-70420000D03*
%TO.P,J2,2*%
%TO.N,/ENC_SW*%
X-59200000Y-72960000D03*
D17*
%TO.P,J2,1*%
%TO.N,+3V3*%
X-59200000Y-75500000D03*
%TD*%
%TO.P,C3,2*%
%TO.N,+3V3*%
%TA.AperFunction,SMDPad,CuDef*%
G36*
G01*
X-24875000Y-54800000D02*
X-23925000Y-54800000D01*
G75*
G02*
X-23675000Y-55050000I0J-250000D01*
G01*
X-23675000Y-55725000D01*
G75*
G02*
X-23925000Y-55975000I-250000J0D01*
G01*
X-24875000Y-55975000D01*
G75*
G02*
X-25125000Y-55725000I0J250000D01*
G01*
X-25125000Y-55050000D01*
G75*
G02*
X-24875000Y-54800000I250000J0D01*
G01*
G37*
%TD.AperFunction*%
%TO.P,C3,1*%
%TO.N,GND*%
%TA.AperFunction,SMDPad,CuDef*%
G36*
G01*
X-24875000Y-52725000D02*
X-23925000Y-52725000D01*
G75*
G02*
X-23675000Y-52975000I0J-250000D01*
G01*
X-23675000Y-53650000D01*
G75*
G02*
X-23925000Y-53900000I-250000J0D01*
G01*
X-24875000Y-53900000D01*
G75*
G02*
X-25125000Y-53650000I0J250000D01*
G01*
X-25125000Y-52975000D01*
G75*
G02*
X-24875000Y-52725000I250000J0D01*
G01*
G37*
%TD.AperFunction*%
%TD*%
%TO.P,C2,2*%
%TO.N,GND*%
%TA.AperFunction,SMDPad,CuDef*%
G36*
G01*
X-49425000Y-22450000D02*
X-50375000Y-22450000D01*
G75*
G02*
X-50625000Y-22200000I0J250000D01*
G01*
X-50625000Y-21525000D01*
G75*
G02*
X-50375000Y-21275000I250000J0D01*
G01*
X-49425000Y-21275000D01*
G75*
G02*
X-49175000Y-21525000I0J-250000D01*
G01*
X-49175000Y-22200000D01*
G75*
G02*
X-49425000Y-22450000I-250000J0D01*
G01*
G37*
%TD.AperFunction*%
%TO.P,C2,1*%
%TO.N,+5V*%
%TA.AperFunction,SMDPad,CuDef*%
G36*
G01*
X-49425000Y-24525000D02*
X-50375000Y-24525000D01*
G75*
G02*
X-50625000Y-24275000I0J250000D01*
G01*
X-50625000Y-23600000D01*
G75*
G02*
X-50375000Y-23350000I250000J0D01*
G01*
X-49425000Y-23350000D01*
G75*
G02*
X-49175000Y-23600000I0J-250000D01*
G01*
X-49175000Y-24275000D01*
G75*
G02*
X-49425000Y-24525000I-250000J0D01*
G01*
G37*
%TD.AperFunction*%
%TD*%
%TO.P,C1,2*%
%TO.N,GND*%
%TA.AperFunction,SMDPad,CuDef*%
G36*
G01*
X-46975000Y-22450000D02*
X-47925000Y-22450000D01*
G75*
G02*
X-48175000Y-22200000I0J250000D01*
G01*
X-48175000Y-21525000D01*
G75*
G02*
X-47925000Y-21275000I250000J0D01*
G01*
X-46975000Y-21275000D01*
G75*
G02*
X-46725000Y-21525000I0J-250000D01*
G01*
X-46725000Y-22200000D01*
G75*
G02*
X-46975000Y-22450000I-250000J0D01*
G01*
G37*
%TD.AperFunction*%
%TO.P,C1,1*%
%TO.N,+5V*%
%TA.AperFunction,SMDPad,CuDef*%
G36*
G01*
X-46975000Y-24525000D02*
X-47925000Y-24525000D01*
G75*
G02*
X-48175000Y-24275000I0J250000D01*
G01*
X-48175000Y-23600000D01*
G75*
G02*
X-47925000Y-23350000I250000J0D01*
G01*
X-46975000Y-23350000D01*
G75*
G02*
X-46725000Y-23600000I0J-250000D01*
G01*
X-46725000Y-24275000D01*
G75*
G02*
X-46975000Y-24525000I-250000J0D01*
G01*
G37*
%TD.AperFunction*%
%TD*%
D23*
%TO.P,BT1,1*%
%TO.N,Net-(BT1-Pad1)*%
X-53240000Y-47400000D03*
D24*
%TO.P,BT1,2*%
%TO.N,GND*%
X-32750000Y-47400000D03*
%TD*%
D25*
%TO.N,GND*%
X-47450000Y-20500000D03*
X-49950000Y-17200000D03*
X-56037653Y-17425000D03*
X-24400000Y-51900000D03*
X-19550000Y-55450000D03*
X-33800000Y-7800000D03*
X-47900000Y-35450000D03*
X-55200000Y-28500000D03*
%TO.N,+5V*%
X-45100000Y-23900000D03*
X-31099990Y-23900000D03*
%TO.N,USB_DP*%
X-22250002Y-34550000D03*
X-18550000Y-34550000D03*
%TO.N,USB_DM*%
X-7500000Y-43650000D03*
X-22250000Y-33400000D03*
X-18550000Y-33400000D03*
%TO.N,USART1_RX*%
X-7000000Y-28350000D03*
X-9900000Y-28350000D03*
%TO.N,/ADC_IN1*%
X-62200000Y-48500000D03*
X-62200000Y-53100000D03*
%TO.N,USART1_TX*%
X-4650000Y-29150000D03*
X-11100000Y-28400000D03*
%TO.N,CAN_RS*%
X-10000000Y-37400003D03*
%TO.N,CAN_TX*%
X-10000000Y-36400000D03*
%TO.N,CAN_RX*%
X-9947442Y-35401380D03*
%TD*%
D26*
%TO.N,Net-(BT1-Pad1)*%
X-61400000Y-68379002D02*
X-61400000Y-51200000D01*
X-63785997Y-70764999D02*
X-61400000Y-68379002D01*
X-65524999Y-70764999D02*
X-63785997Y-70764999D01*
X-66700000Y-71940000D02*
X-65524999Y-70764999D01*
X-57600000Y-47400000D02*
X-57650000Y-47450000D01*
X-53240000Y-47400000D02*
X-57600000Y-47400000D01*
X-61400000Y-51200000D02*
X-57650000Y-47450000D01*
%TO.N,GND*%
X-47450000Y-21862500D02*
X-49900000Y-21862500D01*
X-47450000Y-21862500D02*
X-47450000Y-20500000D01*
X-49950000Y-15800000D02*
X-49950000Y-17200000D01*
X-56005000Y-17457653D02*
X-56037653Y-17425000D01*
X-56005000Y-18975000D02*
X-56005000Y-17457653D01*
X-24400000Y-53312500D02*
X-24400000Y-51900000D01*
X-19565000Y-55435000D02*
X-19550000Y-55450000D01*
X-19565000Y-53675000D02*
X-19565000Y-55435000D01*
X-33775000Y-7775000D02*
X-33800000Y-7800000D01*
X-33775000Y-5915000D02*
X-33775000Y-7775000D01*
X-47950000Y-35500000D02*
X-47900000Y-35450000D01*
X-49500000Y-35500000D02*
X-47950000Y-35500000D01*
X-56550000Y-28500000D02*
X-55200000Y-28500000D01*
%TO.N,+5V*%
X-52250000Y-23980000D02*
X-52195000Y-23925000D01*
X-52250000Y-26600000D02*
X-52250000Y-23980000D01*
X-52182500Y-23937500D02*
X-52195000Y-23925000D01*
X-49900000Y-23937500D02*
X-52182500Y-23937500D01*
X-47450000Y-23937500D02*
X-49900000Y-23937500D01*
X-62984999Y-35204999D02*
X-62984999Y-32184999D01*
X-64160000Y-36380000D02*
X-62984999Y-35204999D01*
X-62984999Y-32184999D02*
X-60500000Y-29700000D01*
X-60500000Y-29700000D02*
X-53700000Y-29700000D01*
X-52250000Y-28250000D02*
X-52250000Y-26600000D01*
X-53700000Y-29700000D02*
X-52250000Y-28250000D01*
X-47412500Y-23900000D02*
X-47450000Y-23937500D01*
X-45100000Y-23900000D02*
X-47412500Y-23900000D01*
X-31175000Y-23824990D02*
X-31099990Y-23900000D01*
X-31175000Y-5915000D02*
X-31175000Y-23824990D01*
%TO.N,+3V3*%
X-24400000Y-55387500D02*
X-21287500Y-55387500D01*
X-20835000Y-54935000D02*
X-20835000Y-53675000D01*
X-21287500Y-55387500D02*
X-20835000Y-54935000D01*
%TO.N,USB_DP*%
X-10014999Y-45364999D02*
X-10550000Y-45900000D01*
X-4564999Y-45364999D02*
X-10014999Y-45364999D01*
X-3200000Y-44000000D02*
X-4564999Y-45364999D01*
X-6858003Y-45364999D02*
X-4564999Y-45364999D01*
X-8400000Y-43823002D02*
X-6858003Y-45364999D01*
X-8400000Y-35875820D02*
X-8400000Y-43823002D01*
X-32475000Y-5915000D02*
X-32475000Y-25034412D01*
X-32475000Y-25034412D02*
X-22959412Y-34550000D01*
X-22959412Y-34550000D02*
X-22250002Y-34550000D01*
X-9725820Y-34550000D02*
X-8400000Y-35875820D01*
X-18550000Y-34550000D02*
X-9725820Y-34550000D01*
%TO.N,USB_DM*%
X-7500000Y-35800000D02*
X-7500000Y-43650000D01*
X-9900000Y-33400000D02*
X-7500000Y-35800000D01*
X-31825000Y-25048002D02*
X-23473002Y-33400000D01*
X-31825000Y-5915000D02*
X-31825000Y-25048002D01*
X-23473002Y-33400000D02*
X-22250000Y-33400000D01*
X-18550000Y-33400000D02*
X-9900000Y-33400000D01*
%TO.N,/ENC_A*%
X-62984999Y-71664999D02*
X-59200000Y-67880000D01*
X-62984999Y-73304999D02*
X-62984999Y-71664999D01*
X-64160000Y-74480000D02*
X-62984999Y-73304999D01*
%TO.N,/ENC_B*%
X-62100000Y-74960000D02*
X-64160000Y-77020000D01*
X-62100000Y-73320000D02*
X-62100000Y-74960000D01*
X-59200000Y-70420000D02*
X-62100000Y-73320000D01*
%TO.N,Net-(J3-Pad1)*%
X-57850000Y-35050000D02*
X-54950000Y-35050000D01*
X-53000000Y-33100000D02*
X-51500000Y-33100000D01*
X-54950000Y-35050000D02*
X-53000000Y-33100000D01*
%TO.N,/I2C_SDA*%
X-57650000Y-4300000D02*
X-57650000Y-3530000D01*
X-57950000Y-4600000D02*
X-57650000Y-4300000D01*
X-57950000Y-4700000D02*
X-57950000Y-4600000D01*
X-68325011Y-15075011D02*
X-57950000Y-4700000D01*
X-68325011Y-55074989D02*
X-68325011Y-15075011D01*
X-66700000Y-56700000D02*
X-68325011Y-55074989D01*
%TO.N,/I2C_SCL*%
X-67875001Y-50444999D02*
X-66700000Y-51620000D01*
X-67875001Y-16295001D02*
X-67875001Y-50444999D01*
X-57650000Y-6070000D02*
X-67875001Y-16295001D01*
%TO.N,/AOUT*%
X-52195000Y-16355000D02*
X-52250000Y-16300000D01*
X-52195000Y-18975000D02*
X-52195000Y-16355000D01*
X-52195000Y-18975000D02*
X-52195000Y-20145000D01*
X-52195000Y-20145000D02*
X-52750000Y-20700000D01*
X-63350000Y-20700000D02*
X-65000000Y-19050000D01*
X-52750000Y-20700000D02*
X-63350000Y-20700000D01*
%TO.N,/CANH*%
X-19565000Y-59001768D02*
X-19565000Y-58625000D01*
X-20975010Y-63181420D02*
X-20975010Y-60411778D01*
X-20975010Y-60411778D02*
X-19565000Y-59001768D01*
X-26095000Y-68301410D02*
X-20975010Y-63181420D01*
X-26095000Y-71890000D02*
X-26095000Y-68301410D01*
X-19565000Y-59600000D02*
X-19565000Y-58625000D01*
X-18240001Y-60924999D02*
X-19565000Y-59600000D01*
X-15575001Y-60924999D02*
X-18240001Y-60924999D01*
X-14400000Y-62100000D02*
X-15575001Y-60924999D01*
%TO.N,/CANL*%
X-22050000Y-63620000D02*
X-27480000Y-69050000D01*
X-22050000Y-61250000D02*
X-22050000Y-63620000D01*
X-21425020Y-60625020D02*
X-22050000Y-61250000D01*
X-21425020Y-59215020D02*
X-21425020Y-60625020D01*
X-20835000Y-58625000D02*
X-21425020Y-59215020D01*
%TO.N,Net-(JP1-Pad2)*%
X-19200000Y-62100000D02*
X-20050000Y-61250000D01*
X-16940000Y-62100000D02*
X-19200000Y-62100000D01*
%TO.N,Net-(R1-Pad2)*%
X-13631399Y-5387768D02*
X-14820000Y-4199167D01*
X-9862232Y-5387768D02*
X-13631399Y-5387768D01*
X-8650000Y-6600000D02*
X-9862232Y-5387768D01*
%TO.N,USART1_RX*%
X-4375001Y-30974999D02*
X-7000000Y-28350000D01*
X-4375001Y-35204999D02*
X-4375001Y-30974999D01*
X-3200000Y-36380000D02*
X-4375001Y-35204999D01*
X-9900000Y-28350000D02*
X-9900000Y-22100000D01*
X-9900000Y-22100000D02*
X-4750000Y-16950000D01*
X-4750000Y-16950000D02*
X-4750000Y-7150000D01*
X-5300000Y-6600000D02*
X-6650000Y-6600000D01*
X-4750000Y-7150000D02*
X-5300000Y-6600000D01*
%TO.N,Net-(R2-Pad1)*%
X-14820000Y-6739167D02*
X-17039167Y-6739167D01*
X-18200000Y-7900000D02*
X-18200000Y-9850000D01*
X-17039167Y-6739167D02*
X-18200000Y-7900000D01*
%TO.N,/ADC_IN1*%
X-49500000Y-33500000D02*
X-51500000Y-35500000D01*
X-49500000Y-33100000D02*
X-49500000Y-33500000D01*
X-51500000Y-35500000D02*
X-52550000Y-36550000D01*
X-52550000Y-36550000D02*
X-61850000Y-36550000D01*
X-62200000Y-36900000D02*
X-62200000Y-48500000D01*
X-61850000Y-36550000D02*
X-62200000Y-36900000D01*
X-62200000Y-62360000D02*
X-64160000Y-64320000D01*
X-62200000Y-53100000D02*
X-62200000Y-62360000D01*
%TO.N,USART1_TX*%
X-3200000Y-71940000D02*
X-1700000Y-70440000D01*
X-3610998Y-29150000D02*
X-4650000Y-29150000D01*
X-1700000Y-31060998D02*
X-3610998Y-29150000D01*
X-1700000Y-70440000D02*
X-1700000Y-31060998D01*
X-11100000Y-28400000D02*
X-11100000Y-22100000D01*
X-11100000Y-22100000D02*
X-5350000Y-16350000D01*
X-5350000Y-10800000D02*
X-6650000Y-9500000D01*
X-5350000Y-16350000D02*
X-5350000Y-10800000D01*
%TO.N,Net-(R6-Pad1)*%
X-10969167Y-11819167D02*
X-8650000Y-9500000D01*
X-12280000Y-11819167D02*
X-10969167Y-11819167D01*
%TO.N,Net-(R7-Pad2)*%
X-53465000Y-17085000D02*
X-54250000Y-16300000D01*
X-53465000Y-18975000D02*
X-53465000Y-17085000D01*
X-54250000Y-16300000D02*
X-54250000Y-13900000D01*
%TO.N,Net-(R7-Pad1)*%
X-50050000Y-13900000D02*
X-49950000Y-13800000D01*
X-52250000Y-13900000D02*
X-50050000Y-13900000D01*
%TO.N,Net-(R10-Pad2)*%
X-56005000Y-25955000D02*
X-56550000Y-26500000D01*
X-56005000Y-23925000D02*
X-56005000Y-25955000D01*
X-54350000Y-26500000D02*
X-54250000Y-26600000D01*
X-56550000Y-26500000D02*
X-54350000Y-26500000D01*
%TO.N,CAN_RS*%
X-17800000Y-38700000D02*
X-16500003Y-37400003D01*
X-17800000Y-51400000D02*
X-17800000Y-38700000D01*
X-16500003Y-37400003D02*
X-10000000Y-37400003D01*
X-15100000Y-54100000D02*
X-17800000Y-51400000D01*
X-15100000Y-55300000D02*
X-15100000Y-54100000D01*
%TO.N,Net-(R12-Pad1)*%
X-17995000Y-57300000D02*
X-15100000Y-57300000D01*
X-18295000Y-57600000D02*
X-17995000Y-57300000D01*
X-18295000Y-58625000D02*
X-18295000Y-57600000D01*
%TO.N,CAN_TX*%
X-18295000Y-38545000D02*
X-16150000Y-36400000D01*
X-18295000Y-53675000D02*
X-18295000Y-38545000D01*
X-16150000Y-36400000D02*
X-10000000Y-36400000D01*
%TO.N,CAN_RX*%
X-15787790Y-35401380D02*
X-9947442Y-35401380D01*
X-18750000Y-38363590D02*
X-15787790Y-35401380D01*
X-18750000Y-50700000D02*
X-18750000Y-38363590D01*
X-19900000Y-51850000D02*
X-18750000Y-50700000D01*
X-21700000Y-51850000D02*
X-19900000Y-51850000D01*
X-22105000Y-52255000D02*
X-21700000Y-51850000D01*
X-22105000Y-53675000D02*
X-22105000Y-52255000D01*
%TO.N,/DAC_OUT1*%
X-66225001Y-29489997D02*
X-65450000Y-30264998D01*
X-64463002Y-16700000D02*
X-66225001Y-18461999D01*
X-65450000Y-68110000D02*
X-64160000Y-69400000D01*
X-65450000Y-30264998D02*
X-65450000Y-68110000D01*
X-66225001Y-18461999D02*
X-66225001Y-29489997D01*
X-55700000Y-16700000D02*
X-64463002Y-16700000D01*
X-54735000Y-17665000D02*
X-55700000Y-16700000D01*
X-54735000Y-18975000D02*
X-54735000Y-17665000D01*
%TD*%
D27*
%TO.N,+3V3*%
X-36722578Y-1555829D02*
X-36899211Y-1700788D01*
X-37044170Y-1877421D01*
X-37151885Y-2078940D01*
X-37218215Y-2297600D01*
X-37235000Y-2468021D01*
X-37235000Y-3431978D01*
X-37218215Y-3602399D01*
X-37151885Y-3821059D01*
X-37044171Y-4022578D01*
X-36899212Y-4199212D01*
X-36722579Y-4344171D01*
X-36521060Y-4451885D01*
X-36302400Y-4518215D01*
X-36075000Y-4540612D01*
X-36033072Y-4536482D01*
X-36033072Y-5905000D01*
X-36020812Y-6029482D01*
X-35984502Y-6149180D01*
X-35925537Y-6259494D01*
X-35846185Y-6356185D01*
X-35749494Y-6435537D01*
X-35639180Y-6494502D01*
X-35519482Y-6530812D01*
X-35395000Y-6543072D01*
X-34589838Y-6543072D01*
X-34589502Y-6544180D01*
X-34535000Y-6646145D01*
X-34534999Y-7071288D01*
X-34603937Y-7140226D01*
X-34717205Y-7309744D01*
X-34795226Y-7498102D01*
X-34835000Y-7698061D01*
X-34835000Y-7901939D01*
X-34795226Y-8101898D01*
X-34717205Y-8290256D01*
X-34603937Y-8459774D01*
X-34459774Y-8603937D01*
X-34290256Y-8717205D01*
X-34101898Y-8795226D01*
X-33901939Y-8835000D01*
X-33698061Y-8835000D01*
X-33498102Y-8795226D01*
X-33309744Y-8717205D01*
X-33235000Y-8667263D01*
X-33234999Y-24997079D01*
X-33238676Y-25034412D01*
X-33234999Y-25071745D01*
X-33224002Y-25183398D01*
X-33217146Y-25205998D01*
X-33180546Y-25326658D01*
X-33109974Y-25458688D01*
X-33050854Y-25530725D01*
X-33015000Y-25574413D01*
X-32986002Y-25598211D01*
X-23523212Y-35061002D01*
X-23499413Y-35090001D01*
X-23470415Y-35113799D01*
X-23383688Y-35184974D01*
X-23251659Y-35255546D01*
X-23108398Y-35299003D01*
X-22959412Y-35313677D01*
X-22950877Y-35312836D01*
X-22909776Y-35353937D01*
X-22740258Y-35467205D01*
X-22551900Y-35545226D01*
X-22351941Y-35585000D01*
X-22148063Y-35585000D01*
X-21948104Y-35545226D01*
X-21759746Y-35467205D01*
X-21590228Y-35353937D01*
X-21446065Y-35209774D01*
X-21332797Y-35040256D01*
X-21254776Y-34851898D01*
X-21215002Y-34651939D01*
X-21215002Y-34448061D01*
X-21254776Y-34248102D01*
X-21332797Y-34059744D01*
X-21389420Y-33975001D01*
X-21332795Y-33890256D01*
X-21254774Y-33701898D01*
X-21215000Y-33501939D01*
X-21215000Y-33298061D01*
X-21254774Y-33098102D01*
X-21332795Y-32909744D01*
X-21446063Y-32740226D01*
X-21590226Y-32596063D01*
X-21759744Y-32482795D01*
X-21948102Y-32404774D01*
X-22148061Y-32365000D01*
X-22351939Y-32365000D01*
X-22551898Y-32404774D01*
X-22740256Y-32482795D01*
X-22909774Y-32596063D01*
X-22953711Y-32640000D01*
X-23158200Y-32640000D01*
X-30885574Y-24912627D01*
X-30798092Y-24895226D01*
X-30609734Y-24817205D01*
X-30440216Y-24703937D01*
X-30296053Y-24559774D01*
X-30182785Y-24390256D01*
X-30104764Y-24201898D01*
X-30064990Y-24001939D01*
X-30064990Y-23798061D01*
X-30104764Y-23598102D01*
X-30182785Y-23409744D01*
X-30296053Y-23240226D01*
X-30415000Y-23121279D01*
X-30415000Y-12450000D01*
X-19538072Y-12450000D01*
X-19525812Y-12574482D01*
X-19489502Y-12694180D01*
X-19430537Y-12804494D01*
X-19351185Y-12901185D01*
X-19254494Y-12980537D01*
X-19144180Y-13039502D01*
X-19024482Y-13075812D01*
X-18900000Y-13088072D01*
X-18485750Y-13085000D01*
X-18327000Y-12926250D01*
X-18327000Y-11977000D01*
X-18073000Y-11977000D01*
X-18073000Y-12926250D01*
X-17914250Y-13085000D01*
X-17500000Y-13088072D01*
X-17375518Y-13075812D01*
X-17255820Y-13039502D01*
X-17145506Y-12980537D01*
X-17048815Y-12901185D01*
X-16969463Y-12804494D01*
X-16910498Y-12694180D01*
X-16874188Y-12574482D01*
X-16861928Y-12450000D01*
X-16864585Y-12178193D01*
X-16274958Y-12178193D01*
X-16229222Y-12328981D01*
X-16102684Y-12594111D01*
X-15926854Y-12829460D01*
X-15708488Y-13025984D01*
X-15455978Y-13176131D01*
X-15179027Y-13274130D01*
X-14947000Y-13153631D01*
X-14947000Y-11946167D01*
X-16153817Y-11946167D01*
X-16274958Y-12178193D01*
X-16864585Y-12178193D01*
X-16865000Y-12135750D01*
X-17023750Y-11977000D01*
X-18073000Y-11977000D01*
X-18327000Y-11977000D01*
X-19376250Y-11977000D01*
X-19535000Y-12135750D01*
X-19538072Y-12450000D01*
X-30415000Y-12450000D01*
X-30415000Y-9499999D01*
X-19538072Y-9499999D01*
X-19538072Y-10200001D01*
X-19521008Y-10373255D01*
X-19470472Y-10539851D01*
X-19388405Y-10693387D01*
X-19321724Y-10774637D01*
X-19351185Y-10798815D01*
X-19430537Y-10895506D01*
X-19489502Y-11005820D01*
X-19525812Y-11125518D01*
X-19538072Y-11250000D01*
X-19535000Y-11564250D01*
X-19376250Y-11723000D01*
X-18327000Y-11723000D01*
X-18327000Y-11703000D01*
X-18073000Y-11703000D01*
X-18073000Y-11723000D01*
X-17023750Y-11723000D01*
X-16865000Y-11564250D01*
X-16861928Y-11250000D01*
X-16874188Y-11125518D01*
X-16910498Y-11005820D01*
X-16969463Y-10895506D01*
X-17048815Y-10798815D01*
X-17078276Y-10774637D01*
X-17011595Y-10693387D01*
X-16929528Y-10539851D01*
X-16878992Y-10373255D01*
X-16861928Y-10200001D01*
X-16861928Y-9499999D01*
X-16878992Y-9326745D01*
X-16929528Y-9160149D01*
X-17011595Y-9006613D01*
X-17122038Y-8872038D01*
X-17256613Y-8761595D01*
X-17410149Y-8679528D01*
X-17440000Y-8670473D01*
X-17440000Y-8214801D01*
X-16724365Y-7499167D01*
X-16114535Y-7499167D01*
X-15984039Y-7694469D01*
X-15775302Y-7903206D01*
X-15616719Y-8009167D01*
X-15775302Y-8115128D01*
X-15984039Y-8323865D01*
X-16148042Y-8569314D01*
X-16261010Y-8842042D01*
X-16318600Y-9131568D01*
X-16318600Y-9426766D01*
X-16261010Y-9716292D01*
X-16148042Y-9989020D01*
X-15984039Y-10234469D01*
X-15775302Y-10443206D01*
X-15609897Y-10553726D01*
X-15708488Y-10612350D01*
X-15926854Y-10808874D01*
X-16102684Y-11044223D01*
X-16229222Y-11309353D01*
X-16274958Y-11460141D01*
X-16153817Y-11692167D01*
X-14947000Y-11692167D01*
X-14947000Y-11672167D01*
X-14693000Y-11672167D01*
X-14693000Y-11692167D01*
X-14673000Y-11692167D01*
X-14673000Y-11946167D01*
X-14693000Y-11946167D01*
X-14693000Y-13153631D01*
X-14460973Y-13274130D01*
X-14184022Y-13176131D01*
X-13931512Y-13025984D01*
X-13713146Y-12829460D01*
X-13551692Y-12613354D01*
X-13444039Y-12774469D01*
X-13235302Y-12983206D01*
X-12989853Y-13147209D01*
X-12717125Y-13260177D01*
X-12427599Y-13317767D01*
X-12132401Y-13317767D01*
X-11842875Y-13260177D01*
X-11570147Y-13147209D01*
X-11324698Y-12983206D01*
X-11115961Y-12774469D01*
X-10986763Y-12581110D01*
X-10969167Y-12582843D01*
X-10931845Y-12579167D01*
X-10931834Y-12579167D01*
X-10820181Y-12568170D01*
X-10676920Y-12524713D01*
X-10544891Y-12454141D01*
X-10429166Y-12359168D01*
X-10405363Y-12330165D01*
X-8913270Y-10838072D01*
X-8299999Y-10838072D01*
X-8126745Y-10821008D01*
X-7960149Y-10770472D01*
X-7806613Y-10688405D01*
X-7672038Y-10577962D01*
X-7650000Y-10551109D01*
X-7627962Y-10577962D01*
X-7493387Y-10688405D01*
X-7339851Y-10770472D01*
X-7173255Y-10821008D01*
X-7000001Y-10838072D01*
X-6386730Y-10838072D01*
X-6109999Y-11114803D01*
X-6110000Y-16035198D01*
X-11611002Y-21536201D01*
X-11640000Y-21559999D01*
X-11663798Y-21588997D01*
X-11663799Y-21588998D01*
X-11734974Y-21675724D01*
X-11805546Y-21807754D01*
X-11849002Y-21951015D01*
X-11863676Y-22100000D01*
X-11859999Y-22137332D01*
X-11860000Y-27696289D01*
X-11903937Y-27740226D01*
X-12017205Y-27909744D01*
X-12095226Y-28098102D01*
X-12135000Y-28298061D01*
X-12135000Y-28501939D01*
X-12095226Y-28701898D01*
X-12017205Y-28890256D01*
X-11903937Y-29059774D01*
X-11759774Y-29203937D01*
X-11590256Y-29317205D01*
X-11401898Y-29395226D01*
X-11201939Y-29435000D01*
X-10998061Y-29435000D01*
X-10798102Y-29395226D01*
X-10609744Y-29317205D01*
X-10462585Y-29218877D01*
X-10390256Y-29267205D01*
X-10201898Y-29345226D01*
X-10001939Y-29385000D01*
X-9798061Y-29385000D01*
X-9598102Y-29345226D01*
X-9409744Y-29267205D01*
X-9240226Y-29153937D01*
X-9096063Y-29009774D01*
X-8982795Y-28840256D01*
X-8904774Y-28651898D01*
X-8865000Y-28451939D01*
X-8865000Y-28248061D01*
X-8904774Y-28048102D01*
X-8982795Y-27859744D01*
X-9096063Y-27690226D01*
X-9140000Y-27646289D01*
X-9140000Y-22414801D01*
X-4238996Y-17513798D01*
X-4209999Y-17490001D01*
X-4115026Y-17374276D01*
X-4044454Y-17242247D01*
X-4000997Y-17098986D01*
X-3990000Y-16987333D01*
X-3990000Y-16987323D01*
X-3986324Y-16950000D01*
X-3990000Y-16912677D01*
X-3990000Y-7187322D01*
X-3987303Y-7159935D01*
X-3903411Y-7215990D01*
X-3633158Y-7327932D01*
X-3346260Y-7385000D01*
X-3053740Y-7385000D01*
X-2766842Y-7327932D01*
X-2496589Y-7215990D01*
X-2253368Y-7053475D01*
X-2046525Y-6846632D01*
X-1884010Y-6603411D01*
X-1772068Y-6333158D01*
X-1715000Y-6046260D01*
X-1715000Y-5753740D01*
X-1772068Y-5466842D01*
X-1884010Y-5196589D01*
X-2046525Y-4953368D01*
X-2253368Y-4746525D01*
X-2427760Y-4630000D01*
X-2253368Y-4513475D01*
X-2046525Y-4306632D01*
X-1884010Y-4063411D01*
X-1772068Y-3793158D01*
X-1715000Y-3506260D01*
X-1715000Y-3213740D01*
X-1772068Y-2926842D01*
X-1884010Y-2656589D01*
X-2046525Y-2413368D01*
X-2253368Y-2206525D01*
X-2496589Y-2044010D01*
X-2766842Y-1932068D01*
X-3053740Y-1875000D01*
X-3346260Y-1875000D01*
X-3633158Y-1932068D01*
X-3903411Y-2044010D01*
X-4146632Y-2206525D01*
X-4353475Y-2413368D01*
X-4515990Y-2656589D01*
X-4627932Y-2926842D01*
X-4685000Y-3213740D01*
X-4685000Y-3506260D01*
X-4627932Y-3793158D01*
X-4515990Y-4063411D01*
X-4353475Y-4306632D01*
X-4146632Y-4513475D01*
X-3972240Y-4630000D01*
X-4146632Y-4746525D01*
X-4353475Y-4953368D01*
X-4515990Y-5196589D01*
X-4627932Y-5466842D01*
X-4685000Y-5753740D01*
X-4685000Y-6046260D01*
X-4661675Y-6163524D01*
X-4736197Y-6089002D01*
X-4759999Y-6059999D01*
X-4875724Y-5965026D01*
X-5007753Y-5894454D01*
X-5151014Y-5850997D01*
X-5262667Y-5840000D01*
X-5262678Y-5840000D01*
X-5300000Y-5836324D01*
X-5337322Y-5840000D01*
X-5470473Y-5840000D01*
X-5479528Y-5810149D01*
X-5561595Y-5656613D01*
X-5672038Y-5522038D01*
X-5806613Y-5411595D01*
X-5960149Y-5329528D01*
X-6126745Y-5278992D01*
X-6299999Y-5261928D01*
X-7000001Y-5261928D01*
X-7173255Y-5278992D01*
X-7339851Y-5329528D01*
X-7493387Y-5411595D01*
X-7627962Y-5522038D01*
X-7650000Y-5548891D01*
X-7672038Y-5522038D01*
X-7806613Y-5411595D01*
X-7960149Y-5329528D01*
X-8126745Y-5278992D01*
X-8299999Y-5261928D01*
X-8913271Y-5261928D01*
X-9298428Y-4876771D01*
X-9322231Y-4847767D01*
X-9437956Y-4752794D01*
X-9569985Y-4682222D01*
X-9713246Y-4638765D01*
X-9824899Y-4627768D01*
X-9824910Y-4627768D01*
X-9862232Y-4624092D01*
X-9899554Y-4627768D01*
X-10837294Y-4627768D01*
X-10781400Y-4346766D01*
X-10781400Y-4051568D01*
X-10838990Y-3762042D01*
X-10951958Y-3489314D01*
X-11115961Y-3243865D01*
X-11324698Y-3035128D01*
X-11570147Y-2871125D01*
X-11842875Y-2758157D01*
X-12132401Y-2700567D01*
X-12427599Y-2700567D01*
X-12717125Y-2758157D01*
X-12989853Y-2871125D01*
X-13235302Y-3035128D01*
X-13349364Y-3149190D01*
X-13366898Y-3091387D01*
X-13425863Y-2981073D01*
X-13505215Y-2884382D01*
X-13601906Y-2805030D01*
X-13712220Y-2746065D01*
X-13831918Y-2709755D01*
X-13956400Y-2697495D01*
X-15683600Y-2697495D01*
X-15808082Y-2709755D01*
X-15927780Y-2746065D01*
X-16038094Y-2805030D01*
X-16134785Y-2884382D01*
X-16214137Y-2981073D01*
X-16273102Y-3091387D01*
X-16309412Y-3211085D01*
X-16321672Y-3335567D01*
X-16321672Y-5062767D01*
X-16309412Y-5187249D01*
X-16273102Y-5306947D01*
X-16214137Y-5417261D01*
X-16134785Y-5513952D01*
X-16038094Y-5593304D01*
X-15927780Y-5652269D01*
X-15869977Y-5669803D01*
X-15984039Y-5783865D01*
X-16114535Y-5979167D01*
X-17001842Y-5979167D01*
X-17039167Y-5975491D01*
X-17076492Y-5979167D01*
X-17076500Y-5979167D01*
X-17188153Y-5990164D01*
X-17331414Y-6033621D01*
X-17463443Y-6104193D01*
X-17579168Y-6199166D01*
X-17602966Y-6228164D01*
X-18710997Y-7336196D01*
X-18740001Y-7359999D01*
X-18795129Y-7427174D01*
X-18834974Y-7475724D01*
X-18871141Y-7543387D01*
X-18905546Y-7607754D01*
X-18949003Y-7751015D01*
X-18960000Y-7862668D01*
X-18960000Y-7862678D01*
X-18963676Y-7900000D01*
X-18960000Y-7937323D01*
X-18960000Y-8670473D01*
X-18989851Y-8679528D01*
X-19143387Y-8761595D01*
X-19277962Y-8872038D01*
X-19388405Y-9006613D01*
X-19470472Y-9160149D01*
X-19521008Y-9326745D01*
X-19538072Y-9499999D01*
X-30415000Y-9499999D01*
X-30415000Y-6552603D01*
X-30410498Y-6544180D01*
X-30410162Y-6543072D01*
X-29605000Y-6543072D01*
X-29480518Y-6530812D01*
X-29360820Y-6494502D01*
X-29250506Y-6435537D01*
X-29153815Y-6356185D01*
X-29074463Y-6259494D01*
X-29015498Y-6149180D01*
X-28979188Y-6029482D01*
X-28966928Y-5905000D01*
X-28966928Y-4536482D01*
X-28925000Y-4540612D01*
X-28697600Y-4518215D01*
X-28478940Y-4451885D01*
X-28277421Y-4344171D01*
X-28100788Y-4199212D01*
X-27955829Y-4022579D01*
X-27848115Y-3821060D01*
X-27781785Y-3602400D01*
X-27765000Y-3431978D01*
X-27765000Y-2468021D01*
X-27781785Y-2297600D01*
X-27848115Y-2078940D01*
X-27955829Y-1877421D01*
X-28100788Y-1700788D01*
X-28277422Y-1555829D01*
X-28419288Y-1480000D01*
X-3232279Y-1480000D01*
X-2835455Y-1518909D01*
X-2484792Y-1624780D01*
X-2161375Y-1796744D01*
X-1877516Y-2028254D01*
X-1644035Y-2310486D01*
X-1469817Y-2632695D01*
X-1361498Y-2982614D01*
X-1320000Y-3377443D01*
X-1320000Y-30366196D01*
X-3047194Y-28639003D01*
X-3070997Y-28609999D01*
X-3186722Y-28515026D01*
X-3318751Y-28444454D01*
X-3462012Y-28400997D01*
X-3573665Y-28390000D01*
X-3573676Y-28390000D01*
X-3610998Y-28386324D01*
X-3648320Y-28390000D01*
X-3946289Y-28390000D01*
X-3990226Y-28346063D01*
X-4159744Y-28232795D01*
X-4348102Y-28154774D01*
X-4548061Y-28115000D01*
X-4751939Y-28115000D01*
X-4951898Y-28154774D01*
X-5140256Y-28232795D01*
X-5309774Y-28346063D01*
X-5453937Y-28490226D01*
X-5567205Y-28659744D01*
X-5581337Y-28693862D01*
X-5965000Y-28310199D01*
X-5965000Y-28248061D01*
X-6004774Y-28048102D01*
X-6082795Y-27859744D01*
X-6196063Y-27690226D01*
X-6340226Y-27546063D01*
X-6509744Y-27432795D01*
X-6698102Y-27354774D01*
X-6898061Y-27315000D01*
X-7101939Y-27315000D01*
X-7301898Y-27354774D01*
X-7490256Y-27432795D01*
X-7659774Y-27546063D01*
X-7803937Y-27690226D01*
X-7917205Y-27859744D01*
X-7995226Y-28048102D01*
X-8035000Y-28248061D01*
X-8035000Y-28451939D01*
X-7995226Y-28651898D01*
X-7917205Y-28840256D01*
X-7803937Y-29009774D01*
X-7659774Y-29153937D01*
X-7490256Y-29267205D01*
X-7301898Y-29345226D01*
X-7101939Y-29385000D01*
X-7039801Y-29385000D01*
X-6441559Y-29983243D01*
X-6443411Y-29984010D01*
X-6686632Y-30146525D01*
X-6893475Y-30353368D01*
X-7055990Y-30596589D01*
X-7167932Y-30866842D01*
X-7225000Y-31153740D01*
X-7225000Y-31446260D01*
X-7167932Y-31733158D01*
X-7055990Y-32003411D01*
X-6893475Y-32246632D01*
X-6686632Y-32453475D01*
X-6512240Y-32570000D01*
X-6686632Y-32686525D01*
X-6893475Y-32893368D01*
X-7055990Y-33136589D01*
X-7167932Y-33406842D01*
X-7225000Y-33693740D01*
X-7225000Y-33986260D01*
X-7167932Y-34273158D01*
X-7055990Y-34543411D01*
X-6893475Y-34786632D01*
X-6686632Y-34993475D01*
X-6512240Y-35110000D01*
X-6686632Y-35226525D01*
X-6854857Y-35394750D01*
X-6865026Y-35375724D01*
X-6936201Y-35288997D01*
X-6959999Y-35259999D01*
X-6988996Y-35236202D01*
X-9336196Y-32889003D01*
X-9359999Y-32859999D01*
X-9475724Y-32765026D01*
X-9607753Y-32694454D01*
X-9751014Y-32650997D01*
X-9862667Y-32640000D01*
X-9862678Y-32640000D01*
X-9900000Y-32636324D01*
X-9937322Y-32640000D01*
X-17846289Y-32640000D01*
X-17890226Y-32596063D01*
X-18059744Y-32482795D01*
X-18248102Y-32404774D01*
X-18448061Y-32365000D01*
X-18651939Y-32365000D01*
X-18851898Y-32404774D01*
X-19040256Y-32482795D01*
X-19209774Y-32596063D01*
X-19353937Y-32740226D01*
X-19467205Y-32909744D01*
X-19545226Y-33098102D01*
X-19585000Y-33298061D01*
X-19585000Y-33501939D01*
X-19545226Y-33701898D01*
X-19467205Y-33890256D01*
X-19410581Y-33975000D01*
X-19467205Y-34059744D01*
X-19545226Y-34248102D01*
X-19585000Y-34448061D01*
X-19585000Y-34651939D01*
X-19545226Y-34851898D01*
X-19467205Y-35040256D01*
X-19353937Y-35209774D01*
X-19209774Y-35353937D01*
X-19040256Y-35467205D01*
X-18851898Y-35545226D01*
X-18651939Y-35585000D01*
X-18448061Y-35585000D01*
X-18248102Y-35545226D01*
X-18059744Y-35467205D01*
X-17890226Y-35353937D01*
X-17846289Y-35310000D01*
X-16771212Y-35310000D01*
X-19261002Y-37799791D01*
X-19290000Y-37823589D01*
X-19313798Y-37852587D01*
X-19313799Y-37852588D01*
X-19384974Y-37939314D01*
X-19455546Y-38071344D01*
X-19482438Y-38159999D01*
X-19499002Y-38214604D01*
X-19502759Y-38252753D01*
X-19513676Y-38363590D01*
X-19509999Y-38400922D01*
X-19510000Y-50385198D01*
X-20214801Y-51090000D01*
X-21662678Y-51090000D01*
X-21700001Y-51086324D01*
X-21737324Y-51090000D01*
X-21737333Y-51090000D01*
X-21848986Y-51100997D01*
X-21992247Y-51144454D01*
X-22124276Y-51215026D01*
X-22240001Y-51309999D01*
X-22263800Y-51338998D01*
X-22616002Y-51691201D01*
X-22645000Y-51714999D01*
X-22668798Y-51743997D01*
X-22668799Y-51743998D01*
X-22739974Y-51830724D01*
X-22810546Y-51962754D01*
X-22822432Y-52001939D01*
X-22853388Y-52103992D01*
X-22854002Y-52106015D01*
X-22868676Y-52255000D01*
X-22864999Y-52292332D01*
X-22864999Y-52357023D01*
X-22910258Y-52412171D01*
X-22983084Y-52548418D01*
X-23027929Y-52696255D01*
X-23043072Y-52850000D01*
X-23043072Y-52912619D01*
X-23053992Y-52801746D01*
X-23104528Y-52635150D01*
X-23186595Y-52481614D01*
X-23297038Y-52347038D01*
X-23422309Y-52244231D01*
X-23404774Y-52201898D01*
X-23365000Y-52001939D01*
X-23365000Y-51798061D01*
X-23404774Y-51598102D01*
X-23482795Y-51409744D01*
X-23596063Y-51240226D01*
X-23740226Y-51096063D01*
X-23909744Y-50982795D01*
X-24098102Y-50904774D01*
X-24298061Y-50865000D01*
X-24501939Y-50865000D01*
X-24701898Y-50904774D01*
X-24890256Y-50982795D01*
X-25059774Y-51096063D01*
X-25203937Y-51240226D01*
X-25317205Y-51409744D01*
X-25395226Y-51598102D01*
X-25435000Y-51798061D01*
X-25435000Y-52001939D01*
X-25395226Y-52201898D01*
X-25377691Y-52244231D01*
X-25502962Y-52347038D01*
X-25613405Y-52481614D01*
X-25695472Y-52635150D01*
X-25746008Y-52801746D01*
X-25763072Y-52975000D01*
X-25763072Y-53650000D01*
X-25746008Y-53823254D01*
X-25695472Y-53989850D01*
X-25613405Y-54143386D01*
X-25502962Y-54277962D01*
X-25496406Y-54283342D01*
X-25576185Y-54348815D01*
X-25655537Y-54445506D01*
X-25714502Y-54555820D01*
X-25750812Y-54675518D01*
X-25763072Y-54800000D01*
X-25760000Y-55101750D01*
X-25601250Y-55260500D01*
X-24527000Y-55260500D01*
X-24527000Y-55240500D01*
X-24273000Y-55240500D01*
X-24273000Y-55260500D01*
X-23198750Y-55260500D01*
X-23040000Y-55101750D01*
X-23036928Y-54800000D01*
X-23049188Y-54675518D01*
X-23085498Y-54555820D01*
X-23144463Y-54445506D01*
X-23223815Y-54348815D01*
X-23303594Y-54283342D01*
X-23297038Y-54277962D01*
X-23186595Y-54143386D01*
X-23104528Y-53989850D01*
X-23053992Y-53823254D01*
X-23043072Y-53712381D01*
X-23043072Y-54500000D01*
X-23027929Y-54653745D01*
X-22983084Y-54801582D01*
X-22910258Y-54937829D01*
X-22812251Y-55057251D01*
X-22692829Y-55155258D01*
X-22556582Y-55228084D01*
X-22408745Y-55272929D01*
X-22255000Y-55288072D01*
X-21955000Y-55288072D01*
X-21801255Y-55272929D01*
X-21653418Y-55228084D01*
X-21519064Y-55156270D01*
X-21489494Y-55180537D01*
X-21379180Y-55239502D01*
X-21259482Y-55275812D01*
X-21135000Y-55288072D01*
X-21120750Y-55285000D01*
X-20962000Y-55126250D01*
X-20962000Y-53802000D01*
X-20982000Y-53802000D01*
X-20982000Y-53548000D01*
X-20962000Y-53548000D01*
X-20962000Y-53528000D01*
X-20708000Y-53528000D01*
X-20708000Y-53548000D01*
X-20688000Y-53548000D01*
X-20688000Y-53802000D01*
X-20708000Y-53802000D01*
X-20708000Y-55126250D01*
X-20568606Y-55265644D01*
X-20585000Y-55348061D01*
X-20585000Y-55551939D01*
X-20545226Y-55751898D01*
X-20467205Y-55940256D01*
X-20353937Y-56109774D01*
X-20209774Y-56253937D01*
X-20040256Y-56367205D01*
X-19851898Y-56445226D01*
X-19651939Y-56485000D01*
X-19448061Y-56485000D01*
X-19248102Y-56445226D01*
X-19059744Y-56367205D01*
X-18890226Y-56253937D01*
X-18746063Y-56109774D01*
X-18632795Y-55940256D01*
X-18554774Y-55751898D01*
X-18515000Y-55551939D01*
X-18515000Y-55348061D01*
X-18528570Y-55279841D01*
X-18445000Y-55288072D01*
X-18145000Y-55288072D01*
X-17991255Y-55272929D01*
X-17843418Y-55228084D01*
X-17707171Y-55155258D01*
X-17587749Y-55057251D01*
X-17489742Y-54937829D01*
X-17416916Y-54801582D01*
X-17372071Y-54653745D01*
X-17356928Y-54500000D01*
X-17356928Y-52917873D01*
X-16054273Y-54220529D01*
X-16177962Y-54322038D01*
X-16288405Y-54456613D01*
X-16370472Y-54610149D01*
X-16421008Y-54776745D01*
X-16438072Y-54949999D01*
X-16438072Y-55650001D01*
X-16421008Y-55823255D01*
X-16370472Y-55989851D01*
X-16288405Y-56143387D01*
X-16177962Y-56277962D01*
X-16151109Y-56300000D01*
X-16177962Y-56322038D01*
X-16288405Y-56456613D01*
X-16332976Y-56540000D01*
X-17957678Y-56540000D01*
X-17995001Y-56536324D01*
X-18032324Y-56540000D01*
X-18032333Y-56540000D01*
X-18143986Y-56550997D01*
X-18287247Y-56594454D01*
X-18419276Y-56665026D01*
X-18535001Y-56759999D01*
X-18558804Y-56789003D01*
X-18806002Y-57036201D01*
X-18835000Y-57059999D01*
X-18858798Y-57088997D01*
X-18858799Y-57088998D01*
X-18929974Y-57175724D01*
X-18932854Y-57181112D01*
X-18977171Y-57144742D01*
X-19113418Y-57071916D01*
X-19261255Y-57027071D01*
X-19415000Y-57011928D01*
X-19715000Y-57011928D01*
X-19868745Y-57027071D01*
X-20016582Y-57071916D01*
X-20152829Y-57144742D01*
X-20200000Y-57183454D01*
X-20247171Y-57144742D01*
X-20383418Y-57071916D01*
X-20531255Y-57027071D01*
X-20685000Y-57011928D01*
X-20985000Y-57011928D01*
X-21138745Y-57027071D01*
X-21286582Y-57071916D01*
X-21422829Y-57144742D01*
X-21470000Y-57183454D01*
X-21517171Y-57144742D01*
X-21653418Y-57071916D01*
X-21801255Y-57027071D01*
X-21955000Y-57011928D01*
X-22255000Y-57011928D01*
X-22408745Y-57027071D01*
X-22556582Y-57071916D01*
X-22692829Y-57144742D01*
X-22812251Y-57242749D01*
X-22910258Y-57362171D01*
X-22983084Y-57498418D01*
X-23027929Y-57646255D01*
X-23043072Y-57800000D01*
X-23043072Y-59450000D01*
X-23027929Y-59603745D01*
X-22983084Y-59751582D01*
X-22910258Y-59887829D01*
X-22812251Y-60007251D01*
X-22804152Y-60013898D01*
X-22893387Y-60061595D01*
X-23027962Y-60172038D01*
X-23138405Y-60306613D01*
X-23220472Y-60460149D01*
X-23271008Y-60626745D01*
X-23288072Y-60799999D01*
X-23288072Y-61700001D01*
X-23271008Y-61873255D01*
X-23220472Y-62039851D01*
X-23138405Y-62193387D01*
X-23027962Y-62327962D01*
X-22893387Y-62438405D01*
X-22809999Y-62482977D01*
X-22809999Y-63305197D01*
X-27156113Y-67651312D01*
X-27338665Y-67615000D01*
X-27621335Y-67615000D01*
X-27898574Y-67670147D01*
X-28159727Y-67778320D01*
X-28394759Y-67935363D01*
X-28594637Y-68135241D01*
X-28751680Y-68370273D01*
X-28811928Y-68515725D01*
X-28811928Y-68250000D01*
X-28824188Y-68125518D01*
X-28860498Y-68005820D01*
X-28919463Y-67895506D01*
X-28998815Y-67798815D01*
X-29095506Y-67719463D01*
X-29205820Y-67660498D01*
X-29325518Y-67624188D01*
X-29450000Y-67611928D01*
X-31050000Y-67611928D01*
X-31174482Y-67624188D01*
X-31294180Y-67660498D01*
X-31404494Y-67719463D01*
X-31501185Y-67798815D01*
X-31580537Y-67895506D01*
X-31639502Y-68005820D01*
X-31675812Y-68125518D01*
X-31688072Y-68250000D01*
X-31688072Y-69850000D01*
X-31675812Y-69974482D01*
X-31639502Y-70094180D01*
X-31580537Y-70204494D01*
X-31501185Y-70301185D01*
X-31404494Y-70380537D01*
X-31294180Y-70439502D01*
X-31174482Y-70475812D01*
X-31050000Y-70488072D01*
X-29450000Y-70488072D01*
X-29325518Y-70475812D01*
X-29205820Y-70439502D01*
X-29095506Y-70380537D01*
X-28998815Y-70301185D01*
X-28919463Y-70204494D01*
X-28860498Y-70094180D01*
X-28824188Y-69974482D01*
X-28811928Y-69850000D01*
X-28811928Y-69584275D01*
X-28751680Y-69729727D01*
X-28594637Y-69964759D01*
X-28394759Y-70164637D01*
X-28159727Y-70321680D01*
X-27898574Y-70429853D01*
X-27621335Y-70485000D01*
X-27338665Y-70485000D01*
X-27061426Y-70429853D01*
X-26855000Y-70344348D01*
X-26855000Y-70671956D01*
X-27009759Y-70775363D01*
X-27209637Y-70975241D01*
X-27366680Y-71210273D01*
X-27474853Y-71471426D01*
X-27480000Y-71497301D01*
X-27485147Y-71471426D01*
X-27593320Y-71210273D01*
X-27750363Y-70975241D01*
X-27950241Y-70775363D01*
X-28185273Y-70618320D01*
X-28446426Y-70510147D01*
X-28723665Y-70455000D01*
X-29006335Y-70455000D01*
X-29283574Y-70510147D01*
X-29544727Y-70618320D01*
X-29779759Y-70775363D01*
X-29979637Y-70975241D01*
X-30136680Y-71210273D01*
X-30244853Y-71471426D01*
X-30300000Y-71748665D01*
X-30300000Y-72031335D01*
X-30244853Y-72308574D01*
X-30136680Y-72569727D01*
X-29979637Y-72804759D01*
X-29779759Y-73004637D01*
X-29544727Y-73161680D01*
X-29283574Y-73269853D01*
X-29006335Y-73325000D01*
X-28723665Y-73325000D01*
X-28446426Y-73269853D01*
X-28185273Y-73161680D01*
X-27950241Y-73004637D01*
X-27750363Y-72804759D01*
X-27593320Y-72569727D01*
X-27485147Y-72308574D01*
X-27480000Y-72282699D01*
X-27474853Y-72308574D01*
X-27366680Y-72569727D01*
X-27209637Y-72804759D01*
X-27009759Y-73004637D01*
X-26774727Y-73161680D01*
X-26513574Y-73269853D01*
X-26236335Y-73325000D01*
X-25953665Y-73325000D01*
X-25676426Y-73269853D01*
X-25415273Y-73161680D01*
X-25180241Y-73004637D01*
X-24980363Y-72804759D01*
X-24823320Y-72569727D01*
X-24715147Y-72308574D01*
X-24710000Y-72282699D01*
X-24704853Y-72308574D01*
X-24596680Y-72569727D01*
X-24439637Y-72804759D01*
X-24239759Y-73004637D01*
X-24004727Y-73161680D01*
X-23743574Y-73269853D01*
X-23466335Y-73325000D01*
X-23183665Y-73325000D01*
X-22906426Y-73269853D01*
X-22645273Y-73161680D01*
X-22410241Y-73004637D01*
X-22210363Y-72804759D01*
X-22053320Y-72569727D01*
X-21945147Y-72308574D01*
X-21940000Y-72282699D01*
X-21934853Y-72308574D01*
X-21826680Y-72569727D01*
X-21669637Y-72804759D01*
X-21469759Y-73004637D01*
X-21234727Y-73161680D01*
X-20973574Y-73269853D01*
X-20696335Y-73325000D01*
X-20413665Y-73325000D01*
X-20136426Y-73269853D01*
X-19875273Y-73161680D01*
X-19640241Y-73004637D01*
X-19440363Y-72804759D01*
X-19283320Y-72569727D01*
X-19175147Y-72308574D01*
X-19120000Y-72031335D01*
X-19120000Y-71748665D01*
X-19175147Y-71471426D01*
X-19283320Y-71210273D01*
X-19440363Y-70975241D01*
X-19640241Y-70775363D01*
X-19875273Y-70618320D01*
X-20136426Y-70510147D01*
X-20413665Y-70455000D01*
X-20696335Y-70455000D01*
X-20973574Y-70510147D01*
X-21234727Y-70618320D01*
X-21469759Y-70775363D01*
X-21669637Y-70975241D01*
X-21826680Y-71210273D01*
X-21934853Y-71471426D01*
X-21940000Y-71497301D01*
X-21945147Y-71471426D01*
X-22053320Y-71210273D01*
X-22210363Y-70975241D01*
X-22410241Y-70775363D01*
X-22645273Y-70618320D01*
X-22906426Y-70510147D01*
X-23183665Y-70455000D01*
X-23466335Y-70455000D01*
X-23743574Y-70510147D01*
X-24004727Y-70618320D01*
X-24239759Y-70775363D01*
X-24439637Y-70975241D01*
X-24596680Y-71210273D01*
X-24704853Y-71471426D01*
X-24710000Y-71497301D01*
X-24715147Y-71471426D01*
X-24823320Y-71210273D01*
X-24980363Y-70975241D01*
X-25180241Y-70775363D01*
X-25335000Y-70671957D01*
X-25335000Y-70344349D01*
X-25128574Y-70429853D01*
X-24851335Y-70485000D01*
X-24568665Y-70485000D01*
X-24291426Y-70429853D01*
X-24030273Y-70321680D01*
X-23795241Y-70164637D01*
X-23595363Y-69964759D01*
X-23438320Y-69729727D01*
X-23330147Y-69468574D01*
X-23325000Y-69442699D01*
X-23319853Y-69468574D01*
X-23211680Y-69729727D01*
X-23054637Y-69964759D01*
X-22854759Y-70164637D01*
X-22619727Y-70321680D01*
X-22358574Y-70429853D01*
X-22081335Y-70485000D01*
X-21798665Y-70485000D01*
X-21521426Y-70429853D01*
X-21260273Y-70321680D01*
X-21025241Y-70164637D01*
X-20825363Y-69964759D01*
X-20668320Y-69729727D01*
X-20560147Y-69468574D01*
X-20555000Y-69442699D01*
X-20549853Y-69468574D01*
X-20441680Y-69729727D01*
X-20284637Y-69964759D01*
X-20084759Y-70164637D01*
X-19849727Y-70321680D01*
X-19588574Y-70429853D01*
X-19311335Y-70485000D01*
X-19028665Y-70485000D01*
X-18751426Y-70429853D01*
X-18490273Y-70321680D01*
X-18323843Y-70210475D01*
X-14845000Y-70210475D01*
X-14845000Y-70729525D01*
X-14743739Y-71238601D01*
X-14545107Y-71718141D01*
X-14256738Y-72149715D01*
X-13889715Y-72516738D01*
X-13458141Y-72805107D01*
X-12978601Y-73003739D01*
X-12469525Y-73105000D01*
X-11950475Y-73105000D01*
X-11441399Y-73003739D01*
X-10961859Y-72805107D01*
X-10530285Y-72516738D01*
X-10163262Y-72149715D01*
X-9874893Y-71718141D01*
X-9676261Y-71238601D01*
X-9575000Y-70729525D01*
X-9575000Y-70210475D01*
X-9676261Y-69701399D01*
X-9874893Y-69221859D01*
X-10163262Y-68790285D01*
X-10530285Y-68423262D01*
X-10961859Y-68134893D01*
X-11441399Y-67936261D01*
X-11950475Y-67835000D01*
X-12469525Y-67835000D01*
X-12978601Y-67936261D01*
X-13458141Y-68134893D01*
X-13889715Y-68423262D01*
X-14256738Y-68790285D01*
X-14545107Y-69221859D01*
X-14743739Y-69701399D01*
X-14845000Y-70210475D01*
X-18323843Y-70210475D01*
X-18255241Y-70164637D01*
X-18055363Y-69964759D01*
X-17898320Y-69729727D01*
X-17790147Y-69468574D01*
X-17735000Y-69191335D01*
X-17735000Y-68908665D01*
X-17790147Y-68631426D01*
X-17898320Y-68370273D01*
X-18055363Y-68135241D01*
X-18255241Y-67935363D01*
X-18490273Y-67778320D01*
X-18751426Y-67670147D01*
X-19028665Y-67615000D01*
X-19311335Y-67615000D01*
X-19588574Y-67670147D01*
X-19849727Y-67778320D01*
X-20084759Y-67935363D01*
X-20284637Y-68135241D01*
X-20441680Y-68370273D01*
X-20549853Y-68631426D01*
X-20555000Y-68657301D01*
X-20560147Y-68631426D01*
X-20668320Y-68370273D01*
X-20825363Y-68135241D01*
X-21025241Y-67935363D01*
X-21260273Y-67778320D01*
X-21521426Y-67670147D01*
X-21798665Y-67615000D01*
X-22081335Y-67615000D01*
X-22358574Y-67670147D01*
X-22619727Y-67778320D01*
X-22854759Y-67935363D01*
X-23054637Y-68135241D01*
X-23211680Y-68370273D01*
X-23319853Y-68631426D01*
X-23325000Y-68657301D01*
X-23330147Y-68631426D01*
X-23438320Y-68370273D01*
X-23595363Y-68135241D01*
X-23795241Y-67935363D01*
X-24030273Y-67778320D01*
X-24291426Y-67670147D01*
X-24372758Y-67653969D01*
X-20464006Y-63745218D01*
X-20435009Y-63721421D01*
X-20340036Y-63605696D01*
X-20269464Y-63473667D01*
X-20226007Y-63330406D01*
X-20215010Y-63218753D01*
X-20215010Y-63218744D01*
X-20211334Y-63181421D01*
X-20215010Y-63144098D01*
X-20215010Y-62588072D01*
X-19786730Y-62588072D01*
X-19763799Y-62611003D01*
X-19740001Y-62640001D01*
X-19624276Y-62734974D01*
X-19492247Y-62805546D01*
X-19348986Y-62849003D01*
X-19274655Y-62856324D01*
X-19200000Y-62863677D01*
X-19162667Y-62860000D01*
X-18218178Y-62860000D01*
X-18093475Y-63046632D01*
X-17886632Y-63253475D01*
X-17643411Y-63415990D01*
X-17373158Y-63527932D01*
X-17086260Y-63585000D01*
X-16793740Y-63585000D01*
X-16506842Y-63527932D01*
X-16236589Y-63415990D01*
X-15993368Y-63253475D01*
X-15861513Y-63121620D01*
X-15839502Y-63194180D01*
X-15780537Y-63304494D01*
X-15701185Y-63401185D01*
X-15604494Y-63480537D01*
X-15494180Y-63539502D01*
X-15374482Y-63575812D01*
X-15250000Y-63588072D01*
X-13550000Y-63588072D01*
X-13425518Y-63575812D01*
X-13305820Y-63539502D01*
X-13195506Y-63480537D01*
X-13098815Y-63401185D01*
X-13019463Y-63304494D01*
X-12960498Y-63194180D01*
X-12924188Y-63074482D01*
X-12911928Y-62950000D01*
X-12911928Y-61250000D01*
X-12924188Y-61125518D01*
X-12960498Y-61005820D01*
X-13019463Y-60895506D01*
X-13098815Y-60798815D01*
X-13195506Y-60719463D01*
X-13305820Y-60660498D01*
X-13425518Y-60624188D01*
X-13550000Y-60611928D01*
X-14813271Y-60611928D01*
X-15011197Y-60414002D01*
X-15035000Y-60384998D01*
X-15150725Y-60290025D01*
X-15282754Y-60219453D01*
X-15426015Y-60175996D01*
X-15537668Y-60164999D01*
X-15537679Y-60164999D01*
X-15575001Y-60161323D01*
X-15612323Y-60164999D01*
X-17818938Y-60164999D01*
X-17707171Y-60105258D01*
X-17587749Y-60007251D01*
X-17489742Y-59887829D01*
X-17416916Y-59751582D01*
X-17372071Y-59603745D01*
X-17356928Y-59450000D01*
X-17356928Y-58060000D01*
X-16332976Y-58060000D01*
X-16288405Y-58143387D01*
X-16177962Y-58277962D01*
X-16043387Y-58388405D01*
X-15889851Y-58470472D01*
X-15723255Y-58521008D01*
X-15550001Y-58538072D01*
X-14649999Y-58538072D01*
X-14476745Y-58521008D01*
X-14310149Y-58470472D01*
X-14156613Y-58388405D01*
X-14022038Y-58277962D01*
X-13911595Y-58143387D01*
X-13829528Y-57989851D01*
X-13778992Y-57823255D01*
X-13761928Y-57650001D01*
X-13761928Y-56949999D01*
X-13778992Y-56776745D01*
X-13829528Y-56610149D01*
X-13911595Y-56456613D01*
X-14022038Y-56322038D01*
X-14048891Y-56300000D01*
X-14022038Y-56277962D01*
X-13911595Y-56143387D01*
X-13829528Y-55989851D01*
X-13778992Y-55823255D01*
X-13761928Y-55650001D01*
X-13761928Y-54949999D01*
X-13778992Y-54776745D01*
X-13829528Y-54610149D01*
X-13911595Y-54456613D01*
X-14022038Y-54322038D01*
X-14156613Y-54211595D01*
X-14310149Y-54129528D01*
X-14338388Y-54120962D01*
X-14336323Y-54100000D01*
X-14350997Y-53951014D01*
X-14394454Y-53807753D01*
X-14465026Y-53675724D01*
X-14536201Y-53588997D01*
X-14559999Y-53559999D01*
X-14588997Y-53536201D01*
X-17040000Y-51085199D01*
X-17040000Y-48500000D01*
X-11888072Y-48500000D01*
X-11875812Y-48624482D01*
X-11839502Y-48744180D01*
X-11780537Y-48854494D01*
X-11701185Y-48951185D01*
X-11604494Y-49030537D01*
X-11494180Y-49089502D01*
X-11374482Y-49125812D01*
X-11250000Y-49138072D01*
X-10835750Y-49135000D01*
X-10677000Y-48976250D01*
X-10677000Y-48027000D01*
X-10423000Y-48027000D01*
X-10423000Y-48976250D01*
X-10264250Y-49135000D01*
X-9850000Y-49138072D01*
X-9725518Y-49125812D01*
X-9605820Y-49089502D01*
X-9495506Y-49030537D01*
X-9398815Y-48951185D01*
X-9319463Y-48854494D01*
X-9260498Y-48744180D01*
X-9224188Y-48624482D01*
X-9211928Y-48500000D01*
X-9215000Y-48185750D01*
X-9373750Y-48027000D01*
X-10423000Y-48027000D01*
X-10677000Y-48027000D01*
X-11726250Y-48027000D01*
X-11885000Y-48185750D01*
X-11888072Y-48500000D01*
X-17040000Y-48500000D01*
X-17040000Y-39014801D01*
X-16185200Y-38160003D01*
X-10703711Y-38160003D01*
X-10659774Y-38203940D01*
X-10490256Y-38317208D01*
X-10301898Y-38395229D01*
X-10101939Y-38435003D01*
X-9898061Y-38435003D01*
X-9698102Y-38395229D01*
X-9509744Y-38317208D01*
X-9340226Y-38203940D01*
X-9196063Y-38059777D01*
X-9160000Y-38005804D01*
X-9159999Y-43785670D01*
X-9163676Y-43823002D01*
X-9149002Y-43971987D01*
X-9105546Y-44115248D01*
X-9034974Y-44247278D01*
X-9004037Y-44284974D01*
X-8940000Y-44363003D01*
X-8911002Y-44386801D01*
X-8692804Y-44604999D01*
X-9977674Y-44604999D01*
X-10014999Y-44601323D01*
X-10052324Y-44604999D01*
X-10052332Y-44604999D01*
X-10163985Y-44615996D01*
X-10307246Y-44659453D01*
X-10311876Y-44661928D01*
X-11000001Y-44661928D01*
X-11173255Y-44678992D01*
X-11339851Y-44729528D01*
X-11493387Y-44811595D01*
X-11627962Y-44922038D01*
X-11738405Y-45056613D01*
X-11820472Y-45210149D01*
X-11871008Y-45376745D01*
X-11888072Y-45549999D01*
X-11888072Y-46250001D01*
X-11871008Y-46423255D01*
X-11820472Y-46589851D01*
X-11738405Y-46743387D01*
X-11671724Y-46824637D01*
X-11701185Y-46848815D01*
X-11780537Y-46945506D01*
X-11839502Y-47055820D01*
X-11875812Y-47175518D01*
X-11888072Y-47300000D01*
X-11885000Y-47614250D01*
X-11726250Y-47773000D01*
X-10677000Y-47773000D01*
X-10677000Y-47753000D01*
X-10423000Y-47753000D01*
X-10423000Y-47773000D01*
X-9373750Y-47773000D01*
X-9215000Y-47614250D01*
X-9211928Y-47300000D01*
X-9224188Y-47175518D01*
X-9260498Y-47055820D01*
X-9319463Y-46945506D01*
X-9398815Y-46848815D01*
X-9428276Y-46824637D01*
X-9361595Y-46743387D01*
X-9279528Y-46589851D01*
X-9228992Y-46423255D01*
X-9211928Y-46250001D01*
X-9211928Y-46124999D01*
X-7171544Y-46124999D01*
X-7225000Y-46393740D01*
X-7225000Y-46686260D01*
X-7167932Y-46973158D01*
X-7055990Y-47243411D01*
X-6893475Y-47486632D01*
X-6686632Y-47693475D01*
X-6512240Y-47810000D01*
X-6686632Y-47926525D01*
X-6893475Y-48133368D01*
X-7055990Y-48376589D01*
X-7167932Y-48646842D01*
X-7225000Y-48933740D01*
X-7225000Y-49226260D01*
X-7167932Y-49513158D01*
X-7055990Y-49783411D01*
X-6893475Y-50026632D01*
X-6686632Y-50233475D01*
X-6512240Y-50350000D01*
X-6686632Y-50466525D01*
X-6893475Y-50673368D01*
X-7055990Y-50916589D01*
X-7167932Y-51186842D01*
X-7225000Y-51473740D01*
X-7225000Y-51766260D01*
X-7167932Y-52053158D01*
X-7055990Y-52323411D01*
X-6893475Y-52566632D01*
X-6686632Y-52773475D01*
X-6512240Y-52890000D01*
X-6686632Y-53006525D01*
X-6893475Y-53213368D01*
X-7055990Y-53456589D01*
X-7167932Y-53726842D01*
X-7225000Y-54013740D01*
X-7225000Y-54306260D01*
X-7167932Y-54593158D01*
X-7055990Y-54863411D01*
X-6893475Y-55106632D01*
X-6686632Y-55313475D01*
X-6512240Y-55430000D01*
X-6686632Y-55546525D01*
X-6893475Y-55753368D01*
X-7055990Y-55996589D01*
X-7167932Y-56266842D01*
X-7225000Y-56553740D01*
X-7225000Y-56846260D01*
X-7167932Y-57133158D01*
X-7055990Y-57403411D01*
X-6893475Y-57646632D01*
X-6686632Y-57853475D01*
X-6512240Y-57970000D01*
X-6686632Y-58086525D01*
X-6893475Y-58293368D01*
X-7055990Y-58536589D01*
X-7167932Y-58806842D01*
X-7225000Y-59093740D01*
X-7225000Y-59386260D01*
X-7167932Y-59673158D01*
X-7055990Y-59943411D01*
X-6893475Y-60186632D01*
X-6686632Y-60393475D01*
X-6512240Y-60510000D01*
X-6686632Y-60626525D01*
X-6893475Y-60833368D01*
X-7055990Y-61076589D01*
X-7167932Y-61346842D01*
X-7225000Y-61633740D01*
X-7225000Y-61926260D01*
X-7167932Y-62213158D01*
X-7055990Y-62483411D01*
X-6893475Y-62726632D01*
X-6686632Y-62933475D01*
X-6512240Y-63050000D01*
X-6686632Y-63166525D01*
X-6893475Y-63373368D01*
X-7055990Y-63616589D01*
X-7167932Y-63886842D01*
X-7225000Y-64173740D01*
X-7225000Y-64466260D01*
X-7167932Y-64753158D01*
X-7055990Y-65023411D01*
X-6893475Y-65266632D01*
X-6686632Y-65473475D01*
X-6512240Y-65590000D01*
X-6686632Y-65706525D01*
X-6893475Y-65913368D01*
X-7055990Y-66156589D01*
X-7167932Y-66426842D01*
X-7225000Y-66713740D01*
X-7225000Y-67006260D01*
X-7167932Y-67293158D01*
X-7055990Y-67563411D01*
X-6893475Y-67806632D01*
X-6686632Y-68013475D01*
X-6512240Y-68130000D01*
X-6686632Y-68246525D01*
X-6893475Y-68453368D01*
X-7055990Y-68696589D01*
X-7167932Y-68966842D01*
X-7225000Y-69253740D01*
X-7225000Y-69546260D01*
X-7167932Y-69833158D01*
X-7055990Y-70103411D01*
X-6893475Y-70346632D01*
X-6686632Y-70553475D01*
X-6512240Y-70670000D01*
X-6686632Y-70786525D01*
X-6893475Y-70993368D01*
X-7055990Y-71236589D01*
X-7167932Y-71506842D01*
X-7225000Y-71793740D01*
X-7225000Y-72086260D01*
X-7167932Y-72373158D01*
X-7055990Y-72643411D01*
X-6893475Y-72886632D01*
X-6686632Y-73093475D01*
X-6512240Y-73210000D01*
X-6686632Y-73326525D01*
X-6893475Y-73533368D01*
X-7055990Y-73776589D01*
X-7167932Y-74046842D01*
X-7225000Y-74333740D01*
X-7225000Y-74626260D01*
X-7167932Y-74913158D01*
X-7055990Y-75183411D01*
X-6893475Y-75426632D01*
X-6686632Y-75633475D01*
X-6512240Y-75750000D01*
X-6686632Y-75866525D01*
X-6893475Y-76073368D01*
X-7055990Y-76316589D01*
X-7167932Y-76586842D01*
X-7225000Y-76873740D01*
X-7225000Y-77166260D01*
X-7167932Y-77453158D01*
X-7055990Y-77723411D01*
X-6893475Y-77966632D01*
X-6686632Y-78173475D01*
X-6443411Y-78335990D01*
X-6173158Y-78447932D01*
X-5886260Y-78505000D01*
X-5593740Y-78505000D01*
X-5306842Y-78447932D01*
X-5036589Y-78335990D01*
X-4793368Y-78173475D01*
X-4586525Y-77966632D01*
X-4470000Y-77792240D01*
X-4353475Y-77966632D01*
X-4146632Y-78173475D01*
X-3903411Y-78335990D01*
X-3633158Y-78447932D01*
X-3346260Y-78505000D01*
X-3053740Y-78505000D01*
X-2766842Y-78447932D01*
X-2496589Y-78335990D01*
X-2253368Y-78173475D01*
X-2046525Y-77966632D01*
X-1884010Y-77723411D01*
X-1772068Y-77453158D01*
X-1715000Y-77166260D01*
X-1715000Y-76873740D01*
X-1772068Y-76586842D01*
X-1884010Y-76316589D01*
X-2046525Y-76073368D01*
X-2253368Y-75866525D01*
X-2427760Y-75750000D01*
X-2253368Y-75633475D01*
X-2046525Y-75426632D01*
X-1884010Y-75183411D01*
X-1772068Y-74913158D01*
X-1715000Y-74626260D01*
X-1715000Y-74333740D01*
X-1772068Y-74046842D01*
X-1884010Y-73776589D01*
X-2046525Y-73533368D01*
X-2253368Y-73326525D01*
X-2427760Y-73210000D01*
X-2253368Y-73093475D01*
X-2046525Y-72886632D01*
X-1884010Y-72643411D01*
X-1772068Y-72373158D01*
X-1715000Y-72086260D01*
X-1715000Y-71793740D01*
X-1758790Y-71573592D01*
X-1319999Y-71134801D01*
X-1319999Y-76987711D01*
X-1358909Y-77384545D01*
X-1464780Y-77735206D01*
X-1636743Y-78058623D01*
X-1868252Y-78342482D01*
X-2150486Y-78575965D01*
X-2472696Y-78750184D01*
X-2822615Y-78858502D01*
X-3217443Y-78900000D01*
X-66667721Y-78900000D01*
X-67064545Y-78861091D01*
X-67415206Y-78755220D01*
X-67738623Y-78583257D01*
X-68022482Y-78351748D01*
X-68255965Y-78069514D01*
X-68430184Y-77747304D01*
X-68538502Y-77397385D01*
X-68580000Y-77002557D01*
X-68580000Y-55894801D01*
X-68141209Y-56333592D01*
X-68185000Y-56553740D01*
X-68185000Y-56846260D01*
X-68127932Y-57133158D01*
X-68015990Y-57403411D01*
X-67853475Y-57646632D01*
X-67646632Y-57853475D01*
X-67472240Y-57970000D01*
X-67646632Y-58086525D01*
X-67853475Y-58293368D01*
X-68015990Y-58536589D01*
X-68127932Y-58806842D01*
X-68185000Y-59093740D01*
X-68185000Y-59386260D01*
X-68127932Y-59673158D01*
X-68015990Y-59943411D01*
X-67853475Y-60186632D01*
X-67646632Y-60393475D01*
X-67472240Y-60510000D01*
X-67646632Y-60626525D01*
X-67853475Y-60833368D01*
X-68015990Y-61076589D01*
X-68127932Y-61346842D01*
X-68185000Y-61633740D01*
X-68185000Y-61926260D01*
X-68127932Y-62213158D01*
X-68015990Y-62483411D01*
X-67853475Y-62726632D01*
X-67646632Y-62933475D01*
X-67472240Y-63050000D01*
X-67646632Y-63166525D01*
X-67853475Y-63373368D01*
X-68015990Y-63616589D01*
X-68127932Y-63886842D01*
X-68185000Y-64173740D01*
X-68185000Y-64466260D01*
X-68127932Y-64753158D01*
X-68015990Y-65023411D01*
X-67853475Y-65266632D01*
X-67646632Y-65473475D01*
X-67472240Y-65590000D01*
X-67646632Y-65706525D01*
X-67853475Y-65913368D01*
X-68015990Y-66156589D01*
X-68127932Y-66426842D01*
X-68185000Y-66713740D01*
X-68185000Y-67006260D01*
X-68127932Y-67293158D01*
X-68015990Y-67563411D01*
X-67853475Y-67806632D01*
X-67646632Y-68013475D01*
X-67472240Y-68130000D01*
X-67646632Y-68246525D01*
X-67853475Y-68453368D01*
X-68015990Y-68696589D01*
X-68127932Y-68966842D01*
X-68185000Y-69253740D01*
X-68185000Y-69546260D01*
X-68127932Y-69833158D01*
X-68015990Y-70103411D01*
X-67853475Y-70346632D01*
X-67646632Y-70553475D01*
X-67472240Y-70670000D01*
X-67646632Y-70786525D01*
X-67853475Y-70993368D01*
X-68015990Y-71236589D01*
X-68127932Y-71506842D01*
X-68185000Y-71793740D01*
X-68185000Y-72086260D01*
X-68127932Y-72373158D01*
X-68015990Y-72643411D01*
X-67853475Y-72886632D01*
X-67646632Y-73093475D01*
X-67472240Y-73210000D01*
X-67646632Y-73326525D01*
X-67853475Y-73533368D01*
X-68015990Y-73776589D01*
X-68127932Y-74046842D01*
X-68185000Y-74333740D01*
X-68185000Y-74626260D01*
X-68127932Y-74913158D01*
X-68015990Y-75183411D01*
X-67853475Y-75426632D01*
X-67646632Y-75633475D01*
X-67472240Y-75750000D01*
X-67646632Y-75866525D01*
X-67853475Y-76073368D01*
X-68015990Y-76316589D01*
X-68127932Y-76586842D01*
X-68185000Y-76873740D01*
X-68185000Y-77166260D01*
X-68127932Y-77453158D01*
X-68015990Y-77723411D01*
X-67853475Y-77966632D01*
X-67646632Y-78173475D01*
X-67403411Y-78335990D01*
X-67133158Y-78447932D01*
X-66846260Y-78505000D01*
X-66553740Y-78505000D01*
X-66266842Y-78447932D01*
X-65996589Y-78335990D01*
X-65753368Y-78173475D01*
X-65546525Y-77966632D01*
X-65430000Y-77792240D01*
X-65313475Y-77966632D01*
X-65106632Y-78173475D01*
X-64863411Y-78335990D01*
X-64593158Y-78447932D01*
X-64306260Y-78505000D01*
X-64013740Y-78505000D01*
X-63726842Y-78447932D01*
X-63456589Y-78335990D01*
X-63213368Y-78173475D01*
X-63006525Y-77966632D01*
X-62844010Y-77723411D01*
X-62732068Y-77453158D01*
X-62675000Y-77166260D01*
X-62675000Y-76873740D01*
X-62718791Y-76653592D01*
X-62415199Y-76350000D01*
X-60688072Y-76350000D01*
X-60675812Y-76474482D01*
X-60639502Y-76594180D01*
X-60580537Y-76704494D01*
X-60501185Y-76801185D01*
X-60404494Y-76880537D01*
X-60294180Y-76939502D01*
X-60174482Y-76975812D01*
X-60050000Y-76988072D01*
X-59485750Y-76985000D01*
X-59327000Y-76826250D01*
X-59327000Y-75627000D01*
X-59073000Y-75627000D01*
X-59073000Y-76826250D01*
X-58914250Y-76985000D01*
X-58350000Y-76988072D01*
X-58225518Y-76975812D01*
X-58105820Y-76939502D01*
X-57995506Y-76880537D01*
X-57898815Y-76801185D01*
X-57819463Y-76704494D01*
X-57760498Y-76594180D01*
X-57724188Y-76474482D01*
X-57711928Y-76350000D01*
X-57715000Y-75785750D01*
X-57873750Y-75627000D01*
X-59073000Y-75627000D01*
X-59327000Y-75627000D01*
X-60526250Y-75627000D01*
X-60685000Y-75785750D01*
X-60688072Y-76350000D01*
X-62415199Y-76350000D01*
X-61588997Y-75523799D01*
X-61559999Y-75500001D01*
X-61533668Y-75467917D01*
X-61465026Y-75384277D01*
X-61394454Y-75252247D01*
X-61374221Y-75185546D01*
X-61350997Y-75108986D01*
X-61340000Y-74997333D01*
X-61340000Y-74997323D01*
X-61336324Y-74960000D01*
X-61340000Y-74922677D01*
X-61340000Y-73634801D01*
X-60685000Y-72979801D01*
X-60685000Y-73106260D01*
X-60627932Y-73393158D01*
X-60515990Y-73663411D01*
X-60353475Y-73906632D01*
X-60221620Y-74038487D01*
X-60294180Y-74060498D01*
X-60404494Y-74119463D01*
X-60501185Y-74198815D01*
X-60580537Y-74295506D01*
X-60639502Y-74405820D01*
X-60675812Y-74525518D01*
X-60688072Y-74650000D01*
X-60685000Y-75214250D01*
X-60526250Y-75373000D01*
X-59327000Y-75373000D01*
X-59327000Y-75353000D01*
X-59073000Y-75353000D01*
X-59073000Y-75373000D01*
X-57873750Y-75373000D01*
X-57715000Y-75214250D01*
X-57711928Y-74650000D01*
X-57724188Y-74525518D01*
X-57760498Y-74405820D01*
X-57819463Y-74295506D01*
X-57898815Y-74198815D01*
X-57995506Y-74119463D01*
X-58105820Y-74060498D01*
X-58178380Y-74038487D01*
X-58046525Y-73906632D01*
X-57884010Y-73663411D01*
X-57772068Y-73393158D01*
X-57715000Y-73106260D01*
X-57715000Y-72813740D01*
X-57772068Y-72526842D01*
X-57884010Y-72256589D01*
X-58046525Y-72013368D01*
X-58253368Y-71806525D01*
X-58427760Y-71690000D01*
X-58253368Y-71573475D01*
X-58046525Y-71366632D01*
X-57884010Y-71123411D01*
X-57772068Y-70853158D01*
X-57715000Y-70566260D01*
X-57715000Y-70273740D01*
X-57727584Y-70210475D01*
X-39845000Y-70210475D01*
X-39845000Y-70729525D01*
X-39743739Y-71238601D01*
X-39545107Y-71718141D01*
X-39256738Y-72149715D01*
X-38889715Y-72516738D01*
X-38458141Y-72805107D01*
X-37978601Y-73003739D01*
X-37469525Y-73105000D01*
X-36950475Y-73105000D01*
X-36441399Y-73003739D01*
X-35961859Y-72805107D01*
X-35530285Y-72516738D01*
X-35163262Y-72149715D01*
X-34874893Y-71718141D01*
X-34676261Y-71238601D01*
X-34575000Y-70729525D01*
X-34575000Y-70210475D01*
X-34676261Y-69701399D01*
X-34874893Y-69221859D01*
X-35163262Y-68790285D01*
X-35530285Y-68423262D01*
X-35961859Y-68134893D01*
X-36441399Y-67936261D01*
X-36950475Y-67835000D01*
X-37469525Y-67835000D01*
X-37978601Y-67936261D01*
X-38458141Y-68134893D01*
X-38889715Y-68423262D01*
X-39256738Y-68790285D01*
X-39545107Y-69221859D01*
X-39743739Y-69701399D01*
X-39845000Y-70210475D01*
X-57727584Y-70210475D01*
X-57772068Y-69986842D01*
X-57884010Y-69716589D01*
X-58046525Y-69473368D01*
X-58253368Y-69266525D01*
X-58427760Y-69150000D01*
X-58253368Y-69033475D01*
X-58046525Y-68826632D01*
X-57884010Y-68583411D01*
X-57772068Y-68313158D01*
X-57715000Y-68026260D01*
X-57715000Y-67733740D01*
X-57772068Y-67446842D01*
X-57884010Y-67176589D01*
X-58046525Y-66933368D01*
X-58253368Y-66726525D01*
X-58427760Y-66610000D01*
X-58253368Y-66493475D01*
X-58046525Y-66286632D01*
X-57884010Y-66043411D01*
X-57772068Y-65773158D01*
X-57715000Y-65486260D01*
X-57715000Y-65193740D01*
X-57772068Y-64906842D01*
X-57884010Y-64636589D01*
X-58046525Y-64393368D01*
X-58253368Y-64186525D01*
X-58496589Y-64024010D01*
X-58766842Y-63912068D01*
X-59053740Y-63855000D01*
X-59346260Y-63855000D01*
X-59633158Y-63912068D01*
X-59903411Y-64024010D01*
X-60146632Y-64186525D01*
X-60353475Y-64393368D01*
X-60515990Y-64636589D01*
X-60627932Y-64906842D01*
X-60640000Y-64967511D01*
X-60640000Y-55975000D01*
X-25763072Y-55975000D01*
X-25750812Y-56099482D01*
X-25714502Y-56219180D01*
X-25655537Y-56329494D01*
X-25576185Y-56426185D01*
X-25479494Y-56505537D01*
X-25369180Y-56564502D01*
X-25249482Y-56600812D01*
X-25125000Y-56613072D01*
X-24685750Y-56610000D01*
X-24527000Y-56451250D01*
X-24527000Y-55514500D01*
X-24273000Y-55514500D01*
X-24273000Y-56451250D01*
X-24114250Y-56610000D01*
X-23675000Y-56613072D01*
X-23550518Y-56600812D01*
X-23430820Y-56564502D01*
X-23320506Y-56505537D01*
X-23223815Y-56426185D01*
X-23144463Y-56329494D01*
X-23085498Y-56219180D01*
X-23049188Y-56099482D01*
X-23036928Y-55975000D01*
X-23040000Y-55673250D01*
X-23198750Y-55514500D01*
X-24273000Y-55514500D01*
X-24527000Y-55514500D01*
X-25601250Y-55514500D01*
X-25760000Y-55673250D01*
X-25763072Y-55975000D01*
X-60640000Y-55975000D01*
X-60640000Y-51514801D01*
X-57285198Y-48160000D01*
X-55378072Y-48160000D01*
X-55378072Y-48900000D01*
X-55365812Y-49024482D01*
X-55329502Y-49144180D01*
X-55270537Y-49254494D01*
X-55191185Y-49351185D01*
X-55094494Y-49430537D01*
X-54984180Y-49489502D01*
X-54864482Y-49525812D01*
X-54740000Y-49538072D01*
X-51740000Y-49538072D01*
X-51615518Y-49525812D01*
X-51495820Y-49489502D01*
X-51385506Y-49430537D01*
X-51288815Y-49351185D01*
X-51209463Y-49254494D01*
X-51150498Y-49144180D01*
X-51114188Y-49024482D01*
X-51101928Y-48900000D01*
X-51101928Y-47189721D01*
X-34885000Y-47189721D01*
X-34885000Y-47610279D01*
X-34802953Y-48022756D01*
X-34642012Y-48411302D01*
X-34408363Y-48760983D01*
X-34110983Y-49058363D01*
X-33761302Y-49292012D01*
X-33372756Y-49452953D01*
X-32960279Y-49535000D01*
X-32539721Y-49535000D01*
X-32127244Y-49452953D01*
X-31738698Y-49292012D01*
X-31389017Y-49058363D01*
X-31091637Y-48760983D01*
X-30857988Y-48411302D01*
X-30697047Y-48022756D01*
X-30615000Y-47610279D01*
X-30615000Y-47189721D01*
X-30697047Y-46777244D01*
X-30857988Y-46388698D01*
X-31091637Y-46039017D01*
X-31389017Y-45741637D01*
X-31738698Y-45507988D01*
X-32127244Y-45347047D01*
X-32539721Y-45265000D01*
X-32960279Y-45265000D01*
X-33372756Y-45347047D01*
X-33761302Y-45507988D01*
X-34110983Y-45741637D01*
X-34408363Y-46039017D01*
X-34642012Y-46388698D01*
X-34802953Y-46777244D01*
X-34885000Y-47189721D01*
X-51101928Y-47189721D01*
X-51101928Y-45900000D01*
X-51114188Y-45775518D01*
X-51150498Y-45655820D01*
X-51209463Y-45545506D01*
X-51288815Y-45448815D01*
X-51385506Y-45369463D01*
X-51495820Y-45310498D01*
X-51615518Y-45274188D01*
X-51740000Y-45261928D01*
X-54740000Y-45261928D01*
X-54864482Y-45274188D01*
X-54984180Y-45310498D01*
X-55094494Y-45369463D01*
X-55191185Y-45448815D01*
X-55270537Y-45545506D01*
X-55329502Y-45655820D01*
X-55365812Y-45775518D01*
X-55378072Y-45900000D01*
X-55378072Y-46640000D01*
X-57562675Y-46640000D01*
X-57600000Y-46636324D01*
X-57637325Y-46640000D01*
X-57637333Y-46640000D01*
X-57748986Y-46650997D01*
X-57892247Y-46694454D01*
X-58024276Y-46765026D01*
X-58140001Y-46859999D01*
X-58163799Y-46888997D01*
X-61911002Y-50636201D01*
X-61940000Y-50659999D01*
X-61963798Y-50688997D01*
X-61963799Y-50688998D01*
X-62034974Y-50775724D01*
X-62105546Y-50907754D01*
X-62149002Y-51051015D01*
X-62163676Y-51200000D01*
X-62159999Y-51237333D01*
X-62159999Y-52065000D01*
X-62301939Y-52065000D01*
X-62501898Y-52104774D01*
X-62690256Y-52182795D01*
X-62822315Y-52271034D01*
X-62732068Y-52053158D01*
X-62675000Y-51766260D01*
X-62675000Y-51473740D01*
X-62732068Y-51186842D01*
X-62844010Y-50916589D01*
X-63006525Y-50673368D01*
X-63213368Y-50466525D01*
X-63386729Y-50350689D01*
X-63311208Y-50108397D01*
X-64160000Y-49259605D01*
X-64174142Y-49273748D01*
X-64353747Y-49094143D01*
X-64339605Y-49080000D01*
X-64353747Y-49065858D01*
X-64174142Y-48886253D01*
X-64160000Y-48900395D01*
X-64145857Y-48886253D01*
X-63966252Y-49065858D01*
X-63980395Y-49080000D01*
X-63131603Y-49928792D01*
X-62882528Y-49851157D01*
X-62756629Y-49587117D01*
X-62710130Y-49403926D01*
X-62690256Y-49417205D01*
X-62501898Y-49495226D01*
X-62301939Y-49535000D01*
X-62098061Y-49535000D01*
X-61898102Y-49495226D01*
X-61709744Y-49417205D01*
X-61540226Y-49303937D01*
X-61396063Y-49159774D01*
X-61282795Y-48990256D01*
X-61204774Y-48801898D01*
X-61165000Y-48601939D01*
X-61165000Y-48398061D01*
X-61204774Y-48198102D01*
X-61282795Y-48009744D01*
X-61396063Y-47840226D01*
X-61440000Y-47796289D01*
X-61440000Y-39898816D01*
X-59385000Y-39898816D01*
X-59385000Y-40201184D01*
X-59326011Y-40497743D01*
X-59210299Y-40777095D01*
X-59042312Y-41028505D01*
X-58828505Y-41242312D01*
X-58577095Y-41410299D01*
X-58297743Y-41526011D01*
X-58001184Y-41585000D01*
X-57698816Y-41585000D01*
X-57402257Y-41526011D01*
X-57122905Y-41410299D01*
X-56871495Y-41242312D01*
X-56657688Y-41028505D01*
X-56489701Y-40777095D01*
X-56373989Y-40497743D01*
X-56315000Y-40201184D01*
X-56315000Y-39898816D01*
X-56373989Y-39602257D01*
X-56489701Y-39322905D01*
X-56657688Y-39071495D01*
X-56871495Y-38857688D01*
X-57122905Y-38689701D01*
X-57402257Y-38573989D01*
X-57698816Y-38515000D01*
X-58001184Y-38515000D01*
X-58297743Y-38573989D01*
X-58577095Y-38689701D01*
X-58828505Y-38857688D01*
X-59042312Y-39071495D01*
X-59210299Y-39322905D01*
X-59326011Y-39602257D01*
X-59385000Y-39898816D01*
X-61440000Y-39898816D01*
X-61440000Y-37310000D01*
X-52587322Y-37310000D01*
X-52550000Y-37313676D01*
X-52512678Y-37310000D01*
X-52512667Y-37310000D01*
X-52401014Y-37299003D01*
X-52257753Y-37255546D01*
X-52125724Y-37184974D01*
X-52009999Y-37090001D01*
X-51986196Y-37060998D01*
X-51763271Y-36838072D01*
X-51149999Y-36838072D01*
X-50976745Y-36821008D01*
X-50810149Y-36770472D01*
X-50656613Y-36688405D01*
X-50522038Y-36577962D01*
X-50500000Y-36551109D01*
X-50477962Y-36577962D01*
X-50343387Y-36688405D01*
X-50189851Y-36770472D01*
X-50023255Y-36821008D01*
X-49850001Y-36838072D01*
X-49149999Y-36838072D01*
X-48976745Y-36821008D01*
X-48810149Y-36770472D01*
X-48656613Y-36688405D01*
X-48522038Y-36577962D01*
X-48411595Y-36443387D01*
X-48374388Y-36373778D01*
X-48201898Y-36445226D01*
X-48001939Y-36485000D01*
X-47798061Y-36485000D01*
X-47598102Y-36445226D01*
X-47409744Y-36367205D01*
X-47240226Y-36253937D01*
X-47096063Y-36109774D01*
X-46982795Y-35940256D01*
X-46904774Y-35751898D01*
X-46865000Y-35551939D01*
X-46865000Y-35348061D01*
X-46904774Y-35148102D01*
X-46982795Y-34959744D01*
X-47096063Y-34790226D01*
X-47240226Y-34646063D01*
X-47409744Y-34532795D01*
X-47598102Y-34454774D01*
X-47798061Y-34415000D01*
X-48001939Y-34415000D01*
X-48201898Y-34454774D01*
X-48390256Y-34532795D01*
X-48416662Y-34550439D01*
X-48522038Y-34422038D01*
X-48656613Y-34311595D01*
X-48678306Y-34300000D01*
X-48656613Y-34288405D01*
X-48522038Y-34177962D01*
X-48411595Y-34043387D01*
X-48329528Y-33889851D01*
X-48278992Y-33723255D01*
X-48261928Y-33550001D01*
X-48261928Y-32649999D01*
X-48278992Y-32476745D01*
X-48329528Y-32310149D01*
X-48411595Y-32156613D01*
X-48522038Y-32022038D01*
X-48656613Y-31911595D01*
X-48810149Y-31829528D01*
X-48976745Y-31778992D01*
X-49149999Y-31761928D01*
X-49850001Y-31761928D01*
X-50023255Y-31778992D01*
X-50189851Y-31829528D01*
X-50343387Y-31911595D01*
X-50477962Y-32022038D01*
X-50500000Y-32048891D01*
X-50522038Y-32022038D01*
X-50656613Y-31911595D01*
X-50810149Y-31829528D01*
X-50976745Y-31778992D01*
X-51149999Y-31761928D01*
X-51850001Y-31761928D01*
X-52023255Y-31778992D01*
X-52189851Y-31829528D01*
X-52343387Y-31911595D01*
X-52477962Y-32022038D01*
X-52588405Y-32156613D01*
X-52670472Y-32310149D01*
X-52679527Y-32340000D01*
X-52962678Y-32340000D01*
X-53000001Y-32336324D01*
X-53037324Y-32340000D01*
X-53037333Y-32340000D01*
X-53148986Y-32350997D01*
X-53292247Y-32394454D01*
X-53424276Y-32465026D01*
X-53424278Y-32465027D01*
X-53424277Y-32465027D01*
X-53511004Y-32536201D01*
X-53511008Y-32536205D01*
X-53540001Y-32559999D01*
X-53563795Y-32588992D01*
X-55264801Y-34290000D01*
X-56511687Y-34290000D01*
X-56657688Y-34071495D01*
X-56871495Y-33857688D01*
X-57122905Y-33689701D01*
X-57402257Y-33573989D01*
X-57698816Y-33515000D01*
X-58001184Y-33515000D01*
X-58297743Y-33573989D01*
X-58577095Y-33689701D01*
X-58828505Y-33857688D01*
X-59042312Y-34071495D01*
X-59210299Y-34322905D01*
X-59326011Y-34602257D01*
X-59385000Y-34898816D01*
X-59385000Y-35201184D01*
X-59326011Y-35497743D01*
X-59210299Y-35777095D01*
X-59201676Y-35790000D01*
X-61812675Y-35790000D01*
X-61850000Y-35786324D01*
X-61887325Y-35790000D01*
X-61887333Y-35790000D01*
X-61998986Y-35800997D01*
X-62142247Y-35844454D01*
X-62274276Y-35915026D01*
X-62390001Y-36009999D01*
X-62413804Y-36039003D01*
X-62675000Y-36300199D01*
X-62675000Y-36233740D01*
X-62718790Y-36013592D01*
X-62473995Y-35768797D01*
X-62444998Y-35745000D01*
X-62350025Y-35629275D01*
X-62279453Y-35497246D01*
X-62235996Y-35353985D01*
X-62224999Y-35242332D01*
X-62224999Y-35242323D01*
X-62221323Y-35205000D01*
X-62224999Y-35167677D01*
X-62224999Y-32499800D01*
X-60185198Y-30460000D01*
X-53737322Y-30460000D01*
X-53700000Y-30463676D01*
X-53662678Y-30460000D01*
X-53662667Y-30460000D01*
X-53551014Y-30449003D01*
X-53407753Y-30405546D01*
X-53275724Y-30334974D01*
X-53159999Y-30240001D01*
X-53136196Y-30210997D01*
X-51738996Y-28813798D01*
X-51709999Y-28790001D01*
X-51615026Y-28674276D01*
X-51544454Y-28542247D01*
X-51500997Y-28398986D01*
X-51490000Y-28287333D01*
X-51490000Y-28287325D01*
X-51486324Y-28250000D01*
X-51490000Y-28212675D01*
X-51490000Y-27832976D01*
X-51406613Y-27788405D01*
X-51272038Y-27677962D01*
X-51161595Y-27543387D01*
X-51079528Y-27389851D01*
X-51028992Y-27223255D01*
X-51011928Y-27050001D01*
X-51011928Y-26149999D01*
X-51028992Y-25976745D01*
X-51079528Y-25810149D01*
X-51161595Y-25656613D01*
X-51272038Y-25522038D01*
X-51406613Y-25411595D01*
X-51490000Y-25367024D01*
X-51490000Y-25309098D01*
X-51487749Y-25307251D01*
X-51389742Y-25187829D01*
X-51316916Y-25051582D01*
X-51272071Y-24903745D01*
X-51256928Y-24750000D01*
X-51256928Y-24697500D01*
X-51151294Y-24697500D01*
X-51113405Y-24768386D01*
X-51002962Y-24902962D01*
X-50868386Y-25013405D01*
X-50714850Y-25095472D01*
X-50548254Y-25146008D01*
X-50375000Y-25163072D01*
X-49425000Y-25163072D01*
X-49251746Y-25146008D01*
X-49085150Y-25095472D01*
X-48931614Y-25013405D01*
X-48797038Y-24902962D01*
X-48686595Y-24768386D01*
X-48675000Y-24746693D01*
X-48663405Y-24768386D01*
X-48552962Y-24902962D01*
X-48418386Y-25013405D01*
X-48264850Y-25095472D01*
X-48098254Y-25146008D01*
X-47925000Y-25163072D01*
X-46975000Y-25163072D01*
X-46801746Y-25146008D01*
X-46635150Y-25095472D01*
X-46481614Y-25013405D01*
X-46347038Y-24902962D01*
X-46236595Y-24768386D01*
X-46178661Y-24660000D01*
X-45803711Y-24660000D01*
X-45759774Y-24703937D01*
X-45590256Y-24817205D01*
X-45401898Y-24895226D01*
X-45201939Y-24935000D01*
X-44998061Y-24935000D01*
X-44798102Y-24895226D01*
X-44609744Y-24817205D01*
X-44440226Y-24703937D01*
X-44296063Y-24559774D01*
X-44182795Y-24390256D01*
X-44104774Y-24201898D01*
X-44065000Y-24001939D01*
X-44065000Y-23798061D01*
X-44104774Y-23598102D01*
X-44182795Y-23409744D01*
X-44296063Y-23240226D01*
X-44440226Y-23096063D01*
X-44609744Y-22982795D01*
X-44798102Y-22904774D01*
X-44998061Y-22865000D01*
X-45201939Y-22865000D01*
X-45401898Y-22904774D01*
X-45590256Y-22982795D01*
X-45759774Y-23096063D01*
X-45803711Y-23140000D01*
X-46218750Y-23140000D01*
X-46236595Y-23106614D01*
X-46347038Y-22972038D01*
X-46434817Y-22900000D01*
X-46347038Y-22827962D01*
X-46236595Y-22693386D01*
X-46154528Y-22539850D01*
X-46103992Y-22373254D01*
X-46086928Y-22200000D01*
X-46086928Y-21525000D01*
X-46103992Y-21351746D01*
X-46154528Y-21185150D01*
X-46236595Y-21031614D01*
X-46347038Y-20897038D01*
X-46456853Y-20806916D01*
X-46454774Y-20801898D01*
X-46415000Y-20601939D01*
X-46415000Y-20398061D01*
X-46454774Y-20198102D01*
X-46532795Y-20009744D01*
X-46646063Y-19840226D01*
X-46790226Y-19696063D01*
X-46959744Y-19582795D01*
X-47148102Y-19504774D01*
X-47348061Y-19465000D01*
X-47551939Y-19465000D01*
X-47751898Y-19504774D01*
X-47940256Y-19582795D01*
X-48109774Y-19696063D01*
X-48253937Y-19840226D01*
X-48367205Y-20009744D01*
X-48445226Y-20198102D01*
X-48485000Y-20398061D01*
X-48485000Y-20601939D01*
X-48445226Y-20801898D01*
X-48443147Y-20806916D01*
X-48552962Y-20897038D01*
X-48663405Y-21031614D01*
X-48675000Y-21053307D01*
X-48686595Y-21031614D01*
X-48797038Y-20897038D01*
X-48931614Y-20786595D01*
X-49085150Y-20704528D01*
X-49251746Y-20653992D01*
X-49425000Y-20636928D01*
X-50375000Y-20636928D01*
X-50548254Y-20653992D01*
X-50714850Y-20704528D01*
X-50868386Y-20786595D01*
X-51002962Y-20897038D01*
X-51113405Y-21031614D01*
X-51195472Y-21185150D01*
X-51246008Y-21351746D01*
X-51263072Y-21525000D01*
X-51263072Y-22200000D01*
X-51246008Y-22373254D01*
X-51195472Y-22539850D01*
X-51113405Y-22693386D01*
X-51002962Y-22827962D01*
X-50915183Y-22900000D01*
X-51002962Y-22972038D01*
X-51113405Y-23106614D01*
X-51151294Y-23177500D01*
X-51256928Y-23177500D01*
X-51256928Y-23100000D01*
X-51272071Y-22946255D01*
X-51316916Y-22798418D01*
X-51389742Y-22662171D01*
X-51487749Y-22542749D01*
X-51607171Y-22444742D01*
X-51743418Y-22371916D01*
X-51891255Y-22327071D01*
X-52045000Y-22311928D01*
X-52345000Y-22311928D01*
X-52498745Y-22327071D01*
X-52646582Y-22371916D01*
X-52782829Y-22444742D01*
X-52830000Y-22483454D01*
X-52877171Y-22444742D01*
X-53013418Y-22371916D01*
X-53161255Y-22327071D01*
X-53315000Y-22311928D01*
X-53615000Y-22311928D01*
X-53768745Y-22327071D01*
X-53916582Y-22371916D01*
X-54052829Y-22444742D01*
X-54100000Y-22483454D01*
X-54147171Y-22444742D01*
X-54283418Y-22371916D01*
X-54431255Y-22327071D01*
X-54585000Y-22311928D01*
X-54885000Y-22311928D01*
X-55038745Y-22327071D01*
X-55186582Y-22371916D01*
X-55322829Y-22444742D01*
X-55370000Y-22483454D01*
X-55417171Y-22444742D01*
X-55553418Y-22371916D01*
X-55701255Y-22327071D01*
X-55855000Y-22311928D01*
X-56155000Y-22311928D01*
X-56308745Y-22327071D01*
X-56456582Y-22371916D01*
X-56592829Y-22444742D01*
X-56712251Y-22542749D01*
X-56810258Y-22662171D01*
X-56883084Y-22798418D01*
X-56927929Y-22946255D01*
X-56943072Y-23100000D01*
X-56943072Y-24750000D01*
X-56927929Y-24903745D01*
X-56883084Y-25051582D01*
X-56810258Y-25187829D01*
X-56764999Y-25242977D01*
X-56764999Y-25261928D01*
X-57000001Y-25261928D01*
X-57173255Y-25278992D01*
X-57339851Y-25329528D01*
X-57493387Y-25411595D01*
X-57627962Y-25522038D01*
X-57738405Y-25656613D01*
X-57820472Y-25810149D01*
X-57871008Y-25976745D01*
X-57888072Y-26149999D01*
X-57888072Y-26850001D01*
X-57871008Y-27023255D01*
X-57820472Y-27189851D01*
X-57738405Y-27343387D01*
X-57627962Y-27477962D01*
X-57601109Y-27500000D01*
X-57627962Y-27522038D01*
X-57738405Y-27656613D01*
X-57820472Y-27810149D01*
X-57871008Y-27976745D01*
X-57888072Y-28149999D01*
X-57888072Y-28850001D01*
X-57879208Y-28940000D01*
X-60462678Y-28940000D01*
X-60500001Y-28936324D01*
X-60537324Y-28940000D01*
X-60537333Y-28940000D01*
X-60648986Y-28950997D01*
X-60792247Y-28994454D01*
X-60924276Y-29065026D01*
X-61040001Y-29159999D01*
X-61063799Y-29188997D01*
X-62734873Y-30860071D01*
X-62844010Y-30596589D01*
X-63006525Y-30353368D01*
X-63213368Y-30146525D01*
X-63456589Y-29984010D01*
X-63726842Y-29872068D01*
X-64013740Y-29815000D01*
X-64306260Y-29815000D01*
X-64593158Y-29872068D01*
X-64761090Y-29941627D01*
X-64772937Y-29919463D01*
X-64815026Y-29840721D01*
X-64886201Y-29753995D01*
X-64909999Y-29724997D01*
X-64938996Y-29701200D01*
X-65465001Y-29175196D01*
X-65465001Y-25518862D01*
X-65447743Y-25526011D01*
X-65151184Y-25585000D01*
X-64848816Y-25585000D01*
X-64552257Y-25526011D01*
X-64272905Y-25410299D01*
X-64021495Y-25242312D01*
X-63807688Y-25028505D01*
X-63639701Y-24777095D01*
X-63523989Y-24497743D01*
X-63465000Y-24201184D01*
X-63465000Y-23898816D01*
X-63523989Y-23602257D01*
X-63639701Y-23322905D01*
X-63807688Y-23071495D01*
X-64021495Y-22857688D01*
X-64272905Y-22689701D01*
X-64552257Y-22573989D01*
X-64848816Y-22515000D01*
X-65151184Y-22515000D01*
X-65447743Y-22573989D01*
X-65465001Y-22581138D01*
X-65465001Y-20518862D01*
X-65447743Y-20526011D01*
X-65151184Y-20585000D01*
X-64848816Y-20585000D01*
X-64591071Y-20533731D01*
X-63913795Y-21211008D01*
X-63890001Y-21240001D01*
X-63861008Y-21263795D01*
X-63861004Y-21263799D01*
X-63812095Y-21303937D01*
X-63774276Y-21334974D01*
X-63642247Y-21405546D01*
X-63498986Y-21449003D01*
X-63387333Y-21460000D01*
X-63387324Y-21460000D01*
X-63350001Y-21463676D01*
X-63312678Y-21460000D01*
X-52787322Y-21460000D01*
X-52750000Y-21463676D01*
X-52712678Y-21460000D01*
X-52712667Y-21460000D01*
X-52601014Y-21449003D01*
X-52457753Y-21405546D01*
X-52325724Y-21334974D01*
X-52209999Y-21240001D01*
X-52186197Y-21210998D01*
X-51683998Y-20708800D01*
X-51654999Y-20685001D01*
X-51560026Y-20569276D01*
X-51489454Y-20437247D01*
X-51451959Y-20313641D01*
X-51389742Y-20237829D01*
X-51316916Y-20101582D01*
X-51272071Y-19953745D01*
X-51256928Y-19800000D01*
X-51256928Y-18150000D01*
X-51272071Y-17996255D01*
X-51316916Y-17848418D01*
X-51389742Y-17712171D01*
X-51435000Y-17657024D01*
X-51435000Y-17503578D01*
X-51406613Y-17488405D01*
X-51272038Y-17377962D01*
X-51161595Y-17243387D01*
X-51079528Y-17089851D01*
X-51028992Y-16923255D01*
X-51015675Y-16788046D01*
X-50929077Y-16859115D01*
X-50945226Y-16898102D01*
X-50985000Y-17098061D01*
X-50985000Y-17301939D01*
X-50945226Y-17501898D01*
X-50867205Y-17690256D01*
X-50753937Y-17859774D01*
X-50609774Y-18003937D01*
X-50440256Y-18117205D01*
X-50251898Y-18195226D01*
X-50051939Y-18235000D01*
X-49848061Y-18235000D01*
X-49648102Y-18195226D01*
X-49459744Y-18117205D01*
X-49290226Y-18003937D01*
X-49146063Y-17859774D01*
X-49032795Y-17690256D01*
X-48954774Y-17501898D01*
X-48915000Y-17301939D01*
X-48915000Y-17098061D01*
X-48954774Y-16898102D01*
X-48970923Y-16859115D01*
X-48872038Y-16777962D01*
X-48761595Y-16643387D01*
X-48679528Y-16489851D01*
X-48628992Y-16323255D01*
X-48611928Y-16150001D01*
X-48611928Y-15449999D01*
X-48628992Y-15276745D01*
X-48679528Y-15110149D01*
X-48761595Y-14956613D01*
X-48872038Y-14822038D01*
X-48898891Y-14800000D01*
X-48872038Y-14777962D01*
X-48761595Y-14643387D01*
X-48679528Y-14489851D01*
X-48628992Y-14323255D01*
X-48611928Y-14150001D01*
X-48611928Y-13449999D01*
X-48628992Y-13276745D01*
X-48679528Y-13110149D01*
X-48761595Y-12956613D01*
X-48872038Y-12822038D01*
X-49006613Y-12711595D01*
X-49160149Y-12629528D01*
X-49326745Y-12578992D01*
X-49499999Y-12561928D01*
X-50400001Y-12561928D01*
X-50573255Y-12578992D01*
X-50739851Y-12629528D01*
X-50893387Y-12711595D01*
X-51027962Y-12822038D01*
X-51138405Y-12956613D01*
X-51150000Y-12978306D01*
X-51161595Y-12956613D01*
X-51272038Y-12822038D01*
X-51406613Y-12711595D01*
X-51560149Y-12629528D01*
X-51726745Y-12578992D01*
X-51899999Y-12561928D01*
X-52600001Y-12561928D01*
X-52773255Y-12578992D01*
X-52939851Y-12629528D01*
X-53093387Y-12711595D01*
X-53227962Y-12822038D01*
X-53250000Y-12848891D01*
X-53272038Y-12822038D01*
X-53406613Y-12711595D01*
X-53560149Y-12629528D01*
X-53726745Y-12578992D01*
X-53899999Y-12561928D01*
X-54600001Y-12561928D01*
X-54773255Y-12578992D01*
X-54939851Y-12629528D01*
X-55093387Y-12711595D01*
X-55227962Y-12822038D01*
X-55338405Y-12956613D01*
X-55420472Y-13110149D01*
X-55471008Y-13276745D01*
X-55488072Y-13449999D01*
X-55488072Y-14350001D01*
X-55471008Y-14523255D01*
X-55420472Y-14689851D01*
X-55338405Y-14843387D01*
X-55227962Y-14977962D01*
X-55093387Y-15088405D01*
X-55071694Y-15100000D01*
X-55093387Y-15111595D01*
X-55227962Y-15222038D01*
X-55338405Y-15356613D01*
X-55420472Y-15510149D01*
X-55471008Y-15676745D01*
X-55488072Y-15849999D01*
X-55488072Y-15970090D01*
X-55551014Y-15950997D01*
X-55662667Y-15940000D01*
X-55662678Y-15940000D01*
X-55700000Y-15936324D01*
X-55737322Y-15940000D01*
X-64425679Y-15940000D01*
X-64463002Y-15936324D01*
X-64500325Y-15940000D01*
X-64500335Y-15940000D01*
X-64611988Y-15950997D01*
X-64755249Y-15994454D01*
X-64887279Y-16065026D01*
X-64970919Y-16133668D01*
X-65003003Y-16159999D01*
X-65026801Y-16188997D01*
X-66735998Y-17898195D01*
X-66765002Y-17921998D01*
X-66820130Y-17989173D01*
X-66859975Y-18037723D01*
X-66885124Y-18084774D01*
X-66930547Y-18169753D01*
X-66974004Y-18313014D01*
X-66985001Y-18424667D01*
X-66985001Y-18424677D01*
X-66988677Y-18461999D01*
X-66985001Y-18499321D01*
X-66985000Y-29452665D01*
X-66988677Y-29489997D01*
X-66985000Y-29527330D01*
X-66978984Y-29588405D01*
X-66974003Y-29638982D01*
X-66930547Y-29782243D01*
X-66914680Y-29811928D01*
X-67115001Y-29811928D01*
X-67115001Y-16609802D01*
X-59135000Y-8629802D01*
X-59135000Y-8737002D01*
X-58970156Y-8737002D01*
X-59091476Y-8966890D01*
X-59046825Y-9114099D01*
X-58921641Y-9376920D01*
X-58747588Y-9610269D01*
X-58663534Y-9686034D01*
X-58744180Y-9710498D01*
X-58854494Y-9769463D01*
X-58951185Y-9848815D01*
X-59030537Y-9945506D01*
X-59089502Y-10055820D01*
X-59125812Y-10175518D01*
X-59138072Y-10300000D01*
X-59138072Y-12000000D01*
X-59125812Y-12124482D01*
X-59089502Y-12244180D01*
X-59030537Y-12354494D01*
X-58951185Y-12451185D01*
X-58854494Y-12530537D01*
X-58744180Y-12589502D01*
X-58624482Y-12625812D01*
X-58500000Y-12638072D01*
X-56800000Y-12638072D01*
X-56675518Y-12625812D01*
X-56555820Y-12589502D01*
X-56445506Y-12530537D01*
X-56348815Y-12451185D01*
X-56269463Y-12354494D01*
X-56210498Y-12244180D01*
X-56174188Y-12124482D01*
X-56161928Y-12000000D01*
X-56161928Y-10300000D01*
X-56174188Y-10175518D01*
X-56210498Y-10055820D01*
X-56269463Y-9945506D01*
X-56348815Y-9848815D01*
X-56445506Y-9769463D01*
X-56555820Y-9710498D01*
X-56636466Y-9686034D01*
X-56552412Y-9610269D01*
X-56378359Y-9376920D01*
X-56253175Y-9114099D01*
X-56208524Y-8966890D01*
X-56329845Y-8737000D01*
X-57523000Y-8737000D01*
X-57523000Y-8757000D01*
X-57777000Y-8757000D01*
X-57777000Y-8737000D01*
X-57797000Y-8737000D01*
X-57797000Y-8483000D01*
X-57777000Y-8483000D01*
X-57777000Y-8463000D01*
X-57523000Y-8463000D01*
X-57523000Y-8483000D01*
X-56329845Y-8483000D01*
X-56208524Y-8253110D01*
X-56253175Y-8105901D01*
X-56378359Y-7843080D01*
X-56552412Y-7609731D01*
X-56768645Y-7414822D01*
X-56885534Y-7345195D01*
X-56703368Y-7223475D01*
X-56496525Y-7016632D01*
X-56334010Y-6773411D01*
X-56222068Y-6503158D01*
X-56165000Y-6216260D01*
X-56165000Y-5923740D01*
X-56222068Y-5636842D01*
X-56334010Y-5366589D01*
X-56496525Y-5123368D01*
X-56703368Y-4916525D01*
X-56877760Y-4800000D01*
X-56703368Y-4683475D01*
X-56496525Y-4476632D01*
X-56334010Y-4233411D01*
X-56222068Y-3963158D01*
X-56165000Y-3676260D01*
X-56165000Y-3383740D01*
X-56222068Y-3096842D01*
X-56334010Y-2826589D01*
X-56496525Y-2583368D01*
X-56703368Y-2376525D01*
X-56946589Y-2214010D01*
X-57216842Y-2102068D01*
X-57503740Y-2045000D01*
X-57796260Y-2045000D01*
X-58083158Y-2102068D01*
X-58353411Y-2214010D01*
X-58596632Y-2376525D01*
X-58803475Y-2583368D01*
X-58965990Y-2826589D01*
X-59077932Y-3096842D01*
X-59135000Y-3383740D01*
X-59135000Y-3676260D01*
X-59077932Y-3963158D01*
X-58965990Y-4233411D01*
X-58803475Y-4476632D01*
X-58802454Y-4477653D01*
X-68580000Y-14255199D01*
X-68580000Y-3392279D01*
X-68562495Y-3213740D01*
X-68185000Y-3213740D01*
X-68185000Y-3506260D01*
X-68127932Y-3793158D01*
X-68015990Y-4063411D01*
X-67853475Y-4306632D01*
X-67646632Y-4513475D01*
X-67472240Y-4630000D01*
X-67646632Y-4746525D01*
X-67853475Y-4953368D01*
X-68015990Y-5196589D01*
X-68127932Y-5466842D01*
X-68185000Y-5753740D01*
X-68185000Y-6046260D01*
X-68127932Y-6333158D01*
X-68015990Y-6603411D01*
X-67853475Y-6846632D01*
X-67646632Y-7053475D01*
X-67403411Y-7215990D01*
X-67133158Y-7327932D01*
X-66846260Y-7385000D01*
X-66553740Y-7385000D01*
X-66266842Y-7327932D01*
X-65996589Y-7215990D01*
X-65753368Y-7053475D01*
X-65546525Y-6846632D01*
X-65384010Y-6603411D01*
X-65272068Y-6333158D01*
X-65215000Y-6046260D01*
X-65215000Y-5753740D01*
X-65272068Y-5466842D01*
X-65384010Y-5196589D01*
X-65546525Y-4953368D01*
X-65753368Y-4746525D01*
X-65927760Y-4630000D01*
X-65753368Y-4513475D01*
X-65546525Y-4306632D01*
X-65384010Y-4063411D01*
X-65272068Y-3793158D01*
X-65215000Y-3506260D01*
X-65215000Y-3213740D01*
X-65272068Y-2926842D01*
X-65384010Y-2656589D01*
X-65546525Y-2413368D01*
X-65753368Y-2206525D01*
X-65996589Y-2044010D01*
X-66266842Y-1932068D01*
X-66553740Y-1875000D01*
X-66846260Y-1875000D01*
X-67133158Y-1932068D01*
X-67403411Y-2044010D01*
X-67646632Y-2206525D01*
X-67853475Y-2413368D01*
X-68015990Y-2656589D01*
X-68127932Y-2926842D01*
X-68185000Y-3213740D01*
X-68562495Y-3213740D01*
X-68541091Y-2995455D01*
X-68435220Y-2644792D01*
X-68263256Y-2321375D01*
X-68031746Y-2037516D01*
X-67749514Y-1804035D01*
X-67427305Y-1629817D01*
X-67077386Y-1521498D01*
X-66682557Y-1480000D01*
X-36580712Y-1480000D01*
X-36722578Y-1555829D01*
%TA.AperFunction,Conductor*%
D28*
G36*
X-36722578Y-1555829D02*
G01*
X-36899211Y-1700788D01*
X-37044170Y-1877421D01*
X-37151885Y-2078940D01*
X-37218215Y-2297600D01*
X-37235000Y-2468021D01*
X-37235000Y-3431978D01*
X-37218215Y-3602399D01*
X-37151885Y-3821059D01*
X-37044171Y-4022578D01*
X-36899212Y-4199212D01*
X-36722579Y-4344171D01*
X-36521060Y-4451885D01*
X-36302400Y-4518215D01*
X-36075000Y-4540612D01*
X-36033072Y-4536482D01*
X-36033072Y-5905000D01*
X-36020812Y-6029482D01*
X-35984502Y-6149180D01*
X-35925537Y-6259494D01*
X-35846185Y-6356185D01*
X-35749494Y-6435537D01*
X-35639180Y-6494502D01*
X-35519482Y-6530812D01*
X-35395000Y-6543072D01*
X-34589838Y-6543072D01*
X-34589502Y-6544180D01*
X-34535000Y-6646145D01*
X-34534999Y-7071288D01*
X-34603937Y-7140226D01*
X-34717205Y-7309744D01*
X-34795226Y-7498102D01*
X-34835000Y-7698061D01*
X-34835000Y-7901939D01*
X-34795226Y-8101898D01*
X-34717205Y-8290256D01*
X-34603937Y-8459774D01*
X-34459774Y-8603937D01*
X-34290256Y-8717205D01*
X-34101898Y-8795226D01*
X-33901939Y-8835000D01*
X-33698061Y-8835000D01*
X-33498102Y-8795226D01*
X-33309744Y-8717205D01*
X-33235000Y-8667263D01*
X-33234999Y-24997079D01*
X-33238676Y-25034412D01*
X-33234999Y-25071745D01*
X-33224002Y-25183398D01*
X-33217146Y-25205998D01*
X-33180546Y-25326658D01*
X-33109974Y-25458688D01*
X-33050854Y-25530725D01*
X-33015000Y-25574413D01*
X-32986002Y-25598211D01*
X-23523212Y-35061002D01*
X-23499413Y-35090001D01*
X-23470415Y-35113799D01*
X-23383688Y-35184974D01*
X-23251659Y-35255546D01*
X-23108398Y-35299003D01*
X-22959412Y-35313677D01*
X-22950877Y-35312836D01*
X-22909776Y-35353937D01*
X-22740258Y-35467205D01*
X-22551900Y-35545226D01*
X-22351941Y-35585000D01*
X-22148063Y-35585000D01*
X-21948104Y-35545226D01*
X-21759746Y-35467205D01*
X-21590228Y-35353937D01*
X-21446065Y-35209774D01*
X-21332797Y-35040256D01*
X-21254776Y-34851898D01*
X-21215002Y-34651939D01*
X-21215002Y-34448061D01*
X-21254776Y-34248102D01*
X-21332797Y-34059744D01*
X-21389420Y-33975001D01*
X-21332795Y-33890256D01*
X-21254774Y-33701898D01*
X-21215000Y-33501939D01*
X-21215000Y-33298061D01*
X-21254774Y-33098102D01*
X-21332795Y-32909744D01*
X-21446063Y-32740226D01*
X-21590226Y-32596063D01*
X-21759744Y-32482795D01*
X-21948102Y-32404774D01*
X-22148061Y-32365000D01*
X-22351939Y-32365000D01*
X-22551898Y-32404774D01*
X-22740256Y-32482795D01*
X-22909774Y-32596063D01*
X-22953711Y-32640000D01*
X-23158200Y-32640000D01*
X-30885574Y-24912627D01*
X-30798092Y-24895226D01*
X-30609734Y-24817205D01*
X-30440216Y-24703937D01*
X-30296053Y-24559774D01*
X-30182785Y-24390256D01*
X-30104764Y-24201898D01*
X-30064990Y-24001939D01*
X-30064990Y-23798061D01*
X-30104764Y-23598102D01*
X-30182785Y-23409744D01*
X-30296053Y-23240226D01*
X-30415000Y-23121279D01*
X-30415000Y-12450000D01*
X-19538072Y-12450000D01*
X-19525812Y-12574482D01*
X-19489502Y-12694180D01*
X-19430537Y-12804494D01*
X-19351185Y-12901185D01*
X-19254494Y-12980537D01*
X-19144180Y-13039502D01*
X-19024482Y-13075812D01*
X-18900000Y-13088072D01*
X-18485750Y-13085000D01*
X-18327000Y-12926250D01*
X-18327000Y-11977000D01*
X-18073000Y-11977000D01*
X-18073000Y-12926250D01*
X-17914250Y-13085000D01*
X-17500000Y-13088072D01*
X-17375518Y-13075812D01*
X-17255820Y-13039502D01*
X-17145506Y-12980537D01*
X-17048815Y-12901185D01*
X-16969463Y-12804494D01*
X-16910498Y-12694180D01*
X-16874188Y-12574482D01*
X-16861928Y-12450000D01*
X-16864585Y-12178193D01*
X-16274958Y-12178193D01*
X-16229222Y-12328981D01*
X-16102684Y-12594111D01*
X-15926854Y-12829460D01*
X-15708488Y-13025984D01*
X-15455978Y-13176131D01*
X-15179027Y-13274130D01*
X-14947000Y-13153631D01*
X-14947000Y-11946167D01*
X-16153817Y-11946167D01*
X-16274958Y-12178193D01*
X-16864585Y-12178193D01*
X-16865000Y-12135750D01*
X-17023750Y-11977000D01*
X-18073000Y-11977000D01*
X-18327000Y-11977000D01*
X-19376250Y-11977000D01*
X-19535000Y-12135750D01*
X-19538072Y-12450000D01*
X-30415000Y-12450000D01*
X-30415000Y-9499999D01*
X-19538072Y-9499999D01*
X-19538072Y-10200001D01*
X-19521008Y-10373255D01*
X-19470472Y-10539851D01*
X-19388405Y-10693387D01*
X-19321724Y-10774637D01*
X-19351185Y-10798815D01*
X-19430537Y-10895506D01*
X-19489502Y-11005820D01*
X-19525812Y-11125518D01*
X-19538072Y-11250000D01*
X-19535000Y-11564250D01*
X-19376250Y-11723000D01*
X-18327000Y-11723000D01*
X-18327000Y-11703000D01*
X-18073000Y-11703000D01*
X-18073000Y-11723000D01*
X-17023750Y-11723000D01*
X-16865000Y-11564250D01*
X-16861928Y-11250000D01*
X-16874188Y-11125518D01*
X-16910498Y-11005820D01*
X-16969463Y-10895506D01*
X-17048815Y-10798815D01*
X-17078276Y-10774637D01*
X-17011595Y-10693387D01*
X-16929528Y-10539851D01*
X-16878992Y-10373255D01*
X-16861928Y-10200001D01*
X-16861928Y-9499999D01*
X-16878992Y-9326745D01*
X-16929528Y-9160149D01*
X-17011595Y-9006613D01*
X-17122038Y-8872038D01*
X-17256613Y-8761595D01*
X-17410149Y-8679528D01*
X-17440000Y-8670473D01*
X-17440000Y-8214801D01*
X-16724365Y-7499167D01*
X-16114535Y-7499167D01*
X-15984039Y-7694469D01*
X-15775302Y-7903206D01*
X-15616719Y-8009167D01*
X-15775302Y-8115128D01*
X-15984039Y-8323865D01*
X-16148042Y-8569314D01*
X-16261010Y-8842042D01*
X-16318600Y-9131568D01*
X-16318600Y-9426766D01*
X-16261010Y-9716292D01*
X-16148042Y-9989020D01*
X-15984039Y-10234469D01*
X-15775302Y-10443206D01*
X-15609897Y-10553726D01*
X-15708488Y-10612350D01*
X-15926854Y-10808874D01*
X-16102684Y-11044223D01*
X-16229222Y-11309353D01*
X-16274958Y-11460141D01*
X-16153817Y-11692167D01*
X-14947000Y-11692167D01*
X-14947000Y-11672167D01*
X-14693000Y-11672167D01*
X-14693000Y-11692167D01*
X-14673000Y-11692167D01*
X-14673000Y-11946167D01*
X-14693000Y-11946167D01*
X-14693000Y-13153631D01*
X-14460973Y-13274130D01*
X-14184022Y-13176131D01*
X-13931512Y-13025984D01*
X-13713146Y-12829460D01*
X-13551692Y-12613354D01*
X-13444039Y-12774469D01*
X-13235302Y-12983206D01*
X-12989853Y-13147209D01*
X-12717125Y-13260177D01*
X-12427599Y-13317767D01*
X-12132401Y-13317767D01*
X-11842875Y-13260177D01*
X-11570147Y-13147209D01*
X-11324698Y-12983206D01*
X-11115961Y-12774469D01*
X-10986763Y-12581110D01*
X-10969167Y-12582843D01*
X-10931845Y-12579167D01*
X-10931834Y-12579167D01*
X-10820181Y-12568170D01*
X-10676920Y-12524713D01*
X-10544891Y-12454141D01*
X-10429166Y-12359168D01*
X-10405363Y-12330165D01*
X-8913270Y-10838072D01*
X-8299999Y-10838072D01*
X-8126745Y-10821008D01*
X-7960149Y-10770472D01*
X-7806613Y-10688405D01*
X-7672038Y-10577962D01*
X-7650000Y-10551109D01*
X-7627962Y-10577962D01*
X-7493387Y-10688405D01*
X-7339851Y-10770472D01*
X-7173255Y-10821008D01*
X-7000001Y-10838072D01*
X-6386730Y-10838072D01*
X-6109999Y-11114803D01*
X-6110000Y-16035198D01*
X-11611002Y-21536201D01*
X-11640000Y-21559999D01*
X-11663798Y-21588997D01*
X-11663799Y-21588998D01*
X-11734974Y-21675724D01*
X-11805546Y-21807754D01*
X-11849002Y-21951015D01*
X-11863676Y-22100000D01*
X-11859999Y-22137332D01*
X-11860000Y-27696289D01*
X-11903937Y-27740226D01*
X-12017205Y-27909744D01*
X-12095226Y-28098102D01*
X-12135000Y-28298061D01*
X-12135000Y-28501939D01*
X-12095226Y-28701898D01*
X-12017205Y-28890256D01*
X-11903937Y-29059774D01*
X-11759774Y-29203937D01*
X-11590256Y-29317205D01*
X-11401898Y-29395226D01*
X-11201939Y-29435000D01*
X-10998061Y-29435000D01*
X-10798102Y-29395226D01*
X-10609744Y-29317205D01*
X-10462585Y-29218877D01*
X-10390256Y-29267205D01*
X-10201898Y-29345226D01*
X-10001939Y-29385000D01*
X-9798061Y-29385000D01*
X-9598102Y-29345226D01*
X-9409744Y-29267205D01*
X-9240226Y-29153937D01*
X-9096063Y-29009774D01*
X-8982795Y-28840256D01*
X-8904774Y-28651898D01*
X-8865000Y-28451939D01*
X-8865000Y-28248061D01*
X-8904774Y-28048102D01*
X-8982795Y-27859744D01*
X-9096063Y-27690226D01*
X-9140000Y-27646289D01*
X-9140000Y-22414801D01*
X-4238996Y-17513798D01*
X-4209999Y-17490001D01*
X-4115026Y-17374276D01*
X-4044454Y-17242247D01*
X-4000997Y-17098986D01*
X-3990000Y-16987333D01*
X-3990000Y-16987323D01*
X-3986324Y-16950000D01*
X-3990000Y-16912677D01*
X-3990000Y-7187322D01*
X-3987303Y-7159935D01*
X-3903411Y-7215990D01*
X-3633158Y-7327932D01*
X-3346260Y-7385000D01*
X-3053740Y-7385000D01*
X-2766842Y-7327932D01*
X-2496589Y-7215990D01*
X-2253368Y-7053475D01*
X-2046525Y-6846632D01*
X-1884010Y-6603411D01*
X-1772068Y-6333158D01*
X-1715000Y-6046260D01*
X-1715000Y-5753740D01*
X-1772068Y-5466842D01*
X-1884010Y-5196589D01*
X-2046525Y-4953368D01*
X-2253368Y-4746525D01*
X-2427760Y-4630000D01*
X-2253368Y-4513475D01*
X-2046525Y-4306632D01*
X-1884010Y-4063411D01*
X-1772068Y-3793158D01*
X-1715000Y-3506260D01*
X-1715000Y-3213740D01*
X-1772068Y-2926842D01*
X-1884010Y-2656589D01*
X-2046525Y-2413368D01*
X-2253368Y-2206525D01*
X-2496589Y-2044010D01*
X-2766842Y-1932068D01*
X-3053740Y-1875000D01*
X-3346260Y-1875000D01*
X-3633158Y-1932068D01*
X-3903411Y-2044010D01*
X-4146632Y-2206525D01*
X-4353475Y-2413368D01*
X-4515990Y-2656589D01*
X-4627932Y-2926842D01*
X-4685000Y-3213740D01*
X-4685000Y-3506260D01*
X-4627932Y-3793158D01*
X-4515990Y-4063411D01*
X-4353475Y-4306632D01*
X-4146632Y-4513475D01*
X-3972240Y-4630000D01*
X-4146632Y-4746525D01*
X-4353475Y-4953368D01*
X-4515990Y-5196589D01*
X-4627932Y-5466842D01*
X-4685000Y-5753740D01*
X-4685000Y-6046260D01*
X-4661675Y-6163524D01*
X-4736197Y-6089002D01*
X-4759999Y-6059999D01*
X-4875724Y-5965026D01*
X-5007753Y-5894454D01*
X-5151014Y-5850997D01*
X-5262667Y-5840000D01*
X-5262678Y-5840000D01*
X-5300000Y-5836324D01*
X-5337322Y-5840000D01*
X-5470473Y-5840000D01*
X-5479528Y-5810149D01*
X-5561595Y-5656613D01*
X-5672038Y-5522038D01*
X-5806613Y-5411595D01*
X-5960149Y-5329528D01*
X-6126745Y-5278992D01*
X-6299999Y-5261928D01*
X-7000001Y-5261928D01*
X-7173255Y-5278992D01*
X-7339851Y-5329528D01*
X-7493387Y-5411595D01*
X-7627962Y-5522038D01*
X-7650000Y-5548891D01*
X-7672038Y-5522038D01*
X-7806613Y-5411595D01*
X-7960149Y-5329528D01*
X-8126745Y-5278992D01*
X-8299999Y-5261928D01*
X-8913271Y-5261928D01*
X-9298428Y-4876771D01*
X-9322231Y-4847767D01*
X-9437956Y-4752794D01*
X-9569985Y-4682222D01*
X-9713246Y-4638765D01*
X-9824899Y-4627768D01*
X-9824910Y-4627768D01*
X-9862232Y-4624092D01*
X-9899554Y-4627768D01*
X-10837294Y-4627768D01*
X-10781400Y-4346766D01*
X-10781400Y-4051568D01*
X-10838990Y-3762042D01*
X-10951958Y-3489314D01*
X-11115961Y-3243865D01*
X-11324698Y-3035128D01*
X-11570147Y-2871125D01*
X-11842875Y-2758157D01*
X-12132401Y-2700567D01*
X-12427599Y-2700567D01*
X-12717125Y-2758157D01*
X-12989853Y-2871125D01*
X-13235302Y-3035128D01*
X-13349364Y-3149190D01*
X-13366898Y-3091387D01*
X-13425863Y-2981073D01*
X-13505215Y-2884382D01*
X-13601906Y-2805030D01*
X-13712220Y-2746065D01*
X-13831918Y-2709755D01*
X-13956400Y-2697495D01*
X-15683600Y-2697495D01*
X-15808082Y-2709755D01*
X-15927780Y-2746065D01*
X-16038094Y-2805030D01*
X-16134785Y-2884382D01*
X-16214137Y-2981073D01*
X-16273102Y-3091387D01*
X-16309412Y-3211085D01*
X-16321672Y-3335567D01*
X-16321672Y-5062767D01*
X-16309412Y-5187249D01*
X-16273102Y-5306947D01*
X-16214137Y-5417261D01*
X-16134785Y-5513952D01*
X-16038094Y-5593304D01*
X-15927780Y-5652269D01*
X-15869977Y-5669803D01*
X-15984039Y-5783865D01*
X-16114535Y-5979167D01*
X-17001842Y-5979167D01*
X-17039167Y-5975491D01*
X-17076492Y-5979167D01*
X-17076500Y-5979167D01*
X-17188153Y-5990164D01*
X-17331414Y-6033621D01*
X-17463443Y-6104193D01*
X-17579168Y-6199166D01*
X-17602966Y-6228164D01*
X-18710997Y-7336196D01*
X-18740001Y-7359999D01*
X-18795129Y-7427174D01*
X-18834974Y-7475724D01*
X-18871141Y-7543387D01*
X-18905546Y-7607754D01*
X-18949003Y-7751015D01*
X-18960000Y-7862668D01*
X-18960000Y-7862678D01*
X-18963676Y-7900000D01*
X-18960000Y-7937323D01*
X-18960000Y-8670473D01*
X-18989851Y-8679528D01*
X-19143387Y-8761595D01*
X-19277962Y-8872038D01*
X-19388405Y-9006613D01*
X-19470472Y-9160149D01*
X-19521008Y-9326745D01*
X-19538072Y-9499999D01*
X-30415000Y-9499999D01*
X-30415000Y-6552603D01*
X-30410498Y-6544180D01*
X-30410162Y-6543072D01*
X-29605000Y-6543072D01*
X-29480518Y-6530812D01*
X-29360820Y-6494502D01*
X-29250506Y-6435537D01*
X-29153815Y-6356185D01*
X-29074463Y-6259494D01*
X-29015498Y-6149180D01*
X-28979188Y-6029482D01*
X-28966928Y-5905000D01*
X-28966928Y-4536482D01*
X-28925000Y-4540612D01*
X-28697600Y-4518215D01*
X-28478940Y-4451885D01*
X-28277421Y-4344171D01*
X-28100788Y-4199212D01*
X-27955829Y-4022579D01*
X-27848115Y-3821060D01*
X-27781785Y-3602400D01*
X-27765000Y-3431978D01*
X-27765000Y-2468021D01*
X-27781785Y-2297600D01*
X-27848115Y-2078940D01*
X-27955829Y-1877421D01*
X-28100788Y-1700788D01*
X-28277422Y-1555829D01*
X-28419288Y-1480000D01*
X-3232279Y-1480000D01*
X-2835455Y-1518909D01*
X-2484792Y-1624780D01*
X-2161375Y-1796744D01*
X-1877516Y-2028254D01*
X-1644035Y-2310486D01*
X-1469817Y-2632695D01*
X-1361498Y-2982614D01*
X-1320000Y-3377443D01*
X-1320000Y-30366196D01*
X-3047194Y-28639003D01*
X-3070997Y-28609999D01*
X-3186722Y-28515026D01*
X-3318751Y-28444454D01*
X-3462012Y-28400997D01*
X-3573665Y-28390000D01*
X-3573676Y-28390000D01*
X-3610998Y-28386324D01*
X-3648320Y-28390000D01*
X-3946289Y-28390000D01*
X-3990226Y-28346063D01*
X-4159744Y-28232795D01*
X-4348102Y-28154774D01*
X-4548061Y-28115000D01*
X-4751939Y-28115000D01*
X-4951898Y-28154774D01*
X-5140256Y-28232795D01*
X-5309774Y-28346063D01*
X-5453937Y-28490226D01*
X-5567205Y-28659744D01*
X-5581337Y-28693862D01*
X-5965000Y-28310199D01*
X-5965000Y-28248061D01*
X-6004774Y-28048102D01*
X-6082795Y-27859744D01*
X-6196063Y-27690226D01*
X-6340226Y-27546063D01*
X-6509744Y-27432795D01*
X-6698102Y-27354774D01*
X-6898061Y-27315000D01*
X-7101939Y-27315000D01*
X-7301898Y-27354774D01*
X-7490256Y-27432795D01*
X-7659774Y-27546063D01*
X-7803937Y-27690226D01*
X-7917205Y-27859744D01*
X-7995226Y-28048102D01*
X-8035000Y-28248061D01*
X-8035000Y-28451939D01*
X-7995226Y-28651898D01*
X-7917205Y-28840256D01*
X-7803937Y-29009774D01*
X-7659774Y-29153937D01*
X-7490256Y-29267205D01*
X-7301898Y-29345226D01*
X-7101939Y-29385000D01*
X-7039801Y-29385000D01*
X-6441559Y-29983243D01*
X-6443411Y-29984010D01*
X-6686632Y-30146525D01*
X-6893475Y-30353368D01*
X-7055990Y-30596589D01*
X-7167932Y-30866842D01*
X-7225000Y-31153740D01*
X-7225000Y-31446260D01*
X-7167932Y-31733158D01*
X-7055990Y-32003411D01*
X-6893475Y-32246632D01*
X-6686632Y-32453475D01*
X-6512240Y-32570000D01*
X-6686632Y-32686525D01*
X-6893475Y-32893368D01*
X-7055990Y-33136589D01*
X-7167932Y-33406842D01*
X-7225000Y-33693740D01*
X-7225000Y-33986260D01*
X-7167932Y-34273158D01*
X-7055990Y-34543411D01*
X-6893475Y-34786632D01*
X-6686632Y-34993475D01*
X-6512240Y-35110000D01*
X-6686632Y-35226525D01*
X-6854857Y-35394750D01*
X-6865026Y-35375724D01*
X-6936201Y-35288997D01*
X-6959999Y-35259999D01*
X-6988996Y-35236202D01*
X-9336196Y-32889003D01*
X-9359999Y-32859999D01*
X-9475724Y-32765026D01*
X-9607753Y-32694454D01*
X-9751014Y-32650997D01*
X-9862667Y-32640000D01*
X-9862678Y-32640000D01*
X-9900000Y-32636324D01*
X-9937322Y-32640000D01*
X-17846289Y-32640000D01*
X-17890226Y-32596063D01*
X-18059744Y-32482795D01*
X-18248102Y-32404774D01*
X-18448061Y-32365000D01*
X-18651939Y-32365000D01*
X-18851898Y-32404774D01*
X-19040256Y-32482795D01*
X-19209774Y-32596063D01*
X-19353937Y-32740226D01*
X-19467205Y-32909744D01*
X-19545226Y-33098102D01*
X-19585000Y-33298061D01*
X-19585000Y-33501939D01*
X-19545226Y-33701898D01*
X-19467205Y-33890256D01*
X-19410581Y-33975000D01*
X-19467205Y-34059744D01*
X-19545226Y-34248102D01*
X-19585000Y-34448061D01*
X-19585000Y-34651939D01*
X-19545226Y-34851898D01*
X-19467205Y-35040256D01*
X-19353937Y-35209774D01*
X-19209774Y-35353937D01*
X-19040256Y-35467205D01*
X-18851898Y-35545226D01*
X-18651939Y-35585000D01*
X-18448061Y-35585000D01*
X-18248102Y-35545226D01*
X-18059744Y-35467205D01*
X-17890226Y-35353937D01*
X-17846289Y-35310000D01*
X-16771212Y-35310000D01*
X-19261002Y-37799791D01*
X-19290000Y-37823589D01*
X-19313798Y-37852587D01*
X-19313799Y-37852588D01*
X-19384974Y-37939314D01*
X-19455546Y-38071344D01*
X-19482438Y-38159999D01*
X-19499002Y-38214604D01*
X-19502759Y-38252753D01*
X-19513676Y-38363590D01*
X-19509999Y-38400922D01*
X-19510000Y-50385198D01*
X-20214801Y-51090000D01*
X-21662678Y-51090000D01*
X-21700001Y-51086324D01*
X-21737324Y-51090000D01*
X-21737333Y-51090000D01*
X-21848986Y-51100997D01*
X-21992247Y-51144454D01*
X-22124276Y-51215026D01*
X-22240001Y-51309999D01*
X-22263800Y-51338998D01*
X-22616002Y-51691201D01*
X-22645000Y-51714999D01*
X-22668798Y-51743997D01*
X-22668799Y-51743998D01*
X-22739974Y-51830724D01*
X-22810546Y-51962754D01*
X-22822432Y-52001939D01*
X-22853388Y-52103992D01*
X-22854002Y-52106015D01*
X-22868676Y-52255000D01*
X-22864999Y-52292332D01*
X-22864999Y-52357023D01*
X-22910258Y-52412171D01*
X-22983084Y-52548418D01*
X-23027929Y-52696255D01*
X-23043072Y-52850000D01*
X-23043072Y-52912619D01*
X-23053992Y-52801746D01*
X-23104528Y-52635150D01*
X-23186595Y-52481614D01*
X-23297038Y-52347038D01*
X-23422309Y-52244231D01*
X-23404774Y-52201898D01*
X-23365000Y-52001939D01*
X-23365000Y-51798061D01*
X-23404774Y-51598102D01*
X-23482795Y-51409744D01*
X-23596063Y-51240226D01*
X-23740226Y-51096063D01*
X-23909744Y-50982795D01*
X-24098102Y-50904774D01*
X-24298061Y-50865000D01*
X-24501939Y-50865000D01*
X-24701898Y-50904774D01*
X-24890256Y-50982795D01*
X-25059774Y-51096063D01*
X-25203937Y-51240226D01*
X-25317205Y-51409744D01*
X-25395226Y-51598102D01*
X-25435000Y-51798061D01*
X-25435000Y-52001939D01*
X-25395226Y-52201898D01*
X-25377691Y-52244231D01*
X-25502962Y-52347038D01*
X-25613405Y-52481614D01*
X-25695472Y-52635150D01*
X-25746008Y-52801746D01*
X-25763072Y-52975000D01*
X-25763072Y-53650000D01*
X-25746008Y-53823254D01*
X-25695472Y-53989850D01*
X-25613405Y-54143386D01*
X-25502962Y-54277962D01*
X-25496406Y-54283342D01*
X-25576185Y-54348815D01*
X-25655537Y-54445506D01*
X-25714502Y-54555820D01*
X-25750812Y-54675518D01*
X-25763072Y-54800000D01*
X-25760000Y-55101750D01*
X-25601250Y-55260500D01*
X-24527000Y-55260500D01*
X-24527000Y-55240500D01*
X-24273000Y-55240500D01*
X-24273000Y-55260500D01*
X-23198750Y-55260500D01*
X-23040000Y-55101750D01*
X-23036928Y-54800000D01*
X-23049188Y-54675518D01*
X-23085498Y-54555820D01*
X-23144463Y-54445506D01*
X-23223815Y-54348815D01*
X-23303594Y-54283342D01*
X-23297038Y-54277962D01*
X-23186595Y-54143386D01*
X-23104528Y-53989850D01*
X-23053992Y-53823254D01*
X-23043072Y-53712381D01*
X-23043072Y-54500000D01*
X-23027929Y-54653745D01*
X-22983084Y-54801582D01*
X-22910258Y-54937829D01*
X-22812251Y-55057251D01*
X-22692829Y-55155258D01*
X-22556582Y-55228084D01*
X-22408745Y-55272929D01*
X-22255000Y-55288072D01*
X-21955000Y-55288072D01*
X-21801255Y-55272929D01*
X-21653418Y-55228084D01*
X-21519064Y-55156270D01*
X-21489494Y-55180537D01*
X-21379180Y-55239502D01*
X-21259482Y-55275812D01*
X-21135000Y-55288072D01*
X-21120750Y-55285000D01*
X-20962000Y-55126250D01*
X-20962000Y-53802000D01*
X-20982000Y-53802000D01*
X-20982000Y-53548000D01*
X-20962000Y-53548000D01*
X-20962000Y-53528000D01*
X-20708000Y-53528000D01*
X-20708000Y-53548000D01*
X-20688000Y-53548000D01*
X-20688000Y-53802000D01*
X-20708000Y-53802000D01*
X-20708000Y-55126250D01*
X-20568606Y-55265644D01*
X-20585000Y-55348061D01*
X-20585000Y-55551939D01*
X-20545226Y-55751898D01*
X-20467205Y-55940256D01*
X-20353937Y-56109774D01*
X-20209774Y-56253937D01*
X-20040256Y-56367205D01*
X-19851898Y-56445226D01*
X-19651939Y-56485000D01*
X-19448061Y-56485000D01*
X-19248102Y-56445226D01*
X-19059744Y-56367205D01*
X-18890226Y-56253937D01*
X-18746063Y-56109774D01*
X-18632795Y-55940256D01*
X-18554774Y-55751898D01*
X-18515000Y-55551939D01*
X-18515000Y-55348061D01*
X-18528570Y-55279841D01*
X-18445000Y-55288072D01*
X-18145000Y-55288072D01*
X-17991255Y-55272929D01*
X-17843418Y-55228084D01*
X-17707171Y-55155258D01*
X-17587749Y-55057251D01*
X-17489742Y-54937829D01*
X-17416916Y-54801582D01*
X-17372071Y-54653745D01*
X-17356928Y-54500000D01*
X-17356928Y-52917873D01*
X-16054273Y-54220529D01*
X-16177962Y-54322038D01*
X-16288405Y-54456613D01*
X-16370472Y-54610149D01*
X-16421008Y-54776745D01*
X-16438072Y-54949999D01*
X-16438072Y-55650001D01*
X-16421008Y-55823255D01*
X-16370472Y-55989851D01*
X-16288405Y-56143387D01*
X-16177962Y-56277962D01*
X-16151109Y-56300000D01*
X-16177962Y-56322038D01*
X-16288405Y-56456613D01*
X-16332976Y-56540000D01*
X-17957678Y-56540000D01*
X-17995001Y-56536324D01*
X-18032324Y-56540000D01*
X-18032333Y-56540000D01*
X-18143986Y-56550997D01*
X-18287247Y-56594454D01*
X-18419276Y-56665026D01*
X-18535001Y-56759999D01*
X-18558804Y-56789003D01*
X-18806002Y-57036201D01*
X-18835000Y-57059999D01*
X-18858798Y-57088997D01*
X-18858799Y-57088998D01*
X-18929974Y-57175724D01*
X-18932854Y-57181112D01*
X-18977171Y-57144742D01*
X-19113418Y-57071916D01*
X-19261255Y-57027071D01*
X-19415000Y-57011928D01*
X-19715000Y-57011928D01*
X-19868745Y-57027071D01*
X-20016582Y-57071916D01*
X-20152829Y-57144742D01*
X-20200000Y-57183454D01*
X-20247171Y-57144742D01*
X-20383418Y-57071916D01*
X-20531255Y-57027071D01*
X-20685000Y-57011928D01*
X-20985000Y-57011928D01*
X-21138745Y-57027071D01*
X-21286582Y-57071916D01*
X-21422829Y-57144742D01*
X-21470000Y-57183454D01*
X-21517171Y-57144742D01*
X-21653418Y-57071916D01*
X-21801255Y-57027071D01*
X-21955000Y-57011928D01*
X-22255000Y-57011928D01*
X-22408745Y-57027071D01*
X-22556582Y-57071916D01*
X-22692829Y-57144742D01*
X-22812251Y-57242749D01*
X-22910258Y-57362171D01*
X-22983084Y-57498418D01*
X-23027929Y-57646255D01*
X-23043072Y-57800000D01*
X-23043072Y-59450000D01*
X-23027929Y-59603745D01*
X-22983084Y-59751582D01*
X-22910258Y-59887829D01*
X-22812251Y-60007251D01*
X-22804152Y-60013898D01*
X-22893387Y-60061595D01*
X-23027962Y-60172038D01*
X-23138405Y-60306613D01*
X-23220472Y-60460149D01*
X-23271008Y-60626745D01*
X-23288072Y-60799999D01*
X-23288072Y-61700001D01*
X-23271008Y-61873255D01*
X-23220472Y-62039851D01*
X-23138405Y-62193387D01*
X-23027962Y-62327962D01*
X-22893387Y-62438405D01*
X-22809999Y-62482977D01*
X-22809999Y-63305197D01*
X-27156113Y-67651312D01*
X-27338665Y-67615000D01*
X-27621335Y-67615000D01*
X-27898574Y-67670147D01*
X-28159727Y-67778320D01*
X-28394759Y-67935363D01*
X-28594637Y-68135241D01*
X-28751680Y-68370273D01*
X-28811928Y-68515725D01*
X-28811928Y-68250000D01*
X-28824188Y-68125518D01*
X-28860498Y-68005820D01*
X-28919463Y-67895506D01*
X-28998815Y-67798815D01*
X-29095506Y-67719463D01*
X-29205820Y-67660498D01*
X-29325518Y-67624188D01*
X-29450000Y-67611928D01*
X-31050000Y-67611928D01*
X-31174482Y-67624188D01*
X-31294180Y-67660498D01*
X-31404494Y-67719463D01*
X-31501185Y-67798815D01*
X-31580537Y-67895506D01*
X-31639502Y-68005820D01*
X-31675812Y-68125518D01*
X-31688072Y-68250000D01*
X-31688072Y-69850000D01*
X-31675812Y-69974482D01*
X-31639502Y-70094180D01*
X-31580537Y-70204494D01*
X-31501185Y-70301185D01*
X-31404494Y-70380537D01*
X-31294180Y-70439502D01*
X-31174482Y-70475812D01*
X-31050000Y-70488072D01*
X-29450000Y-70488072D01*
X-29325518Y-70475812D01*
X-29205820Y-70439502D01*
X-29095506Y-70380537D01*
X-28998815Y-70301185D01*
X-28919463Y-70204494D01*
X-28860498Y-70094180D01*
X-28824188Y-69974482D01*
X-28811928Y-69850000D01*
X-28811928Y-69584275D01*
X-28751680Y-69729727D01*
X-28594637Y-69964759D01*
X-28394759Y-70164637D01*
X-28159727Y-70321680D01*
X-27898574Y-70429853D01*
X-27621335Y-70485000D01*
X-27338665Y-70485000D01*
X-27061426Y-70429853D01*
X-26855000Y-70344348D01*
X-26855000Y-70671956D01*
X-27009759Y-70775363D01*
X-27209637Y-70975241D01*
X-27366680Y-71210273D01*
X-27474853Y-71471426D01*
X-27480000Y-71497301D01*
X-27485147Y-71471426D01*
X-27593320Y-71210273D01*
X-27750363Y-70975241D01*
X-27950241Y-70775363D01*
X-28185273Y-70618320D01*
X-28446426Y-70510147D01*
X-28723665Y-70455000D01*
X-29006335Y-70455000D01*
X-29283574Y-70510147D01*
X-29544727Y-70618320D01*
X-29779759Y-70775363D01*
X-29979637Y-70975241D01*
X-30136680Y-71210273D01*
X-30244853Y-71471426D01*
X-30300000Y-71748665D01*
X-30300000Y-72031335D01*
X-30244853Y-72308574D01*
X-30136680Y-72569727D01*
X-29979637Y-72804759D01*
X-29779759Y-73004637D01*
X-29544727Y-73161680D01*
X-29283574Y-73269853D01*
X-29006335Y-73325000D01*
X-28723665Y-73325000D01*
X-28446426Y-73269853D01*
X-28185273Y-73161680D01*
X-27950241Y-73004637D01*
X-27750363Y-72804759D01*
X-27593320Y-72569727D01*
X-27485147Y-72308574D01*
X-27480000Y-72282699D01*
X-27474853Y-72308574D01*
X-27366680Y-72569727D01*
X-27209637Y-72804759D01*
X-27009759Y-73004637D01*
X-26774727Y-73161680D01*
X-26513574Y-73269853D01*
X-26236335Y-73325000D01*
X-25953665Y-73325000D01*
X-25676426Y-73269853D01*
X-25415273Y-73161680D01*
X-25180241Y-73004637D01*
X-24980363Y-72804759D01*
X-24823320Y-72569727D01*
X-24715147Y-72308574D01*
X-24710000Y-72282699D01*
X-24704853Y-72308574D01*
X-24596680Y-72569727D01*
X-24439637Y-72804759D01*
X-24239759Y-73004637D01*
X-24004727Y-73161680D01*
X-23743574Y-73269853D01*
X-23466335Y-73325000D01*
X-23183665Y-73325000D01*
X-22906426Y-73269853D01*
X-22645273Y-73161680D01*
X-22410241Y-73004637D01*
X-22210363Y-72804759D01*
X-22053320Y-72569727D01*
X-21945147Y-72308574D01*
X-21940000Y-72282699D01*
X-21934853Y-72308574D01*
X-21826680Y-72569727D01*
X-21669637Y-72804759D01*
X-21469759Y-73004637D01*
X-21234727Y-73161680D01*
X-20973574Y-73269853D01*
X-20696335Y-73325000D01*
X-20413665Y-73325000D01*
X-20136426Y-73269853D01*
X-19875273Y-73161680D01*
X-19640241Y-73004637D01*
X-19440363Y-72804759D01*
X-19283320Y-72569727D01*
X-19175147Y-72308574D01*
X-19120000Y-72031335D01*
X-19120000Y-71748665D01*
X-19175147Y-71471426D01*
X-19283320Y-71210273D01*
X-19440363Y-70975241D01*
X-19640241Y-70775363D01*
X-19875273Y-70618320D01*
X-20136426Y-70510147D01*
X-20413665Y-70455000D01*
X-20696335Y-70455000D01*
X-20973574Y-70510147D01*
X-21234727Y-70618320D01*
X-21469759Y-70775363D01*
X-21669637Y-70975241D01*
X-21826680Y-71210273D01*
X-21934853Y-71471426D01*
X-21940000Y-71497301D01*
X-21945147Y-71471426D01*
X-22053320Y-71210273D01*
X-22210363Y-70975241D01*
X-22410241Y-70775363D01*
X-22645273Y-70618320D01*
X-22906426Y-70510147D01*
X-23183665Y-70455000D01*
X-23466335Y-70455000D01*
X-23743574Y-70510147D01*
X-24004727Y-70618320D01*
X-24239759Y-70775363D01*
X-24439637Y-70975241D01*
X-24596680Y-71210273D01*
X-24704853Y-71471426D01*
X-24710000Y-71497301D01*
X-24715147Y-71471426D01*
X-24823320Y-71210273D01*
X-24980363Y-70975241D01*
X-25180241Y-70775363D01*
X-25335000Y-70671957D01*
X-25335000Y-70344349D01*
X-25128574Y-70429853D01*
X-24851335Y-70485000D01*
X-24568665Y-70485000D01*
X-24291426Y-70429853D01*
X-24030273Y-70321680D01*
X-23795241Y-70164637D01*
X-23595363Y-69964759D01*
X-23438320Y-69729727D01*
X-23330147Y-69468574D01*
X-23325000Y-69442699D01*
X-23319853Y-69468574D01*
X-23211680Y-69729727D01*
X-23054637Y-69964759D01*
X-22854759Y-70164637D01*
X-22619727Y-70321680D01*
X-22358574Y-70429853D01*
X-22081335Y-70485000D01*
X-21798665Y-70485000D01*
X-21521426Y-70429853D01*
X-21260273Y-70321680D01*
X-21025241Y-70164637D01*
X-20825363Y-69964759D01*
X-20668320Y-69729727D01*
X-20560147Y-69468574D01*
X-20555000Y-69442699D01*
X-20549853Y-69468574D01*
X-20441680Y-69729727D01*
X-20284637Y-69964759D01*
X-20084759Y-70164637D01*
X-19849727Y-70321680D01*
X-19588574Y-70429853D01*
X-19311335Y-70485000D01*
X-19028665Y-70485000D01*
X-18751426Y-70429853D01*
X-18490273Y-70321680D01*
X-18323843Y-70210475D01*
X-14845000Y-70210475D01*
X-14845000Y-70729525D01*
X-14743739Y-71238601D01*
X-14545107Y-71718141D01*
X-14256738Y-72149715D01*
X-13889715Y-72516738D01*
X-13458141Y-72805107D01*
X-12978601Y-73003739D01*
X-12469525Y-73105000D01*
X-11950475Y-73105000D01*
X-11441399Y-73003739D01*
X-10961859Y-72805107D01*
X-10530285Y-72516738D01*
X-10163262Y-72149715D01*
X-9874893Y-71718141D01*
X-9676261Y-71238601D01*
X-9575000Y-70729525D01*
X-9575000Y-70210475D01*
X-9676261Y-69701399D01*
X-9874893Y-69221859D01*
X-10163262Y-68790285D01*
X-10530285Y-68423262D01*
X-10961859Y-68134893D01*
X-11441399Y-67936261D01*
X-11950475Y-67835000D01*
X-12469525Y-67835000D01*
X-12978601Y-67936261D01*
X-13458141Y-68134893D01*
X-13889715Y-68423262D01*
X-14256738Y-68790285D01*
X-14545107Y-69221859D01*
X-14743739Y-69701399D01*
X-14845000Y-70210475D01*
X-18323843Y-70210475D01*
X-18255241Y-70164637D01*
X-18055363Y-69964759D01*
X-17898320Y-69729727D01*
X-17790147Y-69468574D01*
X-17735000Y-69191335D01*
X-17735000Y-68908665D01*
X-17790147Y-68631426D01*
X-17898320Y-68370273D01*
X-18055363Y-68135241D01*
X-18255241Y-67935363D01*
X-18490273Y-67778320D01*
X-18751426Y-67670147D01*
X-19028665Y-67615000D01*
X-19311335Y-67615000D01*
X-19588574Y-67670147D01*
X-19849727Y-67778320D01*
X-20084759Y-67935363D01*
X-20284637Y-68135241D01*
X-20441680Y-68370273D01*
X-20549853Y-68631426D01*
X-20555000Y-68657301D01*
X-20560147Y-68631426D01*
X-20668320Y-68370273D01*
X-20825363Y-68135241D01*
X-21025241Y-67935363D01*
X-21260273Y-67778320D01*
X-21521426Y-67670147D01*
X-21798665Y-67615000D01*
X-22081335Y-67615000D01*
X-22358574Y-67670147D01*
X-22619727Y-67778320D01*
X-22854759Y-67935363D01*
X-23054637Y-68135241D01*
X-23211680Y-68370273D01*
X-23319853Y-68631426D01*
X-23325000Y-68657301D01*
X-23330147Y-68631426D01*
X-23438320Y-68370273D01*
X-23595363Y-68135241D01*
X-23795241Y-67935363D01*
X-24030273Y-67778320D01*
X-24291426Y-67670147D01*
X-24372758Y-67653969D01*
X-20464006Y-63745218D01*
X-20435009Y-63721421D01*
X-20340036Y-63605696D01*
X-20269464Y-63473667D01*
X-20226007Y-63330406D01*
X-20215010Y-63218753D01*
X-20215010Y-63218744D01*
X-20211334Y-63181421D01*
X-20215010Y-63144098D01*
X-20215010Y-62588072D01*
X-19786730Y-62588072D01*
X-19763799Y-62611003D01*
X-19740001Y-62640001D01*
X-19624276Y-62734974D01*
X-19492247Y-62805546D01*
X-19348986Y-62849003D01*
X-19274655Y-62856324D01*
X-19200000Y-62863677D01*
X-19162667Y-62860000D01*
X-18218178Y-62860000D01*
X-18093475Y-63046632D01*
X-17886632Y-63253475D01*
X-17643411Y-63415990D01*
X-17373158Y-63527932D01*
X-17086260Y-63585000D01*
X-16793740Y-63585000D01*
X-16506842Y-63527932D01*
X-16236589Y-63415990D01*
X-15993368Y-63253475D01*
X-15861513Y-63121620D01*
X-15839502Y-63194180D01*
X-15780537Y-63304494D01*
X-15701185Y-63401185D01*
X-15604494Y-63480537D01*
X-15494180Y-63539502D01*
X-15374482Y-63575812D01*
X-15250000Y-63588072D01*
X-13550000Y-63588072D01*
X-13425518Y-63575812D01*
X-13305820Y-63539502D01*
X-13195506Y-63480537D01*
X-13098815Y-63401185D01*
X-13019463Y-63304494D01*
X-12960498Y-63194180D01*
X-12924188Y-63074482D01*
X-12911928Y-62950000D01*
X-12911928Y-61250000D01*
X-12924188Y-61125518D01*
X-12960498Y-61005820D01*
X-13019463Y-60895506D01*
X-13098815Y-60798815D01*
X-13195506Y-60719463D01*
X-13305820Y-60660498D01*
X-13425518Y-60624188D01*
X-13550000Y-60611928D01*
X-14813271Y-60611928D01*
X-15011197Y-60414002D01*
X-15035000Y-60384998D01*
X-15150725Y-60290025D01*
X-15282754Y-60219453D01*
X-15426015Y-60175996D01*
X-15537668Y-60164999D01*
X-15537679Y-60164999D01*
X-15575001Y-60161323D01*
X-15612323Y-60164999D01*
X-17818938Y-60164999D01*
X-17707171Y-60105258D01*
X-17587749Y-60007251D01*
X-17489742Y-59887829D01*
X-17416916Y-59751582D01*
X-17372071Y-59603745D01*
X-17356928Y-59450000D01*
X-17356928Y-58060000D01*
X-16332976Y-58060000D01*
X-16288405Y-58143387D01*
X-16177962Y-58277962D01*
X-16043387Y-58388405D01*
X-15889851Y-58470472D01*
X-15723255Y-58521008D01*
X-15550001Y-58538072D01*
X-14649999Y-58538072D01*
X-14476745Y-58521008D01*
X-14310149Y-58470472D01*
X-14156613Y-58388405D01*
X-14022038Y-58277962D01*
X-13911595Y-58143387D01*
X-13829528Y-57989851D01*
X-13778992Y-57823255D01*
X-13761928Y-57650001D01*
X-13761928Y-56949999D01*
X-13778992Y-56776745D01*
X-13829528Y-56610149D01*
X-13911595Y-56456613D01*
X-14022038Y-56322038D01*
X-14048891Y-56300000D01*
X-14022038Y-56277962D01*
X-13911595Y-56143387D01*
X-13829528Y-55989851D01*
X-13778992Y-55823255D01*
X-13761928Y-55650001D01*
X-13761928Y-54949999D01*
X-13778992Y-54776745D01*
X-13829528Y-54610149D01*
X-13911595Y-54456613D01*
X-14022038Y-54322038D01*
X-14156613Y-54211595D01*
X-14310149Y-54129528D01*
X-14338388Y-54120962D01*
X-14336323Y-54100000D01*
X-14350997Y-53951014D01*
X-14394454Y-53807753D01*
X-14465026Y-53675724D01*
X-14536201Y-53588997D01*
X-14559999Y-53559999D01*
X-14588997Y-53536201D01*
X-17040000Y-51085199D01*
X-17040000Y-48500000D01*
X-11888072Y-48500000D01*
X-11875812Y-48624482D01*
X-11839502Y-48744180D01*
X-11780537Y-48854494D01*
X-11701185Y-48951185D01*
X-11604494Y-49030537D01*
X-11494180Y-49089502D01*
X-11374482Y-49125812D01*
X-11250000Y-49138072D01*
X-10835750Y-49135000D01*
X-10677000Y-48976250D01*
X-10677000Y-48027000D01*
X-10423000Y-48027000D01*
X-10423000Y-48976250D01*
X-10264250Y-49135000D01*
X-9850000Y-49138072D01*
X-9725518Y-49125812D01*
X-9605820Y-49089502D01*
X-9495506Y-49030537D01*
X-9398815Y-48951185D01*
X-9319463Y-48854494D01*
X-9260498Y-48744180D01*
X-9224188Y-48624482D01*
X-9211928Y-48500000D01*
X-9215000Y-48185750D01*
X-9373750Y-48027000D01*
X-10423000Y-48027000D01*
X-10677000Y-48027000D01*
X-11726250Y-48027000D01*
X-11885000Y-48185750D01*
X-11888072Y-48500000D01*
X-17040000Y-48500000D01*
X-17040000Y-39014801D01*
X-16185200Y-38160003D01*
X-10703711Y-38160003D01*
X-10659774Y-38203940D01*
X-10490256Y-38317208D01*
X-10301898Y-38395229D01*
X-10101939Y-38435003D01*
X-9898061Y-38435003D01*
X-9698102Y-38395229D01*
X-9509744Y-38317208D01*
X-9340226Y-38203940D01*
X-9196063Y-38059777D01*
X-9160000Y-38005804D01*
X-9159999Y-43785670D01*
X-9163676Y-43823002D01*
X-9149002Y-43971987D01*
X-9105546Y-44115248D01*
X-9034974Y-44247278D01*
X-9004037Y-44284974D01*
X-8940000Y-44363003D01*
X-8911002Y-44386801D01*
X-8692804Y-44604999D01*
X-9977674Y-44604999D01*
X-10014999Y-44601323D01*
X-10052324Y-44604999D01*
X-10052332Y-44604999D01*
X-10163985Y-44615996D01*
X-10307246Y-44659453D01*
X-10311876Y-44661928D01*
X-11000001Y-44661928D01*
X-11173255Y-44678992D01*
X-11339851Y-44729528D01*
X-11493387Y-44811595D01*
X-11627962Y-44922038D01*
X-11738405Y-45056613D01*
X-11820472Y-45210149D01*
X-11871008Y-45376745D01*
X-11888072Y-45549999D01*
X-11888072Y-46250001D01*
X-11871008Y-46423255D01*
X-11820472Y-46589851D01*
X-11738405Y-46743387D01*
X-11671724Y-46824637D01*
X-11701185Y-46848815D01*
X-11780537Y-46945506D01*
X-11839502Y-47055820D01*
X-11875812Y-47175518D01*
X-11888072Y-47300000D01*
X-11885000Y-47614250D01*
X-11726250Y-47773000D01*
X-10677000Y-47773000D01*
X-10677000Y-47753000D01*
X-10423000Y-47753000D01*
X-10423000Y-47773000D01*
X-9373750Y-47773000D01*
X-9215000Y-47614250D01*
X-9211928Y-47300000D01*
X-9224188Y-47175518D01*
X-9260498Y-47055820D01*
X-9319463Y-46945506D01*
X-9398815Y-46848815D01*
X-9428276Y-46824637D01*
X-9361595Y-46743387D01*
X-9279528Y-46589851D01*
X-9228992Y-46423255D01*
X-9211928Y-46250001D01*
X-9211928Y-46124999D01*
X-7171544Y-46124999D01*
X-7225000Y-46393740D01*
X-7225000Y-46686260D01*
X-7167932Y-46973158D01*
X-7055990Y-47243411D01*
X-6893475Y-47486632D01*
X-6686632Y-47693475D01*
X-6512240Y-47810000D01*
X-6686632Y-47926525D01*
X-6893475Y-48133368D01*
X-7055990Y-48376589D01*
X-7167932Y-48646842D01*
X-7225000Y-48933740D01*
X-7225000Y-49226260D01*
X-7167932Y-49513158D01*
X-7055990Y-49783411D01*
X-6893475Y-50026632D01*
X-6686632Y-50233475D01*
X-6512240Y-50350000D01*
X-6686632Y-50466525D01*
X-6893475Y-50673368D01*
X-7055990Y-50916589D01*
X-7167932Y-51186842D01*
X-7225000Y-51473740D01*
X-7225000Y-51766260D01*
X-7167932Y-52053158D01*
X-7055990Y-52323411D01*
X-6893475Y-52566632D01*
X-6686632Y-52773475D01*
X-6512240Y-52890000D01*
X-6686632Y-53006525D01*
X-6893475Y-53213368D01*
X-7055990Y-53456589D01*
X-7167932Y-53726842D01*
X-7225000Y-54013740D01*
X-7225000Y-54306260D01*
X-7167932Y-54593158D01*
X-7055990Y-54863411D01*
X-6893475Y-55106632D01*
X-6686632Y-55313475D01*
X-6512240Y-55430000D01*
X-6686632Y-55546525D01*
X-6893475Y-55753368D01*
X-7055990Y-55996589D01*
X-7167932Y-56266842D01*
X-7225000Y-56553740D01*
X-7225000Y-56846260D01*
X-7167932Y-57133158D01*
X-7055990Y-57403411D01*
X-6893475Y-57646632D01*
X-6686632Y-57853475D01*
X-6512240Y-57970000D01*
X-6686632Y-58086525D01*
X-6893475Y-58293368D01*
X-7055990Y-58536589D01*
X-7167932Y-58806842D01*
X-7225000Y-59093740D01*
X-7225000Y-59386260D01*
X-7167932Y-59673158D01*
X-7055990Y-59943411D01*
X-6893475Y-60186632D01*
X-6686632Y-60393475D01*
X-6512240Y-60510000D01*
X-6686632Y-60626525D01*
X-6893475Y-60833368D01*
X-7055990Y-61076589D01*
X-7167932Y-61346842D01*
X-7225000Y-61633740D01*
X-7225000Y-61926260D01*
X-7167932Y-62213158D01*
X-7055990Y-62483411D01*
X-6893475Y-62726632D01*
X-6686632Y-62933475D01*
X-6512240Y-63050000D01*
X-6686632Y-63166525D01*
X-6893475Y-63373368D01*
X-7055990Y-63616589D01*
X-7167932Y-63886842D01*
X-7225000Y-64173740D01*
X-7225000Y-64466260D01*
X-7167932Y-64753158D01*
X-7055990Y-65023411D01*
X-6893475Y-65266632D01*
X-6686632Y-65473475D01*
X-6512240Y-65590000D01*
X-6686632Y-65706525D01*
X-6893475Y-65913368D01*
X-7055990Y-66156589D01*
X-7167932Y-66426842D01*
X-7225000Y-66713740D01*
X-7225000Y-67006260D01*
X-7167932Y-67293158D01*
X-7055990Y-67563411D01*
X-6893475Y-67806632D01*
X-6686632Y-68013475D01*
X-6512240Y-68130000D01*
X-6686632Y-68246525D01*
X-6893475Y-68453368D01*
X-7055990Y-68696589D01*
X-7167932Y-68966842D01*
X-7225000Y-69253740D01*
X-7225000Y-69546260D01*
X-7167932Y-69833158D01*
X-7055990Y-70103411D01*
X-6893475Y-70346632D01*
X-6686632Y-70553475D01*
X-6512240Y-70670000D01*
X-6686632Y-70786525D01*
X-6893475Y-70993368D01*
X-7055990Y-71236589D01*
X-7167932Y-71506842D01*
X-7225000Y-71793740D01*
X-7225000Y-72086260D01*
X-7167932Y-72373158D01*
X-7055990Y-72643411D01*
X-6893475Y-72886632D01*
X-6686632Y-73093475D01*
X-6512240Y-73210000D01*
X-6686632Y-73326525D01*
X-6893475Y-73533368D01*
X-7055990Y-73776589D01*
X-7167932Y-74046842D01*
X-7225000Y-74333740D01*
X-7225000Y-74626260D01*
X-7167932Y-74913158D01*
X-7055990Y-75183411D01*
X-6893475Y-75426632D01*
X-6686632Y-75633475D01*
X-6512240Y-75750000D01*
X-6686632Y-75866525D01*
X-6893475Y-76073368D01*
X-7055990Y-76316589D01*
X-7167932Y-76586842D01*
X-7225000Y-76873740D01*
X-7225000Y-77166260D01*
X-7167932Y-77453158D01*
X-7055990Y-77723411D01*
X-6893475Y-77966632D01*
X-6686632Y-78173475D01*
X-6443411Y-78335990D01*
X-6173158Y-78447932D01*
X-5886260Y-78505000D01*
X-5593740Y-78505000D01*
X-5306842Y-78447932D01*
X-5036589Y-78335990D01*
X-4793368Y-78173475D01*
X-4586525Y-77966632D01*
X-4470000Y-77792240D01*
X-4353475Y-77966632D01*
X-4146632Y-78173475D01*
X-3903411Y-78335990D01*
X-3633158Y-78447932D01*
X-3346260Y-78505000D01*
X-3053740Y-78505000D01*
X-2766842Y-78447932D01*
X-2496589Y-78335990D01*
X-2253368Y-78173475D01*
X-2046525Y-77966632D01*
X-1884010Y-77723411D01*
X-1772068Y-77453158D01*
X-1715000Y-77166260D01*
X-1715000Y-76873740D01*
X-1772068Y-76586842D01*
X-1884010Y-76316589D01*
X-2046525Y-76073368D01*
X-2253368Y-75866525D01*
X-2427760Y-75750000D01*
X-2253368Y-75633475D01*
X-2046525Y-75426632D01*
X-1884010Y-75183411D01*
X-1772068Y-74913158D01*
X-1715000Y-74626260D01*
X-1715000Y-74333740D01*
X-1772068Y-74046842D01*
X-1884010Y-73776589D01*
X-2046525Y-73533368D01*
X-2253368Y-73326525D01*
X-2427760Y-73210000D01*
X-2253368Y-73093475D01*
X-2046525Y-72886632D01*
X-1884010Y-72643411D01*
X-1772068Y-72373158D01*
X-1715000Y-72086260D01*
X-1715000Y-71793740D01*
X-1758790Y-71573592D01*
X-1319999Y-71134801D01*
X-1319999Y-76987711D01*
X-1358909Y-77384545D01*
X-1464780Y-77735206D01*
X-1636743Y-78058623D01*
X-1868252Y-78342482D01*
X-2150486Y-78575965D01*
X-2472696Y-78750184D01*
X-2822615Y-78858502D01*
X-3217443Y-78900000D01*
X-66667721Y-78900000D01*
X-67064545Y-78861091D01*
X-67415206Y-78755220D01*
X-67738623Y-78583257D01*
X-68022482Y-78351748D01*
X-68255965Y-78069514D01*
X-68430184Y-77747304D01*
X-68538502Y-77397385D01*
X-68580000Y-77002557D01*
X-68580000Y-55894801D01*
X-68141209Y-56333592D01*
X-68185000Y-56553740D01*
X-68185000Y-56846260D01*
X-68127932Y-57133158D01*
X-68015990Y-57403411D01*
X-67853475Y-57646632D01*
X-67646632Y-57853475D01*
X-67472240Y-57970000D01*
X-67646632Y-58086525D01*
X-67853475Y-58293368D01*
X-68015990Y-58536589D01*
X-68127932Y-58806842D01*
X-68185000Y-59093740D01*
X-68185000Y-59386260D01*
X-68127932Y-59673158D01*
X-68015990Y-59943411D01*
X-67853475Y-60186632D01*
X-67646632Y-60393475D01*
X-67472240Y-60510000D01*
X-67646632Y-60626525D01*
X-67853475Y-60833368D01*
X-68015990Y-61076589D01*
X-68127932Y-61346842D01*
X-68185000Y-61633740D01*
X-68185000Y-61926260D01*
X-68127932Y-62213158D01*
X-68015990Y-62483411D01*
X-67853475Y-62726632D01*
X-67646632Y-62933475D01*
X-67472240Y-63050000D01*
X-67646632Y-63166525D01*
X-67853475Y-63373368D01*
X-68015990Y-63616589D01*
X-68127932Y-63886842D01*
X-68185000Y-64173740D01*
X-68185000Y-64466260D01*
X-68127932Y-64753158D01*
X-68015990Y-65023411D01*
X-67853475Y-65266632D01*
X-67646632Y-65473475D01*
X-67472240Y-65590000D01*
X-67646632Y-65706525D01*
X-67853475Y-65913368D01*
X-68015990Y-66156589D01*
X-68127932Y-66426842D01*
X-68185000Y-66713740D01*
X-68185000Y-67006260D01*
X-68127932Y-67293158D01*
X-68015990Y-67563411D01*
X-67853475Y-67806632D01*
X-67646632Y-68013475D01*
X-67472240Y-68130000D01*
X-67646632Y-68246525D01*
X-67853475Y-68453368D01*
X-68015990Y-68696589D01*
X-68127932Y-68966842D01*
X-68185000Y-69253740D01*
X-68185000Y-69546260D01*
X-68127932Y-69833158D01*
X-68015990Y-70103411D01*
X-67853475Y-70346632D01*
X-67646632Y-70553475D01*
X-67472240Y-70670000D01*
X-67646632Y-70786525D01*
X-67853475Y-70993368D01*
X-68015990Y-71236589D01*
X-68127932Y-71506842D01*
X-68185000Y-71793740D01*
X-68185000Y-72086260D01*
X-68127932Y-72373158D01*
X-68015990Y-72643411D01*
X-67853475Y-72886632D01*
X-67646632Y-73093475D01*
X-67472240Y-73210000D01*
X-67646632Y-73326525D01*
X-67853475Y-73533368D01*
X-68015990Y-73776589D01*
X-68127932Y-74046842D01*
X-68185000Y-74333740D01*
X-68185000Y-74626260D01*
X-68127932Y-74913158D01*
X-68015990Y-75183411D01*
X-67853475Y-75426632D01*
X-67646632Y-75633475D01*
X-67472240Y-75750000D01*
X-67646632Y-75866525D01*
X-67853475Y-76073368D01*
X-68015990Y-76316589D01*
X-68127932Y-76586842D01*
X-68185000Y-76873740D01*
X-68185000Y-77166260D01*
X-68127932Y-77453158D01*
X-68015990Y-77723411D01*
X-67853475Y-77966632D01*
X-67646632Y-78173475D01*
X-67403411Y-78335990D01*
X-67133158Y-78447932D01*
X-66846260Y-78505000D01*
X-66553740Y-78505000D01*
X-66266842Y-78447932D01*
X-65996589Y-78335990D01*
X-65753368Y-78173475D01*
X-65546525Y-77966632D01*
X-65430000Y-77792240D01*
X-65313475Y-77966632D01*
X-65106632Y-78173475D01*
X-64863411Y-78335990D01*
X-64593158Y-78447932D01*
X-64306260Y-78505000D01*
X-64013740Y-78505000D01*
X-63726842Y-78447932D01*
X-63456589Y-78335990D01*
X-63213368Y-78173475D01*
X-63006525Y-77966632D01*
X-62844010Y-77723411D01*
X-62732068Y-77453158D01*
X-62675000Y-77166260D01*
X-62675000Y-76873740D01*
X-62718791Y-76653592D01*
X-62415199Y-76350000D01*
X-60688072Y-76350000D01*
X-60675812Y-76474482D01*
X-60639502Y-76594180D01*
X-60580537Y-76704494D01*
X-60501185Y-76801185D01*
X-60404494Y-76880537D01*
X-60294180Y-76939502D01*
X-60174482Y-76975812D01*
X-60050000Y-76988072D01*
X-59485750Y-76985000D01*
X-59327000Y-76826250D01*
X-59327000Y-75627000D01*
X-59073000Y-75627000D01*
X-59073000Y-76826250D01*
X-58914250Y-76985000D01*
X-58350000Y-76988072D01*
X-58225518Y-76975812D01*
X-58105820Y-76939502D01*
X-57995506Y-76880537D01*
X-57898815Y-76801185D01*
X-57819463Y-76704494D01*
X-57760498Y-76594180D01*
X-57724188Y-76474482D01*
X-57711928Y-76350000D01*
X-57715000Y-75785750D01*
X-57873750Y-75627000D01*
X-59073000Y-75627000D01*
X-59327000Y-75627000D01*
X-60526250Y-75627000D01*
X-60685000Y-75785750D01*
X-60688072Y-76350000D01*
X-62415199Y-76350000D01*
X-61588997Y-75523799D01*
X-61559999Y-75500001D01*
X-61533668Y-75467917D01*
X-61465026Y-75384277D01*
X-61394454Y-75252247D01*
X-61374221Y-75185546D01*
X-61350997Y-75108986D01*
X-61340000Y-74997333D01*
X-61340000Y-74997323D01*
X-61336324Y-74960000D01*
X-61340000Y-74922677D01*
X-61340000Y-73634801D01*
X-60685000Y-72979801D01*
X-60685000Y-73106260D01*
X-60627932Y-73393158D01*
X-60515990Y-73663411D01*
X-60353475Y-73906632D01*
X-60221620Y-74038487D01*
X-60294180Y-74060498D01*
X-60404494Y-74119463D01*
X-60501185Y-74198815D01*
X-60580537Y-74295506D01*
X-60639502Y-74405820D01*
X-60675812Y-74525518D01*
X-60688072Y-74650000D01*
X-60685000Y-75214250D01*
X-60526250Y-75373000D01*
X-59327000Y-75373000D01*
X-59327000Y-75353000D01*
X-59073000Y-75353000D01*
X-59073000Y-75373000D01*
X-57873750Y-75373000D01*
X-57715000Y-75214250D01*
X-57711928Y-74650000D01*
X-57724188Y-74525518D01*
X-57760498Y-74405820D01*
X-57819463Y-74295506D01*
X-57898815Y-74198815D01*
X-57995506Y-74119463D01*
X-58105820Y-74060498D01*
X-58178380Y-74038487D01*
X-58046525Y-73906632D01*
X-57884010Y-73663411D01*
X-57772068Y-73393158D01*
X-57715000Y-73106260D01*
X-57715000Y-72813740D01*
X-57772068Y-72526842D01*
X-57884010Y-72256589D01*
X-58046525Y-72013368D01*
X-58253368Y-71806525D01*
X-58427760Y-71690000D01*
X-58253368Y-71573475D01*
X-58046525Y-71366632D01*
X-57884010Y-71123411D01*
X-57772068Y-70853158D01*
X-57715000Y-70566260D01*
X-57715000Y-70273740D01*
X-57727584Y-70210475D01*
X-39845000Y-70210475D01*
X-39845000Y-70729525D01*
X-39743739Y-71238601D01*
X-39545107Y-71718141D01*
X-39256738Y-72149715D01*
X-38889715Y-72516738D01*
X-38458141Y-72805107D01*
X-37978601Y-73003739D01*
X-37469525Y-73105000D01*
X-36950475Y-73105000D01*
X-36441399Y-73003739D01*
X-35961859Y-72805107D01*
X-35530285Y-72516738D01*
X-35163262Y-72149715D01*
X-34874893Y-71718141D01*
X-34676261Y-71238601D01*
X-34575000Y-70729525D01*
X-34575000Y-70210475D01*
X-34676261Y-69701399D01*
X-34874893Y-69221859D01*
X-35163262Y-68790285D01*
X-35530285Y-68423262D01*
X-35961859Y-68134893D01*
X-36441399Y-67936261D01*
X-36950475Y-67835000D01*
X-37469525Y-67835000D01*
X-37978601Y-67936261D01*
X-38458141Y-68134893D01*
X-38889715Y-68423262D01*
X-39256738Y-68790285D01*
X-39545107Y-69221859D01*
X-39743739Y-69701399D01*
X-39845000Y-70210475D01*
X-57727584Y-70210475D01*
X-57772068Y-69986842D01*
X-57884010Y-69716589D01*
X-58046525Y-69473368D01*
X-58253368Y-69266525D01*
X-58427760Y-69150000D01*
X-58253368Y-69033475D01*
X-58046525Y-68826632D01*
X-57884010Y-68583411D01*
X-57772068Y-68313158D01*
X-57715000Y-68026260D01*
X-57715000Y-67733740D01*
X-57772068Y-67446842D01*
X-57884010Y-67176589D01*
X-58046525Y-66933368D01*
X-58253368Y-66726525D01*
X-58427760Y-66610000D01*
X-58253368Y-66493475D01*
X-58046525Y-66286632D01*
X-57884010Y-66043411D01*
X-57772068Y-65773158D01*
X-57715000Y-65486260D01*
X-57715000Y-65193740D01*
X-57772068Y-64906842D01*
X-57884010Y-64636589D01*
X-58046525Y-64393368D01*
X-58253368Y-64186525D01*
X-58496589Y-64024010D01*
X-58766842Y-63912068D01*
X-59053740Y-63855000D01*
X-59346260Y-63855000D01*
X-59633158Y-63912068D01*
X-59903411Y-64024010D01*
X-60146632Y-64186525D01*
X-60353475Y-64393368D01*
X-60515990Y-64636589D01*
X-60627932Y-64906842D01*
X-60640000Y-64967511D01*
X-60640000Y-55975000D01*
X-25763072Y-55975000D01*
X-25750812Y-56099482D01*
X-25714502Y-56219180D01*
X-25655537Y-56329494D01*
X-25576185Y-56426185D01*
X-25479494Y-56505537D01*
X-25369180Y-56564502D01*
X-25249482Y-56600812D01*
X-25125000Y-56613072D01*
X-24685750Y-56610000D01*
X-24527000Y-56451250D01*
X-24527000Y-55514500D01*
X-24273000Y-55514500D01*
X-24273000Y-56451250D01*
X-24114250Y-56610000D01*
X-23675000Y-56613072D01*
X-23550518Y-56600812D01*
X-23430820Y-56564502D01*
X-23320506Y-56505537D01*
X-23223815Y-56426185D01*
X-23144463Y-56329494D01*
X-23085498Y-56219180D01*
X-23049188Y-56099482D01*
X-23036928Y-55975000D01*
X-23040000Y-55673250D01*
X-23198750Y-55514500D01*
X-24273000Y-55514500D01*
X-24527000Y-55514500D01*
X-25601250Y-55514500D01*
X-25760000Y-55673250D01*
X-25763072Y-55975000D01*
X-60640000Y-55975000D01*
X-60640000Y-51514801D01*
X-57285198Y-48160000D01*
X-55378072Y-48160000D01*
X-55378072Y-48900000D01*
X-55365812Y-49024482D01*
X-55329502Y-49144180D01*
X-55270537Y-49254494D01*
X-55191185Y-49351185D01*
X-55094494Y-49430537D01*
X-54984180Y-49489502D01*
X-54864482Y-49525812D01*
X-54740000Y-49538072D01*
X-51740000Y-49538072D01*
X-51615518Y-49525812D01*
X-51495820Y-49489502D01*
X-51385506Y-49430537D01*
X-51288815Y-49351185D01*
X-51209463Y-49254494D01*
X-51150498Y-49144180D01*
X-51114188Y-49024482D01*
X-51101928Y-48900000D01*
X-51101928Y-47189721D01*
X-34885000Y-47189721D01*
X-34885000Y-47610279D01*
X-34802953Y-48022756D01*
X-34642012Y-48411302D01*
X-34408363Y-48760983D01*
X-34110983Y-49058363D01*
X-33761302Y-49292012D01*
X-33372756Y-49452953D01*
X-32960279Y-49535000D01*
X-32539721Y-49535000D01*
X-32127244Y-49452953D01*
X-31738698Y-49292012D01*
X-31389017Y-49058363D01*
X-31091637Y-48760983D01*
X-30857988Y-48411302D01*
X-30697047Y-48022756D01*
X-30615000Y-47610279D01*
X-30615000Y-47189721D01*
X-30697047Y-46777244D01*
X-30857988Y-46388698D01*
X-31091637Y-46039017D01*
X-31389017Y-45741637D01*
X-31738698Y-45507988D01*
X-32127244Y-45347047D01*
X-32539721Y-45265000D01*
X-32960279Y-45265000D01*
X-33372756Y-45347047D01*
X-33761302Y-45507988D01*
X-34110983Y-45741637D01*
X-34408363Y-46039017D01*
X-34642012Y-46388698D01*
X-34802953Y-46777244D01*
X-34885000Y-47189721D01*
X-51101928Y-47189721D01*
X-51101928Y-45900000D01*
X-51114188Y-45775518D01*
X-51150498Y-45655820D01*
X-51209463Y-45545506D01*
X-51288815Y-45448815D01*
X-51385506Y-45369463D01*
X-51495820Y-45310498D01*
X-51615518Y-45274188D01*
X-51740000Y-45261928D01*
X-54740000Y-45261928D01*
X-54864482Y-45274188D01*
X-54984180Y-45310498D01*
X-55094494Y-45369463D01*
X-55191185Y-45448815D01*
X-55270537Y-45545506D01*
X-55329502Y-45655820D01*
X-55365812Y-45775518D01*
X-55378072Y-45900000D01*
X-55378072Y-46640000D01*
X-57562675Y-46640000D01*
X-57600000Y-46636324D01*
X-57637325Y-46640000D01*
X-57637333Y-46640000D01*
X-57748986Y-46650997D01*
X-57892247Y-46694454D01*
X-58024276Y-46765026D01*
X-58140001Y-46859999D01*
X-58163799Y-46888997D01*
X-61911002Y-50636201D01*
X-61940000Y-50659999D01*
X-61963798Y-50688997D01*
X-61963799Y-50688998D01*
X-62034974Y-50775724D01*
X-62105546Y-50907754D01*
X-62149002Y-51051015D01*
X-62163676Y-51200000D01*
X-62159999Y-51237333D01*
X-62159999Y-52065000D01*
X-62301939Y-52065000D01*
X-62501898Y-52104774D01*
X-62690256Y-52182795D01*
X-62822315Y-52271034D01*
X-62732068Y-52053158D01*
X-62675000Y-51766260D01*
X-62675000Y-51473740D01*
X-62732068Y-51186842D01*
X-62844010Y-50916589D01*
X-63006525Y-50673368D01*
X-63213368Y-50466525D01*
X-63386729Y-50350689D01*
X-63311208Y-50108397D01*
X-64160000Y-49259605D01*
X-64174142Y-49273748D01*
X-64353747Y-49094143D01*
X-64339605Y-49080000D01*
X-64353747Y-49065858D01*
X-64174142Y-48886253D01*
X-64160000Y-48900395D01*
X-64145857Y-48886253D01*
X-63966252Y-49065858D01*
X-63980395Y-49080000D01*
X-63131603Y-49928792D01*
X-62882528Y-49851157D01*
X-62756629Y-49587117D01*
X-62710130Y-49403926D01*
X-62690256Y-49417205D01*
X-62501898Y-49495226D01*
X-62301939Y-49535000D01*
X-62098061Y-49535000D01*
X-61898102Y-49495226D01*
X-61709744Y-49417205D01*
X-61540226Y-49303937D01*
X-61396063Y-49159774D01*
X-61282795Y-48990256D01*
X-61204774Y-48801898D01*
X-61165000Y-48601939D01*
X-61165000Y-48398061D01*
X-61204774Y-48198102D01*
X-61282795Y-48009744D01*
X-61396063Y-47840226D01*
X-61440000Y-47796289D01*
X-61440000Y-39898816D01*
X-59385000Y-39898816D01*
X-59385000Y-40201184D01*
X-59326011Y-40497743D01*
X-59210299Y-40777095D01*
X-59042312Y-41028505D01*
X-58828505Y-41242312D01*
X-58577095Y-41410299D01*
X-58297743Y-41526011D01*
X-58001184Y-41585000D01*
X-57698816Y-41585000D01*
X-57402257Y-41526011D01*
X-57122905Y-41410299D01*
X-56871495Y-41242312D01*
X-56657688Y-41028505D01*
X-56489701Y-40777095D01*
X-56373989Y-40497743D01*
X-56315000Y-40201184D01*
X-56315000Y-39898816D01*
X-56373989Y-39602257D01*
X-56489701Y-39322905D01*
X-56657688Y-39071495D01*
X-56871495Y-38857688D01*
X-57122905Y-38689701D01*
X-57402257Y-38573989D01*
X-57698816Y-38515000D01*
X-58001184Y-38515000D01*
X-58297743Y-38573989D01*
X-58577095Y-38689701D01*
X-58828505Y-38857688D01*
X-59042312Y-39071495D01*
X-59210299Y-39322905D01*
X-59326011Y-39602257D01*
X-59385000Y-39898816D01*
X-61440000Y-39898816D01*
X-61440000Y-37310000D01*
X-52587322Y-37310000D01*
X-52550000Y-37313676D01*
X-52512678Y-37310000D01*
X-52512667Y-37310000D01*
X-52401014Y-37299003D01*
X-52257753Y-37255546D01*
X-52125724Y-37184974D01*
X-52009999Y-37090001D01*
X-51986196Y-37060998D01*
X-51763271Y-36838072D01*
X-51149999Y-36838072D01*
X-50976745Y-36821008D01*
X-50810149Y-36770472D01*
X-50656613Y-36688405D01*
X-50522038Y-36577962D01*
X-50500000Y-36551109D01*
X-50477962Y-36577962D01*
X-50343387Y-36688405D01*
X-50189851Y-36770472D01*
X-50023255Y-36821008D01*
X-49850001Y-36838072D01*
X-49149999Y-36838072D01*
X-48976745Y-36821008D01*
X-48810149Y-36770472D01*
X-48656613Y-36688405D01*
X-48522038Y-36577962D01*
X-48411595Y-36443387D01*
X-48374388Y-36373778D01*
X-48201898Y-36445226D01*
X-48001939Y-36485000D01*
X-47798061Y-36485000D01*
X-47598102Y-36445226D01*
X-47409744Y-36367205D01*
X-47240226Y-36253937D01*
X-47096063Y-36109774D01*
X-46982795Y-35940256D01*
X-46904774Y-35751898D01*
X-46865000Y-35551939D01*
X-46865000Y-35348061D01*
X-46904774Y-35148102D01*
X-46982795Y-34959744D01*
X-47096063Y-34790226D01*
X-47240226Y-34646063D01*
X-47409744Y-34532795D01*
X-47598102Y-34454774D01*
X-47798061Y-34415000D01*
X-48001939Y-34415000D01*
X-48201898Y-34454774D01*
X-48390256Y-34532795D01*
X-48416662Y-34550439D01*
X-48522038Y-34422038D01*
X-48656613Y-34311595D01*
X-48678306Y-34300000D01*
X-48656613Y-34288405D01*
X-48522038Y-34177962D01*
X-48411595Y-34043387D01*
X-48329528Y-33889851D01*
X-48278992Y-33723255D01*
X-48261928Y-33550001D01*
X-48261928Y-32649999D01*
X-48278992Y-32476745D01*
X-48329528Y-32310149D01*
X-48411595Y-32156613D01*
X-48522038Y-32022038D01*
X-48656613Y-31911595D01*
X-48810149Y-31829528D01*
X-48976745Y-31778992D01*
X-49149999Y-31761928D01*
X-49850001Y-31761928D01*
X-50023255Y-31778992D01*
X-50189851Y-31829528D01*
X-50343387Y-31911595D01*
X-50477962Y-32022038D01*
X-50500000Y-32048891D01*
X-50522038Y-32022038D01*
X-50656613Y-31911595D01*
X-50810149Y-31829528D01*
X-50976745Y-31778992D01*
X-51149999Y-31761928D01*
X-51850001Y-31761928D01*
X-52023255Y-31778992D01*
X-52189851Y-31829528D01*
X-52343387Y-31911595D01*
X-52477962Y-32022038D01*
X-52588405Y-32156613D01*
X-52670472Y-32310149D01*
X-52679527Y-32340000D01*
X-52962678Y-32340000D01*
X-53000001Y-32336324D01*
X-53037324Y-32340000D01*
X-53037333Y-32340000D01*
X-53148986Y-32350997D01*
X-53292247Y-32394454D01*
X-53424276Y-32465026D01*
X-53424278Y-32465027D01*
X-53424277Y-32465027D01*
X-53511004Y-32536201D01*
X-53511008Y-32536205D01*
X-53540001Y-32559999D01*
X-53563795Y-32588992D01*
X-55264801Y-34290000D01*
X-56511687Y-34290000D01*
X-56657688Y-34071495D01*
X-56871495Y-33857688D01*
X-57122905Y-33689701D01*
X-57402257Y-33573989D01*
X-57698816Y-33515000D01*
X-58001184Y-33515000D01*
X-58297743Y-33573989D01*
X-58577095Y-33689701D01*
X-58828505Y-33857688D01*
X-59042312Y-34071495D01*
X-59210299Y-34322905D01*
X-59326011Y-34602257D01*
X-59385000Y-34898816D01*
X-59385000Y-35201184D01*
X-59326011Y-35497743D01*
X-59210299Y-35777095D01*
X-59201676Y-35790000D01*
X-61812675Y-35790000D01*
X-61850000Y-35786324D01*
X-61887325Y-35790000D01*
X-61887333Y-35790000D01*
X-61998986Y-35800997D01*
X-62142247Y-35844454D01*
X-62274276Y-35915026D01*
X-62390001Y-36009999D01*
X-62413804Y-36039003D01*
X-62675000Y-36300199D01*
X-62675000Y-36233740D01*
X-62718790Y-36013592D01*
X-62473995Y-35768797D01*
X-62444998Y-35745000D01*
X-62350025Y-35629275D01*
X-62279453Y-35497246D01*
X-62235996Y-35353985D01*
X-62224999Y-35242332D01*
X-62224999Y-35242323D01*
X-62221323Y-35205000D01*
X-62224999Y-35167677D01*
X-62224999Y-32499800D01*
X-60185198Y-30460000D01*
X-53737322Y-30460000D01*
X-53700000Y-30463676D01*
X-53662678Y-30460000D01*
X-53662667Y-30460000D01*
X-53551014Y-30449003D01*
X-53407753Y-30405546D01*
X-53275724Y-30334974D01*
X-53159999Y-30240001D01*
X-53136196Y-30210997D01*
X-51738996Y-28813798D01*
X-51709999Y-28790001D01*
X-51615026Y-28674276D01*
X-51544454Y-28542247D01*
X-51500997Y-28398986D01*
X-51490000Y-28287333D01*
X-51490000Y-28287325D01*
X-51486324Y-28250000D01*
X-51490000Y-28212675D01*
X-51490000Y-27832976D01*
X-51406613Y-27788405D01*
X-51272038Y-27677962D01*
X-51161595Y-27543387D01*
X-51079528Y-27389851D01*
X-51028992Y-27223255D01*
X-51011928Y-27050001D01*
X-51011928Y-26149999D01*
X-51028992Y-25976745D01*
X-51079528Y-25810149D01*
X-51161595Y-25656613D01*
X-51272038Y-25522038D01*
X-51406613Y-25411595D01*
X-51490000Y-25367024D01*
X-51490000Y-25309098D01*
X-51487749Y-25307251D01*
X-51389742Y-25187829D01*
X-51316916Y-25051582D01*
X-51272071Y-24903745D01*
X-51256928Y-24750000D01*
X-51256928Y-24697500D01*
X-51151294Y-24697500D01*
X-51113405Y-24768386D01*
X-51002962Y-24902962D01*
X-50868386Y-25013405D01*
X-50714850Y-25095472D01*
X-50548254Y-25146008D01*
X-50375000Y-25163072D01*
X-49425000Y-25163072D01*
X-49251746Y-25146008D01*
X-49085150Y-25095472D01*
X-48931614Y-25013405D01*
X-48797038Y-24902962D01*
X-48686595Y-24768386D01*
X-48675000Y-24746693D01*
X-48663405Y-24768386D01*
X-48552962Y-24902962D01*
X-48418386Y-25013405D01*
X-48264850Y-25095472D01*
X-48098254Y-25146008D01*
X-47925000Y-25163072D01*
X-46975000Y-25163072D01*
X-46801746Y-25146008D01*
X-46635150Y-25095472D01*
X-46481614Y-25013405D01*
X-46347038Y-24902962D01*
X-46236595Y-24768386D01*
X-46178661Y-24660000D01*
X-45803711Y-24660000D01*
X-45759774Y-24703937D01*
X-45590256Y-24817205D01*
X-45401898Y-24895226D01*
X-45201939Y-24935000D01*
X-44998061Y-24935000D01*
X-44798102Y-24895226D01*
X-44609744Y-24817205D01*
X-44440226Y-24703937D01*
X-44296063Y-24559774D01*
X-44182795Y-24390256D01*
X-44104774Y-24201898D01*
X-44065000Y-24001939D01*
X-44065000Y-23798061D01*
X-44104774Y-23598102D01*
X-44182795Y-23409744D01*
X-44296063Y-23240226D01*
X-44440226Y-23096063D01*
X-44609744Y-22982795D01*
X-44798102Y-22904774D01*
X-44998061Y-22865000D01*
X-45201939Y-22865000D01*
X-45401898Y-22904774D01*
X-45590256Y-22982795D01*
X-45759774Y-23096063D01*
X-45803711Y-23140000D01*
X-46218750Y-23140000D01*
X-46236595Y-23106614D01*
X-46347038Y-22972038D01*
X-46434817Y-22900000D01*
X-46347038Y-22827962D01*
X-46236595Y-22693386D01*
X-46154528Y-22539850D01*
X-46103992Y-22373254D01*
X-46086928Y-22200000D01*
X-46086928Y-21525000D01*
X-46103992Y-21351746D01*
X-46154528Y-21185150D01*
X-46236595Y-21031614D01*
X-46347038Y-20897038D01*
X-46456853Y-20806916D01*
X-46454774Y-20801898D01*
X-46415000Y-20601939D01*
X-46415000Y-20398061D01*
X-46454774Y-20198102D01*
X-46532795Y-20009744D01*
X-46646063Y-19840226D01*
X-46790226Y-19696063D01*
X-46959744Y-19582795D01*
X-47148102Y-19504774D01*
X-47348061Y-19465000D01*
X-47551939Y-19465000D01*
X-47751898Y-19504774D01*
X-47940256Y-19582795D01*
X-48109774Y-19696063D01*
X-48253937Y-19840226D01*
X-48367205Y-20009744D01*
X-48445226Y-20198102D01*
X-48485000Y-20398061D01*
X-48485000Y-20601939D01*
X-48445226Y-20801898D01*
X-48443147Y-20806916D01*
X-48552962Y-20897038D01*
X-48663405Y-21031614D01*
X-48675000Y-21053307D01*
X-48686595Y-21031614D01*
X-48797038Y-20897038D01*
X-48931614Y-20786595D01*
X-49085150Y-20704528D01*
X-49251746Y-20653992D01*
X-49425000Y-20636928D01*
X-50375000Y-20636928D01*
X-50548254Y-20653992D01*
X-50714850Y-20704528D01*
X-50868386Y-20786595D01*
X-51002962Y-20897038D01*
X-51113405Y-21031614D01*
X-51195472Y-21185150D01*
X-51246008Y-21351746D01*
X-51263072Y-21525000D01*
X-51263072Y-22200000D01*
X-51246008Y-22373254D01*
X-51195472Y-22539850D01*
X-51113405Y-22693386D01*
X-51002962Y-22827962D01*
X-50915183Y-22900000D01*
X-51002962Y-22972038D01*
X-51113405Y-23106614D01*
X-51151294Y-23177500D01*
X-51256928Y-23177500D01*
X-51256928Y-23100000D01*
X-51272071Y-22946255D01*
X-51316916Y-22798418D01*
X-51389742Y-22662171D01*
X-51487749Y-22542749D01*
X-51607171Y-22444742D01*
X-51743418Y-22371916D01*
X-51891255Y-22327071D01*
X-52045000Y-22311928D01*
X-52345000Y-22311928D01*
X-52498745Y-22327071D01*
X-52646582Y-22371916D01*
X-52782829Y-22444742D01*
X-52830000Y-22483454D01*
X-52877171Y-22444742D01*
X-53013418Y-22371916D01*
X-53161255Y-22327071D01*
X-53315000Y-22311928D01*
X-53615000Y-22311928D01*
X-53768745Y-22327071D01*
X-53916582Y-22371916D01*
X-54052829Y-22444742D01*
X-54100000Y-22483454D01*
X-54147171Y-22444742D01*
X-54283418Y-22371916D01*
X-54431255Y-22327071D01*
X-54585000Y-22311928D01*
X-54885000Y-22311928D01*
X-55038745Y-22327071D01*
X-55186582Y-22371916D01*
X-55322829Y-22444742D01*
X-55370000Y-22483454D01*
X-55417171Y-22444742D01*
X-55553418Y-22371916D01*
X-55701255Y-22327071D01*
X-55855000Y-22311928D01*
X-56155000Y-22311928D01*
X-56308745Y-22327071D01*
X-56456582Y-22371916D01*
X-56592829Y-22444742D01*
X-56712251Y-22542749D01*
X-56810258Y-22662171D01*
X-56883084Y-22798418D01*
X-56927929Y-22946255D01*
X-56943072Y-23100000D01*
X-56943072Y-24750000D01*
X-56927929Y-24903745D01*
X-56883084Y-25051582D01*
X-56810258Y-25187829D01*
X-56764999Y-25242977D01*
X-56764999Y-25261928D01*
X-57000001Y-25261928D01*
X-57173255Y-25278992D01*
X-57339851Y-25329528D01*
X-57493387Y-25411595D01*
X-57627962Y-25522038D01*
X-57738405Y-25656613D01*
X-57820472Y-25810149D01*
X-57871008Y-25976745D01*
X-57888072Y-26149999D01*
X-57888072Y-26850001D01*
X-57871008Y-27023255D01*
X-57820472Y-27189851D01*
X-57738405Y-27343387D01*
X-57627962Y-27477962D01*
X-57601109Y-27500000D01*
X-57627962Y-27522038D01*
X-57738405Y-27656613D01*
X-57820472Y-27810149D01*
X-57871008Y-27976745D01*
X-57888072Y-28149999D01*
X-57888072Y-28850001D01*
X-57879208Y-28940000D01*
X-60462678Y-28940000D01*
X-60500001Y-28936324D01*
X-60537324Y-28940000D01*
X-60537333Y-28940000D01*
X-60648986Y-28950997D01*
X-60792247Y-28994454D01*
X-60924276Y-29065026D01*
X-61040001Y-29159999D01*
X-61063799Y-29188997D01*
X-62734873Y-30860071D01*
X-62844010Y-30596589D01*
X-63006525Y-30353368D01*
X-63213368Y-30146525D01*
X-63456589Y-29984010D01*
X-63726842Y-29872068D01*
X-64013740Y-29815000D01*
X-64306260Y-29815000D01*
X-64593158Y-29872068D01*
X-64761090Y-29941627D01*
X-64772937Y-29919463D01*
X-64815026Y-29840721D01*
X-64886201Y-29753995D01*
X-64909999Y-29724997D01*
X-64938996Y-29701200D01*
X-65465001Y-29175196D01*
X-65465001Y-25518862D01*
X-65447743Y-25526011D01*
X-65151184Y-25585000D01*
X-64848816Y-25585000D01*
X-64552257Y-25526011D01*
X-64272905Y-25410299D01*
X-64021495Y-25242312D01*
X-63807688Y-25028505D01*
X-63639701Y-24777095D01*
X-63523989Y-24497743D01*
X-63465000Y-24201184D01*
X-63465000Y-23898816D01*
X-63523989Y-23602257D01*
X-63639701Y-23322905D01*
X-63807688Y-23071495D01*
X-64021495Y-22857688D01*
X-64272905Y-22689701D01*
X-64552257Y-22573989D01*
X-64848816Y-22515000D01*
X-65151184Y-22515000D01*
X-65447743Y-22573989D01*
X-65465001Y-22581138D01*
X-65465001Y-20518862D01*
X-65447743Y-20526011D01*
X-65151184Y-20585000D01*
X-64848816Y-20585000D01*
X-64591071Y-20533731D01*
X-63913795Y-21211008D01*
X-63890001Y-21240001D01*
X-63861008Y-21263795D01*
X-63861004Y-21263799D01*
X-63812095Y-21303937D01*
X-63774276Y-21334974D01*
X-63642247Y-21405546D01*
X-63498986Y-21449003D01*
X-63387333Y-21460000D01*
X-63387324Y-21460000D01*
X-63350001Y-21463676D01*
X-63312678Y-21460000D01*
X-52787322Y-21460000D01*
X-52750000Y-21463676D01*
X-52712678Y-21460000D01*
X-52712667Y-21460000D01*
X-52601014Y-21449003D01*
X-52457753Y-21405546D01*
X-52325724Y-21334974D01*
X-52209999Y-21240001D01*
X-52186197Y-21210998D01*
X-51683998Y-20708800D01*
X-51654999Y-20685001D01*
X-51560026Y-20569276D01*
X-51489454Y-20437247D01*
X-51451959Y-20313641D01*
X-51389742Y-20237829D01*
X-51316916Y-20101582D01*
X-51272071Y-19953745D01*
X-51256928Y-19800000D01*
X-51256928Y-18150000D01*
X-51272071Y-17996255D01*
X-51316916Y-17848418D01*
X-51389742Y-17712171D01*
X-51435000Y-17657024D01*
X-51435000Y-17503578D01*
X-51406613Y-17488405D01*
X-51272038Y-17377962D01*
X-51161595Y-17243387D01*
X-51079528Y-17089851D01*
X-51028992Y-16923255D01*
X-51015675Y-16788046D01*
X-50929077Y-16859115D01*
X-50945226Y-16898102D01*
X-50985000Y-17098061D01*
X-50985000Y-17301939D01*
X-50945226Y-17501898D01*
X-50867205Y-17690256D01*
X-50753937Y-17859774D01*
X-50609774Y-18003937D01*
X-50440256Y-18117205D01*
X-50251898Y-18195226D01*
X-50051939Y-18235000D01*
X-49848061Y-18235000D01*
X-49648102Y-18195226D01*
X-49459744Y-18117205D01*
X-49290226Y-18003937D01*
X-49146063Y-17859774D01*
X-49032795Y-17690256D01*
X-48954774Y-17501898D01*
X-48915000Y-17301939D01*
X-48915000Y-17098061D01*
X-48954774Y-16898102D01*
X-48970923Y-16859115D01*
X-48872038Y-16777962D01*
X-48761595Y-16643387D01*
X-48679528Y-16489851D01*
X-48628992Y-16323255D01*
X-48611928Y-16150001D01*
X-48611928Y-15449999D01*
X-48628992Y-15276745D01*
X-48679528Y-15110149D01*
X-48761595Y-14956613D01*
X-48872038Y-14822038D01*
X-48898891Y-14800000D01*
X-48872038Y-14777962D01*
X-48761595Y-14643387D01*
X-48679528Y-14489851D01*
X-48628992Y-14323255D01*
X-48611928Y-14150001D01*
X-48611928Y-13449999D01*
X-48628992Y-13276745D01*
X-48679528Y-13110149D01*
X-48761595Y-12956613D01*
X-48872038Y-12822038D01*
X-49006613Y-12711595D01*
X-49160149Y-12629528D01*
X-49326745Y-12578992D01*
X-49499999Y-12561928D01*
X-50400001Y-12561928D01*
X-50573255Y-12578992D01*
X-50739851Y-12629528D01*
X-50893387Y-12711595D01*
X-51027962Y-12822038D01*
X-51138405Y-12956613D01*
X-51150000Y-12978306D01*
X-51161595Y-12956613D01*
X-51272038Y-12822038D01*
X-51406613Y-12711595D01*
X-51560149Y-12629528D01*
X-51726745Y-12578992D01*
X-51899999Y-12561928D01*
X-52600001Y-12561928D01*
X-52773255Y-12578992D01*
X-52939851Y-12629528D01*
X-53093387Y-12711595D01*
X-53227962Y-12822038D01*
X-53250000Y-12848891D01*
X-53272038Y-12822038D01*
X-53406613Y-12711595D01*
X-53560149Y-12629528D01*
X-53726745Y-12578992D01*
X-53899999Y-12561928D01*
X-54600001Y-12561928D01*
X-54773255Y-12578992D01*
X-54939851Y-12629528D01*
X-55093387Y-12711595D01*
X-55227962Y-12822038D01*
X-55338405Y-12956613D01*
X-55420472Y-13110149D01*
X-55471008Y-13276745D01*
X-55488072Y-13449999D01*
X-55488072Y-14350001D01*
X-55471008Y-14523255D01*
X-55420472Y-14689851D01*
X-55338405Y-14843387D01*
X-55227962Y-14977962D01*
X-55093387Y-15088405D01*
X-55071694Y-15100000D01*
X-55093387Y-15111595D01*
X-55227962Y-15222038D01*
X-55338405Y-15356613D01*
X-55420472Y-15510149D01*
X-55471008Y-15676745D01*
X-55488072Y-15849999D01*
X-55488072Y-15970090D01*
X-55551014Y-15950997D01*
X-55662667Y-15940000D01*
X-55662678Y-15940000D01*
X-55700000Y-15936324D01*
X-55737322Y-15940000D01*
X-64425679Y-15940000D01*
X-64463002Y-15936324D01*
X-64500325Y-15940000D01*
X-64500335Y-15940000D01*
X-64611988Y-15950997D01*
X-64755249Y-15994454D01*
X-64887279Y-16065026D01*
X-64970919Y-16133668D01*
X-65003003Y-16159999D01*
X-65026801Y-16188997D01*
X-66735998Y-17898195D01*
X-66765002Y-17921998D01*
X-66820130Y-17989173D01*
X-66859975Y-18037723D01*
X-66885124Y-18084774D01*
X-66930547Y-18169753D01*
X-66974004Y-18313014D01*
X-66985001Y-18424667D01*
X-66985001Y-18424677D01*
X-66988677Y-18461999D01*
X-66985001Y-18499321D01*
X-66985000Y-29452665D01*
X-66988677Y-29489997D01*
X-66985000Y-29527330D01*
X-66978984Y-29588405D01*
X-66974003Y-29638982D01*
X-66930547Y-29782243D01*
X-66914680Y-29811928D01*
X-67115001Y-29811928D01*
X-67115001Y-16609802D01*
X-59135000Y-8629802D01*
X-59135000Y-8737002D01*
X-58970156Y-8737002D01*
X-59091476Y-8966890D01*
X-59046825Y-9114099D01*
X-58921641Y-9376920D01*
X-58747588Y-9610269D01*
X-58663534Y-9686034D01*
X-58744180Y-9710498D01*
X-58854494Y-9769463D01*
X-58951185Y-9848815D01*
X-59030537Y-9945506D01*
X-59089502Y-10055820D01*
X-59125812Y-10175518D01*
X-59138072Y-10300000D01*
X-59138072Y-12000000D01*
X-59125812Y-12124482D01*
X-59089502Y-12244180D01*
X-59030537Y-12354494D01*
X-58951185Y-12451185D01*
X-58854494Y-12530537D01*
X-58744180Y-12589502D01*
X-58624482Y-12625812D01*
X-58500000Y-12638072D01*
X-56800000Y-12638072D01*
X-56675518Y-12625812D01*
X-56555820Y-12589502D01*
X-56445506Y-12530537D01*
X-56348815Y-12451185D01*
X-56269463Y-12354494D01*
X-56210498Y-12244180D01*
X-56174188Y-12124482D01*
X-56161928Y-12000000D01*
X-56161928Y-10300000D01*
X-56174188Y-10175518D01*
X-56210498Y-10055820D01*
X-56269463Y-9945506D01*
X-56348815Y-9848815D01*
X-56445506Y-9769463D01*
X-56555820Y-9710498D01*
X-56636466Y-9686034D01*
X-56552412Y-9610269D01*
X-56378359Y-9376920D01*
X-56253175Y-9114099D01*
X-56208524Y-8966890D01*
X-56329845Y-8737000D01*
X-57523000Y-8737000D01*
X-57523000Y-8757000D01*
X-57777000Y-8757000D01*
X-57777000Y-8737000D01*
X-57797000Y-8737000D01*
X-57797000Y-8483000D01*
X-57777000Y-8483000D01*
X-57777000Y-8463000D01*
X-57523000Y-8463000D01*
X-57523000Y-8483000D01*
X-56329845Y-8483000D01*
X-56208524Y-8253110D01*
X-56253175Y-8105901D01*
X-56378359Y-7843080D01*
X-56552412Y-7609731D01*
X-56768645Y-7414822D01*
X-56885534Y-7345195D01*
X-56703368Y-7223475D01*
X-56496525Y-7016632D01*
X-56334010Y-6773411D01*
X-56222068Y-6503158D01*
X-56165000Y-6216260D01*
X-56165000Y-5923740D01*
X-56222068Y-5636842D01*
X-56334010Y-5366589D01*
X-56496525Y-5123368D01*
X-56703368Y-4916525D01*
X-56877760Y-4800000D01*
X-56703368Y-4683475D01*
X-56496525Y-4476632D01*
X-56334010Y-4233411D01*
X-56222068Y-3963158D01*
X-56165000Y-3676260D01*
X-56165000Y-3383740D01*
X-56222068Y-3096842D01*
X-56334010Y-2826589D01*
X-56496525Y-2583368D01*
X-56703368Y-2376525D01*
X-56946589Y-2214010D01*
X-57216842Y-2102068D01*
X-57503740Y-2045000D01*
X-57796260Y-2045000D01*
X-58083158Y-2102068D01*
X-58353411Y-2214010D01*
X-58596632Y-2376525D01*
X-58803475Y-2583368D01*
X-58965990Y-2826589D01*
X-59077932Y-3096842D01*
X-59135000Y-3383740D01*
X-59135000Y-3676260D01*
X-59077932Y-3963158D01*
X-58965990Y-4233411D01*
X-58803475Y-4476632D01*
X-58802454Y-4477653D01*
X-68580000Y-14255199D01*
X-68580000Y-3392279D01*
X-68562495Y-3213740D01*
X-68185000Y-3213740D01*
X-68185000Y-3506260D01*
X-68127932Y-3793158D01*
X-68015990Y-4063411D01*
X-67853475Y-4306632D01*
X-67646632Y-4513475D01*
X-67472240Y-4630000D01*
X-67646632Y-4746525D01*
X-67853475Y-4953368D01*
X-68015990Y-5196589D01*
X-68127932Y-5466842D01*
X-68185000Y-5753740D01*
X-68185000Y-6046260D01*
X-68127932Y-6333158D01*
X-68015990Y-6603411D01*
X-67853475Y-6846632D01*
X-67646632Y-7053475D01*
X-67403411Y-7215990D01*
X-67133158Y-7327932D01*
X-66846260Y-7385000D01*
X-66553740Y-7385000D01*
X-66266842Y-7327932D01*
X-65996589Y-7215990D01*
X-65753368Y-7053475D01*
X-65546525Y-6846632D01*
X-65384010Y-6603411D01*
X-65272068Y-6333158D01*
X-65215000Y-6046260D01*
X-65215000Y-5753740D01*
X-65272068Y-5466842D01*
X-65384010Y-5196589D01*
X-65546525Y-4953368D01*
X-65753368Y-4746525D01*
X-65927760Y-4630000D01*
X-65753368Y-4513475D01*
X-65546525Y-4306632D01*
X-65384010Y-4063411D01*
X-65272068Y-3793158D01*
X-65215000Y-3506260D01*
X-65215000Y-3213740D01*
X-65272068Y-2926842D01*
X-65384010Y-2656589D01*
X-65546525Y-2413368D01*
X-65753368Y-2206525D01*
X-65996589Y-2044010D01*
X-66266842Y-1932068D01*
X-66553740Y-1875000D01*
X-66846260Y-1875000D01*
X-67133158Y-1932068D01*
X-67403411Y-2044010D01*
X-67646632Y-2206525D01*
X-67853475Y-2413368D01*
X-68015990Y-2656589D01*
X-68127932Y-2926842D01*
X-68185000Y-3213740D01*
X-68562495Y-3213740D01*
X-68541091Y-2995455D01*
X-68435220Y-2644792D01*
X-68263256Y-2321375D01*
X-68031746Y-2037516D01*
X-67749514Y-1804035D01*
X-67427305Y-1629817D01*
X-67077386Y-1521498D01*
X-66682557Y-1480000D01*
X-36580712Y-1480000D01*
X-36722578Y-1555829D01*
G37*
%TD.AperFunction*%
%TD*%
M02*
