%TF.GenerationSoftware,KiCad,Pcbnew,5.1.9*%
%TF.CreationDate,2021-01-24T08:51:39-05:00*%
%TF.ProjectId,CANalog_nucleo,43414e61-6c6f-4675-9f6e-75636c656f2e,rev?*%
%TF.SameCoordinates,PX700e860PY1298be0*%
%TF.FileFunction,Legend,Top*%
%TF.FilePolarity,Positive*%
%FSLAX46Y46*%
G04 Gerber Fmt 4.6, Leading zero omitted, Abs format (unit mm)*
G04 Created by KiCad (PCBNEW 5.1.9) date 2021-01-24 08:51:39*
%MOMM*%
%LPD*%
G01*
G04 APERTURE LIST*
%ADD10C,0.357143*%
%ADD11C,0.150000*%
%ADD12C,0.010000*%
%ADD13C,0.152400*%
%ADD14C,0.120000*%
G04 APERTURE END LIST*
D10*
X-33673810Y-18035714D02*
X-33792858Y-18154761D01*
X-34150000Y-18273809D01*
X-34388096Y-18273809D01*
X-34745239Y-18154761D01*
X-34983334Y-17916666D01*
X-35102381Y-17678571D01*
X-35221429Y-17202380D01*
X-35221429Y-16845237D01*
X-35102381Y-16369047D01*
X-34983334Y-16130952D01*
X-34745239Y-15892857D01*
X-34388096Y-15773809D01*
X-34150000Y-15773809D01*
X-33792858Y-15892857D01*
X-33673810Y-16011904D01*
X-32721429Y-17559523D02*
X-31530953Y-17559523D01*
X-32959524Y-18273809D02*
X-32126191Y-15773809D01*
X-31292858Y-18273809D01*
X-30459524Y-18273809D02*
X-30459524Y-15773809D01*
X-29030953Y-18273809D01*
X-29030953Y-15773809D01*
X-26769048Y-18273809D02*
X-26769048Y-16964285D01*
X-26888096Y-16726190D01*
X-27126191Y-16607142D01*
X-27602381Y-16607142D01*
X-27840477Y-16726190D01*
X-26769048Y-18154761D02*
X-27007143Y-18273809D01*
X-27602381Y-18273809D01*
X-27840477Y-18154761D01*
X-27959524Y-17916666D01*
X-27959524Y-17678571D01*
X-27840477Y-17440476D01*
X-27602381Y-17321428D01*
X-27007143Y-17321428D01*
X-26769048Y-17202380D01*
X-25221429Y-18273809D02*
X-25459524Y-18154761D01*
X-25578572Y-17916666D01*
X-25578572Y-15773809D01*
X-23911905Y-18273809D02*
X-24150000Y-18154761D01*
X-24269048Y-18035714D01*
X-24388096Y-17797618D01*
X-24388096Y-17083333D01*
X-24269048Y-16845237D01*
X-24150000Y-16726190D01*
X-23911905Y-16607142D01*
X-23554762Y-16607142D01*
X-23316667Y-16726190D01*
X-23197620Y-16845237D01*
X-23078572Y-17083333D01*
X-23078572Y-17797618D01*
X-23197620Y-18035714D01*
X-23316667Y-18154761D01*
X-23554762Y-18273809D01*
X-23911905Y-18273809D01*
X-20935715Y-16607142D02*
X-20935715Y-18630952D01*
X-21054762Y-18869047D01*
X-21173810Y-18988095D01*
X-21411905Y-19107142D01*
X-21769048Y-19107142D01*
X-22007143Y-18988095D01*
X-20935715Y-18154761D02*
X-21173810Y-18273809D01*
X-21650000Y-18273809D01*
X-21888096Y-18154761D01*
X-22007143Y-18035714D01*
X-22126191Y-17797618D01*
X-22126191Y-17083333D01*
X-22007143Y-16845237D01*
X-21888096Y-16726190D01*
X-21650000Y-16607142D01*
X-21173810Y-16607142D01*
X-20935715Y-16726190D01*
X-17007143Y-16964285D02*
X-16650000Y-17083333D01*
X-16530953Y-17202380D01*
X-16411905Y-17440476D01*
X-16411905Y-17797618D01*
X-16530953Y-18035714D01*
X-16650000Y-18154761D01*
X-16888096Y-18273809D01*
X-17840477Y-18273809D01*
X-17840477Y-15773809D01*
X-17007143Y-15773809D01*
X-16769048Y-15892857D01*
X-16650000Y-16011904D01*
X-16530953Y-16249999D01*
X-16530953Y-16488095D01*
X-16650000Y-16726190D01*
X-16769048Y-16845237D01*
X-17007143Y-16964285D01*
X-17840477Y-16964285D01*
X-14388096Y-18154761D02*
X-14626191Y-18273809D01*
X-15102381Y-18273809D01*
X-15340477Y-18154761D01*
X-15459524Y-17916666D01*
X-15459524Y-16964285D01*
X-15340477Y-16726190D01*
X-15102381Y-16607142D01*
X-14626191Y-16607142D01*
X-14388096Y-16726190D01*
X-14269048Y-16964285D01*
X-14269048Y-17202380D01*
X-15459524Y-17440476D01*
X-13554762Y-16607142D02*
X-12602381Y-16607142D01*
X-13197620Y-15773809D02*
X-13197620Y-17916666D01*
X-13078572Y-18154761D01*
X-12840477Y-18273809D01*
X-12602381Y-18273809D01*
X-10697620Y-18273809D02*
X-10697620Y-16964285D01*
X-10816667Y-16726190D01*
X-11054762Y-16607142D01*
X-11530953Y-16607142D01*
X-11769048Y-16726190D01*
X-10697620Y-18154761D02*
X-10935715Y-18273809D01*
X-11530953Y-18273809D01*
X-11769048Y-18154761D01*
X-11888096Y-17916666D01*
X-11888096Y-17678571D01*
X-11769048Y-17440476D01*
X-11530953Y-17321428D01*
X-10935715Y-17321428D01*
X-10697620Y-17202380D01*
X-42483334Y-22380952D02*
X-42483334Y-19880952D01*
X-41888096Y-19880952D01*
X-41530953Y-20000000D01*
X-41292858Y-20238095D01*
X-41173810Y-20476190D01*
X-41054762Y-20952380D01*
X-41054762Y-21309523D01*
X-41173810Y-21785714D01*
X-41292858Y-22023809D01*
X-41530953Y-22261904D01*
X-41888096Y-22380952D01*
X-42483334Y-22380952D01*
X-39983334Y-22380952D02*
X-39983334Y-20714285D01*
X-39983334Y-19880952D02*
X-40102381Y-20000000D01*
X-39983334Y-20119047D01*
X-39864286Y-20000000D01*
X-39983334Y-19880952D01*
X-39983334Y-20119047D01*
X-38792858Y-22380952D02*
X-38792858Y-20714285D01*
X-38792858Y-21190476D02*
X-38673810Y-20952380D01*
X-38554762Y-20833333D01*
X-38316667Y-20714285D01*
X-38078572Y-20714285D01*
X-37602381Y-20714285D02*
X-36650000Y-20714285D01*
X-37245239Y-19880952D02*
X-37245239Y-22023809D01*
X-37126191Y-22261904D01*
X-36888096Y-22380952D01*
X-36650000Y-22380952D01*
X-36054762Y-20714285D02*
X-35459524Y-22380952D01*
X-34864286Y-20714285D02*
X-35459524Y-22380952D01*
X-35697620Y-22976190D01*
X-35816667Y-23095238D01*
X-36054762Y-23214285D01*
X-30340477Y-22619047D02*
X-30578572Y-22500000D01*
X-30816667Y-22261904D01*
X-31173810Y-21904761D01*
X-31411905Y-21785714D01*
X-31650000Y-21785714D01*
X-31530953Y-22380952D02*
X-31769048Y-22261904D01*
X-32007143Y-22023809D01*
X-32126191Y-21547619D01*
X-32126191Y-20714285D01*
X-32007143Y-20238095D01*
X-31769048Y-20000000D01*
X-31530953Y-19880952D01*
X-31054762Y-19880952D01*
X-30816667Y-20000000D01*
X-30578572Y-20238095D01*
X-30459524Y-20714285D01*
X-30459524Y-21547619D01*
X-30578572Y-22023809D01*
X-30816667Y-22261904D01*
X-31054762Y-22380952D01*
X-31530953Y-22380952D01*
X-28316667Y-20714285D02*
X-28316667Y-22380952D01*
X-29388096Y-20714285D02*
X-29388096Y-22023809D01*
X-29269048Y-22261904D01*
X-29030953Y-22380952D01*
X-28673810Y-22380952D01*
X-28435715Y-22261904D01*
X-28316667Y-22142857D01*
X-27126191Y-22380952D02*
X-27126191Y-20714285D01*
X-27126191Y-19880952D02*
X-27245239Y-20000000D01*
X-27126191Y-20119047D01*
X-27007143Y-20000000D01*
X-27126191Y-19880952D01*
X-27126191Y-20119047D01*
X-24864286Y-22261904D02*
X-25102381Y-22380952D01*
X-25578572Y-22380952D01*
X-25816667Y-22261904D01*
X-25935715Y-22142857D01*
X-26054762Y-21904761D01*
X-26054762Y-21190476D01*
X-25935715Y-20952380D01*
X-25816667Y-20833333D01*
X-25578572Y-20714285D01*
X-25102381Y-20714285D01*
X-24864286Y-20833333D01*
X-23792858Y-22380952D02*
X-23792858Y-19880952D01*
X-23554762Y-21428571D02*
X-22840477Y-22380952D01*
X-22840477Y-20714285D02*
X-23792858Y-21666666D01*
X-19864286Y-22380952D02*
X-19864286Y-19880952D01*
X-18911905Y-19880952D01*
X-18673810Y-20000000D01*
X-18554762Y-20119047D01*
X-18435715Y-20357142D01*
X-18435715Y-20714285D01*
X-18554762Y-20952380D01*
X-18673810Y-21071428D01*
X-18911905Y-21190476D01*
X-19864286Y-21190476D01*
X-17364286Y-22380952D02*
X-17364286Y-20714285D01*
X-17364286Y-21190476D02*
X-17245239Y-20952380D01*
X-17126191Y-20833333D01*
X-16888096Y-20714285D01*
X-16650001Y-20714285D01*
X-15459524Y-22380952D02*
X-15697620Y-22261904D01*
X-15816667Y-22142857D01*
X-15935715Y-21904761D01*
X-15935715Y-21190476D01*
X-15816667Y-20952380D01*
X-15697620Y-20833333D01*
X-15459524Y-20714285D01*
X-15102381Y-20714285D01*
X-14864286Y-20833333D01*
X-14745239Y-20952380D01*
X-14626191Y-21190476D01*
X-14626191Y-21904761D01*
X-14745239Y-22142857D01*
X-14864286Y-22261904D01*
X-15102381Y-22380952D01*
X-15459524Y-22380952D01*
X-13911905Y-20714285D02*
X-12959524Y-20714285D01*
X-13554762Y-19880952D02*
X-13554762Y-22023809D01*
X-13435715Y-22261904D01*
X-13197620Y-22380952D01*
X-12959524Y-22380952D01*
X-11769048Y-22380952D02*
X-12007143Y-22261904D01*
X-12126191Y-22142857D01*
X-12245239Y-21904761D01*
X-12245239Y-21190476D01*
X-12126191Y-20952380D01*
X-12007143Y-20833333D01*
X-11769048Y-20714285D01*
X-11411905Y-20714285D01*
X-11173810Y-20833333D01*
X-11054762Y-20952380D01*
X-10935715Y-21190476D01*
X-10935715Y-21904761D01*
X-11054762Y-22142857D01*
X-11173810Y-22261904D01*
X-11411905Y-22380952D01*
X-11769048Y-22380952D01*
X-10221429Y-20714285D02*
X-9269048Y-20714285D01*
X-9864286Y-19880952D02*
X-9864286Y-22023809D01*
X-9745239Y-22261904D01*
X-9507143Y-22380952D01*
X-9269048Y-22380952D01*
X-8673810Y-20714285D02*
X-8078572Y-22380952D01*
X-7483334Y-20714285D02*
X-8078572Y-22380952D01*
X-8316667Y-22976190D01*
X-8435715Y-23095238D01*
X-8673810Y-23214285D01*
X-6530953Y-20714285D02*
X-6530953Y-23214285D01*
X-6530953Y-20833333D02*
X-6292858Y-20714285D01*
X-5816667Y-20714285D01*
X-5578572Y-20833333D01*
X-5459524Y-20952380D01*
X-5340477Y-21190476D01*
X-5340477Y-21904761D01*
X-5459524Y-22142857D01*
X-5578572Y-22261904D01*
X-5816667Y-22380952D01*
X-6292858Y-22380952D01*
X-6530953Y-22261904D01*
X-3316667Y-22261904D02*
X-3554762Y-22380952D01*
X-4030953Y-22380952D01*
X-4269048Y-22261904D01*
X-4388096Y-22023809D01*
X-4388096Y-21071428D01*
X-4269048Y-20833333D01*
X-4030953Y-20714285D01*
X-3554762Y-20714285D01*
X-3316667Y-20833333D01*
X-3197620Y-21071428D01*
X-3197620Y-21309523D01*
X-4388096Y-21547619D01*
X-30519048Y-23988095D02*
X-30519048Y-25773809D01*
X-30638096Y-26130952D01*
X-30876191Y-26369047D01*
X-31233334Y-26488095D01*
X-31471429Y-26488095D01*
X-28257143Y-26488095D02*
X-28257143Y-25178571D01*
X-28376191Y-24940476D01*
X-28614286Y-24821428D01*
X-29090477Y-24821428D01*
X-29328572Y-24940476D01*
X-28257143Y-26369047D02*
X-28495239Y-26488095D01*
X-29090477Y-26488095D01*
X-29328572Y-26369047D01*
X-29447620Y-26130952D01*
X-29447620Y-25892857D01*
X-29328572Y-25654762D01*
X-29090477Y-25535714D01*
X-28495239Y-25535714D01*
X-28257143Y-25416666D01*
X-27066667Y-24821428D02*
X-27066667Y-26488095D01*
X-27066667Y-25059523D02*
X-26947620Y-24940476D01*
X-26709524Y-24821428D01*
X-26352381Y-24821428D01*
X-26114286Y-24940476D01*
X-25995239Y-25178571D01*
X-25995239Y-26488095D01*
X-23019048Y-24226190D02*
X-22900000Y-24107143D01*
X-22661905Y-23988095D01*
X-22066667Y-23988095D01*
X-21828572Y-24107143D01*
X-21709524Y-24226190D01*
X-21590477Y-24464285D01*
X-21590477Y-24702381D01*
X-21709524Y-25059523D01*
X-23138096Y-26488095D01*
X-21590477Y-26488095D01*
X-20042858Y-23988095D02*
X-19804762Y-23988095D01*
X-19566667Y-24107143D01*
X-19447620Y-24226190D01*
X-19328572Y-24464285D01*
X-19209524Y-24940476D01*
X-19209524Y-25535714D01*
X-19328572Y-26011904D01*
X-19447620Y-26250000D01*
X-19566667Y-26369047D01*
X-19804762Y-26488095D01*
X-20042858Y-26488095D01*
X-20280953Y-26369047D01*
X-20400000Y-26250000D01*
X-20519048Y-26011904D01*
X-20638096Y-25535714D01*
X-20638096Y-24940476D01*
X-20519048Y-24464285D01*
X-20400000Y-24226190D01*
X-20280953Y-24107143D01*
X-20042858Y-23988095D01*
X-18257143Y-24226190D02*
X-18138096Y-24107143D01*
X-17900000Y-23988095D01*
X-17304762Y-23988095D01*
X-17066667Y-24107143D01*
X-16947620Y-24226190D01*
X-16828572Y-24464285D01*
X-16828572Y-24702381D01*
X-16947620Y-25059523D01*
X-18376191Y-26488095D01*
X-16828572Y-26488095D01*
X-14447620Y-26488095D02*
X-15876191Y-26488095D01*
X-15161905Y-26488095D02*
X-15161905Y-23988095D01*
X-15400000Y-24345238D01*
X-15638096Y-24583333D01*
X-15876191Y-24702381D01*
D11*
X-10361905Y-2978571D02*
X-10028572Y-2978571D01*
X-9885715Y-3502380D02*
X-10361905Y-3502380D01*
X-10361905Y-2502380D01*
X-9885715Y-2502380D01*
X-9504762Y-3454761D02*
X-9361905Y-3502380D01*
X-9123810Y-3502380D01*
X-9028572Y-3454761D01*
X-8980953Y-3407142D01*
X-8933334Y-3311904D01*
X-8933334Y-3216666D01*
X-8980953Y-3121428D01*
X-9028572Y-3073809D01*
X-9123810Y-3026190D01*
X-9314286Y-2978571D01*
X-9409524Y-2930952D01*
X-9457143Y-2883333D01*
X-9504762Y-2788095D01*
X-9504762Y-2692857D01*
X-9457143Y-2597619D01*
X-9409524Y-2550000D01*
X-9314286Y-2502380D01*
X-9076191Y-2502380D01*
X-8933334Y-2550000D01*
X-8504762Y-3502380D02*
X-8504762Y-2502380D01*
X-8123810Y-2502380D01*
X-8028572Y-2550000D01*
X-7980953Y-2597619D01*
X-7933334Y-2692857D01*
X-7933334Y-2835714D01*
X-7980953Y-2930952D01*
X-8028572Y-2978571D01*
X-8123810Y-3026190D01*
X-8504762Y-3026190D01*
X-7504762Y-3121428D02*
X-6742858Y-3121428D01*
X-6076191Y-2502380D02*
X-5980953Y-2502380D01*
X-5885715Y-2550000D01*
X-5838096Y-2597619D01*
X-5790477Y-2692857D01*
X-5742858Y-2883333D01*
X-5742858Y-3121428D01*
X-5790477Y-3311904D01*
X-5838096Y-3407142D01*
X-5885715Y-3454761D01*
X-5980953Y-3502380D01*
X-6076191Y-3502380D01*
X-6171429Y-3454761D01*
X-6219048Y-3407142D01*
X-6266667Y-3311904D01*
X-6314286Y-3121428D01*
X-6314286Y-2883333D01*
X-6266667Y-2692857D01*
X-6219048Y-2597619D01*
X-6171429Y-2550000D01*
X-6076191Y-2502380D01*
X-4790477Y-3502380D02*
X-5361905Y-3502380D01*
X-5076191Y-3502380D02*
X-5076191Y-2502380D01*
X-5171429Y-2645238D01*
X-5266667Y-2740476D01*
X-5361905Y-2788095D01*
D12*
%TO.C,G\u002A\u002A\u002A*%
G36*
X-16894776Y-37514674D02*
G01*
X-16793865Y-37579667D01*
X-16682839Y-37678049D01*
X-16570757Y-37801711D01*
X-16466680Y-37942545D01*
X-16458845Y-37954505D01*
X-16330263Y-38188886D01*
X-16241966Y-38438062D01*
X-16190302Y-38714494D01*
X-16174161Y-38926178D01*
X-16177022Y-39209376D01*
X-16210193Y-39487055D01*
X-16276270Y-39769378D01*
X-16377849Y-40066509D01*
X-16517526Y-40388614D01*
X-16581099Y-40519608D01*
X-16738665Y-40817405D01*
X-16903089Y-41087355D01*
X-17084488Y-41343650D01*
X-17292983Y-41600482D01*
X-17538691Y-41872045D01*
X-17565701Y-41900561D01*
X-17701790Y-42050186D01*
X-17811296Y-42188169D01*
X-17907347Y-42333389D01*
X-18003070Y-42504728D01*
X-18051511Y-42599316D01*
X-18109290Y-42708672D01*
X-18162852Y-42800012D01*
X-18204104Y-42859960D01*
X-18217740Y-42874097D01*
X-18236357Y-42899272D01*
X-18251221Y-42949524D01*
X-18263473Y-43032740D01*
X-18274254Y-43156803D01*
X-18284703Y-43329598D01*
X-18285320Y-43341235D01*
X-18297319Y-43507883D01*
X-18317103Y-43713591D01*
X-18342727Y-43941178D01*
X-18372249Y-44173460D01*
X-18403725Y-44393254D01*
X-18405962Y-44407802D01*
X-18436882Y-44609858D01*
X-18466962Y-44810167D01*
X-18494313Y-44995874D01*
X-18517047Y-45154123D01*
X-18533275Y-45272059D01*
X-18536098Y-45293761D01*
X-18567749Y-45493753D01*
X-18613265Y-45716680D01*
X-18668947Y-45948827D01*
X-18731098Y-46176481D01*
X-18796022Y-46385929D01*
X-18860022Y-46563456D01*
X-18907944Y-46673023D01*
X-18981349Y-46809677D01*
X-19052681Y-46911441D01*
X-19136790Y-46997936D01*
X-19184592Y-47038597D01*
X-19276077Y-47110052D01*
X-19360861Y-47171077D01*
X-19420012Y-47208127D01*
X-19525561Y-47247573D01*
X-19637357Y-47266136D01*
X-19730977Y-47260420D01*
X-19750478Y-47254062D01*
X-19804277Y-47217014D01*
X-19882578Y-47145332D01*
X-19975412Y-47049876D01*
X-20072810Y-46941505D01*
X-20164804Y-46831078D01*
X-20241423Y-46729456D01*
X-20267028Y-46691376D01*
X-20312266Y-46613751D01*
X-20374881Y-46496779D01*
X-20448423Y-46352985D01*
X-20526445Y-46194891D01*
X-20576970Y-46089417D01*
X-20726776Y-45748036D01*
X-20840129Y-45430454D01*
X-20921575Y-45120753D01*
X-20975659Y-44803017D01*
X-20994769Y-44626067D01*
X-21004419Y-44473697D01*
X-21010041Y-44288727D01*
X-21011836Y-44084355D01*
X-21010007Y-43873778D01*
X-21004755Y-43670194D01*
X-20998556Y-43536002D01*
X-20471477Y-43536002D01*
X-20471415Y-43774733D01*
X-20468243Y-43983932D01*
X-20463565Y-44199132D01*
X-20458419Y-44368172D01*
X-20451703Y-44501969D01*
X-20442316Y-44611438D01*
X-20429160Y-44707495D01*
X-20411132Y-44801056D01*
X-20387133Y-44903036D01*
X-20367999Y-44978276D01*
X-20315482Y-45150852D01*
X-20239911Y-45357725D01*
X-20147715Y-45584317D01*
X-20045320Y-45816049D01*
X-19939156Y-46038343D01*
X-19835648Y-46236621D01*
X-19746218Y-46388545D01*
X-19674760Y-46491812D01*
X-19596258Y-46591915D01*
X-19519404Y-46679321D01*
X-19452891Y-46744500D01*
X-19405411Y-46777918D01*
X-19390114Y-46779051D01*
X-19371151Y-46746367D01*
X-19341995Y-46672452D01*
X-19307873Y-46571032D01*
X-19295158Y-46529690D01*
X-19219800Y-46260453D01*
X-19155231Y-45987798D01*
X-19097826Y-45694674D01*
X-19043960Y-45364031D01*
X-19036120Y-45311230D01*
X-19005871Y-45105027D01*
X-18971191Y-44868232D01*
X-18935868Y-44626736D01*
X-18903692Y-44406431D01*
X-18896182Y-44354943D01*
X-18858443Y-44065110D01*
X-18827633Y-43757823D01*
X-18803400Y-43426279D01*
X-18785389Y-43063674D01*
X-18773247Y-42663204D01*
X-18766622Y-42218066D01*
X-18765056Y-41828674D01*
X-18765056Y-40873907D01*
X-18870444Y-41030493D01*
X-18928222Y-41106181D01*
X-19019609Y-41213566D01*
X-19137153Y-41344694D01*
X-19273405Y-41491611D01*
X-19420914Y-41646363D01*
X-19572230Y-41800995D01*
X-19719903Y-41947555D01*
X-19816471Y-42040472D01*
X-19898907Y-42124056D01*
X-20001594Y-42236164D01*
X-20109705Y-42360291D01*
X-20183844Y-42449395D01*
X-20398790Y-42713917D01*
X-20440042Y-43020722D01*
X-20456075Y-43168709D01*
X-20466458Y-43337231D01*
X-20471477Y-43536002D01*
X-20998556Y-43536002D01*
X-20996283Y-43486803D01*
X-20984793Y-43336801D01*
X-20973712Y-43250570D01*
X-20955611Y-43145073D01*
X-21251626Y-43270273D01*
X-21406593Y-43332382D01*
X-21576574Y-43395063D01*
X-21735029Y-43448727D01*
X-21804494Y-43470013D01*
X-21930996Y-43503180D01*
X-22078023Y-43536200D01*
X-22232762Y-43566836D01*
X-22382403Y-43592849D01*
X-22514134Y-43612002D01*
X-22615143Y-43622057D01*
X-22670366Y-43621265D01*
X-22671923Y-43603240D01*
X-22634693Y-43563406D01*
X-22569007Y-43509028D01*
X-22485198Y-43447374D01*
X-22393596Y-43385709D01*
X-22304533Y-43331299D01*
X-22228340Y-43291411D01*
X-22175710Y-43273359D01*
X-21864920Y-43227288D01*
X-21593459Y-43176774D01*
X-21364933Y-43122777D01*
X-21182946Y-43066257D01*
X-21051102Y-43008175D01*
X-20976998Y-42953975D01*
X-20947986Y-42912949D01*
X-20922895Y-42852150D01*
X-20899067Y-42761872D01*
X-20873843Y-42632404D01*
X-20850632Y-42492575D01*
X-20799847Y-42214494D01*
X-20309040Y-42214494D01*
X-19906374Y-41806110D01*
X-19703160Y-41593862D01*
X-19536666Y-41404583D01*
X-19398273Y-41226567D01*
X-19279362Y-41048107D01*
X-19171313Y-40857498D01*
X-19093362Y-40701910D01*
X-19027169Y-40547363D01*
X-18955950Y-40353017D01*
X-18884875Y-40135233D01*
X-18819114Y-39910375D01*
X-18763836Y-39694802D01*
X-18737817Y-39576553D01*
X-18706684Y-39454943D01*
X-18670249Y-39382130D01*
X-18623379Y-39349835D01*
X-18595057Y-39346292D01*
X-18548104Y-39330642D01*
X-18471984Y-39289614D01*
X-18383239Y-39232134D01*
X-18297523Y-39175038D01*
X-18228033Y-39134100D01*
X-18189512Y-39117987D01*
X-18189088Y-39117977D01*
X-18180203Y-39145214D01*
X-18174723Y-39221940D01*
X-18172471Y-39340679D01*
X-18173274Y-39493953D01*
X-18176956Y-39674285D01*
X-18183342Y-39874198D01*
X-18192257Y-40086215D01*
X-18203525Y-40302860D01*
X-18216973Y-40516654D01*
X-18224167Y-40616292D01*
X-18231223Y-40734378D01*
X-18237275Y-40883530D01*
X-18242270Y-41055266D01*
X-18246150Y-41241106D01*
X-18248859Y-41432569D01*
X-18250341Y-41621174D01*
X-18250541Y-41798440D01*
X-18249402Y-41955885D01*
X-18246868Y-42085030D01*
X-18242884Y-42177393D01*
X-18237392Y-42224494D01*
X-18234825Y-42228764D01*
X-18207597Y-42209990D01*
X-18153808Y-42161289D01*
X-18099264Y-42107471D01*
X-17922315Y-41918155D01*
X-17741803Y-41709151D01*
X-17575474Y-41501518D01*
X-17480704Y-41373515D01*
X-17362643Y-41191915D01*
X-17236969Y-40972255D01*
X-17112033Y-40731274D01*
X-16996186Y-40485712D01*
X-16897782Y-40252309D01*
X-16835512Y-40080355D01*
X-16791793Y-39941559D01*
X-16761475Y-39828103D01*
X-16741543Y-39721722D01*
X-16728981Y-39604156D01*
X-16720774Y-39457143D01*
X-16717273Y-39364352D01*
X-16714306Y-39136185D01*
X-16724964Y-38947736D01*
X-16752243Y-38782641D01*
X-16799139Y-38624535D01*
X-16868650Y-38457057D01*
X-16892807Y-38405771D01*
X-16963945Y-38280983D01*
X-17055934Y-38152376D01*
X-17157626Y-38032794D01*
X-17257874Y-37935082D01*
X-17345529Y-37872088D01*
X-17363278Y-37863635D01*
X-17404380Y-37852693D01*
X-17455455Y-37852861D01*
X-17522455Y-37866292D01*
X-17611330Y-37895135D01*
X-17728031Y-37941540D01*
X-17878509Y-38007659D01*
X-18068714Y-38095641D01*
X-18271716Y-38191919D01*
X-18457284Y-38282945D01*
X-18600388Y-38359370D01*
X-18711638Y-38427601D01*
X-18801641Y-38494044D01*
X-18866449Y-38551139D01*
X-19048296Y-38751910D01*
X-19226649Y-39005695D01*
X-19399223Y-39308446D01*
X-19563728Y-39656109D01*
X-19717877Y-40044635D01*
X-19731893Y-40083503D01*
X-19807630Y-40303776D01*
X-19886503Y-40548298D01*
X-19965733Y-40807115D01*
X-20042542Y-41070272D01*
X-20114150Y-41327811D01*
X-20177781Y-41569780D01*
X-20230655Y-41786222D01*
X-20269994Y-41967181D01*
X-20290773Y-42086067D01*
X-20309040Y-42214494D01*
X-20799847Y-42214494D01*
X-20794757Y-42186623D01*
X-20720615Y-41850976D01*
X-20631542Y-41496712D01*
X-20530876Y-41134910D01*
X-20421954Y-40776647D01*
X-20308113Y-40433000D01*
X-20192689Y-40115049D01*
X-20079020Y-39833871D01*
X-19993113Y-39645955D01*
X-19840707Y-39354474D01*
X-19689090Y-39109842D01*
X-19530019Y-38902547D01*
X-19355252Y-38723080D01*
X-19156545Y-38561928D01*
X-18925656Y-38409581D01*
X-18917227Y-38404494D01*
X-18728550Y-38294643D01*
X-18520877Y-38180182D01*
X-18301284Y-38064442D01*
X-18076853Y-37950755D01*
X-17854660Y-37842451D01*
X-17641785Y-37742862D01*
X-17445306Y-37655319D01*
X-17272303Y-37583154D01*
X-17129853Y-37529697D01*
X-17025036Y-37498281D01*
X-16976513Y-37491178D01*
X-16894776Y-37514674D01*
G37*
X-16894776Y-37514674D02*
X-16793865Y-37579667D01*
X-16682839Y-37678049D01*
X-16570757Y-37801711D01*
X-16466680Y-37942545D01*
X-16458845Y-37954505D01*
X-16330263Y-38188886D01*
X-16241966Y-38438062D01*
X-16190302Y-38714494D01*
X-16174161Y-38926178D01*
X-16177022Y-39209376D01*
X-16210193Y-39487055D01*
X-16276270Y-39769378D01*
X-16377849Y-40066509D01*
X-16517526Y-40388614D01*
X-16581099Y-40519608D01*
X-16738665Y-40817405D01*
X-16903089Y-41087355D01*
X-17084488Y-41343650D01*
X-17292983Y-41600482D01*
X-17538691Y-41872045D01*
X-17565701Y-41900561D01*
X-17701790Y-42050186D01*
X-17811296Y-42188169D01*
X-17907347Y-42333389D01*
X-18003070Y-42504728D01*
X-18051511Y-42599316D01*
X-18109290Y-42708672D01*
X-18162852Y-42800012D01*
X-18204104Y-42859960D01*
X-18217740Y-42874097D01*
X-18236357Y-42899272D01*
X-18251221Y-42949524D01*
X-18263473Y-43032740D01*
X-18274254Y-43156803D01*
X-18284703Y-43329598D01*
X-18285320Y-43341235D01*
X-18297319Y-43507883D01*
X-18317103Y-43713591D01*
X-18342727Y-43941178D01*
X-18372249Y-44173460D01*
X-18403725Y-44393254D01*
X-18405962Y-44407802D01*
X-18436882Y-44609858D01*
X-18466962Y-44810167D01*
X-18494313Y-44995874D01*
X-18517047Y-45154123D01*
X-18533275Y-45272059D01*
X-18536098Y-45293761D01*
X-18567749Y-45493753D01*
X-18613265Y-45716680D01*
X-18668947Y-45948827D01*
X-18731098Y-46176481D01*
X-18796022Y-46385929D01*
X-18860022Y-46563456D01*
X-18907944Y-46673023D01*
X-18981349Y-46809677D01*
X-19052681Y-46911441D01*
X-19136790Y-46997936D01*
X-19184592Y-47038597D01*
X-19276077Y-47110052D01*
X-19360861Y-47171077D01*
X-19420012Y-47208127D01*
X-19525561Y-47247573D01*
X-19637357Y-47266136D01*
X-19730977Y-47260420D01*
X-19750478Y-47254062D01*
X-19804277Y-47217014D01*
X-19882578Y-47145332D01*
X-19975412Y-47049876D01*
X-20072810Y-46941505D01*
X-20164804Y-46831078D01*
X-20241423Y-46729456D01*
X-20267028Y-46691376D01*
X-20312266Y-46613751D01*
X-20374881Y-46496779D01*
X-20448423Y-46352985D01*
X-20526445Y-46194891D01*
X-20576970Y-46089417D01*
X-20726776Y-45748036D01*
X-20840129Y-45430454D01*
X-20921575Y-45120753D01*
X-20975659Y-44803017D01*
X-20994769Y-44626067D01*
X-21004419Y-44473697D01*
X-21010041Y-44288727D01*
X-21011836Y-44084355D01*
X-21010007Y-43873778D01*
X-21004755Y-43670194D01*
X-20998556Y-43536002D01*
X-20471477Y-43536002D01*
X-20471415Y-43774733D01*
X-20468243Y-43983932D01*
X-20463565Y-44199132D01*
X-20458419Y-44368172D01*
X-20451703Y-44501969D01*
X-20442316Y-44611438D01*
X-20429160Y-44707495D01*
X-20411132Y-44801056D01*
X-20387133Y-44903036D01*
X-20367999Y-44978276D01*
X-20315482Y-45150852D01*
X-20239911Y-45357725D01*
X-20147715Y-45584317D01*
X-20045320Y-45816049D01*
X-19939156Y-46038343D01*
X-19835648Y-46236621D01*
X-19746218Y-46388545D01*
X-19674760Y-46491812D01*
X-19596258Y-46591915D01*
X-19519404Y-46679321D01*
X-19452891Y-46744500D01*
X-19405411Y-46777918D01*
X-19390114Y-46779051D01*
X-19371151Y-46746367D01*
X-19341995Y-46672452D01*
X-19307873Y-46571032D01*
X-19295158Y-46529690D01*
X-19219800Y-46260453D01*
X-19155231Y-45987798D01*
X-19097826Y-45694674D01*
X-19043960Y-45364031D01*
X-19036120Y-45311230D01*
X-19005871Y-45105027D01*
X-18971191Y-44868232D01*
X-18935868Y-44626736D01*
X-18903692Y-44406431D01*
X-18896182Y-44354943D01*
X-18858443Y-44065110D01*
X-18827633Y-43757823D01*
X-18803400Y-43426279D01*
X-18785389Y-43063674D01*
X-18773247Y-42663204D01*
X-18766622Y-42218066D01*
X-18765056Y-41828674D01*
X-18765056Y-40873907D01*
X-18870444Y-41030493D01*
X-18928222Y-41106181D01*
X-19019609Y-41213566D01*
X-19137153Y-41344694D01*
X-19273405Y-41491611D01*
X-19420914Y-41646363D01*
X-19572230Y-41800995D01*
X-19719903Y-41947555D01*
X-19816471Y-42040472D01*
X-19898907Y-42124056D01*
X-20001594Y-42236164D01*
X-20109705Y-42360291D01*
X-20183844Y-42449395D01*
X-20398790Y-42713917D01*
X-20440042Y-43020722D01*
X-20456075Y-43168709D01*
X-20466458Y-43337231D01*
X-20471477Y-43536002D01*
X-20998556Y-43536002D01*
X-20996283Y-43486803D01*
X-20984793Y-43336801D01*
X-20973712Y-43250570D01*
X-20955611Y-43145073D01*
X-21251626Y-43270273D01*
X-21406593Y-43332382D01*
X-21576574Y-43395063D01*
X-21735029Y-43448727D01*
X-21804494Y-43470013D01*
X-21930996Y-43503180D01*
X-22078023Y-43536200D01*
X-22232762Y-43566836D01*
X-22382403Y-43592849D01*
X-22514134Y-43612002D01*
X-22615143Y-43622057D01*
X-22670366Y-43621265D01*
X-22671923Y-43603240D01*
X-22634693Y-43563406D01*
X-22569007Y-43509028D01*
X-22485198Y-43447374D01*
X-22393596Y-43385709D01*
X-22304533Y-43331299D01*
X-22228340Y-43291411D01*
X-22175710Y-43273359D01*
X-21864920Y-43227288D01*
X-21593459Y-43176774D01*
X-21364933Y-43122777D01*
X-21182946Y-43066257D01*
X-21051102Y-43008175D01*
X-20976998Y-42953975D01*
X-20947986Y-42912949D01*
X-20922895Y-42852150D01*
X-20899067Y-42761872D01*
X-20873843Y-42632404D01*
X-20850632Y-42492575D01*
X-20799847Y-42214494D01*
X-20309040Y-42214494D01*
X-19906374Y-41806110D01*
X-19703160Y-41593862D01*
X-19536666Y-41404583D01*
X-19398273Y-41226567D01*
X-19279362Y-41048107D01*
X-19171313Y-40857498D01*
X-19093362Y-40701910D01*
X-19027169Y-40547363D01*
X-18955950Y-40353017D01*
X-18884875Y-40135233D01*
X-18819114Y-39910375D01*
X-18763836Y-39694802D01*
X-18737817Y-39576553D01*
X-18706684Y-39454943D01*
X-18670249Y-39382130D01*
X-18623379Y-39349835D01*
X-18595057Y-39346292D01*
X-18548104Y-39330642D01*
X-18471984Y-39289614D01*
X-18383239Y-39232134D01*
X-18297523Y-39175038D01*
X-18228033Y-39134100D01*
X-18189512Y-39117987D01*
X-18189088Y-39117977D01*
X-18180203Y-39145214D01*
X-18174723Y-39221940D01*
X-18172471Y-39340679D01*
X-18173274Y-39493953D01*
X-18176956Y-39674285D01*
X-18183342Y-39874198D01*
X-18192257Y-40086215D01*
X-18203525Y-40302860D01*
X-18216973Y-40516654D01*
X-18224167Y-40616292D01*
X-18231223Y-40734378D01*
X-18237275Y-40883530D01*
X-18242270Y-41055266D01*
X-18246150Y-41241106D01*
X-18248859Y-41432569D01*
X-18250341Y-41621174D01*
X-18250541Y-41798440D01*
X-18249402Y-41955885D01*
X-18246868Y-42085030D01*
X-18242884Y-42177393D01*
X-18237392Y-42224494D01*
X-18234825Y-42228764D01*
X-18207597Y-42209990D01*
X-18153808Y-42161289D01*
X-18099264Y-42107471D01*
X-17922315Y-41918155D01*
X-17741803Y-41709151D01*
X-17575474Y-41501518D01*
X-17480704Y-41373515D01*
X-17362643Y-41191915D01*
X-17236969Y-40972255D01*
X-17112033Y-40731274D01*
X-16996186Y-40485712D01*
X-16897782Y-40252309D01*
X-16835512Y-40080355D01*
X-16791793Y-39941559D01*
X-16761475Y-39828103D01*
X-16741543Y-39721722D01*
X-16728981Y-39604156D01*
X-16720774Y-39457143D01*
X-16717273Y-39364352D01*
X-16714306Y-39136185D01*
X-16724964Y-38947736D01*
X-16752243Y-38782641D01*
X-16799139Y-38624535D01*
X-16868650Y-38457057D01*
X-16892807Y-38405771D01*
X-16963945Y-38280983D01*
X-17055934Y-38152376D01*
X-17157626Y-38032794D01*
X-17257874Y-37935082D01*
X-17345529Y-37872088D01*
X-17363278Y-37863635D01*
X-17404380Y-37852693D01*
X-17455455Y-37852861D01*
X-17522455Y-37866292D01*
X-17611330Y-37895135D01*
X-17728031Y-37941540D01*
X-17878509Y-38007659D01*
X-18068714Y-38095641D01*
X-18271716Y-38191919D01*
X-18457284Y-38282945D01*
X-18600388Y-38359370D01*
X-18711638Y-38427601D01*
X-18801641Y-38494044D01*
X-18866449Y-38551139D01*
X-19048296Y-38751910D01*
X-19226649Y-39005695D01*
X-19399223Y-39308446D01*
X-19563728Y-39656109D01*
X-19717877Y-40044635D01*
X-19731893Y-40083503D01*
X-19807630Y-40303776D01*
X-19886503Y-40548298D01*
X-19965733Y-40807115D01*
X-20042542Y-41070272D01*
X-20114150Y-41327811D01*
X-20177781Y-41569780D01*
X-20230655Y-41786222D01*
X-20269994Y-41967181D01*
X-20290773Y-42086067D01*
X-20309040Y-42214494D01*
X-20799847Y-42214494D01*
X-20794757Y-42186623D01*
X-20720615Y-41850976D01*
X-20631542Y-41496712D01*
X-20530876Y-41134910D01*
X-20421954Y-40776647D01*
X-20308113Y-40433000D01*
X-20192689Y-40115049D01*
X-20079020Y-39833871D01*
X-19993113Y-39645955D01*
X-19840707Y-39354474D01*
X-19689090Y-39109842D01*
X-19530019Y-38902547D01*
X-19355252Y-38723080D01*
X-19156545Y-38561928D01*
X-18925656Y-38409581D01*
X-18917227Y-38404494D01*
X-18728550Y-38294643D01*
X-18520877Y-38180182D01*
X-18301284Y-38064442D01*
X-18076853Y-37950755D01*
X-17854660Y-37842451D01*
X-17641785Y-37742862D01*
X-17445306Y-37655319D01*
X-17272303Y-37583154D01*
X-17129853Y-37529697D01*
X-17025036Y-37498281D01*
X-16976513Y-37491178D01*
X-16894776Y-37514674D01*
D13*
%TO.C,U2*%
X-11010000Y-2929167D02*
X-13550000Y-2929167D01*
X-11010000Y-13089167D02*
X-11010000Y-2929167D01*
X-16090000Y-13089167D02*
X-11010000Y-13089167D01*
X-16090000Y-5469167D02*
X-16090000Y-13089167D01*
X-16090000Y-2929167D02*
X-16090000Y-5469167D01*
X-13550000Y-2929167D02*
X-16090000Y-2929167D01*
D14*
%TO.C,J1*%
X-28690000Y-5860000D02*
X-29350000Y-5860000D01*
X-28690000Y-4130000D02*
X-28690000Y-5860000D01*
X-36310000Y-1560000D02*
X-36310000Y-1770000D01*
X-28690000Y-1560000D02*
X-28690000Y-1770000D01*
X-36310000Y-4130000D02*
X-36310000Y-5860000D01*
X-36310000Y-5860000D02*
X-35660000Y-5860000D01*
X-30740000Y-6560000D02*
X-31190000Y-6560000D01*
X-30740000Y-6560000D02*
X-30740000Y-6170000D01*
%TO.C,U4*%
X-22760000Y-56150000D02*
X-22760000Y-58100000D01*
X-22760000Y-56150000D02*
X-22760000Y-54200000D01*
X-17640000Y-56150000D02*
X-17640000Y-58100000D01*
X-17640000Y-56150000D02*
X-17640000Y-52700000D01*
%TO.C,U3*%
X-56660000Y-21450000D02*
X-56660000Y-23400000D01*
X-56660000Y-21450000D02*
X-56660000Y-19500000D01*
X-51540000Y-21450000D02*
X-51540000Y-23400000D01*
X-51540000Y-21450000D02*
X-51540000Y-18000000D01*
%TO.C,R13*%
X-20822936Y-61985000D02*
X-21277064Y-61985000D01*
X-20822936Y-60515000D02*
X-21277064Y-60515000D01*
%TO.C,R12*%
X-15835000Y-56527064D02*
X-15835000Y-56072936D01*
X-14365000Y-56527064D02*
X-14365000Y-56072936D01*
%TO.C,R11*%
X-55815000Y-27272936D02*
X-55815000Y-27727064D01*
X-57285000Y-27272936D02*
X-57285000Y-27727064D01*
%TO.C,R10*%
X-53022936Y-27335000D02*
X-53477064Y-27335000D01*
X-53022936Y-25865000D02*
X-53477064Y-25865000D01*
%TO.C,R9*%
X-53022936Y-17035000D02*
X-53477064Y-17035000D01*
X-53022936Y-15565000D02*
X-53477064Y-15565000D01*
%TO.C,R8*%
X-50685000Y-15027064D02*
X-50685000Y-14572936D01*
X-49215000Y-15027064D02*
X-49215000Y-14572936D01*
%TO.C,R7*%
X-53022936Y-14635000D02*
X-53477064Y-14635000D01*
X-53022936Y-13165000D02*
X-53477064Y-13165000D01*
%TO.C,R6*%
X-7877064Y-8765000D02*
X-7422936Y-8765000D01*
X-7877064Y-10235000D02*
X-7422936Y-10235000D01*
%TO.C,R5*%
X-11285000Y-47127064D02*
X-11285000Y-46672936D01*
X-9815000Y-47127064D02*
X-9815000Y-46672936D01*
%TO.C,R4*%
X-50272936Y-36235000D02*
X-50727064Y-36235000D01*
X-50272936Y-34765000D02*
X-50727064Y-34765000D01*
%TO.C,R3*%
X-50727064Y-32365000D02*
X-50272936Y-32365000D01*
X-50727064Y-33835000D02*
X-50272936Y-33835000D01*
%TO.C,R2*%
X-17465000Y-10622936D02*
X-17465000Y-11077064D01*
X-18935000Y-10622936D02*
X-18935000Y-11077064D01*
%TO.C,R1*%
X-7422936Y-7335000D02*
X-7877064Y-7335000D01*
X-7422936Y-5865000D02*
X-7877064Y-5865000D01*
%TO.C,JP1*%
X-18270000Y-60770000D02*
X-18270000Y-63430000D01*
X-15670000Y-60770000D02*
X-18270000Y-60770000D01*
X-15670000Y-63430000D02*
X-18270000Y-63430000D01*
X-15670000Y-60770000D02*
X-15670000Y-63430000D01*
X-14400000Y-60770000D02*
X-13070000Y-60770000D01*
X-13070000Y-60770000D02*
X-13070000Y-62100000D01*
%TO.C,J6*%
X-40195000Y-79530000D02*
X-40195000Y-67190000D01*
X-40195000Y-67190000D02*
X-9225000Y-67190000D01*
X-9225000Y-67190000D02*
X-9225000Y-79530000D01*
X-30500000Y-66295662D02*
X-30000000Y-66295662D01*
X-30000000Y-66295662D02*
X-30250000Y-66728675D01*
X-30250000Y-66728675D02*
X-30500000Y-66295662D01*
D11*
%TO.C,J5*%
X-69100000Y-16550000D02*
X-60900000Y-16550000D01*
X-69100000Y-26550000D02*
X-69100000Y-16550000D01*
X-60900000Y-26550000D02*
X-69100000Y-26550000D01*
X-60900000Y-16550000D02*
X-60900000Y-26550000D01*
X-68600000Y-16550000D02*
X-68600000Y-26550000D01*
X-69100000Y-21550000D02*
X-68600000Y-21550000D01*
D14*
%TO.C,J4*%
X-56320000Y-2200000D02*
X-58980000Y-2200000D01*
X-56320000Y-9880000D02*
X-56320000Y-2200000D01*
X-58980000Y-9880000D02*
X-58980000Y-2200000D01*
X-56320000Y-9880000D02*
X-58980000Y-9880000D01*
X-56320000Y-11150000D02*
X-56320000Y-12480000D01*
X-56320000Y-12480000D02*
X-57650000Y-12480000D01*
D11*
%TO.C,J3*%
X-61950000Y-32550000D02*
X-53750000Y-32550000D01*
X-61950000Y-42550000D02*
X-61950000Y-32550000D01*
X-53750000Y-42550000D02*
X-61950000Y-42550000D01*
X-53750000Y-32550000D02*
X-53750000Y-42550000D01*
X-61450000Y-32550000D02*
X-61450000Y-42550000D01*
X-61950000Y-37550000D02*
X-61450000Y-37550000D01*
D14*
%TO.C,J2*%
X-57870000Y-64010000D02*
X-60530000Y-64010000D01*
X-57870000Y-74230000D02*
X-57870000Y-64010000D01*
X-60530000Y-74230000D02*
X-60530000Y-64010000D01*
X-57870000Y-74230000D02*
X-60530000Y-74230000D01*
X-57870000Y-75500000D02*
X-57870000Y-76830000D01*
X-57870000Y-76830000D02*
X-59200000Y-76830000D01*
%TO.C,C3*%
X-23665000Y-54088748D02*
X-23665000Y-54611252D01*
X-25135000Y-54088748D02*
X-25135000Y-54611252D01*
%TO.C,C2*%
X-50635000Y-23161252D02*
X-50635000Y-22638748D01*
X-49165000Y-23161252D02*
X-49165000Y-22638748D01*
%TO.C,C1*%
X-48185000Y-23161252D02*
X-48185000Y-22638748D01*
X-46715000Y-23161252D02*
X-46715000Y-22638748D01*
%TO.C,BT1*%
X-48988246Y-43873616D02*
G75*
G02*
X-49740000Y-44400000I-751754J273616D01*
G01*
X-26544329Y-47445281D02*
G75*
G03*
X-48990000Y-43900000I-11495671J45281D01*
G01*
X-48988246Y-50926384D02*
G75*
G03*
X-49740000Y-50400000I-751754J-273616D01*
G01*
X-26544329Y-47354719D02*
G75*
G02*
X-48990000Y-50900000I-11495671J-45281D01*
G01*
X-55440000Y-44400000D02*
X-49740000Y-44400000D01*
X-55440000Y-50400000D02*
X-55440000Y-44400000D01*
X-55440000Y-50400000D02*
X-49740000Y-50400000D01*
%TO.C,U2*%
D11*
X-15327905Y920453D02*
X-15327905Y110929D01*
X-15280286Y15691D01*
X-15232667Y-31928D01*
X-15137429Y-79547D01*
X-14946953Y-79547D01*
X-14851715Y-31928D01*
X-14804096Y15691D01*
X-14756477Y110929D01*
X-14756477Y920453D01*
X-14327905Y825214D02*
X-14280286Y872833D01*
X-14185048Y920453D01*
X-13946953Y920453D01*
X-13851715Y872833D01*
X-13804096Y825214D01*
X-13756477Y729976D01*
X-13756477Y634738D01*
X-13804096Y491881D01*
X-14375524Y-79547D01*
X-13756477Y-79547D01*
%TO.C,J1*%
X-34758334Y-6967380D02*
X-34758334Y-7681666D01*
X-34805953Y-7824523D01*
X-34901191Y-7919761D01*
X-35044048Y-7967380D01*
X-35139286Y-7967380D01*
X-33758334Y-7967380D02*
X-34329762Y-7967380D01*
X-34044048Y-7967380D02*
X-34044048Y-6967380D01*
X-34139286Y-7110238D01*
X-34234524Y-7205476D01*
X-34329762Y-7253095D01*
%TO.C,U4*%
X-17347620Y-56911904D02*
X-16538096Y-56911904D01*
X-16442858Y-56864285D01*
X-16395239Y-56816666D01*
X-16347620Y-56721428D01*
X-16347620Y-56530952D01*
X-16395239Y-56435714D01*
X-16442858Y-56388095D01*
X-16538096Y-56340476D01*
X-17347620Y-56340476D01*
X-17014286Y-55435714D02*
X-16347620Y-55435714D01*
X-17395239Y-55673809D02*
X-16680953Y-55911904D01*
X-16680953Y-55292857D01*
%TO.C,U3*%
X-51247620Y-19861904D02*
X-50438096Y-19861904D01*
X-50342858Y-19814285D01*
X-50295239Y-19766666D01*
X-50247620Y-19671428D01*
X-50247620Y-19480952D01*
X-50295239Y-19385714D01*
X-50342858Y-19338095D01*
X-50438096Y-19290476D01*
X-51247620Y-19290476D01*
X-51247620Y-18909523D02*
X-51247620Y-18290476D01*
X-50866667Y-18623809D01*
X-50866667Y-18480952D01*
X-50819048Y-18385714D01*
X-50771429Y-18338095D01*
X-50676191Y-18290476D01*
X-50438096Y-18290476D01*
X-50342858Y-18338095D01*
X-50295239Y-18385714D01*
X-50247620Y-18480952D01*
X-50247620Y-18766666D01*
X-50295239Y-18861904D01*
X-50342858Y-18909523D01*
%TO.C,R13*%
X-21692858Y-63352380D02*
X-22026191Y-62876190D01*
X-22264286Y-63352380D02*
X-22264286Y-62352380D01*
X-21883334Y-62352380D01*
X-21788096Y-62400000D01*
X-21740477Y-62447619D01*
X-21692858Y-62542857D01*
X-21692858Y-62685714D01*
X-21740477Y-62780952D01*
X-21788096Y-62828571D01*
X-21883334Y-62876190D01*
X-22264286Y-62876190D01*
X-20740477Y-63352380D02*
X-21311905Y-63352380D01*
X-21026191Y-63352380D02*
X-21026191Y-62352380D01*
X-21121429Y-62495238D01*
X-21216667Y-62590476D01*
X-21311905Y-62638095D01*
X-20407143Y-62352380D02*
X-19788096Y-62352380D01*
X-20121429Y-62733333D01*
X-19978572Y-62733333D01*
X-19883334Y-62780952D01*
X-19835715Y-62828571D01*
X-19788096Y-62923809D01*
X-19788096Y-63161904D01*
X-19835715Y-63257142D01*
X-19883334Y-63304761D01*
X-19978572Y-63352380D01*
X-20264286Y-63352380D01*
X-20359524Y-63304761D01*
X-20407143Y-63257142D01*
%TO.C,R12*%
X-12997620Y-56942857D02*
X-13473810Y-57276190D01*
X-12997620Y-57514285D02*
X-13997620Y-57514285D01*
X-13997620Y-57133333D01*
X-13950000Y-57038095D01*
X-13902381Y-56990476D01*
X-13807143Y-56942857D01*
X-13664286Y-56942857D01*
X-13569048Y-56990476D01*
X-13521429Y-57038095D01*
X-13473810Y-57133333D01*
X-13473810Y-57514285D01*
X-12997620Y-55990476D02*
X-12997620Y-56561904D01*
X-12997620Y-56276190D02*
X-13997620Y-56276190D01*
X-13854762Y-56371428D01*
X-13759524Y-56466666D01*
X-13711905Y-56561904D01*
X-13902381Y-55609523D02*
X-13950000Y-55561904D01*
X-13997620Y-55466666D01*
X-13997620Y-55228571D01*
X-13950000Y-55133333D01*
X-13902381Y-55085714D01*
X-13807143Y-55038095D01*
X-13711905Y-55038095D01*
X-13569048Y-55085714D01*
X-12997620Y-55657142D01*
X-12997620Y-55038095D01*
%TO.C,R11*%
X-57697620Y-28142857D02*
X-58173810Y-28476190D01*
X-57697620Y-28714285D02*
X-58697620Y-28714285D01*
X-58697620Y-28333333D01*
X-58650000Y-28238095D01*
X-58602381Y-28190476D01*
X-58507143Y-28142857D01*
X-58364286Y-28142857D01*
X-58269048Y-28190476D01*
X-58221429Y-28238095D01*
X-58173810Y-28333333D01*
X-58173810Y-28714285D01*
X-57697620Y-27190476D02*
X-57697620Y-27761904D01*
X-57697620Y-27476190D02*
X-58697620Y-27476190D01*
X-58554762Y-27571428D01*
X-58459524Y-27666666D01*
X-58411905Y-27761904D01*
X-57697620Y-26238095D02*
X-57697620Y-26809523D01*
X-57697620Y-26523809D02*
X-58697620Y-26523809D01*
X-58554762Y-26619047D01*
X-58459524Y-26714285D01*
X-58411905Y-26809523D01*
%TO.C,R10*%
X-53892858Y-28702380D02*
X-54226191Y-28226190D01*
X-54464286Y-28702380D02*
X-54464286Y-27702380D01*
X-54083334Y-27702380D01*
X-53988096Y-27750000D01*
X-53940477Y-27797619D01*
X-53892858Y-27892857D01*
X-53892858Y-28035714D01*
X-53940477Y-28130952D01*
X-53988096Y-28178571D01*
X-54083334Y-28226190D01*
X-54464286Y-28226190D01*
X-52940477Y-28702380D02*
X-53511905Y-28702380D01*
X-53226191Y-28702380D02*
X-53226191Y-27702380D01*
X-53321429Y-27845238D01*
X-53416667Y-27940476D01*
X-53511905Y-27988095D01*
X-52321429Y-27702380D02*
X-52226191Y-27702380D01*
X-52130953Y-27750000D01*
X-52083334Y-27797619D01*
X-52035715Y-27892857D01*
X-51988096Y-28083333D01*
X-51988096Y-28321428D01*
X-52035715Y-28511904D01*
X-52083334Y-28607142D01*
X-52130953Y-28654761D01*
X-52226191Y-28702380D01*
X-52321429Y-28702380D01*
X-52416667Y-28654761D01*
X-52464286Y-28607142D01*
X-52511905Y-28511904D01*
X-52559524Y-28321428D01*
X-52559524Y-28083333D01*
X-52511905Y-27892857D01*
X-52464286Y-27797619D01*
X-52416667Y-27750000D01*
X-52321429Y-27702380D01*
%TO.C,R9*%
X-56266667Y-16752380D02*
X-56600000Y-16276190D01*
X-56838096Y-16752380D02*
X-56838096Y-15752380D01*
X-56457143Y-15752380D01*
X-56361905Y-15800000D01*
X-56314286Y-15847619D01*
X-56266667Y-15942857D01*
X-56266667Y-16085714D01*
X-56314286Y-16180952D01*
X-56361905Y-16228571D01*
X-56457143Y-16276190D01*
X-56838096Y-16276190D01*
X-55790477Y-16752380D02*
X-55600000Y-16752380D01*
X-55504762Y-16704761D01*
X-55457143Y-16657142D01*
X-55361905Y-16514285D01*
X-55314286Y-16323809D01*
X-55314286Y-15942857D01*
X-55361905Y-15847619D01*
X-55409524Y-15800000D01*
X-55504762Y-15752380D01*
X-55695239Y-15752380D01*
X-55790477Y-15800000D01*
X-55838096Y-15847619D01*
X-55885715Y-15942857D01*
X-55885715Y-16180952D01*
X-55838096Y-16276190D01*
X-55790477Y-16323809D01*
X-55695239Y-16371428D01*
X-55504762Y-16371428D01*
X-55409524Y-16323809D01*
X-55361905Y-16276190D01*
X-55314286Y-16180952D01*
%TO.C,R8*%
X-47797620Y-14966666D02*
X-48273810Y-15300000D01*
X-47797620Y-15538095D02*
X-48797620Y-15538095D01*
X-48797620Y-15157142D01*
X-48750000Y-15061904D01*
X-48702381Y-15014285D01*
X-48607143Y-14966666D01*
X-48464286Y-14966666D01*
X-48369048Y-15014285D01*
X-48321429Y-15061904D01*
X-48273810Y-15157142D01*
X-48273810Y-15538095D01*
X-48369048Y-14395238D02*
X-48416667Y-14490476D01*
X-48464286Y-14538095D01*
X-48559524Y-14585714D01*
X-48607143Y-14585714D01*
X-48702381Y-14538095D01*
X-48750000Y-14490476D01*
X-48797620Y-14395238D01*
X-48797620Y-14204761D01*
X-48750000Y-14109523D01*
X-48702381Y-14061904D01*
X-48607143Y-14014285D01*
X-48559524Y-14014285D01*
X-48464286Y-14061904D01*
X-48416667Y-14109523D01*
X-48369048Y-14204761D01*
X-48369048Y-14395238D01*
X-48321429Y-14490476D01*
X-48273810Y-14538095D01*
X-48178572Y-14585714D01*
X-47988096Y-14585714D01*
X-47892858Y-14538095D01*
X-47845239Y-14490476D01*
X-47797620Y-14395238D01*
X-47797620Y-14204761D01*
X-47845239Y-14109523D01*
X-47892858Y-14061904D01*
X-47988096Y-14014285D01*
X-48178572Y-14014285D01*
X-48273810Y-14061904D01*
X-48321429Y-14109523D01*
X-48369048Y-14204761D01*
%TO.C,R7*%
X-53416667Y-12702380D02*
X-53750000Y-12226190D01*
X-53988096Y-12702380D02*
X-53988096Y-11702380D01*
X-53607143Y-11702380D01*
X-53511905Y-11750000D01*
X-53464286Y-11797619D01*
X-53416667Y-11892857D01*
X-53416667Y-12035714D01*
X-53464286Y-12130952D01*
X-53511905Y-12178571D01*
X-53607143Y-12226190D01*
X-53988096Y-12226190D01*
X-53083334Y-11702380D02*
X-52416667Y-11702380D01*
X-52845239Y-12702380D01*
%TO.C,R6*%
X-7816667Y-11552380D02*
X-8150000Y-11076190D01*
X-8388096Y-11552380D02*
X-8388096Y-10552380D01*
X-8007143Y-10552380D01*
X-7911905Y-10600000D01*
X-7864286Y-10647619D01*
X-7816667Y-10742857D01*
X-7816667Y-10885714D01*
X-7864286Y-10980952D01*
X-7911905Y-11028571D01*
X-8007143Y-11076190D01*
X-8388096Y-11076190D01*
X-6959524Y-10552380D02*
X-7150000Y-10552380D01*
X-7245239Y-10600000D01*
X-7292858Y-10647619D01*
X-7388096Y-10790476D01*
X-7435715Y-10980952D01*
X-7435715Y-11361904D01*
X-7388096Y-11457142D01*
X-7340477Y-11504761D01*
X-7245239Y-11552380D01*
X-7054762Y-11552380D01*
X-6959524Y-11504761D01*
X-6911905Y-11457142D01*
X-6864286Y-11361904D01*
X-6864286Y-11123809D01*
X-6911905Y-11028571D01*
X-6959524Y-10980952D01*
X-7054762Y-10933333D01*
X-7245239Y-10933333D01*
X-7340477Y-10980952D01*
X-7388096Y-11028571D01*
X-7435715Y-11123809D01*
%TO.C,R5*%
X-11747620Y-47066666D02*
X-12223810Y-47400000D01*
X-11747620Y-47638095D02*
X-12747620Y-47638095D01*
X-12747620Y-47257142D01*
X-12700000Y-47161904D01*
X-12652381Y-47114285D01*
X-12557143Y-47066666D01*
X-12414286Y-47066666D01*
X-12319048Y-47114285D01*
X-12271429Y-47161904D01*
X-12223810Y-47257142D01*
X-12223810Y-47638095D01*
X-12747620Y-46161904D02*
X-12747620Y-46638095D01*
X-12271429Y-46685714D01*
X-12319048Y-46638095D01*
X-12366667Y-46542857D01*
X-12366667Y-46304761D01*
X-12319048Y-46209523D01*
X-12271429Y-46161904D01*
X-12176191Y-46114285D01*
X-11938096Y-46114285D01*
X-11842858Y-46161904D01*
X-11795239Y-46209523D01*
X-11747620Y-46304761D01*
X-11747620Y-46542857D01*
X-11795239Y-46638095D01*
X-11842858Y-46685714D01*
%TO.C,R4*%
X-50666667Y-37602380D02*
X-51000000Y-37126190D01*
X-51238096Y-37602380D02*
X-51238096Y-36602380D01*
X-50857143Y-36602380D01*
X-50761905Y-36650000D01*
X-50714286Y-36697619D01*
X-50666667Y-36792857D01*
X-50666667Y-36935714D01*
X-50714286Y-37030952D01*
X-50761905Y-37078571D01*
X-50857143Y-37126190D01*
X-51238096Y-37126190D01*
X-49809524Y-36935714D02*
X-49809524Y-37602380D01*
X-50047620Y-36554761D02*
X-50285715Y-37269047D01*
X-49666667Y-37269047D01*
%TO.C,R3*%
X-50666667Y-31902380D02*
X-51000000Y-31426190D01*
X-51238096Y-31902380D02*
X-51238096Y-30902380D01*
X-50857143Y-30902380D01*
X-50761905Y-30950000D01*
X-50714286Y-30997619D01*
X-50666667Y-31092857D01*
X-50666667Y-31235714D01*
X-50714286Y-31330952D01*
X-50761905Y-31378571D01*
X-50857143Y-31426190D01*
X-51238096Y-31426190D01*
X-50333334Y-30902380D02*
X-49714286Y-30902380D01*
X-50047620Y-31283333D01*
X-49904762Y-31283333D01*
X-49809524Y-31330952D01*
X-49761905Y-31378571D01*
X-49714286Y-31473809D01*
X-49714286Y-31711904D01*
X-49761905Y-31807142D01*
X-49809524Y-31854761D01*
X-49904762Y-31902380D01*
X-50190477Y-31902380D01*
X-50285715Y-31854761D01*
X-50333334Y-31807142D01*
%TO.C,R2*%
X-19347620Y-11016666D02*
X-19823810Y-11350000D01*
X-19347620Y-11588095D02*
X-20347620Y-11588095D01*
X-20347620Y-11207142D01*
X-20300000Y-11111904D01*
X-20252381Y-11064285D01*
X-20157143Y-11016666D01*
X-20014286Y-11016666D01*
X-19919048Y-11064285D01*
X-19871429Y-11111904D01*
X-19823810Y-11207142D01*
X-19823810Y-11588095D01*
X-20252381Y-10635714D02*
X-20300000Y-10588095D01*
X-20347620Y-10492857D01*
X-20347620Y-10254761D01*
X-20300000Y-10159523D01*
X-20252381Y-10111904D01*
X-20157143Y-10064285D01*
X-20061905Y-10064285D01*
X-19919048Y-10111904D01*
X-19347620Y-10683333D01*
X-19347620Y-10064285D01*
%TO.C,R1*%
X-7816667Y-5402380D02*
X-8150000Y-4926190D01*
X-8388096Y-5402380D02*
X-8388096Y-4402380D01*
X-8007143Y-4402380D01*
X-7911905Y-4450000D01*
X-7864286Y-4497619D01*
X-7816667Y-4592857D01*
X-7816667Y-4735714D01*
X-7864286Y-4830952D01*
X-7911905Y-4878571D01*
X-8007143Y-4926190D01*
X-8388096Y-4926190D01*
X-6864286Y-5402380D02*
X-7435715Y-5402380D01*
X-7150000Y-5402380D02*
X-7150000Y-4402380D01*
X-7245239Y-4545238D01*
X-7340477Y-4640476D01*
X-7435715Y-4688095D01*
%TO.C,JP1*%
X-12617620Y-62933333D02*
X-11903334Y-62933333D01*
X-11760477Y-62980952D01*
X-11665239Y-63076190D01*
X-11617620Y-63219047D01*
X-11617620Y-63314285D01*
X-11617620Y-62457142D02*
X-12617620Y-62457142D01*
X-12617620Y-62076190D01*
X-12570000Y-61980952D01*
X-12522381Y-61933333D01*
X-12427143Y-61885714D01*
X-12284286Y-61885714D01*
X-12189048Y-61933333D01*
X-12141429Y-61980952D01*
X-12093810Y-62076190D01*
X-12093810Y-62457142D01*
X-11617620Y-60933333D02*
X-11617620Y-61504761D01*
X-11617620Y-61219047D02*
X-12617620Y-61219047D01*
X-12474762Y-61314285D01*
X-12379524Y-61409523D01*
X-12331905Y-61504761D01*
%TO.C,J6*%
X-25043334Y-65702380D02*
X-25043334Y-66416666D01*
X-25090953Y-66559523D01*
X-25186191Y-66654761D01*
X-25329048Y-66702380D01*
X-25424286Y-66702380D01*
X-24138572Y-65702380D02*
X-24329048Y-65702380D01*
X-24424286Y-65750000D01*
X-24471905Y-65797619D01*
X-24567143Y-65940476D01*
X-24614762Y-66130952D01*
X-24614762Y-66511904D01*
X-24567143Y-66607142D01*
X-24519524Y-66654761D01*
X-24424286Y-66702380D01*
X-24233810Y-66702380D01*
X-24138572Y-66654761D01*
X-24090953Y-66607142D01*
X-24043334Y-66511904D01*
X-24043334Y-66273809D01*
X-24090953Y-66178571D01*
X-24138572Y-66130952D01*
X-24233810Y-66083333D01*
X-24424286Y-66083333D01*
X-24519524Y-66130952D01*
X-24567143Y-66178571D01*
X-24614762Y-66273809D01*
%TO.C,J5*%
X-60647620Y-21883333D02*
X-59933334Y-21883333D01*
X-59790477Y-21930952D01*
X-59695239Y-22026190D01*
X-59647620Y-22169047D01*
X-59647620Y-22264285D01*
X-60647620Y-20930952D02*
X-60647620Y-21407142D01*
X-60171429Y-21454761D01*
X-60219048Y-21407142D01*
X-60266667Y-21311904D01*
X-60266667Y-21073809D01*
X-60219048Y-20978571D01*
X-60171429Y-20930952D01*
X-60076191Y-20883333D01*
X-59838096Y-20883333D01*
X-59742858Y-20930952D01*
X-59695239Y-20978571D01*
X-59647620Y-21073809D01*
X-59647620Y-21311904D01*
X-59695239Y-21407142D01*
X-59742858Y-21454761D01*
%TO.C,J4*%
X-57983334Y-12932380D02*
X-57983334Y-13646666D01*
X-58030953Y-13789523D01*
X-58126191Y-13884761D01*
X-58269048Y-13932380D01*
X-58364286Y-13932380D01*
X-57078572Y-13265714D02*
X-57078572Y-13932380D01*
X-57316667Y-12884761D02*
X-57554762Y-13599047D01*
X-56935715Y-13599047D01*
%TO.C,J3*%
X-53497620Y-37883333D02*
X-52783334Y-37883333D01*
X-52640477Y-37930952D01*
X-52545239Y-38026190D01*
X-52497620Y-38169047D01*
X-52497620Y-38264285D01*
X-53497620Y-37502380D02*
X-53497620Y-36883333D01*
X-53116667Y-37216666D01*
X-53116667Y-37073809D01*
X-53069048Y-36978571D01*
X-53021429Y-36930952D01*
X-52926191Y-36883333D01*
X-52688096Y-36883333D01*
X-52592858Y-36930952D01*
X-52545239Y-36978571D01*
X-52497620Y-37073809D01*
X-52497620Y-37359523D01*
X-52545239Y-37454761D01*
X-52592858Y-37502380D01*
%TO.C,J2*%
X-59533334Y-77282380D02*
X-59533334Y-77996666D01*
X-59580953Y-78139523D01*
X-59676191Y-78234761D01*
X-59819048Y-78282380D01*
X-59914286Y-78282380D01*
X-59104762Y-77377619D02*
X-59057143Y-77330000D01*
X-58961905Y-77282380D01*
X-58723810Y-77282380D01*
X-58628572Y-77330000D01*
X-58580953Y-77377619D01*
X-58533334Y-77472857D01*
X-58533334Y-77568095D01*
X-58580953Y-77710952D01*
X-59152381Y-78282380D01*
X-58533334Y-78282380D01*
%TO.C,C3*%
X-25642858Y-54516666D02*
X-25595239Y-54564285D01*
X-25547620Y-54707142D01*
X-25547620Y-54802380D01*
X-25595239Y-54945238D01*
X-25690477Y-55040476D01*
X-25785715Y-55088095D01*
X-25976191Y-55135714D01*
X-26119048Y-55135714D01*
X-26309524Y-55088095D01*
X-26404762Y-55040476D01*
X-26500000Y-54945238D01*
X-26547620Y-54802380D01*
X-26547620Y-54707142D01*
X-26500000Y-54564285D01*
X-26452381Y-54516666D01*
X-26547620Y-54183333D02*
X-26547620Y-53564285D01*
X-26166667Y-53897619D01*
X-26166667Y-53754761D01*
X-26119048Y-53659523D01*
X-26071429Y-53611904D01*
X-25976191Y-53564285D01*
X-25738096Y-53564285D01*
X-25642858Y-53611904D01*
X-25595239Y-53659523D01*
X-25547620Y-53754761D01*
X-25547620Y-54040476D01*
X-25595239Y-54135714D01*
X-25642858Y-54183333D01*
%TO.C,C2*%
X-49542858Y-25866666D02*
X-49495239Y-25914285D01*
X-49447620Y-26057142D01*
X-49447620Y-26152380D01*
X-49495239Y-26295238D01*
X-49590477Y-26390476D01*
X-49685715Y-26438095D01*
X-49876191Y-26485714D01*
X-50019048Y-26485714D01*
X-50209524Y-26438095D01*
X-50304762Y-26390476D01*
X-50400000Y-26295238D01*
X-50447620Y-26152380D01*
X-50447620Y-26057142D01*
X-50400000Y-25914285D01*
X-50352381Y-25866666D01*
X-50352381Y-25485714D02*
X-50400000Y-25438095D01*
X-50447620Y-25342857D01*
X-50447620Y-25104761D01*
X-50400000Y-25009523D01*
X-50352381Y-24961904D01*
X-50257143Y-24914285D01*
X-50161905Y-24914285D01*
X-50019048Y-24961904D01*
X-49447620Y-25533333D01*
X-49447620Y-24914285D01*
%TO.C,C1*%
X-47142858Y-25866666D02*
X-47095239Y-25914285D01*
X-47047620Y-26057142D01*
X-47047620Y-26152380D01*
X-47095239Y-26295238D01*
X-47190477Y-26390476D01*
X-47285715Y-26438095D01*
X-47476191Y-26485714D01*
X-47619048Y-26485714D01*
X-47809524Y-26438095D01*
X-47904762Y-26390476D01*
X-48000000Y-26295238D01*
X-48047620Y-26152380D01*
X-48047620Y-26057142D01*
X-48000000Y-25914285D01*
X-47952381Y-25866666D01*
X-47047620Y-24914285D02*
X-47047620Y-25485714D01*
X-47047620Y-25200000D02*
X-48047620Y-25200000D01*
X-47904762Y-25295238D01*
X-47809524Y-25390476D01*
X-47761905Y-25485714D01*
%TO.C,BT1*%
X-47785715Y-47328571D02*
X-47642858Y-47376190D01*
X-47595239Y-47423809D01*
X-47547620Y-47519047D01*
X-47547620Y-47661904D01*
X-47595239Y-47757142D01*
X-47642858Y-47804761D01*
X-47738096Y-47852380D01*
X-48119048Y-47852380D01*
X-48119048Y-46852380D01*
X-47785715Y-46852380D01*
X-47690477Y-46900000D01*
X-47642858Y-46947619D01*
X-47595239Y-47042857D01*
X-47595239Y-47138095D01*
X-47642858Y-47233333D01*
X-47690477Y-47280952D01*
X-47785715Y-47328571D01*
X-48119048Y-47328571D01*
X-47261905Y-46852380D02*
X-46690477Y-46852380D01*
X-46976191Y-47852380D02*
X-46976191Y-46852380D01*
X-45833334Y-47852380D02*
X-46404762Y-47852380D01*
X-46119048Y-47852380D02*
X-46119048Y-46852380D01*
X-46214286Y-46995238D01*
X-46309524Y-47090476D01*
X-46404762Y-47138095D01*
X-51061429Y-47507142D02*
X-49918572Y-47507142D01*
X-50490000Y-48078571D02*
X-50490000Y-46935714D01*
%TD*%
M02*
