M48
; DRILL file {KiCad 5.1.9} date Sun Jan 24 08:51:49 2021
; FORMAT={-:-/ absolute / inch / decimal}
; #@! TF.CreationDate,2021-01-24T08:51:49-05:00
; #@! TF.GenerationSoftware,Kicad,Pcbnew,5.1.9
FMAT,2
INCH
T1C0.0157
T2C0.0177
T3C0.0394
T4C0.0400
T5C0.0433
T6C0.0591
T7C0.1260
%
G90
G05
T1
X-2.4488Y-1.9094
X-2.4488Y-2.0906
X-2.2062Y-0.686
X-2.1732Y-1.122
X-1.9665Y-0.6772
X-1.8858Y-1.3957
X-1.8681Y-0.8071
X-1.7756Y-0.9409
X-1.3307Y-0.3071
X-1.2244Y-0.9409
X-0.9606Y-2.0433
X-0.876Y-1.3602
X-0.876Y-1.315
X-0.7697Y-2.1831
X-0.7303Y-1.315
X-0.7303Y-1.3602
X-0.437Y-1.1181
X-0.3937Y-1.4331
X-0.3937Y-1.4724
X-0.3916Y-1.3938
X-0.3898Y-1.1161
X-0.2953Y-1.7185
X-0.2756Y-1.1161
X-0.1831Y-1.1476
T3
X-2.626Y-0.1323
X-2.626Y-0.2323
X-2.626Y-1.2323
X-2.626Y-1.3323
X-2.626Y-1.4323
X-2.626Y-1.5323
X-2.626Y-1.6323
X-2.626Y-1.7323
X-2.626Y-1.8323
X-2.626Y-1.9323
X-2.626Y-2.0323
X-2.626Y-2.1323
X-2.626Y-2.2323
X-2.626Y-2.3323
X-2.626Y-2.4323
X-2.626Y-2.5323
X-2.626Y-2.6323
X-2.626Y-2.7323
X-2.626Y-2.8323
X-2.626Y-2.9323
X-2.626Y-3.0323
X-2.526Y-1.2323
X-2.526Y-1.3323
X-2.526Y-1.4323
X-2.526Y-1.5323
X-2.526Y-1.6323
X-2.526Y-1.7323
X-2.526Y-1.8323
X-2.526Y-1.9323
X-2.526Y-2.0323
X-2.526Y-2.1323
X-2.526Y-2.2323
X-2.526Y-2.3323
X-2.526Y-2.4323
X-2.526Y-2.5323
X-2.526Y-2.6323
X-2.526Y-2.7323
X-2.526Y-2.8323
X-2.526Y-2.9323
X-2.526Y-3.0323
X-2.3307Y-2.5724
X-2.3307Y-2.6724
X-2.3307Y-2.7724
X-2.3307Y-2.8724
X-2.3307Y-2.9724
X-2.2697Y-0.139
X-2.2697Y-0.239
X-2.2697Y-0.339
X-2.2697Y-0.439
X-1.1909Y-2.7185
X-1.1364Y-2.8303
X-1.0819Y-2.7185
X-1.0274Y-2.8303
X-0.9728Y-2.7185
X-0.9183Y-2.8303
X-0.8638Y-2.7185
X-0.8093Y-2.8303
X-0.7547Y-2.7185
X-0.6669Y-2.4449
X-0.5669Y-2.4449
X-0.226Y-1.2323
X-0.226Y-1.3323
X-0.226Y-1.4323
X-0.226Y-1.5323
X-0.226Y-1.6323
X-0.226Y-1.7323
X-0.226Y-1.8323
X-0.226Y-1.9323
X-0.226Y-2.0323
X-0.226Y-2.1323
X-0.226Y-2.2323
X-0.226Y-2.3323
X-0.226Y-2.4323
X-0.226Y-2.5323
X-0.226Y-2.6323
X-0.226Y-2.7323
X-0.226Y-2.8323
X-0.226Y-2.9323
X-0.226Y-3.0323
X-0.126Y-0.1323
X-0.126Y-0.2323
X-0.126Y-1.2323
X-0.126Y-1.3323
X-0.126Y-1.4323
X-0.126Y-1.5323
X-0.126Y-1.6323
X-0.126Y-1.7323
X-0.126Y-1.8323
X-0.126Y-1.9323
X-0.126Y-2.0323
X-0.126Y-2.1323
X-0.126Y-2.2323
X-0.126Y-2.3323
X-0.126Y-2.4323
X-0.126Y-2.5323
X-0.126Y-2.6323
X-0.126Y-2.7323
X-0.126Y-2.8323
X-0.126Y-2.9323
X-0.126Y-3.0323
T4
X-0.5835Y-0.1653
X-0.5835Y-0.2653
X-0.5835Y-0.3653
X-0.5835Y-0.4653
X-0.4835Y-0.1653
X-0.4835Y-0.2653
X-0.4835Y-0.3653
X-0.4835Y-0.4653
T5
X-2.5591Y-0.75
X-2.5591Y-0.9469
X-2.2776Y-1.3799
X-2.2776Y-1.5768
T6
X-2.0961Y-1.8661
X-1.2894Y-1.8661
T7
X-1.465Y-2.7744
X-0.4807Y-2.7744
T2
G00X-1.4203Y-0.1319
M15
G01X-1.4203Y-0.1004
M16
G05
G00X-1.1388Y-0.1004
M15
G01X-1.1388Y-0.1319
M16
G05
T0
M30
