%TF.GenerationSoftware,KiCad,Pcbnew,5.1.10*%
%TF.CreationDate,2021-06-21T15:48:10-04:00*%
%TF.ProjectId,CANalog,43414e61-6c6f-4672-9e6b-696361645f70,rev?*%
%TF.SameCoordinates,PX5b8d800PY848f8c0*%
%TF.FileFunction,Legend,Bot*%
%TF.FilePolarity,Positive*%
%FSLAX46Y46*%
G04 Gerber Fmt 4.6, Leading zero omitted, Abs format (unit mm)*
G04 Created by KiCad (PCBNEW 5.1.10) date 2021-06-21 15:48:10*
%MOMM*%
%LPD*%
G01*
G04 APERTURE LIST*
%ADD10C,0.150000*%
%ADD11C,0.010000*%
G04 APERTURE END LIST*
D10*
X-63720239Y-24834523D02*
X-63672620Y-24977380D01*
X-63672620Y-25215476D01*
X-63720239Y-25310714D01*
X-63767858Y-25358333D01*
X-63863096Y-25405952D01*
X-63958334Y-25405952D01*
X-64053572Y-25358333D01*
X-64101191Y-25310714D01*
X-64148810Y-25215476D01*
X-64196429Y-25025000D01*
X-64244048Y-24929761D01*
X-64291667Y-24882142D01*
X-64386905Y-24834523D01*
X-64482143Y-24834523D01*
X-64577381Y-24882142D01*
X-64625000Y-24929761D01*
X-64672620Y-25025000D01*
X-64672620Y-25263095D01*
X-64625000Y-25405952D01*
X-63720239Y-25786904D02*
X-63672620Y-25929761D01*
X-63672620Y-26167857D01*
X-63720239Y-26263095D01*
X-63767858Y-26310714D01*
X-63863096Y-26358333D01*
X-63958334Y-26358333D01*
X-64053572Y-26310714D01*
X-64101191Y-26263095D01*
X-64148810Y-26167857D01*
X-64196429Y-25977380D01*
X-64244048Y-25882142D01*
X-64291667Y-25834523D01*
X-64386905Y-25786904D01*
X-64482143Y-25786904D01*
X-64577381Y-25834523D01*
X-64625000Y-25882142D01*
X-64672620Y-25977380D01*
X-64672620Y-26215476D01*
X-64625000Y-26358333D01*
X-63672620Y-26786904D02*
X-64672620Y-26786904D01*
X-63672620Y-27263095D02*
X-64672620Y-27263095D01*
X-64672620Y-27501190D01*
X-64625000Y-27644047D01*
X-64529762Y-27739285D01*
X-64434524Y-27786904D01*
X-64244048Y-27834523D01*
X-64101191Y-27834523D01*
X-63910715Y-27786904D01*
X-63815477Y-27739285D01*
X-63720239Y-27644047D01*
X-63672620Y-27501190D01*
X-63672620Y-27263095D01*
X-63767858Y-28263095D02*
X-63720239Y-28310714D01*
X-63672620Y-28263095D01*
X-63720239Y-28215476D01*
X-63767858Y-28263095D01*
X-63672620Y-28263095D01*
X-64291667Y-28263095D02*
X-64244048Y-28310714D01*
X-64196429Y-28263095D01*
X-64244048Y-28215476D01*
X-64291667Y-28263095D01*
X-64196429Y-28263095D01*
X-63767858Y-30072619D02*
X-63720239Y-30025000D01*
X-63672620Y-29882142D01*
X-63672620Y-29786904D01*
X-63720239Y-29644047D01*
X-63815477Y-29548809D01*
X-63910715Y-29501190D01*
X-64101191Y-29453571D01*
X-64244048Y-29453571D01*
X-64434524Y-29501190D01*
X-64529762Y-29548809D01*
X-64625000Y-29644047D01*
X-64672620Y-29786904D01*
X-64672620Y-29882142D01*
X-64625000Y-30025000D01*
X-64577381Y-30072619D01*
X-63958334Y-30453571D02*
X-63958334Y-30929761D01*
X-63672620Y-30358333D02*
X-64672620Y-30691666D01*
X-63672620Y-31025000D01*
X-63672620Y-31358333D02*
X-64672620Y-31358333D01*
X-63672620Y-31929761D01*
X-64672620Y-31929761D01*
X-63672620Y-32834523D02*
X-64196429Y-32834523D01*
X-64291667Y-32786904D01*
X-64339286Y-32691666D01*
X-64339286Y-32501190D01*
X-64291667Y-32405952D01*
X-63720239Y-32834523D02*
X-63672620Y-32739285D01*
X-63672620Y-32501190D01*
X-63720239Y-32405952D01*
X-63815477Y-32358333D01*
X-63910715Y-32358333D01*
X-64005953Y-32405952D01*
X-64053572Y-32501190D01*
X-64053572Y-32739285D01*
X-64101191Y-32834523D01*
X-63672620Y-33453571D02*
X-63720239Y-33358333D01*
X-63815477Y-33310714D01*
X-64672620Y-33310714D01*
X-63672620Y-33977380D02*
X-63720239Y-33882142D01*
X-63767858Y-33834523D01*
X-63863096Y-33786904D01*
X-64148810Y-33786904D01*
X-64244048Y-33834523D01*
X-64291667Y-33882142D01*
X-64339286Y-33977380D01*
X-64339286Y-34120238D01*
X-64291667Y-34215476D01*
X-64244048Y-34263095D01*
X-64148810Y-34310714D01*
X-63863096Y-34310714D01*
X-63767858Y-34263095D01*
X-63720239Y-34215476D01*
X-63672620Y-34120238D01*
X-63672620Y-33977380D01*
X-64339286Y-35167857D02*
X-63529762Y-35167857D01*
X-63434524Y-35120238D01*
X-63386905Y-35072619D01*
X-63339286Y-34977380D01*
X-63339286Y-34834523D01*
X-63386905Y-34739285D01*
X-63720239Y-35167857D02*
X-63672620Y-35072619D01*
X-63672620Y-34882142D01*
X-63720239Y-34786904D01*
X-63767858Y-34739285D01*
X-63863096Y-34691666D01*
X-64148810Y-34691666D01*
X-64244048Y-34739285D01*
X-64291667Y-34786904D01*
X-64339286Y-34882142D01*
X-64339286Y-35072619D01*
X-64291667Y-35167857D01*
X-62022620Y-26263095D02*
X-62022620Y-25691666D01*
X-62022620Y-25977380D02*
X-63022620Y-25977380D01*
X-62879762Y-25882142D01*
X-62784524Y-25786904D01*
X-62736905Y-25691666D01*
X-62022620Y-26739285D02*
X-62022620Y-26929761D01*
X-62070239Y-27025000D01*
X-62117858Y-27072619D01*
X-62260715Y-27167857D01*
X-62451191Y-27215476D01*
X-62832143Y-27215476D01*
X-62927381Y-27167857D01*
X-62975000Y-27120238D01*
X-63022620Y-27025000D01*
X-63022620Y-26834523D01*
X-62975000Y-26739285D01*
X-62927381Y-26691666D01*
X-62832143Y-26644047D01*
X-62594048Y-26644047D01*
X-62498810Y-26691666D01*
X-62451191Y-26739285D01*
X-62403572Y-26834523D01*
X-62403572Y-27025000D01*
X-62451191Y-27120238D01*
X-62498810Y-27167857D01*
X-62594048Y-27215476D01*
X-62927381Y-27596428D02*
X-62975000Y-27644047D01*
X-63022620Y-27739285D01*
X-63022620Y-27977380D01*
X-62975000Y-28072619D01*
X-62927381Y-28120238D01*
X-62832143Y-28167857D01*
X-62736905Y-28167857D01*
X-62594048Y-28120238D01*
X-62022620Y-27548809D01*
X-62022620Y-28167857D01*
X-62117858Y-28596428D02*
X-62070239Y-28644047D01*
X-62022620Y-28596428D01*
X-62070239Y-28548809D01*
X-62117858Y-28596428D01*
X-62022620Y-28596428D01*
X-62022620Y-29596428D02*
X-62022620Y-29025000D01*
X-62022620Y-29310714D02*
X-63022620Y-29310714D01*
X-62879762Y-29215476D01*
X-62784524Y-29120238D01*
X-62736905Y-29025000D01*
X-63022620Y-30453571D02*
X-63022620Y-30263095D01*
X-62975000Y-30167857D01*
X-62927381Y-30120238D01*
X-62784524Y-30025000D01*
X-62594048Y-29977380D01*
X-62213096Y-29977380D01*
X-62117858Y-30025000D01*
X-62070239Y-30072619D01*
X-62022620Y-30167857D01*
X-62022620Y-30358333D01*
X-62070239Y-30453571D01*
X-62117858Y-30501190D01*
X-62213096Y-30548809D01*
X-62451191Y-30548809D01*
X-62546429Y-30501190D01*
X-62594048Y-30453571D01*
X-62641667Y-30358333D01*
X-62641667Y-30167857D01*
X-62594048Y-30072619D01*
X-62546429Y-30025000D01*
X-62451191Y-29977380D01*
X-62594048Y-31120238D02*
X-62641667Y-31025000D01*
X-62689286Y-30977380D01*
X-62784524Y-30929761D01*
X-62832143Y-30929761D01*
X-62927381Y-30977380D01*
X-62975000Y-31025000D01*
X-63022620Y-31120238D01*
X-63022620Y-31310714D01*
X-62975000Y-31405952D01*
X-62927381Y-31453571D01*
X-62832143Y-31501190D01*
X-62784524Y-31501190D01*
X-62689286Y-31453571D01*
X-62641667Y-31405952D01*
X-62594048Y-31310714D01*
X-62594048Y-31120238D01*
X-62546429Y-31025000D01*
X-62498810Y-30977380D01*
X-62403572Y-30929761D01*
X-62213096Y-30929761D01*
X-62117858Y-30977380D01*
X-62070239Y-31025000D01*
X-62022620Y-31120238D01*
X-62022620Y-31310714D01*
X-62070239Y-31405952D01*
X-62117858Y-31453571D01*
X-62213096Y-31501190D01*
X-62403572Y-31501190D01*
X-62498810Y-31453571D01*
X-62546429Y-31405952D01*
X-62594048Y-31310714D01*
X-62117858Y-31929761D02*
X-62070239Y-31977380D01*
X-62022620Y-31929761D01*
X-62070239Y-31882142D01*
X-62117858Y-31929761D01*
X-62022620Y-31929761D01*
X-62022620Y-32929761D02*
X-62022620Y-32358333D01*
X-62022620Y-32644047D02*
X-63022620Y-32644047D01*
X-62879762Y-32548809D01*
X-62784524Y-32453571D01*
X-62736905Y-32358333D01*
X-62117858Y-33358333D02*
X-62070239Y-33405952D01*
X-62022620Y-33358333D01*
X-62070239Y-33310714D01*
X-62117858Y-33358333D01*
X-62022620Y-33358333D01*
X-62022620Y-34358333D02*
X-62022620Y-33786904D01*
X-62022620Y-34072619D02*
X-63022620Y-34072619D01*
X-62879762Y-33977380D01*
X-62784524Y-33882142D01*
X-62736905Y-33786904D01*
X-1770239Y-22510714D02*
X-1722620Y-22415476D01*
X-1722620Y-22225000D01*
X-1770239Y-22129761D01*
X-1817858Y-22082142D01*
X-1913096Y-22034523D01*
X-2198810Y-22034523D01*
X-2294048Y-22082142D01*
X-2341667Y-22129761D01*
X-2389286Y-22225000D01*
X-2389286Y-22415476D01*
X-2341667Y-22510714D01*
X-1722620Y-23367857D02*
X-2246429Y-23367857D01*
X-2341667Y-23320238D01*
X-2389286Y-23225000D01*
X-2389286Y-23034523D01*
X-2341667Y-22939285D01*
X-1770239Y-23367857D02*
X-1722620Y-23272619D01*
X-1722620Y-23034523D01*
X-1770239Y-22939285D01*
X-1865477Y-22891666D01*
X-1960715Y-22891666D01*
X-2055953Y-22939285D01*
X-2103572Y-23034523D01*
X-2103572Y-23272619D01*
X-2151191Y-23367857D01*
X-2389286Y-23844047D02*
X-1722620Y-23844047D01*
X-2294048Y-23844047D02*
X-2341667Y-23891666D01*
X-2389286Y-23986904D01*
X-2389286Y-24129761D01*
X-2341667Y-24225000D01*
X-2246429Y-24272619D01*
X-1722620Y-24272619D01*
X-1722620Y-25177380D02*
X-2246429Y-25177380D01*
X-2341667Y-25129761D01*
X-2389286Y-25034523D01*
X-2389286Y-24844047D01*
X-2341667Y-24748809D01*
X-1770239Y-25177380D02*
X-1722620Y-25082142D01*
X-1722620Y-24844047D01*
X-1770239Y-24748809D01*
X-1865477Y-24701190D01*
X-1960715Y-24701190D01*
X-2055953Y-24748809D01*
X-2103572Y-24844047D01*
X-2103572Y-25082142D01*
X-2151191Y-25177380D01*
X-1722620Y-25796428D02*
X-1770239Y-25701190D01*
X-1865477Y-25653571D01*
X-2722620Y-25653571D01*
X-1722620Y-26320238D02*
X-1770239Y-26225000D01*
X-1817858Y-26177380D01*
X-1913096Y-26129761D01*
X-2198810Y-26129761D01*
X-2294048Y-26177380D01*
X-2341667Y-26225000D01*
X-2389286Y-26320238D01*
X-2389286Y-26463095D01*
X-2341667Y-26558333D01*
X-2294048Y-26605952D01*
X-2198810Y-26653571D01*
X-1913096Y-26653571D01*
X-1817858Y-26605952D01*
X-1770239Y-26558333D01*
X-1722620Y-26463095D01*
X-1722620Y-26320238D01*
X-2389286Y-27510714D02*
X-1579762Y-27510714D01*
X-1484524Y-27463095D01*
X-1436905Y-27415476D01*
X-1389286Y-27320238D01*
X-1389286Y-27177380D01*
X-1436905Y-27082142D01*
X-1770239Y-27510714D02*
X-1722620Y-27415476D01*
X-1722620Y-27225000D01*
X-1770239Y-27129761D01*
X-1817858Y-27082142D01*
X-1913096Y-27034523D01*
X-2198810Y-27034523D01*
X-2294048Y-27082142D01*
X-2341667Y-27129761D01*
X-2389286Y-27225000D01*
X-2389286Y-27415476D01*
X-2341667Y-27510714D01*
X-1817858Y-27986904D02*
X-1770239Y-28034523D01*
X-1722620Y-27986904D01*
X-1770239Y-27939285D01*
X-1817858Y-27986904D01*
X-1722620Y-27986904D01*
X-1722620Y-28463095D02*
X-2389286Y-28463095D01*
X-2722620Y-28463095D02*
X-2675000Y-28415476D01*
X-2627381Y-28463095D01*
X-2675000Y-28510714D01*
X-2722620Y-28463095D01*
X-2627381Y-28463095D01*
X-1722620Y-29082142D02*
X-1770239Y-28986904D01*
X-1817858Y-28939285D01*
X-1913096Y-28891666D01*
X-2198810Y-28891666D01*
X-2294048Y-28939285D01*
X-2341667Y-28986904D01*
X-2389286Y-29082142D01*
X-2389286Y-29225000D01*
X-2341667Y-29320238D01*
X-2294048Y-29367857D01*
X-2198810Y-29415476D01*
X-1913096Y-29415476D01*
X-1817858Y-29367857D01*
X-1770239Y-29320238D01*
X-1722620Y-29225000D01*
X-1722620Y-29082142D01*
X-11133334Y-6987976D02*
X-11133334Y-7464166D01*
X-10847620Y-6892738D02*
X-11847620Y-7226071D01*
X-10847620Y-7559404D01*
X-11847620Y-8083214D02*
X-11847620Y-8273690D01*
X-11800000Y-8368928D01*
X-11704762Y-8464166D01*
X-11514286Y-8511785D01*
X-11180953Y-8511785D01*
X-10990477Y-8464166D01*
X-10895239Y-8368928D01*
X-10847620Y-8273690D01*
X-10847620Y-8083214D01*
X-10895239Y-7987976D01*
X-10990477Y-7892738D01*
X-11180953Y-7845119D01*
X-11514286Y-7845119D01*
X-11704762Y-7892738D01*
X-11800000Y-7987976D01*
X-11847620Y-8083214D01*
X-11847620Y-8940357D02*
X-11038096Y-8940357D01*
X-10942858Y-8987976D01*
X-10895239Y-9035595D01*
X-10847620Y-9130833D01*
X-10847620Y-9321309D01*
X-10895239Y-9416547D01*
X-10942858Y-9464166D01*
X-11038096Y-9511785D01*
X-11847620Y-9511785D01*
X-11847620Y-9845119D02*
X-11847620Y-10416547D01*
X-10847620Y-10130833D02*
X-11847620Y-10130833D01*
X-16800000Y-7559404D02*
X-16847620Y-7464166D01*
X-16847620Y-7321309D01*
X-16800000Y-7178452D01*
X-16704762Y-7083214D01*
X-16609524Y-7035595D01*
X-16419048Y-6987976D01*
X-16276191Y-6987976D01*
X-16085715Y-7035595D01*
X-15990477Y-7083214D01*
X-15895239Y-7178452D01*
X-15847620Y-7321309D01*
X-15847620Y-7416547D01*
X-15895239Y-7559404D01*
X-15942858Y-7607023D01*
X-16276191Y-7607023D01*
X-16276191Y-7416547D01*
X-15847620Y-8035595D02*
X-16847620Y-8035595D01*
X-15847620Y-8607023D01*
X-16847620Y-8607023D01*
X-15847620Y-9083214D02*
X-16847620Y-9083214D01*
X-16847620Y-9321309D01*
X-16800000Y-9464166D01*
X-16704762Y-9559404D01*
X-16609524Y-9607023D01*
X-16419048Y-9654642D01*
X-16276191Y-9654642D01*
X-16085715Y-9607023D01*
X-15990477Y-9559404D01*
X-15895239Y-9464166D01*
X-15847620Y-9321309D01*
X-15847620Y-9083214D01*
X-16133334Y-10035595D02*
X-16133334Y-10511785D01*
X-15847620Y-9940357D02*
X-16847620Y-10273690D01*
X-15847620Y-10607023D01*
X-28442858Y-7607023D02*
X-28395239Y-7559404D01*
X-28347620Y-7416547D01*
X-28347620Y-7321309D01*
X-28395239Y-7178452D01*
X-28490477Y-7083214D01*
X-28585715Y-7035595D01*
X-28776191Y-6987976D01*
X-28919048Y-6987976D01*
X-29109524Y-7035595D01*
X-29204762Y-7083214D01*
X-29300000Y-7178452D01*
X-29347620Y-7321309D01*
X-29347620Y-7416547D01*
X-29300000Y-7559404D01*
X-29252381Y-7607023D01*
X-28633334Y-7987976D02*
X-28633334Y-8464166D01*
X-28347620Y-7892738D02*
X-29347620Y-8226071D01*
X-28347620Y-8559404D01*
X-28347620Y-8892738D02*
X-29347620Y-8892738D01*
X-28347620Y-9464166D01*
X-29347620Y-9464166D01*
X-28252381Y-9702261D02*
X-28252381Y-10464166D01*
X-28347620Y-10702261D02*
X-29347620Y-10702261D01*
X-28871429Y-10702261D02*
X-28871429Y-11273690D01*
X-28347620Y-11273690D02*
X-29347620Y-11273690D01*
X-33442858Y-7607023D02*
X-33395239Y-7559404D01*
X-33347620Y-7416547D01*
X-33347620Y-7321309D01*
X-33395239Y-7178452D01*
X-33490477Y-7083214D01*
X-33585715Y-7035595D01*
X-33776191Y-6987976D01*
X-33919048Y-6987976D01*
X-34109524Y-7035595D01*
X-34204762Y-7083214D01*
X-34300000Y-7178452D01*
X-34347620Y-7321309D01*
X-34347620Y-7416547D01*
X-34300000Y-7559404D01*
X-34252381Y-7607023D01*
X-33633334Y-7987976D02*
X-33633334Y-8464166D01*
X-33347620Y-7892738D02*
X-34347620Y-8226071D01*
X-33347620Y-8559404D01*
X-33347620Y-8892738D02*
X-34347620Y-8892738D01*
X-33347620Y-9464166D01*
X-34347620Y-9464166D01*
X-33252381Y-9702261D02*
X-33252381Y-10464166D01*
X-33347620Y-11178452D02*
X-33347620Y-10702261D01*
X-34347620Y-10702261D01*
X-39300000Y-7559404D02*
X-39347620Y-7464166D01*
X-39347620Y-7321309D01*
X-39300000Y-7178452D01*
X-39204762Y-7083214D01*
X-39109524Y-7035595D01*
X-38919048Y-6987976D01*
X-38776191Y-6987976D01*
X-38585715Y-7035595D01*
X-38490477Y-7083214D01*
X-38395239Y-7178452D01*
X-38347620Y-7321309D01*
X-38347620Y-7416547D01*
X-38395239Y-7559404D01*
X-38442858Y-7607023D01*
X-38776191Y-7607023D01*
X-38776191Y-7416547D01*
X-38347620Y-8035595D02*
X-39347620Y-8035595D01*
X-38347620Y-8607023D01*
X-39347620Y-8607023D01*
X-38347620Y-9083214D02*
X-39347620Y-9083214D01*
X-39347620Y-9321309D01*
X-39300000Y-9464166D01*
X-39204762Y-9559404D01*
X-39109524Y-9607023D01*
X-38919048Y-9654642D01*
X-38776191Y-9654642D01*
X-38585715Y-9607023D01*
X-38490477Y-9559404D01*
X-38395239Y-9464166D01*
X-38347620Y-9321309D01*
X-38347620Y-9083214D01*
X-55847620Y-7083214D02*
X-55847620Y-7273690D01*
X-55895239Y-7368928D01*
X-55942858Y-7416547D01*
X-56085715Y-7511785D01*
X-56276191Y-7559404D01*
X-56657143Y-7559404D01*
X-56752381Y-7511785D01*
X-56800000Y-7464166D01*
X-56847620Y-7368928D01*
X-56847620Y-7178452D01*
X-56800000Y-7083214D01*
X-56752381Y-7035595D01*
X-56657143Y-6987976D01*
X-56419048Y-6987976D01*
X-56323810Y-7035595D01*
X-56276191Y-7083214D01*
X-56228572Y-7178452D01*
X-56228572Y-7368928D01*
X-56276191Y-7464166D01*
X-56323810Y-7511785D01*
X-56419048Y-7559404D01*
X-56228572Y-7987976D02*
X-56228572Y-8749880D01*
X-56847620Y-9130833D02*
X-56847620Y-9749880D01*
X-56466667Y-9416547D01*
X-56466667Y-9559404D01*
X-56419048Y-9654642D01*
X-56371429Y-9702261D01*
X-56276191Y-9749880D01*
X-56038096Y-9749880D01*
X-55942858Y-9702261D01*
X-55895239Y-9654642D01*
X-55847620Y-9559404D01*
X-55847620Y-9273690D01*
X-55895239Y-9178452D01*
X-55942858Y-9130833D01*
X-56847620Y-10368928D02*
X-56847620Y-10464166D01*
X-56800000Y-10559404D01*
X-56752381Y-10607023D01*
X-56657143Y-10654642D01*
X-56466667Y-10702261D01*
X-56228572Y-10702261D01*
X-56038096Y-10654642D01*
X-55942858Y-10607023D01*
X-55895239Y-10559404D01*
X-55847620Y-10464166D01*
X-55847620Y-10368928D01*
X-55895239Y-10273690D01*
X-55942858Y-10226071D01*
X-56038096Y-10178452D01*
X-56228572Y-10130833D01*
X-56466667Y-10130833D01*
X-56657143Y-10178452D01*
X-56752381Y-10226071D01*
X-56800000Y-10273690D01*
X-56847620Y-10368928D01*
X-56847620Y-10987976D02*
X-55847620Y-11321309D01*
X-56847620Y-11654642D01*
X-61800000Y-7559404D02*
X-61847620Y-7464166D01*
X-61847620Y-7321309D01*
X-61800000Y-7178452D01*
X-61704762Y-7083214D01*
X-61609524Y-7035595D01*
X-61419048Y-6987976D01*
X-61276191Y-6987976D01*
X-61085715Y-7035595D01*
X-60990477Y-7083214D01*
X-60895239Y-7178452D01*
X-60847620Y-7321309D01*
X-60847620Y-7416547D01*
X-60895239Y-7559404D01*
X-60942858Y-7607023D01*
X-61276191Y-7607023D01*
X-61276191Y-7416547D01*
X-60847620Y-8035595D02*
X-61847620Y-8035595D01*
X-60847620Y-8607023D01*
X-61847620Y-8607023D01*
X-60847620Y-9083214D02*
X-61847620Y-9083214D01*
X-61847620Y-9321309D01*
X-61800000Y-9464166D01*
X-61704762Y-9559404D01*
X-61609524Y-9607023D01*
X-61419048Y-9654642D01*
X-61276191Y-9654642D01*
X-61085715Y-9607023D01*
X-60990477Y-9559404D01*
X-60895239Y-9464166D01*
X-60847620Y-9321309D01*
X-60847620Y-9083214D01*
D11*
%TO.C,G\u002A\u002A\u002A*%
G36*
X-39823600Y-39509839D02*
G01*
X-39823599Y-39968582D01*
X-38261500Y-39984591D01*
X-37820779Y-39989361D01*
X-37469198Y-39994258D01*
X-37194300Y-40000209D01*
X-36983626Y-40008142D01*
X-36824720Y-40018984D01*
X-36705124Y-40033663D01*
X-36612382Y-40053105D01*
X-36534034Y-40078239D01*
X-36457625Y-40109991D01*
X-36433865Y-40120654D01*
X-36176377Y-40275978D01*
X-35949172Y-40485152D01*
X-35777571Y-40721321D01*
X-35701266Y-40897695D01*
X-35655699Y-41138395D01*
X-35636265Y-41433517D01*
X-35642328Y-41743946D01*
X-35673258Y-42030569D01*
X-35722967Y-42239141D01*
X-35874217Y-42525315D01*
X-36109483Y-42773289D01*
X-36413762Y-42967625D01*
X-36445400Y-42982593D01*
X-36699400Y-43099400D01*
X-47278499Y-43112689D01*
X-57857599Y-43125978D01*
X-57857600Y-43480989D01*
X-57857600Y-43836000D01*
X-46973700Y-43830800D01*
X-45927508Y-43830129D01*
X-44907270Y-43829140D01*
X-43917722Y-43827851D01*
X-42963595Y-43826279D01*
X-42049624Y-43824444D01*
X-41180542Y-43822362D01*
X-40361082Y-43820053D01*
X-39595979Y-43817534D01*
X-38889966Y-43814824D01*
X-38247776Y-43811941D01*
X-37674144Y-43808902D01*
X-37173802Y-43805726D01*
X-36751485Y-43802432D01*
X-36411925Y-43799037D01*
X-36159857Y-43795559D01*
X-36000014Y-43792016D01*
X-35937400Y-43788498D01*
X-35630230Y-43668218D01*
X-35318505Y-43453940D01*
X-35213253Y-43361791D01*
X-34953701Y-43082475D01*
X-34763710Y-42777835D01*
X-34632522Y-42425354D01*
X-34549383Y-42002515D01*
X-34543943Y-41960666D01*
X-34517989Y-41444131D01*
X-34569910Y-40956813D01*
X-34696137Y-40511085D01*
X-34893099Y-40119321D01*
X-35157227Y-39793892D01*
X-35173738Y-39778064D01*
X-35410069Y-39577302D01*
X-35653370Y-39424407D01*
X-35936028Y-39302188D01*
X-36259010Y-39201968D01*
X-36379666Y-39171374D01*
X-36502880Y-39146767D01*
X-36642052Y-39127273D01*
X-36810583Y-39112021D01*
X-37021870Y-39100137D01*
X-37289315Y-39090749D01*
X-37626316Y-39082986D01*
X-38046274Y-39075974D01*
X-38236100Y-39073245D01*
X-39823600Y-39051096D01*
X-39823600Y-39509839D01*
G37*
X-39823600Y-39509839D02*
X-39823599Y-39968582D01*
X-38261500Y-39984591D01*
X-37820779Y-39989361D01*
X-37469198Y-39994258D01*
X-37194300Y-40000209D01*
X-36983626Y-40008142D01*
X-36824720Y-40018984D01*
X-36705124Y-40033663D01*
X-36612382Y-40053105D01*
X-36534034Y-40078239D01*
X-36457625Y-40109991D01*
X-36433865Y-40120654D01*
X-36176377Y-40275978D01*
X-35949172Y-40485152D01*
X-35777571Y-40721321D01*
X-35701266Y-40897695D01*
X-35655699Y-41138395D01*
X-35636265Y-41433517D01*
X-35642328Y-41743946D01*
X-35673258Y-42030569D01*
X-35722967Y-42239141D01*
X-35874217Y-42525315D01*
X-36109483Y-42773289D01*
X-36413762Y-42967625D01*
X-36445400Y-42982593D01*
X-36699400Y-43099400D01*
X-47278499Y-43112689D01*
X-57857599Y-43125978D01*
X-57857600Y-43480989D01*
X-57857600Y-43836000D01*
X-46973700Y-43830800D01*
X-45927508Y-43830129D01*
X-44907270Y-43829140D01*
X-43917722Y-43827851D01*
X-42963595Y-43826279D01*
X-42049624Y-43824444D01*
X-41180542Y-43822362D01*
X-40361082Y-43820053D01*
X-39595979Y-43817534D01*
X-38889966Y-43814824D01*
X-38247776Y-43811941D01*
X-37674144Y-43808902D01*
X-37173802Y-43805726D01*
X-36751485Y-43802432D01*
X-36411925Y-43799037D01*
X-36159857Y-43795559D01*
X-36000014Y-43792016D01*
X-35937400Y-43788498D01*
X-35630230Y-43668218D01*
X-35318505Y-43453940D01*
X-35213253Y-43361791D01*
X-34953701Y-43082475D01*
X-34763710Y-42777835D01*
X-34632522Y-42425354D01*
X-34549383Y-42002515D01*
X-34543943Y-41960666D01*
X-34517989Y-41444131D01*
X-34569910Y-40956813D01*
X-34696137Y-40511085D01*
X-34893099Y-40119321D01*
X-35157227Y-39793892D01*
X-35173738Y-39778064D01*
X-35410069Y-39577302D01*
X-35653370Y-39424407D01*
X-35936028Y-39302188D01*
X-36259010Y-39201968D01*
X-36379666Y-39171374D01*
X-36502880Y-39146767D01*
X-36642052Y-39127273D01*
X-36810583Y-39112021D01*
X-37021870Y-39100137D01*
X-37289315Y-39090749D01*
X-37626316Y-39082986D01*
X-38046274Y-39075974D01*
X-38236100Y-39073245D01*
X-39823600Y-39051096D01*
X-39823600Y-39509839D01*
G36*
X-61148916Y-41719237D02*
G01*
X-61145087Y-42233797D01*
X-61139198Y-42656071D01*
X-61124581Y-42995271D01*
X-61094568Y-43260606D01*
X-61042492Y-43461287D01*
X-60961683Y-43606524D01*
X-60845476Y-43705527D01*
X-60687201Y-43767506D01*
X-60480190Y-43801672D01*
X-60217777Y-43817235D01*
X-59893293Y-43823405D01*
X-59622900Y-43827113D01*
X-58619600Y-43843626D01*
X-58619600Y-43277200D01*
X-59421096Y-43277200D01*
X-59769917Y-43274578D01*
X-60030023Y-43263784D01*
X-60214230Y-43240423D01*
X-60335354Y-43200099D01*
X-60406209Y-43138418D01*
X-60439612Y-43050984D01*
X-60448377Y-42933404D01*
X-60448400Y-42924896D01*
X-60448400Y-42730753D01*
X-59673700Y-42704470D01*
X-59385262Y-42691084D01*
X-59116552Y-42672070D01*
X-58891622Y-42649593D01*
X-58734523Y-42625822D01*
X-58695800Y-42616356D01*
X-58501118Y-42519579D01*
X-58300581Y-42359508D01*
X-58123119Y-42165296D01*
X-57997668Y-41966099D01*
X-57965219Y-41880200D01*
X-57921248Y-41620956D01*
X-57912132Y-41322579D01*
X-57912661Y-41316767D01*
X-58633104Y-41316767D01*
X-58642762Y-41577627D01*
X-58721879Y-41809447D01*
X-58863253Y-41993045D01*
X-59059680Y-42109239D01*
X-59104317Y-42122544D01*
X-59192252Y-42132836D01*
X-59357992Y-42142148D01*
X-59577742Y-42149453D01*
X-59826100Y-42153707D01*
X-60448400Y-42159600D01*
X-60448400Y-40625856D01*
X-59749900Y-40643711D01*
X-59420633Y-40656204D01*
X-59176473Y-40678593D01*
X-59000991Y-40717173D01*
X-58877756Y-40778243D01*
X-58790338Y-40868098D01*
X-58722309Y-40993035D01*
X-58700107Y-41046048D01*
X-58633104Y-41316767D01*
X-57912661Y-41316767D01*
X-57937979Y-41039108D01*
X-57963339Y-40922381D01*
X-58064695Y-40707620D01*
X-58235246Y-40495201D01*
X-58446342Y-40314830D01*
X-58660715Y-40199334D01*
X-58762821Y-40168472D01*
X-58891948Y-40144241D01*
X-59062594Y-40125477D01*
X-59289260Y-40111011D01*
X-59586443Y-40099678D01*
X-59968645Y-40090310D01*
X-60031316Y-40089059D01*
X-61163632Y-40066945D01*
X-61148916Y-41719237D01*
G37*
X-61148916Y-41719237D02*
X-61145087Y-42233797D01*
X-61139198Y-42656071D01*
X-61124581Y-42995271D01*
X-61094568Y-43260606D01*
X-61042492Y-43461287D01*
X-60961683Y-43606524D01*
X-60845476Y-43705527D01*
X-60687201Y-43767506D01*
X-60480190Y-43801672D01*
X-60217777Y-43817235D01*
X-59893293Y-43823405D01*
X-59622900Y-43827113D01*
X-58619600Y-43843626D01*
X-58619600Y-43277200D01*
X-59421096Y-43277200D01*
X-59769917Y-43274578D01*
X-60030023Y-43263784D01*
X-60214230Y-43240423D01*
X-60335354Y-43200099D01*
X-60406209Y-43138418D01*
X-60439612Y-43050984D01*
X-60448377Y-42933404D01*
X-60448400Y-42924896D01*
X-60448400Y-42730753D01*
X-59673700Y-42704470D01*
X-59385262Y-42691084D01*
X-59116552Y-42672070D01*
X-58891622Y-42649593D01*
X-58734523Y-42625822D01*
X-58695800Y-42616356D01*
X-58501118Y-42519579D01*
X-58300581Y-42359508D01*
X-58123119Y-42165296D01*
X-57997668Y-41966099D01*
X-57965219Y-41880200D01*
X-57921248Y-41620956D01*
X-57912132Y-41322579D01*
X-57912661Y-41316767D01*
X-58633104Y-41316767D01*
X-58642762Y-41577627D01*
X-58721879Y-41809447D01*
X-58863253Y-41993045D01*
X-59059680Y-42109239D01*
X-59104317Y-42122544D01*
X-59192252Y-42132836D01*
X-59357992Y-42142148D01*
X-59577742Y-42149453D01*
X-59826100Y-42153707D01*
X-60448400Y-42159600D01*
X-60448400Y-40625856D01*
X-59749900Y-40643711D01*
X-59420633Y-40656204D01*
X-59176473Y-40678593D01*
X-59000991Y-40717173D01*
X-58877756Y-40778243D01*
X-58790338Y-40868098D01*
X-58722309Y-40993035D01*
X-58700107Y-41046048D01*
X-58633104Y-41316767D01*
X-57912661Y-41316767D01*
X-57937979Y-41039108D01*
X-57963339Y-40922381D01*
X-58064695Y-40707620D01*
X-58235246Y-40495201D01*
X-58446342Y-40314830D01*
X-58660715Y-40199334D01*
X-58762821Y-40168472D01*
X-58891948Y-40144241D01*
X-59062594Y-40125477D01*
X-59289260Y-40111011D01*
X-59586443Y-40099678D01*
X-59968645Y-40090310D01*
X-60031316Y-40089059D01*
X-61163632Y-40066945D01*
X-61148916Y-41719237D01*
G36*
X-42501998Y-40889600D02*
G01*
X-43319404Y-42718400D01*
X-42462634Y-42718400D01*
X-42289007Y-42337400D01*
X-42115380Y-41956399D01*
X-41069807Y-41956400D01*
X-40024234Y-41956400D01*
X-39676980Y-42718400D01*
X-39267690Y-42718400D01*
X-39078176Y-42714043D01*
X-38935143Y-42702459D01*
X-38862567Y-42685878D01*
X-38858118Y-42680300D01*
X-38878095Y-42626934D01*
X-38935166Y-42491136D01*
X-39024843Y-42283174D01*
X-39142639Y-42013316D01*
X-39284068Y-41691833D01*
X-39444643Y-41328992D01*
X-39478358Y-41253200D01*
X-40340066Y-41253200D01*
X-40381736Y-41268205D01*
X-40507788Y-41280911D01*
X-40701012Y-41290310D01*
X-40944200Y-41295390D01*
X-41069401Y-41296000D01*
X-41370799Y-41294057D01*
X-41582083Y-41287560D01*
X-41714677Y-41275501D01*
X-41780005Y-41256874D01*
X-41790296Y-41232500D01*
X-41697693Y-41009122D01*
X-41589613Y-40761586D01*
X-41474151Y-40506904D01*
X-41359407Y-40262085D01*
X-41253476Y-40044141D01*
X-41164456Y-39870082D01*
X-41100445Y-39756920D01*
X-41070904Y-39721199D01*
X-41037056Y-39764845D01*
X-40970707Y-39884237D01*
X-40880119Y-40062058D01*
X-40773552Y-40280988D01*
X-40659269Y-40523710D01*
X-40545531Y-40772907D01*
X-40440600Y-41011259D01*
X-40352737Y-41221450D01*
X-40340066Y-41253200D01*
X-39478358Y-41253200D01*
X-39619878Y-40935063D01*
X-39657160Y-40851500D01*
X-40456483Y-39060800D01*
X-41684593Y-39060800D01*
X-42501998Y-40889600D01*
G37*
X-42501998Y-40889600D02*
X-43319404Y-42718400D01*
X-42462634Y-42718400D01*
X-42289007Y-42337400D01*
X-42115380Y-41956399D01*
X-41069807Y-41956400D01*
X-40024234Y-41956400D01*
X-39676980Y-42718400D01*
X-39267690Y-42718400D01*
X-39078176Y-42714043D01*
X-38935143Y-42702459D01*
X-38862567Y-42685878D01*
X-38858118Y-42680300D01*
X-38878095Y-42626934D01*
X-38935166Y-42491136D01*
X-39024843Y-42283174D01*
X-39142639Y-42013316D01*
X-39284068Y-41691833D01*
X-39444643Y-41328992D01*
X-39478358Y-41253200D01*
X-40340066Y-41253200D01*
X-40381736Y-41268205D01*
X-40507788Y-41280911D01*
X-40701012Y-41290310D01*
X-40944200Y-41295390D01*
X-41069401Y-41296000D01*
X-41370799Y-41294057D01*
X-41582083Y-41287560D01*
X-41714677Y-41275501D01*
X-41780005Y-41256874D01*
X-41790296Y-41232500D01*
X-41697693Y-41009122D01*
X-41589613Y-40761586D01*
X-41474151Y-40506904D01*
X-41359407Y-40262085D01*
X-41253476Y-40044141D01*
X-41164456Y-39870082D01*
X-41100445Y-39756920D01*
X-41070904Y-39721199D01*
X-41037056Y-39764845D01*
X-40970707Y-39884237D01*
X-40880119Y-40062058D01*
X-40773552Y-40280988D01*
X-40659269Y-40523710D01*
X-40545531Y-40772907D01*
X-40440600Y-41011259D01*
X-40352737Y-41221450D01*
X-40340066Y-41253200D01*
X-39478358Y-41253200D01*
X-39619878Y-40935063D01*
X-39657160Y-40851500D01*
X-40456483Y-39060800D01*
X-41684593Y-39060800D01*
X-42501998Y-40889600D01*
G36*
X-45838909Y-40394300D02*
G01*
X-47138291Y-41727800D01*
X-47138545Y-40394300D01*
X-47138800Y-39060800D01*
X-47951600Y-39060800D01*
X-47951600Y-42718400D01*
X-47152752Y-42718400D01*
X-44549692Y-40102200D01*
X-44548000Y-42718400D01*
X-43735200Y-42718400D01*
X-43735200Y-39060800D01*
X-44539526Y-39060800D01*
X-45838909Y-40394300D01*
G37*
X-45838909Y-40394300D02*
X-47138291Y-41727800D01*
X-47138545Y-40394300D01*
X-47138800Y-39060800D01*
X-47951600Y-39060800D01*
X-47951600Y-42718400D01*
X-47152752Y-42718400D01*
X-44549692Y-40102200D01*
X-44548000Y-42718400D01*
X-43735200Y-42718400D01*
X-43735200Y-39060800D01*
X-44539526Y-39060800D01*
X-45838909Y-40394300D01*
G36*
X-50125669Y-40085813D02*
G01*
X-50601428Y-40091082D01*
X-50985613Y-40099848D01*
X-51288130Y-40120507D01*
X-51518886Y-40161453D01*
X-51687789Y-40231081D01*
X-51804745Y-40337786D01*
X-51879662Y-40489962D01*
X-51922447Y-40696005D01*
X-51943007Y-40964308D01*
X-51951248Y-41303268D01*
X-51955713Y-41636493D01*
X-51972027Y-42718400D01*
X-50558713Y-42713818D01*
X-50180334Y-42710823D01*
X-49827179Y-42704690D01*
X-49514396Y-42695943D01*
X-49257131Y-42685109D01*
X-49070531Y-42672710D01*
X-48969742Y-42659273D01*
X-48967600Y-42658690D01*
X-48728926Y-42545276D01*
X-48564443Y-42363130D01*
X-48475818Y-42114675D01*
X-48463400Y-41965517D01*
X-49224334Y-41965517D01*
X-49238275Y-42037044D01*
X-49284621Y-42088460D01*
X-49375539Y-42123068D01*
X-49523199Y-42144176D01*
X-49739771Y-42155089D01*
X-50037422Y-42159112D01*
X-50294620Y-42159600D01*
X-51253600Y-42159600D01*
X-51253600Y-41700252D01*
X-49247000Y-41727800D01*
X-49230629Y-41870571D01*
X-49224334Y-41965517D01*
X-48463400Y-41965517D01*
X-48459678Y-41920822D01*
X-48499148Y-41639741D01*
X-48612196Y-41411079D01*
X-48791070Y-41249783D01*
X-48814407Y-41236808D01*
X-48882943Y-41205990D01*
X-48965486Y-41182720D01*
X-49076467Y-41165970D01*
X-49230318Y-41154712D01*
X-49441468Y-41147917D01*
X-49724349Y-41144556D01*
X-50093391Y-41143603D01*
X-50122507Y-41143600D01*
X-51253600Y-41143600D01*
X-51253600Y-40991200D01*
X-51219152Y-40842038D01*
X-51152000Y-40737200D01*
X-51113573Y-40704274D01*
X-51063861Y-40679332D01*
X-50989367Y-40661272D01*
X-50876591Y-40648991D01*
X-50712034Y-40641388D01*
X-50482199Y-40637360D01*
X-50173587Y-40635806D01*
X-49907400Y-40635599D01*
X-48764400Y-40635600D01*
X-48764400Y-40069427D01*
X-50125669Y-40085813D01*
G37*
X-50125669Y-40085813D02*
X-50601428Y-40091082D01*
X-50985613Y-40099848D01*
X-51288130Y-40120507D01*
X-51518886Y-40161453D01*
X-51687789Y-40231081D01*
X-51804745Y-40337786D01*
X-51879662Y-40489962D01*
X-51922447Y-40696005D01*
X-51943007Y-40964308D01*
X-51951248Y-41303268D01*
X-51955713Y-41636493D01*
X-51972027Y-42718400D01*
X-50558713Y-42713818D01*
X-50180334Y-42710823D01*
X-49827179Y-42704690D01*
X-49514396Y-42695943D01*
X-49257131Y-42685109D01*
X-49070531Y-42672710D01*
X-48969742Y-42659273D01*
X-48967600Y-42658690D01*
X-48728926Y-42545276D01*
X-48564443Y-42363130D01*
X-48475818Y-42114675D01*
X-48463400Y-41965517D01*
X-49224334Y-41965517D01*
X-49238275Y-42037044D01*
X-49284621Y-42088460D01*
X-49375539Y-42123068D01*
X-49523199Y-42144176D01*
X-49739771Y-42155089D01*
X-50037422Y-42159112D01*
X-50294620Y-42159600D01*
X-51253600Y-42159600D01*
X-51253600Y-41700252D01*
X-49247000Y-41727800D01*
X-49230629Y-41870571D01*
X-49224334Y-41965517D01*
X-48463400Y-41965517D01*
X-48459678Y-41920822D01*
X-48499148Y-41639741D01*
X-48612196Y-41411079D01*
X-48791070Y-41249783D01*
X-48814407Y-41236808D01*
X-48882943Y-41205990D01*
X-48965486Y-41182720D01*
X-49076467Y-41165970D01*
X-49230318Y-41154712D01*
X-49441468Y-41147917D01*
X-49724349Y-41144556D01*
X-50093391Y-41143603D01*
X-50122507Y-41143600D01*
X-51253600Y-41143600D01*
X-51253600Y-40991200D01*
X-51219152Y-40842038D01*
X-51152000Y-40737200D01*
X-51113573Y-40704274D01*
X-51063861Y-40679332D01*
X-50989367Y-40661272D01*
X-50876591Y-40648991D01*
X-50712034Y-40641388D01*
X-50482199Y-40637360D01*
X-50173587Y-40635806D01*
X-49907400Y-40635599D01*
X-48764400Y-40635600D01*
X-48764400Y-40069427D01*
X-50125669Y-40085813D01*
G36*
X-53285600Y-42718400D02*
G01*
X-52574400Y-42718400D01*
X-52574400Y-39060800D01*
X-53285600Y-39060800D01*
X-53285600Y-42718400D01*
G37*
X-53285600Y-42718400D02*
X-52574400Y-42718400D01*
X-52574400Y-39060800D01*
X-53285600Y-39060800D01*
X-53285600Y-42718400D01*
G36*
X-55883536Y-40086701D02*
G01*
X-56169500Y-40097214D01*
X-56377252Y-40110211D01*
X-56530170Y-40129743D01*
X-56651630Y-40159864D01*
X-56765009Y-40204627D01*
X-56875286Y-40258644D01*
X-57161290Y-40449978D01*
X-57322231Y-40627834D01*
X-57390541Y-40729980D01*
X-57435005Y-40820318D01*
X-57460731Y-40924315D01*
X-57472830Y-41067438D01*
X-57476408Y-41275152D01*
X-57476600Y-41397357D01*
X-57475142Y-41643089D01*
X-57467398Y-41812789D01*
X-57448311Y-41932018D01*
X-57412825Y-42026337D01*
X-57355883Y-42121307D01*
X-57324200Y-42167759D01*
X-57138419Y-42369315D01*
X-56877241Y-42535314D01*
X-56870038Y-42538930D01*
X-56750655Y-42596378D01*
X-56645689Y-42637372D01*
X-56534178Y-42665054D01*
X-56395156Y-42682570D01*
X-56207661Y-42693061D01*
X-55950728Y-42699671D01*
X-55777838Y-42702699D01*
X-55377795Y-42703321D01*
X-55045388Y-42691443D01*
X-54793877Y-42667701D01*
X-54699922Y-42650981D01*
X-54363270Y-42531502D01*
X-54089186Y-42342579D01*
X-53891461Y-42095401D01*
X-53831576Y-41977288D01*
X-53794650Y-41858397D01*
X-53775419Y-41708931D01*
X-53768619Y-41499091D01*
X-53768200Y-41397600D01*
X-54454000Y-41397600D01*
X-54477708Y-41555069D01*
X-54537403Y-41737879D01*
X-54568300Y-41805936D01*
X-54645569Y-41933644D01*
X-54740223Y-42026460D01*
X-54868845Y-42089770D01*
X-55048014Y-42128960D01*
X-55294312Y-42149418D01*
X-55624319Y-42156530D01*
X-55647800Y-42156653D01*
X-55934082Y-42154588D01*
X-56140623Y-42143766D01*
X-56289080Y-42121821D01*
X-56401111Y-42086385D01*
X-56435200Y-42070621D01*
X-56616145Y-41925843D01*
X-56737600Y-41711394D01*
X-56789470Y-41446384D01*
X-56790642Y-41397600D01*
X-56751626Y-41125885D01*
X-56641307Y-40901477D01*
X-56469778Y-40743486D01*
X-56435200Y-40724578D01*
X-56330703Y-40683946D01*
X-56197244Y-40657619D01*
X-56013164Y-40643231D01*
X-55756806Y-40638416D01*
X-55647800Y-40638546D01*
X-55312084Y-40645011D01*
X-55061100Y-40664490D01*
X-54878269Y-40702368D01*
X-54747008Y-40764033D01*
X-54650737Y-40854872D01*
X-54572875Y-40980271D01*
X-54568300Y-40989263D01*
X-54498807Y-41164755D01*
X-54458269Y-41340024D01*
X-54454000Y-41397600D01*
X-53768200Y-41397600D01*
X-53771609Y-41157568D01*
X-53785396Y-40989080D01*
X-53814895Y-40862204D01*
X-53865441Y-40747008D01*
X-53893115Y-40696855D01*
X-54042514Y-40492277D01*
X-54236132Y-40332525D01*
X-54483770Y-40214596D01*
X-54795228Y-40135486D01*
X-55180305Y-40092191D01*
X-55648801Y-40081705D01*
X-55883536Y-40086701D01*
G37*
X-55883536Y-40086701D02*
X-56169500Y-40097214D01*
X-56377252Y-40110211D01*
X-56530170Y-40129743D01*
X-56651630Y-40159864D01*
X-56765009Y-40204627D01*
X-56875286Y-40258644D01*
X-57161290Y-40449978D01*
X-57322231Y-40627834D01*
X-57390541Y-40729980D01*
X-57435005Y-40820318D01*
X-57460731Y-40924315D01*
X-57472830Y-41067438D01*
X-57476408Y-41275152D01*
X-57476600Y-41397357D01*
X-57475142Y-41643089D01*
X-57467398Y-41812789D01*
X-57448311Y-41932018D01*
X-57412825Y-42026337D01*
X-57355883Y-42121307D01*
X-57324200Y-42167759D01*
X-57138419Y-42369315D01*
X-56877241Y-42535314D01*
X-56870038Y-42538930D01*
X-56750655Y-42596378D01*
X-56645689Y-42637372D01*
X-56534178Y-42665054D01*
X-56395156Y-42682570D01*
X-56207661Y-42693061D01*
X-55950728Y-42699671D01*
X-55777838Y-42702699D01*
X-55377795Y-42703321D01*
X-55045388Y-42691443D01*
X-54793877Y-42667701D01*
X-54699922Y-42650981D01*
X-54363270Y-42531502D01*
X-54089186Y-42342579D01*
X-53891461Y-42095401D01*
X-53831576Y-41977288D01*
X-53794650Y-41858397D01*
X-53775419Y-41708931D01*
X-53768619Y-41499091D01*
X-53768200Y-41397600D01*
X-54454000Y-41397600D01*
X-54477708Y-41555069D01*
X-54537403Y-41737879D01*
X-54568300Y-41805936D01*
X-54645569Y-41933644D01*
X-54740223Y-42026460D01*
X-54868845Y-42089770D01*
X-55048014Y-42128960D01*
X-55294312Y-42149418D01*
X-55624319Y-42156530D01*
X-55647800Y-42156653D01*
X-55934082Y-42154588D01*
X-56140623Y-42143766D01*
X-56289080Y-42121821D01*
X-56401111Y-42086385D01*
X-56435200Y-42070621D01*
X-56616145Y-41925843D01*
X-56737600Y-41711394D01*
X-56789470Y-41446384D01*
X-56790642Y-41397600D01*
X-56751626Y-41125885D01*
X-56641307Y-40901477D01*
X-56469778Y-40743486D01*
X-56435200Y-40724578D01*
X-56330703Y-40683946D01*
X-56197244Y-40657619D01*
X-56013164Y-40643231D01*
X-55756806Y-40638416D01*
X-55647800Y-40638546D01*
X-55312084Y-40645011D01*
X-55061100Y-40664490D01*
X-54878269Y-40702368D01*
X-54747008Y-40764033D01*
X-54650737Y-40854872D01*
X-54572875Y-40980271D01*
X-54568300Y-40989263D01*
X-54498807Y-41164755D01*
X-54458269Y-41340024D01*
X-54454000Y-41397600D01*
X-53768200Y-41397600D01*
X-53771609Y-41157568D01*
X-53785396Y-40989080D01*
X-53814895Y-40862204D01*
X-53865441Y-40747008D01*
X-53893115Y-40696855D01*
X-54042514Y-40492277D01*
X-54236132Y-40332525D01*
X-54483770Y-40214596D01*
X-54795228Y-40135486D01*
X-55180305Y-40092191D01*
X-55648801Y-40081705D01*
X-55883536Y-40086701D01*
%TD*%
M02*
