M48
; DRILL file {KiCad 5.1.9} date Mon Mar  1 19:42:07 2021
; FORMAT={-:-/ absolute / inch / decimal}
; #@! TF.CreationDate,2021-03-01T19:42:07-05:00
; #@! TF.GenerationSoftware,Kicad,Pcbnew,5.1.9
FMAT,2
INCH
T1C0.0157
T2C0.0256
T3C0.0276
T4C0.0315
T5C0.0394
T6C0.0433
T7C0.1260
%
G90
G05
T1
X-2.628Y-1.0177
X-2.6161Y-0.9547
X-2.4508Y-0.9016
X-2.2657Y-0.9016
X-2.2185Y-2.0768
X-2.2126Y-1.0531
X-2.2008Y-0.7677
X-2.0866Y-0.8406
X-2.0866Y-0.9724
X-2.0138Y-1.9331
X-1.9311Y-1.9331
X-1.9035Y-0.8012
X-1.8907Y-1.0409
X-1.8386Y-2.3169
X-1.7697Y-0.7028
X-1.6949Y-1.4547
X-1.6024Y-1.6043
X-1.6024Y-1.8976
X-1.5748Y-0.7992
X-1.4606Y-2.4213
X-1.4547Y-1.0079
X-1.4213Y-1.9488
X-1.3819Y-2.2579
X-1.3386Y-2.5945
X-1.3209Y-2.4252
X-1.2559Y-2.1161
X-1.1496Y-1.8976
X-1.1334Y-2.2534
X-1.126Y-2.6024
X-1.0906Y-0.8524
X-1.065Y-2.2559
X-1.0197Y-0.685
X-1.0177Y-0.5846
X-1.0118Y-0.8524
X-0.8425Y-0.685
X-0.685Y-2.2047
X-0.6791Y-1.124
X-0.6772Y-2.4724
X-0.6004Y-0.5315
X-0.5532Y-1.5689
X-0.5217Y-0.5315
X-0.5214Y-1.5371
X-0.4921Y-1.5728
X-0.4429Y-0.5315
X-0.3937Y-1.4331
X-0.3937Y-1.4724
X-0.3916Y-1.3938
X-0.3317Y-2.4951
X-0.3228Y-1.2362
X-0.3031Y-0.689
X-0.3012Y-0.9429
X-0.2918Y-2.72
X-0.2913Y-2.4902
X-0.2864Y-2.6773
X-0.2461Y-0.9272
X-0.189Y-0.752
X-0.128Y-0.9449
T4
X-0.7232Y-0.2736
X-0.4232Y-0.2736
T5
X-2.626Y-0.1323
X-2.626Y-0.2323
X-2.626Y-1.2323
X-2.626Y-1.3323
X-2.626Y-1.4323
X-2.626Y-1.5323
X-2.626Y-1.6323
X-2.626Y-1.7323
X-2.626Y-1.8323
X-2.626Y-1.9323
X-2.626Y-2.0323
X-2.626Y-2.1323
X-2.626Y-2.2323
X-2.626Y-2.3323
X-2.626Y-2.4323
X-2.626Y-2.5323
X-2.626Y-2.6323
X-2.626Y-2.7323
X-2.626Y-2.8323
X-2.626Y-2.9323
X-2.626Y-3.0323
X-2.526Y-1.2323
X-2.526Y-1.3323
X-2.526Y-1.4323
X-2.526Y-1.5323
X-2.526Y-1.6323
X-2.526Y-1.7323
X-2.526Y-1.8323
X-2.526Y-1.9323
X-2.526Y-2.0323
X-2.526Y-2.1323
X-2.526Y-2.2323
X-2.526Y-2.3323
X-2.526Y-2.4323
X-2.526Y-2.5323
X-2.526Y-2.6323
X-2.526Y-2.7323
X-2.526Y-2.8323
X-2.526Y-2.9323
X-2.526Y-3.0323
X-2.374Y-1.4335
X-2.374Y-1.5335
X-2.2156Y-1.1437
X-2.2146Y-0.5728
X-2.1156Y-1.1437
X-2.1146Y-0.5728
X-2.0996Y-2.5157
X-2.0156Y-1.1437
X-2.0146Y-0.5728
X-1.9996Y-2.5157
X-1.8996Y-2.5157
X-1.4862Y-2.7185
X-1.4317Y-2.8303
X-1.3772Y-2.7185
X-1.3226Y-2.8303
X-1.2681Y-2.7185
X-1.2136Y-2.8303
X-1.1591Y-2.7185
X-1.1045Y-2.8303
X-1.05Y-2.7185
X-0.8228Y-0.1319
X-0.7228Y-0.1319
X-0.6228Y-0.1319
X-0.5228Y-0.1319
X-0.4228Y-0.1319
X-0.3228Y-0.1319
X-0.226Y-1.2323
X-0.226Y-1.3323
X-0.226Y-1.4323
X-0.226Y-1.5323
X-0.226Y-1.6323
X-0.226Y-1.7323
X-0.226Y-1.8323
X-0.226Y-1.9323
X-0.226Y-2.0323
X-0.226Y-2.1323
X-0.226Y-2.2323
X-0.226Y-2.3323
X-0.226Y-2.4323
X-0.226Y-2.5323
X-0.226Y-2.6323
X-0.226Y-2.7323
X-0.226Y-2.8323
X-0.226Y-2.9323
X-0.226Y-3.0323
X-0.126Y-0.1323
X-0.126Y-0.2323
X-0.126Y-1.2323
X-0.126Y-1.3323
X-0.126Y-1.4323
X-0.126Y-1.5323
X-0.126Y-1.6323
X-0.126Y-1.7323
X-0.126Y-1.8323
X-0.126Y-1.9323
X-0.126Y-2.0323
X-0.126Y-2.1323
X-0.126Y-2.2323
X-0.126Y-2.3323
X-0.126Y-2.4323
X-0.126Y-2.5323
X-0.126Y-2.6323
X-0.126Y-2.7323
X-0.126Y-2.8323
X-0.126Y-2.9323
X-0.126Y-3.0323
T6
X-2.3996Y-0.1988
X-2.3169Y-2.9665
X-2.2028Y-0.1988
X-2.1201Y-2.9665
X-1.7441Y-0.122
X-1.7441Y-0.2992
X-1.4882Y-0.122
X-1.4882Y-0.2992
X-1.2894Y-0.122
X-1.2894Y-0.2992
X-1.0335Y-0.122
X-1.0335Y-0.2992
T7
X-1.7602Y-2.7744
X-0.776Y-2.7744
T2
G00X-0.5293Y-2.9533
M15
G01X-0.5293Y-2.9376
M16
G05
G00X-0.3388Y-2.9533
M15
G01X-0.3388Y-2.9376
M16
G05
T3
G00X-0.5415Y-3.0734
M15
G01X-0.5415Y-3.0537
M16
G05
G00X-0.3266Y-3.0734
M15
G01X-0.3266Y-3.0537
M16
G05
T0
M30
