%TF.GenerationSoftware,KiCad,Pcbnew,5.1.10*%
%TF.CreationDate,2021-06-21T15:48:10-04:00*%
%TF.ProjectId,CANalog,43414e61-6c6f-4672-9e6b-696361645f70,rev?*%
%TF.SameCoordinates,PX5b8d800PY848f8c0*%
%TF.FileFunction,Legend,Top*%
%TF.FilePolarity,Positive*%
%FSLAX46Y46*%
G04 Gerber Fmt 4.6, Leading zero omitted, Abs format (unit mm)*
G04 Created by KiCad (PCBNEW 5.1.10) date 2021-06-21 15:48:10*
%MOMM*%
%LPD*%
G01*
G04 APERTURE LIST*
%ADD10C,0.150000*%
%ADD11C,0.285714*%
%ADD12C,0.128571*%
%ADD13C,0.120000*%
%ADD14C,0.152400*%
%ADD15C,0.010000*%
%ADD16C,0.250000*%
G04 APERTURE END LIST*
D10*
X-2547620Y-29826190D02*
X-1833334Y-29826190D01*
X-1690477Y-29873809D01*
X-1595239Y-29969047D01*
X-1547620Y-30111904D01*
X-1547620Y-30207142D01*
X-2214286Y-28921428D02*
X-1547620Y-28921428D01*
X-2214286Y-29350000D02*
X-1690477Y-29350000D01*
X-1595239Y-29302380D01*
X-1547620Y-29207142D01*
X-1547620Y-29064285D01*
X-1595239Y-28969047D01*
X-1642858Y-28921428D01*
X-2214286Y-28445238D02*
X-1547620Y-28445238D01*
X-2119048Y-28445238D02*
X-2166667Y-28397619D01*
X-2214286Y-28302380D01*
X-2214286Y-28159523D01*
X-2166667Y-28064285D01*
X-2071429Y-28016666D01*
X-1547620Y-28016666D01*
X-1595239Y-27159523D02*
X-1547620Y-27254761D01*
X-1547620Y-27445238D01*
X-1595239Y-27540476D01*
X-1690477Y-27588095D01*
X-2071429Y-27588095D01*
X-2166667Y-27540476D01*
X-2214286Y-27445238D01*
X-2214286Y-27254761D01*
X-2166667Y-27159523D01*
X-2071429Y-27111904D01*
X-1976191Y-27111904D01*
X-1880953Y-27588095D01*
X-2452381Y-25969047D02*
X-2500000Y-25921428D01*
X-2547620Y-25826190D01*
X-2547620Y-25588095D01*
X-2500000Y-25492857D01*
X-2452381Y-25445238D01*
X-2357143Y-25397619D01*
X-2261905Y-25397619D01*
X-2119048Y-25445238D01*
X-1547620Y-26016666D01*
X-1547620Y-25397619D01*
X-2547620Y-24778571D02*
X-2547620Y-24683333D01*
X-2500000Y-24588095D01*
X-2452381Y-24540476D01*
X-2357143Y-24492857D01*
X-2166667Y-24445238D01*
X-1928572Y-24445238D01*
X-1738096Y-24492857D01*
X-1642858Y-24540476D01*
X-1595239Y-24588095D01*
X-1547620Y-24683333D01*
X-1547620Y-24778571D01*
X-1595239Y-24873809D01*
X-1642858Y-24921428D01*
X-1738096Y-24969047D01*
X-1928572Y-25016666D01*
X-2166667Y-25016666D01*
X-2357143Y-24969047D01*
X-2452381Y-24921428D01*
X-2500000Y-24873809D01*
X-2547620Y-24778571D01*
X-2452381Y-24064285D02*
X-2500000Y-24016666D01*
X-2547620Y-23921428D01*
X-2547620Y-23683333D01*
X-2500000Y-23588095D01*
X-2452381Y-23540476D01*
X-2357143Y-23492857D01*
X-2261905Y-23492857D01*
X-2119048Y-23540476D01*
X-1547620Y-24111904D01*
X-1547620Y-23492857D01*
X-1547620Y-22540476D02*
X-1547620Y-23111904D01*
X-1547620Y-22826190D02*
X-2547620Y-22826190D01*
X-2404762Y-22921428D01*
X-2309524Y-23016666D01*
X-2261905Y-23111904D01*
D11*
X-3235715Y-28873809D02*
X-3140477Y-28969047D01*
X-3045239Y-29254761D01*
X-3045239Y-29445238D01*
X-3140477Y-29730952D01*
X-3330953Y-29921428D01*
X-3521429Y-30016666D01*
X-3902381Y-30111904D01*
X-4188096Y-30111904D01*
X-4569048Y-30016666D01*
X-4759524Y-29921428D01*
X-4950000Y-29730952D01*
X-5045239Y-29445238D01*
X-5045239Y-29254761D01*
X-4950000Y-28969047D01*
X-4854762Y-28873809D01*
X-3616667Y-28111904D02*
X-3616667Y-27159523D01*
X-3045239Y-28302380D02*
X-5045239Y-27635714D01*
X-3045239Y-26969047D01*
X-3045239Y-26302380D02*
X-5045239Y-26302380D01*
X-3045239Y-25159523D01*
X-5045239Y-25159523D01*
X-3045239Y-23350000D02*
X-4092858Y-23350000D01*
X-4283334Y-23445238D01*
X-4378572Y-23635714D01*
X-4378572Y-24016666D01*
X-4283334Y-24207142D01*
X-3140477Y-23350000D02*
X-3045239Y-23540476D01*
X-3045239Y-24016666D01*
X-3140477Y-24207142D01*
X-3330953Y-24302380D01*
X-3521429Y-24302380D01*
X-3711905Y-24207142D01*
X-3807143Y-24016666D01*
X-3807143Y-23540476D01*
X-3902381Y-23350000D01*
X-3045239Y-22111904D02*
X-3140477Y-22302380D01*
X-3330953Y-22397619D01*
X-5045239Y-22397619D01*
X-3045239Y-21064285D02*
X-3140477Y-21254761D01*
X-3235715Y-21350000D01*
X-3426191Y-21445238D01*
X-3997620Y-21445238D01*
X-4188096Y-21350000D01*
X-4283334Y-21254761D01*
X-4378572Y-21064285D01*
X-4378572Y-20778571D01*
X-4283334Y-20588095D01*
X-4188096Y-20492857D01*
X-3997620Y-20397619D01*
X-3426191Y-20397619D01*
X-3235715Y-20492857D01*
X-3140477Y-20588095D01*
X-3045239Y-20778571D01*
X-3045239Y-21064285D01*
X-4378572Y-18683333D02*
X-2759524Y-18683333D01*
X-2569048Y-18778571D01*
X-2473810Y-18873809D01*
X-2378572Y-19064285D01*
X-2378572Y-19350000D01*
X-2473810Y-19540476D01*
X-3140477Y-18683333D02*
X-3045239Y-18873809D01*
X-3045239Y-19254761D01*
X-3140477Y-19445238D01*
X-3235715Y-19540476D01*
X-3426191Y-19635714D01*
X-3997620Y-19635714D01*
X-4188096Y-19540476D01*
X-4283334Y-19445238D01*
X-4378572Y-19254761D01*
X-4378572Y-18873809D01*
X-4283334Y-18683333D01*
D12*
X-49650000Y-16957142D02*
X-49950000Y-16528571D01*
X-50164286Y-16957142D02*
X-50164286Y-16057142D01*
X-49821429Y-16057142D01*
X-49735715Y-16100000D01*
X-49692858Y-16142857D01*
X-49650000Y-16228571D01*
X-49650000Y-16357142D01*
X-49692858Y-16442857D01*
X-49735715Y-16485714D01*
X-49821429Y-16528571D01*
X-50164286Y-16528571D01*
X-49350000Y-16057142D02*
X-48750000Y-16957142D01*
X-48750000Y-16057142D02*
X-49350000Y-16957142D01*
X-50185715Y-19557142D02*
X-49671429Y-19557142D01*
X-49928572Y-20457142D02*
X-49928572Y-19557142D01*
X-49457143Y-19557142D02*
X-48857143Y-20457142D01*
X-48857143Y-19557142D02*
X-49457143Y-20457142D01*
D10*
X-43695239Y-26603571D02*
X-43361905Y-26603571D01*
X-43219048Y-27127380D02*
X-43695239Y-27127380D01*
X-43695239Y-26127380D01*
X-43219048Y-26127380D01*
X-42838096Y-27079761D02*
X-42695239Y-27127380D01*
X-42457143Y-27127380D01*
X-42361905Y-27079761D01*
X-42314286Y-27032142D01*
X-42266667Y-26936904D01*
X-42266667Y-26841666D01*
X-42314286Y-26746428D01*
X-42361905Y-26698809D01*
X-42457143Y-26651190D01*
X-42647620Y-26603571D01*
X-42742858Y-26555952D01*
X-42790477Y-26508333D01*
X-42838096Y-26413095D01*
X-42838096Y-26317857D01*
X-42790477Y-26222619D01*
X-42742858Y-26175000D01*
X-42647620Y-26127380D01*
X-42409524Y-26127380D01*
X-42266667Y-26175000D01*
X-41838096Y-27127380D02*
X-41838096Y-26127380D01*
X-41457143Y-26127380D01*
X-41361905Y-26175000D01*
X-41314286Y-26222619D01*
X-41266667Y-26317857D01*
X-41266667Y-26460714D01*
X-41314286Y-26555952D01*
X-41361905Y-26603571D01*
X-41457143Y-26651190D01*
X-41838096Y-26651190D01*
X-41076191Y-27222619D02*
X-40314286Y-27222619D01*
X-40076191Y-27127380D02*
X-40076191Y-26127380D01*
X-39695239Y-26127380D01*
X-39600000Y-26175000D01*
X-39552381Y-26222619D01*
X-39504762Y-26317857D01*
X-39504762Y-26460714D01*
X-39552381Y-26555952D01*
X-39600000Y-26603571D01*
X-39695239Y-26651190D01*
X-40076191Y-26651190D01*
X-38504762Y-27127380D02*
X-38838096Y-26651190D01*
X-39076191Y-27127380D02*
X-39076191Y-26127380D01*
X-38695239Y-26127380D01*
X-38600000Y-26175000D01*
X-38552381Y-26222619D01*
X-38504762Y-26317857D01*
X-38504762Y-26460714D01*
X-38552381Y-26555952D01*
X-38600000Y-26603571D01*
X-38695239Y-26651190D01*
X-39076191Y-26651190D01*
X-37885715Y-26127380D02*
X-37695239Y-26127380D01*
X-37600000Y-26175000D01*
X-37504762Y-26270238D01*
X-37457143Y-26460714D01*
X-37457143Y-26794047D01*
X-37504762Y-26984523D01*
X-37600000Y-27079761D01*
X-37695239Y-27127380D01*
X-37885715Y-27127380D01*
X-37980953Y-27079761D01*
X-38076191Y-26984523D01*
X-38123810Y-26794047D01*
X-38123810Y-26460714D01*
X-38076191Y-26270238D01*
X-37980953Y-26175000D01*
X-37885715Y-26127380D01*
X-36504762Y-26175000D02*
X-36600000Y-26127380D01*
X-36742858Y-26127380D01*
X-36885715Y-26175000D01*
X-36980953Y-26270238D01*
X-37028572Y-26365476D01*
X-37076191Y-26555952D01*
X-37076191Y-26698809D01*
X-37028572Y-26889285D01*
X-36980953Y-26984523D01*
X-36885715Y-27079761D01*
X-36742858Y-27127380D01*
X-36647620Y-27127380D01*
X-36504762Y-27079761D01*
X-36457143Y-27032142D01*
X-36457143Y-26698809D01*
X-36647620Y-26698809D01*
X-49952381Y-45052380D02*
X-50285715Y-44576190D01*
X-50523810Y-45052380D02*
X-50523810Y-44052380D01*
X-50142858Y-44052380D01*
X-50047620Y-44100000D01*
X-50000000Y-44147619D01*
X-49952381Y-44242857D01*
X-49952381Y-44385714D01*
X-50000000Y-44480952D01*
X-50047620Y-44528571D01*
X-50142858Y-44576190D01*
X-50523810Y-44576190D01*
X-49523810Y-44528571D02*
X-49190477Y-44528571D01*
X-49047620Y-45052380D02*
X-49523810Y-45052380D01*
X-49523810Y-44052380D01*
X-49047620Y-44052380D01*
X-48666667Y-45004761D02*
X-48523810Y-45052380D01*
X-48285715Y-45052380D01*
X-48190477Y-45004761D01*
X-48142858Y-44957142D01*
X-48095239Y-44861904D01*
X-48095239Y-44766666D01*
X-48142858Y-44671428D01*
X-48190477Y-44623809D01*
X-48285715Y-44576190D01*
X-48476191Y-44528571D01*
X-48571429Y-44480952D01*
X-48619048Y-44433333D01*
X-48666667Y-44338095D01*
X-48666667Y-44242857D01*
X-48619048Y-44147619D01*
X-48571429Y-44100000D01*
X-48476191Y-44052380D01*
X-48238096Y-44052380D01*
X-48095239Y-44100000D01*
X-47666667Y-44528571D02*
X-47333334Y-44528571D01*
X-47190477Y-45052380D02*
X-47666667Y-45052380D01*
X-47666667Y-44052380D01*
X-47190477Y-44052380D01*
X-46904762Y-44052380D02*
X-46333334Y-44052380D01*
X-46619048Y-45052380D02*
X-46619048Y-44052380D01*
D12*
X-33885715Y-35545000D02*
X-33842858Y-35416428D01*
X-33842858Y-35202143D01*
X-33885715Y-35116428D01*
X-33928572Y-35073571D01*
X-34014286Y-35030714D01*
X-34100000Y-35030714D01*
X-34185715Y-35073571D01*
X-34228572Y-35116428D01*
X-34271429Y-35202143D01*
X-34314286Y-35373571D01*
X-34357143Y-35459285D01*
X-34400000Y-35502143D01*
X-34485715Y-35545000D01*
X-34571429Y-35545000D01*
X-34657143Y-35502143D01*
X-34700000Y-35459285D01*
X-34742858Y-35373571D01*
X-34742858Y-35159285D01*
X-34700000Y-35030714D01*
X-34742858Y-34730714D02*
X-33842858Y-34516428D01*
X-34485715Y-34345000D01*
X-33842858Y-34173571D01*
X-34742858Y-33959285D01*
X-33928572Y-33102143D02*
X-33885715Y-33145000D01*
X-33842858Y-33273571D01*
X-33842858Y-33359285D01*
X-33885715Y-33487857D01*
X-33971429Y-33573571D01*
X-34057143Y-33616428D01*
X-34228572Y-33659285D01*
X-34357143Y-33659285D01*
X-34528572Y-33616428D01*
X-34614286Y-33573571D01*
X-34700000Y-33487857D01*
X-34742858Y-33359285D01*
X-34742858Y-33273571D01*
X-34700000Y-33145000D01*
X-34657143Y-33102143D01*
X-33842858Y-32287857D02*
X-33842858Y-32716428D01*
X-34742858Y-32716428D01*
X-33842858Y-31987857D02*
X-34742858Y-31987857D01*
X-33842858Y-31473571D02*
X-34357143Y-31859285D01*
X-34742858Y-31473571D02*
X-34228572Y-31987857D01*
X-35135715Y-35545000D02*
X-35092858Y-35416428D01*
X-35092858Y-35202143D01*
X-35135715Y-35116428D01*
X-35178572Y-35073571D01*
X-35264286Y-35030714D01*
X-35350000Y-35030714D01*
X-35435715Y-35073571D01*
X-35478572Y-35116428D01*
X-35521429Y-35202143D01*
X-35564286Y-35373571D01*
X-35607143Y-35459285D01*
X-35650000Y-35502143D01*
X-35735715Y-35545000D01*
X-35821429Y-35545000D01*
X-35907143Y-35502143D01*
X-35950000Y-35459285D01*
X-35992858Y-35373571D01*
X-35992858Y-35159285D01*
X-35950000Y-35030714D01*
X-35992858Y-34730714D02*
X-35092858Y-34516428D01*
X-35735715Y-34345000D01*
X-35092858Y-34173571D01*
X-35992858Y-33959285D01*
X-35092858Y-33616428D02*
X-35992858Y-33616428D01*
X-35992858Y-33402143D01*
X-35950000Y-33273571D01*
X-35864286Y-33187857D01*
X-35778572Y-33145000D01*
X-35607143Y-33102143D01*
X-35478572Y-33102143D01*
X-35307143Y-33145000D01*
X-35221429Y-33187857D01*
X-35135715Y-33273571D01*
X-35092858Y-33402143D01*
X-35092858Y-33616428D01*
X-35092858Y-32716428D02*
X-35992858Y-32716428D01*
X-35992858Y-32116428D02*
X-35992858Y-31945000D01*
X-35950000Y-31859285D01*
X-35864286Y-31773571D01*
X-35692858Y-31730714D01*
X-35392858Y-31730714D01*
X-35221429Y-31773571D01*
X-35135715Y-31859285D01*
X-35092858Y-31945000D01*
X-35092858Y-32116428D01*
X-35135715Y-32202143D01*
X-35221429Y-32287857D01*
X-35392858Y-32330714D01*
X-35692858Y-32330714D01*
X-35864286Y-32287857D01*
X-35950000Y-32202143D01*
X-35992858Y-32116428D01*
D10*
X-25738096Y-44678571D02*
X-25404762Y-44678571D01*
X-25261905Y-45202380D02*
X-25738096Y-45202380D01*
X-25738096Y-44202380D01*
X-25261905Y-44202380D01*
X-24261905Y-45202380D02*
X-24595239Y-44726190D01*
X-24833334Y-45202380D02*
X-24833334Y-44202380D01*
X-24452381Y-44202380D01*
X-24357143Y-44250000D01*
X-24309524Y-44297619D01*
X-24261905Y-44392857D01*
X-24261905Y-44535714D01*
X-24309524Y-44630952D01*
X-24357143Y-44678571D01*
X-24452381Y-44726190D01*
X-24833334Y-44726190D01*
X-23261905Y-45202380D02*
X-23595239Y-44726190D01*
X-23833334Y-45202380D02*
X-23833334Y-44202380D01*
X-23452381Y-44202380D01*
X-23357143Y-44250000D01*
X-23309524Y-44297619D01*
X-23261905Y-44392857D01*
X-23261905Y-44535714D01*
X-23309524Y-44630952D01*
X-23357143Y-44678571D01*
X-23452381Y-44726190D01*
X-23833334Y-44726190D01*
X-22642858Y-44202380D02*
X-22452381Y-44202380D01*
X-22357143Y-44250000D01*
X-22261905Y-44345238D01*
X-22214286Y-44535714D01*
X-22214286Y-44869047D01*
X-22261905Y-45059523D01*
X-22357143Y-45154761D01*
X-22452381Y-45202380D01*
X-22642858Y-45202380D01*
X-22738096Y-45154761D01*
X-22833334Y-45059523D01*
X-22880953Y-44869047D01*
X-22880953Y-44535714D01*
X-22833334Y-44345238D01*
X-22738096Y-44250000D01*
X-22642858Y-44202380D01*
X-21214286Y-45202380D02*
X-21547620Y-44726190D01*
X-21785715Y-45202380D02*
X-21785715Y-44202380D01*
X-21404762Y-44202380D01*
X-21309524Y-44250000D01*
X-21261905Y-44297619D01*
X-21214286Y-44392857D01*
X-21214286Y-44535714D01*
X-21261905Y-44630952D01*
X-21309524Y-44678571D01*
X-21404762Y-44726190D01*
X-21785715Y-44726190D01*
X-29523810Y-45154761D02*
X-29380953Y-45202380D01*
X-29142858Y-45202380D01*
X-29047620Y-45154761D01*
X-29000000Y-45107142D01*
X-28952381Y-45011904D01*
X-28952381Y-44916666D01*
X-29000000Y-44821428D01*
X-29047620Y-44773809D01*
X-29142858Y-44726190D01*
X-29333334Y-44678571D01*
X-29428572Y-44630952D01*
X-29476191Y-44583333D01*
X-29523810Y-44488095D01*
X-29523810Y-44392857D01*
X-29476191Y-44297619D01*
X-29428572Y-44250000D01*
X-29333334Y-44202380D01*
X-29095239Y-44202380D01*
X-28952381Y-44250000D01*
X-28523810Y-45202380D02*
X-28523810Y-44202380D01*
X-28142858Y-44202380D01*
X-28047620Y-44250000D01*
X-28000000Y-44297619D01*
X-27952381Y-44392857D01*
X-27952381Y-44535714D01*
X-28000000Y-44630952D01*
X-28047620Y-44678571D01*
X-28142858Y-44726190D01*
X-28523810Y-44726190D01*
X-27523810Y-45202380D02*
X-27523810Y-44202380D01*
X-34142858Y-45107142D02*
X-34190477Y-45154761D01*
X-34333334Y-45202380D01*
X-34428572Y-45202380D01*
X-34571429Y-45154761D01*
X-34666667Y-45059523D01*
X-34714286Y-44964285D01*
X-34761905Y-44773809D01*
X-34761905Y-44630952D01*
X-34714286Y-44440476D01*
X-34666667Y-44345238D01*
X-34571429Y-44250000D01*
X-34428572Y-44202380D01*
X-34333334Y-44202380D01*
X-34190477Y-44250000D01*
X-34142858Y-44297619D01*
X-33761905Y-44916666D02*
X-33285715Y-44916666D01*
X-33857143Y-45202380D02*
X-33523810Y-44202380D01*
X-33190477Y-45202380D01*
X-32857143Y-45202380D02*
X-32857143Y-44202380D01*
X-32285715Y-45202380D01*
X-32285715Y-44202380D01*
X-39833334Y-44202380D02*
X-39595239Y-45202380D01*
X-39404762Y-44488095D01*
X-39214286Y-45202380D01*
X-38976191Y-44202380D01*
X-38595239Y-45202380D02*
X-38595239Y-44202380D01*
X-37785715Y-44678571D02*
X-38119048Y-44678571D01*
X-38119048Y-45202380D02*
X-38119048Y-44202380D01*
X-37642858Y-44202380D01*
X-37261905Y-45202380D02*
X-37261905Y-44202380D01*
X-20071429Y-43107142D02*
X-20023810Y-42964285D01*
X-19976191Y-42916666D01*
X-19880953Y-42869047D01*
X-19738096Y-42869047D01*
X-19642858Y-42916666D01*
X-19595239Y-42964285D01*
X-19547620Y-43059523D01*
X-19547620Y-43440476D01*
X-20547620Y-43440476D01*
X-20547620Y-43107142D01*
X-20500000Y-43011904D01*
X-20452381Y-42964285D01*
X-20357143Y-42916666D01*
X-20261905Y-42916666D01*
X-20166667Y-42964285D01*
X-20119048Y-43011904D01*
X-20071429Y-43107142D01*
X-20071429Y-43440476D01*
X-20547620Y-42250000D02*
X-20547620Y-42059523D01*
X-20500000Y-41964285D01*
X-20404762Y-41869047D01*
X-20214286Y-41821428D01*
X-19880953Y-41821428D01*
X-19690477Y-41869047D01*
X-19595239Y-41964285D01*
X-19547620Y-42059523D01*
X-19547620Y-42250000D01*
X-19595239Y-42345238D01*
X-19690477Y-42440476D01*
X-19880953Y-42488095D01*
X-20214286Y-42488095D01*
X-20404762Y-42440476D01*
X-20500000Y-42345238D01*
X-20547620Y-42250000D01*
X-20547620Y-41202380D02*
X-20547620Y-41011904D01*
X-20500000Y-40916666D01*
X-20404762Y-40821428D01*
X-20214286Y-40773809D01*
X-19880953Y-40773809D01*
X-19690477Y-40821428D01*
X-19595239Y-40916666D01*
X-19547620Y-41011904D01*
X-19547620Y-41202380D01*
X-19595239Y-41297619D01*
X-19690477Y-41392857D01*
X-19880953Y-41440476D01*
X-20214286Y-41440476D01*
X-20404762Y-41392857D01*
X-20500000Y-41297619D01*
X-20547620Y-41202380D01*
X-20547620Y-40488095D02*
X-20547620Y-39916666D01*
X-19547620Y-40202380D02*
X-20547620Y-40202380D01*
D13*
%TO.C,C17*%
X-5490000Y-12434420D02*
X-5490000Y-12715580D01*
X-6510000Y-12434420D02*
X-6510000Y-12715580D01*
%TO.C,C16*%
X-7490000Y-12434420D02*
X-7490000Y-12715580D01*
X-8510000Y-12434420D02*
X-8510000Y-12715580D01*
%TO.C,U5*%
X-10190000Y-14250000D02*
X-10190000Y-11325000D01*
X-10190000Y-14250000D02*
X-10190000Y-15750000D01*
X-13410000Y-14250000D02*
X-13410000Y-12750000D01*
X-13410000Y-14250000D02*
X-13410000Y-15750000D01*
%TO.C,R28*%
X-11687258Y-20222500D02*
X-11212742Y-20222500D01*
X-11687258Y-19177500D02*
X-11212742Y-19177500D01*
%TO.C,R20*%
X-15322500Y-12312742D02*
X-15322500Y-12787258D01*
X-14277500Y-12312742D02*
X-14277500Y-12787258D01*
%TO.C,R19*%
X-17322500Y-15712742D02*
X-17322500Y-16187258D01*
X-16277500Y-15712742D02*
X-16277500Y-16187258D01*
%TO.C,R18*%
X-15322500Y-15712742D02*
X-15322500Y-16187258D01*
X-14277500Y-15712742D02*
X-14277500Y-16187258D01*
%TO.C,C19*%
X-7390580Y-17010000D02*
X-7109420Y-17010000D01*
X-7390580Y-15990000D02*
X-7109420Y-15990000D01*
%TO.C,R27*%
X-62437258Y-18527500D02*
X-61962742Y-18527500D01*
X-62437258Y-19572500D02*
X-61962742Y-19572500D01*
D14*
%TO.C,U4*%
X-47629000Y-22064000D02*
X-48391000Y-22064000D01*
X-47629000Y-38066000D02*
X-47629000Y-22064000D01*
X-48391000Y-38066000D02*
X-47629000Y-38066000D01*
D15*
%TO.C,G\u002A\u002A\u002A*%
G36*
X-6431463Y-6765170D02*
G01*
X-6398783Y-6714430D01*
X-6349314Y-6658603D01*
X-6287134Y-6602245D01*
X-6216319Y-6549913D01*
X-6210305Y-6545973D01*
X-6092453Y-6481319D01*
X-5967161Y-6436921D01*
X-5828164Y-6410943D01*
X-5721724Y-6402827D01*
X-5579325Y-6404266D01*
X-5439701Y-6420945D01*
X-5297742Y-6454170D01*
X-5148337Y-6505247D01*
X-4986375Y-6575479D01*
X-4920508Y-6607445D01*
X-4770768Y-6686674D01*
X-4635030Y-6769350D01*
X-4506159Y-6860562D01*
X-4377017Y-6965398D01*
X-4240468Y-7088947D01*
X-4226130Y-7102528D01*
X-4150895Y-7170957D01*
X-4081514Y-7226019D01*
X-4008493Y-7274316D01*
X-3922340Y-7322448D01*
X-3874779Y-7346805D01*
X-3819792Y-7375858D01*
X-3773864Y-7402790D01*
X-3743720Y-7423533D01*
X-3736612Y-7430389D01*
X-3723954Y-7439751D01*
X-3698685Y-7447225D01*
X-3656843Y-7453385D01*
X-3594461Y-7458806D01*
X-3507575Y-7464060D01*
X-3501723Y-7464370D01*
X-3417929Y-7470404D01*
X-3314493Y-7480351D01*
X-3200057Y-7493236D01*
X-3083260Y-7508080D01*
X-2972742Y-7523907D01*
X-2965427Y-7525032D01*
X-2863828Y-7540579D01*
X-2763108Y-7555704D01*
X-2669730Y-7569457D01*
X-2590158Y-7580888D01*
X-2530857Y-7589048D01*
X-2519945Y-7590468D01*
X-2419384Y-7606383D01*
X-2307291Y-7629269D01*
X-2190562Y-7657267D01*
X-2076091Y-7688519D01*
X-1970776Y-7721164D01*
X-1881511Y-7753345D01*
X-1826418Y-7777441D01*
X-1757704Y-7814351D01*
X-1706535Y-7850219D01*
X-1663043Y-7892510D01*
X-1642598Y-7916546D01*
X-1606669Y-7962547D01*
X-1575984Y-8005179D01*
X-1557354Y-8034922D01*
X-1537519Y-8087994D01*
X-1528186Y-8144208D01*
X-1531060Y-8191283D01*
X-1534257Y-8201088D01*
X-1552885Y-8228139D01*
X-1588929Y-8267511D01*
X-1636927Y-8314190D01*
X-1691418Y-8363165D01*
X-1746944Y-8409421D01*
X-1798042Y-8447947D01*
X-1817189Y-8460822D01*
X-1856221Y-8483569D01*
X-1915037Y-8515053D01*
X-1987341Y-8552032D01*
X-2066834Y-8591264D01*
X-2119869Y-8616669D01*
X-2291524Y-8691995D01*
X-2451212Y-8748992D01*
X-2606937Y-8789945D01*
X-2766703Y-8817139D01*
X-2855678Y-8826749D01*
X-2932293Y-8831601D01*
X-3025301Y-8834428D01*
X-3128064Y-8835330D01*
X-3233948Y-8834410D01*
X-3336315Y-8831770D01*
X-3403790Y-8828653D01*
X-3403790Y-8563624D01*
X-3283750Y-8563593D01*
X-3178559Y-8561998D01*
X-3070352Y-8559646D01*
X-2985354Y-8557058D01*
X-2918078Y-8553681D01*
X-2863034Y-8548962D01*
X-2814734Y-8542346D01*
X-2767689Y-8533281D01*
X-2716411Y-8521214D01*
X-2678579Y-8511593D01*
X-2591803Y-8485186D01*
X-2487782Y-8447187D01*
X-2373846Y-8400829D01*
X-2257325Y-8349342D01*
X-2145550Y-8295960D01*
X-2045851Y-8243914D01*
X-1969460Y-8198946D01*
X-1917535Y-8163015D01*
X-1867201Y-8123543D01*
X-1823251Y-8084899D01*
X-1790477Y-8051454D01*
X-1773674Y-8027580D01*
X-1773104Y-8019888D01*
X-1789538Y-8010353D01*
X-1826705Y-7995693D01*
X-1877701Y-7978535D01*
X-1898489Y-7972142D01*
X-2033868Y-7934250D01*
X-2170966Y-7901783D01*
X-2318356Y-7872918D01*
X-2484611Y-7845833D01*
X-2511161Y-7841891D01*
X-2614845Y-7826681D01*
X-2733911Y-7809243D01*
X-2855341Y-7791482D01*
X-2966116Y-7775303D01*
X-2992006Y-7771527D01*
X-3137741Y-7752551D01*
X-3292253Y-7737059D01*
X-3458961Y-7724874D01*
X-3641288Y-7715817D01*
X-3842654Y-7709712D01*
X-4066481Y-7706381D01*
X-4262277Y-7705593D01*
X-4742357Y-7705593D01*
X-4663622Y-7758585D01*
X-4625564Y-7787638D01*
X-4571568Y-7833589D01*
X-4505634Y-7892693D01*
X-4431760Y-7961204D01*
X-4353947Y-8035375D01*
X-4276194Y-8111461D01*
X-4202500Y-8185714D01*
X-4155780Y-8234271D01*
X-4113751Y-8275722D01*
X-4057381Y-8327355D01*
X-3994966Y-8381716D01*
X-3950163Y-8418995D01*
X-3817154Y-8527076D01*
X-3662885Y-8547818D01*
X-3588474Y-8555880D01*
X-3503737Y-8561101D01*
X-3403790Y-8563624D01*
X-3403790Y-8828653D01*
X-3428528Y-8827510D01*
X-3503953Y-8821732D01*
X-3547312Y-8816160D01*
X-3600358Y-8807059D01*
X-3537405Y-8955902D01*
X-3506175Y-9033824D01*
X-3474658Y-9119294D01*
X-3447674Y-9198970D01*
X-3436971Y-9233898D01*
X-3420294Y-9297507D01*
X-3403690Y-9371436D01*
X-3388286Y-9449242D01*
X-3375206Y-9524485D01*
X-3365575Y-9590723D01*
X-3360519Y-9641513D01*
X-3360917Y-9669281D01*
X-3369981Y-9670063D01*
X-3390010Y-9651343D01*
X-3417353Y-9618315D01*
X-3448354Y-9576173D01*
X-3479361Y-9530114D01*
X-3506719Y-9485331D01*
X-3526776Y-9447019D01*
X-3535853Y-9420555D01*
X-3559019Y-9264282D01*
X-3584418Y-9127785D01*
X-3611570Y-9012876D01*
X-3639989Y-8921368D01*
X-3669195Y-8855074D01*
X-3696447Y-8817813D01*
X-3717077Y-8803225D01*
X-3747647Y-8790609D01*
X-3793042Y-8778627D01*
X-3858142Y-8765944D01*
X-3928451Y-8754273D01*
X-4068277Y-8728738D01*
X-4068277Y-8481947D01*
X-4273623Y-8279476D01*
X-4380346Y-8177296D01*
X-4475520Y-8093578D01*
X-4565031Y-8023991D01*
X-4654765Y-7964199D01*
X-4750608Y-7909870D01*
X-4828842Y-7870674D01*
X-4906552Y-7837390D01*
X-5004274Y-7801580D01*
X-5113781Y-7765842D01*
X-5226845Y-7732775D01*
X-5335241Y-7704980D01*
X-5394699Y-7691897D01*
X-5455848Y-7676242D01*
X-5492460Y-7657922D01*
X-5508699Y-7634355D01*
X-5510480Y-7620114D01*
X-5518350Y-7596504D01*
X-5538979Y-7558229D01*
X-5567881Y-7513606D01*
X-5596591Y-7470506D01*
X-5617176Y-7435565D01*
X-5625278Y-7416196D01*
X-5625283Y-7415983D01*
X-5611587Y-7411515D01*
X-5573007Y-7408759D01*
X-5513303Y-7407627D01*
X-5436233Y-7408031D01*
X-5345557Y-7409882D01*
X-5245036Y-7413093D01*
X-5138428Y-7417576D01*
X-5029494Y-7423242D01*
X-4921993Y-7430004D01*
X-4871893Y-7433621D01*
X-4812516Y-7437169D01*
X-4737519Y-7440212D01*
X-4651165Y-7442724D01*
X-4557720Y-7444674D01*
X-4461448Y-7446037D01*
X-4366613Y-7446782D01*
X-4277479Y-7446883D01*
X-4198312Y-7446310D01*
X-4133374Y-7445036D01*
X-4086932Y-7443032D01*
X-4063249Y-7440271D01*
X-4061102Y-7438980D01*
X-4070542Y-7425289D01*
X-4095030Y-7398243D01*
X-4122090Y-7370816D01*
X-4217284Y-7281843D01*
X-4322376Y-7191076D01*
X-4426779Y-7107442D01*
X-4491142Y-7059789D01*
X-4582455Y-7000426D01*
X-4692905Y-6937233D01*
X-4814077Y-6874412D01*
X-4937551Y-6816162D01*
X-5054912Y-6766681D01*
X-5141375Y-6735371D01*
X-5211165Y-6713388D01*
X-5268214Y-6698143D01*
X-5321705Y-6688121D01*
X-5380820Y-6681804D01*
X-5454741Y-6677678D01*
X-5501399Y-6675917D01*
X-5616127Y-6674425D01*
X-5710884Y-6679784D01*
X-5793898Y-6693501D01*
X-5873397Y-6717082D01*
X-5957609Y-6752033D01*
X-5983398Y-6764180D01*
X-6046144Y-6799950D01*
X-6110811Y-6846205D01*
X-6170940Y-6897338D01*
X-6220071Y-6947745D01*
X-6251747Y-6991820D01*
X-6255997Y-7000744D01*
X-6261499Y-7021412D01*
X-6261414Y-7047094D01*
X-6254661Y-7080783D01*
X-6240158Y-7125471D01*
X-6216824Y-7184151D01*
X-6183578Y-7259815D01*
X-6139339Y-7355455D01*
X-6090928Y-7457530D01*
X-6045157Y-7550838D01*
X-6006729Y-7622794D01*
X-5972421Y-7678734D01*
X-5939012Y-7723989D01*
X-5910303Y-7756576D01*
X-5809350Y-7848013D01*
X-5681741Y-7937694D01*
X-5529510Y-8024468D01*
X-5354696Y-8107186D01*
X-5159336Y-8184696D01*
X-5139792Y-8191743D01*
X-5029033Y-8229826D01*
X-4906081Y-8269485D01*
X-4775942Y-8309324D01*
X-4643620Y-8347945D01*
X-4514123Y-8383952D01*
X-4392455Y-8415947D01*
X-4283623Y-8442533D01*
X-4192632Y-8462314D01*
X-4132853Y-8472762D01*
X-4068277Y-8481947D01*
X-4068277Y-8728738D01*
X-4082291Y-8726178D01*
X-4251063Y-8688897D01*
X-4429195Y-8644109D01*
X-4611119Y-8593492D01*
X-4791262Y-8538723D01*
X-4964056Y-8481481D01*
X-5123930Y-8423443D01*
X-5265313Y-8366287D01*
X-5359802Y-8323091D01*
X-5506366Y-8246458D01*
X-5629373Y-8170221D01*
X-5733606Y-8090236D01*
X-5823847Y-8002358D01*
X-5904878Y-7902444D01*
X-5981482Y-7786347D01*
X-5984040Y-7782109D01*
X-6039275Y-7687237D01*
X-6096829Y-7582814D01*
X-6155026Y-7472398D01*
X-6212191Y-7359548D01*
X-6266649Y-7247824D01*
X-6316725Y-7140785D01*
X-6360743Y-7041990D01*
X-6397030Y-6955000D01*
X-6423909Y-6883373D01*
X-6439706Y-6830668D01*
X-6443277Y-6806270D01*
X-6431463Y-6765170D01*
G37*
X-6431463Y-6765170D02*
X-6398783Y-6714430D01*
X-6349314Y-6658603D01*
X-6287134Y-6602245D01*
X-6216319Y-6549913D01*
X-6210305Y-6545973D01*
X-6092453Y-6481319D01*
X-5967161Y-6436921D01*
X-5828164Y-6410943D01*
X-5721724Y-6402827D01*
X-5579325Y-6404266D01*
X-5439701Y-6420945D01*
X-5297742Y-6454170D01*
X-5148337Y-6505247D01*
X-4986375Y-6575479D01*
X-4920508Y-6607445D01*
X-4770768Y-6686674D01*
X-4635030Y-6769350D01*
X-4506159Y-6860562D01*
X-4377017Y-6965398D01*
X-4240468Y-7088947D01*
X-4226130Y-7102528D01*
X-4150895Y-7170957D01*
X-4081514Y-7226019D01*
X-4008493Y-7274316D01*
X-3922340Y-7322448D01*
X-3874779Y-7346805D01*
X-3819792Y-7375858D01*
X-3773864Y-7402790D01*
X-3743720Y-7423533D01*
X-3736612Y-7430389D01*
X-3723954Y-7439751D01*
X-3698685Y-7447225D01*
X-3656843Y-7453385D01*
X-3594461Y-7458806D01*
X-3507575Y-7464060D01*
X-3501723Y-7464370D01*
X-3417929Y-7470404D01*
X-3314493Y-7480351D01*
X-3200057Y-7493236D01*
X-3083260Y-7508080D01*
X-2972742Y-7523907D01*
X-2965427Y-7525032D01*
X-2863828Y-7540579D01*
X-2763108Y-7555704D01*
X-2669730Y-7569457D01*
X-2590158Y-7580888D01*
X-2530857Y-7589048D01*
X-2519945Y-7590468D01*
X-2419384Y-7606383D01*
X-2307291Y-7629269D01*
X-2190562Y-7657267D01*
X-2076091Y-7688519D01*
X-1970776Y-7721164D01*
X-1881511Y-7753345D01*
X-1826418Y-7777441D01*
X-1757704Y-7814351D01*
X-1706535Y-7850219D01*
X-1663043Y-7892510D01*
X-1642598Y-7916546D01*
X-1606669Y-7962547D01*
X-1575984Y-8005179D01*
X-1557354Y-8034922D01*
X-1537519Y-8087994D01*
X-1528186Y-8144208D01*
X-1531060Y-8191283D01*
X-1534257Y-8201088D01*
X-1552885Y-8228139D01*
X-1588929Y-8267511D01*
X-1636927Y-8314190D01*
X-1691418Y-8363165D01*
X-1746944Y-8409421D01*
X-1798042Y-8447947D01*
X-1817189Y-8460822D01*
X-1856221Y-8483569D01*
X-1915037Y-8515053D01*
X-1987341Y-8552032D01*
X-2066834Y-8591264D01*
X-2119869Y-8616669D01*
X-2291524Y-8691995D01*
X-2451212Y-8748992D01*
X-2606937Y-8789945D01*
X-2766703Y-8817139D01*
X-2855678Y-8826749D01*
X-2932293Y-8831601D01*
X-3025301Y-8834428D01*
X-3128064Y-8835330D01*
X-3233948Y-8834410D01*
X-3336315Y-8831770D01*
X-3403790Y-8828653D01*
X-3403790Y-8563624D01*
X-3283750Y-8563593D01*
X-3178559Y-8561998D01*
X-3070352Y-8559646D01*
X-2985354Y-8557058D01*
X-2918078Y-8553681D01*
X-2863034Y-8548962D01*
X-2814734Y-8542346D01*
X-2767689Y-8533281D01*
X-2716411Y-8521214D01*
X-2678579Y-8511593D01*
X-2591803Y-8485186D01*
X-2487782Y-8447187D01*
X-2373846Y-8400829D01*
X-2257325Y-8349342D01*
X-2145550Y-8295960D01*
X-2045851Y-8243914D01*
X-1969460Y-8198946D01*
X-1917535Y-8163015D01*
X-1867201Y-8123543D01*
X-1823251Y-8084899D01*
X-1790477Y-8051454D01*
X-1773674Y-8027580D01*
X-1773104Y-8019888D01*
X-1789538Y-8010353D01*
X-1826705Y-7995693D01*
X-1877701Y-7978535D01*
X-1898489Y-7972142D01*
X-2033868Y-7934250D01*
X-2170966Y-7901783D01*
X-2318356Y-7872918D01*
X-2484611Y-7845833D01*
X-2511161Y-7841891D01*
X-2614845Y-7826681D01*
X-2733911Y-7809243D01*
X-2855341Y-7791482D01*
X-2966116Y-7775303D01*
X-2992006Y-7771527D01*
X-3137741Y-7752551D01*
X-3292253Y-7737059D01*
X-3458961Y-7724874D01*
X-3641288Y-7715817D01*
X-3842654Y-7709712D01*
X-4066481Y-7706381D01*
X-4262277Y-7705593D01*
X-4742357Y-7705593D01*
X-4663622Y-7758585D01*
X-4625564Y-7787638D01*
X-4571568Y-7833589D01*
X-4505634Y-7892693D01*
X-4431760Y-7961204D01*
X-4353947Y-8035375D01*
X-4276194Y-8111461D01*
X-4202500Y-8185714D01*
X-4155780Y-8234271D01*
X-4113751Y-8275722D01*
X-4057381Y-8327355D01*
X-3994966Y-8381716D01*
X-3950163Y-8418995D01*
X-3817154Y-8527076D01*
X-3662885Y-8547818D01*
X-3588474Y-8555880D01*
X-3503737Y-8561101D01*
X-3403790Y-8563624D01*
X-3403790Y-8828653D01*
X-3428528Y-8827510D01*
X-3503953Y-8821732D01*
X-3547312Y-8816160D01*
X-3600358Y-8807059D01*
X-3537405Y-8955902D01*
X-3506175Y-9033824D01*
X-3474658Y-9119294D01*
X-3447674Y-9198970D01*
X-3436971Y-9233898D01*
X-3420294Y-9297507D01*
X-3403690Y-9371436D01*
X-3388286Y-9449242D01*
X-3375206Y-9524485D01*
X-3365575Y-9590723D01*
X-3360519Y-9641513D01*
X-3360917Y-9669281D01*
X-3369981Y-9670063D01*
X-3390010Y-9651343D01*
X-3417353Y-9618315D01*
X-3448354Y-9576173D01*
X-3479361Y-9530114D01*
X-3506719Y-9485331D01*
X-3526776Y-9447019D01*
X-3535853Y-9420555D01*
X-3559019Y-9264282D01*
X-3584418Y-9127785D01*
X-3611570Y-9012876D01*
X-3639989Y-8921368D01*
X-3669195Y-8855074D01*
X-3696447Y-8817813D01*
X-3717077Y-8803225D01*
X-3747647Y-8790609D01*
X-3793042Y-8778627D01*
X-3858142Y-8765944D01*
X-3928451Y-8754273D01*
X-4068277Y-8728738D01*
X-4068277Y-8481947D01*
X-4273623Y-8279476D01*
X-4380346Y-8177296D01*
X-4475520Y-8093578D01*
X-4565031Y-8023991D01*
X-4654765Y-7964199D01*
X-4750608Y-7909870D01*
X-4828842Y-7870674D01*
X-4906552Y-7837390D01*
X-5004274Y-7801580D01*
X-5113781Y-7765842D01*
X-5226845Y-7732775D01*
X-5335241Y-7704980D01*
X-5394699Y-7691897D01*
X-5455848Y-7676242D01*
X-5492460Y-7657922D01*
X-5508699Y-7634355D01*
X-5510480Y-7620114D01*
X-5518350Y-7596504D01*
X-5538979Y-7558229D01*
X-5567881Y-7513606D01*
X-5596591Y-7470506D01*
X-5617176Y-7435565D01*
X-5625278Y-7416196D01*
X-5625283Y-7415983D01*
X-5611587Y-7411515D01*
X-5573007Y-7408759D01*
X-5513303Y-7407627D01*
X-5436233Y-7408031D01*
X-5345557Y-7409882D01*
X-5245036Y-7413093D01*
X-5138428Y-7417576D01*
X-5029494Y-7423242D01*
X-4921993Y-7430004D01*
X-4871893Y-7433621D01*
X-4812516Y-7437169D01*
X-4737519Y-7440212D01*
X-4651165Y-7442724D01*
X-4557720Y-7444674D01*
X-4461448Y-7446037D01*
X-4366613Y-7446782D01*
X-4277479Y-7446883D01*
X-4198312Y-7446310D01*
X-4133374Y-7445036D01*
X-4086932Y-7443032D01*
X-4063249Y-7440271D01*
X-4061102Y-7438980D01*
X-4070542Y-7425289D01*
X-4095030Y-7398243D01*
X-4122090Y-7370816D01*
X-4217284Y-7281843D01*
X-4322376Y-7191076D01*
X-4426779Y-7107442D01*
X-4491142Y-7059789D01*
X-4582455Y-7000426D01*
X-4692905Y-6937233D01*
X-4814077Y-6874412D01*
X-4937551Y-6816162D01*
X-5054912Y-6766681D01*
X-5141375Y-6735371D01*
X-5211165Y-6713388D01*
X-5268214Y-6698143D01*
X-5321705Y-6688121D01*
X-5380820Y-6681804D01*
X-5454741Y-6677678D01*
X-5501399Y-6675917D01*
X-5616127Y-6674425D01*
X-5710884Y-6679784D01*
X-5793898Y-6693501D01*
X-5873397Y-6717082D01*
X-5957609Y-6752033D01*
X-5983398Y-6764180D01*
X-6046144Y-6799950D01*
X-6110811Y-6846205D01*
X-6170940Y-6897338D01*
X-6220071Y-6947745D01*
X-6251747Y-6991820D01*
X-6255997Y-7000744D01*
X-6261499Y-7021412D01*
X-6261414Y-7047094D01*
X-6254661Y-7080783D01*
X-6240158Y-7125471D01*
X-6216824Y-7184151D01*
X-6183578Y-7259815D01*
X-6139339Y-7355455D01*
X-6090928Y-7457530D01*
X-6045157Y-7550838D01*
X-6006729Y-7622794D01*
X-5972421Y-7678734D01*
X-5939012Y-7723989D01*
X-5910303Y-7756576D01*
X-5809350Y-7848013D01*
X-5681741Y-7937694D01*
X-5529510Y-8024468D01*
X-5354696Y-8107186D01*
X-5159336Y-8184696D01*
X-5139792Y-8191743D01*
X-5029033Y-8229826D01*
X-4906081Y-8269485D01*
X-4775942Y-8309324D01*
X-4643620Y-8347945D01*
X-4514123Y-8383952D01*
X-4392455Y-8415947D01*
X-4283623Y-8442533D01*
X-4192632Y-8462314D01*
X-4132853Y-8472762D01*
X-4068277Y-8481947D01*
X-4068277Y-8728738D01*
X-4082291Y-8726178D01*
X-4251063Y-8688897D01*
X-4429195Y-8644109D01*
X-4611119Y-8593492D01*
X-4791262Y-8538723D01*
X-4964056Y-8481481D01*
X-5123930Y-8423443D01*
X-5265313Y-8366287D01*
X-5359802Y-8323091D01*
X-5506366Y-8246458D01*
X-5629373Y-8170221D01*
X-5733606Y-8090236D01*
X-5823847Y-8002358D01*
X-5904878Y-7902444D01*
X-5981482Y-7786347D01*
X-5984040Y-7782109D01*
X-6039275Y-7687237D01*
X-6096829Y-7582814D01*
X-6155026Y-7472398D01*
X-6212191Y-7359548D01*
X-6266649Y-7247824D01*
X-6316725Y-7140785D01*
X-6360743Y-7041990D01*
X-6397030Y-6955000D01*
X-6423909Y-6883373D01*
X-6439706Y-6830668D01*
X-6443277Y-6806270D01*
X-6431463Y-6765170D01*
D13*
%TO.C,R14*%
X-11237258Y-31727500D02*
X-10762742Y-31727500D01*
X-11237258Y-32772500D02*
X-10762742Y-32772500D01*
%TO.C,J4*%
X-35520000Y-38070000D02*
X-36155000Y-38070000D01*
X-36155000Y-38070000D02*
X-36155000Y-37435000D01*
%TO.C,U3*%
X-22360000Y-27890000D02*
X-22810000Y-27890000D01*
X-22810000Y-27890000D02*
X-22810000Y-28340000D01*
X-16040000Y-27890000D02*
X-15590000Y-27890000D01*
X-15590000Y-27890000D02*
X-15590000Y-28340000D01*
X-22360000Y-35110000D02*
X-22810000Y-35110000D01*
X-22810000Y-35110000D02*
X-22810000Y-34660000D01*
X-16040000Y-35110000D02*
X-15590000Y-35110000D01*
X-15590000Y-35110000D02*
X-15590000Y-34660000D01*
X-15590000Y-34660000D02*
X-14300000Y-34660000D01*
%TO.C,FB1*%
X-11162779Y-27240000D02*
X-10837221Y-27240000D01*
X-11162779Y-28260000D02*
X-10837221Y-28260000D01*
%TO.C,J5*%
X-50770000Y-19520000D02*
X-51405000Y-19520000D01*
X-51405000Y-19520000D02*
X-51405000Y-18885000D01*
%TO.C,Y1*%
X-4000000Y-32450000D02*
X-4000000Y-33250000D01*
X-6400000Y-32450000D02*
X-4400000Y-32450000D01*
X-6400000Y-33250000D02*
X-6400000Y-32450000D01*
X-6400000Y-36050000D02*
X-6400000Y-35050000D01*
X-4400000Y-36050000D02*
X-6400000Y-36050000D01*
X-4000000Y-35050000D02*
X-4000000Y-36050000D01*
X-4000000Y-35050000D02*
X-3600000Y-35050000D01*
X-6400000Y-36250000D02*
X-4400000Y-36250000D01*
X-4400000Y-32450000D02*
X-4000000Y-32450000D01*
X-4400000Y-36050000D02*
X-4000000Y-36050000D01*
X-4400000Y-36250000D02*
X-4000000Y-36250000D01*
%TO.C,U7*%
X-30840000Y-14325000D02*
X-30840000Y-12425000D01*
X-33160000Y-12925000D02*
X-33160000Y-14325000D01*
%TO.C,U6*%
X-25290000Y-19675000D02*
X-25290000Y-17725000D01*
X-25290000Y-19675000D02*
X-25290000Y-21625000D01*
X-30410000Y-19675000D02*
X-30410000Y-17725000D01*
X-30410000Y-19675000D02*
X-30410000Y-23125000D01*
%TO.C,U2*%
X-42300000Y-14060000D02*
X-40500000Y-14060000D01*
X-40500000Y-10840000D02*
X-42950000Y-10840000D01*
%TO.C,U1*%
X-57410000Y-11900000D02*
X-57410000Y-13700000D01*
X-54190000Y-13700000D02*
X-54190000Y-11250000D01*
%TO.C,TP1*%
X-23700000Y-38050000D02*
G75*
G03*
X-23700000Y-38050000I-700000J0D01*
G01*
%TO.C,SW2*%
X-37040000Y-25750000D02*
X-43160000Y-25750000D01*
X-43160000Y-25750000D02*
X-43160000Y-22050000D01*
X-43160000Y-22050000D02*
X-37040000Y-22050000D01*
X-37040000Y-22050000D02*
X-37040000Y-25750000D01*
%TO.C,SW1*%
X-45440000Y-43725000D02*
X-51560000Y-43725000D01*
X-51560000Y-43725000D02*
X-51560000Y-40025000D01*
X-51560000Y-40025000D02*
X-45440000Y-40025000D01*
X-45440000Y-40025000D02*
X-45440000Y-43725000D01*
%TO.C,R26*%
X-23452500Y-13287742D02*
X-23452500Y-13762258D01*
X-24497500Y-13287742D02*
X-24497500Y-13762258D01*
%TO.C,R25*%
X-23262742Y-41422500D02*
X-23737258Y-41422500D01*
X-23262742Y-40377500D02*
X-23737258Y-40377500D01*
%TO.C,R24*%
X-28262742Y-41422500D02*
X-28737258Y-41422500D01*
X-28262742Y-40377500D02*
X-28737258Y-40377500D01*
%TO.C,R23*%
X-33287742Y-41422500D02*
X-33762258Y-41422500D01*
X-33287742Y-40377500D02*
X-33762258Y-40377500D01*
%TO.C,R22*%
X-38737258Y-40377500D02*
X-38262742Y-40377500D01*
X-38737258Y-41422500D02*
X-38262742Y-41422500D01*
%TO.C,R21*%
X-22887258Y-17702500D02*
X-22412742Y-17702500D01*
X-22887258Y-18747500D02*
X-22412742Y-18747500D01*
%TO.C,R17*%
X-43737258Y-19077500D02*
X-43262742Y-19077500D01*
X-43737258Y-20122500D02*
X-43262742Y-20122500D01*
%TO.C,R16*%
X-11237258Y-37727500D02*
X-10762742Y-37727500D01*
X-11237258Y-38772500D02*
X-10762742Y-38772500D01*
%TO.C,R15*%
X-57772500Y-42087258D02*
X-57772500Y-41612742D01*
X-56727500Y-42087258D02*
X-56727500Y-41612742D01*
%TO.C,R13*%
X-11237258Y-33727500D02*
X-10762742Y-33727500D01*
X-11237258Y-34772500D02*
X-10762742Y-34772500D01*
%TO.C,R12*%
X-22287258Y-4277500D02*
X-21812742Y-4277500D01*
X-22287258Y-5322500D02*
X-21812742Y-5322500D01*
%TO.C,R11*%
X-22287258Y-7127500D02*
X-21812742Y-7127500D01*
X-22287258Y-8172500D02*
X-21812742Y-8172500D01*
%TO.C,R10*%
X-22287258Y-9952500D02*
X-21812742Y-9952500D01*
X-22287258Y-10997500D02*
X-21812742Y-10997500D01*
%TO.C,R9*%
X-39762742Y-20122500D02*
X-40237258Y-20122500D01*
X-39762742Y-19077500D02*
X-40237258Y-19077500D01*
%TO.C,R8*%
X-14777500Y-41562742D02*
X-14777500Y-42037258D01*
X-15822500Y-41562742D02*
X-15822500Y-42037258D01*
%TO.C,R7*%
X-51162742Y-4822500D02*
X-51637258Y-4822500D01*
X-51162742Y-3777500D02*
X-51637258Y-3777500D01*
%TO.C,R6*%
X-51162742Y-10322500D02*
X-51637258Y-10322500D01*
X-51162742Y-9277500D02*
X-51637258Y-9277500D01*
%TO.C,R5*%
X-60772500Y-42087258D02*
X-60772500Y-41612742D01*
X-59727500Y-42087258D02*
X-59727500Y-41612742D01*
%TO.C,R4*%
X-64722500Y-11937258D02*
X-64722500Y-11462742D01*
X-63677500Y-11937258D02*
X-63677500Y-11462742D01*
%TO.C,R3*%
X-61737258Y-10377500D02*
X-61262742Y-10377500D01*
X-61737258Y-11422500D02*
X-61262742Y-11422500D01*
%TO.C,R2*%
X-58377500Y-12562742D02*
X-58377500Y-13037258D01*
X-59422500Y-12562742D02*
X-59422500Y-13037258D01*
%TO.C,R1*%
X-67637258Y-15627500D02*
X-67162742Y-15627500D01*
X-67637258Y-16672500D02*
X-67162742Y-16672500D01*
%TO.C,Q1*%
X-65670000Y-8490000D02*
X-66600000Y-8490000D01*
X-68830000Y-8490000D02*
X-67900000Y-8490000D01*
X-68830000Y-8490000D02*
X-68830000Y-10650000D01*
X-65670000Y-8490000D02*
X-65670000Y-9950000D01*
%TO.C,L1*%
X-49850000Y-14550000D02*
X-49350000Y-14550000D01*
X-49850000Y-14550000D02*
X-49850000Y-14050000D01*
X-49850000Y-10150000D02*
X-49850000Y-10650000D01*
X-49850000Y-10150000D02*
X-49350000Y-10150000D01*
X-45950000Y-10150000D02*
X-46450000Y-10150000D01*
X-45950000Y-10150000D02*
X-45950000Y-10650000D01*
X-45950000Y-14550000D02*
X-46450000Y-14550000D01*
X-45950000Y-14550000D02*
X-45950000Y-14050000D01*
%TO.C,JP3*%
X-34150000Y-19575000D02*
X-33850000Y-19275000D01*
X-33850000Y-19875000D02*
X-33850000Y-19275000D01*
X-34150000Y-19575000D02*
X-33850000Y-19875000D01*
X-34350000Y-20325000D02*
X-36350000Y-20325000D01*
X-34350000Y-16225000D02*
X-34350000Y-20325000D01*
X-36350000Y-16225000D02*
X-34350000Y-16225000D01*
X-36350000Y-20325000D02*
X-36350000Y-16225000D01*
%TO.C,JP2*%
X-16670000Y-39180000D02*
X-19330000Y-39180000D01*
X-16670000Y-41780000D02*
X-16670000Y-39180000D01*
X-19330000Y-41780000D02*
X-19330000Y-39180000D01*
X-16670000Y-41780000D02*
X-19330000Y-41780000D01*
X-16670000Y-43050000D02*
X-16670000Y-44380000D01*
X-16670000Y-44380000D02*
X-18000000Y-44380000D01*
D10*
%TO.C,J7*%
X-26300000Y-1200000D02*
X-26300000Y-9400000D01*
X-41300000Y-1200000D02*
X-26300000Y-1200000D01*
X-41300000Y-9400000D02*
X-41300000Y-1200000D01*
X-26300000Y-9400000D02*
X-41300000Y-9400000D01*
X-26300000Y-1700000D02*
X-41300000Y-1700000D01*
X-31300000Y-1200000D02*
X-31300000Y-1700000D01*
X-36300000Y-1700000D02*
X-36300000Y-1200000D01*
%TO.C,J6*%
X-13800000Y-1200000D02*
X-13800000Y-1700000D01*
X-8800000Y-1700000D02*
X-18800000Y-1700000D01*
X-8800000Y-9400000D02*
X-18800000Y-9400000D01*
X-18800000Y-9400000D02*
X-18800000Y-1200000D01*
X-18800000Y-1200000D02*
X-8800000Y-1200000D01*
X-8800000Y-1200000D02*
X-8800000Y-9400000D01*
%TO.C,J1*%
X-58800000Y-1200000D02*
X-58800000Y-1700000D01*
X-53800000Y-1700000D02*
X-63800000Y-1700000D01*
X-53800000Y-9400000D02*
X-63800000Y-9400000D01*
X-63800000Y-9400000D02*
X-63800000Y-1200000D01*
X-63800000Y-1200000D02*
X-53800000Y-1200000D01*
X-53800000Y-1200000D02*
X-53800000Y-9400000D01*
D13*
%TO.C,D11*%
X-29380000Y-14485000D02*
X-28450000Y-14485000D01*
X-26220000Y-14485000D02*
X-27150000Y-14485000D01*
X-26220000Y-14485000D02*
X-26220000Y-12325000D01*
X-29380000Y-14485000D02*
X-29380000Y-13025000D01*
%TO.C,D10*%
X-37700000Y-42565000D02*
X-39985000Y-42565000D01*
X-39985000Y-42565000D02*
X-39985000Y-44035000D01*
X-39985000Y-44035000D02*
X-37700000Y-44035000D01*
%TO.C,D9*%
X-22700000Y-42565000D02*
X-24985000Y-42565000D01*
X-24985000Y-42565000D02*
X-24985000Y-44035000D01*
X-24985000Y-44035000D02*
X-22700000Y-44035000D01*
%TO.C,D8*%
X-27700000Y-42565000D02*
X-29985000Y-42565000D01*
X-29985000Y-42565000D02*
X-29985000Y-44035000D01*
X-29985000Y-44035000D02*
X-27700000Y-44035000D01*
%TO.C,D7*%
X-32700000Y-42565000D02*
X-34985000Y-42565000D01*
X-34985000Y-42565000D02*
X-34985000Y-44035000D01*
X-34985000Y-44035000D02*
X-32700000Y-44035000D01*
%TO.C,D6*%
X-53700000Y-16000000D02*
X-55700000Y-16000000D01*
X-55700000Y-16000000D02*
X-55700000Y-19900000D01*
X-53700000Y-16000000D02*
X-53700000Y-19900000D01*
%TO.C,D5*%
X-42950000Y-9500000D02*
X-42950000Y-6200000D01*
X-42950000Y-9500000D02*
X-47850000Y-9500000D01*
X-42950000Y-6200000D02*
X-47850000Y-6200000D01*
%TO.C,D4*%
X-68800000Y-18100000D02*
X-68800000Y-20100000D01*
X-68800000Y-20100000D02*
X-64900000Y-20100000D01*
X-68800000Y-18100000D02*
X-64900000Y-18100000D01*
%TO.C,D3*%
X-45300000Y-14900000D02*
X-45300000Y-18200000D01*
X-45300000Y-14900000D02*
X-40400000Y-14900000D01*
X-45300000Y-18200000D02*
X-40400000Y-18200000D01*
%TO.C,D2*%
X-60500000Y-12250000D02*
X-62500000Y-12250000D01*
X-62500000Y-12250000D02*
X-62500000Y-16150000D01*
X-60500000Y-12250000D02*
X-60500000Y-16150000D01*
D16*
%TO.C,D1*%
X-65350000Y-11650000D02*
X-67750000Y-11650000D01*
X-65350000Y-13850000D02*
X-65350000Y-11650000D01*
X-67750000Y-13850000D02*
X-65350000Y-13850000D01*
D13*
%TO.C,C18*%
X-34840000Y-13384420D02*
X-34840000Y-13665580D01*
X-35860000Y-13384420D02*
X-35860000Y-13665580D01*
%TO.C,C15*%
X-22509420Y-21435000D02*
X-22790580Y-21435000D01*
X-22509420Y-20415000D02*
X-22790580Y-20415000D01*
%TO.C,C14*%
X-37740000Y-12009420D02*
X-37740000Y-12290580D01*
X-38760000Y-12009420D02*
X-38760000Y-12290580D01*
%TO.C,C13*%
X-44761252Y-36315000D02*
X-44238748Y-36315000D01*
X-44761252Y-37785000D02*
X-44238748Y-37785000D01*
%TO.C,C12*%
X-11090580Y-39740000D02*
X-10809420Y-39740000D01*
X-11090580Y-40760000D02*
X-10809420Y-40760000D01*
%TO.C,C11*%
X-44665000Y-11609420D02*
X-44665000Y-11890580D01*
X-45685000Y-11609420D02*
X-45685000Y-11890580D01*
%TO.C,C10*%
X-11140580Y-29240000D02*
X-10859420Y-29240000D01*
X-11140580Y-30260000D02*
X-10859420Y-30260000D01*
%TO.C,C9*%
X-51259420Y-7560000D02*
X-51540580Y-7560000D01*
X-51259420Y-6540000D02*
X-51540580Y-6540000D01*
%TO.C,C8*%
X-14640580Y-37740000D02*
X-14359420Y-37740000D01*
X-14640580Y-38760000D02*
X-14359420Y-38760000D01*
%TO.C,C7*%
X-45961252Y-3815000D02*
X-45438748Y-3815000D01*
X-45961252Y-5285000D02*
X-45438748Y-5285000D01*
%TO.C,C6*%
X-26759420Y-34760000D02*
X-27040580Y-34760000D01*
X-26759420Y-33740000D02*
X-27040580Y-33740000D01*
%TO.C,C5*%
X-62740000Y-41709420D02*
X-62740000Y-41990580D01*
X-63760000Y-41709420D02*
X-63760000Y-41990580D01*
%TO.C,C4*%
X-22584420Y-25085000D02*
X-22865580Y-25085000D01*
X-22584420Y-24065000D02*
X-22865580Y-24065000D01*
%TO.C,C3*%
X-51660000Y-13190580D02*
X-51660000Y-12909420D01*
X-50640000Y-13190580D02*
X-50640000Y-12909420D01*
%TO.C,C2*%
X-11140580Y-35740000D02*
X-10859420Y-35740000D01*
X-11140580Y-36760000D02*
X-10859420Y-36760000D01*
%TO.C,C1*%
X-57838748Y-17335000D02*
X-58361252Y-17335000D01*
X-57838748Y-15865000D02*
X-58361252Y-15865000D01*
%TO.C,C17*%
D10*
X-5642858Y-10342857D02*
X-5595239Y-10390476D01*
X-5547620Y-10533333D01*
X-5547620Y-10628571D01*
X-5595239Y-10771428D01*
X-5690477Y-10866666D01*
X-5785715Y-10914285D01*
X-5976191Y-10961904D01*
X-6119048Y-10961904D01*
X-6309524Y-10914285D01*
X-6404762Y-10866666D01*
X-6500000Y-10771428D01*
X-6547620Y-10628571D01*
X-6547620Y-10533333D01*
X-6500000Y-10390476D01*
X-6452381Y-10342857D01*
X-5547620Y-9390476D02*
X-5547620Y-9961904D01*
X-5547620Y-9676190D02*
X-6547620Y-9676190D01*
X-6404762Y-9771428D01*
X-6309524Y-9866666D01*
X-6261905Y-9961904D01*
X-6547620Y-9057142D02*
X-6547620Y-8390476D01*
X-5547620Y-8819047D01*
%TO.C,C16*%
X-7642858Y-10342857D02*
X-7595239Y-10390476D01*
X-7547620Y-10533333D01*
X-7547620Y-10628571D01*
X-7595239Y-10771428D01*
X-7690477Y-10866666D01*
X-7785715Y-10914285D01*
X-7976191Y-10961904D01*
X-8119048Y-10961904D01*
X-8309524Y-10914285D01*
X-8404762Y-10866666D01*
X-8500000Y-10771428D01*
X-8547620Y-10628571D01*
X-8547620Y-10533333D01*
X-8500000Y-10390476D01*
X-8452381Y-10342857D01*
X-7547620Y-9390476D02*
X-7547620Y-9961904D01*
X-7547620Y-9676190D02*
X-8547620Y-9676190D01*
X-8404762Y-9771428D01*
X-8309524Y-9866666D01*
X-8261905Y-9961904D01*
X-8547620Y-8533333D02*
X-8547620Y-8723809D01*
X-8500000Y-8819047D01*
X-8452381Y-8866666D01*
X-8309524Y-8961904D01*
X-8119048Y-9009523D01*
X-7738096Y-9009523D01*
X-7642858Y-8961904D01*
X-7595239Y-8914285D01*
X-7547620Y-8819047D01*
X-7547620Y-8628571D01*
X-7595239Y-8533333D01*
X-7642858Y-8485714D01*
X-7738096Y-8438095D01*
X-7976191Y-8438095D01*
X-8071429Y-8485714D01*
X-8119048Y-8533333D01*
X-8166667Y-8628571D01*
X-8166667Y-8819047D01*
X-8119048Y-8914285D01*
X-8071429Y-8961904D01*
X-7976191Y-9009523D01*
%TO.C,U5*%
X-9897620Y-15011904D02*
X-9088096Y-15011904D01*
X-8992858Y-14964285D01*
X-8945239Y-14916666D01*
X-8897620Y-14821428D01*
X-8897620Y-14630952D01*
X-8945239Y-14535714D01*
X-8992858Y-14488095D01*
X-9088096Y-14440476D01*
X-9897620Y-14440476D01*
X-9897620Y-13488095D02*
X-9897620Y-13964285D01*
X-9421429Y-14011904D01*
X-9469048Y-13964285D01*
X-9516667Y-13869047D01*
X-9516667Y-13630952D01*
X-9469048Y-13535714D01*
X-9421429Y-13488095D01*
X-9326191Y-13440476D01*
X-9088096Y-13440476D01*
X-8992858Y-13488095D01*
X-8945239Y-13535714D01*
X-8897620Y-13630952D01*
X-8897620Y-13869047D01*
X-8945239Y-13964285D01*
X-8992858Y-14011904D01*
%TO.C,R28*%
X-12092858Y-18722380D02*
X-12426191Y-18246190D01*
X-12664286Y-18722380D02*
X-12664286Y-17722380D01*
X-12283334Y-17722380D01*
X-12188096Y-17770000D01*
X-12140477Y-17817619D01*
X-12092858Y-17912857D01*
X-12092858Y-18055714D01*
X-12140477Y-18150952D01*
X-12188096Y-18198571D01*
X-12283334Y-18246190D01*
X-12664286Y-18246190D01*
X-11711905Y-17817619D02*
X-11664286Y-17770000D01*
X-11569048Y-17722380D01*
X-11330953Y-17722380D01*
X-11235715Y-17770000D01*
X-11188096Y-17817619D01*
X-11140477Y-17912857D01*
X-11140477Y-18008095D01*
X-11188096Y-18150952D01*
X-11759524Y-18722380D01*
X-11140477Y-18722380D01*
X-10569048Y-18150952D02*
X-10664286Y-18103333D01*
X-10711905Y-18055714D01*
X-10759524Y-17960476D01*
X-10759524Y-17912857D01*
X-10711905Y-17817619D01*
X-10664286Y-17770000D01*
X-10569048Y-17722380D01*
X-10378572Y-17722380D01*
X-10283334Y-17770000D01*
X-10235715Y-17817619D01*
X-10188096Y-17912857D01*
X-10188096Y-17960476D01*
X-10235715Y-18055714D01*
X-10283334Y-18103333D01*
X-10378572Y-18150952D01*
X-10569048Y-18150952D01*
X-10664286Y-18198571D01*
X-10711905Y-18246190D01*
X-10759524Y-18341428D01*
X-10759524Y-18531904D01*
X-10711905Y-18627142D01*
X-10664286Y-18674761D01*
X-10569048Y-18722380D01*
X-10378572Y-18722380D01*
X-10283334Y-18674761D01*
X-10235715Y-18627142D01*
X-10188096Y-18531904D01*
X-10188096Y-18341428D01*
X-10235715Y-18246190D01*
X-10283334Y-18198571D01*
X-10378572Y-18150952D01*
%TO.C,R20*%
X-15747620Y-13192857D02*
X-16223810Y-13526190D01*
X-15747620Y-13764285D02*
X-16747620Y-13764285D01*
X-16747620Y-13383333D01*
X-16700000Y-13288095D01*
X-16652381Y-13240476D01*
X-16557143Y-13192857D01*
X-16414286Y-13192857D01*
X-16319048Y-13240476D01*
X-16271429Y-13288095D01*
X-16223810Y-13383333D01*
X-16223810Y-13764285D01*
X-16652381Y-12811904D02*
X-16700000Y-12764285D01*
X-16747620Y-12669047D01*
X-16747620Y-12430952D01*
X-16700000Y-12335714D01*
X-16652381Y-12288095D01*
X-16557143Y-12240476D01*
X-16461905Y-12240476D01*
X-16319048Y-12288095D01*
X-15747620Y-12859523D01*
X-15747620Y-12240476D01*
X-16747620Y-11621428D02*
X-16747620Y-11526190D01*
X-16700000Y-11430952D01*
X-16652381Y-11383333D01*
X-16557143Y-11335714D01*
X-16366667Y-11288095D01*
X-16128572Y-11288095D01*
X-15938096Y-11335714D01*
X-15842858Y-11383333D01*
X-15795239Y-11430952D01*
X-15747620Y-11526190D01*
X-15747620Y-11621428D01*
X-15795239Y-11716666D01*
X-15842858Y-11764285D01*
X-15938096Y-11811904D01*
X-16128572Y-11859523D01*
X-16366667Y-11859523D01*
X-16557143Y-11811904D01*
X-16652381Y-11764285D01*
X-16700000Y-11716666D01*
X-16747620Y-11621428D01*
%TO.C,R19*%
X-16347620Y-19542857D02*
X-16823810Y-19876190D01*
X-16347620Y-20114285D02*
X-17347620Y-20114285D01*
X-17347620Y-19733333D01*
X-17300000Y-19638095D01*
X-17252381Y-19590476D01*
X-17157143Y-19542857D01*
X-17014286Y-19542857D01*
X-16919048Y-19590476D01*
X-16871429Y-19638095D01*
X-16823810Y-19733333D01*
X-16823810Y-20114285D01*
X-16347620Y-18590476D02*
X-16347620Y-19161904D01*
X-16347620Y-18876190D02*
X-17347620Y-18876190D01*
X-17204762Y-18971428D01*
X-17109524Y-19066666D01*
X-17061905Y-19161904D01*
X-16347620Y-18114285D02*
X-16347620Y-17923809D01*
X-16395239Y-17828571D01*
X-16442858Y-17780952D01*
X-16585715Y-17685714D01*
X-16776191Y-17638095D01*
X-17157143Y-17638095D01*
X-17252381Y-17685714D01*
X-17300000Y-17733333D01*
X-17347620Y-17828571D01*
X-17347620Y-18019047D01*
X-17300000Y-18114285D01*
X-17252381Y-18161904D01*
X-17157143Y-18209523D01*
X-16919048Y-18209523D01*
X-16823810Y-18161904D01*
X-16776191Y-18114285D01*
X-16728572Y-18019047D01*
X-16728572Y-17828571D01*
X-16776191Y-17733333D01*
X-16823810Y-17685714D01*
X-16919048Y-17638095D01*
%TO.C,R18*%
X-14297620Y-19542857D02*
X-14773810Y-19876190D01*
X-14297620Y-20114285D02*
X-15297620Y-20114285D01*
X-15297620Y-19733333D01*
X-15250000Y-19638095D01*
X-15202381Y-19590476D01*
X-15107143Y-19542857D01*
X-14964286Y-19542857D01*
X-14869048Y-19590476D01*
X-14821429Y-19638095D01*
X-14773810Y-19733333D01*
X-14773810Y-20114285D01*
X-14297620Y-18590476D02*
X-14297620Y-19161904D01*
X-14297620Y-18876190D02*
X-15297620Y-18876190D01*
X-15154762Y-18971428D01*
X-15059524Y-19066666D01*
X-15011905Y-19161904D01*
X-14869048Y-18019047D02*
X-14916667Y-18114285D01*
X-14964286Y-18161904D01*
X-15059524Y-18209523D01*
X-15107143Y-18209523D01*
X-15202381Y-18161904D01*
X-15250000Y-18114285D01*
X-15297620Y-18019047D01*
X-15297620Y-17828571D01*
X-15250000Y-17733333D01*
X-15202381Y-17685714D01*
X-15107143Y-17638095D01*
X-15059524Y-17638095D01*
X-14964286Y-17685714D01*
X-14916667Y-17733333D01*
X-14869048Y-17828571D01*
X-14869048Y-18019047D01*
X-14821429Y-18114285D01*
X-14773810Y-18161904D01*
X-14678572Y-18209523D01*
X-14488096Y-18209523D01*
X-14392858Y-18161904D01*
X-14345239Y-18114285D01*
X-14297620Y-18019047D01*
X-14297620Y-17828571D01*
X-14345239Y-17733333D01*
X-14392858Y-17685714D01*
X-14488096Y-17638095D01*
X-14678572Y-17638095D01*
X-14773810Y-17685714D01*
X-14821429Y-17733333D01*
X-14869048Y-17828571D01*
%TO.C,C19*%
X-7892858Y-18307142D02*
X-7940477Y-18354761D01*
X-8083334Y-18402380D01*
X-8178572Y-18402380D01*
X-8321429Y-18354761D01*
X-8416667Y-18259523D01*
X-8464286Y-18164285D01*
X-8511905Y-17973809D01*
X-8511905Y-17830952D01*
X-8464286Y-17640476D01*
X-8416667Y-17545238D01*
X-8321429Y-17450000D01*
X-8178572Y-17402380D01*
X-8083334Y-17402380D01*
X-7940477Y-17450000D01*
X-7892858Y-17497619D01*
X-6940477Y-18402380D02*
X-7511905Y-18402380D01*
X-7226191Y-18402380D02*
X-7226191Y-17402380D01*
X-7321429Y-17545238D01*
X-7416667Y-17640476D01*
X-7511905Y-17688095D01*
X-6464286Y-18402380D02*
X-6273810Y-18402380D01*
X-6178572Y-18354761D01*
X-6130953Y-18307142D01*
X-6035715Y-18164285D01*
X-5988096Y-17973809D01*
X-5988096Y-17592857D01*
X-6035715Y-17497619D01*
X-6083334Y-17450000D01*
X-6178572Y-17402380D01*
X-6369048Y-17402380D01*
X-6464286Y-17450000D01*
X-6511905Y-17497619D01*
X-6559524Y-17592857D01*
X-6559524Y-17830952D01*
X-6511905Y-17926190D01*
X-6464286Y-17973809D01*
X-6369048Y-18021428D01*
X-6178572Y-18021428D01*
X-6083334Y-17973809D01*
X-6035715Y-17926190D01*
X-5988096Y-17830952D01*
%TO.C,R27*%
X-62842858Y-18072380D02*
X-63176191Y-17596190D01*
X-63414286Y-18072380D02*
X-63414286Y-17072380D01*
X-63033334Y-17072380D01*
X-62938096Y-17120000D01*
X-62890477Y-17167619D01*
X-62842858Y-17262857D01*
X-62842858Y-17405714D01*
X-62890477Y-17500952D01*
X-62938096Y-17548571D01*
X-63033334Y-17596190D01*
X-63414286Y-17596190D01*
X-62461905Y-17167619D02*
X-62414286Y-17120000D01*
X-62319048Y-17072380D01*
X-62080953Y-17072380D01*
X-61985715Y-17120000D01*
X-61938096Y-17167619D01*
X-61890477Y-17262857D01*
X-61890477Y-17358095D01*
X-61938096Y-17500952D01*
X-62509524Y-18072380D01*
X-61890477Y-18072380D01*
X-61557143Y-17072380D02*
X-60890477Y-17072380D01*
X-61319048Y-18072380D01*
%TO.C,R14*%
X-8792858Y-32702380D02*
X-9126191Y-32226190D01*
X-9364286Y-32702380D02*
X-9364286Y-31702380D01*
X-8983334Y-31702380D01*
X-8888096Y-31750000D01*
X-8840477Y-31797619D01*
X-8792858Y-31892857D01*
X-8792858Y-32035714D01*
X-8840477Y-32130952D01*
X-8888096Y-32178571D01*
X-8983334Y-32226190D01*
X-9364286Y-32226190D01*
X-7840477Y-32702380D02*
X-8411905Y-32702380D01*
X-8126191Y-32702380D02*
X-8126191Y-31702380D01*
X-8221429Y-31845238D01*
X-8316667Y-31940476D01*
X-8411905Y-31988095D01*
X-6983334Y-32035714D02*
X-6983334Y-32702380D01*
X-7221429Y-31654761D02*
X-7459524Y-32369047D01*
X-6840477Y-32369047D01*
%TO.C,U3*%
X-19961905Y-36802380D02*
X-19961905Y-37611904D01*
X-19914286Y-37707142D01*
X-19866667Y-37754761D01*
X-19771429Y-37802380D01*
X-19580953Y-37802380D01*
X-19485715Y-37754761D01*
X-19438096Y-37707142D01*
X-19390477Y-37611904D01*
X-19390477Y-36802380D01*
X-19009524Y-36802380D02*
X-18390477Y-36802380D01*
X-18723810Y-37183333D01*
X-18580953Y-37183333D01*
X-18485715Y-37230952D01*
X-18438096Y-37278571D01*
X-18390477Y-37373809D01*
X-18390477Y-37611904D01*
X-18438096Y-37707142D01*
X-18485715Y-37754761D01*
X-18580953Y-37802380D01*
X-18866667Y-37802380D01*
X-18961905Y-37754761D01*
X-19009524Y-37707142D01*
%TO.C,FB1*%
X-9033334Y-27678571D02*
X-9366667Y-27678571D01*
X-9366667Y-28202380D02*
X-9366667Y-27202380D01*
X-8890477Y-27202380D01*
X-8176191Y-27678571D02*
X-8033334Y-27726190D01*
X-7985715Y-27773809D01*
X-7938096Y-27869047D01*
X-7938096Y-28011904D01*
X-7985715Y-28107142D01*
X-8033334Y-28154761D01*
X-8128572Y-28202380D01*
X-8509524Y-28202380D01*
X-8509524Y-27202380D01*
X-8176191Y-27202380D01*
X-8080953Y-27250000D01*
X-8033334Y-27297619D01*
X-7985715Y-27392857D01*
X-7985715Y-27488095D01*
X-8033334Y-27583333D01*
X-8080953Y-27630952D01*
X-8176191Y-27678571D01*
X-8509524Y-27678571D01*
X-6985715Y-28202380D02*
X-7557143Y-28202380D01*
X-7271429Y-28202380D02*
X-7271429Y-27202380D01*
X-7366667Y-27345238D01*
X-7461905Y-27440476D01*
X-7557143Y-27488095D01*
%TO.C,Y1*%
X-5676191Y-31726190D02*
X-5676191Y-32202380D01*
X-6009524Y-31202380D02*
X-5676191Y-31726190D01*
X-5342858Y-31202380D01*
X-4485715Y-32202380D02*
X-5057143Y-32202380D01*
X-4771429Y-32202380D02*
X-4771429Y-31202380D01*
X-4866667Y-31345238D01*
X-4961905Y-31440476D01*
X-5057143Y-31488095D01*
%TO.C,U7*%
X-30547620Y-14386904D02*
X-29738096Y-14386904D01*
X-29642858Y-14339285D01*
X-29595239Y-14291666D01*
X-29547620Y-14196428D01*
X-29547620Y-14005952D01*
X-29595239Y-13910714D01*
X-29642858Y-13863095D01*
X-29738096Y-13815476D01*
X-30547620Y-13815476D01*
X-30547620Y-13434523D02*
X-30547620Y-12767857D01*
X-29547620Y-13196428D01*
%TO.C,U6*%
X-31797620Y-20436904D02*
X-30988096Y-20436904D01*
X-30892858Y-20389285D01*
X-30845239Y-20341666D01*
X-30797620Y-20246428D01*
X-30797620Y-20055952D01*
X-30845239Y-19960714D01*
X-30892858Y-19913095D01*
X-30988096Y-19865476D01*
X-31797620Y-19865476D01*
X-31797620Y-18960714D02*
X-31797620Y-19151190D01*
X-31750000Y-19246428D01*
X-31702381Y-19294047D01*
X-31559524Y-19389285D01*
X-31369048Y-19436904D01*
X-30988096Y-19436904D01*
X-30892858Y-19389285D01*
X-30845239Y-19341666D01*
X-30797620Y-19246428D01*
X-30797620Y-19055952D01*
X-30845239Y-18960714D01*
X-30892858Y-18913095D01*
X-30988096Y-18865476D01*
X-31226191Y-18865476D01*
X-31321429Y-18913095D01*
X-31369048Y-18960714D01*
X-31416667Y-19055952D01*
X-31416667Y-19246428D01*
X-31369048Y-19341666D01*
X-31321429Y-19389285D01*
X-31226191Y-19436904D01*
%TO.C,U2*%
X-41761905Y-9527380D02*
X-41761905Y-10336904D01*
X-41714286Y-10432142D01*
X-41666667Y-10479761D01*
X-41571429Y-10527380D01*
X-41380953Y-10527380D01*
X-41285715Y-10479761D01*
X-41238096Y-10432142D01*
X-41190477Y-10336904D01*
X-41190477Y-9527380D01*
X-40761905Y-9622619D02*
X-40714286Y-9575000D01*
X-40619048Y-9527380D01*
X-40380953Y-9527380D01*
X-40285715Y-9575000D01*
X-40238096Y-9622619D01*
X-40190477Y-9717857D01*
X-40190477Y-9813095D01*
X-40238096Y-9955952D01*
X-40809524Y-10527380D01*
X-40190477Y-10527380D01*
%TO.C,U1*%
X-53872620Y-13561904D02*
X-53063096Y-13561904D01*
X-52967858Y-13514285D01*
X-52920239Y-13466666D01*
X-52872620Y-13371428D01*
X-52872620Y-13180952D01*
X-52920239Y-13085714D01*
X-52967858Y-13038095D01*
X-53063096Y-12990476D01*
X-53872620Y-12990476D01*
X-52872620Y-11990476D02*
X-52872620Y-12561904D01*
X-52872620Y-12276190D02*
X-53872620Y-12276190D01*
X-53729762Y-12371428D01*
X-53634524Y-12466666D01*
X-53586905Y-12561904D01*
%TO.C,TP1*%
D12*
X-25535715Y-36109142D02*
X-25021429Y-36109142D01*
X-25278572Y-37009142D02*
X-25278572Y-36109142D01*
X-24721429Y-37009142D02*
X-24721429Y-36109142D01*
X-24378572Y-36109142D01*
X-24292858Y-36152000D01*
X-24250000Y-36194857D01*
X-24207143Y-36280571D01*
X-24207143Y-36409142D01*
X-24250000Y-36494857D01*
X-24292858Y-36537714D01*
X-24378572Y-36580571D01*
X-24721429Y-36580571D01*
X-23350000Y-37009142D02*
X-23864286Y-37009142D01*
X-23607143Y-37009142D02*
X-23607143Y-36109142D01*
X-23692858Y-36237714D01*
X-23778572Y-36323428D01*
X-23864286Y-36366285D01*
%TO.C,R26*%
D10*
X-22092620Y-14167857D02*
X-22568810Y-14501190D01*
X-22092620Y-14739285D02*
X-23092620Y-14739285D01*
X-23092620Y-14358333D01*
X-23045000Y-14263095D01*
X-22997381Y-14215476D01*
X-22902143Y-14167857D01*
X-22759286Y-14167857D01*
X-22664048Y-14215476D01*
X-22616429Y-14263095D01*
X-22568810Y-14358333D01*
X-22568810Y-14739285D01*
X-22997381Y-13786904D02*
X-23045000Y-13739285D01*
X-23092620Y-13644047D01*
X-23092620Y-13405952D01*
X-23045000Y-13310714D01*
X-22997381Y-13263095D01*
X-22902143Y-13215476D01*
X-22806905Y-13215476D01*
X-22664048Y-13263095D01*
X-22092620Y-13834523D01*
X-22092620Y-13215476D01*
X-23092620Y-12358333D02*
X-23092620Y-12548809D01*
X-23045000Y-12644047D01*
X-22997381Y-12691666D01*
X-22854524Y-12786904D01*
X-22664048Y-12834523D01*
X-22283096Y-12834523D01*
X-22187858Y-12786904D01*
X-22140239Y-12739285D01*
X-22092620Y-12644047D01*
X-22092620Y-12453571D01*
X-22140239Y-12358333D01*
X-22187858Y-12310714D01*
X-22283096Y-12263095D01*
X-22521191Y-12263095D01*
X-22616429Y-12310714D01*
X-22664048Y-12358333D01*
X-22711667Y-12453571D01*
X-22711667Y-12644047D01*
X-22664048Y-12739285D01*
X-22616429Y-12786904D01*
X-22521191Y-12834523D01*
%TO.C,R25*%
X-24192858Y-40052380D02*
X-24526191Y-39576190D01*
X-24764286Y-40052380D02*
X-24764286Y-39052380D01*
X-24383334Y-39052380D01*
X-24288096Y-39100000D01*
X-24240477Y-39147619D01*
X-24192858Y-39242857D01*
X-24192858Y-39385714D01*
X-24240477Y-39480952D01*
X-24288096Y-39528571D01*
X-24383334Y-39576190D01*
X-24764286Y-39576190D01*
X-23811905Y-39147619D02*
X-23764286Y-39100000D01*
X-23669048Y-39052380D01*
X-23430953Y-39052380D01*
X-23335715Y-39100000D01*
X-23288096Y-39147619D01*
X-23240477Y-39242857D01*
X-23240477Y-39338095D01*
X-23288096Y-39480952D01*
X-23859524Y-40052380D01*
X-23240477Y-40052380D01*
X-22335715Y-39052380D02*
X-22811905Y-39052380D01*
X-22859524Y-39528571D01*
X-22811905Y-39480952D01*
X-22716667Y-39433333D01*
X-22478572Y-39433333D01*
X-22383334Y-39480952D01*
X-22335715Y-39528571D01*
X-22288096Y-39623809D01*
X-22288096Y-39861904D01*
X-22335715Y-39957142D01*
X-22383334Y-40004761D01*
X-22478572Y-40052380D01*
X-22716667Y-40052380D01*
X-22811905Y-40004761D01*
X-22859524Y-39957142D01*
%TO.C,R24*%
X-29142858Y-40052380D02*
X-29476191Y-39576190D01*
X-29714286Y-40052380D02*
X-29714286Y-39052380D01*
X-29333334Y-39052380D01*
X-29238096Y-39100000D01*
X-29190477Y-39147619D01*
X-29142858Y-39242857D01*
X-29142858Y-39385714D01*
X-29190477Y-39480952D01*
X-29238096Y-39528571D01*
X-29333334Y-39576190D01*
X-29714286Y-39576190D01*
X-28761905Y-39147619D02*
X-28714286Y-39100000D01*
X-28619048Y-39052380D01*
X-28380953Y-39052380D01*
X-28285715Y-39100000D01*
X-28238096Y-39147619D01*
X-28190477Y-39242857D01*
X-28190477Y-39338095D01*
X-28238096Y-39480952D01*
X-28809524Y-40052380D01*
X-28190477Y-40052380D01*
X-27333334Y-39385714D02*
X-27333334Y-40052380D01*
X-27571429Y-39004761D02*
X-27809524Y-39719047D01*
X-27190477Y-39719047D01*
%TO.C,R23*%
X-34167858Y-40052380D02*
X-34501191Y-39576190D01*
X-34739286Y-40052380D02*
X-34739286Y-39052380D01*
X-34358334Y-39052380D01*
X-34263096Y-39100000D01*
X-34215477Y-39147619D01*
X-34167858Y-39242857D01*
X-34167858Y-39385714D01*
X-34215477Y-39480952D01*
X-34263096Y-39528571D01*
X-34358334Y-39576190D01*
X-34739286Y-39576190D01*
X-33786905Y-39147619D02*
X-33739286Y-39100000D01*
X-33644048Y-39052380D01*
X-33405953Y-39052380D01*
X-33310715Y-39100000D01*
X-33263096Y-39147619D01*
X-33215477Y-39242857D01*
X-33215477Y-39338095D01*
X-33263096Y-39480952D01*
X-33834524Y-40052380D01*
X-33215477Y-40052380D01*
X-32882143Y-39052380D02*
X-32263096Y-39052380D01*
X-32596429Y-39433333D01*
X-32453572Y-39433333D01*
X-32358334Y-39480952D01*
X-32310715Y-39528571D01*
X-32263096Y-39623809D01*
X-32263096Y-39861904D01*
X-32310715Y-39957142D01*
X-32358334Y-40004761D01*
X-32453572Y-40052380D01*
X-32739286Y-40052380D01*
X-32834524Y-40004761D01*
X-32882143Y-39957142D01*
%TO.C,R22*%
X-39142858Y-40052380D02*
X-39476191Y-39576190D01*
X-39714286Y-40052380D02*
X-39714286Y-39052380D01*
X-39333334Y-39052380D01*
X-39238096Y-39100000D01*
X-39190477Y-39147619D01*
X-39142858Y-39242857D01*
X-39142858Y-39385714D01*
X-39190477Y-39480952D01*
X-39238096Y-39528571D01*
X-39333334Y-39576190D01*
X-39714286Y-39576190D01*
X-38761905Y-39147619D02*
X-38714286Y-39100000D01*
X-38619048Y-39052380D01*
X-38380953Y-39052380D01*
X-38285715Y-39100000D01*
X-38238096Y-39147619D01*
X-38190477Y-39242857D01*
X-38190477Y-39338095D01*
X-38238096Y-39480952D01*
X-38809524Y-40052380D01*
X-38190477Y-40052380D01*
X-37809524Y-39147619D02*
X-37761905Y-39100000D01*
X-37666667Y-39052380D01*
X-37428572Y-39052380D01*
X-37333334Y-39100000D01*
X-37285715Y-39147619D01*
X-37238096Y-39242857D01*
X-37238096Y-39338095D01*
X-37285715Y-39480952D01*
X-37857143Y-40052380D01*
X-37238096Y-40052380D01*
%TO.C,R21*%
X-23292858Y-17247380D02*
X-23626191Y-16771190D01*
X-23864286Y-17247380D02*
X-23864286Y-16247380D01*
X-23483334Y-16247380D01*
X-23388096Y-16295000D01*
X-23340477Y-16342619D01*
X-23292858Y-16437857D01*
X-23292858Y-16580714D01*
X-23340477Y-16675952D01*
X-23388096Y-16723571D01*
X-23483334Y-16771190D01*
X-23864286Y-16771190D01*
X-22911905Y-16342619D02*
X-22864286Y-16295000D01*
X-22769048Y-16247380D01*
X-22530953Y-16247380D01*
X-22435715Y-16295000D01*
X-22388096Y-16342619D01*
X-22340477Y-16437857D01*
X-22340477Y-16533095D01*
X-22388096Y-16675952D01*
X-22959524Y-17247380D01*
X-22340477Y-17247380D01*
X-21388096Y-17247380D02*
X-21959524Y-17247380D01*
X-21673810Y-17247380D02*
X-21673810Y-16247380D01*
X-21769048Y-16390238D01*
X-21864286Y-16485476D01*
X-21959524Y-16533095D01*
%TO.C,R17*%
X-44142858Y-21452380D02*
X-44476191Y-20976190D01*
X-44714286Y-21452380D02*
X-44714286Y-20452380D01*
X-44333334Y-20452380D01*
X-44238096Y-20500000D01*
X-44190477Y-20547619D01*
X-44142858Y-20642857D01*
X-44142858Y-20785714D01*
X-44190477Y-20880952D01*
X-44238096Y-20928571D01*
X-44333334Y-20976190D01*
X-44714286Y-20976190D01*
X-43190477Y-21452380D02*
X-43761905Y-21452380D01*
X-43476191Y-21452380D02*
X-43476191Y-20452380D01*
X-43571429Y-20595238D01*
X-43666667Y-20690476D01*
X-43761905Y-20738095D01*
X-42857143Y-20452380D02*
X-42190477Y-20452380D01*
X-42619048Y-21452380D01*
%TO.C,R16*%
X-8742858Y-38702380D02*
X-9076191Y-38226190D01*
X-9314286Y-38702380D02*
X-9314286Y-37702380D01*
X-8933334Y-37702380D01*
X-8838096Y-37750000D01*
X-8790477Y-37797619D01*
X-8742858Y-37892857D01*
X-8742858Y-38035714D01*
X-8790477Y-38130952D01*
X-8838096Y-38178571D01*
X-8933334Y-38226190D01*
X-9314286Y-38226190D01*
X-7790477Y-38702380D02*
X-8361905Y-38702380D01*
X-8076191Y-38702380D02*
X-8076191Y-37702380D01*
X-8171429Y-37845238D01*
X-8266667Y-37940476D01*
X-8361905Y-37988095D01*
X-6933334Y-37702380D02*
X-7123810Y-37702380D01*
X-7219048Y-37750000D01*
X-7266667Y-37797619D01*
X-7361905Y-37940476D01*
X-7409524Y-38130952D01*
X-7409524Y-38511904D01*
X-7361905Y-38607142D01*
X-7314286Y-38654761D01*
X-7219048Y-38702380D01*
X-7028572Y-38702380D01*
X-6933334Y-38654761D01*
X-6885715Y-38607142D01*
X-6838096Y-38511904D01*
X-6838096Y-38273809D01*
X-6885715Y-38178571D01*
X-6933334Y-38130952D01*
X-7028572Y-38083333D01*
X-7219048Y-38083333D01*
X-7314286Y-38130952D01*
X-7361905Y-38178571D01*
X-7409524Y-38273809D01*
%TO.C,R15*%
X-55397620Y-42492857D02*
X-55873810Y-42826190D01*
X-55397620Y-43064285D02*
X-56397620Y-43064285D01*
X-56397620Y-42683333D01*
X-56350000Y-42588095D01*
X-56302381Y-42540476D01*
X-56207143Y-42492857D01*
X-56064286Y-42492857D01*
X-55969048Y-42540476D01*
X-55921429Y-42588095D01*
X-55873810Y-42683333D01*
X-55873810Y-43064285D01*
X-55397620Y-41540476D02*
X-55397620Y-42111904D01*
X-55397620Y-41826190D02*
X-56397620Y-41826190D01*
X-56254762Y-41921428D01*
X-56159524Y-42016666D01*
X-56111905Y-42111904D01*
X-56397620Y-40635714D02*
X-56397620Y-41111904D01*
X-55921429Y-41159523D01*
X-55969048Y-41111904D01*
X-56016667Y-41016666D01*
X-56016667Y-40778571D01*
X-55969048Y-40683333D01*
X-55921429Y-40635714D01*
X-55826191Y-40588095D01*
X-55588096Y-40588095D01*
X-55492858Y-40635714D01*
X-55445239Y-40683333D01*
X-55397620Y-40778571D01*
X-55397620Y-41016666D01*
X-55445239Y-41111904D01*
X-55492858Y-41159523D01*
%TO.C,R13*%
X-8792858Y-34702380D02*
X-9126191Y-34226190D01*
X-9364286Y-34702380D02*
X-9364286Y-33702380D01*
X-8983334Y-33702380D01*
X-8888096Y-33750000D01*
X-8840477Y-33797619D01*
X-8792858Y-33892857D01*
X-8792858Y-34035714D01*
X-8840477Y-34130952D01*
X-8888096Y-34178571D01*
X-8983334Y-34226190D01*
X-9364286Y-34226190D01*
X-7840477Y-34702380D02*
X-8411905Y-34702380D01*
X-8126191Y-34702380D02*
X-8126191Y-33702380D01*
X-8221429Y-33845238D01*
X-8316667Y-33940476D01*
X-8411905Y-33988095D01*
X-7507143Y-33702380D02*
X-6888096Y-33702380D01*
X-7221429Y-34083333D01*
X-7078572Y-34083333D01*
X-6983334Y-34130952D01*
X-6935715Y-34178571D01*
X-6888096Y-34273809D01*
X-6888096Y-34511904D01*
X-6935715Y-34607142D01*
X-6983334Y-34654761D01*
X-7078572Y-34702380D01*
X-7364286Y-34702380D01*
X-7459524Y-34654761D01*
X-7507143Y-34607142D01*
%TO.C,R12*%
X-22692858Y-3822380D02*
X-23026191Y-3346190D01*
X-23264286Y-3822380D02*
X-23264286Y-2822380D01*
X-22883334Y-2822380D01*
X-22788096Y-2870000D01*
X-22740477Y-2917619D01*
X-22692858Y-3012857D01*
X-22692858Y-3155714D01*
X-22740477Y-3250952D01*
X-22788096Y-3298571D01*
X-22883334Y-3346190D01*
X-23264286Y-3346190D01*
X-21740477Y-3822380D02*
X-22311905Y-3822380D01*
X-22026191Y-3822380D02*
X-22026191Y-2822380D01*
X-22121429Y-2965238D01*
X-22216667Y-3060476D01*
X-22311905Y-3108095D01*
X-21359524Y-2917619D02*
X-21311905Y-2870000D01*
X-21216667Y-2822380D01*
X-20978572Y-2822380D01*
X-20883334Y-2870000D01*
X-20835715Y-2917619D01*
X-20788096Y-3012857D01*
X-20788096Y-3108095D01*
X-20835715Y-3250952D01*
X-21407143Y-3822380D01*
X-20788096Y-3822380D01*
%TO.C,R11*%
X-22692858Y-6672380D02*
X-23026191Y-6196190D01*
X-23264286Y-6672380D02*
X-23264286Y-5672380D01*
X-22883334Y-5672380D01*
X-22788096Y-5720000D01*
X-22740477Y-5767619D01*
X-22692858Y-5862857D01*
X-22692858Y-6005714D01*
X-22740477Y-6100952D01*
X-22788096Y-6148571D01*
X-22883334Y-6196190D01*
X-23264286Y-6196190D01*
X-21740477Y-6672380D02*
X-22311905Y-6672380D01*
X-22026191Y-6672380D02*
X-22026191Y-5672380D01*
X-22121429Y-5815238D01*
X-22216667Y-5910476D01*
X-22311905Y-5958095D01*
X-20788096Y-6672380D02*
X-21359524Y-6672380D01*
X-21073810Y-6672380D02*
X-21073810Y-5672380D01*
X-21169048Y-5815238D01*
X-21264286Y-5910476D01*
X-21359524Y-5958095D01*
%TO.C,R10*%
X-22692858Y-9497380D02*
X-23026191Y-9021190D01*
X-23264286Y-9497380D02*
X-23264286Y-8497380D01*
X-22883334Y-8497380D01*
X-22788096Y-8545000D01*
X-22740477Y-8592619D01*
X-22692858Y-8687857D01*
X-22692858Y-8830714D01*
X-22740477Y-8925952D01*
X-22788096Y-8973571D01*
X-22883334Y-9021190D01*
X-23264286Y-9021190D01*
X-21740477Y-9497380D02*
X-22311905Y-9497380D01*
X-22026191Y-9497380D02*
X-22026191Y-8497380D01*
X-22121429Y-8640238D01*
X-22216667Y-8735476D01*
X-22311905Y-8783095D01*
X-21121429Y-8497380D02*
X-21026191Y-8497380D01*
X-20930953Y-8545000D01*
X-20883334Y-8592619D01*
X-20835715Y-8687857D01*
X-20788096Y-8878333D01*
X-20788096Y-9116428D01*
X-20835715Y-9306904D01*
X-20883334Y-9402142D01*
X-20930953Y-9449761D01*
X-21026191Y-9497380D01*
X-21121429Y-9497380D01*
X-21216667Y-9449761D01*
X-21264286Y-9402142D01*
X-21311905Y-9306904D01*
X-21359524Y-9116428D01*
X-21359524Y-8878333D01*
X-21311905Y-8687857D01*
X-21264286Y-8592619D01*
X-21216667Y-8545000D01*
X-21121429Y-8497380D01*
%TO.C,R9*%
X-40166667Y-21482380D02*
X-40500000Y-21006190D01*
X-40738096Y-21482380D02*
X-40738096Y-20482380D01*
X-40357143Y-20482380D01*
X-40261905Y-20530000D01*
X-40214286Y-20577619D01*
X-40166667Y-20672857D01*
X-40166667Y-20815714D01*
X-40214286Y-20910952D01*
X-40261905Y-20958571D01*
X-40357143Y-21006190D01*
X-40738096Y-21006190D01*
X-39690477Y-21482380D02*
X-39500000Y-21482380D01*
X-39404762Y-21434761D01*
X-39357143Y-21387142D01*
X-39261905Y-21244285D01*
X-39214286Y-21053809D01*
X-39214286Y-20672857D01*
X-39261905Y-20577619D01*
X-39309524Y-20530000D01*
X-39404762Y-20482380D01*
X-39595239Y-20482380D01*
X-39690477Y-20530000D01*
X-39738096Y-20577619D01*
X-39785715Y-20672857D01*
X-39785715Y-20910952D01*
X-39738096Y-21006190D01*
X-39690477Y-21053809D01*
X-39595239Y-21101428D01*
X-39404762Y-21101428D01*
X-39309524Y-21053809D01*
X-39261905Y-21006190D01*
X-39214286Y-20910952D01*
%TO.C,R8*%
X-13417620Y-41966666D02*
X-13893810Y-42300000D01*
X-13417620Y-42538095D02*
X-14417620Y-42538095D01*
X-14417620Y-42157142D01*
X-14370000Y-42061904D01*
X-14322381Y-42014285D01*
X-14227143Y-41966666D01*
X-14084286Y-41966666D01*
X-13989048Y-42014285D01*
X-13941429Y-42061904D01*
X-13893810Y-42157142D01*
X-13893810Y-42538095D01*
X-13989048Y-41395238D02*
X-14036667Y-41490476D01*
X-14084286Y-41538095D01*
X-14179524Y-41585714D01*
X-14227143Y-41585714D01*
X-14322381Y-41538095D01*
X-14370000Y-41490476D01*
X-14417620Y-41395238D01*
X-14417620Y-41204761D01*
X-14370000Y-41109523D01*
X-14322381Y-41061904D01*
X-14227143Y-41014285D01*
X-14179524Y-41014285D01*
X-14084286Y-41061904D01*
X-14036667Y-41109523D01*
X-13989048Y-41204761D01*
X-13989048Y-41395238D01*
X-13941429Y-41490476D01*
X-13893810Y-41538095D01*
X-13798572Y-41585714D01*
X-13608096Y-41585714D01*
X-13512858Y-41538095D01*
X-13465239Y-41490476D01*
X-13417620Y-41395238D01*
X-13417620Y-41204761D01*
X-13465239Y-41109523D01*
X-13512858Y-41061904D01*
X-13608096Y-41014285D01*
X-13798572Y-41014285D01*
X-13893810Y-41061904D01*
X-13941429Y-41109523D01*
X-13989048Y-41204761D01*
%TO.C,R7*%
X-51566667Y-6182380D02*
X-51900000Y-5706190D01*
X-52138096Y-6182380D02*
X-52138096Y-5182380D01*
X-51757143Y-5182380D01*
X-51661905Y-5230000D01*
X-51614286Y-5277619D01*
X-51566667Y-5372857D01*
X-51566667Y-5515714D01*
X-51614286Y-5610952D01*
X-51661905Y-5658571D01*
X-51757143Y-5706190D01*
X-52138096Y-5706190D01*
X-51233334Y-5182380D02*
X-50566667Y-5182380D01*
X-50995239Y-6182380D01*
%TO.C,R6*%
X-51566667Y-11682380D02*
X-51900000Y-11206190D01*
X-52138096Y-11682380D02*
X-52138096Y-10682380D01*
X-51757143Y-10682380D01*
X-51661905Y-10730000D01*
X-51614286Y-10777619D01*
X-51566667Y-10872857D01*
X-51566667Y-11015714D01*
X-51614286Y-11110952D01*
X-51661905Y-11158571D01*
X-51757143Y-11206190D01*
X-52138096Y-11206190D01*
X-50709524Y-10682380D02*
X-50900000Y-10682380D01*
X-50995239Y-10730000D01*
X-51042858Y-10777619D01*
X-51138096Y-10920476D01*
X-51185715Y-11110952D01*
X-51185715Y-11491904D01*
X-51138096Y-11587142D01*
X-51090477Y-11634761D01*
X-50995239Y-11682380D01*
X-50804762Y-11682380D01*
X-50709524Y-11634761D01*
X-50661905Y-11587142D01*
X-50614286Y-11491904D01*
X-50614286Y-11253809D01*
X-50661905Y-11158571D01*
X-50709524Y-11110952D01*
X-50804762Y-11063333D01*
X-50995239Y-11063333D01*
X-51090477Y-11110952D01*
X-51138096Y-11158571D01*
X-51185715Y-11253809D01*
%TO.C,R5*%
X-58397620Y-42016666D02*
X-58873810Y-42350000D01*
X-58397620Y-42588095D02*
X-59397620Y-42588095D01*
X-59397620Y-42207142D01*
X-59350000Y-42111904D01*
X-59302381Y-42064285D01*
X-59207143Y-42016666D01*
X-59064286Y-42016666D01*
X-58969048Y-42064285D01*
X-58921429Y-42111904D01*
X-58873810Y-42207142D01*
X-58873810Y-42588095D01*
X-59397620Y-41111904D02*
X-59397620Y-41588095D01*
X-58921429Y-41635714D01*
X-58969048Y-41588095D01*
X-59016667Y-41492857D01*
X-59016667Y-41254761D01*
X-58969048Y-41159523D01*
X-58921429Y-41111904D01*
X-58826191Y-41064285D01*
X-58588096Y-41064285D01*
X-58492858Y-41111904D01*
X-58445239Y-41159523D01*
X-58397620Y-41254761D01*
X-58397620Y-41492857D01*
X-58445239Y-41588095D01*
X-58492858Y-41635714D01*
%TO.C,R4*%
X-63747620Y-14291666D02*
X-64223810Y-14625000D01*
X-63747620Y-14863095D02*
X-64747620Y-14863095D01*
X-64747620Y-14482142D01*
X-64700000Y-14386904D01*
X-64652381Y-14339285D01*
X-64557143Y-14291666D01*
X-64414286Y-14291666D01*
X-64319048Y-14339285D01*
X-64271429Y-14386904D01*
X-64223810Y-14482142D01*
X-64223810Y-14863095D01*
X-64414286Y-13434523D02*
X-63747620Y-13434523D01*
X-64795239Y-13672619D02*
X-64080953Y-13910714D01*
X-64080953Y-13291666D01*
%TO.C,R3*%
X-59341667Y-11352380D02*
X-59675000Y-10876190D01*
X-59913096Y-11352380D02*
X-59913096Y-10352380D01*
X-59532143Y-10352380D01*
X-59436905Y-10400000D01*
X-59389286Y-10447619D01*
X-59341667Y-10542857D01*
X-59341667Y-10685714D01*
X-59389286Y-10780952D01*
X-59436905Y-10828571D01*
X-59532143Y-10876190D01*
X-59913096Y-10876190D01*
X-59008334Y-10352380D02*
X-58389286Y-10352380D01*
X-58722620Y-10733333D01*
X-58579762Y-10733333D01*
X-58484524Y-10780952D01*
X-58436905Y-10828571D01*
X-58389286Y-10923809D01*
X-58389286Y-11161904D01*
X-58436905Y-11257142D01*
X-58484524Y-11304761D01*
X-58579762Y-11352380D01*
X-58865477Y-11352380D01*
X-58960715Y-11304761D01*
X-59008334Y-11257142D01*
%TO.C,R2*%
X-59066667Y-15402380D02*
X-59400000Y-14926190D01*
X-59638096Y-15402380D02*
X-59638096Y-14402380D01*
X-59257143Y-14402380D01*
X-59161905Y-14450000D01*
X-59114286Y-14497619D01*
X-59066667Y-14592857D01*
X-59066667Y-14735714D01*
X-59114286Y-14830952D01*
X-59161905Y-14878571D01*
X-59257143Y-14926190D01*
X-59638096Y-14926190D01*
X-58685715Y-14497619D02*
X-58638096Y-14450000D01*
X-58542858Y-14402380D01*
X-58304762Y-14402380D01*
X-58209524Y-14450000D01*
X-58161905Y-14497619D01*
X-58114286Y-14592857D01*
X-58114286Y-14688095D01*
X-58161905Y-14830952D01*
X-58733334Y-15402380D01*
X-58114286Y-15402380D01*
%TO.C,R1*%
X-67566667Y-15202380D02*
X-67900000Y-14726190D01*
X-68138096Y-15202380D02*
X-68138096Y-14202380D01*
X-67757143Y-14202380D01*
X-67661905Y-14250000D01*
X-67614286Y-14297619D01*
X-67566667Y-14392857D01*
X-67566667Y-14535714D01*
X-67614286Y-14630952D01*
X-67661905Y-14678571D01*
X-67757143Y-14726190D01*
X-68138096Y-14726190D01*
X-66614286Y-15202380D02*
X-67185715Y-15202380D01*
X-66900000Y-15202380D02*
X-66900000Y-14202380D01*
X-66995239Y-14345238D01*
X-67090477Y-14440476D01*
X-67185715Y-14488095D01*
%TO.C,Q1*%
X-69202381Y-9345238D02*
X-69250000Y-9440476D01*
X-69345239Y-9535714D01*
X-69488096Y-9678571D01*
X-69535715Y-9773809D01*
X-69535715Y-9869047D01*
X-69297620Y-9821428D02*
X-69345239Y-9916666D01*
X-69440477Y-10011904D01*
X-69630953Y-10059523D01*
X-69964286Y-10059523D01*
X-70154762Y-10011904D01*
X-70250000Y-9916666D01*
X-70297620Y-9821428D01*
X-70297620Y-9630952D01*
X-70250000Y-9535714D01*
X-70154762Y-9440476D01*
X-69964286Y-9392857D01*
X-69630953Y-9392857D01*
X-69440477Y-9440476D01*
X-69345239Y-9535714D01*
X-69297620Y-9630952D01*
X-69297620Y-9821428D01*
X-69297620Y-8440476D02*
X-69297620Y-9011904D01*
X-69297620Y-8726190D02*
X-70297620Y-8726190D01*
X-70154762Y-8821428D01*
X-70059524Y-8916666D01*
X-70011905Y-9011904D01*
%TO.C,L1*%
X-48066667Y-15652380D02*
X-48542858Y-15652380D01*
X-48542858Y-14652380D01*
X-47209524Y-15652380D02*
X-47780953Y-15652380D01*
X-47495239Y-15652380D02*
X-47495239Y-14652380D01*
X-47590477Y-14795238D01*
X-47685715Y-14890476D01*
X-47780953Y-14938095D01*
%TO.C,JP3*%
X-37697620Y-19108333D02*
X-36983334Y-19108333D01*
X-36840477Y-19155952D01*
X-36745239Y-19251190D01*
X-36697620Y-19394047D01*
X-36697620Y-19489285D01*
X-36697620Y-18632142D02*
X-37697620Y-18632142D01*
X-37697620Y-18251190D01*
X-37650000Y-18155952D01*
X-37602381Y-18108333D01*
X-37507143Y-18060714D01*
X-37364286Y-18060714D01*
X-37269048Y-18108333D01*
X-37221429Y-18155952D01*
X-37173810Y-18251190D01*
X-37173810Y-18632142D01*
X-37697620Y-17727380D02*
X-37697620Y-17108333D01*
X-37316667Y-17441666D01*
X-37316667Y-17298809D01*
X-37269048Y-17203571D01*
X-37221429Y-17155952D01*
X-37126191Y-17108333D01*
X-36888096Y-17108333D01*
X-36792858Y-17155952D01*
X-36745239Y-17203571D01*
X-36697620Y-17298809D01*
X-36697620Y-17584523D01*
X-36745239Y-17679761D01*
X-36792858Y-17727380D01*
%TO.C,D11*%
X-24847620Y-14939285D02*
X-25847620Y-14939285D01*
X-25847620Y-14701190D01*
X-25800000Y-14558333D01*
X-25704762Y-14463095D01*
X-25609524Y-14415476D01*
X-25419048Y-14367857D01*
X-25276191Y-14367857D01*
X-25085715Y-14415476D01*
X-24990477Y-14463095D01*
X-24895239Y-14558333D01*
X-24847620Y-14701190D01*
X-24847620Y-14939285D01*
X-24847620Y-13415476D02*
X-24847620Y-13986904D01*
X-24847620Y-13701190D02*
X-25847620Y-13701190D01*
X-25704762Y-13796428D01*
X-25609524Y-13891666D01*
X-25561905Y-13986904D01*
X-24847620Y-12463095D02*
X-24847620Y-13034523D01*
X-24847620Y-12748809D02*
X-25847620Y-12748809D01*
X-25704762Y-12844047D01*
X-25609524Y-12939285D01*
X-25561905Y-13034523D01*
%TO.C,D6*%
X-54247620Y-18988095D02*
X-55247620Y-18988095D01*
X-55247620Y-18750000D01*
X-55200000Y-18607142D01*
X-55104762Y-18511904D01*
X-55009524Y-18464285D01*
X-54819048Y-18416666D01*
X-54676191Y-18416666D01*
X-54485715Y-18464285D01*
X-54390477Y-18511904D01*
X-54295239Y-18607142D01*
X-54247620Y-18750000D01*
X-54247620Y-18988095D01*
X-55247620Y-17559523D02*
X-55247620Y-17750000D01*
X-55200000Y-17845238D01*
X-55152381Y-17892857D01*
X-55009524Y-17988095D01*
X-54819048Y-18035714D01*
X-54438096Y-18035714D01*
X-54342858Y-17988095D01*
X-54295239Y-17940476D01*
X-54247620Y-17845238D01*
X-54247620Y-17654761D01*
X-54295239Y-17559523D01*
X-54342858Y-17511904D01*
X-54438096Y-17464285D01*
X-54676191Y-17464285D01*
X-54771429Y-17511904D01*
X-54819048Y-17559523D01*
X-54866667Y-17654761D01*
X-54866667Y-17845238D01*
X-54819048Y-17940476D01*
X-54771429Y-17988095D01*
X-54676191Y-18035714D01*
%TO.C,D5*%
X-46588096Y-8302380D02*
X-46588096Y-7302380D01*
X-46350000Y-7302380D01*
X-46207143Y-7350000D01*
X-46111905Y-7445238D01*
X-46064286Y-7540476D01*
X-46016667Y-7730952D01*
X-46016667Y-7873809D01*
X-46064286Y-8064285D01*
X-46111905Y-8159523D01*
X-46207143Y-8254761D01*
X-46350000Y-8302380D01*
X-46588096Y-8302380D01*
X-45111905Y-7302380D02*
X-45588096Y-7302380D01*
X-45635715Y-7778571D01*
X-45588096Y-7730952D01*
X-45492858Y-7683333D01*
X-45254762Y-7683333D01*
X-45159524Y-7730952D01*
X-45111905Y-7778571D01*
X-45064286Y-7873809D01*
X-45064286Y-8111904D01*
X-45111905Y-8207142D01*
X-45159524Y-8254761D01*
X-45254762Y-8302380D01*
X-45492858Y-8302380D01*
X-45588096Y-8254761D01*
X-45635715Y-8207142D01*
%TO.C,D4*%
X-67288096Y-19552380D02*
X-67288096Y-18552380D01*
X-67050000Y-18552380D01*
X-66907143Y-18600000D01*
X-66811905Y-18695238D01*
X-66764286Y-18790476D01*
X-66716667Y-18980952D01*
X-66716667Y-19123809D01*
X-66764286Y-19314285D01*
X-66811905Y-19409523D01*
X-66907143Y-19504761D01*
X-67050000Y-19552380D01*
X-67288096Y-19552380D01*
X-65859524Y-18885714D02*
X-65859524Y-19552380D01*
X-66097620Y-18504761D02*
X-66335715Y-19219047D01*
X-65716667Y-19219047D01*
%TO.C,D3*%
X-43138096Y-17002380D02*
X-43138096Y-16002380D01*
X-42900000Y-16002380D01*
X-42757143Y-16050000D01*
X-42661905Y-16145238D01*
X-42614286Y-16240476D01*
X-42566667Y-16430952D01*
X-42566667Y-16573809D01*
X-42614286Y-16764285D01*
X-42661905Y-16859523D01*
X-42757143Y-16954761D01*
X-42900000Y-17002380D01*
X-43138096Y-17002380D01*
X-42233334Y-16002380D02*
X-41614286Y-16002380D01*
X-41947620Y-16383333D01*
X-41804762Y-16383333D01*
X-41709524Y-16430952D01*
X-41661905Y-16478571D01*
X-41614286Y-16573809D01*
X-41614286Y-16811904D01*
X-41661905Y-16907142D01*
X-41709524Y-16954761D01*
X-41804762Y-17002380D01*
X-42090477Y-17002380D01*
X-42185715Y-16954761D01*
X-42233334Y-16907142D01*
%TO.C,D2*%
X-61047620Y-15238095D02*
X-62047620Y-15238095D01*
X-62047620Y-15000000D01*
X-62000000Y-14857142D01*
X-61904762Y-14761904D01*
X-61809524Y-14714285D01*
X-61619048Y-14666666D01*
X-61476191Y-14666666D01*
X-61285715Y-14714285D01*
X-61190477Y-14761904D01*
X-61095239Y-14857142D01*
X-61047620Y-15000000D01*
X-61047620Y-15238095D01*
X-61952381Y-14285714D02*
X-62000000Y-14238095D01*
X-62047620Y-14142857D01*
X-62047620Y-13904761D01*
X-62000000Y-13809523D01*
X-61952381Y-13761904D01*
X-61857143Y-13714285D01*
X-61761905Y-13714285D01*
X-61619048Y-13761904D01*
X-61047620Y-14333333D01*
X-61047620Y-13714285D01*
%TO.C,D1*%
X-68488096Y-13202380D02*
X-68488096Y-12202380D01*
X-68250000Y-12202380D01*
X-68107143Y-12250000D01*
X-68011905Y-12345238D01*
X-67964286Y-12440476D01*
X-67916667Y-12630952D01*
X-67916667Y-12773809D01*
X-67964286Y-12964285D01*
X-68011905Y-13059523D01*
X-68107143Y-13154761D01*
X-68250000Y-13202380D01*
X-68488096Y-13202380D01*
X-66964286Y-13202380D02*
X-67535715Y-13202380D01*
X-67250000Y-13202380D02*
X-67250000Y-12202380D01*
X-67345239Y-12345238D01*
X-67440477Y-12440476D01*
X-67535715Y-12488095D01*
%TO.C,C18*%
X-33562858Y-14167857D02*
X-33515239Y-14215476D01*
X-33467620Y-14358333D01*
X-33467620Y-14453571D01*
X-33515239Y-14596428D01*
X-33610477Y-14691666D01*
X-33705715Y-14739285D01*
X-33896191Y-14786904D01*
X-34039048Y-14786904D01*
X-34229524Y-14739285D01*
X-34324762Y-14691666D01*
X-34420000Y-14596428D01*
X-34467620Y-14453571D01*
X-34467620Y-14358333D01*
X-34420000Y-14215476D01*
X-34372381Y-14167857D01*
X-33467620Y-13215476D02*
X-33467620Y-13786904D01*
X-33467620Y-13501190D02*
X-34467620Y-13501190D01*
X-34324762Y-13596428D01*
X-34229524Y-13691666D01*
X-34181905Y-13786904D01*
X-34039048Y-12644047D02*
X-34086667Y-12739285D01*
X-34134286Y-12786904D01*
X-34229524Y-12834523D01*
X-34277143Y-12834523D01*
X-34372381Y-12786904D01*
X-34420000Y-12739285D01*
X-34467620Y-12644047D01*
X-34467620Y-12453571D01*
X-34420000Y-12358333D01*
X-34372381Y-12310714D01*
X-34277143Y-12263095D01*
X-34229524Y-12263095D01*
X-34134286Y-12310714D01*
X-34086667Y-12358333D01*
X-34039048Y-12453571D01*
X-34039048Y-12644047D01*
X-33991429Y-12739285D01*
X-33943810Y-12786904D01*
X-33848572Y-12834523D01*
X-33658096Y-12834523D01*
X-33562858Y-12786904D01*
X-33515239Y-12739285D01*
X-33467620Y-12644047D01*
X-33467620Y-12453571D01*
X-33515239Y-12358333D01*
X-33562858Y-12310714D01*
X-33658096Y-12263095D01*
X-33848572Y-12263095D01*
X-33943810Y-12310714D01*
X-33991429Y-12358333D01*
X-34039048Y-12453571D01*
%TO.C,C15*%
X-23292858Y-19982142D02*
X-23340477Y-20029761D01*
X-23483334Y-20077380D01*
X-23578572Y-20077380D01*
X-23721429Y-20029761D01*
X-23816667Y-19934523D01*
X-23864286Y-19839285D01*
X-23911905Y-19648809D01*
X-23911905Y-19505952D01*
X-23864286Y-19315476D01*
X-23816667Y-19220238D01*
X-23721429Y-19125000D01*
X-23578572Y-19077380D01*
X-23483334Y-19077380D01*
X-23340477Y-19125000D01*
X-23292858Y-19172619D01*
X-22340477Y-20077380D02*
X-22911905Y-20077380D01*
X-22626191Y-20077380D02*
X-22626191Y-19077380D01*
X-22721429Y-19220238D01*
X-22816667Y-19315476D01*
X-22911905Y-19363095D01*
X-21435715Y-19077380D02*
X-21911905Y-19077380D01*
X-21959524Y-19553571D01*
X-21911905Y-19505952D01*
X-21816667Y-19458333D01*
X-21578572Y-19458333D01*
X-21483334Y-19505952D01*
X-21435715Y-19553571D01*
X-21388096Y-19648809D01*
X-21388096Y-19886904D01*
X-21435715Y-19982142D01*
X-21483334Y-20029761D01*
X-21578572Y-20077380D01*
X-21816667Y-20077380D01*
X-21911905Y-20029761D01*
X-21959524Y-19982142D01*
%TO.C,C14*%
X-36462858Y-12792857D02*
X-36415239Y-12840476D01*
X-36367620Y-12983333D01*
X-36367620Y-13078571D01*
X-36415239Y-13221428D01*
X-36510477Y-13316666D01*
X-36605715Y-13364285D01*
X-36796191Y-13411904D01*
X-36939048Y-13411904D01*
X-37129524Y-13364285D01*
X-37224762Y-13316666D01*
X-37320000Y-13221428D01*
X-37367620Y-13078571D01*
X-37367620Y-12983333D01*
X-37320000Y-12840476D01*
X-37272381Y-12792857D01*
X-36367620Y-11840476D02*
X-36367620Y-12411904D01*
X-36367620Y-12126190D02*
X-37367620Y-12126190D01*
X-37224762Y-12221428D01*
X-37129524Y-12316666D01*
X-37081905Y-12411904D01*
X-37034286Y-10983333D02*
X-36367620Y-10983333D01*
X-37415239Y-11221428D02*
X-36700953Y-11459523D01*
X-36700953Y-10840476D01*
%TO.C,C13*%
X-45142858Y-35727142D02*
X-45190477Y-35774761D01*
X-45333334Y-35822380D01*
X-45428572Y-35822380D01*
X-45571429Y-35774761D01*
X-45666667Y-35679523D01*
X-45714286Y-35584285D01*
X-45761905Y-35393809D01*
X-45761905Y-35250952D01*
X-45714286Y-35060476D01*
X-45666667Y-34965238D01*
X-45571429Y-34870000D01*
X-45428572Y-34822380D01*
X-45333334Y-34822380D01*
X-45190477Y-34870000D01*
X-45142858Y-34917619D01*
X-44190477Y-35822380D02*
X-44761905Y-35822380D01*
X-44476191Y-35822380D02*
X-44476191Y-34822380D01*
X-44571429Y-34965238D01*
X-44666667Y-35060476D01*
X-44761905Y-35108095D01*
X-43857143Y-34822380D02*
X-43238096Y-34822380D01*
X-43571429Y-35203333D01*
X-43428572Y-35203333D01*
X-43333334Y-35250952D01*
X-43285715Y-35298571D01*
X-43238096Y-35393809D01*
X-43238096Y-35631904D01*
X-43285715Y-35727142D01*
X-43333334Y-35774761D01*
X-43428572Y-35822380D01*
X-43714286Y-35822380D01*
X-43809524Y-35774761D01*
X-43857143Y-35727142D01*
%TO.C,C12*%
X-8742858Y-40607142D02*
X-8790477Y-40654761D01*
X-8933334Y-40702380D01*
X-9028572Y-40702380D01*
X-9171429Y-40654761D01*
X-9266667Y-40559523D01*
X-9314286Y-40464285D01*
X-9361905Y-40273809D01*
X-9361905Y-40130952D01*
X-9314286Y-39940476D01*
X-9266667Y-39845238D01*
X-9171429Y-39750000D01*
X-9028572Y-39702380D01*
X-8933334Y-39702380D01*
X-8790477Y-39750000D01*
X-8742858Y-39797619D01*
X-7790477Y-40702380D02*
X-8361905Y-40702380D01*
X-8076191Y-40702380D02*
X-8076191Y-39702380D01*
X-8171429Y-39845238D01*
X-8266667Y-39940476D01*
X-8361905Y-39988095D01*
X-7409524Y-39797619D02*
X-7361905Y-39750000D01*
X-7266667Y-39702380D01*
X-7028572Y-39702380D01*
X-6933334Y-39750000D01*
X-6885715Y-39797619D01*
X-6838096Y-39892857D01*
X-6838096Y-39988095D01*
X-6885715Y-40130952D01*
X-7457143Y-40702380D01*
X-6838096Y-40702380D01*
%TO.C,C11*%
X-43417858Y-12392857D02*
X-43370239Y-12440476D01*
X-43322620Y-12583333D01*
X-43322620Y-12678571D01*
X-43370239Y-12821428D01*
X-43465477Y-12916666D01*
X-43560715Y-12964285D01*
X-43751191Y-13011904D01*
X-43894048Y-13011904D01*
X-44084524Y-12964285D01*
X-44179762Y-12916666D01*
X-44275000Y-12821428D01*
X-44322620Y-12678571D01*
X-44322620Y-12583333D01*
X-44275000Y-12440476D01*
X-44227381Y-12392857D01*
X-43322620Y-11440476D02*
X-43322620Y-12011904D01*
X-43322620Y-11726190D02*
X-44322620Y-11726190D01*
X-44179762Y-11821428D01*
X-44084524Y-11916666D01*
X-44036905Y-12011904D01*
X-43322620Y-10488095D02*
X-43322620Y-11059523D01*
X-43322620Y-10773809D02*
X-44322620Y-10773809D01*
X-44179762Y-10869047D01*
X-44084524Y-10964285D01*
X-44036905Y-11059523D01*
%TO.C,C10*%
X-8792858Y-30107142D02*
X-8840477Y-30154761D01*
X-8983334Y-30202380D01*
X-9078572Y-30202380D01*
X-9221429Y-30154761D01*
X-9316667Y-30059523D01*
X-9364286Y-29964285D01*
X-9411905Y-29773809D01*
X-9411905Y-29630952D01*
X-9364286Y-29440476D01*
X-9316667Y-29345238D01*
X-9221429Y-29250000D01*
X-9078572Y-29202380D01*
X-8983334Y-29202380D01*
X-8840477Y-29250000D01*
X-8792858Y-29297619D01*
X-7840477Y-30202380D02*
X-8411905Y-30202380D01*
X-8126191Y-30202380D02*
X-8126191Y-29202380D01*
X-8221429Y-29345238D01*
X-8316667Y-29440476D01*
X-8411905Y-29488095D01*
X-7221429Y-29202380D02*
X-7126191Y-29202380D01*
X-7030953Y-29250000D01*
X-6983334Y-29297619D01*
X-6935715Y-29392857D01*
X-6888096Y-29583333D01*
X-6888096Y-29821428D01*
X-6935715Y-30011904D01*
X-6983334Y-30107142D01*
X-7030953Y-30154761D01*
X-7126191Y-30202380D01*
X-7221429Y-30202380D01*
X-7316667Y-30154761D01*
X-7364286Y-30107142D01*
X-7411905Y-30011904D01*
X-7459524Y-29821428D01*
X-7459524Y-29583333D01*
X-7411905Y-29392857D01*
X-7364286Y-29297619D01*
X-7316667Y-29250000D01*
X-7221429Y-29202380D01*
%TO.C,C9*%
X-51566667Y-8837142D02*
X-51614286Y-8884761D01*
X-51757143Y-8932380D01*
X-51852381Y-8932380D01*
X-51995239Y-8884761D01*
X-52090477Y-8789523D01*
X-52138096Y-8694285D01*
X-52185715Y-8503809D01*
X-52185715Y-8360952D01*
X-52138096Y-8170476D01*
X-52090477Y-8075238D01*
X-51995239Y-7980000D01*
X-51852381Y-7932380D01*
X-51757143Y-7932380D01*
X-51614286Y-7980000D01*
X-51566667Y-8027619D01*
X-51090477Y-8932380D02*
X-50900000Y-8932380D01*
X-50804762Y-8884761D01*
X-50757143Y-8837142D01*
X-50661905Y-8694285D01*
X-50614286Y-8503809D01*
X-50614286Y-8122857D01*
X-50661905Y-8027619D01*
X-50709524Y-7980000D01*
X-50804762Y-7932380D01*
X-50995239Y-7932380D01*
X-51090477Y-7980000D01*
X-51138096Y-8027619D01*
X-51185715Y-8122857D01*
X-51185715Y-8360952D01*
X-51138096Y-8456190D01*
X-51090477Y-8503809D01*
X-50995239Y-8551428D01*
X-50804762Y-8551428D01*
X-50709524Y-8503809D01*
X-50661905Y-8456190D01*
X-50614286Y-8360952D01*
%TO.C,C8*%
X-14666667Y-37177142D02*
X-14714286Y-37224761D01*
X-14857143Y-37272380D01*
X-14952381Y-37272380D01*
X-15095239Y-37224761D01*
X-15190477Y-37129523D01*
X-15238096Y-37034285D01*
X-15285715Y-36843809D01*
X-15285715Y-36700952D01*
X-15238096Y-36510476D01*
X-15190477Y-36415238D01*
X-15095239Y-36320000D01*
X-14952381Y-36272380D01*
X-14857143Y-36272380D01*
X-14714286Y-36320000D01*
X-14666667Y-36367619D01*
X-14095239Y-36700952D02*
X-14190477Y-36653333D01*
X-14238096Y-36605714D01*
X-14285715Y-36510476D01*
X-14285715Y-36462857D01*
X-14238096Y-36367619D01*
X-14190477Y-36320000D01*
X-14095239Y-36272380D01*
X-13904762Y-36272380D01*
X-13809524Y-36320000D01*
X-13761905Y-36367619D01*
X-13714286Y-36462857D01*
X-13714286Y-36510476D01*
X-13761905Y-36605714D01*
X-13809524Y-36653333D01*
X-13904762Y-36700952D01*
X-14095239Y-36700952D01*
X-14190477Y-36748571D01*
X-14238096Y-36796190D01*
X-14285715Y-36891428D01*
X-14285715Y-37081904D01*
X-14238096Y-37177142D01*
X-14190477Y-37224761D01*
X-14095239Y-37272380D01*
X-13904762Y-37272380D01*
X-13809524Y-37224761D01*
X-13761905Y-37177142D01*
X-13714286Y-37081904D01*
X-13714286Y-36891428D01*
X-13761905Y-36796190D01*
X-13809524Y-36748571D01*
X-13904762Y-36700952D01*
%TO.C,C7*%
X-45866667Y-3227142D02*
X-45914286Y-3274761D01*
X-46057143Y-3322380D01*
X-46152381Y-3322380D01*
X-46295239Y-3274761D01*
X-46390477Y-3179523D01*
X-46438096Y-3084285D01*
X-46485715Y-2893809D01*
X-46485715Y-2750952D01*
X-46438096Y-2560476D01*
X-46390477Y-2465238D01*
X-46295239Y-2370000D01*
X-46152381Y-2322380D01*
X-46057143Y-2322380D01*
X-45914286Y-2370000D01*
X-45866667Y-2417619D01*
X-45533334Y-2322380D02*
X-44866667Y-2322380D01*
X-45295239Y-3322380D01*
%TO.C,C6*%
X-27066667Y-36007142D02*
X-27114286Y-36054761D01*
X-27257143Y-36102380D01*
X-27352381Y-36102380D01*
X-27495239Y-36054761D01*
X-27590477Y-35959523D01*
X-27638096Y-35864285D01*
X-27685715Y-35673809D01*
X-27685715Y-35530952D01*
X-27638096Y-35340476D01*
X-27590477Y-35245238D01*
X-27495239Y-35150000D01*
X-27352381Y-35102380D01*
X-27257143Y-35102380D01*
X-27114286Y-35150000D01*
X-27066667Y-35197619D01*
X-26209524Y-35102380D02*
X-26400000Y-35102380D01*
X-26495239Y-35150000D01*
X-26542858Y-35197619D01*
X-26638096Y-35340476D01*
X-26685715Y-35530952D01*
X-26685715Y-35911904D01*
X-26638096Y-36007142D01*
X-26590477Y-36054761D01*
X-26495239Y-36102380D01*
X-26304762Y-36102380D01*
X-26209524Y-36054761D01*
X-26161905Y-36007142D01*
X-26114286Y-35911904D01*
X-26114286Y-35673809D01*
X-26161905Y-35578571D01*
X-26209524Y-35530952D01*
X-26304762Y-35483333D01*
X-26495239Y-35483333D01*
X-26590477Y-35530952D01*
X-26638096Y-35578571D01*
X-26685715Y-35673809D01*
%TO.C,C5*%
X-61462858Y-42016666D02*
X-61415239Y-42064285D01*
X-61367620Y-42207142D01*
X-61367620Y-42302380D01*
X-61415239Y-42445238D01*
X-61510477Y-42540476D01*
X-61605715Y-42588095D01*
X-61796191Y-42635714D01*
X-61939048Y-42635714D01*
X-62129524Y-42588095D01*
X-62224762Y-42540476D01*
X-62320000Y-42445238D01*
X-62367620Y-42302380D01*
X-62367620Y-42207142D01*
X-62320000Y-42064285D01*
X-62272381Y-42016666D01*
X-62367620Y-41111904D02*
X-62367620Y-41588095D01*
X-61891429Y-41635714D01*
X-61939048Y-41588095D01*
X-61986667Y-41492857D01*
X-61986667Y-41254761D01*
X-61939048Y-41159523D01*
X-61891429Y-41111904D01*
X-61796191Y-41064285D01*
X-61558096Y-41064285D01*
X-61462858Y-41111904D01*
X-61415239Y-41159523D01*
X-61367620Y-41254761D01*
X-61367620Y-41492857D01*
X-61415239Y-41588095D01*
X-61462858Y-41635714D01*
%TO.C,C4*%
X-22891667Y-23632142D02*
X-22939286Y-23679761D01*
X-23082143Y-23727380D01*
X-23177381Y-23727380D01*
X-23320239Y-23679761D01*
X-23415477Y-23584523D01*
X-23463096Y-23489285D01*
X-23510715Y-23298809D01*
X-23510715Y-23155952D01*
X-23463096Y-22965476D01*
X-23415477Y-22870238D01*
X-23320239Y-22775000D01*
X-23177381Y-22727380D01*
X-23082143Y-22727380D01*
X-22939286Y-22775000D01*
X-22891667Y-22822619D01*
X-22034524Y-23060714D02*
X-22034524Y-23727380D01*
X-22272620Y-22679761D02*
X-22510715Y-23394047D01*
X-21891667Y-23394047D01*
%TO.C,C3*%
X-50792858Y-15591666D02*
X-50745239Y-15639285D01*
X-50697620Y-15782142D01*
X-50697620Y-15877380D01*
X-50745239Y-16020238D01*
X-50840477Y-16115476D01*
X-50935715Y-16163095D01*
X-51126191Y-16210714D01*
X-51269048Y-16210714D01*
X-51459524Y-16163095D01*
X-51554762Y-16115476D01*
X-51650000Y-16020238D01*
X-51697620Y-15877380D01*
X-51697620Y-15782142D01*
X-51650000Y-15639285D01*
X-51602381Y-15591666D01*
X-51697620Y-15258333D02*
X-51697620Y-14639285D01*
X-51316667Y-14972619D01*
X-51316667Y-14829761D01*
X-51269048Y-14734523D01*
X-51221429Y-14686904D01*
X-51126191Y-14639285D01*
X-50888096Y-14639285D01*
X-50792858Y-14686904D01*
X-50745239Y-14734523D01*
X-50697620Y-14829761D01*
X-50697620Y-15115476D01*
X-50745239Y-15210714D01*
X-50792858Y-15258333D01*
%TO.C,C2*%
X-8766667Y-36607142D02*
X-8814286Y-36654761D01*
X-8957143Y-36702380D01*
X-9052381Y-36702380D01*
X-9195239Y-36654761D01*
X-9290477Y-36559523D01*
X-9338096Y-36464285D01*
X-9385715Y-36273809D01*
X-9385715Y-36130952D01*
X-9338096Y-35940476D01*
X-9290477Y-35845238D01*
X-9195239Y-35750000D01*
X-9052381Y-35702380D01*
X-8957143Y-35702380D01*
X-8814286Y-35750000D01*
X-8766667Y-35797619D01*
X-8385715Y-35797619D02*
X-8338096Y-35750000D01*
X-8242858Y-35702380D01*
X-8004762Y-35702380D01*
X-7909524Y-35750000D01*
X-7861905Y-35797619D01*
X-7814286Y-35892857D01*
X-7814286Y-35988095D01*
X-7861905Y-36130952D01*
X-8433334Y-36702380D01*
X-7814286Y-36702380D01*
%TO.C,C1*%
X-58266667Y-18637142D02*
X-58314286Y-18684761D01*
X-58457143Y-18732380D01*
X-58552381Y-18732380D01*
X-58695239Y-18684761D01*
X-58790477Y-18589523D01*
X-58838096Y-18494285D01*
X-58885715Y-18303809D01*
X-58885715Y-18160952D01*
X-58838096Y-17970476D01*
X-58790477Y-17875238D01*
X-58695239Y-17780000D01*
X-58552381Y-17732380D01*
X-58457143Y-17732380D01*
X-58314286Y-17780000D01*
X-58266667Y-17827619D01*
X-57314286Y-18732380D02*
X-57885715Y-18732380D01*
X-57600000Y-18732380D02*
X-57600000Y-17732380D01*
X-57695239Y-17875238D01*
X-57790477Y-17970476D01*
X-57885715Y-18018095D01*
%TD*%
M02*
