%TF.GenerationSoftware,KiCad,Pcbnew,5.1.9*%
%TF.CreationDate,2021-03-01T19:41:54-05:00*%
%TF.ProjectId,CANalog_nucleo,43414e61-6c6f-4675-9f6e-75636c656f2e,rev?*%
%TF.SameCoordinates,PX700e860PY1298be0*%
%TF.FileFunction,Copper,L1,Top*%
%TF.FilePolarity,Positive*%
%FSLAX46Y46*%
G04 Gerber Fmt 4.6, Leading zero omitted, Abs format (unit mm)*
G04 Created by KiCad (PCBNEW 5.1.9) date 2021-03-01 19:41:54*
%MOMM*%
%LPD*%
G01*
G04 APERTURE LIST*
%TA.AperFunction,SMDPad,CuDef*%
%ADD10R,2.500000X1.100000*%
%TD*%
%TA.AperFunction,SMDPad,CuDef*%
%ADD11R,1.100000X2.500000*%
%TD*%
%TA.AperFunction,ComponentPad*%
%ADD12R,1.700000X1.700000*%
%TD*%
%TA.AperFunction,ComponentPad*%
%ADD13C,1.700000*%
%TD*%
%TA.AperFunction,SMDPad,CuDef*%
%ADD14R,0.650000X0.400000*%
%TD*%
%TA.AperFunction,SMDPad,CuDef*%
%ADD15R,1.060000X0.650000*%
%TD*%
%TA.AperFunction,SMDPad,CuDef*%
%ADD16R,0.650000X1.060000*%
%TD*%
%TA.AperFunction,ComponentPad*%
%ADD17C,2.000000*%
%TD*%
%TA.AperFunction,SMDPad,CuDef*%
%ADD18R,0.900000X0.800000*%
%TD*%
%TA.AperFunction,SMDPad,CuDef*%
%ADD19R,1.100000X3.000000*%
%TD*%
%TA.AperFunction,SMDPad,CuDef*%
%ADD20R,1.300000X3.000000*%
%TD*%
%TA.AperFunction,ComponentPad*%
%ADD21O,1.700000X1.700000*%
%TD*%
%TA.AperFunction,ComponentPad*%
%ADD22C,1.800000*%
%TD*%
%TA.AperFunction,SMDPad,CuDef*%
%ADD23R,1.430000X2.500000*%
%TD*%
%TA.AperFunction,ComponentPad*%
%ADD24O,1.350000X1.700000*%
%TD*%
%TA.AperFunction,ComponentPad*%
%ADD25O,1.100000X1.500000*%
%TD*%
%TA.AperFunction,SMDPad,CuDef*%
%ADD26R,0.400000X1.650000*%
%TD*%
%TA.AperFunction,SMDPad,CuDef*%
%ADD27R,2.000000X1.500000*%
%TD*%
%TA.AperFunction,SMDPad,CuDef*%
%ADD28R,1.825000X0.700000*%
%TD*%
%TA.AperFunction,SMDPad,CuDef*%
%ADD29R,1.350000X2.000000*%
%TD*%
%TA.AperFunction,SMDPad,CuDef*%
%ADD30R,0.450000X0.700000*%
%TD*%
%TA.AperFunction,SMDPad,CuDef*%
%ADD31R,1.600000X1.800000*%
%TD*%
%TA.AperFunction,ComponentPad*%
%ADD32O,1.600000X1.600000*%
%TD*%
%TA.AperFunction,ComponentPad*%
%ADD33R,1.600000X1.600000*%
%TD*%
%TA.AperFunction,SMDPad,CuDef*%
%ADD34R,1.800000X1.600000*%
%TD*%
%TA.AperFunction,SMDPad,CuDef*%
%ADD35R,1.000000X1.700000*%
%TD*%
%TA.AperFunction,ComponentPad*%
%ADD36C,1.600000*%
%TD*%
%TA.AperFunction,ComponentPad*%
%ADD37C,4.000000*%
%TD*%
%TA.AperFunction,ViaPad*%
%ADD38C,0.800000*%
%TD*%
%TA.AperFunction,Conductor*%
%ADD39C,0.250000*%
%TD*%
%TA.AperFunction,Conductor*%
%ADD40C,0.500000*%
%TD*%
%TA.AperFunction,Conductor*%
%ADD41C,0.300000*%
%TD*%
%TA.AperFunction,Conductor*%
%ADD42C,1.000000*%
%TD*%
G04 APERTURE END LIST*
D10*
%TO.P,U5,22*%
%TO.N,Net-(U5-Pad22)*%
X-18950000Y-23590000D03*
%TO.P,U5,21*%
%TO.N,Net-(U5-Pad21)*%
X-18950000Y-21590000D03*
%TO.P,U5,20*%
%TO.N,Net-(U5-Pad20)*%
X-18950000Y-19590000D03*
%TO.P,U5,19*%
%TO.N,Net-(U5-Pad19)*%
X-18950000Y-17590000D03*
%TO.P,U5,18*%
%TO.N,Net-(U5-Pad18)*%
X-18950000Y-15590000D03*
%TO.P,U5,17*%
%TO.N,Net-(U5-Pad17)*%
X-18950000Y-13590000D03*
D11*
%TO.P,U5,16*%
%TO.N,ESP_TX*%
X-3250000Y-26300000D03*
%TO.P,U5,15*%
%TO.N,ESP_RX*%
X-5250000Y-26300000D03*
%TO.P,U5,14*%
%TO.N,STM_RESET*%
X-7250000Y-26300000D03*
%TO.P,U5,13*%
%TO.N,STM_RDY*%
X-9250000Y-26300000D03*
%TO.P,U5,12*%
%TO.N,GPIO0*%
X-11250000Y-26300000D03*
%TO.P,U5,11*%
%TO.N,GPIO2*%
X-13250000Y-26300000D03*
%TO.P,U5,10*%
%TO.N,STM_CS*%
X-15250000Y-26300000D03*
%TO.P,U5,9*%
%TO.N,GND*%
X-17250000Y-26300000D03*
%TO.P,U5,8*%
%TO.N,+3V3*%
X-17250000Y-10900000D03*
%TO.P,U5,7*%
%TO.N,MOSI*%
X-15250000Y-10900000D03*
%TO.P,U5,6*%
%TO.N,MISO*%
X-13250000Y-10900000D03*
%TO.P,U5,5*%
%TO.N,SCLK*%
X-11250000Y-10900000D03*
%TO.P,U5,4*%
%TO.N,Net-(U5-Pad4)*%
X-9250000Y-10900000D03*
%TO.P,U5,3*%
%TO.N,CH_PD*%
X-7250000Y-10900000D03*
%TO.P,U5,2*%
%TO.N,Net-(U5-Pad2)*%
X-5250000Y-10900000D03*
%TO.P,U5,1*%
%TO.N,RESET*%
X-3250000Y-10900000D03*
%TD*%
D12*
%TO.P,U1,1*%
%TO.N,Net-(U1-Pad1)*%
X-66700000Y-31300000D03*
D13*
%TO.P,U1,2*%
%TO.N,Net-(U1-Pad2)*%
X-64160000Y-31300000D03*
%TO.P,U1,3*%
%TO.N,Net-(U1-Pad3)*%
X-66700000Y-33840000D03*
%TO.P,U1,4*%
%TO.N,Net-(U1-Pad4)*%
X-64160000Y-33840000D03*
%TO.P,U1,5*%
%TO.N,Net-(U1-Pad5)*%
X-66700000Y-36380000D03*
%TO.P,U1,6*%
%TO.N,Net-(U1-Pad6)*%
X-64160000Y-36380000D03*
%TO.P,U1,7*%
%TO.N,Net-(JP4-Pad2)*%
X-66700000Y-38920000D03*
%TO.P,U1,8*%
%TO.N,GND*%
X-64160000Y-38920000D03*
%TO.P,U1,9*%
%TO.N,Net-(U1-Pad9)*%
X-66700000Y-41460000D03*
%TO.P,U1,10*%
%TO.N,Net-(U1-Pad10)*%
X-64160000Y-41460000D03*
%TO.P,U1,11*%
%TO.N,Net-(U1-Pad11)*%
X-66700000Y-44000000D03*
%TO.P,U1,12*%
%TO.N,Net-(U1-Pad12)*%
X-64160000Y-44000000D03*
%TO.P,U1,13*%
%TO.N,Net-(U1-Pad13)*%
X-66700000Y-46540000D03*
%TO.P,U1,14*%
%TO.N,STM_RESET*%
X-64160000Y-46540000D03*
%TO.P,U1,15*%
%TO.N,Net-(U1-Pad15)*%
X-66700000Y-49080000D03*
%TO.P,U1,16*%
%TO.N,+3V3*%
X-64160000Y-49080000D03*
%TO.P,U1,17*%
%TO.N,Net-(U1-Pad17)*%
X-66700000Y-51620000D03*
%TO.P,U1,18*%
%TO.N,+5V*%
X-64160000Y-51620000D03*
%TO.P,U1,19*%
%TO.N,GND*%
X-66700000Y-54160000D03*
%TO.P,U1,20*%
X-64160000Y-54160000D03*
%TO.P,U1,21*%
%TO.N,Net-(U1-Pad21)*%
X-66700000Y-56700000D03*
%TO.P,U1,22*%
%TO.N,GND*%
X-64160000Y-56700000D03*
%TO.P,U1,23*%
%TO.N,Net-(U1-Pad23)*%
X-66700000Y-59240000D03*
%TO.P,U1,24*%
%TO.N,Net-(U1-Pad24)*%
X-64160000Y-59240000D03*
%TO.P,U1,25*%
%TO.N,Net-(U1-Pad25)*%
X-66700000Y-61780000D03*
%TO.P,U1,26*%
%TO.N,Net-(U1-Pad26)*%
X-64160000Y-61780000D03*
%TO.P,U1,27*%
%TO.N,Net-(U1-Pad27)*%
X-66700000Y-64320000D03*
%TO.P,U1,28*%
%TO.N,Net-(U1-Pad28)*%
X-64160000Y-64320000D03*
%TO.P,U1,29*%
%TO.N,Net-(U1-Pad29)*%
X-66700000Y-66860000D03*
%TO.P,U1,30*%
%TO.N,Net-(U1-Pad30)*%
X-64160000Y-66860000D03*
%TO.P,U1,31*%
%TO.N,Net-(U1-Pad31)*%
X-66700000Y-69400000D03*
%TO.P,U1,32*%
%TO.N,/DAC*%
X-64160000Y-69400000D03*
%TO.P,U1,33*%
%TO.N,Net-(U1-Pad33)*%
X-66700000Y-71940000D03*
%TO.P,U1,34*%
%TO.N,/PB0*%
X-64160000Y-71940000D03*
%TO.P,U1,35*%
%TO.N,Net-(U1-Pad35)*%
X-66700000Y-74480000D03*
%TO.P,U1,36*%
%TO.N,PC1*%
X-64160000Y-74480000D03*
%TO.P,U1,37*%
%TO.N,Net-(U1-Pad37)*%
X-66700000Y-77020000D03*
%TO.P,U1,38*%
%TO.N,PC0*%
X-64160000Y-77020000D03*
%TO.P,U1,39*%
%TO.N,STM_CS*%
X-5740000Y-31300000D03*
%TO.P,U1,40*%
%TO.N,STM_RDY*%
X-3200000Y-31300000D03*
%TO.P,U1,41*%
%TO.N,CAN_RX*%
X-5740000Y-33840000D03*
%TO.P,U1,42*%
%TO.N,CAN_RS*%
X-3200000Y-33840000D03*
%TO.P,U1,43*%
%TO.N,CAN_TX*%
X-5740000Y-36380000D03*
%TO.P,U1,44*%
%TO.N,STM_RX*%
X-3200000Y-36380000D03*
%TO.P,U1,45*%
%TO.N,Net-(U1-Pad45)*%
X-5740000Y-38920000D03*
%TO.P,U1,46*%
%TO.N,+5VA*%
X-3200000Y-38920000D03*
%TO.P,U1,47*%
%TO.N,GND*%
X-5740000Y-41460000D03*
%TO.P,U1,48*%
%TO.N,Net-(U1-Pad48)*%
X-3200000Y-41460000D03*
%TO.P,U1,49*%
%TO.N,SCLK*%
X-5740000Y-44000000D03*
%TO.P,U1,50*%
%TO.N,USB_DP*%
X-3200000Y-44000000D03*
%TO.P,U1,51*%
%TO.N,MISO*%
X-5740000Y-46540000D03*
%TO.P,U1,52*%
%TO.N,USB_DM*%
X-3200000Y-46540000D03*
%TO.P,U1,53*%
%TO.N,MOSI*%
X-5740000Y-49080000D03*
%TO.P,U1,54*%
%TO.N,Net-(U1-Pad54)*%
X-3200000Y-49080000D03*
%TO.P,U1,55*%
%TO.N,Net-(U1-Pad55)*%
X-5740000Y-51620000D03*
%TO.P,U1,56*%
%TO.N,Net-(U1-Pad56)*%
X-3200000Y-51620000D03*
%TO.P,U1,57*%
%TO.N,Net-(U1-Pad57)*%
X-5740000Y-54160000D03*
%TO.P,U1,58*%
%TO.N,GND*%
X-3200000Y-54160000D03*
%TO.P,U1,59*%
%TO.N,Net-(U1-Pad59)*%
X-5740000Y-56700000D03*
%TO.P,U1,60*%
%TO.N,Net-(U1-Pad60)*%
X-3200000Y-56700000D03*
%TO.P,U1,61*%
%TO.N,Net-(U1-Pad61)*%
X-5740000Y-59240000D03*
%TO.P,U1,62*%
%TO.N,Net-(U1-Pad62)*%
X-3200000Y-59240000D03*
%TO.P,U1,63*%
%TO.N,Net-(U1-Pad63)*%
X-5740000Y-61780000D03*
%TO.P,U1,64*%
%TO.N,Net-(U1-Pad64)*%
X-3200000Y-61780000D03*
%TO.P,U1,65*%
%TO.N,Net-(U1-Pad65)*%
X-5740000Y-64320000D03*
%TO.P,U1,66*%
%TO.N,Net-(U1-Pad66)*%
X-3200000Y-64320000D03*
%TO.P,U1,67*%
%TO.N,CAN_TERM*%
X-5740000Y-66860000D03*
%TO.P,U1,68*%
%TO.N,Net-(U1-Pad68)*%
X-3200000Y-66860000D03*
%TO.P,U1,69*%
%TO.N,Net-(U1-Pad69)*%
X-5740000Y-69400000D03*
%TO.P,U1,70*%
%TO.N,Net-(U1-Pad70)*%
X-3200000Y-69400000D03*
%TO.P,U1,71*%
%TO.N,Net-(U1-Pad71)*%
X-5740000Y-71940000D03*
%TO.P,U1,72*%
%TO.N,STM_TX*%
X-3200000Y-71940000D03*
%TO.P,U1,73*%
%TO.N,Net-(U1-Pad73)*%
X-5740000Y-74480000D03*
%TO.P,U1,74*%
%TO.N,Net-(U1-Pad74)*%
X-3200000Y-74480000D03*
%TO.P,U1,75*%
%TO.N,Net-(U1-Pad75)*%
X-5740000Y-77020000D03*
%TO.P,U1,76*%
%TO.N,Net-(U1-Pad76)*%
X-3200000Y-77020000D03*
%TO.P,U1,77*%
%TO.N,GND*%
X-66700000Y-3360000D03*
%TO.P,U1,78*%
X-66700000Y-5900000D03*
%TO.P,U1,79*%
X-3200000Y-3360000D03*
%TO.P,U1,80*%
X-3200000Y-5900000D03*
%TD*%
D14*
%TO.P,U7,5*%
%TO.N,+5V*%
X-31250000Y-63000000D03*
%TO.P,U7,4*%
%TO.N,CAN_TERM*%
X-31250000Y-64300000D03*
%TO.P,U7,2*%
%TO.N,Net-(R13-Pad2)*%
X-33150000Y-63650000D03*
%TO.P,U7,3*%
%TO.N,GND*%
X-33150000Y-64300000D03*
%TO.P,U7,1*%
%TO.N,/CANH*%
X-33150000Y-63000000D03*
%TD*%
D15*
%TO.P,U6,5*%
%TO.N,+5V*%
X-58800000Y-21950000D03*
%TO.P,U6,4*%
%TO.N,Net-(R23-Pad2)*%
X-58800000Y-23850000D03*
%TO.P,U6,3*%
%TO.N,DAC0*%
X-61000000Y-23850000D03*
%TO.P,U6,2*%
%TO.N,GND*%
X-61000000Y-22900000D03*
%TO.P,U6,1*%
%TO.N,AOUT0*%
X-61000000Y-21950000D03*
%TD*%
D16*
%TO.P,U2,5*%
%TO.N,/Vin*%
X-40700000Y-41950000D03*
%TO.P,U2,6*%
%TO.N,Net-(C6-Pad1)*%
X-39750000Y-41950000D03*
%TO.P,U2,4*%
%TO.N,/Vin*%
X-41650000Y-41950000D03*
%TO.P,U2,3*%
%TO.N,Net-(C8-Pad2)*%
X-41650000Y-39750000D03*
%TO.P,U2,2*%
%TO.N,GND*%
X-40700000Y-39750000D03*
%TO.P,U2,1*%
%TO.N,Net-(C6-Pad2)*%
X-39750000Y-39750000D03*
%TD*%
D17*
%TO.P,SW2,2*%
%TO.N,N/C*%
X-32750000Y-7600000D03*
%TO.P,SW2,1*%
%TO.N,GND*%
X-32750000Y-3100000D03*
%TO.P,SW2,2*%
%TO.N,RESET*%
X-26250000Y-7600000D03*
%TO.P,SW2,1*%
%TO.N,GND*%
X-26250000Y-3100000D03*
%TD*%
%TO.P,SW1,2*%
%TO.N,N/C*%
X-44300000Y-7600000D03*
%TO.P,SW1,1*%
%TO.N,GND*%
X-44300000Y-3100000D03*
%TO.P,SW1,2*%
%TO.N,GPIO0*%
X-37800000Y-7600000D03*
%TO.P,SW1,1*%
%TO.N,GND*%
X-37800000Y-3100000D03*
%TD*%
%TO.P,R28,2*%
%TO.N,GND*%
%TA.AperFunction,SMDPad,CuDef*%
G36*
G01*
X-17650001Y-60900000D02*
X-16749999Y-60900000D01*
G75*
G02*
X-16500000Y-61149999I0J-249999D01*
G01*
X-16500000Y-61675001D01*
G75*
G02*
X-16749999Y-61925000I-249999J0D01*
G01*
X-17650001Y-61925000D01*
G75*
G02*
X-17900000Y-61675001I0J249999D01*
G01*
X-17900000Y-61149999D01*
G75*
G02*
X-17650001Y-60900000I249999J0D01*
G01*
G37*
%TD.AperFunction*%
%TO.P,R28,1*%
%TO.N,Net-(R16-Pad2)*%
%TA.AperFunction,SMDPad,CuDef*%
G36*
G01*
X-17650001Y-59075000D02*
X-16749999Y-59075000D01*
G75*
G02*
X-16500000Y-59324999I0J-249999D01*
G01*
X-16500000Y-59850001D01*
G75*
G02*
X-16749999Y-60100000I-249999J0D01*
G01*
X-17650001Y-60100000D01*
G75*
G02*
X-17900000Y-59850001I0J249999D01*
G01*
X-17900000Y-59324999D01*
G75*
G02*
X-17650001Y-59075000I249999J0D01*
G01*
G37*
%TD.AperFunction*%
%TD*%
%TO.P,R27,2*%
%TO.N,Net-(D10-Pad1)*%
%TA.AperFunction,SMDPad,CuDef*%
G36*
G01*
X-57650000Y-56899999D02*
X-57650000Y-57800001D01*
G75*
G02*
X-57899999Y-58050000I-249999J0D01*
G01*
X-58425001Y-58050000D01*
G75*
G02*
X-58675000Y-57800001I0J249999D01*
G01*
X-58675000Y-56899999D01*
G75*
G02*
X-58425001Y-56650000I249999J0D01*
G01*
X-57899999Y-56650000D01*
G75*
G02*
X-57650000Y-56899999I0J-249999D01*
G01*
G37*
%TD.AperFunction*%
%TO.P,R27,1*%
%TO.N,GND*%
%TA.AperFunction,SMDPad,CuDef*%
G36*
G01*
X-55825000Y-56899999D02*
X-55825000Y-57800001D01*
G75*
G02*
X-56074999Y-58050000I-249999J0D01*
G01*
X-56600001Y-58050000D01*
G75*
G02*
X-56850000Y-57800001I0J249999D01*
G01*
X-56850000Y-56899999D01*
G75*
G02*
X-56600001Y-56650000I249999J0D01*
G01*
X-56074999Y-56650000D01*
G75*
G02*
X-55825000Y-56899999I0J-249999D01*
G01*
G37*
%TD.AperFunction*%
%TD*%
%TO.P,R26,2*%
%TO.N,Net-(D9-Pad1)*%
%TA.AperFunction,SMDPad,CuDef*%
G36*
G01*
X-57650000Y-59849999D02*
X-57650000Y-60750001D01*
G75*
G02*
X-57899999Y-61000000I-249999J0D01*
G01*
X-58425001Y-61000000D01*
G75*
G02*
X-58675000Y-60750001I0J249999D01*
G01*
X-58675000Y-59849999D01*
G75*
G02*
X-58425001Y-59600000I249999J0D01*
G01*
X-57899999Y-59600000D01*
G75*
G02*
X-57650000Y-59849999I0J-249999D01*
G01*
G37*
%TD.AperFunction*%
%TO.P,R26,1*%
%TO.N,GND*%
%TA.AperFunction,SMDPad,CuDef*%
G36*
G01*
X-55825000Y-59849999D02*
X-55825000Y-60750001D01*
G75*
G02*
X-56074999Y-61000000I-249999J0D01*
G01*
X-56600001Y-61000000D01*
G75*
G02*
X-56850000Y-60750001I0J249999D01*
G01*
X-56850000Y-59849999D01*
G75*
G02*
X-56600001Y-59600000I249999J0D01*
G01*
X-56074999Y-59600000D01*
G75*
G02*
X-55825000Y-59849999I0J-249999D01*
G01*
G37*
%TD.AperFunction*%
%TD*%
%TO.P,R25,2*%
%TO.N,Net-(D8-Pad1)*%
%TA.AperFunction,SMDPad,CuDef*%
G36*
G01*
X-57650000Y-53949999D02*
X-57650000Y-54850001D01*
G75*
G02*
X-57899999Y-55100000I-249999J0D01*
G01*
X-58425001Y-55100000D01*
G75*
G02*
X-58675000Y-54850001I0J249999D01*
G01*
X-58675000Y-53949999D01*
G75*
G02*
X-58425001Y-53700000I249999J0D01*
G01*
X-57899999Y-53700000D01*
G75*
G02*
X-57650000Y-53949999I0J-249999D01*
G01*
G37*
%TD.AperFunction*%
%TO.P,R25,1*%
%TO.N,GND*%
%TA.AperFunction,SMDPad,CuDef*%
G36*
G01*
X-55825000Y-53949999D02*
X-55825000Y-54850001D01*
G75*
G02*
X-56074999Y-55100000I-249999J0D01*
G01*
X-56600001Y-55100000D01*
G75*
G02*
X-56850000Y-54850001I0J249999D01*
G01*
X-56850000Y-53949999D01*
G75*
G02*
X-56600001Y-53700000I249999J0D01*
G01*
X-56074999Y-53700000D01*
G75*
G02*
X-55825000Y-53949999I0J-249999D01*
G01*
G37*
%TD.AperFunction*%
%TD*%
%TO.P,R24,2*%
%TO.N,Net-(R23-Pad2)*%
%TA.AperFunction,SMDPad,CuDef*%
G36*
G01*
X-64900000Y-19499999D02*
X-64900000Y-20400001D01*
G75*
G02*
X-65149999Y-20650000I-249999J0D01*
G01*
X-65675001Y-20650000D01*
G75*
G02*
X-65925000Y-20400001I0J249999D01*
G01*
X-65925000Y-19499999D01*
G75*
G02*
X-65675001Y-19250000I249999J0D01*
G01*
X-65149999Y-19250000D01*
G75*
G02*
X-64900000Y-19499999I0J-249999D01*
G01*
G37*
%TD.AperFunction*%
%TO.P,R24,1*%
%TO.N,AOUT0*%
%TA.AperFunction,SMDPad,CuDef*%
G36*
G01*
X-63075000Y-19499999D02*
X-63075000Y-20400001D01*
G75*
G02*
X-63324999Y-20650000I-249999J0D01*
G01*
X-63850001Y-20650000D01*
G75*
G02*
X-64100000Y-20400001I0J249999D01*
G01*
X-64100000Y-19499999D01*
G75*
G02*
X-63850001Y-19250000I249999J0D01*
G01*
X-63324999Y-19250000D01*
G75*
G02*
X-63075000Y-19499999I0J-249999D01*
G01*
G37*
%TD.AperFunction*%
%TD*%
%TO.P,R23,2*%
%TO.N,Net-(R23-Pad2)*%
%TA.AperFunction,SMDPad,CuDef*%
G36*
G01*
X-64900000Y-22449999D02*
X-64900000Y-23350001D01*
G75*
G02*
X-65149999Y-23600000I-249999J0D01*
G01*
X-65675001Y-23600000D01*
G75*
G02*
X-65925000Y-23350001I0J249999D01*
G01*
X-65925000Y-22449999D01*
G75*
G02*
X-65675001Y-22200000I249999J0D01*
G01*
X-65149999Y-22200000D01*
G75*
G02*
X-64900000Y-22449999I0J-249999D01*
G01*
G37*
%TD.AperFunction*%
%TO.P,R23,1*%
%TO.N,Net-(R22-Pad1)*%
%TA.AperFunction,SMDPad,CuDef*%
G36*
G01*
X-63075000Y-22449999D02*
X-63075000Y-23350001D01*
G75*
G02*
X-63324999Y-23600000I-249999J0D01*
G01*
X-63850001Y-23600000D01*
G75*
G02*
X-64100000Y-23350001I0J249999D01*
G01*
X-64100000Y-22449999D01*
G75*
G02*
X-63850001Y-22200000I249999J0D01*
G01*
X-63324999Y-22200000D01*
G75*
G02*
X-63075000Y-22449999I0J-249999D01*
G01*
G37*
%TD.AperFunction*%
%TD*%
%TO.P,R22,2*%
%TO.N,GND*%
%TA.AperFunction,SMDPad,CuDef*%
G36*
G01*
X-64900000Y-25399999D02*
X-64900000Y-26300001D01*
G75*
G02*
X-65149999Y-26550000I-249999J0D01*
G01*
X-65675001Y-26550000D01*
G75*
G02*
X-65925000Y-26300001I0J249999D01*
G01*
X-65925000Y-25399999D01*
G75*
G02*
X-65675001Y-25150000I249999J0D01*
G01*
X-65149999Y-25150000D01*
G75*
G02*
X-64900000Y-25399999I0J-249999D01*
G01*
G37*
%TD.AperFunction*%
%TO.P,R22,1*%
%TO.N,Net-(R22-Pad1)*%
%TA.AperFunction,SMDPad,CuDef*%
G36*
G01*
X-63075000Y-25399999D02*
X-63075000Y-26300001D01*
G75*
G02*
X-63324999Y-26550000I-249999J0D01*
G01*
X-63850001Y-26550000D01*
G75*
G02*
X-64100000Y-26300001I0J249999D01*
G01*
X-64100000Y-25399999D01*
G75*
G02*
X-63850001Y-25150000I249999J0D01*
G01*
X-63324999Y-25150000D01*
G75*
G02*
X-63075000Y-25399999I0J-249999D01*
G01*
G37*
%TD.AperFunction*%
%TD*%
%TO.P,R21,2*%
%TO.N,STM_RESET*%
%TA.AperFunction,SMDPad,CuDef*%
G36*
G01*
X-59849999Y-47800000D02*
X-60750001Y-47800000D01*
G75*
G02*
X-61000000Y-47550001I0J249999D01*
G01*
X-61000000Y-47024999D01*
G75*
G02*
X-60750001Y-46775000I249999J0D01*
G01*
X-59849999Y-46775000D01*
G75*
G02*
X-59600000Y-47024999I0J-249999D01*
G01*
X-59600000Y-47550001D01*
G75*
G02*
X-59849999Y-47800000I-249999J0D01*
G01*
G37*
%TD.AperFunction*%
%TO.P,R21,1*%
%TO.N,+3V3*%
%TA.AperFunction,SMDPad,CuDef*%
G36*
G01*
X-59849999Y-49625000D02*
X-60750001Y-49625000D01*
G75*
G02*
X-61000000Y-49375001I0J249999D01*
G01*
X-61000000Y-48849999D01*
G75*
G02*
X-60750001Y-48600000I249999J0D01*
G01*
X-59849999Y-48600000D01*
G75*
G02*
X-59600000Y-48849999I0J-249999D01*
G01*
X-59600000Y-49375001D01*
G75*
G02*
X-59849999Y-49625000I-249999J0D01*
G01*
G37*
%TD.AperFunction*%
%TD*%
%TO.P,R20,2*%
%TO.N,Net-(JP4-Pad1)*%
%TA.AperFunction,SMDPad,CuDef*%
G36*
G01*
X-59849999Y-43300000D02*
X-60750001Y-43300000D01*
G75*
G02*
X-61000000Y-43050001I0J249999D01*
G01*
X-61000000Y-42524999D01*
G75*
G02*
X-60750001Y-42275000I249999J0D01*
G01*
X-59849999Y-42275000D01*
G75*
G02*
X-59600000Y-42524999I0J-249999D01*
G01*
X-59600000Y-43050001D01*
G75*
G02*
X-59849999Y-43300000I-249999J0D01*
G01*
G37*
%TD.AperFunction*%
%TO.P,R20,1*%
%TO.N,+3V3*%
%TA.AperFunction,SMDPad,CuDef*%
G36*
G01*
X-59849999Y-45125000D02*
X-60750001Y-45125000D01*
G75*
G02*
X-61000000Y-44875001I0J249999D01*
G01*
X-61000000Y-44349999D01*
G75*
G02*
X-60750001Y-44100000I249999J0D01*
G01*
X-59849999Y-44100000D01*
G75*
G02*
X-59600000Y-44349999I0J-249999D01*
G01*
X-59600000Y-44875001D01*
G75*
G02*
X-59849999Y-45125000I-249999J0D01*
G01*
G37*
%TD.AperFunction*%
%TD*%
%TO.P,R19,2*%
%TO.N,GND*%
%TA.AperFunction,SMDPad,CuDef*%
G36*
G01*
X-41200000Y-36499999D02*
X-41200000Y-37400001D01*
G75*
G02*
X-41449999Y-37650000I-249999J0D01*
G01*
X-41975001Y-37650000D01*
G75*
G02*
X-42225000Y-37400001I0J249999D01*
G01*
X-42225000Y-36499999D01*
G75*
G02*
X-41975001Y-36250000I249999J0D01*
G01*
X-41449999Y-36250000D01*
G75*
G02*
X-41200000Y-36499999I0J-249999D01*
G01*
G37*
%TD.AperFunction*%
%TO.P,R19,1*%
%TO.N,Net-(C8-Pad2)*%
%TA.AperFunction,SMDPad,CuDef*%
G36*
G01*
X-39375000Y-36499999D02*
X-39375000Y-37400001D01*
G75*
G02*
X-39624999Y-37650000I-249999J0D01*
G01*
X-40150001Y-37650000D01*
G75*
G02*
X-40400000Y-37400001I0J249999D01*
G01*
X-40400000Y-36499999D01*
G75*
G02*
X-40150001Y-36250000I249999J0D01*
G01*
X-39624999Y-36250000D01*
G75*
G02*
X-39375000Y-36499999I0J-249999D01*
G01*
G37*
%TD.AperFunction*%
%TD*%
%TO.P,R18,2*%
%TO.N,Net-(C8-Pad2)*%
%TA.AperFunction,SMDPad,CuDef*%
G36*
G01*
X-36800000Y-36499999D02*
X-36800000Y-37400001D01*
G75*
G02*
X-37049999Y-37650000I-249999J0D01*
G01*
X-37575001Y-37650000D01*
G75*
G02*
X-37825000Y-37400001I0J249999D01*
G01*
X-37825000Y-36499999D01*
G75*
G02*
X-37575001Y-36250000I249999J0D01*
G01*
X-37049999Y-36250000D01*
G75*
G02*
X-36800000Y-36499999I0J-249999D01*
G01*
G37*
%TD.AperFunction*%
%TO.P,R18,1*%
%TO.N,Net-(C7-Pad1)*%
%TA.AperFunction,SMDPad,CuDef*%
G36*
G01*
X-34975000Y-36499999D02*
X-34975000Y-37400001D01*
G75*
G02*
X-35224999Y-37650000I-249999J0D01*
G01*
X-35750001Y-37650000D01*
G75*
G02*
X-36000000Y-37400001I0J249999D01*
G01*
X-36000000Y-36499999D01*
G75*
G02*
X-35750001Y-36250000I249999J0D01*
G01*
X-35224999Y-36250000D01*
G75*
G02*
X-34975000Y-36499999I0J-249999D01*
G01*
G37*
%TD.AperFunction*%
%TD*%
%TO.P,R17,2*%
%TO.N,CH_PD*%
%TA.AperFunction,SMDPad,CuDef*%
G36*
G01*
X-24000000Y-16949999D02*
X-24000000Y-17850001D01*
G75*
G02*
X-24249999Y-18100000I-249999J0D01*
G01*
X-24775001Y-18100000D01*
G75*
G02*
X-25025000Y-17850001I0J249999D01*
G01*
X-25025000Y-16949999D01*
G75*
G02*
X-24775001Y-16700000I249999J0D01*
G01*
X-24249999Y-16700000D01*
G75*
G02*
X-24000000Y-16949999I0J-249999D01*
G01*
G37*
%TD.AperFunction*%
%TO.P,R17,1*%
%TO.N,+3V3*%
%TA.AperFunction,SMDPad,CuDef*%
G36*
G01*
X-22175000Y-16949999D02*
X-22175000Y-17850001D01*
G75*
G02*
X-22424999Y-18100000I-249999J0D01*
G01*
X-22950001Y-18100000D01*
G75*
G02*
X-23200000Y-17850001I0J249999D01*
G01*
X-23200000Y-16949999D01*
G75*
G02*
X-22950001Y-16700000I249999J0D01*
G01*
X-22424999Y-16700000D01*
G75*
G02*
X-22175000Y-16949999I0J-249999D01*
G01*
G37*
%TD.AperFunction*%
%TD*%
%TO.P,R16,2*%
%TO.N,Net-(R16-Pad2)*%
%TA.AperFunction,SMDPad,CuDef*%
G36*
G01*
X-13799999Y-60100000D02*
X-14700001Y-60100000D01*
G75*
G02*
X-14950000Y-59850001I0J249999D01*
G01*
X-14950000Y-59324999D01*
G75*
G02*
X-14700001Y-59075000I249999J0D01*
G01*
X-13799999Y-59075000D01*
G75*
G02*
X-13550000Y-59324999I0J-249999D01*
G01*
X-13550000Y-59850001D01*
G75*
G02*
X-13799999Y-60100000I-249999J0D01*
G01*
G37*
%TD.AperFunction*%
%TO.P,R16,1*%
%TO.N,Net-(Q2-Pad1)*%
%TA.AperFunction,SMDPad,CuDef*%
G36*
G01*
X-13799999Y-61925000D02*
X-14700001Y-61925000D01*
G75*
G02*
X-14950000Y-61675001I0J249999D01*
G01*
X-14950000Y-61149999D01*
G75*
G02*
X-14700001Y-60900000I249999J0D01*
G01*
X-13799999Y-60900000D01*
G75*
G02*
X-13550000Y-61149999I0J-249999D01*
G01*
X-13550000Y-61675001D01*
G75*
G02*
X-13799999Y-61925000I-249999J0D01*
G01*
G37*
%TD.AperFunction*%
%TD*%
%TO.P,R15,2*%
%TO.N,Net-(Q2-Pad1)*%
%TA.AperFunction,SMDPad,CuDef*%
G36*
G01*
X-8749999Y-66450000D02*
X-9650001Y-66450000D01*
G75*
G02*
X-9900000Y-66200001I0J249999D01*
G01*
X-9900000Y-65674999D01*
G75*
G02*
X-9650001Y-65425000I249999J0D01*
G01*
X-8749999Y-65425000D01*
G75*
G02*
X-8500000Y-65674999I0J-249999D01*
G01*
X-8500000Y-66200001D01*
G75*
G02*
X-8749999Y-66450000I-249999J0D01*
G01*
G37*
%TD.AperFunction*%
%TO.P,R15,1*%
%TO.N,VBUS*%
%TA.AperFunction,SMDPad,CuDef*%
G36*
G01*
X-8749999Y-68275000D02*
X-9650001Y-68275000D01*
G75*
G02*
X-9900000Y-68025001I0J249999D01*
G01*
X-9900000Y-67499999D01*
G75*
G02*
X-9650001Y-67250000I249999J0D01*
G01*
X-8749999Y-67250000D01*
G75*
G02*
X-8500000Y-67499999I0J-249999D01*
G01*
X-8500000Y-68025001D01*
G75*
G02*
X-8749999Y-68275000I-249999J0D01*
G01*
G37*
%TD.AperFunction*%
%TD*%
%TO.P,R14,2*%
%TO.N,GPIO2*%
%TA.AperFunction,SMDPad,CuDef*%
G36*
G01*
X-24000000Y-19399999D02*
X-24000000Y-20300001D01*
G75*
G02*
X-24249999Y-20550000I-249999J0D01*
G01*
X-24775001Y-20550000D01*
G75*
G02*
X-25025000Y-20300001I0J249999D01*
G01*
X-25025000Y-19399999D01*
G75*
G02*
X-24775001Y-19150000I249999J0D01*
G01*
X-24249999Y-19150000D01*
G75*
G02*
X-24000000Y-19399999I0J-249999D01*
G01*
G37*
%TD.AperFunction*%
%TO.P,R14,1*%
%TO.N,+3V3*%
%TA.AperFunction,SMDPad,CuDef*%
G36*
G01*
X-22175000Y-19399999D02*
X-22175000Y-20300001D01*
G75*
G02*
X-22424999Y-20550000I-249999J0D01*
G01*
X-22950001Y-20550000D01*
G75*
G02*
X-23200000Y-20300001I0J249999D01*
G01*
X-23200000Y-19399999D01*
G75*
G02*
X-22950001Y-19150000I249999J0D01*
G01*
X-22424999Y-19150000D01*
G75*
G02*
X-22175000Y-19399999I0J-249999D01*
G01*
G37*
%TD.AperFunction*%
%TD*%
%TO.P,R13,2*%
%TO.N,Net-(R13-Pad2)*%
%TA.AperFunction,SMDPad,CuDef*%
G36*
G01*
X-36200001Y-64350000D02*
X-35299999Y-64350000D01*
G75*
G02*
X-35050000Y-64599999I0J-249999D01*
G01*
X-35050000Y-65125001D01*
G75*
G02*
X-35299999Y-65375000I-249999J0D01*
G01*
X-36200001Y-65375000D01*
G75*
G02*
X-36450000Y-65125001I0J249999D01*
G01*
X-36450000Y-64599999D01*
G75*
G02*
X-36200001Y-64350000I249999J0D01*
G01*
G37*
%TD.AperFunction*%
%TO.P,R13,1*%
%TO.N,/CANL*%
%TA.AperFunction,SMDPad,CuDef*%
G36*
G01*
X-36200001Y-62525000D02*
X-35299999Y-62525000D01*
G75*
G02*
X-35050000Y-62774999I0J-249999D01*
G01*
X-35050000Y-63300001D01*
G75*
G02*
X-35299999Y-63550000I-249999J0D01*
G01*
X-36200001Y-63550000D01*
G75*
G02*
X-36450000Y-63300001I0J249999D01*
G01*
X-36450000Y-62774999D01*
G75*
G02*
X-36200001Y-62525000I249999J0D01*
G01*
G37*
%TD.AperFunction*%
%TD*%
%TO.P,R12,2*%
%TO.N,CAN_RS*%
%TA.AperFunction,SMDPad,CuDef*%
G36*
G01*
X-22149999Y-57750000D02*
X-23050001Y-57750000D01*
G75*
G02*
X-23300000Y-57500001I0J249999D01*
G01*
X-23300000Y-56974999D01*
G75*
G02*
X-23050001Y-56725000I249999J0D01*
G01*
X-22149999Y-56725000D01*
G75*
G02*
X-21900000Y-56974999I0J-249999D01*
G01*
X-21900000Y-57500001D01*
G75*
G02*
X-22149999Y-57750000I-249999J0D01*
G01*
G37*
%TD.AperFunction*%
%TO.P,R12,1*%
%TO.N,Net-(R12-Pad1)*%
%TA.AperFunction,SMDPad,CuDef*%
G36*
G01*
X-22149999Y-59575000D02*
X-23050001Y-59575000D01*
G75*
G02*
X-23300000Y-59325001I0J249999D01*
G01*
X-23300000Y-58799999D01*
G75*
G02*
X-23050001Y-58550000I249999J0D01*
G01*
X-22149999Y-58550000D01*
G75*
G02*
X-21900000Y-58799999I0J-249999D01*
G01*
X-21900000Y-59325001D01*
G75*
G02*
X-22149999Y-59575000I-249999J0D01*
G01*
G37*
%TD.AperFunction*%
%TD*%
%TO.P,R11,2*%
%TO.N,GND*%
%TA.AperFunction,SMDPad,CuDef*%
G36*
G01*
X-37550000Y-27400001D02*
X-37550000Y-26499999D01*
G75*
G02*
X-37300001Y-26250000I249999J0D01*
G01*
X-36774999Y-26250000D01*
G75*
G02*
X-36525000Y-26499999I0J-249999D01*
G01*
X-36525000Y-27400001D01*
G75*
G02*
X-36774999Y-27650000I-249999J0D01*
G01*
X-37300001Y-27650000D01*
G75*
G02*
X-37550000Y-27400001I0J249999D01*
G01*
G37*
%TD.AperFunction*%
%TO.P,R11,1*%
%TO.N,Net-(R10-Pad2)*%
%TA.AperFunction,SMDPad,CuDef*%
G36*
G01*
X-39375000Y-27400001D02*
X-39375000Y-26499999D01*
G75*
G02*
X-39125001Y-26250000I249999J0D01*
G01*
X-38599999Y-26250000D01*
G75*
G02*
X-38350000Y-26499999I0J-249999D01*
G01*
X-38350000Y-27400001D01*
G75*
G02*
X-38599999Y-27650000I-249999J0D01*
G01*
X-39125001Y-27650000D01*
G75*
G02*
X-39375000Y-27400001I0J249999D01*
G01*
G37*
%TD.AperFunction*%
%TD*%
%TO.P,R10,2*%
%TO.N,Net-(R10-Pad2)*%
%TA.AperFunction,SMDPad,CuDef*%
G36*
G01*
X-39300001Y-24050000D02*
X-38399999Y-24050000D01*
G75*
G02*
X-38150000Y-24299999I0J-249999D01*
G01*
X-38150000Y-24825001D01*
G75*
G02*
X-38399999Y-25075000I-249999J0D01*
G01*
X-39300001Y-25075000D01*
G75*
G02*
X-39550000Y-24825001I0J249999D01*
G01*
X-39550000Y-24299999D01*
G75*
G02*
X-39300001Y-24050000I249999J0D01*
G01*
G37*
%TD.AperFunction*%
%TO.P,R10,1*%
%TO.N,+5V*%
%TA.AperFunction,SMDPad,CuDef*%
G36*
G01*
X-39300001Y-22225000D02*
X-38399999Y-22225000D01*
G75*
G02*
X-38150000Y-22474999I0J-249999D01*
G01*
X-38150000Y-23000001D01*
G75*
G02*
X-38399999Y-23250000I-249999J0D01*
G01*
X-39300001Y-23250000D01*
G75*
G02*
X-39550000Y-23000001I0J249999D01*
G01*
X-39550000Y-22474999D01*
G75*
G02*
X-39300001Y-22225000I249999J0D01*
G01*
G37*
%TD.AperFunction*%
%TD*%
%TO.P,R9,2*%
%TO.N,Net-(R7-Pad2)*%
%TA.AperFunction,SMDPad,CuDef*%
G36*
G01*
X-49600001Y-24050000D02*
X-48699999Y-24050000D01*
G75*
G02*
X-48450000Y-24299999I0J-249999D01*
G01*
X-48450000Y-24825001D01*
G75*
G02*
X-48699999Y-25075000I-249999J0D01*
G01*
X-49600001Y-25075000D01*
G75*
G02*
X-49850000Y-24825001I0J249999D01*
G01*
X-49850000Y-24299999D01*
G75*
G02*
X-49600001Y-24050000I249999J0D01*
G01*
G37*
%TD.AperFunction*%
%TO.P,R9,1*%
%TO.N,AOUT1*%
%TA.AperFunction,SMDPad,CuDef*%
G36*
G01*
X-49600001Y-22225000D02*
X-48699999Y-22225000D01*
G75*
G02*
X-48450000Y-22474999I0J-249999D01*
G01*
X-48450000Y-23000001D01*
G75*
G02*
X-48699999Y-23250000I-249999J0D01*
G01*
X-49600001Y-23250000D01*
G75*
G02*
X-49850000Y-23000001I0J249999D01*
G01*
X-49850000Y-22474999D01*
G75*
G02*
X-49600001Y-22225000I249999J0D01*
G01*
G37*
%TD.AperFunction*%
%TD*%
%TO.P,R8,2*%
%TO.N,GND*%
%TA.AperFunction,SMDPad,CuDef*%
G36*
G01*
X-50250000Y-20800001D02*
X-50250000Y-19899999D01*
G75*
G02*
X-50000001Y-19650000I249999J0D01*
G01*
X-49474999Y-19650000D01*
G75*
G02*
X-49225000Y-19899999I0J-249999D01*
G01*
X-49225000Y-20800001D01*
G75*
G02*
X-49474999Y-21050000I-249999J0D01*
G01*
X-50000001Y-21050000D01*
G75*
G02*
X-50250000Y-20800001I0J249999D01*
G01*
G37*
%TD.AperFunction*%
%TO.P,R8,1*%
%TO.N,Net-(R7-Pad1)*%
%TA.AperFunction,SMDPad,CuDef*%
G36*
G01*
X-52075000Y-20800001D02*
X-52075000Y-19899999D01*
G75*
G02*
X-51825001Y-19650000I249999J0D01*
G01*
X-51299999Y-19650000D01*
G75*
G02*
X-51050000Y-19899999I0J-249999D01*
G01*
X-51050000Y-20800001D01*
G75*
G02*
X-51299999Y-21050000I-249999J0D01*
G01*
X-51825001Y-21050000D01*
G75*
G02*
X-52075000Y-20800001I0J249999D01*
G01*
G37*
%TD.AperFunction*%
%TD*%
%TO.P,R7,2*%
%TO.N,Net-(R7-Pad2)*%
%TA.AperFunction,SMDPad,CuDef*%
G36*
G01*
X-52000001Y-24050000D02*
X-51099999Y-24050000D01*
G75*
G02*
X-50850000Y-24299999I0J-249999D01*
G01*
X-50850000Y-24825001D01*
G75*
G02*
X-51099999Y-25075000I-249999J0D01*
G01*
X-52000001Y-25075000D01*
G75*
G02*
X-52250000Y-24825001I0J249999D01*
G01*
X-52250000Y-24299999D01*
G75*
G02*
X-52000001Y-24050000I249999J0D01*
G01*
G37*
%TD.AperFunction*%
%TO.P,R7,1*%
%TO.N,Net-(R7-Pad1)*%
%TA.AperFunction,SMDPad,CuDef*%
G36*
G01*
X-52000001Y-22225000D02*
X-51099999Y-22225000D01*
G75*
G02*
X-50850000Y-22474999I0J-249999D01*
G01*
X-50850000Y-23000001D01*
G75*
G02*
X-51099999Y-23250000I-249999J0D01*
G01*
X-52000001Y-23250000D01*
G75*
G02*
X-52250000Y-23000001I0J249999D01*
G01*
X-52250000Y-22474999D01*
G75*
G02*
X-52000001Y-22225000I249999J0D01*
G01*
G37*
%TD.AperFunction*%
%TD*%
%TO.P,R6,2*%
%TO.N,RESET*%
%TA.AperFunction,SMDPad,CuDef*%
G36*
G01*
X-24000000Y-11949999D02*
X-24000000Y-12850001D01*
G75*
G02*
X-24249999Y-13100000I-249999J0D01*
G01*
X-24775001Y-13100000D01*
G75*
G02*
X-25025000Y-12850001I0J249999D01*
G01*
X-25025000Y-11949999D01*
G75*
G02*
X-24775001Y-11700000I249999J0D01*
G01*
X-24249999Y-11700000D01*
G75*
G02*
X-24000000Y-11949999I0J-249999D01*
G01*
G37*
%TD.AperFunction*%
%TO.P,R6,1*%
%TO.N,+3V3*%
%TA.AperFunction,SMDPad,CuDef*%
G36*
G01*
X-22175000Y-11949999D02*
X-22175000Y-12850001D01*
G75*
G02*
X-22424999Y-13100000I-249999J0D01*
G01*
X-22950001Y-13100000D01*
G75*
G02*
X-23200000Y-12850001I0J249999D01*
G01*
X-23200000Y-11949999D01*
G75*
G02*
X-22950001Y-11700000I249999J0D01*
G01*
X-22424999Y-11700000D01*
G75*
G02*
X-22175000Y-11949999I0J-249999D01*
G01*
G37*
%TD.AperFunction*%
%TD*%
%TO.P,R5,2*%
%TO.N,USB_DP*%
%TA.AperFunction,SMDPad,CuDef*%
G36*
G01*
X-16749999Y-51150000D02*
X-17650001Y-51150000D01*
G75*
G02*
X-17900000Y-50900001I0J249999D01*
G01*
X-17900000Y-50374999D01*
G75*
G02*
X-17650001Y-50125000I249999J0D01*
G01*
X-16749999Y-50125000D01*
G75*
G02*
X-16500000Y-50374999I0J-249999D01*
G01*
X-16500000Y-50900001D01*
G75*
G02*
X-16749999Y-51150000I-249999J0D01*
G01*
G37*
%TD.AperFunction*%
%TO.P,R5,1*%
%TO.N,Net-(Q2-Pad2)*%
%TA.AperFunction,SMDPad,CuDef*%
G36*
G01*
X-16749999Y-52975000D02*
X-17650001Y-52975000D01*
G75*
G02*
X-17900000Y-52725001I0J249999D01*
G01*
X-17900000Y-52199999D01*
G75*
G02*
X-17650001Y-51950000I249999J0D01*
G01*
X-16749999Y-51950000D01*
G75*
G02*
X-16500000Y-52199999I0J-249999D01*
G01*
X-16500000Y-52725001D01*
G75*
G02*
X-16749999Y-52975000I-249999J0D01*
G01*
G37*
%TD.AperFunction*%
%TD*%
%TO.P,R4,2*%
%TO.N,GND*%
%TA.AperFunction,SMDPad,CuDef*%
G36*
G01*
X-48600000Y-59300001D02*
X-48600000Y-58399999D01*
G75*
G02*
X-48350001Y-58150000I249999J0D01*
G01*
X-47824999Y-58150000D01*
G75*
G02*
X-47575000Y-58399999I0J-249999D01*
G01*
X-47575000Y-59300001D01*
G75*
G02*
X-47824999Y-59550000I-249999J0D01*
G01*
X-48350001Y-59550000D01*
G75*
G02*
X-48600000Y-59300001I0J249999D01*
G01*
G37*
%TD.AperFunction*%
%TO.P,R4,1*%
%TO.N,Net-(D3-Pad2)*%
%TA.AperFunction,SMDPad,CuDef*%
G36*
G01*
X-50425000Y-59300001D02*
X-50425000Y-58399999D01*
G75*
G02*
X-50175001Y-58150000I249999J0D01*
G01*
X-49649999Y-58150000D01*
G75*
G02*
X-49400000Y-58399999I0J-249999D01*
G01*
X-49400000Y-59300001D01*
G75*
G02*
X-49649999Y-59550000I-249999J0D01*
G01*
X-50175001Y-59550000D01*
G75*
G02*
X-50425000Y-59300001I0J249999D01*
G01*
G37*
%TD.AperFunction*%
%TD*%
%TO.P,R3,2*%
%TO.N,Net-(J1-Pad2)*%
%TA.AperFunction,SMDPad,CuDef*%
G36*
G01*
X-11750001Y-51950000D02*
X-10849999Y-51950000D01*
G75*
G02*
X-10600000Y-52199999I0J-249999D01*
G01*
X-10600000Y-52725001D01*
G75*
G02*
X-10849999Y-52975000I-249999J0D01*
G01*
X-11750001Y-52975000D01*
G75*
G02*
X-12000000Y-52725001I0J249999D01*
G01*
X-12000000Y-52199999D01*
G75*
G02*
X-11750001Y-51950000I249999J0D01*
G01*
G37*
%TD.AperFunction*%
%TO.P,R3,1*%
%TO.N,USB_DM*%
%TA.AperFunction,SMDPad,CuDef*%
G36*
G01*
X-11750001Y-50125000D02*
X-10849999Y-50125000D01*
G75*
G02*
X-10600000Y-50374999I0J-249999D01*
G01*
X-10600000Y-50900001D01*
G75*
G02*
X-10849999Y-51150000I-249999J0D01*
G01*
X-11750001Y-51150000D01*
G75*
G02*
X-12000000Y-50900001I0J249999D01*
G01*
X-12000000Y-50374999D01*
G75*
G02*
X-11750001Y-50125000I249999J0D01*
G01*
G37*
%TD.AperFunction*%
%TD*%
%TO.P,R2,2*%
%TO.N,Net-(J1-Pad3)*%
%TA.AperFunction,SMDPad,CuDef*%
G36*
G01*
X-14700001Y-51950000D02*
X-13799999Y-51950000D01*
G75*
G02*
X-13550000Y-52199999I0J-249999D01*
G01*
X-13550000Y-52725001D01*
G75*
G02*
X-13799999Y-52975000I-249999J0D01*
G01*
X-14700001Y-52975000D01*
G75*
G02*
X-14950000Y-52725001I0J249999D01*
G01*
X-14950000Y-52199999D01*
G75*
G02*
X-14700001Y-51950000I249999J0D01*
G01*
G37*
%TD.AperFunction*%
%TO.P,R2,1*%
%TO.N,USB_DP*%
%TA.AperFunction,SMDPad,CuDef*%
G36*
G01*
X-14700001Y-50125000D02*
X-13799999Y-50125000D01*
G75*
G02*
X-13550000Y-50374999I0J-249999D01*
G01*
X-13550000Y-50900001D01*
G75*
G02*
X-13799999Y-51150000I-249999J0D01*
G01*
X-14700001Y-51150000D01*
G75*
G02*
X-14950000Y-50900001I0J249999D01*
G01*
X-14950000Y-50374999D01*
G75*
G02*
X-14700001Y-50125000I249999J0D01*
G01*
G37*
%TD.AperFunction*%
%TD*%
%TO.P,R1,2*%
%TO.N,GPIO0*%
%TA.AperFunction,SMDPad,CuDef*%
G36*
G01*
X-23950000Y-23899999D02*
X-23950000Y-24800001D01*
G75*
G02*
X-24199999Y-25050000I-249999J0D01*
G01*
X-24725001Y-25050000D01*
G75*
G02*
X-24975000Y-24800001I0J249999D01*
G01*
X-24975000Y-23899999D01*
G75*
G02*
X-24725001Y-23650000I249999J0D01*
G01*
X-24199999Y-23650000D01*
G75*
G02*
X-23950000Y-23899999I0J-249999D01*
G01*
G37*
%TD.AperFunction*%
%TO.P,R1,1*%
%TO.N,Net-(D1-Pad1)*%
%TA.AperFunction,SMDPad,CuDef*%
G36*
G01*
X-22125000Y-23899999D02*
X-22125000Y-24800001D01*
G75*
G02*
X-22374999Y-25050000I-249999J0D01*
G01*
X-22900001Y-25050000D01*
G75*
G02*
X-23150000Y-24800001I0J249999D01*
G01*
X-23150000Y-23899999D01*
G75*
G02*
X-22900001Y-23650000I249999J0D01*
G01*
X-22374999Y-23650000D01*
G75*
G02*
X-22125000Y-23899999I0J-249999D01*
G01*
G37*
%TD.AperFunction*%
%TD*%
D18*
%TO.P,Q2,3*%
%TO.N,+3V3*%
X-16000000Y-56000000D03*
%TO.P,Q2,2*%
%TO.N,Net-(Q2-Pad2)*%
X-14000000Y-55050000D03*
%TO.P,Q2,1*%
%TO.N,Net-(Q2-Pad1)*%
X-14000000Y-56950000D03*
%TD*%
%TO.P,Q1,3*%
%TO.N,Net-(JP1-Pad2)*%
X-54400000Y-57400000D03*
%TO.P,Q1,2*%
%TO.N,/Vin*%
X-52400000Y-56450000D03*
%TO.P,Q1,1*%
%TO.N,Net-(D3-Pad2)*%
X-52400000Y-58350000D03*
%TD*%
D19*
%TO.P,L1,2*%
%TO.N,Net-(C7-Pad1)*%
X-31350000Y-40850000D03*
D20*
%TO.P,L1,1*%
%TO.N,Net-(C6-Pad1)*%
X-33450000Y-40850000D03*
%TD*%
D21*
%TO.P,JP8,3*%
%TO.N,AOUT1*%
X-51170000Y-14550000D03*
%TO.P,JP8,2*%
%TO.N,Net-(J5-Pad1)*%
X-53710000Y-14550000D03*
D12*
%TO.P,JP8,1*%
%TO.N,AOUT0*%
X-56250000Y-14550000D03*
%TD*%
D21*
%TO.P,JP7,3*%
%TO.N,DAC1*%
X-51195000Y-29050000D03*
%TO.P,JP7,2*%
%TO.N,/DAC*%
X-53735000Y-29050000D03*
D12*
%TO.P,JP7,1*%
%TO.N,DAC0*%
X-56275000Y-29050000D03*
%TD*%
D21*
%TO.P,JP4,2*%
%TO.N,Net-(JP4-Pad2)*%
X-60300000Y-36410000D03*
D12*
%TO.P,JP4,1*%
%TO.N,Net-(JP4-Pad1)*%
X-60300000Y-38950000D03*
%TD*%
D21*
%TO.P,JP1,3*%
%TO.N,Net-(J2-Pad1)*%
X-53330000Y-63900000D03*
%TO.P,JP1,2*%
%TO.N,Net-(JP1-Pad2)*%
X-50790000Y-63900000D03*
D12*
%TO.P,JP1,1*%
%TO.N,DSUB_VIN*%
X-48250000Y-63900000D03*
%TD*%
D21*
%TO.P,J3,6*%
%TO.N,GND*%
X-8200000Y-3350000D03*
%TO.P,J3,5*%
%TO.N,Net-(J3-Pad5)*%
X-10740000Y-3350000D03*
%TO.P,J3,4*%
%TO.N,Net-(J3-Pad4)*%
X-13280000Y-3350000D03*
%TO.P,J3,3*%
%TO.N,Net-(D5-Pad1)*%
X-15820000Y-3350000D03*
%TO.P,J3,2*%
%TO.N,FTDI_RX*%
X-18360000Y-3350000D03*
D12*
%TO.P,J3,1*%
%TO.N,Net-(J3-Pad1)*%
X-20900000Y-3350000D03*
%TD*%
D22*
%TO.P,J2,2*%
%TO.N,GND*%
X-53850000Y-75350000D03*
%TO.P,J2,1*%
%TO.N,Net-(J2-Pad1)*%
X-58850000Y-75350000D03*
%TD*%
D23*
%TO.P,J1,6*%
%TO.N,GND*%
X-10065000Y-78085000D03*
X-11985000Y-78085000D03*
D24*
X-8295000Y-77815000D03*
X-13755000Y-77815000D03*
D25*
X-8605000Y-74815000D03*
X-13445000Y-74815000D03*
D26*
%TO.P,J1,5*%
X-9725000Y-74935000D03*
%TO.P,J1,4*%
%TO.N,Net-(J1-Pad4)*%
X-10375000Y-74935000D03*
%TO.P,J1,3*%
%TO.N,Net-(J1-Pad3)*%
X-11025000Y-74935000D03*
%TO.P,J1,2*%
%TO.N,Net-(J1-Pad2)*%
X-11675000Y-74935000D03*
%TO.P,J1,1*%
%TO.N,VBUS*%
X-12325000Y-74935000D03*
D27*
%TO.P,J1,6*%
%TO.N,GND*%
X-8125000Y-74815000D03*
X-13875000Y-74835000D03*
D28*
X-8025000Y-76135000D03*
X-13975000Y-76135000D03*
D29*
X-13755000Y-76885000D03*
X-8275000Y-76885000D03*
%TD*%
%TO.P,D10,2*%
%TO.N,PC1*%
%TA.AperFunction,SMDPad,CuDef*%
G36*
G01*
X-61350000Y-57093750D02*
X-61350000Y-57606250D01*
G75*
G02*
X-61568750Y-57825000I-218750J0D01*
G01*
X-62006250Y-57825000D01*
G75*
G02*
X-62225000Y-57606250I0J218750D01*
G01*
X-62225000Y-57093750D01*
G75*
G02*
X-62006250Y-56875000I218750J0D01*
G01*
X-61568750Y-56875000D01*
G75*
G02*
X-61350000Y-57093750I0J-218750D01*
G01*
G37*
%TD.AperFunction*%
%TO.P,D10,1*%
%TO.N,Net-(D10-Pad1)*%
%TA.AperFunction,SMDPad,CuDef*%
G36*
G01*
X-59775000Y-57093750D02*
X-59775000Y-57606250D01*
G75*
G02*
X-59993750Y-57825000I-218750J0D01*
G01*
X-60431250Y-57825000D01*
G75*
G02*
X-60650000Y-57606250I0J218750D01*
G01*
X-60650000Y-57093750D01*
G75*
G02*
X-60431250Y-56875000I218750J0D01*
G01*
X-59993750Y-56875000D01*
G75*
G02*
X-59775000Y-57093750I0J-218750D01*
G01*
G37*
%TD.AperFunction*%
%TD*%
%TO.P,D9,2*%
%TO.N,PC0*%
%TA.AperFunction,SMDPad,CuDef*%
G36*
G01*
X-61350000Y-60043750D02*
X-61350000Y-60556250D01*
G75*
G02*
X-61568750Y-60775000I-218750J0D01*
G01*
X-62006250Y-60775000D01*
G75*
G02*
X-62225000Y-60556250I0J218750D01*
G01*
X-62225000Y-60043750D01*
G75*
G02*
X-62006250Y-59825000I218750J0D01*
G01*
X-61568750Y-59825000D01*
G75*
G02*
X-61350000Y-60043750I0J-218750D01*
G01*
G37*
%TD.AperFunction*%
%TO.P,D9,1*%
%TO.N,Net-(D9-Pad1)*%
%TA.AperFunction,SMDPad,CuDef*%
G36*
G01*
X-59775000Y-60043750D02*
X-59775000Y-60556250D01*
G75*
G02*
X-59993750Y-60775000I-218750J0D01*
G01*
X-60431250Y-60775000D01*
G75*
G02*
X-60650000Y-60556250I0J218750D01*
G01*
X-60650000Y-60043750D01*
G75*
G02*
X-60431250Y-59825000I218750J0D01*
G01*
X-59993750Y-59825000D01*
G75*
G02*
X-59775000Y-60043750I0J-218750D01*
G01*
G37*
%TD.AperFunction*%
%TD*%
%TO.P,D8,2*%
%TO.N,/PB0*%
%TA.AperFunction,SMDPad,CuDef*%
G36*
G01*
X-61350000Y-54143750D02*
X-61350000Y-54656250D01*
G75*
G02*
X-61568750Y-54875000I-218750J0D01*
G01*
X-62006250Y-54875000D01*
G75*
G02*
X-62225000Y-54656250I0J218750D01*
G01*
X-62225000Y-54143750D01*
G75*
G02*
X-62006250Y-53925000I218750J0D01*
G01*
X-61568750Y-53925000D01*
G75*
G02*
X-61350000Y-54143750I0J-218750D01*
G01*
G37*
%TD.AperFunction*%
%TO.P,D8,1*%
%TO.N,Net-(D8-Pad1)*%
%TA.AperFunction,SMDPad,CuDef*%
G36*
G01*
X-59775000Y-54143750D02*
X-59775000Y-54656250D01*
G75*
G02*
X-59993750Y-54875000I-218750J0D01*
G01*
X-60431250Y-54875000D01*
G75*
G02*
X-60650000Y-54656250I0J218750D01*
G01*
X-60650000Y-54143750D01*
G75*
G02*
X-60431250Y-53925000I218750J0D01*
G01*
X-59993750Y-53925000D01*
G75*
G02*
X-59775000Y-54143750I0J-218750D01*
G01*
G37*
%TD.AperFunction*%
%TD*%
D30*
%TO.P,D7,3*%
%TO.N,GND*%
X-35100000Y-58500000D03*
%TO.P,D7,2*%
%TO.N,/CANH*%
X-34450000Y-60500000D03*
%TO.P,D7,1*%
%TO.N,/CANL*%
X-35750000Y-60500000D03*
%TD*%
D31*
%TO.P,D6,1*%
%TO.N,+5VA*%
X-23900000Y-40850000D03*
%TO.P,D6,2*%
%TO.N,Net-(C7-Pad1)*%
X-27700000Y-40850000D03*
%TD*%
D32*
%TO.P,D5,2*%
%TO.N,FTDI_TX*%
X-18370000Y-6950000D03*
D33*
%TO.P,D5,1*%
%TO.N,Net-(D5-Pad1)*%
X-10750000Y-6950000D03*
%TD*%
D34*
%TO.P,D4,1*%
%TO.N,Net-(C6-Pad1)*%
X-36100000Y-44050000D03*
%TO.P,D4,2*%
%TO.N,GND*%
X-36100000Y-47850000D03*
%TD*%
D35*
%TO.P,D3,2*%
%TO.N,Net-(D3-Pad2)*%
X-46800000Y-55750000D03*
%TO.P,D3,1*%
%TO.N,/Vin*%
X-50100000Y-55750000D03*
%TD*%
D34*
%TO.P,D2,1*%
%TO.N,+5V*%
X-13450000Y-64950000D03*
%TO.P,D2,2*%
%TO.N,VBUS*%
X-13450000Y-68750000D03*
%TD*%
%TO.P,D1,2*%
%TO.N,+3V3*%
%TA.AperFunction,SMDPad,CuDef*%
G36*
G01*
X-23200000Y-22356250D02*
X-23200000Y-21843750D01*
G75*
G02*
X-22981250Y-21625000I218750J0D01*
G01*
X-22543750Y-21625000D01*
G75*
G02*
X-22325000Y-21843750I0J-218750D01*
G01*
X-22325000Y-22356250D01*
G75*
G02*
X-22543750Y-22575000I-218750J0D01*
G01*
X-22981250Y-22575000D01*
G75*
G02*
X-23200000Y-22356250I0J218750D01*
G01*
G37*
%TD.AperFunction*%
%TO.P,D1,1*%
%TO.N,Net-(D1-Pad1)*%
%TA.AperFunction,SMDPad,CuDef*%
G36*
G01*
X-24775000Y-22356250D02*
X-24775000Y-21843750D01*
G75*
G02*
X-24556250Y-21625000I218750J0D01*
G01*
X-24118750Y-21625000D01*
G75*
G02*
X-23900000Y-21843750I0J-218750D01*
G01*
X-23900000Y-22356250D01*
G75*
G02*
X-24118750Y-22575000I-218750J0D01*
G01*
X-24556250Y-22575000D01*
G75*
G02*
X-24775000Y-22356250I0J218750D01*
G01*
G37*
%TD.AperFunction*%
%TD*%
%TO.P,C11,2*%
%TO.N,GND*%
%TA.AperFunction,SMDPad,CuDef*%
G36*
G01*
X-29075000Y-64400000D02*
X-28125000Y-64400000D01*
G75*
G02*
X-27875000Y-64650000I0J-250000D01*
G01*
X-27875000Y-65150000D01*
G75*
G02*
X-28125000Y-65400000I-250000J0D01*
G01*
X-29075000Y-65400000D01*
G75*
G02*
X-29325000Y-65150000I0J250000D01*
G01*
X-29325000Y-64650000D01*
G75*
G02*
X-29075000Y-64400000I250000J0D01*
G01*
G37*
%TD.AperFunction*%
%TO.P,C11,1*%
%TO.N,+5V*%
%TA.AperFunction,SMDPad,CuDef*%
G36*
G01*
X-29075000Y-62500000D02*
X-28125000Y-62500000D01*
G75*
G02*
X-27875000Y-62750000I0J-250000D01*
G01*
X-27875000Y-63250000D01*
G75*
G02*
X-28125000Y-63500000I-250000J0D01*
G01*
X-29075000Y-63500000D01*
G75*
G02*
X-29325000Y-63250000I0J250000D01*
G01*
X-29325000Y-62750000D01*
G75*
G02*
X-29075000Y-62500000I250000J0D01*
G01*
G37*
%TD.AperFunction*%
%TD*%
%TO.P,C10,2*%
%TO.N,GND*%
%TA.AperFunction,SMDPad,CuDef*%
G36*
G01*
X-54800000Y-21825000D02*
X-54800000Y-20875000D01*
G75*
G02*
X-54550000Y-20625000I250000J0D01*
G01*
X-54050000Y-20625000D01*
G75*
G02*
X-53800000Y-20875000I0J-250000D01*
G01*
X-53800000Y-21825000D01*
G75*
G02*
X-54050000Y-22075000I-250000J0D01*
G01*
X-54550000Y-22075000D01*
G75*
G02*
X-54800000Y-21825000I0J250000D01*
G01*
G37*
%TD.AperFunction*%
%TO.P,C10,1*%
%TO.N,+5V*%
%TA.AperFunction,SMDPad,CuDef*%
G36*
G01*
X-56700000Y-21825000D02*
X-56700000Y-20875000D01*
G75*
G02*
X-56450000Y-20625000I250000J0D01*
G01*
X-55950000Y-20625000D01*
G75*
G02*
X-55700000Y-20875000I0J-250000D01*
G01*
X-55700000Y-21825000D01*
G75*
G02*
X-55950000Y-22075000I-250000J0D01*
G01*
X-56450000Y-22075000D01*
G75*
G02*
X-56700000Y-21825000I0J250000D01*
G01*
G37*
%TD.AperFunction*%
%TD*%
%TO.P,C9,2*%
%TO.N,GND*%
%TA.AperFunction,SMDPad,CuDef*%
G36*
G01*
X-54800000Y-25175000D02*
X-54800000Y-24225000D01*
G75*
G02*
X-54550000Y-23975000I250000J0D01*
G01*
X-54050000Y-23975000D01*
G75*
G02*
X-53800000Y-24225000I0J-250000D01*
G01*
X-53800000Y-25175000D01*
G75*
G02*
X-54050000Y-25425000I-250000J0D01*
G01*
X-54550000Y-25425000D01*
G75*
G02*
X-54800000Y-25175000I0J250000D01*
G01*
G37*
%TD.AperFunction*%
%TO.P,C9,1*%
%TO.N,+5V*%
%TA.AperFunction,SMDPad,CuDef*%
G36*
G01*
X-56700000Y-25175000D02*
X-56700000Y-24225000D01*
G75*
G02*
X-56450000Y-23975000I250000J0D01*
G01*
X-55950000Y-23975000D01*
G75*
G02*
X-55700000Y-24225000I0J-250000D01*
G01*
X-55700000Y-25175000D01*
G75*
G02*
X-55950000Y-25425000I-250000J0D01*
G01*
X-56450000Y-25425000D01*
G75*
G02*
X-56700000Y-25175000I0J250000D01*
G01*
G37*
%TD.AperFunction*%
%TD*%
%TO.P,C8,2*%
%TO.N,Net-(C8-Pad2)*%
%TA.AperFunction,SMDPad,CuDef*%
G36*
G01*
X-32050000Y-45625000D02*
X-32550000Y-45625000D01*
G75*
G02*
X-32775000Y-45400000I0J225000D01*
G01*
X-32775000Y-44950000D01*
G75*
G02*
X-32550000Y-44725000I225000J0D01*
G01*
X-32050000Y-44725000D01*
G75*
G02*
X-31825000Y-44950000I0J-225000D01*
G01*
X-31825000Y-45400000D01*
G75*
G02*
X-32050000Y-45625000I-225000J0D01*
G01*
G37*
%TD.AperFunction*%
%TO.P,C8,1*%
%TO.N,Net-(C7-Pad1)*%
%TA.AperFunction,SMDPad,CuDef*%
G36*
G01*
X-32050000Y-47175000D02*
X-32550000Y-47175000D01*
G75*
G02*
X-32775000Y-46950000I0J225000D01*
G01*
X-32775000Y-46500000D01*
G75*
G02*
X-32550000Y-46275000I225000J0D01*
G01*
X-32050000Y-46275000D01*
G75*
G02*
X-31825000Y-46500000I0J-225000D01*
G01*
X-31825000Y-46950000D01*
G75*
G02*
X-32050000Y-47175000I-225000J0D01*
G01*
G37*
%TD.AperFunction*%
%TD*%
%TO.P,C7,2*%
%TO.N,GND*%
%TA.AperFunction,SMDPad,CuDef*%
G36*
G01*
X-29675000Y-46400000D02*
X-28725000Y-46400000D01*
G75*
G02*
X-28475000Y-46650000I0J-250000D01*
G01*
X-28475000Y-47150000D01*
G75*
G02*
X-28725000Y-47400000I-250000J0D01*
G01*
X-29675000Y-47400000D01*
G75*
G02*
X-29925000Y-47150000I0J250000D01*
G01*
X-29925000Y-46650000D01*
G75*
G02*
X-29675000Y-46400000I250000J0D01*
G01*
G37*
%TD.AperFunction*%
%TO.P,C7,1*%
%TO.N,Net-(C7-Pad1)*%
%TA.AperFunction,SMDPad,CuDef*%
G36*
G01*
X-29675000Y-44500000D02*
X-28725000Y-44500000D01*
G75*
G02*
X-28475000Y-44750000I0J-250000D01*
G01*
X-28475000Y-45250000D01*
G75*
G02*
X-28725000Y-45500000I-250000J0D01*
G01*
X-29675000Y-45500000D01*
G75*
G02*
X-29925000Y-45250000I0J250000D01*
G01*
X-29925000Y-44750000D01*
G75*
G02*
X-29675000Y-44500000I250000J0D01*
G01*
G37*
%TD.AperFunction*%
%TD*%
%TO.P,C6,2*%
%TO.N,Net-(C6-Pad2)*%
%TA.AperFunction,SMDPad,CuDef*%
G36*
G01*
X-35625000Y-40400000D02*
X-36575000Y-40400000D01*
G75*
G02*
X-36825000Y-40150000I0J250000D01*
G01*
X-36825000Y-39650000D01*
G75*
G02*
X-36575000Y-39400000I250000J0D01*
G01*
X-35625000Y-39400000D01*
G75*
G02*
X-35375000Y-39650000I0J-250000D01*
G01*
X-35375000Y-40150000D01*
G75*
G02*
X-35625000Y-40400000I-250000J0D01*
G01*
G37*
%TD.AperFunction*%
%TO.P,C6,1*%
%TO.N,Net-(C6-Pad1)*%
%TA.AperFunction,SMDPad,CuDef*%
G36*
G01*
X-35625000Y-42300000D02*
X-36575000Y-42300000D01*
G75*
G02*
X-36825000Y-42050000I0J250000D01*
G01*
X-36825000Y-41550000D01*
G75*
G02*
X-36575000Y-41300000I250000J0D01*
G01*
X-35625000Y-41300000D01*
G75*
G02*
X-35375000Y-41550000I0J-250000D01*
G01*
X-35375000Y-42050000D01*
G75*
G02*
X-35625000Y-42300000I-250000J0D01*
G01*
G37*
%TD.AperFunction*%
%TD*%
%TO.P,C5,2*%
%TO.N,GND*%
%TA.AperFunction,SMDPad,CuDef*%
G36*
G01*
X-24050000Y-14425000D02*
X-24050000Y-15375000D01*
G75*
G02*
X-24300000Y-15625000I-250000J0D01*
G01*
X-24800000Y-15625000D01*
G75*
G02*
X-25050000Y-15375000I0J250000D01*
G01*
X-25050000Y-14425000D01*
G75*
G02*
X-24800000Y-14175000I250000J0D01*
G01*
X-24300000Y-14175000D01*
G75*
G02*
X-24050000Y-14425000I0J-250000D01*
G01*
G37*
%TD.AperFunction*%
%TO.P,C5,1*%
%TO.N,+3V3*%
%TA.AperFunction,SMDPad,CuDef*%
G36*
G01*
X-22150000Y-14425000D02*
X-22150000Y-15375000D01*
G75*
G02*
X-22400000Y-15625000I-250000J0D01*
G01*
X-22900000Y-15625000D01*
G75*
G02*
X-23150000Y-15375000I0J250000D01*
G01*
X-23150000Y-14425000D01*
G75*
G02*
X-22900000Y-14175000I250000J0D01*
G01*
X-22400000Y-14175000D01*
G75*
G02*
X-22150000Y-14425000I0J-250000D01*
G01*
G37*
%TD.AperFunction*%
%TD*%
%TO.P,C4,2*%
%TO.N,GND*%
%TA.AperFunction,SMDPad,CuDef*%
G36*
G01*
X-41175000Y-46350000D02*
X-40225000Y-46350000D01*
G75*
G02*
X-39975000Y-46600000I0J-250000D01*
G01*
X-39975000Y-47100000D01*
G75*
G02*
X-40225000Y-47350000I-250000J0D01*
G01*
X-41175000Y-47350000D01*
G75*
G02*
X-41425000Y-47100000I0J250000D01*
G01*
X-41425000Y-46600000D01*
G75*
G02*
X-41175000Y-46350000I250000J0D01*
G01*
G37*
%TD.AperFunction*%
%TO.P,C4,1*%
%TO.N,/Vin*%
%TA.AperFunction,SMDPad,CuDef*%
G36*
G01*
X-41175000Y-44450000D02*
X-40225000Y-44450000D01*
G75*
G02*
X-39975000Y-44700000I0J-250000D01*
G01*
X-39975000Y-45200000D01*
G75*
G02*
X-40225000Y-45450000I-250000J0D01*
G01*
X-41175000Y-45450000D01*
G75*
G02*
X-41425000Y-45200000I0J250000D01*
G01*
X-41425000Y-44700000D01*
G75*
G02*
X-41175000Y-44450000I250000J0D01*
G01*
G37*
%TD.AperFunction*%
%TD*%
%TO.P,C3,2*%
%TO.N,+3V3*%
%TA.AperFunction,SMDPad,CuDef*%
G36*
G01*
X-32375000Y-56650000D02*
X-31425000Y-56650000D01*
G75*
G02*
X-31175000Y-56900000I0J-250000D01*
G01*
X-31175000Y-57400000D01*
G75*
G02*
X-31425000Y-57650000I-250000J0D01*
G01*
X-32375000Y-57650000D01*
G75*
G02*
X-32625000Y-57400000I0J250000D01*
G01*
X-32625000Y-56900000D01*
G75*
G02*
X-32375000Y-56650000I250000J0D01*
G01*
G37*
%TD.AperFunction*%
%TO.P,C3,1*%
%TO.N,GND*%
%TA.AperFunction,SMDPad,CuDef*%
G36*
G01*
X-32375000Y-54750000D02*
X-31425000Y-54750000D01*
G75*
G02*
X-31175000Y-55000000I0J-250000D01*
G01*
X-31175000Y-55500000D01*
G75*
G02*
X-31425000Y-55750000I-250000J0D01*
G01*
X-32375000Y-55750000D01*
G75*
G02*
X-32625000Y-55500000I0J250000D01*
G01*
X-32625000Y-55000000D01*
G75*
G02*
X-32375000Y-54750000I250000J0D01*
G01*
G37*
%TD.AperFunction*%
%TD*%
%TO.P,C2,2*%
%TO.N,GND*%
%TA.AperFunction,SMDPad,CuDef*%
G36*
G01*
X-43000000Y-19825000D02*
X-43000000Y-20775000D01*
G75*
G02*
X-43250000Y-21025000I-250000J0D01*
G01*
X-43750000Y-21025000D01*
G75*
G02*
X-44000000Y-20775000I0J250000D01*
G01*
X-44000000Y-19825000D01*
G75*
G02*
X-43750000Y-19575000I250000J0D01*
G01*
X-43250000Y-19575000D01*
G75*
G02*
X-43000000Y-19825000I0J-250000D01*
G01*
G37*
%TD.AperFunction*%
%TO.P,C2,1*%
%TO.N,+5V*%
%TA.AperFunction,SMDPad,CuDef*%
G36*
G01*
X-41100000Y-19825000D02*
X-41100000Y-20775000D01*
G75*
G02*
X-41350000Y-21025000I-250000J0D01*
G01*
X-41850000Y-21025000D01*
G75*
G02*
X-42100000Y-20775000I0J250000D01*
G01*
X-42100000Y-19825000D01*
G75*
G02*
X-41850000Y-19575000I250000J0D01*
G01*
X-41350000Y-19575000D01*
G75*
G02*
X-41100000Y-19825000I0J-250000D01*
G01*
G37*
%TD.AperFunction*%
%TD*%
%TO.P,C1,2*%
%TO.N,GND*%
%TA.AperFunction,SMDPad,CuDef*%
G36*
G01*
X-43000000Y-17375000D02*
X-43000000Y-18325000D01*
G75*
G02*
X-43250000Y-18575000I-250000J0D01*
G01*
X-43750000Y-18575000D01*
G75*
G02*
X-44000000Y-18325000I0J250000D01*
G01*
X-44000000Y-17375000D01*
G75*
G02*
X-43750000Y-17125000I250000J0D01*
G01*
X-43250000Y-17125000D01*
G75*
G02*
X-43000000Y-17375000I0J-250000D01*
G01*
G37*
%TD.AperFunction*%
%TO.P,C1,1*%
%TO.N,+5V*%
%TA.AperFunction,SMDPad,CuDef*%
G36*
G01*
X-41100000Y-17375000D02*
X-41100000Y-18325000D01*
G75*
G02*
X-41350000Y-18575000I-250000J0D01*
G01*
X-41850000Y-18575000D01*
G75*
G02*
X-42100000Y-18325000I0J250000D01*
G01*
X-42100000Y-17375000D01*
G75*
G02*
X-41850000Y-17125000I250000J0D01*
G01*
X-41350000Y-17125000D01*
G75*
G02*
X-41100000Y-17375000I0J-250000D01*
G01*
G37*
%TD.AperFunction*%
%TD*%
%TO.P,U4,8*%
%TO.N,Net-(R12-Pad1)*%
%TA.AperFunction,SMDPad,CuDef*%
G36*
G01*
X-25945000Y-59500000D02*
X-25645000Y-59500000D01*
G75*
G02*
X-25495000Y-59650000I0J-150000D01*
G01*
X-25495000Y-61300000D01*
G75*
G02*
X-25645000Y-61450000I-150000J0D01*
G01*
X-25945000Y-61450000D01*
G75*
G02*
X-26095000Y-61300000I0J150000D01*
G01*
X-26095000Y-59650000D01*
G75*
G02*
X-25945000Y-59500000I150000J0D01*
G01*
G37*
%TD.AperFunction*%
%TO.P,U4,7*%
%TO.N,/CANH*%
%TA.AperFunction,SMDPad,CuDef*%
G36*
G01*
X-27215000Y-59500000D02*
X-26915000Y-59500000D01*
G75*
G02*
X-26765000Y-59650000I0J-150000D01*
G01*
X-26765000Y-61300000D01*
G75*
G02*
X-26915000Y-61450000I-150000J0D01*
G01*
X-27215000Y-61450000D01*
G75*
G02*
X-27365000Y-61300000I0J150000D01*
G01*
X-27365000Y-59650000D01*
G75*
G02*
X-27215000Y-59500000I150000J0D01*
G01*
G37*
%TD.AperFunction*%
%TO.P,U4,6*%
%TO.N,/CANL*%
%TA.AperFunction,SMDPad,CuDef*%
G36*
G01*
X-28485000Y-59500000D02*
X-28185000Y-59500000D01*
G75*
G02*
X-28035000Y-59650000I0J-150000D01*
G01*
X-28035000Y-61300000D01*
G75*
G02*
X-28185000Y-61450000I-150000J0D01*
G01*
X-28485000Y-61450000D01*
G75*
G02*
X-28635000Y-61300000I0J150000D01*
G01*
X-28635000Y-59650000D01*
G75*
G02*
X-28485000Y-59500000I150000J0D01*
G01*
G37*
%TD.AperFunction*%
%TO.P,U4,5*%
%TO.N,Net-(U4-Pad5)*%
%TA.AperFunction,SMDPad,CuDef*%
G36*
G01*
X-29755000Y-59500000D02*
X-29455000Y-59500000D01*
G75*
G02*
X-29305000Y-59650000I0J-150000D01*
G01*
X-29305000Y-61300000D01*
G75*
G02*
X-29455000Y-61450000I-150000J0D01*
G01*
X-29755000Y-61450000D01*
G75*
G02*
X-29905000Y-61300000I0J150000D01*
G01*
X-29905000Y-59650000D01*
G75*
G02*
X-29755000Y-59500000I150000J0D01*
G01*
G37*
%TD.AperFunction*%
%TO.P,U4,4*%
%TO.N,CAN_RX*%
%TA.AperFunction,SMDPad,CuDef*%
G36*
G01*
X-29755000Y-54550000D02*
X-29455000Y-54550000D01*
G75*
G02*
X-29305000Y-54700000I0J-150000D01*
G01*
X-29305000Y-56350000D01*
G75*
G02*
X-29455000Y-56500000I-150000J0D01*
G01*
X-29755000Y-56500000D01*
G75*
G02*
X-29905000Y-56350000I0J150000D01*
G01*
X-29905000Y-54700000D01*
G75*
G02*
X-29755000Y-54550000I150000J0D01*
G01*
G37*
%TD.AperFunction*%
%TO.P,U4,3*%
%TO.N,+3V3*%
%TA.AperFunction,SMDPad,CuDef*%
G36*
G01*
X-28485000Y-54550000D02*
X-28185000Y-54550000D01*
G75*
G02*
X-28035000Y-54700000I0J-150000D01*
G01*
X-28035000Y-56350000D01*
G75*
G02*
X-28185000Y-56500000I-150000J0D01*
G01*
X-28485000Y-56500000D01*
G75*
G02*
X-28635000Y-56350000I0J150000D01*
G01*
X-28635000Y-54700000D01*
G75*
G02*
X-28485000Y-54550000I150000J0D01*
G01*
G37*
%TD.AperFunction*%
%TO.P,U4,2*%
%TO.N,GND*%
%TA.AperFunction,SMDPad,CuDef*%
G36*
G01*
X-27215000Y-54550000D02*
X-26915000Y-54550000D01*
G75*
G02*
X-26765000Y-54700000I0J-150000D01*
G01*
X-26765000Y-56350000D01*
G75*
G02*
X-26915000Y-56500000I-150000J0D01*
G01*
X-27215000Y-56500000D01*
G75*
G02*
X-27365000Y-56350000I0J150000D01*
G01*
X-27365000Y-54700000D01*
G75*
G02*
X-27215000Y-54550000I150000J0D01*
G01*
G37*
%TD.AperFunction*%
%TO.P,U4,1*%
%TO.N,CAN_TX*%
%TA.AperFunction,SMDPad,CuDef*%
G36*
G01*
X-25945000Y-54550000D02*
X-25645000Y-54550000D01*
G75*
G02*
X-25495000Y-54700000I0J-150000D01*
G01*
X-25495000Y-56350000D01*
G75*
G02*
X-25645000Y-56500000I-150000J0D01*
G01*
X-25945000Y-56500000D01*
G75*
G02*
X-26095000Y-56350000I0J150000D01*
G01*
X-26095000Y-54700000D01*
G75*
G02*
X-25945000Y-54550000I150000J0D01*
G01*
G37*
%TD.AperFunction*%
%TD*%
%TO.P,U3,8*%
%TO.N,+5V*%
%TA.AperFunction,SMDPad,CuDef*%
G36*
G01*
X-42500000Y-22745000D02*
X-42500000Y-22445000D01*
G75*
G02*
X-42350000Y-22295000I150000J0D01*
G01*
X-40700000Y-22295000D01*
G75*
G02*
X-40550000Y-22445000I0J-150000D01*
G01*
X-40550000Y-22745000D01*
G75*
G02*
X-40700000Y-22895000I-150000J0D01*
G01*
X-42350000Y-22895000D01*
G75*
G02*
X-42500000Y-22745000I0J150000D01*
G01*
G37*
%TD.AperFunction*%
%TO.P,U3,7*%
%TO.N,Net-(U3-Pad6)*%
%TA.AperFunction,SMDPad,CuDef*%
G36*
G01*
X-42500000Y-24015000D02*
X-42500000Y-23715000D01*
G75*
G02*
X-42350000Y-23565000I150000J0D01*
G01*
X-40700000Y-23565000D01*
G75*
G02*
X-40550000Y-23715000I0J-150000D01*
G01*
X-40550000Y-24015000D01*
G75*
G02*
X-40700000Y-24165000I-150000J0D01*
G01*
X-42350000Y-24165000D01*
G75*
G02*
X-42500000Y-24015000I0J150000D01*
G01*
G37*
%TD.AperFunction*%
%TO.P,U3,6*%
%TA.AperFunction,SMDPad,CuDef*%
G36*
G01*
X-42500000Y-25285000D02*
X-42500000Y-24985000D01*
G75*
G02*
X-42350000Y-24835000I150000J0D01*
G01*
X-40700000Y-24835000D01*
G75*
G02*
X-40550000Y-24985000I0J-150000D01*
G01*
X-40550000Y-25285000D01*
G75*
G02*
X-40700000Y-25435000I-150000J0D01*
G01*
X-42350000Y-25435000D01*
G75*
G02*
X-42500000Y-25285000I0J150000D01*
G01*
G37*
%TD.AperFunction*%
%TO.P,U3,5*%
%TO.N,Net-(R10-Pad2)*%
%TA.AperFunction,SMDPad,CuDef*%
G36*
G01*
X-42500000Y-26555000D02*
X-42500000Y-26255000D01*
G75*
G02*
X-42350000Y-26105000I150000J0D01*
G01*
X-40700000Y-26105000D01*
G75*
G02*
X-40550000Y-26255000I0J-150000D01*
G01*
X-40550000Y-26555000D01*
G75*
G02*
X-40700000Y-26705000I-150000J0D01*
G01*
X-42350000Y-26705000D01*
G75*
G02*
X-42500000Y-26555000I0J150000D01*
G01*
G37*
%TD.AperFunction*%
%TO.P,U3,4*%
%TO.N,GND*%
%TA.AperFunction,SMDPad,CuDef*%
G36*
G01*
X-47450000Y-26555000D02*
X-47450000Y-26255000D01*
G75*
G02*
X-47300000Y-26105000I150000J0D01*
G01*
X-45650000Y-26105000D01*
G75*
G02*
X-45500000Y-26255000I0J-150000D01*
G01*
X-45500000Y-26555000D01*
G75*
G02*
X-45650000Y-26705000I-150000J0D01*
G01*
X-47300000Y-26705000D01*
G75*
G02*
X-47450000Y-26555000I0J150000D01*
G01*
G37*
%TD.AperFunction*%
%TO.P,U3,3*%
%TO.N,DAC1*%
%TA.AperFunction,SMDPad,CuDef*%
G36*
G01*
X-47450000Y-25285000D02*
X-47450000Y-24985000D01*
G75*
G02*
X-47300000Y-24835000I150000J0D01*
G01*
X-45650000Y-24835000D01*
G75*
G02*
X-45500000Y-24985000I0J-150000D01*
G01*
X-45500000Y-25285000D01*
G75*
G02*
X-45650000Y-25435000I-150000J0D01*
G01*
X-47300000Y-25435000D01*
G75*
G02*
X-47450000Y-25285000I0J150000D01*
G01*
G37*
%TD.AperFunction*%
%TO.P,U3,2*%
%TO.N,Net-(R7-Pad2)*%
%TA.AperFunction,SMDPad,CuDef*%
G36*
G01*
X-47450000Y-24015000D02*
X-47450000Y-23715000D01*
G75*
G02*
X-47300000Y-23565000I150000J0D01*
G01*
X-45650000Y-23565000D01*
G75*
G02*
X-45500000Y-23715000I0J-150000D01*
G01*
X-45500000Y-24015000D01*
G75*
G02*
X-45650000Y-24165000I-150000J0D01*
G01*
X-47300000Y-24165000D01*
G75*
G02*
X-47450000Y-24015000I0J150000D01*
G01*
G37*
%TD.AperFunction*%
%TO.P,U3,1*%
%TO.N,AOUT1*%
%TA.AperFunction,SMDPad,CuDef*%
G36*
G01*
X-47450000Y-22745000D02*
X-47450000Y-22445000D01*
G75*
G02*
X-47300000Y-22295000I150000J0D01*
G01*
X-45650000Y-22295000D01*
G75*
G02*
X-45500000Y-22445000I0J-150000D01*
G01*
X-45500000Y-22745000D01*
G75*
G02*
X-45650000Y-22895000I-150000J0D01*
G01*
X-47300000Y-22895000D01*
G75*
G02*
X-47450000Y-22745000I0J150000D01*
G01*
G37*
%TD.AperFunction*%
%TD*%
D33*
%TO.P,J6,1*%
%TO.N,Net-(J6-Pad1)*%
X-37750000Y-69050000D03*
D36*
%TO.P,J6,2*%
%TO.N,/CANL*%
X-34980000Y-69050000D03*
%TO.P,J6,3*%
%TO.N,GND*%
X-32210000Y-69050000D03*
%TO.P,J6,4*%
%TO.N,Net-(J6-Pad4)*%
X-29440000Y-69050000D03*
%TO.P,J6,5*%
%TO.N,Net-(J6-Pad5)*%
X-26670000Y-69050000D03*
%TO.P,J6,6*%
%TO.N,GND*%
X-36365000Y-71890000D03*
%TO.P,J6,7*%
%TO.N,/CANH*%
X-33595000Y-71890000D03*
%TO.P,J6,8*%
%TO.N,Net-(J6-Pad8)*%
X-30825000Y-71890000D03*
%TO.P,J6,9*%
%TO.N,DSUB_VIN*%
X-28055000Y-71890000D03*
D37*
%TO.P,J6,0*%
%TO.N,N/C*%
X-44710000Y-70470000D03*
X-19710000Y-70470000D03*
%TD*%
D22*
%TO.P,J5,2*%
%TO.N,GND*%
X-60950000Y-5050000D03*
%TO.P,J5,1*%
%TO.N,Net-(J5-Pad1)*%
X-55950000Y-5050000D03*
%TD*%
D38*
%TO.N,GND*%
X-44950000Y-17850000D03*
X-48025000Y-26437653D03*
X-31900000Y-53750000D03*
X-27050000Y-57300000D03*
X-36950000Y-25600000D03*
X-46700000Y-58850000D03*
X-35100000Y-57350000D03*
X-34000000Y-65900000D03*
X-48350000Y-20350000D03*
X-53000000Y-21350000D03*
X-66750000Y-25850000D03*
X-62250000Y-22900000D03*
X-28600000Y-66099990D03*
X-17200000Y-62800000D03*
X-25850000Y-14850000D03*
X-17250000Y-28550000D03*
X-56350000Y-52750000D03*
X-40700000Y-40750000D03*
X-43050000Y-36950000D03*
X-40700000Y-48200000D03*
X-36100000Y-49500000D03*
X-29200000Y-48200000D03*
X-53000000Y-24700000D03*
%TO.N,+5V*%
X-56200000Y-26750000D03*
X-55900000Y-19500000D03*
X-40000000Y-20300000D03*
X-37100000Y-61500000D03*
X-33550000Y-61600000D03*
%TO.N,+3V3*%
X-17400000Y-56000000D03*
X-28787500Y-57237500D03*
X-51150000Y-49100000D03*
X-49050000Y-49100000D03*
%TO.N,CAN_RS*%
X-10000000Y-37400003D03*
%TO.N,CAN_TX*%
X-10000000Y-36400000D03*
%TO.N,CAN_RX*%
X-9947442Y-35401380D03*
%TO.N,Net-(J1-Pad3)*%
X-8424501Y-63374501D03*
X-7412337Y-69087657D03*
%TO.N,Net-(J1-Pad2)*%
X-7400000Y-63250000D03*
X-7274990Y-68003413D03*
%TO.N,ESP_TX*%
X-3250000Y-24000000D03*
%TO.N,STM_RX*%
X-6250000Y-23550000D03*
%TO.N,ESP_RX*%
X-4800000Y-19100000D03*
%TO.N,STM_TX*%
X-7700000Y-17500000D03*
%TO.N,GPIO0*%
X-25700000Y-21650000D03*
X-27700000Y-21650000D03*
%TO.N,CH_PD*%
X-21400000Y-17400000D03*
X-25900000Y-17400000D03*
%TO.N,STM_RESET*%
X-8200000Y-31400000D03*
X-7650000Y-23950000D03*
%TO.N,Net-(R23-Pad2)*%
X-57550000Y-22900000D03*
X-66450000Y-24250000D03*
%TO.N,MOSI*%
X-15250000Y-13500000D03*
X-14050011Y-39850000D03*
%TO.N,MISO*%
X-13250000Y-13500000D03*
X-13242885Y-39042885D03*
%TO.N,SCLK*%
X-11250000Y-13500000D03*
X-12499996Y-39950000D03*
%TD*%
D39*
%TO.N,GND*%
X-43587500Y-17850000D02*
X-43587500Y-20300000D01*
X-43587500Y-17850000D02*
X-44950000Y-17850000D01*
X-47992347Y-26405000D02*
X-48025000Y-26437653D01*
X-46475000Y-26405000D02*
X-47992347Y-26405000D01*
X-31900000Y-55162500D02*
X-31900000Y-53750000D01*
X-27065000Y-57285000D02*
X-27050000Y-57300000D01*
X-27065000Y-55525000D02*
X-27065000Y-57285000D01*
X-36950000Y-26950000D02*
X-36950000Y-25600000D01*
D40*
X-48087500Y-58850000D02*
X-46700000Y-58850000D01*
D41*
X-35100000Y-58500000D02*
X-35100000Y-57350000D01*
X-33150000Y-65050000D02*
X-34000000Y-65900000D01*
X-33150000Y-64300000D02*
X-33150000Y-65050000D01*
X-49737500Y-20350000D02*
X-48350000Y-20350000D01*
X-54300000Y-21350000D02*
X-53000000Y-21350000D01*
X-65412500Y-25850000D02*
X-66750000Y-25850000D01*
X-61000000Y-22900000D02*
X-62250000Y-22900000D01*
X-28600000Y-64900000D02*
X-28600000Y-66099990D01*
D39*
X-8245000Y-74935000D02*
X-8125000Y-74815000D01*
X-9725000Y-74935000D02*
X-8245000Y-74935000D01*
X-17200000Y-61412500D02*
X-17200000Y-62800000D01*
X-25800000Y-14900000D02*
X-25850000Y-14850000D01*
X-24550000Y-14900000D02*
X-25800000Y-14900000D01*
D40*
X-17250000Y-25600000D02*
X-17250000Y-28550000D01*
D39*
X-56337500Y-60300000D02*
X-56337500Y-57350000D01*
X-56337500Y-57350000D02*
X-56337500Y-54400000D01*
X-56337500Y-52762500D02*
X-56350000Y-52750000D01*
X-56337500Y-54400000D02*
X-56337500Y-52762500D01*
X-40700000Y-39750000D02*
X-40700000Y-40750000D01*
X-41712500Y-36950000D02*
X-43050000Y-36950000D01*
X-40700000Y-46850000D02*
X-40700000Y-48200000D01*
X-36100000Y-47850000D02*
X-36100000Y-49500000D01*
X-29200000Y-46900000D02*
X-29200000Y-48200000D01*
D41*
X-9795000Y-77815000D02*
X-10065000Y-78085000D01*
X-8295000Y-77815000D02*
X-9795000Y-77815000D01*
X-12255000Y-77815000D02*
X-11985000Y-78085000D01*
X-13755000Y-77815000D02*
X-12255000Y-77815000D01*
D39*
X-54300000Y-24700000D02*
X-53000000Y-24700000D01*
%TO.N,+5V*%
X-41470000Y-22650000D02*
X-41525000Y-22595000D01*
X-38850000Y-22650000D02*
X-41470000Y-22650000D01*
X-41512500Y-22582500D02*
X-41525000Y-22595000D01*
X-41512500Y-20300000D02*
X-41512500Y-22582500D01*
X-41512500Y-17850000D02*
X-41512500Y-20300000D01*
X-41550000Y-17812500D02*
X-41512500Y-17850000D01*
D41*
X-56800000Y-21950000D02*
X-56200000Y-21350000D01*
X-58800000Y-21950000D02*
X-56800000Y-21950000D01*
X-56200000Y-21350000D02*
X-56200000Y-24350000D01*
X-56200000Y-26750000D02*
X-56200000Y-24350000D01*
X-31250000Y-63000000D02*
X-28600000Y-63000000D01*
X-26650000Y-64950000D02*
X-28600000Y-63000000D01*
X-13450000Y-64950000D02*
X-26650000Y-64950000D01*
X-56200000Y-19800000D02*
X-55900000Y-19500000D01*
X-56200000Y-21350000D02*
X-56200000Y-19800000D01*
X-40000000Y-20300000D02*
X-41600000Y-20300000D01*
X-47580001Y-54549999D02*
X-44050001Y-54549999D01*
X-49249999Y-56219997D02*
X-47580001Y-54549999D01*
X-44050001Y-54549999D02*
X-37100000Y-61500000D01*
X-49249999Y-56880001D02*
X-49249999Y-56219997D01*
X-53130001Y-57200001D02*
X-49569999Y-57200001D01*
X-53200001Y-57130001D02*
X-53130001Y-57200001D01*
X-53200001Y-54119991D02*
X-53200001Y-57130001D01*
X-49569999Y-57200001D02*
X-49249999Y-56880001D01*
X-55699992Y-51620000D02*
X-53200001Y-54119991D01*
X-64160000Y-51620000D02*
X-55699992Y-51620000D01*
X-32650000Y-61600000D02*
X-31250000Y-63000000D01*
X-33550000Y-61600000D02*
X-32650000Y-61600000D01*
D39*
X-56200000Y-21350000D02*
X-56200000Y-24700000D01*
X-56200000Y-24700000D02*
X-56200000Y-26750000D01*
%TO.N,+3V3*%
X-31900000Y-57237500D02*
X-28787500Y-57237500D01*
X-28335000Y-56785000D02*
X-28335000Y-55525000D01*
X-28787500Y-57237500D02*
X-28335000Y-56785000D01*
X-60862501Y-45175001D02*
X-60300000Y-44612500D01*
X-64534003Y-45175001D02*
X-60862501Y-45175001D01*
X-65335001Y-45975999D02*
X-64534003Y-45175001D01*
X-65335001Y-47904999D02*
X-65335001Y-45975999D01*
X-64160000Y-49080000D02*
X-65335001Y-47904999D01*
X-64127500Y-49112500D02*
X-64160000Y-49080000D01*
X-60300000Y-49112500D02*
X-64127500Y-49112500D01*
D40*
X-21887500Y-11600000D02*
X-22687500Y-12400000D01*
X-17250000Y-11600000D02*
X-21887500Y-11600000D01*
X-22687500Y-14862500D02*
X-22650000Y-14900000D01*
X-22687500Y-12400000D02*
X-22687500Y-14862500D01*
X-22650000Y-17362500D02*
X-22687500Y-17400000D01*
X-22650000Y-14900000D02*
X-22650000Y-17362500D01*
X-22687500Y-19850000D02*
X-22687500Y-17400000D01*
X-22762500Y-19925000D02*
X-22687500Y-19850000D01*
X-22762500Y-22100000D02*
X-22762500Y-19925000D01*
D41*
X-16000000Y-56000000D02*
X-17400000Y-56000000D01*
X-51162500Y-49112500D02*
X-51150000Y-49100000D01*
X-60300000Y-49112500D02*
X-51162500Y-49112500D01*
X-39950000Y-49100000D02*
X-31900000Y-57150000D01*
X-49050000Y-49100000D02*
X-39950000Y-49100000D01*
D40*
X-58725010Y-43037510D02*
X-60300000Y-44612500D01*
X-58725010Y-32861824D02*
X-58725010Y-43037510D01*
X-56713197Y-30850011D02*
X-58725010Y-32861824D01*
X-28500011Y-30850011D02*
X-56713197Y-30850011D01*
X-26800000Y-29150000D02*
X-28500011Y-30850011D01*
X-26800000Y-14541998D02*
X-26800000Y-29150000D01*
X-25808012Y-13550010D02*
X-26800000Y-14541998D01*
X-23837510Y-13550010D02*
X-25808012Y-13550010D01*
X-22687500Y-12400000D02*
X-23837510Y-13550010D01*
D39*
%TO.N,USB_DP*%
X-17200000Y-50637500D02*
X-14250000Y-50637500D01*
X-10611820Y-49799990D02*
X-13412490Y-49799990D01*
X-13412490Y-49799990D02*
X-14250000Y-50637500D01*
X-10061810Y-50350000D02*
X-10611820Y-49799990D01*
X-5100000Y-50350000D02*
X-10061810Y-50350000D01*
X-4450000Y-45250000D02*
X-4450000Y-49700000D01*
X-4450000Y-49700000D02*
X-5100000Y-50350000D01*
X-3200000Y-44000000D02*
X-4450000Y-45250000D01*
%TO.N,USB_DM*%
X-2000000Y-49750000D02*
X-2000000Y-47740000D01*
X-2600000Y-50350000D02*
X-2000000Y-49750000D01*
X-3950000Y-50350000D02*
X-2600000Y-50350000D01*
X-4450000Y-50850000D02*
X-3950000Y-50350000D01*
X-4450000Y-52250000D02*
X-4450000Y-50850000D01*
X-5100000Y-52900000D02*
X-4450000Y-52250000D01*
X-9037500Y-52900000D02*
X-5100000Y-52900000D01*
X-2000000Y-47740000D02*
X-3200000Y-46540000D01*
X-11300000Y-50637500D02*
X-9037500Y-52900000D01*
D41*
%TO.N,/CANH*%
X-34450000Y-60500000D02*
X-34450000Y-62700000D01*
X-34150000Y-63000000D02*
X-33150000Y-63000000D01*
X-34450000Y-62700000D02*
X-34150000Y-63000000D01*
X-32644998Y-63000000D02*
X-32350000Y-63294998D01*
X-33150000Y-63000000D02*
X-32644998Y-63000000D01*
X-32350000Y-63294998D02*
X-32350000Y-66600000D01*
X-33595000Y-67845000D02*
X-33595000Y-71890000D01*
X-32350000Y-66600000D02*
X-33595000Y-67845000D01*
X-29962114Y-61800010D02*
X-30950000Y-60812124D01*
X-31262124Y-60500000D02*
X-29962114Y-61800010D01*
X-34450000Y-60500000D02*
X-31262124Y-60500000D01*
X-27065000Y-60475000D02*
X-27065000Y-61450000D01*
X-27065000Y-61450000D02*
X-27415010Y-61800010D01*
X-27415010Y-61800010D02*
X-29962114Y-61800010D01*
%TO.N,/CANL*%
X-35750000Y-60500000D02*
X-35750000Y-63037500D01*
X-35750000Y-63037500D02*
X-36787500Y-63037500D01*
X-36787500Y-63037500D02*
X-37150000Y-63400000D01*
X-37150000Y-66880000D02*
X-34980000Y-69050000D01*
X-37150000Y-63400000D02*
X-37150000Y-66880000D01*
X-34050000Y-58800000D02*
X-35750000Y-60500000D01*
X-28850000Y-58800000D02*
X-34050000Y-58800000D01*
X-28335000Y-59315000D02*
X-28850000Y-58800000D01*
X-28335000Y-60475000D02*
X-28335000Y-59315000D01*
D40*
%TO.N,Net-(JP1-Pad2)*%
X-54400000Y-57400000D02*
X-54400000Y-60500000D01*
X-54400000Y-60500000D02*
X-53500000Y-61400000D01*
X-53500000Y-61400000D02*
X-51550000Y-61400000D01*
X-50790000Y-62160000D02*
X-50790000Y-63900000D01*
X-51550000Y-61400000D02*
X-50790000Y-62160000D01*
D39*
%TO.N,Net-(R7-Pad2)*%
X-48365000Y-23865000D02*
X-49150000Y-24650000D01*
X-46475000Y-23865000D02*
X-48365000Y-23865000D01*
X-49150000Y-24650000D02*
X-51550000Y-24650000D01*
D41*
%TO.N,Net-(R7-Pad1)*%
X-51550000Y-20362500D02*
X-51562500Y-20350000D01*
X-51550000Y-22737500D02*
X-51550000Y-20362500D01*
D39*
%TO.N,Net-(R10-Pad2)*%
X-39495000Y-26405000D02*
X-38950000Y-26950000D01*
X-41525000Y-26405000D02*
X-39495000Y-26405000D01*
X-38950000Y-24750000D02*
X-38850000Y-24650000D01*
X-38950000Y-26950000D02*
X-38950000Y-24750000D01*
%TO.N,CAN_RS*%
X-22600000Y-55950000D02*
X-25300000Y-53250000D01*
X-22600000Y-57150000D02*
X-22600000Y-55950000D01*
X-25300000Y-38700000D02*
X-24000003Y-37400003D01*
X-25300000Y-53250000D02*
X-25300000Y-38700000D01*
X-16500003Y-37400003D02*
X-10000000Y-37400003D01*
X-24000003Y-37400003D02*
X-16500003Y-37400003D01*
%TO.N,Net-(R12-Pad1)*%
X-25495000Y-59150000D02*
X-22600000Y-59150000D01*
X-25795000Y-59450000D02*
X-25495000Y-59150000D01*
X-25795000Y-60475000D02*
X-25795000Y-59450000D01*
%TO.N,CAN_TX*%
X-25795000Y-38545000D02*
X-25795000Y-55525000D01*
X-23650000Y-36400000D02*
X-25795000Y-38545000D01*
X-10000000Y-36400000D02*
X-23650000Y-36400000D01*
%TO.N,CAN_RX*%
X-27400000Y-53700000D02*
X-26250000Y-52550000D01*
X-29200000Y-53700000D02*
X-27400000Y-53700000D01*
X-29605000Y-54105000D02*
X-29200000Y-53700000D01*
X-29605000Y-55525000D02*
X-29605000Y-54105000D01*
X-26245010Y-38358600D02*
X-23287790Y-35401380D01*
X-26250000Y-51300000D02*
X-26245010Y-51295010D01*
X-26245010Y-51295010D02*
X-26245010Y-38358600D01*
X-26250000Y-52550000D02*
X-26250000Y-51300000D01*
X-15787790Y-35401380D02*
X-9947442Y-35401380D01*
X-23287790Y-35401380D02*
X-15787790Y-35401380D01*
D41*
%TO.N,Net-(U3-Pad6)*%
X-41525000Y-25135000D02*
X-41525000Y-23865000D01*
D40*
%TO.N,/Vin*%
X-51700000Y-55750000D02*
X-52400000Y-56450000D01*
X-50100000Y-55750000D02*
X-51700000Y-55750000D01*
D39*
X-40700000Y-44950000D02*
X-40700000Y-41950000D01*
X-40700000Y-41950000D02*
X-41650000Y-41950000D01*
D40*
X-40700000Y-44950000D02*
X-47650000Y-44950000D01*
X-50100000Y-47400000D02*
X-50100000Y-55750000D01*
X-47650000Y-44950000D02*
X-50100000Y-47400000D01*
D39*
%TO.N,Net-(C6-Pad2)*%
X-36250000Y-39750000D02*
X-36100000Y-39900000D01*
X-39750000Y-39750000D02*
X-36250000Y-39750000D01*
%TO.N,Net-(C6-Pad1)*%
X-36250000Y-41950000D02*
X-36100000Y-41800000D01*
X-39750000Y-41950000D02*
X-36250000Y-41950000D01*
X-36100000Y-41800000D02*
X-36100000Y-44050000D01*
X-35150000Y-40850000D02*
X-36100000Y-41800000D01*
X-33450000Y-40850000D02*
X-35150000Y-40850000D01*
%TO.N,Net-(C7-Pad1)*%
X-35487500Y-36950000D02*
X-32250000Y-36950000D01*
X-31350000Y-37850000D02*
X-31350000Y-40850000D01*
X-32250000Y-36950000D02*
X-31350000Y-37850000D01*
X-31350000Y-40850000D02*
X-27700000Y-40850000D01*
X-29200000Y-42350000D02*
X-27700000Y-40850000D01*
X-29200000Y-45000000D02*
X-29200000Y-42350000D01*
X-30575000Y-45000000D02*
X-32300000Y-46725000D01*
X-29200000Y-45000000D02*
X-30575000Y-45000000D01*
%TO.N,Net-(C8-Pad2)*%
X-41650000Y-38712500D02*
X-39887500Y-36950000D01*
X-41650000Y-39750000D02*
X-41650000Y-38712500D01*
X-39887500Y-36950000D02*
X-37312500Y-36950000D01*
X-32300000Y-39264998D02*
X-33114998Y-38450000D01*
X-32300000Y-45175000D02*
X-32300000Y-39264998D01*
X-35812500Y-38450000D02*
X-37312500Y-36950000D01*
X-33114998Y-38450000D02*
X-35812500Y-38450000D01*
%TO.N,Net-(D1-Pad1)*%
X-24337500Y-22662500D02*
X-24337500Y-22100000D01*
X-22650000Y-24350000D02*
X-24337500Y-22662500D01*
X-22637500Y-24350000D02*
X-22650000Y-24350000D01*
%TO.N,VBUS*%
X-12325000Y-69875000D02*
X-13450000Y-68750000D01*
X-12325000Y-74935000D02*
X-12325000Y-69875000D01*
X-12462500Y-67762500D02*
X-13450000Y-68750000D01*
X-9200000Y-67762500D02*
X-12462500Y-67762500D01*
D40*
%TO.N,Net-(D3-Pad2)*%
X-51900000Y-58850000D02*
X-52400000Y-58350000D01*
X-49912500Y-58850000D02*
X-51900000Y-58850000D01*
X-46812500Y-55750000D02*
X-49912500Y-58850000D01*
X-46800000Y-55750000D02*
X-46812500Y-55750000D01*
D41*
%TO.N,Net-(D5-Pad1)*%
X-15820000Y-3350000D02*
X-15820000Y-4680000D01*
X-13550000Y-6950000D02*
X-10750000Y-6950000D01*
X-15820000Y-4680000D02*
X-13550000Y-6950000D01*
%TO.N,+5VA*%
X-9249999Y-37719999D02*
X-9822883Y-38292883D01*
X-23900000Y-39650000D02*
X-23900000Y-40850000D01*
X-3200000Y-38920000D02*
X-4400001Y-37719999D01*
X-9822883Y-38292883D02*
X-22542883Y-38292883D01*
X-4400001Y-37719999D02*
X-9249999Y-37719999D01*
X-22542883Y-38292883D02*
X-23900000Y-39650000D01*
D39*
%TO.N,Net-(D8-Pad1)*%
X-60212500Y-54400000D02*
X-58162500Y-54400000D01*
%TO.N,Net-(D9-Pad1)*%
X-60212500Y-60300000D02*
X-58162500Y-60300000D01*
%TO.N,Net-(D10-Pad1)*%
X-60212500Y-57350000D02*
X-58162500Y-57350000D01*
%TO.N,Net-(J1-Pad3)*%
X-8450000Y-63349002D02*
X-8424501Y-63374501D01*
X-8450000Y-58262500D02*
X-8450000Y-63349002D01*
X-14250000Y-52462500D02*
X-8450000Y-58262500D01*
X-11025000Y-72700320D02*
X-7412337Y-69087657D01*
X-11025000Y-74935000D02*
X-11025000Y-72700320D01*
%TO.N,Net-(J1-Pad2)*%
X-7353413Y-68003413D02*
X-7274990Y-68003413D01*
X-11675000Y-72325000D02*
X-7353413Y-68003413D01*
X-11675000Y-74935000D02*
X-11675000Y-72325000D01*
X-11300000Y-54600000D02*
X-11300000Y-52462500D01*
X-7900000Y-58000000D02*
X-11300000Y-54600000D01*
X-7900000Y-62750000D02*
X-7900000Y-58000000D01*
X-7400000Y-63250000D02*
X-7900000Y-62750000D01*
D42*
%TO.N,Net-(J2-Pad1)*%
X-53330000Y-63900000D02*
X-56600000Y-63900000D01*
X-58850000Y-66150000D02*
X-58850000Y-75350000D01*
X-56600000Y-63900000D02*
X-58850000Y-66150000D01*
D41*
%TO.N,Net-(J5-Pad1)*%
X-53710000Y-7290000D02*
X-55950000Y-5050000D01*
X-53710000Y-14550000D02*
X-53710000Y-7290000D01*
D42*
%TO.N,DSUB_VIN*%
X-48250000Y-63900000D02*
X-48250000Y-73350000D01*
X-48250000Y-73350000D02*
X-46000000Y-75600000D01*
X-46000000Y-75600000D02*
X-29250000Y-75600000D01*
X-28055000Y-74405000D02*
X-28055000Y-71890000D01*
X-29250000Y-75600000D02*
X-28055000Y-74405000D01*
D41*
%TO.N,ESP_TX*%
X-3250000Y-24000000D02*
X-3250000Y-25600000D01*
%TO.N,STM_RX*%
X-4173998Y-28550000D02*
X-5350000Y-28550000D01*
X-3200000Y-36380000D02*
X-1999999Y-35179999D01*
X-1999999Y-30723999D02*
X-4173998Y-28550000D01*
X-6250000Y-27650000D02*
X-6250000Y-23550000D01*
X-5350000Y-28550000D02*
X-6250000Y-27650000D01*
X-1999999Y-35179999D02*
X-1999999Y-30723999D01*
%TO.N,ESP_RX*%
X-4800000Y-25150000D02*
X-5250000Y-25600000D01*
X-4800000Y-19100000D02*
X-4800000Y-25150000D01*
%TO.N,STM_TX*%
X-5289998Y-17500000D02*
X-7700000Y-17500000D01*
X-1499989Y-21290009D02*
X-5289998Y-17500000D01*
X-1499989Y-70239989D02*
X-1499989Y-21290009D01*
X-3200000Y-71940000D02*
X-1499989Y-70239989D01*
D39*
%TO.N,Net-(JP4-Pad2)*%
X-61445001Y-37555001D02*
X-60300000Y-36410000D01*
X-65335001Y-37555001D02*
X-61445001Y-37555001D01*
X-66700000Y-38920000D02*
X-65335001Y-37555001D01*
%TO.N,Net-(JP4-Pad1)*%
X-60300000Y-42787500D02*
X-60300000Y-38950000D01*
D41*
%TO.N,STM_RDY*%
X-5657122Y-28950000D02*
X-8350000Y-28950000D01*
X-3200000Y-31300000D02*
X-3307122Y-31300000D01*
X-3307122Y-31300000D02*
X-5657122Y-28950000D01*
X-8350000Y-28950000D02*
X-9250000Y-28050000D01*
X-9250000Y-28050000D02*
X-9250000Y-25600000D01*
%TO.N,STM_CS*%
X-5740000Y-31300000D02*
X-7540000Y-29500000D01*
X-7540000Y-29500000D02*
X-14250000Y-29500000D01*
X-15250000Y-28500000D02*
X-15250000Y-25600000D01*
X-14250000Y-29500000D02*
X-15250000Y-28500000D01*
%TO.N,DAC1*%
X-51195000Y-28497651D02*
X-51195000Y-29050000D01*
X-48132349Y-25435000D02*
X-51195000Y-28497651D01*
X-46775000Y-25435000D02*
X-48132349Y-25435000D01*
X-46475000Y-25135000D02*
X-46775000Y-25435000D01*
%TO.N,/DAC*%
X-65360001Y-68199999D02*
X-64160000Y-69400000D01*
X-67276001Y-68199999D02*
X-65360001Y-68199999D01*
X-67430002Y-29700000D02*
X-68250000Y-30519998D01*
X-63983998Y-29700000D02*
X-67430002Y-29700000D01*
X-68250000Y-67226000D02*
X-67276001Y-68199999D01*
X-63433997Y-30250001D02*
X-63983998Y-29700000D01*
X-68250000Y-30519998D02*
X-68250000Y-67226000D01*
X-54935001Y-30250001D02*
X-63433997Y-30250001D01*
X-53735000Y-29050000D02*
X-54935001Y-30250001D01*
%TO.N,DAC0*%
X-56275000Y-29050000D02*
X-60200000Y-29050000D01*
X-61000000Y-28250000D02*
X-61000000Y-23850000D01*
X-60200000Y-29050000D02*
X-61000000Y-28250000D01*
%TO.N,AOUT1*%
X-46617500Y-22737500D02*
X-46475000Y-22595000D01*
X-49150000Y-22737500D02*
X-46617500Y-22737500D01*
X-50650000Y-21237500D02*
X-49150000Y-22737500D01*
X-50650000Y-19650000D02*
X-50650000Y-21237500D01*
X-51170000Y-19130000D02*
X-50650000Y-19650000D01*
X-51170000Y-14550000D02*
X-51170000Y-19130000D01*
%TO.N,AOUT0*%
X-61587500Y-21950000D02*
X-63587500Y-19950000D01*
X-61000000Y-21950000D02*
X-61587500Y-21950000D01*
X-56250000Y-17200000D02*
X-61000000Y-21950000D01*
X-56250000Y-14550000D02*
X-56250000Y-17200000D01*
D39*
%TO.N,Net-(Q2-Pad2)*%
X-14612500Y-55050000D02*
X-17200000Y-52462500D01*
X-14000000Y-55050000D02*
X-14612500Y-55050000D01*
%TO.N,Net-(Q2-Pad1)*%
X-9200000Y-65937500D02*
X-9200000Y-62700000D01*
X-10487500Y-61412500D02*
X-14250000Y-61412500D01*
X-9200000Y-62700000D02*
X-10487500Y-61412500D01*
X-13224990Y-60387490D02*
X-14250000Y-61412500D01*
X-13224990Y-57725010D02*
X-13224990Y-60387490D01*
X-14000000Y-56950000D02*
X-13224990Y-57725010D01*
%TO.N,GPIO0*%
X-23437490Y-25375010D02*
X-24462500Y-24350000D01*
X-22136820Y-25375010D02*
X-23437490Y-25375010D01*
X-21486809Y-24724999D02*
X-22136820Y-25375010D01*
X-12125001Y-24724999D02*
X-21486809Y-24724999D01*
X-11250000Y-25600000D02*
X-12125001Y-24724999D01*
X-25700000Y-23112500D02*
X-25700000Y-21650000D01*
X-24462500Y-24350000D02*
X-25700000Y-23112500D01*
X-36474999Y-6274999D02*
X-37800000Y-7600000D01*
X-32113999Y-6274999D02*
X-36474999Y-6274999D01*
X-27700000Y-10688998D02*
X-32113999Y-6274999D01*
X-27700000Y-21650000D02*
X-27700000Y-10688998D01*
%TO.N,RESET*%
X-24512500Y-12400000D02*
X-24512500Y-9337500D01*
X-24550000Y-9300000D02*
X-26250000Y-7600000D01*
X-24512500Y-9337500D02*
X-24550000Y-9300000D01*
X-24250000Y-9000000D02*
X-24550000Y-9300000D01*
X-3500000Y-9000000D02*
X-24250000Y-9000000D01*
X-3250000Y-9250000D02*
X-3500000Y-9000000D01*
X-3250000Y-11600000D02*
X-3250000Y-9250000D01*
D41*
%TO.N,Net-(R13-Pad2)*%
X-34537500Y-63650000D02*
X-35750000Y-64862500D01*
X-33150000Y-63650000D02*
X-34537500Y-63650000D01*
D39*
%TO.N,GPIO2*%
X-12060001Y-27875001D02*
X-13250000Y-26685002D01*
X-10374999Y-27810001D02*
X-10439999Y-27875001D01*
X-10374999Y-24625001D02*
X-10374999Y-27810001D01*
X-12285001Y-22714999D02*
X-10374999Y-24625001D01*
X-20460001Y-22714999D02*
X-12285001Y-22714999D01*
X-10439999Y-27875001D02*
X-12060001Y-27875001D01*
X-21069992Y-23324990D02*
X-20460001Y-22714999D01*
X-23025010Y-23324990D02*
X-21069992Y-23324990D01*
X-23525010Y-22824990D02*
X-23025010Y-23324990D01*
X-13250000Y-26685002D02*
X-13250000Y-25600000D01*
X-23525010Y-20324990D02*
X-23525010Y-22824990D01*
X-24000000Y-19850000D02*
X-23525010Y-20324990D01*
X-24512500Y-19850000D02*
X-24000000Y-19850000D01*
%TO.N,Net-(R16-Pad2)*%
X-14250000Y-59587500D02*
X-17200000Y-59587500D01*
%TO.N,CH_PD*%
X-21400000Y-15654998D02*
X-21400000Y-17400000D01*
X-20460001Y-14714999D02*
X-21400000Y-15654998D01*
X-10364999Y-14714999D02*
X-20460001Y-14714999D01*
X-7250000Y-11600000D02*
X-10364999Y-14714999D01*
X-25900000Y-17400000D02*
X-24512500Y-17400000D01*
%TO.N,STM_RESET*%
X-61047500Y-46540000D02*
X-60300000Y-47287500D01*
X-64160000Y-46540000D02*
X-61047500Y-46540000D01*
X-7650000Y-25200000D02*
X-7250000Y-25600000D01*
X-7650000Y-23950000D02*
X-7650000Y-25200000D01*
X-8700000Y-31900000D02*
X-8200000Y-31400000D01*
X-58150000Y-33100000D02*
X-56950000Y-31900000D01*
X-58150000Y-46450000D02*
X-58150000Y-33100000D01*
X-56950000Y-31900000D02*
X-8700000Y-31900000D01*
X-58987500Y-47287500D02*
X-58150000Y-46450000D01*
X-60300000Y-47287500D02*
X-58987500Y-47287500D01*
D41*
%TO.N,Net-(R22-Pad1)*%
X-63587500Y-25850000D02*
X-63587500Y-22900000D01*
%TO.N,Net-(R23-Pad2)*%
X-65412500Y-22900000D02*
X-65412500Y-19950000D01*
X-58500000Y-23850000D02*
X-57550000Y-22900000D01*
X-58800000Y-23850000D02*
X-58500000Y-23850000D01*
X-66450000Y-23937500D02*
X-65412500Y-22900000D01*
X-66450000Y-24250000D02*
X-66450000Y-23937500D01*
%TO.N,MOSI*%
X-15250000Y-13500000D02*
X-15250000Y-11600000D01*
X-5740000Y-49080000D02*
X-14050011Y-40769989D01*
X-14050011Y-40769989D02*
X-14050011Y-39850000D01*
%TO.N,MISO*%
X-13250000Y-13500000D02*
X-13250000Y-11600000D01*
X-13300001Y-39100001D02*
X-13242885Y-39042885D01*
X-13300001Y-40415684D02*
X-13300001Y-39100001D01*
X-5740000Y-46540000D02*
X-7175685Y-46540000D01*
X-7175685Y-46540000D02*
X-13300001Y-40415684D01*
%TO.N,SCLK*%
X-11250000Y-13500000D02*
X-11250000Y-11600000D01*
X-5740000Y-44000000D02*
X-9790000Y-39950000D01*
X-9790000Y-39950000D02*
X-12499996Y-39950000D01*
%TO.N,CAN_TERM*%
X-30500000Y-64300000D02*
X-31250000Y-64300000D01*
X-30250000Y-65660002D02*
X-30250000Y-64550000D01*
X-29050002Y-66860000D02*
X-30250000Y-65660002D01*
X-30250000Y-64550000D02*
X-30500000Y-64300000D01*
X-5740000Y-66860000D02*
X-29050002Y-66860000D01*
D39*
%TO.N,/PB0*%
X-62984999Y-55597499D02*
X-61787500Y-54400000D01*
X-62984999Y-70764999D02*
X-62984999Y-55597499D01*
X-64160000Y-71940000D02*
X-62984999Y-70764999D01*
%TO.N,PC0*%
X-61787500Y-71306502D02*
X-61787500Y-60300000D01*
X-63595999Y-73115001D02*
X-61787500Y-71306502D01*
X-64534003Y-73115001D02*
X-63595999Y-73115001D01*
X-65335001Y-73915999D02*
X-64534003Y-73115001D01*
X-65335001Y-75044001D02*
X-65335001Y-73915999D01*
X-64160000Y-76219002D02*
X-65335001Y-75044001D01*
X-64160000Y-77020000D02*
X-64160000Y-76219002D01*
%TO.N,PC1*%
X-61024990Y-71344990D02*
X-61024990Y-58112510D01*
X-61024990Y-58112510D02*
X-61787500Y-57350000D01*
X-64160000Y-74480000D02*
X-61024990Y-71344990D01*
%TD*%
M02*
